<svg xmlns="http://www.w3.org/2000/svg" viewBox="0 0 1421.46 593.58"><defs><style>.a,.n{fill:none;stroke:#000;stroke-linecap:round;stroke-width:3px;}.a{stroke-linejoin:round;}.b,.c,.d,.f,.i,.j,.l,.m,.o{fill:#00b520;}.b,.d,.e,.i{stroke:#00b520;}.b,.d,.e,.f,.i,.j,.k,.l,.m,.n,.o{stroke-miterlimit:10;}.b,.l{stroke-width:0.5px;}.d,.e,.m{stroke-width:0.75px;}.e,.g,.k{fill:#fff;}.f,.j,.k,.l,.m,.o{stroke:#fff;}.f{stroke-width:0.13px;}.g{font-size:30px;font-family:Objective-Bold, Objective Bold;font-weight:700;}.h{opacity:0.5;}.i{stroke-width:2px;}.k{stroke-width:0.39px;}.o{stroke-width:0.25px;}</style></defs><title>diagram</title><path class="a" d="M1215.68,76.69h35.14a12,12,0,0,1,12,12V256a12,12,0,0,1-12,12L13.51,266.81a12,12,0,0,0-12,12v154.6a12,12,0,0,0,12,12H83.86"/><path class="b" d="M1131.65,88.18h-31.59a.72.72,0,0,0,0,1.43h31.59a3.15,3.15,0,0,1,3.14,3.14v25.36a3.15,3.15,0,0,1-3.14,3.14h-38.86a3.15,3.15,0,0,1-3.14-3.14V92.75a3.15,3.15,0,0,1,3.14-3.14h4.42a.72.72,0,0,0,0-1.43h-4.42a4.57,4.57,0,0,0-4.56,4.57v25.36a4.57,4.57,0,0,0,4.56,4.57h11.46l-1.39,4.56h-2.62a2.43,2.43,0,0,0,0,4.85h24a2.43,2.43,0,0,0,0-4.85h-2.62l-1.4-4.56h11.46a4.58,4.58,0,0,0,4.57-4.57V92.75a4.58,4.58,0,0,0-4.57-4.57Zm-6.45,41.48a1,1,0,0,1-1,1h-24a1,1,0,1,1,0-2h24a1,1,0,0,1,1,1Zm-5.1-2.42h-15.75l1.4-4.56h13Z"/><path class="b" d="M1131.71,111.38a.71.71,0,0,0,.71-.71V92.75a.77.77,0,0,0-.77-.77h-38.86a.77.77,0,0,0-.76.77V116a.71.71,0,0,0,.71.71h39a.71.71,0,0,0,.71-.71v-2.46a.72.72,0,0,0-1.43,0v1.75h-37.54V93.41H1131v17.26a.71.71,0,0,0,.72.71Z"/><path class="b" d="M1112.82,118.45a.72.72,0,1,0-.1.91.74.74,0,0,0,.1-.91Z"/><path class="c" d="M1156.45,127h22.47a0,0,0,0,1,0,0v2.12a2.06,2.06,0,0,1-2.06,2.06h-18.35a2.06,2.06,0,0,1-2.06-2.06V127A0,0,0,0,1,1156.45,127Z"/><path class="c" d="M1159.1,89.13h17.17a2.65,2.65,0,0,1,2.65,2.65v4.27a0,0,0,0,1,0,0h-22.47a0,0,0,0,1,0,0V91.79A2.65,2.65,0,0,1,1159.1,89.13Z"/><path class="c" d="M1175.74,132.15h-16.12a4.11,4.11,0,0,1-4.1-4.1V92.28a4.11,4.11,0,0,1,4.1-4.1h16.12a4.11,4.11,0,0,1,4.1,4.1v35.77A4.11,4.11,0,0,1,1175.74,132.15Zm-16.12-42.31a2.44,2.44,0,0,0-2.44,2.44v35.77a2.44,2.44,0,0,0,2.44,2.44h16.12a2.45,2.45,0,0,0,2.45-2.44V92.28a2.45,2.45,0,0,0-2.45-2.44Z"/><path class="b" d="M1153.62,62.06h28.13a0,0,0,0,1,0,0v1.7a2.24,2.24,0,0,1-2.24,2.24h-23.65a2.24,2.24,0,0,1-2.24-2.24v-1.7A0,0,0,0,1,1153.62,62.06Z"/><path class="b" d="M1157,66.76a4.2,4.2,0,0,1-4.14-4.2V29.83a4.2,4.2,0,0,1,4.2-4.2h21.26a4.2,4.2,0,0,1,4.2,4.2V62.56a4.2,4.2,0,0,1-4.2,4.2H1157Zm21.37-39.84h-21.31a2.92,2.92,0,0,0-2,.85,2.89,2.89,0,0,0-.85,2.06V62.56a2.85,2.85,0,0,0,.85,2,2.91,2.91,0,0,0,2,.86h21.26a2.92,2.92,0,0,0,2.91-2.91V29.83a2.89,2.89,0,0,0-.85-2.06A3,3,0,0,0,1178.36,26.92Z"/><path class="d" d="M1129.58,66.41h-36.12a4.89,4.89,0,0,1-4.88-4.88V33.35a4.89,4.89,0,0,1,4.88-4.88h36.12a4.89,4.89,0,0,1,4.89,4.88V61.53A4.89,4.89,0,0,1,1129.58,66.41Zm-36.12-36.73a3.67,3.67,0,0,0-3.67,3.67V61.53a3.67,3.67,0,0,0,3.67,3.67h36.12a3.67,3.67,0,0,0,3.68-3.67V33.35a3.67,3.67,0,0,0-3.68-3.67Z"/><path class="e" d="M1085.57,62.44h51.91a0,0,0,0,1,0,0v.76a3,3,0,0,1-3,3h-46a3,3,0,0,1-3-3v-.76A0,0,0,0,1,1085.57,62.44Z"/><path class="d" d="M1134.52,66.76h-46A3.57,3.57,0,0,1,1085,63.2V61.83h53.12V63.2A3.56,3.56,0,0,1,1134.52,66.76ZM1086.17,63v.16a2.35,2.35,0,0,0,2.35,2.35h46a2.35,2.35,0,0,0,2.35-2.35V63Z"/><path d="M1051.88,115.46c6.87-7,11.76-15.13,13.63-24.81,3.32-17.2-1.06-32.23-13.22-44.93a5.47,5.47,0,0,1-.41-.54H1050c-1.61,1.71-.65,3,.62,4.35,10.13,11,13.94,23.91,11.55,38.58a42,42,0,0,1-11.67,23.2c-1.32,1.34-2,2.56-.5,4.15Z"/><path d="M1056.09,80.52a38.06,38.06,0,0,0-10.36-26.34c-1-1.06-2-2.32-3.49-.92s-.32,2.4.63,3.39a34.38,34.38,0,0,1-.06,47.43c-1,1-1.88,2.14-.5,3.38s2.38.11,3.33-.89A37.69,37.69,0,0,0,1056.09,80.52Z"/><path d="M1045.82,80.35a28.14,28.14,0,0,0-7.49-19c-1-1.07-2.07-1.94-3.37-.74s-.37,2.24.48,3.24c6.84,8.08,8.44,17,4.12,26.75-1,2.31-2.91,4.22-4.18,6.44-.48.83-.81,2.4-.37,3,1,1.24,2.17.54,3.14-.48A27.93,27.93,0,0,0,1045.82,80.35Z"/><path d="M1035.35,80.88c-.16-5-1.51-8.93-4.52-12.27-.9-1-1.94-1.83-3.19-.73s-.52,2.2.33,3.25c4.76,5.84,4.77,12.56,0,18.34-.85,1-1.63,2.14-.4,3.25s2.4.24,3.35-.82A17.64,17.64,0,0,0,1035.35,80.88Z"/><path d="M1024.07,80.27a3.83,3.83,0,0,0-4-3.7,3.75,3.75,0,1,0,.35,7.49A3.8,3.8,0,0,0,1024.07,80.27Z"/><path class="f" d="M972.31,105.92a1.36,1.36,0,0,0,0-2.71H906.58V57.38h10.64a1.35,1.35,0,1,0,0-2.7h-12A1.35,1.35,0,0,0,903.88,56v48.54a1.35,1.35,0,0,0,1.35,1.35Z"/><path class="f" d="M922.63,54.68a1.35,1.35,0,0,0,0,2.7h70.69v45.83h-15.6a1.36,1.36,0,1,0,0,2.71h16.95a1.35,1.35,0,0,0,1.35-1.35V56a1.35,1.35,0,0,0-1.35-1.35h-72Z"/><path class="c" d="M950,91.41a11.09,11.09,0,1,0-11.09-11.09A11.11,11.11,0,0,0,950,91.41Zm0-19.86a8.77,8.77,0,1,1-8.77,8.77A8.77,8.77,0,0,1,950,71.55Z"/><path class="f" d="M938.51,99.29h41.17A1.34,1.34,0,0,0,981,97.94c0-3.4,3.44-6.74,6.93-6.74a1.35,1.35,0,0,0,1.35-1.35V70.75A1.34,1.34,0,0,0,988,69.4c-3.49,0-6.93-3.34-6.93-6.74a1.35,1.35,0,0,0-1.35-1.36h-60.2a1.35,1.35,0,0,0-1.35,1.36c0,3.61-2.89,6.77-6.19,6.77a1.35,1.35,0,0,0-1.35,1.36v19a1.34,1.34,0,0,0,1.35,1.35c3.3,0,6.19,3.17,6.19,6.78a1.34,1.34,0,0,0,1.35,1.35H933.1a1.35,1.35,0,1,0,0-2.7H920.73a10,10,0,0,0-2.45-5.19,8.75,8.75,0,0,0-5-2.83V72a8.69,8.69,0,0,0,5-2.83A10,10,0,0,0,920.73,64h57.72a10.31,10.31,0,0,0,8.16,8V88.61a10.28,10.28,0,0,0-8.16,8H938.51a1.35,1.35,0,1,0,0,2.7Z"/><circle class="c" cx="1042.28" cy="189.97" r="22"/><text class="g" transform="translate(1034.59 198.78)">3</text><g class="h"><path class="b" d="M338.39,452.89H306.8a.72.72,0,0,0,0,1.43h31.59a3.13,3.13,0,0,1,3.14,3.14v25.36a3.14,3.14,0,0,1-3.14,3.14H299.53a3.15,3.15,0,0,1-3.14-3.14V457.46a3.14,3.14,0,0,1,3.14-3.14H304a.72.72,0,0,0,0-1.43h-4.42a4.57,4.57,0,0,0-4.56,4.57v25.36a4.57,4.57,0,0,0,4.56,4.57H311L309.6,492H307a2.42,2.42,0,0,0,0,4.84h24a2.42,2.42,0,0,0,0-4.84h-2.62l-1.4-4.56h11.46a4.58,4.58,0,0,0,4.57-4.57V457.46a4.58,4.58,0,0,0-4.57-4.57Zm-6.45,41.48a1,1,0,0,1-1,1H307a1,1,0,0,1,0-2h24a1,1,0,0,1,1,1Zm-5.1-2.42H311.09l1.4-4.56h12.95Z"/><path class="b" d="M338.45,476.09a.71.71,0,0,0,.71-.71V457.46a.76.76,0,0,0-.77-.77H299.53a.76.76,0,0,0-.76.77v23.23a.71.71,0,0,0,.71.71h39a.71.71,0,0,0,.71-.71v-2.46a.72.72,0,0,0-1.43,0V480H300.2V458.12h37.53v17.26a.71.71,0,0,0,.72.71Z"/><path class="b" d="M319.56,483.16a.74.74,0,0,0-.74-.31.7.7,0,0,0-.56.63.72.72,0,0,0,1.2.59.74.74,0,0,0,.1-.91Z"/><path class="c" d="M363.19,491.73h22.47a0,0,0,0,1,0,0v2.12a2.06,2.06,0,0,1-2.06,2.06H365.25a2.06,2.06,0,0,1-2.06-2.06v-2.12A0,0,0,0,1,363.19,491.73Z"/><path class="c" d="M365.84,453.84H383a2.65,2.65,0,0,1,2.65,2.65v4.27a0,0,0,0,1,0,0H363.19a0,0,0,0,1,0,0V456.5A2.65,2.65,0,0,1,365.84,453.84Z"/><path class="c" d="M382.48,496.85H366.36a4.11,4.11,0,0,1-4.1-4.1V457a4.11,4.11,0,0,1,4.1-4.1h16.12a4.11,4.11,0,0,1,4.1,4.1v35.76A4.11,4.11,0,0,1,382.48,496.85Zm-16.12-42.3a2.44,2.44,0,0,0-2.44,2.44v35.76a2.45,2.45,0,0,0,2.44,2.45h16.12a2.45,2.45,0,0,0,2.45-2.45V457a2.45,2.45,0,0,0-2.45-2.44Z"/><path class="b" d="M360.36,426.77h28.13a0,0,0,0,1,0,0v1.7a2.24,2.24,0,0,1-2.24,2.24H362.6a2.24,2.24,0,0,1-2.24-2.24v-1.7a0,0,0,0,1,0,0Z"/><path class="b" d="M363.73,431.47a4.2,4.2,0,0,1-4.14-4.2V394.53a4.2,4.2,0,0,1,4.2-4.19h21.26a4,4,0,0,1,3,1.23,4.12,4.12,0,0,1,1.23,3v32.74a4.2,4.2,0,0,1-4.19,4.2H363.73Zm21.37-39.84H363.79a2.9,2.9,0,0,0-2.9,2.9v32.74a2.9,2.9,0,0,0,2.9,2.9h21.26a2.9,2.9,0,0,0,2.91-2.9V394.53a2.9,2.9,0,0,0-2.86-2.9Z"/><path class="d" d="M336.33,431.12H300.2a4.89,4.89,0,0,1-4.88-4.88V398.06a4.9,4.9,0,0,1,4.88-4.89h36.13a4.9,4.9,0,0,1,4.88,4.89v28.18A4.89,4.89,0,0,1,336.33,431.12ZM300.2,394.38a3.67,3.67,0,0,0-3.67,3.68v28.18a3.67,3.67,0,0,0,3.67,3.67h36.13a3.68,3.68,0,0,0,3.67-3.67V398.06a3.68,3.68,0,0,0-3.67-3.68Z"/><path class="e" d="M292.31,427.14h51.91a0,0,0,0,1,0,0v.76a3,3,0,0,1-3,3h-46a3,3,0,0,1-3-3v-.76A0,0,0,0,1,292.31,427.14Z"/><path class="d" d="M341.26,431.47h-46a3.57,3.57,0,0,1-3.56-3.56v-1.37h53.12v1.37A3.56,3.56,0,0,1,341.26,431.47Zm-48.35-3.72v.16a2.36,2.36,0,0,0,2.35,2.35h46a2.35,2.35,0,0,0,2.35-2.35v-.16Z"/><path d="M258.62,480.17c6.87-7,11.76-15.13,13.63-24.81,3.32-17.21-1.06-32.24-13.22-44.93a4.62,4.62,0,0,1-.41-.55h-1.87c-1.61,1.72-.65,3,.62,4.36,10.13,11,13.94,23.91,11.55,38.58A41.94,41.94,0,0,1,257.25,476c-1.32,1.34-2,2.57-.5,4.16Z"/><path d="M262.83,445.22a38.09,38.09,0,0,0-10.36-26.34c-1-1.05-2-2.32-3.49-.91s-.32,2.39.64,3.38a34.39,34.39,0,0,1-.07,47.43c-1,1-1.88,2.15-.5,3.38s2.39.12,3.33-.88A37.7,37.7,0,0,0,262.83,445.22Z"/><path d="M252.56,445.05a28.18,28.18,0,0,0-7.49-19c-1-1.07-2.07-1.93-3.36-.73s-.38,2.24.47,3.24c6.84,8.07,8.44,17,4.12,26.75-1,2.31-2.91,4.22-4.18,6.43-.48.84-.81,2.4-.36,3,1,1.24,2.16.55,3.13-.48A27.89,27.89,0,0,0,252.56,445.05Z"/><path d="M242.09,445.59c-.16-5-1.51-8.94-4.52-12.27-.9-1-1.94-1.83-3.19-.73s-.52,2.2.33,3.25c4.76,5.83,4.78,12.55,0,18.34-.85,1-1.63,2.13-.4,3.25s2.4.24,3.35-.82A17.64,17.64,0,0,0,242.09,445.59Z"/><path d="M230.82,445a3.84,3.84,0,0,0-4-3.7,3.75,3.75,0,1,0,.35,7.49A3.81,3.81,0,0,0,230.82,445Z"/><path class="f" d="M179.05,470.63a1.36,1.36,0,0,0,0-2.71H113.32V422.09H124a1.35,1.35,0,0,0,0-2.7H112a1.34,1.34,0,0,0-1.35,1.35v48.53a1.35,1.35,0,0,0,1.35,1.36Z"/><path class="f" d="M129.37,419.39a1.35,1.35,0,1,0,0,2.7h70.69v45.83h-15.6a1.36,1.36,0,1,0,0,2.71h16.95a1.35,1.35,0,0,0,1.35-1.36V420.74a1.34,1.34,0,0,0-1.35-1.35h-72Z"/><path class="c" d="M156.69,456.11A11.09,11.09,0,1,0,145.6,445a11.1,11.1,0,0,0,11.09,11.09Zm0-19.85a8.77,8.77,0,1,1-8.77,8.76,8.78,8.78,0,0,1,8.77-8.76Z"/><path class="f" d="M145.25,464h41.17a1.34,1.34,0,0,0,1.35-1.35c0-3.4,3.44-6.74,6.93-6.74a1.35,1.35,0,0,0,1.35-1.35v-19.1a1.34,1.34,0,0,0-1.35-1.35c-3.49,0-6.93-3.34-6.93-6.75a1.35,1.35,0,0,0-1.35-1.35h-60.2a1.36,1.36,0,0,0-1.35,1.35c0,3.61-2.89,6.78-6.19,6.78a1.35,1.35,0,0,0-1.35,1.35v19a1.34,1.34,0,0,0,1.35,1.35c3.3,0,6.19,3.17,6.19,6.78a1.35,1.35,0,0,0,1.35,1.35h13.62a1.35,1.35,0,0,0,0-2.7H127.47a10,10,0,0,0-2.45-5.19,8.75,8.75,0,0,0-5-2.83V436.73a8.75,8.75,0,0,0,5-2.83,10,10,0,0,0,2.45-5.19h57.72a10.31,10.31,0,0,0,8.16,8v16.62a10.28,10.28,0,0,0-8.16,8H145.25a1.35,1.35,0,1,0,0,2.7Z"/></g><path class="i" d="M249.51,393.59a29.32,29.32,0,1,1,29.28-29.34A29.36,29.36,0,0,1,249.51,393.59Zm-.06-56.33a27,27,0,1,0,27,27A27,27,0,0,0,249.45,337.26Z"/><path class="i" d="M244.69,375.58h-.23a1.17,1.17,0,0,1-.83-.43l-7.54-9.37a1.15,1.15,0,1,1,1.79-1.44l6.73,8.36,20.06-20.28a1.14,1.14,0,0,1,1.62,0,1.15,1.15,0,0,1,0,1.63l-21,21.2A1.19,1.19,0,0,1,244.69,375.58Z"/><circle class="c" cx="248.57" cy="571.58" r="22"/><text class="g" transform="translate(240.87 580.38)">4</text><path class="b" d="M1358.58,432.16a20,20,0,0,1-7.16,13.63,20.13,20.13,0,0,1-25.76,0,.86.86,0,0,1-.31-.59.84.84,0,0,1,.2-.63.88.88,0,0,1,1.23-.12,18.38,18.38,0,1,0-2.36-2.36.88.88,0,0,1-.75,1.43,1,1,0,0,1-.6-.31,20.13,20.13,0,1,1,35.51-11Z"/><path class="d" d="M1334.24,405.76a19.59,19.59,0,0,1,2.14-.28C1335.67,405.54,1335,405.63,1334.24,405.76Z"/><path class="d" d="M1342.85,405.76a21.58,21.58,0,0,0-2.14-.28A19,19,0,0,1,1342.85,405.76Z"/><path class="d" d="M1340.71,405.48a21.58,21.58,0,0,1,2.14.28A19,19,0,0,0,1340.71,405.48Zm-4.33,0a19.59,19.59,0,0,0-2.14.28C1335,405.63,1335.67,405.54,1336.38,405.48Z"/><path class="d" d="M1354.84,411.36a25,25,0,0,0-32.58,0,.46.46,0,0,0-.07.07.86.86,0,0,0,0,1.24.9.9,0,0,0,.62.28h0a.86.86,0,0,0,.6-.25,23.09,23.09,0,0,1,30.28,0,.86.86,0,0,0,.57.21h0a.87.87,0,0,0,.87-1A.91.91,0,0,0,1354.84,411.36Zm-12-5.6a21.58,21.58,0,0,0-2.14-.28A19,19,0,0,1,1342.85,405.76Zm-6.47-.28c-.71.06-1.43.15-2.14.28A19.59,19.59,0,0,1,1336.38,405.48Z"/><path class="b" d="M1354.79,449.33a25,25,0,0,1-16.24,6h0a25,25,0,0,1-25-25,25.08,25.08,0,0,1,6-16.29.89.89,0,0,1,.62-.28h0a.89.89,0,0,1,.6.24.87.87,0,0,1,.1,1.18,23.23,23.23,0,1,0,35.29.05.89.89,0,0,1,.09-1.25.91.91,0,0,1,1.25.1A25,25,0,0,1,1354.79,449.33Z"/><path class="b" d="M1343.54,430.32a4.77,4.77,0,0,0-2.71-8.7h.23v-2h-1.71v2h-2.91v-2h-1.7v2h-3.27v1.71h2v14h-2V439h3.27v2h1.7v-2h2.91v2h1.71v-2h-.23a4.76,4.76,0,0,0,4.77-4.76A4.82,4.82,0,0,0,1343.54,430.32Zm-2.72,7h-5.68v-6.14h5.68a3.07,3.07,0,1,1,0,6.14Zm-5.68-14h5.68a3.07,3.07,0,1,1,0,6.14h-5.68Z"/><path class="j" d="M1405.27,374.84H1296.76a2.45,2.45,0,1,0,0,4.89h108.51a10.81,10.81,0,0,1,10.79,10.79v87.12a10.79,10.79,0,0,1-10.79,10.78H1271.8A10.79,10.79,0,0,1,1261,477.64V390.52a10.81,10.81,0,0,1,10.79-10.79H1287a2.45,2.45,0,1,0,0-4.89H1271.8a15.7,15.7,0,0,0-15.68,15.68v87.12a15.7,15.7,0,0,0,15.68,15.68h39.37l-4.8,15.66h-9a8.33,8.33,0,0,0,0,16.66h82.31a8.33,8.33,0,1,0,0-16.66h-9l-4.79-15.66h39.36A15.71,15.71,0,0,0,1421,477.64V390.52A15.71,15.71,0,0,0,1405.27,374.84ZM1383.85,517.3a4.17,4.17,0,0,1-4.16,4.17h-82.31a4.16,4.16,0,1,1,0-8.32h82.31A4.16,4.16,0,0,1,1383.85,517.3ZM1311.49,509l4.8-15.66h44.5l4.79,15.66Z"/><path class="j" d="M1403,452.08v-59.3H1274.07v75.07H1403v-6a2.45,2.45,0,1,1,4.89,0v8.42a2.45,2.45,0,0,1-2.45,2.46H1271.62a2.45,2.45,0,0,1-2.44-2.46V390.52a2.62,2.62,0,0,1,2.62-2.62h133.47a2.62,2.62,0,0,1,2.63,2.62v61.56a2.45,2.45,0,1,1-4.89,0Z"/><path class="k" d="M1341.18,478.39a3.18,3.18,0,0,0-5.81,1.45,3.26,3.26,0,0,0,3.22,3.48,3.08,3.08,0,0,0,2.15-.87A3.19,3.19,0,0,0,1341.18,478.39Zm-1,3.52a2.45,2.45,0,1,1,.34-3.12A2.46,2.46,0,0,1,1340.23,481.91Z"/><path class="c" d="M1340.23,481.91a2.45,2.45,0,1,1,.34-3.12A2.46,2.46,0,0,1,1340.23,481.91Z"/><circle class="c" cx="1335.41" cy="571.58" r="22"/><text class="g" transform="translate(1327.71 580.38)">6</text><path class="j" d="M669.13,124.7a2.62,2.62,0,1,0,0-5.24H541.71V30.61h20.64a2.62,2.62,0,1,0,0-5.24H539.09A2.62,2.62,0,0,0,536.47,28v94.09a2.63,2.63,0,0,0,2.62,2.62Z"/><path class="j" d="M572.83,25.37a2.62,2.62,0,0,0,0,5.24h137v88.85H679.61a2.62,2.62,0,1,0,0,5.24h32.87a2.63,2.63,0,0,0,2.62-2.62V28a2.62,2.62,0,0,0-2.62-2.62H572.83Z"/><path class="l" d="M625.79,96.56a21.5,21.5,0,1,0-21.5-21.49,21.51,21.51,0,0,0,21.5,21.49Zm0-38.49a17,17,0,1,1-17,17,17,17,0,0,1,17-17Z"/><path class="j" d="M603.6,111.86h79.82a2.62,2.62,0,0,0,2.62-2.63c0-6.59,6.66-13.07,13.43-13.07a2.62,2.62,0,0,0,2.62-2.62v-37a2.62,2.62,0,0,0-2.62-2.62C692.7,53.9,686,47.43,686,40.83a2.62,2.62,0,0,0-2.62-2.62H566.72a2.62,2.62,0,0,0-2.62,2.62c0,7-5.61,13.14-12,13.14a2.62,2.62,0,0,0-2.62,2.62V93.47a2.62,2.62,0,0,0,2.62,2.62c6.39,0,12,6.14,12,13.14a2.63,2.63,0,0,0,2.62,2.63h26.4a2.63,2.63,0,0,0,0-5.25h-24a19.39,19.39,0,0,0-4.76-10,16.9,16.9,0,0,0-9.67-5.49V59a16.88,16.88,0,0,0,9.67-5.48,19.38,19.38,0,0,0,4.76-10.06H681c1.33,7.53,8.14,14.2,15.82,15.47V91.14c-7.68,1.27-14.49,7.94-15.82,15.47H603.6a2.63,2.63,0,0,0,0,5.25Z"/><circle class="c" cx="624.53" cy="189.38" r="22"/><text class="g" transform="translate(617.01 198.38)">2</text><path class="m" d="M327.4.38H218.89a2.45,2.45,0,1,0,0,4.9H327.4a10.79,10.79,0,0,1,10.79,10.77v87.12A10.81,10.81,0,0,1,327.4,114H193.93a10.81,10.81,0,0,1-10.79-10.8V16.05A10.79,10.79,0,0,1,193.93,5.28H209.1a2.45,2.45,0,0,0,0-4.9H193.93a15.69,15.69,0,0,0-15.68,15.67v87.12a15.69,15.69,0,0,0,15.68,15.68H233.3l-4.8,15.68h-9a8.32,8.32,0,1,0,0,16.64h82.31a8.32,8.32,0,1,0,0-16.64h-9L288,118.85H327.4a15.69,15.69,0,0,0,15.69-15.68V16.05A15.7,15.7,0,0,0,327.4.38ZM306,142.84a4.16,4.16,0,0,1-4.16,4.17H219.51a4.17,4.17,0,0,1,0-8.33h82.31A4.16,4.16,0,0,1,306,142.84Zm-72.36-8.31,4.8-15.68h44.5l4.79,15.68Z"/><path class="m" d="M325.14,77.61V18.33H196.2V93.4H325.14v-6a2.45,2.45,0,0,1,4.89,0v8.43a2.44,2.44,0,0,1-2.45,2.45H193.75a2.44,2.44,0,0,1-2.44-2.45V16.05a2.62,2.62,0,0,1,2.62-2.62H327.4A2.62,2.62,0,0,1,330,16.05V77.61a2.45,2.45,0,1,1-4.89,0Z"/><path class="c" d="M262.87,108a3.08,3.08,0,0,1-2.15.87,3.41,3.41,0,0,1-1.42-.32,3.16,3.16,0,1,1,3.57-.55Z"/><path class="d" d="M284.73,38.35H236.6A4.62,4.62,0,0,0,232,43V71.9a4.62,4.62,0,0,0,4.62,4.62h48.13a4.62,4.62,0,0,0,4.62-4.62V43a4.61,4.61,0,0,0-4.62-4.62Zm2.68,33.56a2.66,2.66,0,0,1-2.68,2.66H236.6a2.66,2.66,0,0,1-2.68-2.66v-1h53.49Zm0-2.93H233.92V63.87h53.49Zm0-7.05H233.92V43a2.7,2.7,0,0,1,.79-1.88,2.67,2.67,0,0,1,1.89-.78h48.13A2.68,2.68,0,0,1,287.41,43Z"/><path class="d" d="M277.32,46.16a4.24,4.24,0,0,0-2.81,1.1,4.28,4.28,0,0,0-2.82-1.1,4.56,4.56,0,0,0,0,9.11,4.22,4.22,0,0,0,2.82-1.09,4.18,4.18,0,0,0,2.81,1.09,4.56,4.56,0,0,0,0-9.11Zm-4,6.42a2.3,2.3,0,0,1-1.67.75,2.62,2.62,0,0,1,0-5.22,2.27,2.27,0,0,1,1.67.75,4.8,4.8,0,0,0,0,3.72Zm4,.75a2.3,2.3,0,0,1-1.67-.75,4.8,4.8,0,0,0,0-3.72,2.27,2.27,0,0,1,1.67-.75,2.62,2.62,0,0,1,0,5.22Z"/><path class="d" d="M252.52,47.46H239.64a1,1,0,0,0-1,1v4.62a1,1,0,0,0,1,1h12.88a1,1,0,0,0,1-1V48.44a1,1,0,0,0-1-1Zm-1,4.62H240.61V49.41h10.94Z"/><circle class="c" cx="257.49" cy="189.38" r="22"/><text class="g" transform="translate(248.97 199.38)">1</text><line class="n" x1="372.58" y1="78.89" x2="503.79" y2="78.89"/><polyline class="a" points="490.05 61.21 507.73 78.89 490.05 96.56"/><line class="n" x1="418.85" y1="444.41" x2="550.36" y2="444.41"/><polyline class="a" points="536.62 426.73 554.3 444.41 536.62 462.09"/><path class="m" d="M1003.27,476.17H887.54v-80.7h18.74a2.38,2.38,0,0,0,0-4.75H885.15a2.38,2.38,0,0,0-2.37,2.38v85.45a2.38,2.38,0,0,0,2.37,2.38h20.71l8.87,19.12a2.39,2.39,0,0,0,3.16,1.16l8.68-4L952.89,516a2.41,2.41,0,0,0,3.32-.55l24.6-34.48h22.46a2.38,2.38,0,1,0,0-4.76ZM918,495.89l-6.93-15H950.3Zm35.67,14.81-22.17-15.82,30.07-13.95H975Z"/><path class="m" d="M1042.64,390.72h-20.7l-8.86-19.12a2.4,2.4,0,0,0-3.16-1.16l-8.69,4-26.31-18.78a2.41,2.41,0,0,0-3.33.55L947,390.72H915.8a2.38,2.38,0,1,0,0,4.76h124.46v80.69h-27.47a2.38,2.38,0,1,0,0,4.76h29.85a2.37,2.37,0,0,0,2.38-2.38V393.1A2.37,2.37,0,0,0,1042.64,390.72Zm-65.14,0,32.26-15,6.93,15Zm-24.65,0,21.24-29.78,22.18,15.83-30.08,14Z"/><path class="m" d="M963.9,416.33a19.53,19.53,0,1,0,19.52,19.52A19.54,19.54,0,0,0,963.9,416.33Zm0,35a15.44,15.44,0,1,1,15.44-15.44A15.45,15.45,0,0,1,963.9,451.29Z"/><path class="m" d="M1033.21,419v33.63a2.38,2.38,0,0,1-2.38,2.38c-6.16,0-12.2,5.88-12.2,11.87a2.38,2.38,0,0,1-2.38,2.38h-72.5a2.38,2.38,0,1,1,0-4.76h70.33c1.2-6.84,7.39-12.9,14.36-14.06V421.19a18.12,18.12,0,0,1-14.36-14.05H912.46a17.71,17.71,0,0,1-4.32,9.13,15.37,15.37,0,0,1-8.79,5v29.14a15.33,15.33,0,0,1,8.79,5,17.67,17.67,0,0,1,4.32,9.13h21.77a2.38,2.38,0,1,1,0,4.76h-24a2.38,2.38,0,0,1-2.37-2.38c0-6.36-5.1-11.94-10.91-11.94a2.37,2.37,0,0,1-2.38-2.38v-33.5a2.38,2.38,0,0,1,2.38-2.38c5.81,0,10.91-5.57,10.91-11.93a2.37,2.37,0,0,1,2.37-2.38h106a2.37,2.37,0,0,1,2.38,2.38c0,6,6,11.87,12.2,11.87A2.37,2.37,0,0,1,1033.21,419Z"/><path class="d" d="M643.69,471.35a24.77,24.77,0,0,1-8.9,16.94,25,25,0,0,1-32,0,1.07,1.07,0,0,1-.38-.73,1,1,0,0,1,.25-.79,1.08,1.08,0,0,1,1.52-.14,22.89,22.89,0,1,0-2.93-2.94,1.09,1.09,0,0,1-.14,1.53,1.08,1.08,0,0,1-1.53-.14,25,25,0,1,1,44.12-13.73Z"/><path class="d" d="M613.45,438.55a26.52,26.52,0,0,1,2.66-.35C615.22,438.28,614.33,438.39,613.45,438.55Z"/><path class="d" d="M624.15,438.55c-.88-.16-1.77-.27-2.66-.35A26.52,26.52,0,0,1,624.15,438.55Z"/><path class="d" d="M621.49,438.2c.89.08,1.78.19,2.66.35A26.52,26.52,0,0,0,621.49,438.2Zm-5.38,0a26.52,26.52,0,0,0-2.66.35C614.33,438.39,615.22,438.28,616.11,438.2Z"/><path class="d" d="M639,445.51a31.06,31.06,0,0,0-40.48,0l-.09.08a1.1,1.1,0,0,0-.34.77,1.11,1.11,0,0,0,1.07,1.12h0a1.06,1.06,0,0,0,.75-.31,28.71,28.71,0,0,1,37.62,0,1.05,1.05,0,0,0,.71.27h0a1.1,1.1,0,0,0,.82-.38,1.12,1.12,0,0,0,.27-.8A1.14,1.14,0,0,0,639,445.51Zm-14.89-7c-.88-.16-1.77-.27-2.66-.35A26.52,26.52,0,0,1,624.15,438.55Zm-8-.35c-.89.08-1.78.19-2.66.35A26.52,26.52,0,0,1,616.11,438.2Z"/><path class="d" d="M639,492.69a31.11,31.11,0,0,1-20.18,7.45h0a31.06,31.06,0,0,1-23.57-51.3,1.11,1.11,0,0,1,.77-.35h0a1.1,1.1,0,0,1,.87,1.77,28.87,28.87,0,1,0,43.85.06,1.11,1.11,0,0,1,.12-1.55,1.09,1.09,0,0,1,.8-.26,1.14,1.14,0,0,1,.75.38A31.1,31.1,0,0,1,639,492.69Z"/><path class="d" d="M625.39,471.08a5.9,5.9,0,0,0-2.14-2,18.22,18.22,0,0,0-3.17-1.28v-8.28a6.84,6.84,0,0,1,2.29.7,5.59,5.59,0,0,1,1.84,1.45.89.89,0,0,0,.62.25,1.13,1.13,0,0,0,.78-.33,1,1,0,0,0,.35-.73,1.63,1.63,0,0,0-.5-1,6.33,6.33,0,0,0-2.36-1.69,10,10,0,0,0-3-.78v-2.27a1.09,1.09,0,0,0-.29-.76,1,1,0,0,0-.74-.3,1.09,1.09,0,0,0-.78.3,1,1,0,0,0-.32.76v2.3a7.27,7.27,0,0,0-4.37,1.82,5.16,5.16,0,0,0-1.7,3.92,5.06,5.06,0,0,0,1.61,4,12.87,12.87,0,0,0,4.46,2.25V478a7.88,7.88,0,0,1-5.07-2.6,1,1,0,0,0-1.54,0,1.09,1.09,0,0,0-.33.77,1.06,1.06,0,0,0,.41.84,11.35,11.35,0,0,0,3.07,2.21,9.48,9.48,0,0,0,3.46.88v3.39a1,1,0,0,0,1.06,1.06,1,1,0,0,0,.76-.3,1,1,0,0,0,.31-.76v-3.42a8.44,8.44,0,0,0,3.14-1,6.05,6.05,0,0,0,2.2-2.05,5.07,5.07,0,0,0,.79-2.72A6,6,0,0,0,625.39,471.08Zm-7.44-4a9.57,9.57,0,0,1-2.84-1.57,3,3,0,0,1-1-2.41,3.13,3.13,0,0,1,1.08-2.43,5.18,5.18,0,0,1,2.8-1.15Zm6,7.22a3.11,3.11,0,0,1-1.12,2.42,5.46,5.46,0,0,1-2.79,1.22v-7.81a8.88,8.88,0,0,1,2.85,1.65A3.37,3.37,0,0,1,624,474.33Z"/><path class="d" d="M689,404.55a24.77,24.77,0,0,1-8.9,16.94,25,25,0,0,1-32,0,1.07,1.07,0,0,1-.38-.73,1,1,0,0,1,.25-.79,1.08,1.08,0,0,1,1.52-.14,22.89,22.89,0,1,0-2.93-2.94,1.09,1.09,0,0,1-.14,1.53,1.08,1.08,0,0,1-1.53-.14A25,25,0,1,1,689,404.55Z"/><path class="d" d="M658.72,371.75a26.52,26.52,0,0,1,2.66-.35C660.49,371.48,659.6,371.59,658.72,371.75Z"/><path class="d" d="M669.42,371.75c-.88-.16-1.77-.27-2.66-.35A26.52,26.52,0,0,1,669.42,371.75Z"/><path class="d" d="M666.76,371.4c.89.08,1.78.19,2.66.35A26.52,26.52,0,0,0,666.76,371.4Zm-5.38,0a26.52,26.52,0,0,0-2.66.35C659.6,371.59,660.49,371.48,661.38,371.4Z"/><path class="d" d="M684.31,378.71a31.06,31.06,0,0,0-40.48,0l-.09.08a1.1,1.1,0,0,0-.34.77,1.11,1.11,0,0,0,1.07,1.12h0a1.06,1.06,0,0,0,.75-.31,28.71,28.71,0,0,1,37.62,0,1.05,1.05,0,0,0,.71.27h0a1.1,1.1,0,0,0,.82-.38,1.12,1.12,0,0,0,.27-.8A1.14,1.14,0,0,0,684.31,378.71Zm-14.89-7c-.88-.16-1.77-.27-2.66-.35A26.52,26.52,0,0,1,669.42,371.75Zm-8-.35c-.89.08-1.78.19-2.66.35A26.52,26.52,0,0,1,661.38,371.4Z"/><path class="d" d="M684.25,425.89a31.11,31.11,0,0,1-20.18,7.45h0A31.06,31.06,0,0,1,640.49,382a1.11,1.11,0,0,1,.77-.35h0a1.1,1.1,0,0,1,.87,1.77,28.87,28.87,0,1,0,43.85.06,1.11,1.11,0,0,1,.12-1.55,1.09,1.09,0,0,1,.8-.26,1.14,1.14,0,0,1,.75.38A31.1,31.1,0,0,1,684.25,425.89Z"/><path class="d" d="M670.27,402.28a5.93,5.93,0,0,0-3.37-10.81h-.2V389h-2.12v2.44h-3.13V389h-2.12v2.44h-4.06v2.12h2.43V411h-2.43v2.12h4.06v2.44h2.12v-2.44h3.13v2.44h2.12v-2.44h.2a5.92,5.92,0,0,0,5.93-5.92A6,6,0,0,0,670.27,402.28ZM666.89,411h-7.06v-7.63h7.06a3.82,3.82,0,0,1,0,7.63Zm-7.06-17.38h7.06a3.82,3.82,0,0,1,0,7.63h-7.06Z"/><path class="d" d="M734.22,471.65a24.77,24.77,0,0,1-8.9,16.94,25,25,0,0,1-32,0,1.07,1.07,0,0,1-.38-.73,1,1,0,0,1,.25-.79,1.08,1.08,0,0,1,1.52-.14,22.89,22.89,0,1,0-2.93-2.94,1.09,1.09,0,0,1-.14,1.53,1.08,1.08,0,0,1-1.53-.14,25,25,0,1,1,44.12-13.73Z"/><path class="d" d="M704,438.85a26.52,26.52,0,0,1,2.66-.35C705.75,438.58,704.86,438.69,704,438.85Z"/><path class="d" d="M714.68,438.85c-.88-.16-1.77-.27-2.66-.35A26.52,26.52,0,0,1,714.68,438.85Z"/><path class="d" d="M712,438.5c.89.08,1.78.19,2.66.35A26.52,26.52,0,0,0,712,438.5Zm-5.38,0a26.52,26.52,0,0,0-2.66.35C704.86,438.69,705.75,438.58,706.64,438.5Z"/><path class="d" d="M729.57,445.81a31.06,31.06,0,0,0-40.48,0l-.09.08a1.1,1.1,0,0,0-.34.77,1.11,1.11,0,0,0,1.07,1.12h0a1.06,1.06,0,0,0,.75-.31,28.71,28.71,0,0,1,37.62,0,1.05,1.05,0,0,0,.71.27h0a1.1,1.1,0,0,0,.82-.38,1.12,1.12,0,0,0,.27-.8A1.14,1.14,0,0,0,729.57,445.81Zm-14.89-7c-.88-.16-1.77-.27-2.66-.35A26.52,26.52,0,0,1,714.68,438.85Zm-8-.35c-.89.08-1.78.19-2.66.35A26.52,26.52,0,0,1,706.64,438.5Z"/><path class="d" d="M729.51,493a31.11,31.11,0,0,1-20.18,7.45h0a31.06,31.06,0,0,1-23.57-51.3,1.11,1.11,0,0,1,.77-.35h0a1.1,1.1,0,0,1,.87,1.77,28.87,28.87,0,1,0,43.85.06,1.11,1.11,0,0,1,.12-1.55,1.09,1.09,0,0,1,.8-.26,1.14,1.14,0,0,1,.75.38A31.1,31.1,0,0,1,729.51,493Z"/><path class="o" d="M712.4,455.05c.57.09,1.15.16,1.71.28a11.77,11.77,0,0,1,5.94,3.43,1.61,1.61,0,0,1,0,2.29,1.59,1.59,0,0,1-2.25,0,10.52,10.52,0,0,0-2.61-1.93,7.69,7.69,0,0,0-7.4.18,10,10,0,0,0-4.32,4.9l0,.08a.81.81,0,0,0,0,.09h9.85a1.69,1.69,0,0,1,1.56.76,1.6,1.6,0,0,1-1.39,2.45h-11a12.48,12.48,0,0,0,0,3.4h10.82a1.63,1.63,0,0,1,1.59.83,1.59,1.59,0,0,1-1.08,2.33,3.39,3.39,0,0,1-.55,0h-10c.21.43.38.83.59,1.21a9.72,9.72,0,0,0,4.36,4.31,7.71,7.71,0,0,0,6.91,0,9,9,0,0,0,2.55-1.87,1.63,1.63,0,0,1,1.66-.49,1.58,1.58,0,0,1,.83,2.49,10.17,10.17,0,0,1-2.53,2.14,11,11,0,0,1-7,1.71,11.15,11.15,0,0,1-5.59-2.15,13.86,13.86,0,0,1-5-7,.41.41,0,0,0-.47-.33h-3.8a1.6,1.6,0,0,1-1.67-1.75,1.55,1.55,0,0,1,1.43-1.43c1.12,0,2.24,0,3.36,0h.3c0-.58,0-1.13,0-1.69s0-1.11.08-1.71h-3.47a1.6,1.6,0,0,1-1.66-1.22,1.55,1.55,0,0,1,1.36-2c1.26,0,2.52,0,3.78,0,.7,0,.69,0,.94-.66a13.67,13.67,0,0,1,5.76-7.08,10.86,10.86,0,0,1,4.83-1.54,1,1,0,0,0,.24,0Z"/><circle class="c" cx="800.55" cy="571.58" r="22"/><text class="g" transform="translate(792.86 580.38)">5</text><line class="n" x1="769.49" y1="444.41" x2="842" y2="444.41"/><polyline class="a" points="828.26 426.73 845.94 444.41 828.26 462.09"/><line class="n" x1="1082.48" y1="444.41" x2="1213.98" y2="444.41"/><polyline class="a" points="1200.25 426.73 1217.92 444.41 1200.25 462.09"/><polyline class="a" points="69.42 427.73 87.1 445.41 69.42 463.08"/><line class="n" x1="729.95" y1="78.89" x2="861.16" y2="78.89"/><polyline class="a" points="847.42 61.21 865.1 78.89 847.42 96.56"/></svg>