<svg xmlns="http://www.w3.org/2000/svg" viewBox="0 0 251.02 157.51"><defs><style>.a,.b,.c,.g{fill:#00b520;}.a,.b{stroke:#00b520;stroke-miterlimit:10;}.a{stroke-width:0.75px;}.b{stroke-width:1.18px;}.c{font-size:26px;font-family:MyriadPro-Regular, Myriad Pro;}.d{letter-spacing:-0.01em;}.e{letter-spacing:-0.03em;}.f{fill:none;}</style></defs><title>indiv-icon</title><path class="a" d="M241,52.87a39,39,0,0,1-14,26.67,39.38,39.38,0,0,1-50.4,0,1.67,1.67,0,0,1-.6-1.15,1.59,1.59,0,0,1,.39-1.24,1.7,1.7,0,0,1,2.4-.22,36,36,0,1,0,46.05-55.28A36,36,0,0,0,174.11,72.3a1.71,1.71,0,0,1-.22,2.41,1.76,1.76,0,0,1-1.24.39,1.81,1.81,0,0,1-1.17-.61A39.38,39.38,0,1,1,241,52.87Z"/><path class="b" d="M193.34,1.23a39,39,0,0,1,4.19-.56C196.12.8,194.72,1,193.34,1.23Z"/><path class="b" d="M210.19,1.23C208.8,1,207.4.8,206,.67A39.74,39.74,0,0,1,210.19,1.23Z"/><path class="b" d="M206,.67c1.4.13,2.8.3,4.19.56A39.74,39.74,0,0,0,206,.67Zm-8.47,0a39,39,0,0,0-4.19.56C194.72,1,196.12.8,197.53.67Z"/><path class="a" d="M233.63,12.18a48.94,48.94,0,0,0-63.74,0,1.79,1.79,0,0,1-.14.13,1.69,1.69,0,0,0-.53,1.21,1.67,1.67,0,0,0,.49,1.23,1.74,1.74,0,0,0,1.19.54h0a1.68,1.68,0,0,0,1.18-.49,45.19,45.19,0,0,1,59.23,0,1.68,1.68,0,0,0,1.12.42h0a1.71,1.71,0,0,0,1.29-.6,1.75,1.75,0,0,0,.43-1.26A1.8,1.8,0,0,0,233.63,12.18ZM210.19,1.23C208.8,1,207.4.8,206,.67A39.74,39.74,0,0,1,210.19,1.23ZM197.53.67c-1.41.13-2.81.3-4.19.56A39,39,0,0,1,197.53.67Z"/><path class="a" d="M233.53,86.47A49,49,0,0,1,201.76,98.2h0a48.9,48.9,0,0,1-37.11-80.77,1.69,1.69,0,0,1,1.21-.55h.05a1.72,1.72,0,0,1,1.18.47,1.69,1.69,0,0,1,.18,2.31,45.46,45.46,0,1,0,69.05.1,1.72,1.72,0,0,1,1.44-2.85,1.72,1.72,0,0,1,1.18.6A49,49,0,0,1,233.53,86.47Z"/><text class="c" transform="translate(181.76 58.51)"><tspan class="d">B</tspan><tspan class="e" x="13.86" y="0">T</tspan><tspan x="26.08" y="0">C</tspan></text><path class="f" d="M76.24,66.25A27.54,27.54,0,1,0,48.7,38.71,27.57,27.57,0,0,0,76.24,66.25Z"/><path class="g" d="M76.24,75A36.25,36.25,0,1,0,40,38.71,36.29,36.29,0,0,0,76.24,75Zm0-66.29a30,30,0,1,1-30,30A30.08,30.08,0,0,1,76.24,8.67Z"/><path class="g" d="M109.78,85.89H42.7a42.84,42.84,0,0,0-26.6,9.29A3.11,3.11,0,0,0,20,100,36.14,36.14,0,0,1,42.7,92.1h67.08a36.53,36.53,0,0,1,36.49,36.49V150a1.33,1.33,0,0,1-1.34,1.33H124.14V129.38a3.11,3.11,0,0,0-6.21,0v21.91H35.53V129.38a3.11,3.11,0,0,0-6.22,0v21.91H7.55A1.33,1.33,0,0,1,6.21,150V128.59a36.41,36.41,0,0,1,4.55-17.65,3.11,3.11,0,0,0,.26-2.37,3,3,0,0,0-1.48-1.85,3,3,0,0,0-1.5-.39,3.1,3.1,0,0,0-2.72,1.6A42.74,42.74,0,0,0,0,128.59V150a7.56,7.56,0,0,0,7.55,7.55H144.93a7.56,7.56,0,0,0,7.55-7.55V128.59A42.75,42.75,0,0,0,109.78,85.89Z"/></svg>