<svg xmlns="http://www.w3.org/2000/svg" viewBox="0 0 152.48 155.04"><defs><style>.a{fill:none;}.b{fill:#00b520;}</style></defs><title>indiv-icon-2</title><path class="a" d="M76.24,63.79A27.54,27.54,0,1,0,48.7,36.25,27.57,27.57,0,0,0,76.24,63.79Z"/><path class="b" d="M76.24,72.5A36.25,36.25,0,1,0,40,36.25,36.29,36.29,0,0,0,76.24,72.5Zm0-66.29a30,30,0,1,1-30,30A30.08,30.08,0,0,1,76.24,6.21Z"/><path class="b" d="M109.78,83.43H42.7a42.84,42.84,0,0,0-26.6,9.29A3.11,3.11,0,0,0,20,97.58,36.09,36.09,0,0,1,42.7,89.64h67.08a36.53,36.53,0,0,1,36.49,36.48V147.5a1.34,1.34,0,0,1-1.34,1.33H124.14V126.92a3.11,3.11,0,0,0-6.21,0v21.91H35.53V126.92a3.11,3.11,0,0,0-6.22,0v21.91H7.55a1.34,1.34,0,0,1-1.34-1.33V126.12a36.44,36.44,0,0,1,4.55-17.65,3.11,3.11,0,0,0-5.44-3A42.79,42.79,0,0,0,0,126.12V147.5A7.55,7.55,0,0,0,7.55,155H144.93a7.55,7.55,0,0,0,7.55-7.54V126.12A42.75,42.75,0,0,0,109.78,83.43Z"/></svg>