<?xml version="1.0" encoding="utf-8"?>
<!-- Generator: Adobe Illustrator 22.0.0, SVG Export Plug-In . SVG Version: 6.00 Build 0)  -->
<svg version="1.1" id="Capa_1" xmlns="http://www.w3.org/2000/svg" xmlns:xlink="http://www.w3.org/1999/xlink" x="0px" y="0px"
	 viewBox="0 0 166.7 69.4" style="enable-background:new 0 0 166.7 69.4;" xml:space="preserve">
<style type="text/css">
	.st0{fill:#00B43C;}
</style>
<title>logo-defi</title>
<g>
	<path d="M0,15.2h21.7c18.2,0,30.4,10.6,30.4,26.6c0,15.9-12.2,26.6-30.4,26.6H0V15.2z M21.7,56.5c8.9,0,14.8-5.8,14.8-14.8
		c0-9-5.9-14.8-14.8-14.8h-6.5v29.5H21.7z"/>
	<path d="M56.7,49.1c0-12.2,8.9-19.9,21.6-19.9c12.6,0,20.9,7.9,20.9,20.1c0,1.1-0.1,3-0.2,3.8H71c0.9,4.2,3.7,6.7,7.9,6.7
		c3.3,0,5.7-1.7,6.9-4.2l11.9,2.2c-1.9,7.2-9.8,11.6-19.6,11.6C65.5,69.3,56.7,61.4,56.7,49.1z M85.2,45.6c-0.4-3.8-3.3-6.9-7.2-6.9
		c-3.9,0-6.4,2.7-7.1,6.9H85.2z"/>
	<path d="M105.1,15.2h40.6v13.3h-25v8.9h21.6v11.7h-21.6v19.1h-15.6V15.2z"/>
	<rect x="152.1" y="54.5" width="13.9" height="13.9"/>
	<rect x="152.1" y="36.4" class="st0" width="13.9" height="13.9"/>
	<rect x="152.1" y="18.2" width="13.9" height="13.9"/>
	<polygon points="166,0.1 152.1,2.6 152.1,14 166,14 	"/>
</g>
</svg>
