<?xml version="1.0" encoding="utf-8"?>
<!-- Generator: Adobe Illustrator 22.0.0, SVG Export Plug-In . SVG Version: 6.00 Build 0)  -->
<svg version="1.1" id="Capa_1" xmlns="http://www.w3.org/2000/svg" xmlns:xlink="http://www.w3.org/1999/xlink" x="0px" y="0px"
	 viewBox="0 0 113.7 145.8" style="enable-background:new 0 0 113.7 145.8;" xml:space="preserve">
<style type="text/css">
	.st0{fill:#00B520;stroke:#FFFFFF;stroke-width:0.68;stroke-miterlimit:10;}
</style>
<title>page-icon</title>
<path class="st0" d="M113.3,37.5V133c-0.1,0.4-0.2,0.7-0.3,1.1c-1.4,6.6-6.8,11.4-13.1,11.4c-28.7,0-57.5,0-86.2,0
	c-7.4,0-13.4-6.4-13.4-14.2c0-38.9,0-77.8,0-116.7C0.3,8.4,4.2,3,10,1c0.7-0.3,1.4-0.4,2.1-0.7h66.1c0.7,0.7,1.5,1.3,2.2,2
	c10.3,10.9,20.7,21.9,31,32.8C112.1,35.9,112.7,36.7,113.3,37.5z M107.7,41.4H89c-8.7,0-14.4-6.1-14.4-15.3c0-6.1,0-12.2,0-18.3
	c0-0.5,0-1-0.1-1.6H14.8C9.1,6.3,6,9.7,6,15.7v114.4c0,6.1,3.2,9.5,8.9,9.5h83.9c5.8,0,8.9-3.4,8.9-9.5
	C107.7,130.1,107.7,41.4,107.7,41.4z M80.2,10.8v1.2c0,4.8,0,9.6,0,14.4c0,5.5,3.4,9,8.5,9.1h13.6c0.4,0,0.7-0.1,1.1-0.1L80.2,10.8z
	"/>
<path class="st0" d="M56.7,78.8c-10.5,0-21.1,0-31.6,0c-2,0-3.2-0.9-3.4-2.5c-0.3-1.6,0.7-3.1,2.3-3.4c0,0,0.1,0,0.1,0
	c0.3,0,0.6,0,0.9,0h63.4c2,0,3.2,0.9,3.4,2.5c0.3,1.6-0.7,3.1-2.2,3.4c-0.3,0.1-0.5,0.1-0.8,0.1c-3.7,0-7.4,0-11.1,0L56.7,78.8z"/>
<path class="st0" d="M57,86.5h31.7c2,0,3.2,1,3.3,2.7c0.2,1.4-0.8,2.8-2.2,3.1c-0.6,0.1-1.1,0.1-1.7,0.1H25.7c-0.7,0-1.3,0-2-0.2
	c-1.3-0.4-2.1-1.6-2-3c0-1.3,1-2.5,2.3-2.7c0.5-0.1,1.1-0.1,1.6-0.1L57,86.5z"/>
<path class="st0" d="M56.7,65.3H25c-1.9,0-3.1-0.9-3.3-2.6c-0.2-1.5,0.8-3,2.3-3.3c0.5-0.1,1-0.1,1.5-0.1h62.6c0.7,0,1.3,0.1,2,0.2
	c1.5,0.7,2.2,2.5,1.5,4c-0.4,0.9-1.2,1.5-2.1,1.7c-0.4,0-0.9,0-1.3,0L56.7,65.3z"/>
<path class="st0" d="M38,105.9c-4.4,0-8.7,0-13.1,0c-1.4,0.2-2.7-0.7-3-2c-0.5-1.5,0.3-3.2,1.8-3.7c0.1,0,0.3-0.1,0.4-0.1
	c0.5-0.1,1.1-0.1,1.6-0.1h24.9c0.5,0,1.1,0,1.6,0.1c1.4,0.3,2.4,1.6,2.3,3c0,1.5-1.1,2.7-2.5,2.8c-1.7,0.1-3.5,0.1-5.2,0.1L38,105.9
	z"/>
<path class="st0" d="M61.3,105.9c-1.3,0.1-2.5-0.2-3-1.6c-0.3-0.9-0.3-2,0.1-2.9c1-2.1,4.9-2.1,5.9,0c0.4,0.9,0.4,2,0.1,2.9
	C63.9,105.7,62.6,106,61.3,105.9z"/>
</svg>
