<?xml version="1.0" encoding="utf-8"?>
<!-- Generator: Adobe Illustrator 22.0.0, SVG Export Plug-In . SVG Version: 6.00 Build 0)  -->
<svg version="1.1" id="Capa_1" xmlns="http://www.w3.org/2000/svg" xmlns:xlink="http://www.w3.org/1999/xlink" x="0px" y="0px"
	 viewBox="0 0 141.6 126.9" style="enable-background:new 0 0 141.6 126.9;" xml:space="preserve">
<style type="text/css">
	.st0{fill:#00B520;stroke:#FFFFFF;stroke-miterlimit:10;}
</style>
<title>Recurso 10</title>
<path class="st0" d="M108,53.4C108,53.4,108,53.4,108,53.4c0-0.2,0-0.3-0.1-0.5l0,0c0-0.1-0.1-0.2-0.1-0.3c0,0,0-0.1,0-0.1
	c0-0.1-0.1-0.2-0.1-0.2c0,0,0-0.1,0-0.1c0,0,0,0,0-0.1c0-0.1-0.1-0.1-0.2-0.2l0,0c-0.1-0.1-0.2-0.2-0.3-0.3c0,0,0,0,0,0l-0.3-0.2
	h-0.1c-0.1-0.1-0.2-0.2-0.3-0.2L59.5,24.4l27-17l45.2,25.7l-19,12c-1.5,0.9-2,2.9-1.1,4.4c0.9,1.5,2.9,2,4.4,1.1c0,0,0.1,0,0.1-0.1
	l23.6-14.8c1.5-0.9,1.9-2.9,1-4.4c-0.3-0.4-0.7-0.8-1.1-1.1L88,0.9c-1-0.6-2.3-0.6-3.3,0.1L51.7,21.8l0,0L35.1,32.2l0,0L2,53.1
	C0.5,54,0.1,56,1,57.5c0.3,0.4,0.7,0.8,1.1,1.1l51.5,29.3c0.5,0.3,1,0.4,1.6,0.4c0.6,0,1.2-0.2,1.7-0.5l23.6-14.8
	c1.5-1,1.9-2.9,0.9-4.4c-0.9-1.4-2.8-1.9-4.3-1L55.1,81.3L9.9,55.6l27-17l48.2,27.4v36.3c0,1.2,0.6,2.2,1.7,2.8
	c0.5,0.3,1,0.4,1.5,0.4c0.6,0,1.2-0.2,1.7-0.5l16.5-10.4c0.9-0.6,1.5-1.6,1.5-2.7V53.7C108,53.6,108,53.5,108,53.4z M91.5,96.6V64.2
	c0-1.1-0.6-2.2-1.6-2.8L43,34.8l10.4-6.6l45.2,25.7l-4,2.5c-1.5,0.9-1.9,2.9-1,4.4s2.9,1.9,4.4,1l3.6-2.3v30.7L91.5,96.6z"/>
<path class="st0" d="M136.2,43l-23.5,14.8c-1.5,0.9-1.9,2.9-1,4.4s2.9,1.9,4.4,1l23.5-14.8c1.5-0.9,2-2.9,1.1-4.4
	C139.8,42.5,137.8,42,136.2,43C136.3,43,136.3,43,136.2,43z"/>
<path class="st0" d="M77.1,80.3L55.1,94.1L5.3,65.7c-1.5-0.9-3.5-0.3-4.3,1.2c-0.9,1.5-0.3,3.5,1.2,4.3l51.5,29.3
	c0.5,0.3,1,0.4,1.6,0.4c0.6,0,1.2-0.2,1.7-0.5l23.6-14.8c1.5-1,1.9-2.9,0.9-4.4C80.4,79.8,78.5,79.4,77.1,80.3z"/>
<path class="st0" d="M136.2,55.7l-23.5,14.8c-1.5,0.9-2,2.9-1.1,4.4s2.9,2,4.4,1.1c0,0,0.1,0,0.1-0.1l23.5-14.8
	c1.5-0.9,2-2.9,1.1-4.4C139.8,55.2,137.8,54.7,136.2,55.7C136.3,55.7,136.3,55.7,136.2,55.7z"/>
<path class="st0" d="M77.1,93l-21.9,13.8L5.3,78.5c-1.5-0.9-3.5-0.3-4.3,1.2C0,81.2,0.6,83.1,2.1,84l51.5,29.3
	c0.5,0.3,1,0.4,1.6,0.4c0.6,0,1.2-0.2,1.7-0.5l23.6-14.8c1.4-1,1.8-3,0.8-4.4C80.3,92.6,78.5,92.2,77.1,93z"/>
<path class="st0" d="M136.2,68.4l-23.5,14.8c-1.5,0.9-1.9,2.9-1,4.4c0.6,0.9,1.6,1.5,2.7,1.5c0.6,0,1.2-0.2,1.7-0.5l23.5-14.8
	c1.5-0.9,1.9-2.9,1-4.4S137.7,67.5,136.2,68.4z"/>
<path class="st0" d="M77.1,105.7l-21.9,13.8L5.3,91.2c-1.5-0.8-3.5-0.3-4.3,1.3c-0.8,1.5-0.3,3.4,1.2,4.3L53.6,126
	c1,0.6,2.3,0.6,3.3-0.1l23.6-14.8c1.5-1,1.9-2.9,0.9-4.4C80.4,105.3,78.5,104.8,77.1,105.7L77.1,105.7z"/>
</svg>
