<?xml version="1.0" encoding="utf-8"?>
<!-- Generator: Adobe Illustrator 22.0.0, SVG Export Plug-In . SVG Version: 6.00 Build 0)  -->
<svg version="1.1" id="Capa_1" xmlns="http://www.w3.org/2000/svg" xmlns:xlink="http://www.w3.org/1999/xlink" x="0px" y="0px"
	 viewBox="0 0 1011 256" style="enable-background:new 0 0 1011 256;" xml:space="preserve">
<style type="text/css">
	.st0{font-family:'Objective-Light';}
	.st1{font-size:28px;}
	.st2{fill:#00B520;stroke:#00B520;stroke-width:0.75;stroke-miterlimit:10;}
	.st3{fill:#00B520;stroke:#00B520;stroke-width:1.6774;stroke-miterlimit:10;}
	.st4{fill:#00B520;}
	.st5{font-size:38px;}
	.st6{fill:#3C3C3B;}
	.st7{font-family:'Objective-Regular';}
	.st8{font-size:24px;}
	.st9{fill:none;stroke:#000000;stroke-width:3;stroke-linecap:round;stroke-miterlimit:10;}
	.st10{fill:none;stroke:#000000;stroke-width:3;stroke-linecap:round;stroke-linejoin:round;stroke-miterlimit:10;}
</style>
<g>
	<g>
		<text transform="matrix(1 0 0 1 914.637 60.2772)" class="st0 st1">deuda!</text>
	</g>
	<g>
		<g>
			<g>
				<g>
					<path class="st2" d="M126.7,75c-1.3,14.9-8.4,28.3-19.9,37.9c-10,8.3-22.7,12.9-35.8,12.9s-25.8-4.6-35.8-12.9
						c-0.5-0.4-0.8-1-0.8-1.6c-0.1-0.6,0.1-1.3,0.6-1.8c0.8-1,2.4-1.2,3.4-0.3c10.5,8.7,23.8,12.9,37.4,11.6
						c13.6-1.2,25.9-7.7,34.6-18.2c8.7-10.5,12.9-23.8,11.6-37.4c-1.2-13.6-7.7-25.9-18.2-34.6C93.3,21.9,80,17.8,66.4,19
						c-13.6,1.2-25.9,7.7-34.6,18.2C16,56.1,16,83.7,31.8,102.6c0.9,1,0.7,2.6-0.3,3.4c-0.5,0.4-1.1,0.6-1.8,0.6
						c-0.6-0.1-1.2-0.4-1.7-0.9c-9.6-11.5-14.1-26-12.7-40.9c1.4-14.9,8.4-28.3,19.9-37.9c11.5-9.6,26-14.1,40.9-12.7
						c14.9,1.4,28.3,8.4,37.9,19.9C123.6,45.6,128.1,60.1,126.7,75z"/>
				</g>
				<g>
					<path class="st3" d="M59.1,1.6c2-0.4,4-0.6,5.9-0.8C63,1,61.1,1.3,59.1,1.6z"/>
					<path class="st3" d="M83,1.6c-2-0.4-4-0.6-5.9-0.8C79.1,1,81,1.3,83,1.6z"/>
					<path class="st3" d="M77.1,0.9c2,0.2,4,0.4,5.9,0.8C81,1.3,79.1,1,77.1,0.9z M65,0.9c-2,0.2-4,0.4-5.9,0.8
						C61.1,1.3,63,1,65,0.9z"/>
					<path class="st2" d="M116.3,17.2C103.7,6.4,87.6,0.4,71,0.4s-32.7,6-45.3,16.8c-0.1,0.1-0.1,0.1-0.2,0.2
						c-0.5,0.4-0.7,1.1-0.8,1.7c0,0.6,0.2,1.3,0.7,1.7c0.4,0.5,1.1,0.7,1.7,0.8h0.1c0.6,0,1.2-0.2,1.7-0.7C53.3,0,88.7,0,113.1,20.9
						c0.4,0.4,1,0.6,1.6,0.6c0,0,0,0,0,0c0.7,0,1.4-0.3,1.8-0.8c0.4-0.5,0.6-1.1,0.6-1.8C117.1,18.2,116.8,17.6,116.3,17.2z M83,1.6
						c-2-0.4-4-0.6-5.9-0.8C79.1,1,81,1.3,83,1.6z M65,0.9c-2,0.2-4,0.4-5.9,0.8C61.1,1.3,63,1,65,0.9z"/>
				</g>
				<g>
					<path class="st2" d="M116.2,122.7c-12.6,10.7-28.6,16.7-45.1,16.7c0,0,0,0,0,0c-18.6,0-36-7.2-49.1-20.4
						C8.8,105.9,1.6,88.5,1.5,69.9c0-16.6,6-32.7,16.8-45.3c0.5-0.5,1.1-0.8,1.7-0.8h0.1c0.6,0,1.2,0.2,1.7,0.7
						c0.9,0.9,1.1,2.3,0.3,3.3c-23.2,27-20.1,67.9,6.9,91.1c13.1,11.2,29.8,16.7,47,15.4C93.1,133,108.8,125,120,112
						c20.9-24.3,20.9-59.6,0.1-84c-0.9-1-0.8-2.6,0.3-3.5c0.5-0.4,1.1-0.6,1.8-0.6c0.6,0.1,1.3,0.4,1.7,0.8
						C148.7,53.9,145.3,97.8,116.2,122.7z"/>
				</g>
			</g>
			<text transform="matrix(1 0 0 1 35.6187 83.0024)" class="st4 st5">BTC</text>
		</g>
	</g>
	<g>
		<g>
			<g>
				<g>
					<path class="st2" d="M742.9,75c-1.3,14.9-8.4,28.3-19.9,37.9c-10,8.3-22.7,12.9-35.8,12.9s-25.8-4.6-35.8-12.9
						c-0.5-0.4-0.8-1-0.8-1.6c-0.1-0.6,0.1-1.3,0.6-1.8c0.8-1,2.4-1.2,3.4-0.3c10.5,8.7,23.8,12.9,37.4,11.6
						c13.6-1.2,25.9-7.7,34.6-18.2c8.7-10.5,12.9-23.8,11.6-37.4c-1.2-13.6-7.7-25.9-18.2-34.6c-10.5-8.7-23.8-12.9-37.4-11.6
						c-13.6,1.2-25.9,7.7-34.6,18.2c-15.8,18.9-15.8,46.5,0,65.4c0.9,1,0.7,2.6-0.3,3.4c-0.5,0.4-1.1,0.6-1.8,0.6
						c-0.6-0.1-1.2-0.4-1.7-0.9c-9.6-11.5-14.1-26-12.7-40.9c1.4-14.9,8.4-28.3,19.9-37.9c11.5-9.6,26-14.1,40.9-12.7
						c14.9,1.4,28.3,8.4,37.9,19.9C739.8,45.6,744.3,60.1,742.9,75z"/>
				</g>
				<g>
					<path class="st3" d="M675.3,1.6c2-0.4,4-0.6,5.9-0.8C679.2,1,677.2,1.3,675.3,1.6z"/>
					<path class="st3" d="M699.2,1.6c-2-0.4-4-0.6-5.9-0.8C695.2,1,697.2,1.3,699.2,1.6z"/>
					<path class="st3" d="M693.3,0.9c2,0.2,4,0.4,5.9,0.8C697.2,1.3,695.2,1,693.3,0.9z M681.2,0.9c-2,0.2-4,0.4-5.9,0.8
						C677.2,1.3,679.2,1,681.2,0.9z"/>
					<path class="st2" d="M732.5,17.2C719.9,6.4,703.8,0.4,687.2,0.4s-32.7,6-45.3,16.8c-0.1,0.1-0.1,0.1-0.2,0.2
						c-0.5,0.4-0.7,1.1-0.8,1.7c0,0.6,0.2,1.3,0.7,1.7c0.4,0.5,1.1,0.7,1.7,0.8h0.1c0.6,0,1.2-0.2,1.7-0.7
						c24.4-20.9,59.8-20.9,84.1,0c0.4,0.4,1,0.6,1.6,0.6c0,0,0,0,0,0c0.7,0,1.4-0.3,1.8-0.8c0.4-0.5,0.6-1.1,0.6-1.8
						C733.3,18.2,733,17.6,732.5,17.2z M699.2,1.6c-2-0.4-4-0.6-5.9-0.8C695.2,1,697.2,1.3,699.2,1.6z M681.2,0.9
						c-2,0.2-4,0.4-5.9,0.8C677.2,1.3,679.2,1,681.2,0.9z"/>
				</g>
				<g>
					<path class="st2" d="M732.4,122.7c-12.6,10.7-28.6,16.7-45.1,16.7c0,0,0,0,0,0c-18.6,0-36-7.2-49.1-20.4
						c-13.1-13.1-20.3-30.6-20.4-49.1c0-16.6,6-32.7,16.8-45.3c0.5-0.5,1.1-0.8,1.7-0.8h0.1c0.6,0,1.2,0.2,1.7,0.7
						c0.9,0.9,1.1,2.3,0.3,3.3c-23.2,27-20.1,67.9,6.9,91.1c13.1,11.2,29.8,16.7,47,15.4c17.2-1.3,32.9-9.2,44.1-22.3
						c20.9-24.3,20.9-59.6,0.1-84c-0.9-1-0.8-2.6,0.3-3.5c0.5-0.4,1.1-0.6,1.8-0.6c0.6,0.1,1.3,0.4,1.7,0.8
						C764.9,53.9,761.5,97.8,732.4,122.7z"/>
				</g>
			</g>
			<text transform="matrix(1 0 0 1 653.1558 83.0024)" class="st4 st5">U$S</text>
		</g>
	</g>
	<g>
		<text transform="matrix(1 0 0 1 33.3789 203.6204)"><tspan x="0" y="0" class="st6 st7 st8">1 BTC </tspan><tspan x="-33.3" y="44" class="st0 st1">USD 7500</tspan></text>
	</g>
	<g>
		<text transform="matrix(1 0 0 1 206.9722 35.4651)"><tspan x="0" y="0" class="st6 st7 st8">Ratio collateral </tspan><tspan x="0" y="32" class="st6 st7 st8">150%</tspan></text>
	</g>
	<g>
		<text transform="matrix(1 0 0 1 635.0837 203.6204)"><tspan x="0" y="0" class="st6 st7 st8">100 US$</tspan><tspan x="-19.4" y="44" class="st0 st1">US$ 11250</tspan></text>
	</g>
	<g>
		<line class="st9" x1="192.9" y1="86.2" x2="548" y2="86.2"/>
		<polyline class="st10" points="534.3,68.5 551.9,86.2 534.3,103.8 		"/>
	</g>
	<g>
		<line class="st9" x1="1010.9" y1="86.2" x2="801.6" y2="86.2"/>
		<polyline class="st10" points="815.4,103.8 797.7,86.2 815.4,68.5 		"/>
	</g>
</g>
</svg>
