<?xml version="1.0" encoding="utf-8"?>
<!-- Generator: Adobe Illustrator 22.0.0, SVG Export Plug-In . SVG Version: 6.00 Build 0)  -->
<svg version="1.1" id="Capa_1" xmlns="http://www.w3.org/2000/svg" xmlns:xlink="http://www.w3.org/1999/xlink" x="0px" y="0px"
	 viewBox="0 0 1355 240" style="enable-background:new 0 0 1355 240;" xml:space="preserve">
<style type="text/css">
	.st0{fill:#00B520;stroke:#00B520;stroke-width:0.75;stroke-miterlimit:10;}
	.st1{fill:#00B520;stroke:#00B520;stroke-width:1.1809;stroke-miterlimit:10;}
	.st2{fill:#00B520;}
	.st3{font-size:26px;}
	.st4{fill:none;}
	.st5{fill:#3C3C3B;}
	.st6{font-family:'Objective-Regular';}
	.st7{font-size:24px;}
	.st8{fill:#00B520;stroke:#00B520;stroke-width:1.6774;stroke-miterlimit:10;}
	.st9{font-size:38px;}
	.st10{fill:#00B520;stroke:#FFFFFF;stroke-width:1.4108;stroke-miterlimit:10;}
	.st11{fill:#00B520;stroke:#FFFFFF;stroke-width:0.7054;stroke-miterlimit:10;}
	.st12{fill:none;stroke:#000000;stroke-width:3;stroke-linecap:round;stroke-miterlimit:10;}
	.st13{fill:none;stroke:#000000;stroke-width:3;stroke-linecap:round;stroke-linejoin:round;stroke-miterlimit:10;}
</style>
<g>
	<g>
		<g>
			<g>
				<g>
					<path class="st0" d="M241.3,56.4c-0.9,10.5-5.9,19.9-14,26.7c-7.1,5.9-16,9.1-25.2,9.1c-9.2,0-18.1-3.2-25.2-9.1
						c-0.3-0.3-0.6-0.7-0.6-1.1c0-0.5,0.1-0.9,0.4-1.2c0.6-0.7,1.7-0.8,2.4-0.2c7.4,6.2,16.7,9.1,26.3,8.2
						c9.6-0.9,18.2-5.4,24.4-12.8c6.2-7.4,9.1-16.7,8.2-26.3c-0.9-9.6-5.4-18.2-12.8-24.4c-7.4-6.2-16.7-9.1-26.3-8.2
						c-9.6,0.9-18.2,5.4-24.4,12.8c-11.1,13.3-11.1,32.7,0,46c0.6,0.7,0.5,1.8-0.2,2.4c-0.3,0.3-0.8,0.4-1.2,0.4
						c-0.5,0-0.9-0.3-1.2-0.6c-6.7-8.1-9.9-18.3-9-28.8c1-10.5,5.9-19.9,14-26.7c8.1-6.7,18.3-9.9,28.8-9c10.5,1,19.9,5.9,26.7,14
						C239.1,35.7,242.2,45.9,241.3,56.4z"/>
				</g>
				<g>
					<path class="st1" d="M193.7,4.7c1.4-0.3,2.8-0.4,4.2-0.6C196.5,4.3,195.1,4.5,193.7,4.7z"/>
					<path class="st1" d="M210.5,4.7c-1.4-0.3-2.8-0.4-4.2-0.6C207.7,4.3,209.1,4.5,210.5,4.7z"/>
					<path class="st1" d="M206.3,4.2c1.4,0.1,2.8,0.3,4.2,0.6C209.1,4.5,207.7,4.3,206.3,4.2z M197.9,4.2c-1.4,0.1-2.8,0.3-4.2,0.6
						C195.1,4.5,196.5,4.3,197.9,4.2z"/>
					<path class="st0" d="M234,15.7c-8.9-7.6-20.2-11.8-31.9-11.8c-11.7,0-23,4.2-31.9,11.8c0,0-0.1,0.1-0.1,0.1
						c-0.3,0.3-0.5,0.7-0.5,1.2c0,0.5,0.2,0.9,0.5,1.2c0.3,0.3,0.7,0.5,1.2,0.5h0c0.4,0,0.9-0.2,1.2-0.5c17.2-14.7,42.1-14.7,59.2,0
						c0.3,0.3,0.7,0.4,1.1,0.4c0,0,0,0,0,0c0.5,0,1-0.2,1.3-0.6c0.3-0.3,0.5-0.8,0.4-1.3C234.5,16.4,234.3,16,234,15.7z M210.5,4.7
						c-1.4-0.3-2.8-0.4-4.2-0.6C207.7,4.3,209.1,4.5,210.5,4.7z M197.9,4.2c-1.4,0.1-2.8,0.3-4.2,0.6C195.1,4.5,196.5,4.3,197.9,4.2
						z"/>
				</g>
				<g>
					<path class="st0" d="M233.9,90c-8.8,7.6-20.1,11.7-31.8,11.7c0,0,0,0,0,0c-13.1,0-25.3-5.1-34.6-14.3
						c-9.2-9.2-14.3-21.5-14.3-34.6c0-11.7,4.2-23,11.8-31.9c0.3-0.3,0.8-0.5,1.2-0.6h0c0.4,0,0.9,0.2,1.2,0.5
						c0.7,0.6,0.7,1.6,0.2,2.3c-16.3,19-14.2,47.8,4.9,64.1c9.2,7.9,21,11.8,33.1,10.8c12.1-0.9,23.1-6.5,31-15.7
						c14.7-17.1,14.7-42,0.1-59.1c-0.6-0.7-0.5-1.8,0.2-2.4c0.3-0.3,0.8-0.4,1.3-0.4c0.5,0,0.9,0.3,1.2,0.6
						C256.8,41.5,254.4,72.4,233.9,90z"/>
				</g>
			</g>
			<text transform="matrix(1 0 0 1 177.8728 61.9957)" class="st2 st3">BTC</text>
		</g>
	</g>
	<g>
		<path class="st4" d="M76.6,69.7c15.2,0,27.5-12.4,27.5-27.5S91.8,14.7,76.6,14.7S49,27,49,42.2S61.4,69.7,76.6,69.7z"/>
		<path class="st2" d="M76.6,78.5c20,0,36.3-16.3,36.3-36.3c0-20-16.3-36.3-36.3-36.3S40.3,22.2,40.3,42.2
			C40.3,62.2,56.6,78.5,76.6,78.5z M76.6,12.2c16.6,0,30,13.5,30,30c0,16.6-13.5,30-30,30s-30-13.5-30-30
			C46.5,25.6,60,12.2,76.6,12.2z"/>
		<path class="st2" d="M110.1,89.4H43c-9.6,0-19.1,3.3-26.6,9.3c-1.3,1.1-1.6,3-0.5,4.4c1.1,1.3,3,1.6,4.4,0.5
			c6.5-5.2,14.4-7.9,22.7-7.9h67.1c20.1,0,36.5,16.4,36.5,36.5v21.4c0,0.7-0.6,1.3-1.3,1.3h-20.8v-21.9c0-1.7-1.4-3.1-3.1-3.1
			s-3.1,1.4-3.1,3.1v21.9H35.9v-21.9c0-1.7-1.4-3.1-3.1-3.1s-3.1,1.4-3.1,3.1v21.9H7.9c-0.7,0-1.3-0.6-1.3-1.3v-21.4
			c0-6.2,1.6-12.3,4.5-17.6c0.4-0.7,0.5-1.6,0.3-2.4c-0.2-0.8-0.8-1.5-1.5-1.9c-0.5-0.3-1-0.4-1.5-0.4c-1.1,0-2.2,0.6-2.7,1.6
			c-3.5,6.3-5.3,13.4-5.3,20.7v21.4c0,4.2,3.4,7.5,7.5,7.5h137.4c4.2,0,7.5-3.4,7.5-7.5v-21.4C152.8,108.5,133.7,89.4,110.1,89.4z"
			/>
	</g>
	<g>
		<path d="M1109.4,72.1c-1-1-1.6-2.2-1.6-3.7c0-1.4,0.5-2.5,1.6-3.5c1-0.9,2.3-1.4,3.8-1.4h55.6c1.5,0,2.8,0.5,3.8,1.5
			c1,1,1.6,2.2,1.6,3.7c0,1.3-0.5,2.4-1.6,3.4c-1,1-2.3,1.5-3.8,1.5h-55.6C1111.7,73.6,1110.4,73.1,1109.4,72.1z M1109.4,103.9
			c-1-1-1.6-2.2-1.6-3.7c0-1.4,0.5-2.5,1.6-3.5c1-0.9,2.3-1.4,3.8-1.4h55.6c1.5,0,2.8,0.5,3.8,1.5c1,1,1.6,2.2,1.6,3.6
			c0,1.4-0.5,2.6-1.6,3.6c-1,1-2.3,1.5-3.8,1.5h-55.6C1111.7,105.4,1110.4,104.9,1109.4,103.9z"/>
	</g>
	<text transform="matrix(1 0 0 1 58.9997 229.0308)" class="st5 st6 st7">Individuo</text>
	<text transform="matrix(1 0 0 1 510.7468 229.0305)" class="st5 st6 st7">Stablecoin</text>
	<text transform="matrix(1 0 0 1 825.3417 229.0305)" class="st5 st6 st7">1 dolar real = U$S</text>
	<text transform="matrix(1 0 0 1 1211.8656 229.0305)" class="st5 st6 st7">1 stablecoin</text>
	<g>
		<g>
			<g>
				<g>
					<path class="st0" d="M631.3,95.2c-1.3,14.9-8.4,28.3-19.9,37.9c-10,8.3-22.7,12.9-35.8,12.9c-13.1,0-25.8-4.6-35.8-12.9
						c-0.5-0.4-0.8-1-0.8-1.6c-0.1-0.6,0.1-1.3,0.6-1.8c0.8-1,2.4-1.2,3.4-0.3c10.5,8.7,23.8,12.9,37.4,11.6
						c13.6-1.2,25.9-7.7,34.6-18.2c8.7-10.5,12.9-23.8,11.6-37.4c-1.2-13.6-7.7-25.9-18.2-34.6C597.9,42.1,584.6,38,571,39.3
						c-13.6,1.2-25.9,7.7-34.6,18.2c-15.8,18.9-15.8,46.5,0,65.4c0.9,1,0.7,2.6-0.3,3.4c-0.5,0.4-1.1,0.6-1.8,0.6
						c-0.6-0.1-1.2-0.4-1.7-0.9c-9.6-11.5-14.1-26-12.7-40.9c1.4-14.9,8.4-28.3,19.9-37.9c11.5-9.6,26-14.1,40.9-12.7
						c14.9,1.4,28.3,8.4,37.9,19.9C628.2,65.8,632.7,80.3,631.3,95.2z"/>
				</g>
				<g>
					<path class="st8" d="M563.7,21.9c2-0.4,4-0.6,5.9-0.8C567.6,21.3,565.7,21.5,563.7,21.9z"/>
					<path class="st8" d="M587.6,21.9c-2-0.4-4-0.6-5.9-0.8C583.7,21.3,585.7,21.5,587.6,21.9z"/>
					<path class="st8" d="M581.7,21.1c2,0.2,4,0.4,5.9,0.8C585.7,21.5,583.7,21.3,581.7,21.1z M569.6,21.1c-2,0.2-4,0.4-5.9,0.8
						C565.7,21.5,567.6,21.3,569.6,21.1z"/>
					<path class="st0" d="M620.9,37.4c-12.6-10.8-28.7-16.8-45.3-16.8c-16.6,0-32.7,6-45.3,16.8c-0.1,0.1-0.1,0.1-0.2,0.2
						c-0.5,0.4-0.7,1.1-0.8,1.7c0,0.6,0.2,1.3,0.7,1.7c0.4,0.5,1.1,0.7,1.7,0.8h0.1c0.6,0,1.2-0.2,1.7-0.7
						c24.4-20.9,59.8-20.9,84.1,0c0.4,0.4,1,0.6,1.6,0.6c0,0,0,0,0,0c0.7,0,1.4-0.3,1.8-0.8c0.4-0.5,0.6-1.1,0.6-1.8
						C621.7,38.5,621.4,37.9,620.9,37.4z M587.6,21.9c-2-0.4-4-0.6-5.9-0.8C583.7,21.3,585.7,21.5,587.6,21.9z M569.6,21.1
						c-2,0.2-4,0.4-5.9,0.8C565.7,21.5,567.6,21.3,569.6,21.1z"/>
				</g>
				<g>
					<path class="st0" d="M620.8,143c-12.6,10.7-28.6,16.7-45.1,16.7c0,0,0,0,0,0c-18.6,0-36-7.2-49.1-20.4
						c-13.1-13.1-20.3-30.6-20.4-49.1c0-16.6,6-32.7,16.8-45.3c0.5-0.5,1.1-0.8,1.7-0.8h0.1c0.6,0,1.2,0.2,1.7,0.7
						c0.9,0.9,1.1,2.3,0.3,3.3c-23.2,27-20.1,67.9,6.9,91.1c13.1,11.3,29.8,16.7,47,15.4c17.2-1.3,32.9-9.2,44.1-22.3
						c20.9-24.3,20.9-59.6,0.1-84c-0.9-1-0.8-2.6,0.3-3.5c0.5-0.4,1.1-0.6,1.8-0.6c0.6,0.1,1.3,0.4,1.7,0.8
						C653.4,74.1,649.9,118.1,620.8,143z"/>
				</g>
			</g>
			<text transform="matrix(1 0 0 1 541.5745 103.2478)" class="st2 st9">U$S</text>
		</g>
	</g>
	<g>
		<g>
			<g>
				<g>
					<path class="st0" d="M1339,95.2c-1.3,14.9-8.4,28.3-19.9,37.9c-10,8.3-22.7,12.9-35.8,12.9c-13.1,0-25.8-4.6-35.8-12.9
						c-0.5-0.4-0.8-1-0.8-1.6c-0.1-0.6,0.1-1.3,0.6-1.8c0.8-1,2.4-1.2,3.4-0.3c10.5,8.7,23.8,12.9,37.4,11.6
						c13.6-1.2,25.9-7.7,34.6-18.2c8.7-10.5,12.9-23.8,11.6-37.4c-1.2-13.6-7.7-25.9-18.2-34.6c-10.5-8.7-23.8-12.9-37.4-11.6
						c-13.6,1.2-25.9,7.7-34.6,18.2c-15.8,18.9-15.8,46.5,0,65.4c0.9,1,0.7,2.6-0.3,3.4c-0.5,0.4-1.1,0.6-1.8,0.6
						c-0.6-0.1-1.2-0.4-1.7-0.9c-9.6-11.5-14.1-26-12.7-40.9c1.4-14.9,8.4-28.3,19.9-37.9c11.5-9.6,26-14.1,40.9-12.7
						c14.9,1.4,28.3,8.4,37.9,19.9C1335.8,65.8,1340.3,80.3,1339,95.2z"/>
				</g>
				<g>
					<path class="st8" d="M1271.3,21.9c2-0.4,4-0.6,5.9-0.8C1275.3,21.3,1273.3,21.5,1271.3,21.9z"/>
					<path class="st8" d="M1295.3,21.9c-2-0.4-4-0.6-5.9-0.8C1291.3,21.3,1293.3,21.5,1295.3,21.9z"/>
					<path class="st8" d="M1289.3,21.1c2,0.2,4,0.4,5.9,0.8C1293.3,21.5,1291.3,21.3,1289.3,21.1z M1277.3,21.1
						c-2,0.2-4,0.4-5.9,0.8C1273.3,21.5,1275.3,21.3,1277.3,21.1z"/>
					<path class="st0" d="M1328.6,37.4c-12.6-10.8-28.7-16.8-45.3-16.8c-16.6,0-32.7,6-45.3,16.8c-0.1,0.1-0.1,0.1-0.2,0.2
						c-0.5,0.4-0.7,1.1-0.8,1.7c0,0.6,0.2,1.3,0.7,1.7c0.4,0.5,1.1,0.7,1.7,0.8h0.1c0.6,0,1.2-0.2,1.7-0.7
						c24.4-20.9,59.8-20.9,84.1,0c0.4,0.4,1,0.6,1.6,0.6c0,0,0,0,0,0c0.7,0,1.4-0.3,1.8-0.8c0.4-0.5,0.6-1.1,0.6-1.8
						C1329.4,38.5,1329.1,37.9,1328.6,37.4z M1295.3,21.9c-2-0.4-4-0.6-5.9-0.8C1291.3,21.3,1293.3,21.5,1295.3,21.9z M1277.3,21.1
						c-2,0.2-4,0.4-5.9,0.8C1273.3,21.5,1275.3,21.3,1277.3,21.1z"/>
				</g>
				<g>
					<path class="st0" d="M1328.4,143c-12.6,10.7-28.6,16.7-45.1,16.7c0,0,0,0,0,0c-18.6,0-36-7.2-49.1-20.4
						c-13.1-13.1-20.3-30.6-20.4-49.1c0-16.6,6-32.7,16.8-45.3c0.5-0.5,1.1-0.8,1.7-0.8h0.1c0.6,0,1.2,0.2,1.7,0.7
						c0.9,0.9,1.1,2.3,0.3,3.3c-23.2,27-20.1,67.9,6.9,91.1c13.1,11.3,29.8,16.7,47,15.4c17.2-1.3,32.9-9.2,44.1-22.3
						c20.9-24.3,20.9-59.6,0.1-84c-0.9-1-0.8-2.6,0.3-3.5c0.5-0.4,1.1-0.6,1.8-0.6c0.6,0.1,1.3,0.4,1.7,0.8
						C1361,74.1,1357.6,118.1,1328.4,143z"/>
				</g>
			</g>
			<text transform="matrix(1 0 0 1 1249.2207 103.2478)" class="st2 st9">U$S</text>
		</g>
	</g>
	<g>
		<g>
			<g>
				<path class="st10" d="M993.2,155c2,0,3.7-1.7,3.7-3.7c0-2-1.7-3.7-3.7-3.7l0,0H813.4V22.3h29.1c2,0,3.7-1.7,3.7-3.7
					c0-2-1.7-3.7-3.7-3.7h-32.8c-2,0-3.7,1.7-3.7,3.7v132.7c0,2,1.7,3.7,3.7,3.7H993.2z"/>
			</g>
			<g>
				<path class="st10" d="M857.3,14.9c-2,0-3.7,1.7-3.7,3.7c0,2,1.7,3.7,3.7,3.7h193.3v125.3h-42.7c-2,0-3.7,1.7-3.7,3.7
					c0,2,1.7,3.7,3.7,3.7h46.4c2,0,3.7-1.7,3.7-3.7V18.6c0-2-1.7-3.7-3.7-3.7l0,0H857.3z"/>
			</g>
			<g>
				<path class="st11" d="M932,115.3c16.7,0,30.3-13.6,30.3-30.3c0-16.7-13.6-30.3-30.3-30.3S901.7,68.3,901.7,85
					C901.7,101.7,915.3,115.3,932,115.3L932,115.3z M932,61c13.2,0,24,10.8,24,24c0,13.2-10.8,24-24,24c-13.2,0-24-10.8-24-24
					C908,71.8,918.8,61,932,61L932,61z M932,61"/>
			</g>
			<g>
				<path class="st10" d="M900.7,136.9h112.6c2,0,3.7-1.7,3.7-3.7c0-9.3,9.4-18.4,18.9-18.4c2,0,3.7-1.7,3.7-3.7V58.8
					c0-2-1.7-3.7-3.7-3.7c-9.6,0-18.9-9.1-18.9-18.4c0-2-1.7-3.7-3.7-3.7H848.7c-2,0-3.7,1.7-3.7,3.7c0,9.9-7.9,18.5-16.9,18.5
					c-2,0-3.7,1.7-3.7,3.7v52c0,2,1.7,3.7,3.7,3.7c9,0,16.9,8.7,16.9,18.5c0,2,1.7,3.7,3.7,3.7h37.2c2,0,3.7-1.7,3.7-3.7
					c0-2-1.7-3.7-3.7-3.7h-33.8c-0.8-5.2-3.1-10.2-6.7-14.2c-3.8-4.2-8.5-6.9-13.7-7.7V62.3c5.1-0.9,9.9-3.5,13.7-7.7
					c3.6-4,5.9-9,6.7-14.2H1010c1.9,10.6,11.5,20,22.3,21.8v45.5c-10.8,1.8-20.5,11.2-22.3,21.8H900.7c-2,0-3.7,1.7-3.7,3.7
					C897,135.2,898.7,136.9,900.7,136.9L900.7,136.9z M900.7,136.9"/>
			</g>
		</g>
	</g>
	<g>
		<line class="st12" x1="326.6" y1="109" x2="457.8" y2="109"/>
		<polyline class="st13" points="444.1,91.3 461.8,109 444.1,126.6 		"/>
	</g>
</g>
</svg>
