<?xml version="1.0" encoding="utf-8"?>
<!-- Generator: Adobe Illustrator 22.0.0, SVG Export Plug-In . SVG Version: 6.00 Build 0)  -->
<svg version="1.1" id="Capa_1" xmlns="http://www.w3.org/2000/svg" xmlns:xlink="http://www.w3.org/1999/xlink" x="0px" y="0px"
	 viewBox="0 0 1480 650" style="enable-background:new 0 0 1480 650;" xml:space="preserve">
<style type="text/css">
	.st0{fill:none;stroke:#000000;stroke-width:2.8517;stroke-linecap:round;stroke-linejoin:round;stroke-miterlimit:10;}
	.st1{fill:#00B520;stroke:#00B520;stroke-width:0.4753;stroke-miterlimit:10;}
	.st2{fill:#00B520;}
	.st3{fill:#00B520;stroke:#00B520;stroke-width:0.7129;stroke-miterlimit:10;}
	.st4{fill:#FFFFFF;stroke:#00B520;stroke-width:0.7129;stroke-miterlimit:10;}
	.st5{opacity:0.5;}
	.st6{fill:#00B520;stroke:#FFFFFF;stroke-width:0.1226;stroke-miterlimit:10;}
	.st7{fill:#00B520;stroke:#00B520;stroke-width:1.9011;stroke-miterlimit:10;}
	.st8{fill:#00B520;stroke:#FFFFFF;stroke-width:0.9506;stroke-miterlimit:10;}
	.st9{fill:#FFFFFF;stroke:#FFFFFF;stroke-width:0.3697;stroke-miterlimit:10;}
	.st10{fill:#00B520;stroke:#FFFFFF;stroke-width:0.4753;stroke-miterlimit:10;}
	.st11{fill:#00B520;stroke:#FFFFFF;stroke-width:0.7129;stroke-miterlimit:10;}
	.st12{fill:none;stroke:#000000;stroke-width:2.8517;stroke-linecap:round;stroke-miterlimit:10;}
	.st13{fill:#00B520;stroke:#FFFFFF;stroke-width:0.2376;stroke-miterlimit:10;}
	.st14{fill:#3C3C3B;}
	.st15{font-family:'Objective-Regular';}
	.st16{font-size:24px;}
</style>
<g>
	<g>
		<path class="st0" d="M1207.3,79.2h133.5c6.6,0,12,5.4,12,12v167.4c0,6.6-5.4,12-12,12L16.5,269.4c-6.6,0-12,5.4-12,12v154.7
			c0,6.6,5.4,12,12,12h58.6"/>
		<g>
			<g>
				<g>
					<g>
						<path class="st1" d="M1123.3,90.7h-31.6c-0.4,0-0.7,0.3-0.7,0.7c0,0.4,0.3,0.7,0.7,0.7h31.6c1.7,0,3.1,1.4,3.1,3.1v25.4
							c0,1.7-1.4,3.1-3.1,3.1h-38.9c-1.7,0-3.1-1.4-3.1-3.1V95.3c0-1.7,1.4-3.1,3.1-3.1h4.4c0.4,0,0.7-0.3,0.7-0.7
							c0-0.4-0.3-0.7-0.7-0.7h-4.4c-2.5,0-4.6,2-4.6,4.6v25.4c0,2.5,2,4.6,4.6,4.6h11.5l-1.4,4.6h-2.6c-1.3,0-2.4,1.1-2.4,2.4
							c0,1.3,1.1,2.4,2.4,2.4h24c1.3,0,2.4-1.1,2.4-2.4c0-1.3-1.1-2.4-2.4-2.4h-2.6l-1.4-4.6h11.5c2.5,0,4.6-2,4.6-4.6V95.3
							C1127.9,92.8,1125.8,90.7,1123.3,90.7L1123.3,90.7z M1116.8,132.2c0,0.6-0.4,1-1,1h-24c-0.6,0-1-0.4-1-1c0-0.6,0.4-1,1-1h24
							C1116.4,131.2,1116.8,131.7,1116.8,132.2L1116.8,132.2z M1111.7,129.8H1096l1.4-4.6h13L1111.7,129.8z M1111.7,129.8"/>
					</g>
					<g>
						<path class="st1" d="M1123.3,113.9c0.4,0,0.7-0.3,0.7-0.7V95.3c0-0.4-0.3-0.8-0.8-0.8h-38.9c-0.4,0-0.8,0.3-0.8,0.8v23.2
							c0,0.4,0.3,0.7,0.7,0.7h39c0.4,0,0.7-0.3,0.7-0.7v-2.5c0-0.4-0.3-0.7-0.7-0.7c-0.4,0-0.7,0.3-0.7,0.7v1.7h-37.6V95.9h37.6
							v17.3C1122.6,113.6,1122.9,113.9,1123.3,113.9L1123.3,113.9z M1123.3,113.9"/>
					</g>
					<g>
						<path class="st1" d="M1104.4,121c-0.2-0.2-0.5-0.4-0.7-0.3c-0.3,0.1-0.5,0.3-0.6,0.6c-0.1,0.6,0.7,1,1.2,0.6
							C1104.6,121.7,1104.6,121.3,1104.4,121L1104.4,121z M1104.4,121"/>
					</g>
				</g>
				<g>
					<g>
						<g>
							<path class="st2" d="M1168.6,133.7H1150c-1.1,0-2-0.9-2-2v-2.2h22.5v2.2C1170.6,132.9,1169.7,133.7,1168.6,133.7z"/>
						</g>
					</g>
					<g>
						<g>
							<path class="st2" d="M1168,91.7h-17.4c-1.4,0-2.5,1.1-2.5,2.5v4.4h22.5v-4.4C1170.6,92.8,1169.4,91.7,1168,91.7z"/>
						</g>
					</g>
					<g>
						<g>
							<path class="st2" d="M1167.4,134.7h-16.1c-2.3,0-4.1-1.8-4.1-4.1V94.8c0-2.3,1.8-4.1,4.1-4.1h16.1c2.3,0,4.1,1.8,4.1,4.1
								v35.8C1171.5,132.8,1169.7,134.7,1167.4,134.7z M1151.3,92.4c-1.3,0-2.4,1.1-2.4,2.4v35.8c0,1.3,1.1,2.4,2.4,2.4h16.1
								c1.3,0,2.4-1.1,2.4-2.4V94.8c0-1.3-1.1-2.4-2.4-2.4H1151.3z"/>
						</g>
					</g>
				</g>
				<g>
					<g>
						<path class="st1" d="M1171.3,68.5h-23.9c-1.2,0-2.1-1-2.1-2.1v-1.8h28.1v1.8C1173.4,67.6,1172.4,68.5,1171.3,68.5z"/>
					</g>
					<g>
						<path class="st1" d="M1148.6,69.3c-1.1,0-2.1-0.5-2.9-1.2c-0.8-0.8-1.2-1.8-1.2-3l0-32.7c0-1.1,0.4-2.2,1.2-3
							c0.8-0.8,1.8-1.2,3-1.2l21.3,0c1.1,0,2.2,0.4,3,1.2c0.8,0.8,1.2,1.8,1.2,3v32.7c0,2.3-1.9,4.2-4.2,4.2L1148.6,69.3
							C1148.7,69.3,1148.6,69.3,1148.6,69.3z M1170,29.4C1170,29.4,1170,29.4,1170,29.4l-21.3,0c-0.8,0-1.5,0.3-2.1,0.9
							s-0.9,1.3-0.9,2.1v32.7c0,0.8,0.3,1.5,0.9,2.1c0.5,0.5,1.3,0.9,2.1,0.9l21.3,0c1.6,0,2.9-1.3,2.9-2.9V32.3
							c0-0.8-0.3-1.5-0.9-2.1C1171.5,29.7,1170.8,29.4,1170,29.4z"/>
					</g>
				</g>
				<g>
					<g>
						<g>
							<path class="st3" d="M1121.2,68.9h-36.1c-2.7,0-4.9-2.2-4.9-4.9V35.9c0-2.7,2.2-4.9,4.9-4.9h36.1c2.7,0,4.9,2.2,4.9,4.9V64
								C1126.1,66.7,1123.9,68.9,1121.2,68.9z M1085.1,32.2c-2,0-3.7,1.6-3.7,3.7V64c0,2,1.6,3.7,3.7,3.7h36.1c2,0,3.7-1.6,3.7-3.7
								V35.9c0-2-1.6-3.7-3.7-3.7H1085.1z"/>
						</g>
					</g>
					<g>
						<g>
							<path class="st4" d="M1126.3,68.7H1080c-1.6,0-2.8-1.3-2.8-2.8V65h51.9v0.9C1129.1,67.4,1127.9,68.7,1126.3,68.7z"/>
						</g>
						<g>
							<path class="st3" d="M1126.2,69.3h-46c-2,0-3.6-1.6-3.6-3.6v-1.4h53.1v1.4C1129.7,67.7,1128.1,69.3,1126.2,69.3z
								 M1077.8,65.6v0.2c0,1.3,1.1,2.4,2.4,2.4h46c1.3,0,2.4-1.1,2.4-2.4v-0.2H1077.8z"/>
						</g>
					</g>
				</g>
				<g>
					<g>
						<path d="M1043.5,118c6.9-7,11.8-15.1,13.6-24.8c3.3-17.2-1.1-32.2-13.2-44.9c-0.2-0.2-0.3-0.4-0.4-0.5c-0.6,0-1.3,0-1.9,0
							c-1.6,1.7-0.6,3,0.6,4.4c10.1,11,13.9,23.9,11.6,38.6c-1.4,8.9-5.3,16.7-11.7,23.2c-1.3,1.3-2,2.6-0.5,4.2
							C1042.2,118,1042.9,118,1043.5,118z"/>
					</g>
					<g>
						<path d="M1047.7,83c-0.2-10.2-3.5-19-10.4-26.3c-1-1.1-2-2.3-3.5-0.9c-1.3,1.3-0.3,2.4,0.6,3.4c12.7,13.2,12.5,34.5-0.1,47.4
							c-1,1-1.9,2.1-0.5,3.4c1.4,1.2,2.4,0.1,3.3-0.9C1044.2,101.7,1047.5,92.9,1047.7,83z"/>
					</g>
					<g>
						<path d="M1037.4,82.9c-0.2-7.3-2.6-13.7-7.5-19c-1-1.1-2.1-1.9-3.4-0.7c-1.2,1.1-0.4,2.2,0.5,3.2c6.8,8.1,8.4,17,4.1,26.8
							c-1,2.3-2.9,4.2-4.2,6.4c-0.5,0.8-0.8,2.4-0.4,3c1,1.2,2.2,0.5,3.1-0.5C1034.9,96.6,1037.2,90.1,1037.4,82.9z"/>
					</g>
					<g>
						<path d="M1026.9,83.4c-0.2-5-1.5-8.9-4.5-12.3c-0.9-1-1.9-1.8-3.2-0.7c-1.2,1.1-0.5,2.2,0.3,3.2c4.8,5.8,4.8,12.6,0,18.3
							c-0.9,1-1.6,2.1-0.4,3.2c1.3,1.2,2.4,0.2,3.3-0.8C1025.3,91.4,1026.9,87,1026.9,83.4z"/>
					</g>
					<g>
						<path d="M1015.7,82.8c0-2.1-1.9-3.8-4-3.7c-2,0.1-3.6,1.8-3.6,3.8c0,2.1,1.8,3.8,3.9,3.7C1014,86.5,1015.7,84.8,1015.7,82.8z"
							/>
					</g>
				</g>
				<g>
					<g>
						<g>
							<path class="st2" d="M962.9,109.5c0.7,0,1.4-0.6,1.4-1.4c0-0.7-0.6-1.4-1.4-1.4l0,0h-65.8V58.9h10.6c0.7,0,1.4-0.6,1.4-1.4
								c0-0.7-0.6-1.4-1.4-1.4h-12c-0.7,0-1.4,0.6-1.4,1.4v50.6c0,0.7,0.6,1.4,1.4,1.4H962.9z"/>
						</g>
					</g>
					<g>
						<g>
							<path class="st2" d="M915.2,56.2c-0.7,0-1.4,0.6-1.4,1.4c0,0.7,0.6,1.4,1.4,1.4h70.7v47.8h-15.6c-0.7,0-1.4,0.6-1.4,1.4
								c0,0.7,0.6,1.4,1.4,1.4h17c0.7,0,1.4-0.6,1.4-1.4V57.5c0-0.7-0.6-1.4-1.4-1.4l0,0H915.2z"/>
						</g>
					</g>
					<g>
						<path class="st2" d="M941.5,93.9c6.1,0,11.1-5,11.1-11.1c0-6.1-5-11.1-11.1-11.1c-6.1,0-11.1,5-11.1,11.1
							C930.4,89,935.4,93.9,941.5,93.9L941.5,93.9z M941.5,74.1c4.8,0,8.8,3.9,8.8,8.8c0,4.8-3.9,8.8-8.8,8.8
							c-4.8,0-8.8-3.9-8.8-8.8C932.7,78,936.7,74.1,941.5,74.1L941.5,74.1z M941.5,74.1"/>
					</g>
					<g>
						<path class="st2" d="M930.1,101.8h41.2c0.7,0,1.4-0.6,1.4-1.4c0-3.4,3.4-6.7,6.9-6.7c0.7,0,1.4-0.6,1.4-1.4V73.3
							c0-0.7-0.6-1.4-1.4-1.4c-3.5,0-6.9-3.3-6.9-6.7c0-0.7-0.6-1.4-1.4-1.4H911c-0.7,0-1.4,0.6-1.4,1.4c0,3.6-2.9,6.8-6.2,6.8
							c-0.7,0-1.4,0.6-1.4,1.4v19c0,0.7,0.6,1.4,1.4,1.4c3.3,0,6.2,3.2,6.2,6.8c0,0.7,0.6,1.4,1.4,1.4h13.6c0.7,0,1.4-0.6,1.4-1.4
							c0-0.7-0.6-1.4-1.4-1.4h-12.4c-0.3-1.9-1.1-3.7-2.5-5.2c-1.4-1.5-3.1-2.5-5-2.8V74.5c1.9-0.3,3.6-1.3,5-2.8
							c1.3-1.5,2.2-3.3,2.5-5.2H970c0.7,3.9,4.2,7.3,8.2,8v16.6c-4,0.7-7.5,4.1-8.2,8h-40c-0.7,0-1.4,0.6-1.4,1.4
							C928.7,101.2,929.3,101.8,930.1,101.8L930.1,101.8z M930.1,101.8"/>
					</g>
				</g>
			</g>
		</g>
		<g>
			<g class="st5">
				<g>
					<g>
						<path class="st1" d="M329.7,455.6h-31.6c-0.4,0-0.7,0.3-0.7,0.7c0,0.4,0.3,0.7,0.7,0.7h31.6c1.7,0,3.1,1.4,3.1,3.1v25.4
							c0,1.7-1.4,3.1-3.1,3.1h-38.9c-1.7,0-3.1-1.4-3.1-3.1v-25.4c0-1.7,1.4-3.1,3.1-3.1h4.4c0.4,0,0.7-0.3,0.7-0.7
							c0-0.4-0.3-0.7-0.7-0.7h-4.4c-2.5,0-4.6,2-4.6,4.6v25.4c0,2.5,2,4.6,4.6,4.6h11.5l-1.4,4.6h-2.6c-1.3,0-2.4,1.1-2.4,2.4
							c0,1.3,1.1,2.4,2.4,2.4h24c1.3,0,2.4-1.1,2.4-2.4c0-1.3-1.1-2.4-2.4-2.4h-2.6l-1.4-4.6h11.5c2.5,0,4.6-2,4.6-4.6v-25.4
							C334.3,457.6,332.2,455.6,329.7,455.6L329.7,455.6z M323.3,497.1c0,0.6-0.4,1-1,1h-24c-0.6,0-1-0.4-1-1c0-0.6,0.4-1,1-1h24
							C322.8,496.1,323.3,496.5,323.3,497.1L323.3,497.1z M318.2,494.6h-15.8l1.4-4.6h13L318.2,494.6z M318.2,494.6"/>
					</g>
					<g>
						<path class="st1" d="M329.8,478.8c0.4,0,0.7-0.3,0.7-0.7v-17.9c0-0.4-0.3-0.8-0.8-0.8h-38.9c-0.4,0-0.8,0.3-0.8,0.8v23.2
							c0,0.4,0.3,0.7,0.7,0.7h39c0.4,0,0.7-0.3,0.7-0.7v-2.5c0-0.4-0.3-0.7-0.7-0.7c-0.4,0-0.7,0.3-0.7,0.7v1.7h-37.6v-21.9h37.6
							v17.3C329.1,478.4,329.4,478.8,329.8,478.8L329.8,478.8z M329.8,478.8"/>
					</g>
					<g>
						<path class="st1" d="M310.9,485.8c-0.2-0.2-0.5-0.4-0.7-0.3c-0.3,0.1-0.5,0.3-0.6,0.6c-0.1,0.6,0.7,1,1.2,0.6
							C311,486.5,311.1,486.1,310.9,485.8L310.9,485.8z M310.9,485.8"/>
					</g>
				</g>
				<g>
					<g>
						<g>
							<path class="st2" d="M375,498.6h-18.6c-1.1,0-2-0.9-2-2v-2.2H377v2.2C377,497.7,376.1,498.6,375,498.6z"/>
						</g>
					</g>
					<g>
						<g>
							<path class="st2" d="M374.5,456.5H357c-1.4,0-2.5,1.1-2.5,2.5v4.4H377V459C377,457.6,375.9,456.5,374.5,456.5z"/>
						</g>
					</g>
					<g>
						<g>
							<path class="st2" d="M373.8,499.5h-16.1c-2.3,0-4.1-1.8-4.1-4.1v-35.8c0-2.3,1.8-4.1,4.1-4.1h16.1c2.3,0,4.1,1.8,4.1,4.1
								v35.8C377.9,497.7,376.1,499.5,373.8,499.5z M357.7,457.2c-1.3,0-2.4,1.1-2.4,2.4v35.8c0,1.3,1.1,2.4,2.4,2.4h16.1
								c1.3,0,2.4-1.1,2.4-2.4v-35.8c0-1.3-1.1-2.4-2.4-2.4H357.7z"/>
						</g>
					</g>
				</g>
				<g>
					<g>
						<path class="st1" d="M377.7,433.4h-23.9c-1.2,0-2.1-1-2.1-2.1v-1.8h28.1v1.8C379.8,432.4,378.9,433.4,377.7,433.4z"/>
					</g>
					<g>
						<path class="st1" d="M355.1,434.1c-1.1,0-2.1-0.5-2.9-1.2c-0.8-0.8-1.2-1.8-1.2-3l0-32.7c0-1.1,0.4-2.2,1.2-3
							c0.8-0.8,1.8-1.2,3-1.2l21.3,0c1.1,0,2.2,0.4,3,1.2c0.8,0.8,1.2,1.8,1.2,3l0,32.7c0,2.3-1.9,4.2-4.2,4.2L355.1,434.1
							C355.1,434.1,355.1,434.1,355.1,434.1z M376.4,394.3C376.4,394.3,376.4,394.3,376.4,394.3l-21.3,0c-0.8,0-1.5,0.3-2.1,0.9
							c-0.5,0.5-0.9,1.3-0.9,2.1l0,32.7c0,0.8,0.3,1.5,0.9,2.1s1.3,0.9,2.1,0.9l21.3,0c1.6,0,2.9-1.3,2.9-2.9l0-32.7
							c0-0.8-0.3-1.5-0.9-2.1C377.9,394.6,377.2,394.3,376.4,394.3z"/>
					</g>
				</g>
				<g>
					<g>
						<g>
							<path class="st3" d="M327.7,433.8h-36.1c-2.7,0-4.9-2.2-4.9-4.9v-28.2c0-2.7,2.2-4.9,4.9-4.9h36.1c2.7,0,4.9,2.2,4.9,4.9
								v28.2C332.5,431.6,330.3,433.8,327.7,433.8z M291.5,397c-2,0-3.7,1.6-3.7,3.7v28.2c0,2,1.6,3.7,3.7,3.7h36.1
								c2,0,3.7-1.6,3.7-3.7v-28.2c0-2-1.6-3.7-3.7-3.7H291.5z"/>
						</g>
					</g>
					<g>
						<g>
							<path class="st4" d="M332.7,433.5h-46.3c-1.6,0-2.8-1.3-2.8-2.8v-0.9h51.9v0.9C335.5,432.3,334.3,433.5,332.7,433.5z"/>
						</g>
						<g>
							<path class="st3" d="M332.6,434.1h-46c-2,0-3.6-1.6-3.6-3.6v-1.4h53.1v1.4C336.2,432.5,334.6,434.1,332.6,434.1z
								 M284.2,430.4v0.2c0,1.3,1.1,2.4,2.4,2.4h46c1.3,0,2.4-1.1,2.4-2.4v-0.2H284.2z"/>
						</g>
					</g>
				</g>
				<g>
					<g>
						<path d="M249.9,482.8c6.9-7,11.8-15.1,13.6-24.8c3.3-17.2-1.1-32.2-13.2-44.9c-0.2-0.2-0.3-0.4-0.4-0.5c-0.6,0-1.2,0-1.9,0
							c-1.6,1.7-0.6,3,0.6,4.4c10.1,11,13.9,23.9,11.6,38.6c-1.4,8.9-5.3,16.7-11.7,23.2c-1.3,1.3-2,2.6-0.5,4.2
							C248.7,482.8,249.3,482.8,249.9,482.8z"/>
					</g>
					<g>
						<path d="M254.1,447.9c-0.2-10.2-3.5-19-10.4-26.3c-1-1.1-2-2.3-3.5-0.9c-1.3,1.3-0.3,2.4,0.6,3.4
							c12.7,13.2,12.5,34.5-0.1,47.4c-1,1-1.9,2.1-0.5,3.4c1.4,1.2,2.4,0.1,3.3-0.9C250.6,466.6,254,457.7,254.1,447.9z"/>
					</g>
					<g>
						<path d="M243.9,447.7c-0.2-7.3-2.6-13.7-7.5-19c-1-1.1-2.1-1.9-3.4-0.7c-1.2,1.1-0.4,2.2,0.5,3.2c6.8,8.1,8.4,17,4.1,26.8
							c-1,2.3-2.9,4.2-4.2,6.4c-0.5,0.8-0.8,2.4-0.4,3c1,1.2,2.2,0.5,3.1-0.5C241.3,461.5,243.7,455,243.9,447.7z"/>
					</g>
					<g>
						<path d="M233.4,448.2c-0.2-5-1.5-8.9-4.5-12.3c-0.9-1-1.9-1.8-3.2-0.7c-1.2,1.1-0.5,2.2,0.3,3.2c4.8,5.8,4.8,12.6,0,18.3
							c-0.9,1-1.6,2.1-0.4,3.2c1.3,1.2,2.4,0.2,3.3-0.8C231.7,456.2,233.4,451.9,233.4,448.2z"/>
					</g>
					<g>
						<path d="M222.1,447.6c0-2.1-1.9-3.8-4-3.7c-2,0.1-3.6,1.8-3.6,3.8c0,2.1,1.8,3.8,3.9,3.7C220.5,451.4,222.1,449.6,222.1,447.6
							z"/>
					</g>
				</g>
				<g>
					<g>
						<path class="st6" d="M170.3,473.3c0.7,0,1.4-0.6,1.4-1.4c0-0.7-0.6-1.4-1.4-1.4l0,0h-65.8v-45.8h10.6c0.7,0,1.4-0.6,1.4-1.4
							c0-0.7-0.6-1.4-1.4-1.4h-12c-0.7,0-1.4,0.6-1.4,1.4v48.6c0,0.7,0.6,1.4,1.4,1.4H170.3z"/>
					</g>
					<g>
						<path class="st6" d="M120.6,422c-0.7,0-1.4,0.6-1.4,1.4c0,0.7,0.6,1.4,1.4,1.4h70.7v45.8h-15.6c-0.7,0-1.4,0.6-1.4,1.4
							c0,0.7,0.6,1.4,1.4,1.4h17c0.7,0,1.4-0.6,1.4-1.4v-48.6c0-0.7-0.6-1.4-1.4-1.4l0,0H120.6z"/>
					</g>
					<g>
						<path class="st2" d="M147.9,458.8c6.1,0,11.1-5,11.1-11.1c0-6.1-5-11.1-11.1-11.1c-6.1,0-11.1,5-11.1,11.1
							C136.9,453.8,141.8,458.8,147.9,458.8L147.9,458.8z M147.9,438.9c4.8,0,8.8,3.9,8.8,8.8c0,4.8-3.9,8.8-8.8,8.8
							c-4.8,0-8.8-3.9-8.8-8.8C139.2,442.9,143.1,438.9,147.9,438.9L147.9,438.9z M147.9,438.9"/>
					</g>
					<g>
						<path class="st6" d="M136.5,466.7h41.2c0.7,0,1.4-0.6,1.4-1.4c0-3.4,3.4-6.7,6.9-6.7c0.7,0,1.4-0.6,1.4-1.4v-19.1
							c0-0.7-0.6-1.4-1.4-1.4c-3.5,0-6.9-3.3-6.9-6.7c0-0.7-0.6-1.4-1.4-1.4h-60.2c-0.7,0-1.4,0.6-1.4,1.4c0,3.6-2.9,6.8-6.2,6.8
							c-0.7,0-1.4,0.6-1.4,1.4v19c0,0.7,0.6,1.4,1.4,1.4c3.3,0,6.2,3.2,6.2,6.8c0,0.7,0.6,1.4,1.4,1.4h13.6c0.7,0,1.4-0.6,1.4-1.4
							c0-0.7-0.6-1.4-1.4-1.4h-12.4c-0.3-1.9-1.1-3.7-2.5-5.2c-1.4-1.5-3.1-2.5-5-2.8v-16.6c1.9-0.3,3.6-1.3,5-2.8
							c1.3-1.5,2.2-3.3,2.5-5.2h57.7c0.7,3.9,4.2,7.3,8.2,8V456c-4,0.7-7.5,4.1-8.2,8h-40c-0.7,0-1.4,0.6-1.4,1.4
							C135.1,466.1,135.8,466.7,136.5,466.7L136.5,466.7z M136.5,466.7"/>
					</g>
				</g>
			</g>
			<g>
				<g>
					<path class="st7" d="M240.8,396.2c-16.2,0-29.3-13.1-29.4-29.3s13.1-29.3,29.3-29.4c16.2,0,29.3,13.1,29.4,29.3
						C270.1,383,257,396.2,240.8,396.2z M240.7,339.9c-14.9,0-27,12.1-27,27.1c0,14.9,12.1,27,27.1,27c14.9,0,27-12.1,27-27.1
						C267.8,352,255.6,339.9,240.7,339.9z"/>
				</g>
				<g>
					<path class="st7" d="M236,378.2c-0.1,0-0.1,0-0.2,0c-0.3,0-0.6-0.2-0.8-0.4l-7.5-9.4c-0.4-0.5-0.3-1.2,0.2-1.6
						c0.5-0.4,1.2-0.3,1.6,0.2l6.7,8.4l20.1-20.3c0.4-0.5,1.2-0.5,1.6,0c0.5,0.4,0.5,1.2,0,1.6l-21,21.2
						C236.5,378.1,236.2,378.2,236,378.2z"/>
				</g>
			</g>
		</g>
		<g>
			<g>
				<g>
					<g>
						<path class="st1" d="M1350.3,434.8c-0.5,5.4-3,10.2-7.2,13.6c-3.6,3-8.2,4.7-12.9,4.7s-9.3-1.7-12.9-4.7
							c-0.2-0.1-0.3-0.4-0.3-0.6c0-0.2,0-0.5,0.2-0.6c0.3-0.4,0.9-0.4,1.2-0.1c3.8,3.1,8.5,4.6,13.4,4.2c4.9-0.4,9.3-2.8,12.5-6.5
							c3.1-3.8,4.6-8.5,4.2-13.4c-0.4-4.9-2.8-9.3-6.5-12.5c-3.8-3.1-8.5-4.6-13.4-4.2c-4.9,0.4-9.3,2.8-12.5,6.5
							c-5.7,6.8-5.7,16.7,0,23.5c0.3,0.4,0.3,0.9-0.1,1.2c-0.2,0.1-0.4,0.2-0.6,0.2c-0.2,0-0.4-0.1-0.6-0.3
							c-3.4-4.1-5.1-9.4-4.6-14.7c0.5-5.4,3-10.2,7.2-13.6c4.1-3.4,9.4-5.1,14.7-4.6c5.4,0.5,10.2,3,13.6,7.2
							C1349.2,424.2,1350.8,429.5,1350.3,434.8z"/>
					</g>
					<g>
						<path class="st3" d="M1326,408.4c0.7-0.1,1.4-0.2,2.1-0.3C1327.4,408.2,1326.7,408.3,1326,408.4z"/>
						<path class="st3" d="M1334.6,408.4c-0.7-0.1-1.4-0.2-2.1-0.3C1333.1,408.2,1333.9,408.3,1334.6,408.4z"/>
						<path class="st3" d="M1332.4,408.1c0.7,0.1,1.4,0.2,2.1,0.3C1333.9,408.3,1333.1,408.2,1332.4,408.1z M1328.1,408.1
							c-0.7,0.1-1.4,0.2-2.1,0.3C1326.7,408.3,1327.4,408.2,1328.1,408.1z"/>
						<path class="st3" d="M1346.6,414c-4.5-3.9-10.3-6-16.3-6s-11.8,2.1-16.3,6c0,0,0,0-0.1,0.1c-0.2,0.2-0.3,0.4-0.3,0.6
							c0,0.2,0.1,0.5,0.2,0.6c0.2,0.2,0.4,0.3,0.6,0.3h0c0.2,0,0.4-0.1,0.6-0.2c8.8-7.5,21.5-7.5,30.3,0c0.2,0.1,0.4,0.2,0.6,0.2
							c0,0,0,0,0,0c0.2,0,0.5-0.1,0.7-0.3c0.2-0.2,0.2-0.4,0.2-0.6C1346.8,414.4,1346.7,414.2,1346.6,414z M1334.6,408.4
							c-0.7-0.1-1.4-0.2-2.1-0.3C1333.1,408.2,1333.9,408.3,1334.6,408.4z M1328.1,408.1c-0.7,0.1-1.4,0.2-2.1,0.3
							C1326.7,408.3,1327.4,408.2,1328.1,408.1z"/>
					</g>
					<g>
						<path class="st1" d="M1346.5,452c-4.5,3.9-10.3,6-16.2,6c0,0,0,0,0,0c-6.7,0-13-2.6-17.7-7.3c-4.7-4.7-7.3-11-7.3-17.7
							c0-6,2.1-11.8,6-16.3c0.2-0.2,0.4-0.3,0.6-0.3h0c0.2,0,0.4,0.1,0.6,0.2c0.3,0.3,0.4,0.8,0.1,1.2c-8.3,9.7-7.2,24.4,2.5,32.8
							c4.7,4,10.7,6,16.9,5.5c6.2-0.5,11.8-3.3,15.9-8c7.5-8.8,7.5-21.5,0-30.2c-0.3-0.4-0.3-0.9,0.1-1.2c0.2-0.2,0.4-0.2,0.6-0.2
							c0.2,0,0.5,0.1,0.6,0.3C1358.2,427.2,1357,443,1346.5,452z"/>
					</g>
				</g>
				<g>
					<g>
						<path class="st1" d="M1335.3,433c2-1.4,2.7-4.2,1.4-6.4c-0.9-1.4-2.4-2.3-4.1-2.3h0.2v-2h-1.7v2h-2.9v-2h-1.7v2h-3.3v1.7h2v14
							h-2v1.7h3.3v2h1.7v-2h2.9v2h1.7v-2h-0.2c1.3,0,2.5-0.5,3.4-1.4c0.9-0.9,1.4-2.1,1.4-3.4C1337.3,435.3,1336.5,433.9,1335.3,433
							z M1332.5,440h-5.7v-6.1h5.7c1.7,0,3.1,1.4,3.1,3.1C1335.6,438.6,1334.2,440,1332.5,440z M1326.8,426h5.7
							c1.7,0,3.1,1.4,3.1,3.1c0,1.7-1.4,3.1-3.1,3.1h-5.7V426z"/>
					</g>
				</g>
			</g>
			<g>
				<g>
					<path class="st8" d="M1397,377.5h-108.6c-1.4,0-2.5,1.1-2.5,2.5c0,1.4,1.1,2.5,2.5,2.5H1397c6,0,10.8,4.8,10.8,10.8v87.2
						c0,6-4.8,10.8-10.8,10.8h-133.5c-6,0-10.8-4.8-10.8-10.8v-87.2c0-5.9,4.8-10.8,10.8-10.8h15.2c1.4,0,2.5-1.1,2.5-2.5
						c0-1.4-1.1-2.5-2.5-2.5h-15.2c-8.7,0-15.7,7-15.7,15.7v87.2c0,8.7,7,15.7,15.7,15.7h39.4l-4.8,15.7h-9c-4.6,0-8.3,3.7-8.3,8.3
						s3.7,8.3,8.3,8.3h82.3c4.6,0,8.3-3.7,8.3-8.3s-3.7-8.3-8.3-8.3h-9l-4.8-15.7h39.4c8.7,0,15.7-7,15.7-15.7v-87.2
						C1412.7,384.5,1405.7,377.5,1397,377.5z M1375.6,520c0,2.3-1.9,4.2-4.2,4.2h-82.3c-2.3,0-4.2-1.9-4.2-4.2
						c0-2.3,1.9-4.2,4.2-4.2h82.3C1373.7,515.8,1375.6,517.7,1375.6,520z M1303.2,511.7l4.8-15.7h44.5l4.8,15.7H1303.2z"/>
				</g>
				<g>
					<path class="st8" d="M1394.7,454.7v-59.3h-129v75.1h129v-6c0-1.4,1.1-2.5,2.4-2.5c1.4,0,2.5,1.1,2.5,2.5v8.4
						c0,1.4-1.1,2.5-2.5,2.5h-133.9c-1.4,0-2.4-1.1-2.4-2.5v-79.8c0-1.5,1.2-2.6,2.6-2.6H1397c1.5,0,2.6,1.2,2.6,2.6v61.6
						c0,1.4-1.1,2.5-2.5,2.5C1395.8,457.2,1394.7,456.1,1394.7,454.7z"/>
				</g>
				<g>
					<path class="st9" d="M1332.9,481.1c-0.7-1.1-2-1.6-3.3-1.4c-1.4,0.3-2.4,1.4-2.5,2.8c-0.1,1.3,0.6,2.6,1.8,3.1
						c0.5,0.2,0.9,0.3,1.4,0.3c0.8,0,1.6-0.3,2.2-0.9C1333.6,484.1,1333.7,482.4,1332.9,481.1z M1331.9,484.6
						c-1.6,1.5-4.3,0.2-4.1-2c0.1-1.1,0.9-2,2-2.2c1-0.2,2,0.2,2.5,1.1C1332.9,482.4,1332.8,483.8,1331.9,484.6z"/>
					<path class="st2" d="M1331.9,484.6c-1.6,1.5-4.3,0.2-4.1-2c0.1-1.1,0.9-2,2-2.2c1-0.2,2,0.2,2.5,1.1
						C1332.9,482.4,1332.8,483.8,1331.9,484.6z"/>
				</g>
			</g>
		</g>
		<g>
			<g>
				<g>
					<path class="st8" d="M660.6,127.2c1.4,0,2.6-1.2,2.6-2.6c0-1.4-1.2-2.6-2.6-2.6l0,0H533.1V33.1h20.6c1.4,0,2.6-1.2,2.6-2.6
						c0-1.4-1.2-2.6-2.6-2.6h-23.3c-1.4,0-2.6,1.2-2.6,2.6v94.1c0,1.4,1.2,2.6,2.6,2.6H660.6z"/>
				</g>
				<g>
					<path class="st8" d="M564.2,27.9c-1.4,0-2.6,1.2-2.6,2.6c0,1.4,1.2,2.6,2.6,2.6h137.1V122h-30.3c-1.4,0-2.6,1.2-2.6,2.6
						c0,1.4,1.2,2.6,2.6,2.6h32.9c1.4,0,2.6-1.2,2.6-2.6V30.5c0-1.4-1.2-2.6-2.6-2.6l0,0H564.2z"/>
				</g>
				<g>
					<path class="st10" d="M617.2,99.1c11.9,0,21.5-9.6,21.5-21.5c0-11.9-9.6-21.5-21.5-21.5c-11.9,0-21.5,9.6-21.5,21.5
						C595.7,89.4,605.4,99.1,617.2,99.1L617.2,99.1z M617.2,60.6c9.4,0,17,7.6,17,17c0,9.4-7.6,17-17,17c-9.4,0-17-7.6-17-17
						C600.2,68.2,607.8,60.6,617.2,60.6L617.2,60.6z M617.2,60.6"/>
				</g>
				<g>
					<path class="st8" d="M595,114.4h79.9c1.4,0,2.6-1.2,2.6-2.6c0-6.6,6.7-13.1,13.4-13.1c1.4,0,2.6-1.2,2.6-2.6V59
						c0-1.4-1.2-2.6-2.6-2.6c-6.8,0-13.4-6.5-13.4-13.1c0-1.4-1.2-2.6-2.6-2.6H558.1c-1.4,0-2.6,1.2-2.6,2.6c0,7-5.6,13.1-12,13.1
						c-1.4,0-2.6,1.2-2.6,2.6V96c0,1.4,1.2,2.6,2.6,2.6c6.4,0,12,6.1,12,13.1c0,1.4,1.2,2.6,2.6,2.6h26.4c1.4,0,2.6-1.2,2.6-2.6
						c0-1.4-1.2-2.6-2.6-2.6h-24c-0.5-3.7-2.2-7.2-4.8-10.1c-2.7-3-6.1-4.9-9.7-5.5V61.5c3.6-0.6,7-2.5,9.7-5.5
						c2.5-2.8,4.2-6.4,4.8-10.1h111.9c1.3,7.5,8.1,14.2,15.8,15.5v32.2c-7.7,1.3-14.5,7.9-15.8,15.5H595c-1.4,0-2.6,1.2-2.6,2.6
						C592.4,113.2,593.6,114.4,595,114.4L595,114.4z M595,114.4"/>
				</g>
			</g>
		</g>
		<g>
			<g>
				<g>
					<g>
						<path class="st11" d="M318.7,2.9H210.2c-1.4,0-2.5,1.1-2.5,2.5c0,1.4,1.1,2.5,2.5,2.5h108.6c6,0,10.8,4.8,10.8,10.8v87.2
							c0,6-4.8,10.8-10.8,10.8H185.2c-6,0-10.8-4.8-10.8-10.8V18.6c0-5.9,4.8-10.8,10.8-10.8h15.2c1.4,0,2.4-1.1,2.4-2.5
							c0-1.4-1.1-2.5-2.4-2.5h-15.2c-8.7,0-15.7,7-15.7,15.7v87.2c0,8.7,7,15.7,15.7,15.7h39.4l-4.8,15.7h-9c-4.6,0-8.3,3.7-8.3,8.3
							c0,4.6,3.7,8.3,8.3,8.3h82.3c4.6,0,8.3-3.7,8.3-8.3c0-4.6-3.7-8.3-8.3-8.3h-9l-4.8-15.7h39.4c8.7,0,15.7-7,15.7-15.7V18.6
							C334.4,9.9,327.4,2.9,318.7,2.9z M297.3,145.4c0,2.3-1.9,4.2-4.2,4.2h-82.3c-2.3,0-4.2-1.9-4.2-4.2c0-2.3,1.9-4.2,4.2-4.2
							h82.3C295.4,141.2,297.3,143.1,297.3,145.4z M224.9,137.1l4.8-15.7h44.5l4.8,15.7H224.9z"/>
					</g>
					<g>
						<path class="st11" d="M316.5,80.1V20.8h-129v75.1h129v-6c0-1.4,1.1-2.5,2.4-2.5c1.4,0,2.5,1.1,2.5,2.5v8.4
							c0,1.4-1.1,2.5-2.5,2.5H185c-1.4,0-2.4-1.1-2.4-2.5V18.6c0-1.5,1.2-2.6,2.6-2.6h133.5c1.5,0,2.6,1.2,2.6,2.6v61.6
							c0,1.4-1.1,2.5-2.5,2.5C317.5,82.6,316.5,81.5,316.5,80.1z"/>
					</g>
					<g>
						<path class="st2" d="M254.2,110.5c-0.6,0.6-1.4,0.9-2.2,0.9c-0.5,0-1-0.1-1.4-0.3c-1.2-0.6-1.9-1.8-1.8-3.1
							c0.1-1.4,1.2-2.5,2.5-2.8c1.3-0.3,2.6,0.3,3.3,1.4C255.5,107.7,255.3,109.5,254.2,110.5z"/>
					</g>
				</g>
				<g>
					<g>
						<path class="st3" d="M276,40.9h-48.2c-2.6,0-4.6,2.1-4.6,4.6v28.9c0,2.6,2.1,4.6,4.6,4.6H276c2.6,0,4.6-2.1,4.6-4.6V45.5
							C280.7,42.9,278.6,40.9,276,40.9L276,40.9z M278.7,74.4c0,0.7-0.3,1.4-0.8,1.9c-0.5,0.5-1.2,0.8-1.9,0.8h-48.2
							c-0.7,0-1.4-0.3-1.9-0.8c-0.5-0.5-0.8-1.2-0.8-1.9v-1h53.5V74.4z M278.7,71.5h-53.5v-5.1h53.5V71.5z M278.7,64.4h-53.5v-19
							c0-0.7,0.3-1.4,0.8-1.9c0.5-0.5,1.2-0.8,1.9-0.8H276c0.7,0,1.4,0.3,1.9,0.8c0.5,0.5,0.8,1.2,0.8,1.9V64.4z M278.7,64.4"/>
					</g>
					<g>
						<path class="st3" d="M268.6,48.7c-1,0-2,0.4-2.8,1.1c-0.8-0.7-1.8-1.1-2.8-1.1c-2.4,0-4.3,2-4.3,4.6c0,2.5,1.9,4.6,4.3,4.6
							c1,0,2-0.4,2.8-1.1c0.8,0.7,1.8,1.1,2.8,1.1c2.4,0,4.3-2,4.3-4.6C273,50.7,271,48.7,268.6,48.7L268.6,48.7z M264.7,55.1
							c-0.4,0.5-1,0.7-1.7,0.8c-1.3,0-2.4-1.2-2.4-2.6c0-1.4,1.1-2.6,2.4-2.6c0.6,0,1.2,0.3,1.7,0.8
							C264.2,52.6,264.2,53.9,264.7,55.1L264.7,55.1z M268.6,55.8c-0.6,0-1.2-0.3-1.7-0.8c0.5-1.2,0.5-2.5,0-3.7
							c0.4-0.5,1-0.7,1.7-0.8c1.3,0,2.4,1.2,2.4,2.6C271,54.7,269.9,55.8,268.6,55.8L268.6,55.8z M268.6,55.8"/>
					</g>
					<g>
						<path class="st3" d="M243.8,50h-12.9c-0.5,0-1,0.4-1,1v4.6c0,0.5,0.4,1,1,1h12.9c0.5,0,1-0.4,1-1v-4.6
							C244.8,50.4,244.4,50,243.8,50L243.8,50z M242.8,54.6h-10.9v-2.7h10.9V54.6z M242.8,54.6"/>
					</g>
				</g>
			</g>
		</g>
		<g>
			<line class="st12" x1="363.9" y1="81.4" x2="495.2" y2="81.4"/>
			<polyline class="st0" points="481.4,63.7 499.1,81.4 481.4,99.1 			"/>
		</g>
		<g>
			<line class="st12" x1="410.2" y1="447.1" x2="541.8" y2="447.1"/>
			<polyline class="st0" points="528,429.4 545.7,447.1 528,464.8 			"/>
		</g>
		<g>
			<g>
				<g>
					<path class="st11" d="M994.8,478.8H879.1v-80.7h18.7c1.3,0,2.4-1.1,2.4-2.4c0-1.3-1.1-2.4-2.4-2.4h-21.1
						c-1.3,0-2.4,1.1-2.4,2.4v85.5c0,1.3,1.1,2.4,2.4,2.4h20.7l8.9,19.1c0.5,1.2,2,1.7,3.2,1.2l8.7-4l26.3,18.8
						c1.1,0.8,2.6,0.5,3.3-0.6l24.6-34.5h22.5c1.3,0,2.4-1.1,2.4-2.4C997.2,479.9,996.2,478.8,994.8,478.8z M909.6,498.6l-6.9-15
						h39.2L909.6,498.6z M945.3,513.4l-22.2-15.8l30.1-14h13.4L945.3,513.4z"/>
				</g>
				<g>
					<path class="st11" d="M1034.2,393.4h-20.7l-8.9-19.1c-0.6-1.2-2-1.7-3.2-1.2l-8.7,4l-26.3-18.8c-1.1-0.8-2.6-0.5-3.3,0.6
						l-24.6,34.5h-31.2c-1.3,0-2.4,1.1-2.4,2.4c0,1.3,1.1,2.4,2.4,2.4h124.5v80.7h-27.5c-1.3,0-2.4,1.1-2.4,2.4
						c0,1.3,1.1,2.4,2.4,2.4h29.9c1.3,0,2.4-1.1,2.4-2.4v-85.5C1036.6,394.4,1035.6,393.4,1034.2,393.4z M969.1,393.4l32.3-15
						l6.9,15H969.1z M944.4,393.4l21.2-29.8l22.2,15.8l-30.1,14H944.4z"/>
				</g>
				<g>
					<path class="st11" d="M955.5,419c-10.8,0-19.5,8.8-19.5,19.5c0,10.8,8.8,19.5,19.5,19.5c10.8,0,19.5-8.8,19.5-19.5
						C975,427.7,966.2,419,955.5,419z M955.5,454c-8.5,0-15.4-6.9-15.4-15.4s6.9-15.4,15.4-15.4c8.5,0,15.4,6.9,15.4,15.4
						S964,454,955.5,454z"/>
				</g>
				<g>
					<path class="st11" d="M1024.8,421.7v33.6c0,1.3-1.1,2.4-2.4,2.4c-6.2,0-12.2,5.9-12.2,11.9c0,1.3-1.1,2.4-2.4,2.4h-72.5
						c-1.3,0-2.4-1.1-2.4-2.4c0-1.3,1.1-2.4,2.4-2.4h70.4c1.2-6.8,7.4-12.9,14.4-14.1v-29.3c-7-1.2-13.2-7.2-14.4-14.1H904
						c-0.5,3.3-2,6.6-4.3,9.1c-2.4,2.7-5.5,4.4-8.8,5v29.2c3.3,0.6,6.4,2.3,8.8,5c2.3,2.6,3.8,5.8,4.3,9.1h21.8
						c1.3,0,2.4,1.1,2.4,2.4c0,1.3-1.1,2.4-2.4,2.4h-24c-1.3,0-2.4-1.1-2.4-2.4c0-6.4-5.1-11.9-10.9-11.9c-1.3,0-2.4-1.1-2.4-2.4
						v-33.5c0-1.3,1.1-2.4,2.4-2.4c5.8,0,10.9-5.6,10.9-11.9c0-1.3,1.1-2.4,2.4-2.4h106c1.3,0,2.4,1.1,2.4,2.4
						c0,6,6.1,11.9,12.2,11.9C1023.7,419.3,1024.8,420.3,1024.8,421.7z"/>
				</g>
			</g>
			<g>
				<g>
					<g>
						<g>
							<path class="st3" d="M635.1,474c-0.6,6.7-3.8,12.7-8.9,16.9c-4.5,3.7-10.2,5.8-16,5.8c-5.8,0-11.5-2.1-16-5.8
								c-0.2-0.2-0.4-0.4-0.4-0.7c0-0.3,0.1-0.6,0.3-0.8c0.4-0.5,1.1-0.5,1.5-0.1c4.7,3.9,10.6,5.8,16.7,5.2
								c6.1-0.6,11.6-3.4,15.5-8.1c3.9-4.7,5.8-10.6,5.2-16.7c-0.6-6.1-3.4-11.6-8.1-15.5c-4.7-3.9-10.6-5.8-16.7-5.2
								c-6.1,0.6-11.6,3.4-15.5,8.1c-7.1,8.5-7.1,20.8,0,29.3c0.4,0.5,0.3,1.2-0.1,1.5c-0.2,0.2-0.5,0.3-0.8,0.3
								c-0.3,0-0.6-0.2-0.7-0.4c-4.3-5.1-6.3-11.6-5.7-18.3c0.6-6.7,3.8-12.7,8.9-17c5.1-4.3,11.6-6.3,18.3-5.7
								c6.7,0.6,12.7,3.8,16.9,8.9C633.7,460.9,635.7,467.4,635.1,474z"/>
						</g>
						<g>
							<path class="st3" d="M604.9,441.2c0.9-0.2,1.8-0.3,2.7-0.4C606.7,440.9,605.8,441,604.9,441.2z"/>
							<path class="st3" d="M615.6,441.2c-0.9-0.2-1.8-0.3-2.7-0.4C613.8,440.9,614.7,441,615.6,441.2z"/>
							<path class="st3" d="M612.9,440.9c0.9,0.1,1.8,0.2,2.7,0.4C614.7,441,613.8,440.9,612.9,440.9z M607.5,440.9
								c-0.9,0.1-1.8,0.2-2.7,0.4C605.8,441,606.7,440.9,607.5,440.9z"/>
							<path class="st3" d="M630.5,448.2c-5.6-4.8-12.8-7.5-20.2-7.5c-7.4,0-14.6,2.7-20.2,7.5c0,0-0.1,0-0.1,0.1
								c-0.2,0.2-0.3,0.5-0.3,0.8c0,0.3,0.1,0.6,0.3,0.8c0.2,0.2,0.5,0.3,0.8,0.3h0c0.3,0,0.6-0.1,0.8-0.3c10.9-9.4,26.7-9.4,37.6,0
								c0.2,0.2,0.5,0.3,0.7,0.3c0,0,0,0,0,0c0.3,0,0.6-0.1,0.8-0.4c0.2-0.2,0.3-0.5,0.3-0.8C630.8,448.6,630.7,448.4,630.5,448.2z
								 M615.6,441.2c-0.9-0.2-1.8-0.3-2.7-0.4C613.8,440.9,614.7,441,615.6,441.2z M607.5,440.9c-0.9,0.1-1.8,0.2-2.7,0.4
								C605.8,441,606.7,440.9,607.5,440.9z"/>
						</g>
						<g>
							<path class="st3" d="M630.4,495.4c-5.6,4.8-12.8,7.5-20.2,7.5c0,0,0,0,0,0c-8.3,0-16.1-3.2-22-9.1c-5.9-5.9-9.1-13.7-9.1-22
								c0-7.4,2.7-14.6,7.5-20.2c0.2-0.2,0.5-0.3,0.8-0.4h0c0.3,0,0.6,0.1,0.8,0.3c0.4,0.4,0.5,1,0.1,1.5
								c-10.4,12.1-9,30.4,3.1,40.7c5.9,5,13.3,7.5,21,6.9c7.7-0.6,14.7-4.1,19.7-10c9.3-10.9,9.4-26.7,0-37.6
								c-0.4-0.5-0.3-1.2,0.1-1.6c0.2-0.2,0.5-0.3,0.8-0.3c0.3,0,0.6,0.2,0.8,0.4C645,464.6,643.4,484.2,630.4,495.4z"/>
						</g>
					</g>
					<g>
						<g>
							<path class="st3" d="M616.8,473.8c-0.5-0.8-1.3-1.5-2.1-2c-0.8-0.5-1.9-0.9-3.2-1.3v-8.3c0.8,0.1,1.6,0.3,2.3,0.7
								c0.8,0.4,1.4,0.9,1.8,1.5c0.2,0.2,0.4,0.3,0.6,0.3c0.3,0,0.5-0.1,0.8-0.3c0.2-0.2,0.3-0.5,0.3-0.7c0-0.3-0.2-0.6-0.5-1
								c-0.6-0.7-1.4-1.3-2.4-1.7c-0.9-0.4-2-0.7-3-0.8v-2.3c0-0.3-0.1-0.6-0.3-0.8c-0.2-0.2-0.4-0.3-0.7-0.3
								c-0.3,0-0.6,0.1-0.8,0.3c-0.2,0.2-0.3,0.5-0.3,0.8v2.3c-1.8,0.2-3.3,0.8-4.4,1.8c-1.1,1.1-1.7,2.4-1.7,3.9
								c0,1.8,0.5,3.1,1.6,4c1,0.9,2.5,1.6,4.5,2.3v8.5c-2-0.2-3.7-1.1-5.1-2.6c-0.5-0.5-1.1-0.5-1.5,0c-0.2,0.2-0.3,0.5-0.3,0.8
								c0,0.3,0.1,0.6,0.4,0.8c1,1,2,1.7,3.1,2.2c1,0.5,2.2,0.8,3.5,0.9v3.4c0,0.3,0.1,0.6,0.3,0.8c0.2,0.2,0.5,0.3,0.8,0.3
								c0.3,0,0.6-0.1,0.8-0.3c0.2-0.2,0.3-0.5,0.3-0.8v-3.4c1.2-0.1,2.2-0.5,3.1-1c0.9-0.5,1.7-1.2,2.2-2.1
								c0.5-0.8,0.8-1.8,0.8-2.7C617.6,475.7,617.4,474.6,616.8,473.8z M609.4,469.8c-1.2-0.5-2.2-1-2.8-1.6c-0.7-0.6-1-1.4-1-2.4
								c0-1,0.4-1.8,1.1-2.4c0.7-0.6,1.6-1,2.8-1.2V469.8z M615.4,477c0,1-0.4,1.8-1.1,2.4c-0.7,0.6-1.7,1-2.8,1.2v-7.8
								c1.2,0.5,2.2,1,2.9,1.7C615,475.1,615.4,476,615.4,477z"/>
						</g>
					</g>
				</g>
				<g>
					<g>
						<g>
							<path class="st3" d="M680.4,407.2c-0.6,6.7-3.8,12.7-8.9,16.9c-4.5,3.7-10.2,5.8-16,5.8s-11.5-2.1-16-5.8
								c-0.2-0.2-0.4-0.4-0.4-0.7c0-0.3,0.1-0.6,0.3-0.8c0.4-0.5,1.1-0.5,1.5-0.1c4.7,3.9,10.6,5.8,16.7,5.2
								c6.1-0.6,11.6-3.4,15.5-8.1c3.9-4.7,5.8-10.6,5.2-16.7c-0.6-6.1-3.4-11.6-8.1-15.5c-4.7-3.9-10.6-5.8-16.7-5.2
								c-6.1,0.6-11.6,3.4-15.5,8.1c-7.1,8.5-7.1,20.8,0,29.3c0.4,0.5,0.3,1.2-0.1,1.5c-0.2,0.2-0.5,0.3-0.8,0.3
								c-0.3,0-0.6-0.2-0.7-0.4c-4.3-5.1-6.3-11.6-5.7-18.3c0.6-6.7,3.8-12.7,8.9-17c5.1-4.3,11.6-6.3,18.3-5.7
								c6.7,0.6,12.7,3.8,16.9,8.9C679,394,681,400.5,680.4,407.2z"/>
						</g>
						<g>
							<path class="st3" d="M650.2,374.4c0.9-0.2,1.8-0.3,2.7-0.4C651.9,374.1,651,374.2,650.2,374.4z"/>
							<path class="st3" d="M660.9,374.4c-0.9-0.2-1.8-0.3-2.7-0.4C659.1,374.1,660,374.2,660.9,374.4z"/>
							<path class="st3" d="M658.2,374c0.9,0.1,1.8,0.2,2.7,0.4C660,374.2,659.1,374.1,658.2,374z M652.8,374
								c-0.9,0.1-1.8,0.2-2.7,0.4C651,374.2,651.9,374.1,652.8,374z"/>
							<path class="st3" d="M675.8,381.4c-5.6-4.8-12.8-7.5-20.2-7.5c-7.4,0-14.6,2.7-20.2,7.5c0,0-0.1,0-0.1,0.1
								c-0.2,0.2-0.3,0.5-0.3,0.8c0,0.3,0.1,0.6,0.3,0.8c0.2,0.2,0.5,0.3,0.8,0.3h0c0.3,0,0.6-0.1,0.8-0.3c10.9-9.4,26.7-9.4,37.6,0
								c0.2,0.2,0.5,0.3,0.7,0.3c0,0,0,0,0,0c0.3,0,0.6-0.1,0.8-0.4c0.2-0.2,0.3-0.5,0.3-0.8C676.1,381.8,676,381.5,675.8,381.4z
								 M660.9,374.4c-0.9-0.2-1.8-0.3-2.7-0.4C659.1,374.1,660,374.2,660.9,374.4z M652.8,374c-0.9,0.1-1.8,0.2-2.7,0.4
								C651,374.2,651.9,374.1,652.8,374z"/>
						</g>
						<g>
							<path class="st3" d="M675.7,428.6c-5.6,4.8-12.8,7.5-20.2,7.5c0,0,0,0,0,0c-8.3,0-16.1-3.2-22-9.1c-5.9-5.9-9.1-13.7-9.1-22
								c0-7.4,2.7-14.6,7.5-20.2c0.2-0.2,0.5-0.3,0.8-0.4h0c0.3,0,0.6,0.1,0.8,0.3c0.4,0.4,0.5,1,0.1,1.5
								c-10.4,12.1-9,30.4,3.1,40.7c5.9,5,13.3,7.5,21,6.9c7.7-0.6,14.7-4.1,19.7-10c9.3-10.9,9.4-26.7,0-37.6
								c-0.4-0.5-0.3-1.2,0.1-1.6c0.2-0.2,0.5-0.3,0.8-0.3c0.3,0,0.6,0.2,0.8,0.4C690.3,397.8,688.7,417.4,675.7,428.6z"/>
						</g>
					</g>
					<g>
						<g>
							<path class="st3" d="M661.7,404.9c2.5-1.8,3.3-5.2,1.7-7.9c-1.1-1.8-3-2.9-5.1-2.9h-0.2v-2.4H656v2.4h-3.1v-2.4h-2.1v2.4
								h-4.1v2.1h2.4v17.4h-2.4v2.1h4.1v2.4h2.1v-2.4h3.1v2.4h2.1v-2.4h0.2c1.6,0,3.1-0.6,4.2-1.7c1.1-1.1,1.7-2.6,1.7-4.2
								C664.3,407.9,663.3,406,661.7,404.9z M658.3,413.6h-7.1V406h7.1c2.1,0,3.8,1.7,3.8,3.8C662.2,411.9,660.4,413.6,658.3,413.6z
								 M651.3,396.2h7.1c2.1,0,3.8,1.7,3.8,3.8c0,2.1-1.7,3.8-3.8,3.8h-7.1V396.2z"/>
						</g>
					</g>
				</g>
				<g>
					<g>
						<g>
							<path class="st3" d="M725.7,474.3c-0.6,6.7-3.8,12.7-8.9,16.9c-4.5,3.7-10.2,5.8-16,5.8s-11.5-2.1-16-5.8
								c-0.2-0.2-0.4-0.4-0.4-0.7c0-0.3,0.1-0.6,0.3-0.8c0.4-0.5,1.1-0.5,1.5-0.1c4.7,3.9,10.6,5.8,16.7,5.2
								c6.1-0.6,11.6-3.4,15.5-8.1c3.9-4.7,5.8-10.6,5.2-16.7c-0.6-6.1-3.4-11.6-8.1-15.5c-4.7-3.9-10.6-5.8-16.7-5.2
								c-6.1,0.6-11.6,3.4-15.5,8.1c-7.1,8.5-7.1,20.8,0,29.3c0.4,0.5,0.3,1.2-0.1,1.5c-0.2,0.2-0.5,0.3-0.8,0.3
								c-0.3,0-0.6-0.2-0.7-0.4c-4.3-5.1-6.3-11.6-5.7-18.3c0.6-6.7,3.8-12.7,8.9-17c5.1-4.3,11.6-6.3,18.3-5.7
								c6.7,0.6,12.7,3.8,16.9,8.9C724.3,461.2,726.3,467.7,725.7,474.3z"/>
						</g>
						<g>
							<path class="st3" d="M695.4,441.5c0.9-0.2,1.8-0.3,2.7-0.4C697.2,441.2,696.3,441.3,695.4,441.5z"/>
							<path class="st3" d="M706.2,441.5c-0.9-0.2-1.8-0.3-2.7-0.4C704.4,441.2,705.3,441.3,706.2,441.5z"/>
							<path class="st3" d="M703.5,441.2c0.9,0.1,1.8,0.2,2.7,0.4C705.3,441.3,704.4,441.2,703.5,441.2z M698.1,441.2
								c-0.9,0.1-1.8,0.2-2.7,0.4C696.3,441.3,697.2,441.2,698.1,441.2z"/>
							<path class="st3" d="M721,448.5c-5.6-4.8-12.8-7.5-20.2-7.5s-14.6,2.7-20.2,7.5c0,0-0.1,0.1-0.1,0.1
								c-0.2,0.2-0.3,0.5-0.3,0.8c0,0.3,0.1,0.6,0.3,0.8c0.2,0.2,0.5,0.3,0.8,0.3h0c0.3,0,0.6-0.1,0.8-0.3c10.9-9.4,26.7-9.4,37.6,0
								c0.2,0.2,0.5,0.3,0.7,0.3c0,0,0,0,0,0c0.3,0,0.6-0.1,0.8-0.4c0.2-0.2,0.3-0.5,0.3-0.8C721.4,448.9,721.3,448.7,721,448.5z
								 M706.2,441.5c-0.9-0.2-1.8-0.3-2.7-0.4C704.4,441.2,705.3,441.3,706.2,441.5z M698.1,441.2c-0.9,0.1-1.8,0.2-2.7,0.4
								C696.3,441.3,697.2,441.2,698.1,441.2z"/>
						</g>
						<g>
							<path class="st3" d="M721,495.7c-5.6,4.8-12.8,7.5-20.2,7.5c0,0,0,0,0,0c-8.3,0-16.1-3.2-22-9.1c-5.9-5.9-9.1-13.7-9.1-22
								c0-7.4,2.7-14.6,7.5-20.2c0.2-0.2,0.5-0.3,0.8-0.4h0c0.3,0,0.6,0.1,0.8,0.3c0.4,0.4,0.5,1,0.1,1.5
								c-10.4,12.1-9,30.4,3.1,40.7c5.9,5,13.3,7.5,21,6.9c7.7-0.6,14.7-4.1,19.7-10c9.3-10.9,9.4-26.7,0-37.6
								c-0.4-0.5-0.3-1.2,0.1-1.6c0.2-0.2,0.5-0.3,0.8-0.3c0.3,0,0.6,0.2,0.8,0.4C735.6,464.9,734,484.5,721,495.7z"/>
						</g>
					</g>
					<g>
						<path class="st13" d="M703.9,457.7c0.6,0.1,1.1,0.2,1.7,0.3c2.3,0.5,4.3,1.7,5.9,3.4c0.6,0.7,0.6,1.7,0,2.3
							c-0.6,0.6-1.6,0.6-2.2,0c-0.8-0.8-1.6-1.5-2.6-1.9c-2.5-1.2-5-1.2-7.4,0.2c-2,1.1-3.4,2.8-4.3,4.9c0,0,0,0.1,0,0.1
							c0,0,0,0,0,0.1c0.1,0,0.2,0,0.3,0c3.2,0,6.3,0,9.5,0c0.6,0,1.2,0.2,1.6,0.8c0.7,1.1-0.1,2.4-1.4,2.5c-0.3,0-0.5,0-0.8,0
							c-3.3,0-6.5,0-9.8,0c-0.1,0-0.2,0-0.3,0c-0.2,1.1-0.2,2.2,0,3.4c0.1,0,0.2,0,0.4,0c3.5,0,7,0,10.5,0c0.7,0,1.2,0.2,1.6,0.8
							c0.5,0.9,0,2.1-1.1,2.3c-0.2,0-0.4,0-0.6,0c-3.2,0-6.4,0-9.6,0c-0.1,0-0.2,0-0.4,0c0.2,0.4,0.4,0.8,0.6,1.2
							c1,1.9,2.4,3.4,4.4,4.3c2.3,1.1,4.6,1.1,6.9,0c1-0.5,1.8-1.1,2.6-1.9c0.5-0.5,1-0.7,1.7-0.5c1.1,0.3,1.5,1.6,0.8,2.5
							c-0.7,0.9-1.6,1.5-2.5,2.1c-2.2,1.3-4.5,2-7,1.7c-2.1-0.2-3.9-0.9-5.6-2.2c-2.4-1.8-4-4.1-5-7c-0.1-0.3-0.2-0.3-0.5-0.3
							c-1.3,0-2.5,0-3.8,0c-1,0-1.7-0.8-1.7-1.7c0.1-0.7,0.7-1.4,1.4-1.4c1.1,0,2.2,0,3.4,0c0.1,0,0.2,0,0.3,0c0-0.6,0-1.1,0-1.7
							c0-0.6,0-1.1,0.1-1.7c-0.1,0-0.2,0-0.3,0c-1.1,0-2.1,0-3.2,0c-0.9,0-1.5-0.5-1.7-1.2c-0.2-0.9,0.4-1.9,1.4-2
							c1.3,0,2.5,0,3.8,0c0.7,0,0.7,0,0.9-0.7c1.1-3,3-5.4,5.8-7.1c1.5-0.9,3.1-1.4,4.8-1.5c0.1,0,0.2,0,0.2,0
							C703,457.7,703.4,457.7,703.9,457.7z"/>
					</g>
				</g>
			</g>
			<g>
				<line class="st12" x1="761" y1="447.1" x2="833.5" y2="447.1"/>
				<polyline class="st0" points="819.8,429.4 837.5,447.1 819.8,464.8 				"/>
			</g>
		</g>
		<g>
			<line class="st12" x1="1074.1" y1="447.1" x2="1205.6" y2="447.1"/>
			<polyline class="st0" points="1191.9,429.4 1209.6,447.1 1191.9,464.8 			"/>
		</g>
		<g>
			<polyline class="st0" points="60.6,430.4 78.3,448.1 60.6,465.8 			"/>
		</g>
		<g>
			<line class="st12" x1="721.4" y1="81.4" x2="852.7" y2="81.4"/>
			<polyline class="st0" points="838.9,63.7 856.6,81.4 838.9,99.1 			"/>
		</g>
	</g>
	<text transform="matrix(1 0 0 1 149.2656 199.8617)"><tspan x="0" y="0" class="st14 st15 st16">Creación de una </tspan><tspan x="33" y="32" class="st14 st15 st16">transacción</tspan></text>
	<g>
		<text transform="matrix(1 0 0 1 490.8887 199.8622)"><tspan x="0" y="0" class="st14 st15 st16">Creación del bloque </tspan><tspan x="20.7" y="32" class="st14 st15 st16">de la transacción</tspan></text>
	</g>
	<g>
		<text transform="matrix(1 0 0 1 892.2725 199.8617)"><tspan x="0" y="0" class="st14 st15 st16">El bloque es enviado a </tspan><tspan x="-12.9" y="32" class="st14 st15 st16">todos los nodos de la red</tspan></text>
	</g>
	<g>
		<text transform="matrix(1 0 0 1 136.8662 576.0292)"><tspan x="0" y="0" class="st14 st15 st16">Los nodos validan </tspan><tspan x="26.8" y="32" class="st14 st15 st16">la transacción</tspan></text>
	</g>
	<g>
		<text transform="matrix(1 0 0 1 575.9219 576.0283)"><tspan x="0" y="0" class="st14 st15 st16">Los nodos reciben una recompenza </tspan><tspan x="68.9" y="32" class="st14 st15 st16">por la Prueba de Trabajo</tspan></text>
	</g>
	<g>
		<text transform="matrix(1 0 0 1 1203.0781 576.0278)"><tspan x="0" y="0" class="st14 st15 st16">El bloque se agrega </tspan><tspan x="8.1" y="32" class="st14 st15 st16">a la blockchain. Se </tspan><tspan x="-22.2" y="64" class="st14 st15 st16">completa la transacción</tspan></text>
	</g>
</g>
</svg>
