<svg xmlns="http://www.w3.org/2000/svg" viewBox="0 0 31 34.46"><defs><style>.cls-1{fill:#fff;}</style></defs><title>Recurso 1</title><g id="Capa_2" data-name="Capa 2"><g id="Layer_3" data-name="Layer 3"><g id="share-alt"><path class="cls-1" d="M26,12.12a4.84,4.84,0,0,0-3.47,1.39L10.22,6.41a3,3,0,0,0,.17-1.21A5.1,5.1,0,0,0,5.2,0,5.1,5.1,0,0,0,0,5.2a5.1,5.1,0,0,0,5.2,5.19A4.86,4.86,0,0,0,8.66,9L21,16.11a2.81,2.81,0,0,0-.18,1.21A2.86,2.86,0,0,0,21,18.53L8.66,25.8A4.86,4.86,0,0,0,5.2,24.42a5,5,0,1,0,5,5A3.24,3.24,0,0,0,10,28.23L22.34,21a4.86,4.86,0,0,0,3.46,1.38A5.1,5.1,0,0,0,31,17.15,4.82,4.82,0,0,0,26,12.12Z"/></g></g></g></svg>