<?xml version="1.0" encoding="utf-8"?>
<!-- Generator: Adobe Illustrator 25.0.0, SVG Export Plug-In . SVG Version: 6.00 Build 0)  -->
<svg version="1.1" id="Layer_1" xmlns="http://www.w3.org/2000/svg" xmlns:xlink="http://www.w3.org/1999/xlink" x="0px" y="0px"
	 viewBox="0 0 346.1 141.3" style="enable-background:new 0 0 346.1 141.3;" xml:space="preserve">
<style type="text/css">
	.st0{fill:#66C1FF;}
	.st1{fill:#008CFF;}
	.st2{font-family:'OpenSans-Regular';}
	.st3{font-size:20.7121px;}
</style>
<g>
	<rect x="133.5" y="96.9" width="11.6" height="9.9"/>
	<g>
		<g>
			<g>
				<path class="st0" d="M36.7,51.9V7.8c0,0-14.3,7.1-14.3,22.2S36.7,51.9,36.7,51.9z"/>
				<path class="st1" d="M36.7,7.8c0,0,14.3,7.1,14.3,22.2S36.7,51.9,36.7,51.9V7.8z"/>
			</g>
			<g>
				<path class="st1" d="M70,72.6l19.6-11.1c0,0-6.8-4.5-13.5-0.7C69.4,64.6,70,72.6,70,72.6z"/>
				<path class="st0" d="M89.6,61.5c0,0,0.4,8.1-6.3,12C76.6,77.3,70,72.6,70,72.6L89.6,61.5z"/>
			</g>
		</g>
		<path d="M90.5,59.7c-0.3-0.2-8.6-4.5-15.6-0.5c-5.6,3.2-6.7,9.7-6.9,12.4l-2.6,1.5c-1.3-1.3-3.1-2.1-5-2.1c-1.9,0-3.7,0.8-5,2
			l-11.8-6.8c0.1-0.6,0.2-1.1,0.2-1.7c0-3.3-2.2-6-5.2-6.9v-4.2c3.5-2.2,14.4-10.3,14.4-23.1c0-14.8-14.7-24.1-15.3-24.5l-1-0.6
			l-1,0.6C35,6.2,20.3,15.5,20.3,30.3c0,12.8,11,20.9,14.4,23.1v4.2c-3,0.9-5.2,3.6-5.2,6.9c0,0.6,0.1,1.2,0.2,1.7l-11.8,6.8
			c-1.3-1.2-3-2-5-2c-3.9,0-7.2,3.2-7.2,7.2c0,3.3,2.2,6,5.2,6.9v14.2c-3,0.9-5.2,3.6-5.2,6.9c0,3.9,3.2,7.2,7.2,7.2
			c2.1,0,4-0.9,5.3-2.3l11.5,6.6c-0.1,0.5-0.2,1.1-0.2,1.7c0,3.9,3.2,7.1,7.2,7.1c3.9,0,7.2-3.2,7.2-7.1c0-0.6-0.1-1.2-0.2-1.7
			l11.5-6.6c1.3,1.4,3.2,2.3,5.3,2.3c3.9,0,7.2-3.2,7.2-7.2c0-3.3-2.2-6-5.2-6.9V85.1c3-0.9,5.2-3.6,5.2-6.9c0-0.6-0.1-1.1-0.2-1.7
			l2.6-1.5c1.5,0.7,4.5,1.9,7.9,1.9c2.1,0,4.3-0.4,6.4-1.7c7-4,7.3-13.4,7.4-13.8l0-1.2L90.5,59.7z M62.4,80.7
			c-0.5,0.4-1.2,0.7-2,0.7c-0.4,0-0.8-0.1-1.1-0.2c-0.3-0.1-0.6-0.3-0.8-0.5c-0.6-0.5-1.1-1.2-1.2-2.1c0-0.2,0-0.3,0-0.5
			c0-0.1,0-0.3,0-0.4c0.1-1.2,0.9-2.2,2-2.6c0.4-0.1,0.8-0.2,1.2-0.2c0.4,0,0.9,0.1,1.2,0.3c1.1,0.5,1.9,1.6,1.9,2.9
			c0,0.2,0,0.4,0,0.5C63.4,79.5,63,80.2,62.4,80.7z M63.6,106.2c0,1.8-1.4,3.2-3.2,3.2c-0.6,0-1.2-0.2-1.7-0.5
			c-0.9-0.6-1.5-1.6-1.5-2.7c0,0,0-0.1,0-0.1v0c0-0.3,0.1-0.7,0.2-1c0.2-0.6,0.6-1.1,1-1.4c0.4-0.3,0.9-0.5,1.4-0.6
			c0.2,0,0.4-0.1,0.5-0.1c0.7,0,1.4,0.3,2,0.7C63.2,104.2,63.6,105.1,63.6,106.2z M58.5,99.3c-1,0.3-1.9,0.8-2.6,1.4l-12.1-7v0
			c0.1-0.5,0.1-0.9,0.1-1.4c0-0.7-0.1-1.4-0.3-2l11.9-6.9c0.8,0.8,1.8,1.4,3,1.7V99.3z M36.7,122.5c-1.6,0-2.9-1.2-3.2-2.7
			c0-0.2,0-0.3,0-0.5c0-1.3,0.8-2.5,2-3c0.4-0.2,0.8-0.2,1.2-0.2c0.4,0,0.8,0.1,1.2,0.2c1.2,0.5,2,1.6,2,3c0,0.2,0,0.3,0,0.5
			C39.6,121.3,38.3,122.5,36.7,122.5z M29.7,93.7l-12.1,7c-0.8-0.6-1.6-1.1-2.6-1.4V85.1c1.1-0.3,2.2-0.9,3-1.7l11.9,6.9
			c-0.2,0.6-0.3,1.3-0.3,2C29.6,92.7,29.6,93.2,29.7,93.7L29.7,93.7z M16.2,106.2c0,1.2-0.6,2.2-1.5,2.7c-0.5,0.3-1.1,0.5-1.7,0.5
			c-1.8,0-3.2-1.4-3.2-3.2c0-1,0.5-1.9,1.2-2.5c0.5-0.4,1.2-0.7,2-0.7c0.2,0,0.4,0,0.6,0.1c0.5,0.1,1,0.3,1.4,0.6
			c0.5,0.4,0.8,0.9,1,1.4C16.1,105.4,16.2,105.7,16.2,106.2C16.2,106.1,16.2,106.1,16.2,106.2z M9.8,78.2c0-1.8,1.4-3.2,3.2-3.2
			c0.4,0,0.8,0.1,1.2,0.2c1,0.4,1.8,1.4,2,2.5c0,0.2,0,0.3,0,0.5c0,0.2,0,0.3,0,0.5c-0.1,0.8-0.6,1.6-1.2,2.1
			c-0.2,0.2-0.5,0.3-0.8,0.5c-0.4,0.2-0.8,0.2-1.2,0.2c-0.7,0-1.4-0.3-2-0.7C10.3,80.1,9.8,79.2,9.8,78.2z M34.7,62
			c0.5-0.4,1.2-0.7,2-0.7c0.7,0,1.4,0.3,2,0.7c0.6,0.5,1.1,1.2,1.2,2c0,0.2,0,0.3,0,0.5c0,1-0.5,1.9-1.2,2.5
			c-0.2,0.2-0.5,0.3-0.8,0.5c-0.4,0.2-0.8,0.2-1.2,0.2c-0.4,0-0.8-0.1-1.2-0.2c-0.3-0.1-0.6-0.3-0.8-0.5c-0.7-0.6-1.2-1.5-1.2-2.5
			c0-0.2,0-0.3,0-0.5C33.7,63.2,34.1,62.5,34.7,62z M39.9,92.4c0,1-0.5,1.8-1.2,2.4c-0.1,0.1-0.3,0.2-0.5,0.3
			c-0.5,0.2-1,0.4-1.5,0.4c-0.5,0-1-0.1-1.5-0.4c-0.2-0.1-0.3-0.2-0.5-0.3c-0.7-0.6-1.2-1.4-1.2-2.4c0,0,0-0.1,0-0.1
			c0-0.3,0-0.6,0.1-0.8c0.2-0.7,0.6-1.3,1.1-1.7c0.3-0.3,0.7-0.5,1.2-0.6c0.3-0.1,0.5-0.1,0.8-0.1c0.3,0,0.6,0,0.8,0.1
			c0.4,0.1,0.8,0.3,1.2,0.6c0.5,0.4,0.9,1,1.1,1.6c0.1,0.3,0.1,0.6,0.1,0.9C39.9,92.3,39.9,92.3,39.9,92.4L39.9,92.4z M53.5,76.5
			c-0.1,0.6-0.2,1.1-0.2,1.7c0,0.6,0.1,1.2,0.2,1.8l-12.1,6.9c-0.8-0.7-1.7-1.2-2.8-1.5v-14c1.1-0.3,2.2-0.9,3-1.7L53.5,76.5z
			 M24.3,30.3c0-10.5,9.3-18.1,12.4-20.4c3.2,2.3,12.4,9.9,12.4,20.4c0,8.8-6.5,15.2-10.4,18.2V31.9c0-1.1-0.9-2-2-2
			c-1.1,0-2,0.9-2,2v16.6C30.8,45.5,24.3,39.2,24.3,30.3z M31.7,69.7c0.8,0.8,1.8,1.4,3,1.7v14c-1,0.3-2,0.8-2.7,1.5l-12.1-7
			c0.1-0.6,0.2-1.1,0.2-1.7c0-0.6-0.1-1.2-0.2-1.7L31.7,69.7z M20,107.4c0.1-0.4,0.1-0.8,0.1-1.3c0-0.8-0.1-1.5-0.3-2.2l11.8-6.8
			c0.9,0.9,2,1.6,3.2,1.9v13.3c-1.1,0.3-2.2,0.9-3,1.7L20,107.4z M41.7,114.2c-0.8-0.8-1.8-1.4-3-1.7V99.1c1.2-0.4,2.3-1,3.2-1.9
			l11.7,6.8c-0.2,0.7-0.3,1.4-0.3,2.2c0,0.4,0,0.8,0.1,1.3L41.7,114.2z M82.2,71.8c-2.6,1.5-5.6,1.2-7.8,0.6l4-2.3
			c0.9-0.5,1.3-1.8,0.7-2.7c-0.5-0.9-1.8-1.3-2.7-0.7L72.5,69c0.6-2.2,1.8-4.9,4.5-6.4c3.8-2.2,8.4-0.8,10.6,0.1
			C87.2,64.9,86.1,69.7,82.2,71.8z"/>
	</g>
	<g>
		<path d="M134.5,57.8c2.1,0,3.8,0.1,5.1,0.4l-1,9.5c-1.5-0.3-3-0.5-4.5-0.5c-4.1,0-7.4,1.3-9.9,4c-2.5,2.7-3.8,6.1-3.8,10.4v25.2
			h-10.2V58.6h8l1.3,8.5h0.5c1.6-2.9,3.7-5.1,6.2-6.8C128.8,58.6,131.6,57.8,134.5,57.8z"/>
		<path d="M175.8,57.8c6,0,10.7,2.2,14,6.5c3.4,4.4,5,10.5,5,18.3c0,7.9-1.7,14-5.1,18.4c-3.4,4.4-8.1,6.6-14.1,6.6
			c-6.1,0-10.8-2.2-14.2-6.6h-0.7l-1.9,5.7h-7.7V39.1h10.2v16.1c0,1.2-0.1,3-0.2,5.3c-0.1,2.4-0.2,3.8-0.3,4.5h0.4
			C164.7,60.2,169.5,57.8,175.8,57.8z M173.1,66.1c-4.1,0-7.1,1.2-8.9,3.6c-1.8,2.4-2.7,6.5-2.8,12.2v0.7c0,5.9,0.9,10.1,2.8,12.7
			c1.9,2.6,4.9,3.9,9.1,3.9c3.6,0,6.4-1.4,8.2-4.3c1.9-2.9,2.8-7,2.8-12.4C184.4,71.6,180.6,66.1,173.1,66.1z"/>
		<path d="M230.6,106.8l-2-6.7h-0.3c-2.3,2.9-4.7,4.9-7,6c-2.4,1.1-5.4,1.6-9.1,1.6c-4.7,0-8.4-1.3-11.1-3.8c-2.7-2.6-4-6.2-4-10.8
			c0-5,1.8-8.7,5.5-11.2c3.7-2.5,9.3-3.9,16.8-4.1l8.3-0.3v-2.6c0-3.1-0.7-5.4-2.2-6.9c-1.4-1.5-3.7-2.3-6.7-2.3
			c-2.5,0-4.8,0.4-7.1,1.1c-2.3,0.7-4.4,1.6-6.5,2.6L202,62c2.6-1.4,5.5-2.4,8.6-3.1c3.1-0.7,6-1.1,8.8-1.1c6.1,0,10.7,1.3,13.9,4
			c3.1,2.7,4.7,6.9,4.7,12.6v32.4H230.6z M215.4,99.8c3.7,0,6.7-1,8.9-3.1c2.2-2.1,3.4-5,3.4-8.7v-4.2l-6.2,0.3
			c-4.8,0.2-8.3,1-10.5,2.4s-3.3,3.6-3.3,6.6c0,2.1,0.6,3.8,1.9,5S212.8,99.8,215.4,99.8z"/>
		<path d="M288.3,106.8H278V77.2c0-3.7-0.7-6.5-2.2-8.3s-3.9-2.7-7.1-2.7c-4.3,0-7.5,1.3-9.5,3.8c-2,2.6-3,6.8-3,12.8v24H246V58.6h8
			l1.4,6.3h0.5c1.5-2.3,3.5-4.1,6.2-5.3c2.7-1.2,5.6-1.9,8.9-1.9c11.5,0,17.3,5.9,17.3,17.6V106.8z"/>
		<path d="M306.2,81.4l5.8-7.2l14.5-15.5h11.8l-19.4,20.7l20.6,27.5h-12l-15.5-21.1l-5.6,4.6v16.5h-10.1V39.1h10.1v33l-0.5,9.3
			H306.2z"/>
	</g>
	<g>
		<text transform="matrix(1 0 0 1 150.3812 130.477)" class="st2 st3">Open Finance Tools</text>
	</g>
</g>
</svg>
