<?xml version="1.0" encoding="utf-8"?>
<!-- Generator: Adobe Illustrator 22.0.0, SVG Export Plug-In . SVG Version: 6.00 Build 0)  -->
<svg version="1.1" id="Layer_1" xmlns="http://www.w3.org/2000/svg" xmlns:xlink="http://www.w3.org/1999/xlink" x="0px" y="0px"
	 viewBox="0 0 50 50" style="enable-background:new 0 0 50 50;" xml:space="preserve">
<style type="text/css">
	.st0{fill:#FFFFFF;}
</style>
<path class="st0" d="M8.7,15h30c0.6,0,1-0.4,1-1s-0.4-1-1-1h-30c-0.6,0-1,0.4-1,1S8.1,15,8.7,15z"/>
<path class="st0" d="M8.7,37h30c0.6,0,1-0.4,1-1s-0.4-1-1-1h-30c-0.6,0-1,0.4-1,1S8.1,37,8.7,37z"/>
<path class="st0" d="M8.7,26h30c0.6,0,1-0.4,1-1s-0.4-1-1-1h-30c-0.6,0-1,0.4-1,1S8.1,26,8.7,26z"/>
</svg>
