<?xml version="1.0" encoding="utf-8"?>
<!-- Generator: Adobe Illustrator 22.0.0, SVG Export Plug-In . SVG Version: 6.00 Build 0)  -->
<svg version="1.1" id="Capa_1" focusable="false" xmlns="http://www.w3.org/2000/svg" xmlns:xlink="http://www.w3.org/1999/xlink"
	 x="0px" y="0px" viewBox="0 0 512 512" style="enable-background:new 0 0 512 512;" xml:space="preserve">
<style type="text/css">
	.st0{fill:#FFFFFF;enable-background:new    ;}
</style>
<path class="st0" d="M326.6,185.4c59.7,59.8,58.9,155.7,0.4,214.6c-0.1,0.1-0.2,0.3-0.4,0.4l-67.2,67.2c-59.3,59.3-155.7,59.3-215,0
	s-59.3-155.7,0-215l37.1-37.1c9.8-9.8,26.8-3.3,27.3,10.6c0.6,17.7,3.8,35.5,9.7,52.7c2,5.8,0.6,12.3-3.8,16.6l-13.1,13.1
	c-28,28-28.9,73.7-1.2,102c28,28.6,74.1,28.7,102.3,0.5l67.2-67.2c28.2-28.2,28.1-73.8,0-101.8c-3.7-3.7-7.4-6.6-10.3-8.6
	c-4.2-2.9-6.8-7.5-6.9-12.6c-0.4-10.6,3.3-21.5,11.7-29.8l21.1-21.1c5.5-5.5,14.2-6.2,20.6-1.7C313.4,173.3,320.3,179.1,326.6,185.4
	L326.6,185.4z M467.5,44.4c-59.3-59.3-155.7-59.3-215,0l-67.2,67.2c-0.1,0.1-0.3,0.3-0.4,0.4c-58.6,58.9-59.4,154.8,0.4,214.6
	c6.3,6.3,13.2,12.1,20.5,17.2c6.4,4.5,15.1,3.8,20.6-1.7l21.1-21.1c8.4-8.4,12.1-19.2,11.7-29.8c-0.2-5.1-2.8-9.7-6.9-12.6
	c-2.9-2-6.6-4.9-10.3-8.6c-28.1-28.1-28.2-73.6,0-101.8l67.2-67.2c28.2-28.2,74.3-28.1,102.3,0.5c27.8,28.3,26.9,73.9-1.2,102
	l-13.1,13.1c-4.4,4.4-5.8,10.8-3.8,16.6c5.9,17.2,9,35,9.7,52.7c0.5,13.9,17.5,20.4,27.3,10.6l37.1-37.1
	C526.8,200.1,526.8,103.7,467.5,44.4L467.5,44.4z"/>
</svg>
