<?xml version="1.0" encoding="utf-8"?>
<!-- Generator: Adobe Illustrator 22.0.0, SVG Export Plug-In . SVG Version: 6.00 Build 0)  -->
<svg version="1.1" id="Capa_1" xmlns="http://www.w3.org/2000/svg" xmlns:xlink="http://www.w3.org/1999/xlink" x="0px" y="0px"
	 viewBox="0 0 271 150" style="enable-background:new 0 0 271 150;" xml:space="preserve">
<style type="text/css">
	.st0{fill:#FFFFFF;}
</style>
<g>
	<path class="st0" d="M116.9,124.4l0-56.7l11.6-1.4l1.8,8.9c3.8-6.1,9.3-9.2,16.6-9.2c1.5,0,2.8,0.1,3.7,0.2l-0.2,11.6
		c-1.4-0.2-2.9-0.3-4.4-0.3c-5.1,0-8.9,1.4-11.5,4.1c-2.5,2.7-3.8,6.5-3.8,11.3v31.5H116.9z"/>
	<path class="st0" d="M177.1,125.5c-8.6,0-15.4-1.5-20.6-4.4l1.4-10.4c2.3,1.3,5.3,2.4,8.9,3.4s6.9,1.5,9.8,1.5
		c3.1,0,5.5-0.6,7.2-1.7c1.7-1.1,2.6-2.8,2.6-5.1c0-2-0.8-3.6-2.4-4.8c-1.6-1.2-4.7-2.6-9.2-4.3c-1.6-0.6-2.6-0.9-3-1.1
		c-5.4-2.1-9.2-4.4-11.6-7c-2.4-2.6-3.5-6-3.5-10.4c0-5.3,1.9-9.3,5.7-12.2c3.8-2.8,9.2-4.2,16-4.2c7.4,0,13.9,1.4,19.5,4.2
		l-3.4,9.6c-5.5-2.6-10.8-3.9-15.8-3.9c-2.8,0-5,0.5-6.5,1.4c-1.6,0.9-2.4,2.4-2.4,4.3c0,1.8,0.8,3.2,2.3,4.2c1.5,1,4.5,2.3,8.9,3.9
		c0.1,0,0.6,0.2,1.4,0.5c0.8,0.3,1.4,0.5,1.8,0.7c5.3,1.9,9.2,4.3,11.7,7c2.5,2.7,3.8,6.2,3.8,10.6c0,5.8-2,10.3-5.9,13.5
		C189.9,123.9,184.3,125.5,177.1,125.5"/>
	<polygon class="st0" points="238.4,91.3 262.1,66.3 245.6,66.3 221.9,90.6 221.9,47.3 208,49.9 208,124.4 221.9,124.4 221.9,124.4 
		221.9,108.7 229.5,100.6 246.8,124.4 263.6,124.4 	"/>
	<path class="st0" d="M103.7,67.5c-0.4-0.2-10.5-5.6-19.1-0.6c-6.9,4-8.2,11.9-8.5,15.2L73,83.9c-1.6-1.6-3.7-2.5-6.1-2.5
		c-2.4,0-4.5,0.9-6.1,2.5l-14.5-8.4c0.2-0.7,0.3-1.4,0.3-2.1c0-4-2.7-7.4-6.3-8.4v-5.2c4.2-2.7,17.6-12.6,17.6-28.3
		c0-18.2-18-29.5-18.8-30l-1.3-0.8l-1.3,0.8c-0.8,0.5-18.8,11.8-18.8,30c0,15.7,13.4,25.6,17.6,28.3V65c-3.7,1-6.3,4.4-6.3,8.4
		c0,0.7,0.1,1.4,0.3,2.1l-14.5,8.4c-1.6-1.5-3.7-2.5-6.1-2.5c-4.8,0-8.8,3.9-8.8,8.8c0,4,2.7,7.4,6.3,8.4V116
		C2.7,117,0,120.4,0,124.4c0,4.8,3.9,8.8,8.8,8.8c2.6,0,4.9-1.1,6.5-2.9l14.1,8.1c-0.2,0.7-0.3,1.4-0.3,2.1c0,4.8,3.9,8.7,8.8,8.7
		c4.8,0,8.8-3.9,8.8-8.7c0-0.7-0.1-1.4-0.3-2.1l14.1-8.1c1.6,1.8,3.9,2.9,6.5,2.9c4.8,0,8.8-3.9,8.8-8.8c0-4-2.7-7.4-6.3-8.4V98.6
		c3.6-1.1,6.3-4.4,6.3-8.4c0-0.7-0.1-1.4-0.2-2l3.2-1.8c1.9,0.9,5.5,2.3,9.6,2.3c2.5,0,5.2-0.5,7.8-2c8.5-4.9,9-16.4,9-16.8l0-1.5
		L103.7,67.5z M69.3,93.2c-0.7,0.5-1.5,0.8-2.4,0.8c-0.5,0-0.9-0.1-1.4-0.3c-0.4-0.1-0.7-0.3-1-0.6c-0.8-0.6-1.3-1.5-1.5-2.5
		c0-0.2,0-0.4,0-0.6c0-0.2,0-0.3,0-0.5c0.2-1.4,1.1-2.6,2.4-3.1c0.4-0.2,0.9-0.3,1.4-0.3c0.5,0,1.1,0.1,1.5,0.3
		c1.4,0.6,2.4,2,2.4,3.6c0,0.2,0,0.4-0.1,0.6C70.6,91.8,70,92.6,69.3,93.2 M70.8,124.4c0,2.2-1.8,3.9-3.9,3.9c-0.7,0-1.5-0.2-2-0.6
		c-1.1-0.7-1.9-1.9-1.9-3.3c0,0,0-0.1,0-0.1v0c0-0.4,0.1-0.8,0.2-1.2c0.2-0.7,0.7-1.3,1.3-1.8c0.5-0.4,1.1-0.7,1.7-0.8
		c0.2,0,0.4-0.1,0.7-0.1c0.9,0,1.8,0.3,2.4,0.8C70.2,122,70.8,123.1,70.8,124.4 M64.5,116c-1.2,0.3-2.3,0.9-3.2,1.7l-14.9-8.6v0
		c0.1-0.6,0.2-1.1,0.2-1.7c0-0.8-0.1-1.7-0.4-2.4l14.6-8.4c1,1,2.2,1.7,3.6,2.1V116z M37.8,144.4c-2,0-3.6-1.4-3.9-3.3
		c0-0.2,0-0.4,0-0.6c0-1.6,1-3,2.4-3.6c0.5-0.2,1-0.3,1.5-0.3c0.5,0,1,0.1,1.5,0.3c1.4,0.6,2.4,2,2.4,3.6c0,0.2,0,0.4,0,0.6
		C41.4,143,39.8,144.4,37.8,144.4 M29.2,109.1l-14.9,8.6c-0.9-0.8-2-1.4-3.2-1.7V98.6c1.4-0.4,2.6-1.1,3.6-2.1l14.6,8.4
		c-0.2,0.8-0.4,1.6-0.4,2.5C29.1,108,29.1,108.6,29.2,109.1L29.2,109.1z M12.7,124.4c0,1.4-0.7,2.6-1.9,3.3c-0.6,0.4-1.3,0.6-2,0.6
		c-2.2,0-3.9-1.8-3.9-3.9c0-1.2,0.6-2.4,1.5-3.1c0.7-0.5,1.5-0.8,2.4-0.8c0.2,0,0.5,0,0.7,0.1c0.7,0.1,1.2,0.4,1.7,0.8
		c0.6,0.4,1,1.1,1.3,1.8c0.1,0.4,0.2,0.8,0.2,1.2C12.7,124.3,12.7,124.3,12.7,124.4 M4.8,90.2c0-2.2,1.8-3.9,3.9-3.9
		c0.5,0,1,0.1,1.4,0.3c1.3,0.5,2.2,1.7,2.4,3.1c0,0.2,0,0.4,0,0.6c0,0.2,0,0.4,0,0.6c-0.1,1-0.7,1.9-1.5,2.5c-0.3,0.2-0.6,0.4-1,0.6
		c-0.4,0.2-0.9,0.3-1.4,0.3c-0.9,0-1.8-0.3-2.4-0.8C5.4,92.5,4.8,91.4,4.8,90.2 M35.4,70.3c0.7-0.5,1.5-0.8,2.4-0.8
		c0.9,0,1.8,0.3,2.4,0.8c0.8,0.6,1.3,1.5,1.4,2.5c0,0.2,0,0.4,0,0.6c0,1.2-0.6,2.4-1.5,3.1c-0.3,0.2-0.6,0.4-1,0.6
		c-0.4,0.2-0.9,0.3-1.4,0.3c-0.5,0-1-0.1-1.4-0.3c-0.4-0.1-0.7-0.3-1-0.6c-0.9-0.7-1.5-1.8-1.5-3.1c0-0.2,0-0.4,0-0.6
		C34.1,71.8,34.6,70.9,35.4,70.3 M41.7,107.5c0,1.2-0.6,2.2-1.5,2.9c-0.2,0.1-0.4,0.3-0.6,0.4c-0.6,0.3-1.2,0.5-1.9,0.5
		c-0.7,0-1.3-0.2-1.8-0.5c-0.2-0.1-0.4-0.2-0.6-0.4c-0.9-0.7-1.5-1.8-1.5-3c0,0,0-0.1,0-0.1c0-0.4,0-0.7,0.1-1
		c0.2-0.8,0.7-1.5,1.3-2.1c0.4-0.3,0.9-0.6,1.5-0.7c0.3-0.1,0.6-0.1,1-0.1c0.4,0,0.7,0,1,0.1c0.5,0.1,1,0.4,1.4,0.7
		c0.6,0.5,1.1,1.2,1.3,2c0.1,0.3,0.1,0.7,0.1,1.1C41.7,107.4,41.7,107.5,41.7,107.5L41.7,107.5z M58.4,88c-0.2,0.7-0.3,1.4-0.3,2.1
		c0,0.7,0.1,1.5,0.3,2.2l-14.8,8.5c-1-0.9-2.1-1.5-3.4-1.9V81.8c1.4-0.4,2.6-1.1,3.6-2.1L58.4,88z M22.6,31.5
		c0-12.9,11.3-22.2,15.2-25C41.7,9.3,53,18.6,53,31.5c0,10.8-8,18.6-12.8,22.3V33.5c0-1.3-1.1-2.4-2.4-2.4c-1.3,0-2.4,1.1-2.4,2.4
		v20.4C30.6,50.1,22.6,42.4,22.6,31.5 M31.7,79.7c1,1,2.3,1.7,3.6,2.1V99c-1.3,0.4-2.4,1-3.4,1.9l-14.8-8.5c0.2-0.7,0.3-1.4,0.3-2.1
		c0-0.7-0.1-1.4-0.3-2.1L31.7,79.7z M17.4,125.9c0.1-0.5,0.1-1,0.1-1.5c0-0.9-0.1-1.8-0.4-2.7l14.4-8.3c1,1.1,2.4,1.9,3.9,2.4v16.3
		c-1.4,0.4-2.6,1.1-3.7,2.1L17.4,125.9z M43.9,134.2c-1-1-2.3-1.7-3.7-2.1v-16.3c1.5-0.4,2.9-1.3,3.9-2.4l14.4,8.3
		c-0.3,0.8-0.4,1.7-0.4,2.7c0,0.5,0,1,0.1,1.5L43.9,134.2z M93.6,82.4c-3.2,1.9-6.8,1.5-9.6,0.8l4.8-2.8c1.2-0.7,1.6-2.1,0.9-3.3
		c-0.7-1.2-2.1-1.6-3.3-0.9l-4.8,2.8c0.7-2.7,2.3-6,5.5-7.9c4.6-2.7,10.3-1,12.9,0.1C99.6,73.9,98.2,79.7,93.6,82.4"/>
</g>
</svg>
