<svg xmlns="http://www.w3.org/2000/svg" viewBox="0 0 32.67 29.35"><defs><style>.cls-1{fill:#fff;}</style></defs><title>Recurso 1</title><g id="Capa_2" data-name="Capa 2"><g id="Capa_1-2" data-name="Capa 1"><path class="cls-1" d="M16.33,6.38A.64.64,0,1,0,17,7,.64.64,0,0,0,16.33,6.38Z"/><path class="cls-1" d="M5.74,17.86a.64.64,0,1,0-.64-.63A.64.64,0,0,0,5.74,17.86Z"/><path class="cls-1" d="M21.44,0C15.69,0,11,4,10.61,9,5.14,9.22,0,13.17,0,18.5a8.89,8.89,0,0,0,2.49,6.1,3.88,3.88,0,0,1-1,3.66.67.67,0,0,0-.14.7.66.66,0,0,0,.59.39,7,7,0,0,0,4.88-2,14.65,14.65,0,0,0,4.44.69c5.74,0,10.46-4,10.82-8.94a14.58,14.58,0,0,0,3.83-.68,7,7,0,0,0,4.87,2,.64.64,0,0,0,.59-.4.61.61,0,0,0-.14-.69,3.9,3.9,0,0,1-1-3.66,8.94,8.94,0,0,0,2.49-6.1C32.67,4,27.13,0,21.44,0ZM11.23,26.8A12.81,12.81,0,0,1,6.86,26a.65.65,0,0,0-.71.17,5.77,5.77,0,0,1-2.86,1.7,5.21,5.21,0,0,0,.39-3.8.67.67,0,0,0-.16-.27A7.66,7.66,0,0,1,1.28,18.5c0-4.49,4.55-8.29,10-8.29,5.09,0,9.57,3.54,9.57,8.29C20.8,23.08,16.51,26.8,11.23,26.8ZM29.15,14.91a.53.53,0,0,0-.16.27A5.13,5.13,0,0,0,29.38,19a5.7,5.7,0,0,1-2.86-1.7.65.65,0,0,0-.71-.16,12.61,12.61,0,0,1-3.76.74,9.17,9.17,0,0,0-3.45-6.37h8.32a.64.64,0,1,0,0-1.27H16.64A11.84,11.84,0,0,0,11.89,9c.37-4.28,4.51-7.67,9.55-7.67,5.39,0,10,3.79,10,8.29A7.72,7.72,0,0,1,29.15,14.91Z"/><path class="cls-1" d="M16.33,16.59h-8a.64.64,0,0,0,0,1.27h8a.64.64,0,1,0,0-1.27Z"/><path class="cls-1" d="M16.33,20.42H5.74a.64.64,0,1,0,0,1.27H16.33a.64.64,0,1,0,0-1.27Z"/><path class="cls-1" d="M26.92,6.38h-8a.64.64,0,1,0,0,1.28h8a.64.64,0,1,0,0-1.28Z"/></g></g></svg>