<svg xmlns="http://www.w3.org/2000/svg" viewBox="0 0 243.2 166.34"><defs><style>.cls-1{fill:#ed247e;}.cls-2{fill:#981b38;}.cls-3{fill:#36a9db;}.cls-4{fill:#2288c6;}.cls-5{fill:#8dc541;}.cls-6{fill:#46b34d;}</style></defs><title>b4h vector</title><g id="Layer_2" data-name="Layer 2"><g id="Layer_1-2" data-name="Layer 1"><path class="cls-1" d="M76.48,86.15h-44c-1,0-1.9.06-2.83.14V14.87A14.81,14.81,0,1,0,0,14.87v119a32.53,32.53,0,0,0,32.44,32.43h44a32.52,32.52,0,0,0,32.43-32.43V118.59A32.53,32.53,0,0,0,76.48,86.15Zm2.82,45.94a9.28,9.28,0,0,1-9.25,9.25H38.86a9.29,9.29,0,0,1-9.25-9.25V113.57H70.05a9.27,9.27,0,0,1,9.25,9.25Z"/><path class="cls-2" d="M13.71,86.29v0h-.08a13.63,13.63,0,0,0,0,27.26h16V86.29Z"/><path class="cls-3" d="M130.64.16a15.11,15.11,0,0,0-13.06,15.15v35.8a.05.05,0,0,1-.06.06H77.15a9.27,9.27,0,0,1-9.25-9.24V16.71A15.11,15.11,0,0,0,54.85,1.56a14.84,14.84,0,0,0-16.56,14.7V46.09a32.59,32.59,0,0,0,32.49,32.5h38.13c8.67,0,8.67,8.34,8.67,9.88v51.17h0a14.81,14.81,0,1,0,29.62.13V14.87A14.85,14.85,0,0,0,130.64.16Z"/><path class="cls-4" d="M132.39,166.28h0c-8.14,0-14.81-7.38-14.81-16.4V51.17h0s29.62,0,29.62,30.09v68.62C147.2,158.9,140.53,166.28,132.39,166.28Z"/><path class="cls-5" d="M226.65.1a15.12,15.12,0,0,0-13.06,15.16v53a.07.07,0,0,1-.07.07H193.45a7.75,7.75,0,0,1-7.75-7.75V35.85a15.12,15.12,0,0,0-13.06-15.16A14.85,14.85,0,0,0,156.09,35.4V151.09a15.11,15.11,0,0,0,13.06,15.15,14.84,14.84,0,0,0,16.55-14.7V98a.07.07,0,0,1,.07-.06h20.56a7.26,7.26,0,0,1,7.26,7.26v22.1a15.11,15.11,0,0,0,13.06,15.15,14.84,14.84,0,0,0,16.55-14.7v-113A14.85,14.85,0,0,0,226.65.1Z"/><path class="cls-6" d="M228.39,166.34h0c-8.14,0-14.8-5.78-14.8-14.8V68.37h0s29.61,0,29.61,30.08v53.09C243.2,160.56,236.54,166.34,228.39,166.34Z"/><path class="cls-6" d="M170.89,0h0C179,0,185.7,6.31,185.7,15.33V98h0s-29.61,0-29.61-30.09V14.81C156.09,5.79,162.75,0,170.89,0Z"/></g></g></svg>