<?xml version="1.0" encoding="utf-8"?>
<!-- Generator: Adobe Illustrator 20.0.0, SVG Export Plug-In . SVG Version: 6.00 Build 0)  -->
<svg version="1.1" id="Capa_1" xmlns="http://www.w3.org/2000/svg" xmlns:xlink="http://www.w3.org/1999/xlink" x="0px" y="0px"
	 viewBox="0 0 655 170.7" style="enable-background:new 0 0 655 170.7;" xml:space="preserve">
<style type="text/css">
	.st0{fill:#FFFFFF;}
	.st1{fill:#EAC171;}
	.st2{fill:#27965E;}
	.st3{fill:#E3B08B;}
	.st4{fill:none;}
	.st5{fill:#1C8EC3;}
	.st6{fill:#C75040;}
	.st7{fill:#070308;}
</style>
<g>
	<g>
		<g>
			<g>
				<path class="st0" d="M57,149.1c-23.4,0-41.6-25.7-41.6-55.9h83.2C98.6,123.5,80.5,149.1,57,149.1z"/>
			</g>
			<g>
				<path d="M66.2,23.5l0.7,0c0,0-0.4-3-5.9-2.7h-1.2c-0.1,0.1-0.6,1.7-0.6,1.7l3.7-0.3C62.9,22.2,65.4,22,66.2,23.5z"/>
				<path d="M60.2,25.5c0-0.1,0.8-0.9,0.8-0.9s0.1,0,0.2,0c-0.1,0.1-0.2,0.2-0.2,0.4c0,0.6,0.4,1.1,0.9,1.3c0.1,0,0.9,0,0.9,0
					c0.5-0.2,0.9-0.7,0.9-1.3c0-0.2-0.1-0.3-0.1-0.4c0.5,0.1,1.1,0.4,1.3,0.9l1.1,0.1c0,0-0.7-2.9-5.8-2.1c0,0-1.3,1.8-1.3,2
					C59,25.6,60.2,25.6,60.2,25.5z"/>
				<path d="M48.4,25.5l1.2-0.1c0.3-0.6,0.8-0.8,1.3-0.9c-0.1,0.1-0.1,0.2-0.1,0.3c0,0.6,0.3,1.1,0.9,1.3c0,0,0.8,0.1,0.9,0
					c0.6-0.2,1-0.7,1-1.3c0-0.1-0.1-0.1-0.1-0.2c0.2,0,0.3,0,0.3,0s0.7,0.7,0.7,0.8c0,0.1,1.3,0.1,1.2-0.1c0-0.1-1.3-2-1.3-2
					C49.1,22.5,48.4,25.5,48.4,25.5z"/>
				<path d="M51.5,22.2l3.8,0.2c0,0-0.4-1.5-0.4-1.6h-1c-5.8-0.3-6.3,2.6-6.3,2.6l0.7,0C49,21.9,51.5,22.2,51.5,22.2z"/>
				<path d="M62.6,62.4c-0.1-0.1-0.3-0.1-0.3-0.1C62.5,62.4,62.6,62.4,62.6,62.4z"/>
				<path d="M61.7,156.5c4-0.4,16-5.6,20-8.9c4.6,0.4,6.4-3.2,9.6-5c-0.2-0.2-0.5-0.4-0.9-0.5c1.9-1.2,2.9-2.7,5-4.4
					c-0.4-0.3-0.9-0.5-1.6-0.5c3.1-1.1,1-2.3,3.9-4.5c-0.2-0.1-0.3-0.2-0.5-0.4c2-1.3,1.8-3.1,3.7-5.1c-0.4-0.3-1-0.4-1.8-0.4
					c3.3-1.1,3-3.4,5.2-5.6c-0.1,0-0.7-0.1-1.4-0.2c1.9-1.5,1.3-3.5,2.8-5.7c-0.5-0.3-1.2-0.4-2-0.2c3-1.3,2.6-4.1,4.3-6.8
					c-0.3-0.3-0.7-0.4-1.3-0.4c2.4-2.4-0.7-1.5,1.2-6.4c-0.5-0.3-1.2-0.2-1.9,0.1c2.5-2,2-4.5,3.3-7.5c-1.6-0.3-5.3,2.2-6.4,4.3
					c0-0.1,0-0.2,0-0.3c0.4-0.7,0.8-1.5,2.2-2.3c3.7-2.7,2.3-5,3.3-8.6c-1.8-0.1-5,2.8-5.7,4.9c-0.1-0.3-0.1-0.5-0.2-0.7
					c0.5-0.9,0.6-2.1,2.6-3.1c3.2-1.8,2.2-4.9,3.2-8.4c-0.5-0.1-1.2,0.1-1.8,0.4c0.7-2.2-0.7-3.8-0.5-6.5c-1.7,0-4,3.2-4.1,5.4
					c-0.1-0.4-0.3-0.6-0.6-0.8c0.3-0.9,0.4-1.9,1.9-2.9c3.1-3.6,0.5-5.7,0.8-9.2c-0.3,0-0.6,0.1-0.9,0.3c-0.2-1.8-1.4-2.9-1.6-5.2
					c-1.8,0.2-3.4,3.5-3.2,5.7c-0.2-0.3-0.5-0.6-0.8-0.9c0.2-0.8,0.4-1.9,1.6-3c1.6-3.5,0-5.2-0.3-8.6c-0.5,0-1.1,0.3-1.6,0.8
					c0-2.3-1.3-3.3-2-5.9c-1.1,0.2-2.2,1.7-2.7,3.4c0-0.7,0.2-1.5,0.5-2.5c0.1-4.5-1.8-4.9-3.3-8.5c-0.6,0.4-1.1,1.5-1.4,2.7
					c-0.6-3-1.8-3.8-3.5-6.7c-1,0.9-1.5,3.8-1.1,6c-0.3-0.7-0.5-1.5-0.2-2.8c-0.4-3.6-2.2-4.8-3.9-7c0.9-0.1,1.8-0.3,2.8-1
					c0,0-1.6,0.1-2.4-0.4c-0.9-0.4-1.5-1.4-2.4-1.8c-1-0.5-1.9,0.1-3.5-0.9l9-1.9c-0.1,0-8.8-1.7-8.8-1.7s0.5-0.6,1.5-0.7
					c0.8,0.1,1.9-0.1,2.8-0.9c0.4-0.5,1.6-1.8,4-1.6c-2-1.2-3-0.8-4.9-0.1c-1.2,0.8-1.8,0.1-3.8,0.1c0,0,7.3-4.7,7.3-4.8l-8.8,1.9
					c1.4-2.2,2.8-1.1,3.6-3.8c0.2-0.6,1.2-1.7,2.8-2.4c-1.6-0.5-3.3,0.6-5.1,2.4c-0.6,0.3-2.1,0.9-3,1.1c-0.1-0.1,5-7.5,5-7.5
					s-5.1,3.6-7.5,5v-0.1c0.3-2.1,1.7-1.8,2-3.9c-0.1-0.7,0-2.6,1.6-4.2c-2,0.5-3,1.9-3.8,4.2c-0.4,0.8-1.5,1.2-2.5,2.3
					c0,0.1,1.7-8.8,1.7-8.8l-5,7.5c0,0-0.4-0.3-0.3-1.1c0.6-1.6,0.7-2.3,0.6-3c-0.5-1.1-1.1-2.7,0-4.7C59.7,5,61,7.5,60.2,9.2
					c-0.3,0.7-0.9,1.6-1.3,2.3l-1.4-8.7l-1.8,8.7c-1.1-1.4-0.4-1.9-1-3.4c-0.8-1.7-2.2-1.3-2.3-4.9c-0.6,1.3-1.3,2.1,0.3,5.7
					c0.2,0.4-0.2,2-0.1,3.1l-5-7.5l1.8,8.8c-1.1-0.1-1.4-2-2.3-2.8c-1.2-1-3-0.7-3.9-3.6c-0.4,2,0.3,3.1,2.1,4.9
					c0.7,0.9,1.1,2.4,1.3,3.3l-7.5-5c0,0,5,7.5,5.1,7.5c-1.7,0.2-1.8-2.1-5.1-1.9c-2.1,0-3.3-1.9-3.2-1.6c1,3.8,3.8,2.7,4.7,4.3
					c0.3,0.3,1.4,1.5,1.6,1.8l-8.7-1.8l7.5,4.8c-1.3,0.7-2.9-1-4.5-0.1c-2.9,1.5-4.2,0.1-4.5,0.1c1.7,2.2,2.9,1.7,4.6,1.8
					c1.3,0,2.2,0.7,3.7,1.3L31.9,28l8.7,1.7c-1,1-2.8,0.3-3.9,1.3c-2.6,3-5.3,1.4-4.4,1.9c2.3,1.5,3.5,1.1,4.8,0.6
					c-0.8,0.7-1.6,1.3-2.2,2.1c-0.1-0.6-0.3-1.2-0.8-1.6c-1.6,2.5-3.8,2.7-4.5,5.9c-0.1-0.8-0.5-1.5-0.9-1.9
					c-1.5,2.7-3.1,3.1-3.7,6.1c-0.2-0.8-0.6-1.3-1-1.7c-1.4,3.5-3.8,4.2-3.1,8.7c0.4,1.1,0.4,1.9,0.3,2.6c-0.2-1.8-1.1-3.6-2.3-3.8
					c-1.1,1.9-2.2,3.5-2.4,5.5c-0.4-0.3-0.9-0.5-1.3-0.5c-0.2,3.4-3,4.5-0.4,8.5c1.4,1.3,1.2,2.3,1.3,3.3c-0.1,0.1-0.3,0.3-0.4,0.5
					c0.2-2.1-1.7-5.3-3.4-5.5c-0.2,2.5-1.4,3.7-1.3,5.7c-0.4-0.2-0.8-0.4-1.2-0.4c0.4,3.5-2.2,4.9,1,8.4c1.5,1,1.6,2,1.9,2.8
					c-0.3,0.3-0.4,0.5-0.5,0.9C12,77,9.9,74,8.1,74c0.4,3.8-1.6,3.7-0.4,6.3c-0.7-0.3-1.3-0.5-1.8-0.5c1,3.4-0.1,6.3,3.2,8.2
					c1.9,1,2.1,2.3,2.6,3c-0.1,0.2-0.2,0.5-0.2,0.7c-0.7-2.2-3.9-4.9-5.6-4.8c0.9,3,0.3,5.8,2.1,7.5c-1-0.6-2.1-0.8-3-0.7
					c1.6,3.4,0.7,5.3,3.9,8.1c-1-0.5-2-0.7-2.7-0.3c0.9,2.3,0.6,4.1,1.5,5.8c-0.5,0-1,0.1-1.3,0.3c1.7,2.8,1.1,4.9,3.9,6.6
					c-0.7,0-1.3,0-1.6,0.3c1.3,2,1.3,3.8,2.3,5.3c-0.4,0.1-0.8,0.1-1.1,0.4c2.2,2,2.2,4.2,4.6,5.5c-0.7,0-1.2,0.2-1.6,0.4
					c1.7,1.8,2.3,3.4,3.9,4.7c-0.7,0.1-1.3,0.3-1.6,0.7c2.4,1.8,2.7,3.7,5.3,4.7c-0.7,0-1.3,0.2-1.7,0.4c3.1,2.5,1.1,3.4,4,4.5
					c-0.2,0.1-0.4,0.2-0.5,0.4c3.3,1.8,3.6,5.8,10.8,5.8c0,0,0,0,0,0c3.4,3.7,12.7,8.1,19.6,9L61.7,156.5z M105.8,103.3
					c-0.8,2.3,0,3.6-2,5.3c-1.4,0.3-1.3,0.7-1.7,1.1c0.2-0.9,0.5-1.6,1-2.2c-0.5,0.3-1,0.7-1.4,1.3c-0.3-0.3-0.9-0.2-1.6-1.6
					c-1-1.9-0.3-2.6-0.6-4.6c1,1.7,2.5,3.3,2.7,4.4C102.8,105.4,105,103.2,105.8,103.3z M102.1,104.5c0.4-0.6,0.9-1.2,2-1.7
					c-0.8,0.7-1.6,1.6-1.9,2.4C102.2,105,102.1,104.8,102.1,104.5z M106.8,95.7c-1.1,2.4-0.3,3.5-2.6,5.6c-1.5,0.6-1.4,1-1.8,1.4
					c0.3-0.8,0.7-1.6,1.2-2.3c-0.6,0.5-1.2,1-1.6,1.7c-0.3-0.2-0.9,0-1.5-1.2c-0.9-1.6-0.1-2.5-0.2-4.3c0.8,1.3,2.3,2.5,2.4,3.6
					C103.3,98.4,105.9,95.7,106.8,95.7z M102.8,93.7c0.4-1.8,2.5-4.7,3.4-4.8c-0.7,2.5,0.3,3.5-1.6,5.7c-1.4,0.8-1.2,1.1-1.6,1.7
					c0.1-0.9,0.4-1.8,0.8-2.5c-0.6,0.6-1.1,1.1-1.3,1.8c-0.3-0.1-0.9,0.1-1.8-1c-1.1-1.4-0.5-2.4-0.9-4
					C100.7,91.7,102.5,92.7,102.8,93.7z M100.2,88.5c0.9,1,1.5,1.3,1.8,2.2c-0.5-0.5-1.1-1-1.7-1.5C100.2,89,100.2,88.8,100.2,88.5z
					 M106.1,81.5c-0.7,2.4,0.4,3.4-1.6,5.5c-1.4,0.7-1.2,1.1-1.6,1.5c0.2-0.9,0.4-1.7,0.8-2.3c-0.5,0.5-1,1-1.3,1.8
					c-0.3-0.3-0.9,0-1.8-1.1c-1.2-1.5-0.5-2.4-1-4.1c1.2,1.2,2.9,2.2,3.2,3.2C103.1,84.4,105.3,81.5,106.1,81.5z M102.4,80.9
					c0-1.7,1.6-4.8,2.4-4.9c-0.2,2.4,1.1,3.3-0.5,5.5c-1.3,1-1.1,1.3-1.3,1.8c0-0.8,0.1-1.7,0.4-2.4c-0.5,0.6-0.8,1.1-1,1.9
					c-0.4-0.2-0.9,0.2-2-0.9c-1.5-1.2-1-2.2-1.8-3.8C100,79.2,101.9,79.9,102.4,80.9z M97.3,113.3c0.1-0.4,0.3-0.9,0.3-1.3
					c0,0.1,0.1,0.2,0.1,0.2c0.9,2.9,1.7,3,1.4,5.1c0,0.1-0.1,0.2-0.1,0.2C99.2,116.3,98.2,114.7,97.3,113.3z M93.8,127.9
					c0-0.9-0.6-1.9-1-2.9c0.2-0.3,0.3-0.6,0.5-1C93.5,126.1,94.1,126.6,93.8,127.9z M96.8,127.2c-1.3,0.4-2.4,0.9-3.1,1.6
					c0.1-0.1,0.1-0.2,0.1-0.3C94.5,128.3,95.2,127.3,96.8,127.2z M91.1,123.1c0,0-7.4,1.2-16.5-4.8c0.7-0.9,1.2-3.4,0.7-4.8
					c-0.2-1.1-0.2-0.2-0.6,0.6c-0.9,2.1-1.5,2.3-2.5,3.1c-2.7-2.7-3-2.8-6.5-4.8c-2.5-1.4-2.7-2.3-4.1-3.1c-2.3,1.1-6.1,3.3-8,2
					c-1.6-0.8,1.8-1.7,3.1-3.8c1.2-1.6,2.6-2.1,4.6-1.7c3.7,0.8,5.6,2.1,11.1,4.5c6.7,0.5,11.7,2.6,18.6,4c1.1,0.3,2.8,0.5,3.6,0.5
					C93.8,117.6,93,119.6,91.1,123.1z M61.5,115.7c2,2.3,3.8,2.7,5.1,5.5c-0.4,0.8-1.2,1-2,0.5c-3-3.4-5.8-3.9-4.6-5.5
					c-0.6-0.1-1.2,0.8-1,1.3c0.6,2.4,3.3,3.3,4.1,5.4c-0.4,1.7-3.6,0.2-5.2-4l-0.1-0.2c-0.6,1.2-1.1,1.7,1,4.3
					c0.5,0.9,0.8,2.1-0.8,1.8c0.3,0.3-0.8-0.1-0.3,0c0.1,0,0.2,0,0.3,0c0-0.1-0.2-0.1-0.3-0.2c0.8-4.2-3.1-3.4-2.9-3.4
					c0.6-1.5-1.6-3-3.8-2c0.3-1.1-2-2.9-5.2-1.6c-0.5-1.2-3.3-2.3-6.1,1.1c-4.8,0.5-12.8,4.7-17.6,2.6c-0.2,0.2-3-7.9-3.2-8.1
					c5.6-0.6,18.3-1.4,22.9-3.3c3.5-2.3,10.1-3.5,11.7-2.7c-0.1,1.3-3,3.6-1.5,4.7c2.5,2.4,6.5,1.3,9.2-0.3c2.8,2.9,7.3,3.2,9.1,7.1
					l-0.5,1.3c-0.9,0.7-1,0.7-2.1-0.9c-2.7-3.6-5.2-2.8-5.7-5.2C60.8,114.1,61.5,115.2,61.5,115.7z M48.5,123.1
					c-1,0.4,0.4-0.6,0.8-0.8l0.4-0.5c0.8-0.8,2-1.8,2.8-0.2c0.4,1-2.9,2.9-3.4,3.1c-0.6,0.2-0.6,0.2-1-0.3
					C47.7,123.7,47.9,123.2,48.5,123.1z M45.5,122.7c-0.6,0.2-1,0.2-1.4-0.3c-0.2-0.6,0.8-1.7,1.2-2.2c0.4-0.4,0.7-0.4,0.8-0.5
					l0.6-0.5c1.3-0.2,1.2,0,1.4,0.5C48.4,120.3,46.1,122.7,45.5,122.7z M53.7,123.3c0,0,1.3-1.5,1.9,0.6c0.2,0.8-1.3,1.7-2.6,2.1
					C52.3,125.5,50.7,125.6,53.7,123.3z M42.2,120.5c-0.5,0.2-1.4-0.7-0.9-0.9l0.6-1.1c0.9-0.4,1.5-0.7,1.8-0.3
					C43.9,118.7,42.7,120.3,42.2,120.5z M20.8,123.9c-0.2,0.3-0.3,0.6-0.5,0.9c0.1-0.3,0.2-0.8,0.3-1.2
					C20.7,123.8,20.7,123.8,20.8,123.9z M19.9,127.8c-0.5-0.5-1.1-0.9-1.9-1.2c0.7,0.2,1.3,0.5,1.8,0.7
					C19.8,127.4,19.8,127.6,19.9,127.8z M15,116.8c-0.1-0.1-0.1-0.1-0.1-0.2c-0.2-2.1,0.5-2.2,1.3-5c0.1,0.4,0.2,0.7,0.3,1.1
					C15.7,114,14.8,115.5,15,116.8z M15.5,76.7c-0.4,0.2-0.9,0.4-1.4,0.6c0.4-0.3,0.9-0.6,1.5-1.1C15.6,76.4,15.5,76.5,15.5,76.7z
					 M15.8,93.7c-0.3,0,39,0,39,0s0,11.3,0,11.5c-1.7-0.3-4.8-0.4-7.5,0c-7.2,1.3-4.8,4.8-29.5,5.2C15.7,102.9,15.8,93.7,15.8,93.7z
					 M40,36.9c0.3-0.4,0.8-0.4,1-2c1-3.1,2.7-2.7,4.8-4.1c0.7,0.9-1.9,4.4-3.5,5.4c1-0.1,2.4,1.1,3.9,1.7c-1.7,0.2-2.4,1.2-4.2,0.6
					c-1.3-0.4-1.2-1-1.5-1.3c0.6-0.5,1-1.1,1.4-1.8C41.5,36,40.8,36.5,40,36.9z M69.9,36c-0.7,0-1.4-0.3-2-0.5
					c1-0.2,1.9-0.7,2.7-1.1c1.7,0.3,3.1,1.1,3.2,2.6c-1.4-0.4-1.7,0.5-3.8,0.9c-1.9,0.4-2.9-0.7-4.7-1c-0.5-0.4-0.7-0.8-0.7-1.1
					c0.9,0.2,1.7,0.2,2.6,0L67.1,36C68.1,36.3,69,36.1,69.9,36z M63.6,33.5c0.9,0.1,1.7-0.2,2.6-0.6c-0.6,0.1-1.2,0.1-1.9,0.1
					c1.2-0.8,2-1.8,3.6-1.7c2.2,0,2.2,1.3,3.5,0.6C71.6,33,65.2,35.9,63.6,33.5z M60.6,33c1,0.3,2,2.1,3.2,3.3
					c-1.6-0.5-2.5,0.1-4-1.2c-1.1-0.9-0.9-1.4-1.1-1.8c0.7-0.2,1.2-0.7,1.7-1.2c-0.7,0.4-1.5,0.7-2.3,0.8c0.5-0.4,0.8-0.2,1.5-1.5
					c2-1.9,3-0.9,5.4-1.4C64.9,30.8,62.2,32.8,60.6,33z M55.4,33.5c1,0.1,2.3,1.6,3.7,2.6c-1.7-0.1-2.5,0.5-4.1-0.4
					c-1.2-0.6-1.1-1.2-1.3-1.6c0.6-0.4,1.1-0.9,1.5-1.5c-0.6,0.5-1.4,0.9-2.1,1.2c0.4-0.4,0.8-0.3,1.3-1.8c1.7-2.2,2.6-1.4,4.8-2.4
					C59.2,30.4,57,32.9,55.4,33.5z M51.9,36.6c-1.7,0-2.5,0.8-4.1,0c-1.3-0.5-1.1-1.1-1.4-1.4c0.6-0.4,1.1-1.1,1.5-1.7
					c-0.6,0.6-1.3,1-2.1,1.4c0.4-0.4,0.8-0.4,1.2-1.9c1.7-2.4,2.9-1.7,5-2.9c0.1,0.8-2.2,3.5-3.8,4.3C49.2,34.4,50.5,35.7,51.9,36.6
					z M80.1,44.8c0.2,0,0.4,0,0.6,0c-0.2,0-0.3,0.1-0.5,0.1C80.2,44.9,80.2,44.8,80.1,44.8z M94.5,64.6c0.4,0.3,0.8,0.5,1.1,0.7
					c-0.3-0.1-0.6-0.2-0.9-0.3C94.6,64.8,94.6,64.7,94.5,64.6z M74,108.2c-3.9-0.7-8.9-5.1-14.6-4.8v-9.8c0.1,0,38.8,0,38.8,0
					c0,1.3-0.6,11.7-2.7,18.8C87.7,112.4,80.3,108,74,108.2z M98.4,76.2c0.7,0.5,1.2,0.9,1.6,1.2c-0.5-0.3-1-0.5-1.5-0.7
					C98.4,76.5,98.4,76.4,98.4,76.2z M102.9,68.7c-0.2,2.5,1,3.4-0.5,5.6c-1.3,0.8-1,1.1-1.3,1.6c0-0.8,0-1.6,0.4-2.4
					c-0.5,0.5-0.8,1.1-1,1.8c-0.4-0.1-0.9,0.1-2-0.8c-1.5-1.4-1-2.3-1.8-3.9c1.4,1.1,3.3,1.9,3.8,2.9
					C100.5,71.9,102.1,69,102.9,68.7z M99.1,68.6c-0.3-1.7,0.7-4.8,1.5-5.1c0.3,2.4,1.7,3.1,0.6,5.5c-1.1,1-0.8,1.3-1,1.8
					c-0.2-0.8-0.3-1.6-0.1-2.4c-0.3,0.6-0.6,1.3-0.6,2c-0.5-0.1-0.9,0.3-2.2-0.6c-1.7-1.1-1.5-2.1-2.5-3.6
					C96.4,67.2,98.4,67.7,99.1,68.6z M97.3,56.6c0.3,2.4,1.7,3.1,0.5,5.5c-1.1,0.9-0.9,1.2-1,1.7c-0.2-0.8-0.2-1.6-0.1-2.4
					c-0.4,0.6-0.6,1.2-0.7,1.9c-0.4-0.1-0.9,0.3-2.2-0.7c-1.8-1.1-1.4-2.1-2.5-3.6c1.6,0.9,3.7,1.5,4.3,2.5
					C95.4,59.9,96.4,56.9,97.3,56.6z M94,51.6c0.7,2.3,2.2,3,1.6,5.4c-0.9,1-0.6,1.4-0.7,1.9c-0.3-0.9-0.5-1.6-0.5-2.4
					c-0.3,0.6-0.3,1.3-0.3,2c-0.4-0.1-0.8,0.4-2.3-0.4c-2-1-1.9-2-3.2-3.4c1.8,0.8,3.9,1.2,4.7,2C92.8,55.1,93.3,51.9,94,51.6z
					 M92.3,55.3c-0.3-0.4-0.7-0.7-1.2-0.9c0.3,0.1,0.7,0.3,1.2,0.7C92.3,55.2,92.3,55.2,92.3,55.3z M89.5,44.9
					c1,2.4,1.9,2.1,1.8,5.1c-0.5,1.6-0.2,1.7-0.2,2.4c-0.4-0.8-0.8-1.6-0.9-2.5c-0.1,0.8,0,1.6,0.2,2.4c-0.4,0.1-0.6,0.6-2,0.3
					c-1.8-0.4-1.9-1.6-3.3-2.7c1.7,0.3,3.6,0,4.4,0.7C88.8,48.9,88.9,45.5,89.5,44.9z M85.5,46.1c-0.9-1.4-1.1-4.7-0.6-5.4
					c1.3,2.2,2.1,1.7,2.4,4.6c-0.4,1.6-0.1,1.8,0.1,2.4c-0.5-0.7-0.9-1.5-1.1-2.4c0,0.9,0.1,1.6,0.3,2.3c-0.3,0.1-0.6,0.7-1.9,0.5
					c-1.9-0.1-2.1-1.2-3.6-2.1C82.7,46.1,84.7,45.5,85.5,46.1z M79.2,35.7c1.4,2.1,2.8,2,3.1,4.9c-0.4,1.5,0,1.7,0.1,2.2
					c-0.5-0.7-1-1.4-1.2-2.2c0,0.8,0.1,1.5,0.4,2.2c-0.4,0.1-0.6,0.7-2,0.6c-1.9,0-2.1-1.1-3.7-1.8c1.7-0.1,3.6-0.7,4.6-0.2
					C79.5,39.9,78.7,36.4,79.2,35.7z M78.2,34c-0.1,0.3-0.2,0.6-0.2,0.9c-0.3-0.4-0.6-0.8-0.9-1C77.5,33.9,77.9,34,78.2,34z
					 M77.6,36.1c-0.2,1.7,0.3,1.6,0.6,2.3c-0.2-0.1-0.3-0.1-0.5-0.1c-0.6-0.6-1.1-1.4-1.4-1.8c0.3,1.3,0.3,1.8,0.8,2.4
					c-0.2,0.2-0.5,0.5-1.3,0.5c-2.3,0.2-2.7-0.4-3.6-0.9c1.5-0.6,2.2-1.4,3.7-1c0,0,0-0.2-0.1-0.4c0,0,0,0,0.1,0c-0.1,0-0.1,0-0.1,0
					c-0.2-0.5-0.6-1.1-1.3-1.7c-0.7-1.1-1.1-2.5-0.9-3C75.3,34.1,76.9,33.4,77.6,36.1z M76.2,32c0,0-0.8,0-1.9,0
					c-0.2-0.1-0.5-0.4-0.7-0.6C74.6,31.6,75.8,31.9,76.2,32z M42.6,30.5c1.7-0.8,2.1-1.3,2.1-1.3l-5.4-1.5l5.6-1.1
					c0,0-0.2-0.3-3.4-1.3c-0.6-0.2-0.1-0.8-2.8-1.4c1-0.2,0.7,0.3,2.5,0.6c1.3,0,2.3,0.2,4.1-0.2c0,0-3.3-2.5-5.5-3.7
					c0,0,3.6,0.9,6.4,1.6c0-0.3-2.3-2.1-3.7-3.9c-0.4-0.4-0.5-0.7-0.8-1c1.5,0.5,1.5,1,2.4,1.6c0.9,0.4,2.8,1.4,3.4,1.3
					c-1.6-2.3-3.9-5.5-3.9-5.5l5.7,3.8c-0.2-1.4-1.3-2.6-1.4-3.1c-0.7-2.4-0.5-2.2-1-3.1c1.5,2.3,2.1,3.6,4.5,5l-1-7.1l3.4,6.2
					c0.2-0.9,0-2.6-0.1-3.2C54,10,54,11.9,53.6,9.5c0.4,1.4,0.4,1.1,0.6,2.8c0.6,1.4,1,2.4,1.8,3.6l1.4-6.5c0,0,1.1,6.5,0.9,6.6
					c0.7-1.4,0.6-2.1,1.3-3.2c1-1.8,1.4-3.3,1.4-3.3c-0.5,2.7-0.5,1.8-0.7,3.3c0.1,1.4-0.1,3.3,0.4,3.6l4.1-5.8l-1.6,6.8
					c0.5-0.2,2.2-2.3,3.6-3.4c0.4-0.4,1.2-1.6,1.2-1.6c-0.9,1.3-1.2,2-1.7,2.9c-0.7,1.6-0.5,1.1-1.3,3.4l5.8-3.9l-3.9,5.7
					c0,0,0.3,0.2,2.9-1.3c1.6-0.4,2.8-1,3.6-1.6c-1.9,1.7-2.8,1.6-5.2,4.8l6.5-1.4c0,0-5.4,3.3-5.7,3.5c0.3,0.3,2.6-0.4,4.3,0
					c1.5,0.1,1.5,0.1,2.9-0.2c-1.7,0.6-2.1,0.3-4,1c-0.8,0.5-2.4,1-2.6,1.4l6.6,1.2c0,0-6.5,1.5-7.6,1.9c-0.4,0-0.7-0.1-1.1-0.1
					c-0.3,0-0.6,0.1-0.9,0.1c0.3-0.4,0.4-1,0.3-1.4c-2.2,0.5-4.2-0.1-6,0.4c0.1-0.5,0.2-1,0.1-1.3c-2.7,1.3-5,0.7-7.2,2.4
					c0-0.5-0.1-1.1-0.3-1.8c-2.3,1.3-4.4,0.5-6,1.9c0.1-0.5,0-0.9-0.1-1.2c-2.4,1-4.4,1.3-6.2,3.1c-0.5-0.1-1-0.1-1.5-0.1
					c-0.1-0.1-0.1-0.2-0.2-0.3c0,0.1-0.1,0.1-0.2,0.2c-0.3-0.1-0.7,0-1.1,0.1C40.4,31.2,41.7,31,42.6,30.5z M34.9,38.3
					c0.7-2.7,2.2-2.3,3.8-4c0.4,0.7-0.9,3.9-2.1,5c1-0.3,2.8,0.7,4.5,1c-1.6,0.4-2.1,1.4-4,1.1c-1.4-0.1-1.5-0.8-1.9-1
					c0.4-0.5,0.6-1.2,0.7-2c-0.3,0.8-0.9,1.3-1.5,1.8C34.7,39.9,35.1,39.8,34.9,38.3z M38.4,38.6c-0.1,0-0.1,0-0.2,0.1
					c0,0,0,0,0-0.1C38.3,38.6,38.4,38.6,38.4,38.6z M30.8,41.6c0.3-2.8,1.7-2.7,3.1-4.7c0.5,0.7-0.3,4.1-1.3,5.5
					c0.9-0.5,2.8,0.2,4.5,0.3c-1.5,0.7-1.8,1.8-3.7,1.8c-1.4,0.1-1.6-0.5-2-0.6c0.3-0.7,0.4-1.4,0.4-2.1c-0.2,0.8-0.7,1.5-1.2,2.1
					C30.8,43.3,31.1,43.1,30.8,41.6z M29.6,44c-0.1,0.4-0.2,0.8-0.3,1.1c0,0.1-0.1,0.1-0.1,0.1C29.4,44.9,29.5,44.4,29.6,44z
					 M26,45.5c0.2-3,1.1-2.7,2.4-4.8c0.5,0.7,0.3,4.1-0.6,5.5c0.9-0.6,2.7,0,4.4-0.1c-1.5,0.8-1.7,2-3.5,2.1
					c-1.4,0.1-1.6-0.4-1.9-0.5c0.3-0.8,0.4-1.5,0.4-2.2c-0.2,0.8-0.6,1.6-1.1,2.2C26.2,47.2,26.5,47,26,45.5z M24,45.3
					c0.5,0.6,0.6,4.1-0.1,5.6c0.8-0.6,2.7-0.4,4.2-0.6c-1.3,1.1-1.5,2.2-3.2,2.6c-1.3,0.3-1.6-0.2-1.9-0.3c0.2-0.8,0.3-1.5,0.2-2.3
					c-0.1,0.8-0.5,1.7-0.9,2.4c0-0.6,0.3-0.8-0.1-2.3C22.1,47.6,23,47.7,24,45.3z M21.2,55.5c0.3-0.2,0.6-0.4,0.8-0.5
					c-0.3,0.1-0.6,0.4-0.8,0.7C21.2,55.6,21.2,55.5,21.2,55.5z M19.4,52.1c0.8,0.3,1.2,3.4,0.6,5c0.8-0.8,2.9-1.2,4.7-1.9
					c-1.3,1.3-1.2,2.4-3.1,3.3c-1.5,0.7-1.8,0.3-2.3,0.4c0.1-0.6-0.1-1.3-0.3-1.9c0.1,0.8-0.2,1.5-0.5,2.3c-0.1-0.5,0.3-0.8-0.7-1.8
					C17.2,54.9,18.7,54.3,19.4,52.1z M15.7,62.4C14.6,60,16,59.3,16.2,57c0.8,0.2,1.8,3.2,1.5,4.9c0.7-0.9,2.7-1.5,4.3-2.5
					c-1,1.5-0.8,2.5-2.5,3.6c-1.2,0.9-1.7,0.6-2.1,0.7c0-0.7-0.3-1.3-0.6-1.9c0.2,0.7,0.1,1.5-0.1,2.3
					C16.6,63.6,16.8,63.3,15.7,62.4z M19.4,64.6c-0.1,0.2-0.2,0.3-0.3,0.6c-0.6,0.2-1.3,0.5-1.9,0.8C17.7,65.5,18.3,65.2,19.4,64.6z
					 M13.4,63.7c0.8,0.2,1.8,3.3,1.5,4.9c0.6-0.8,2.7-1.4,4.3-2.2c-1.1,1.4-0.8,2.3-2.5,3.5c-1.3,0.8-1.7,0.5-2.2,0.6
					c0-0.7-0.3-1.3-0.6-2c0.2,0.8,0.1,1.6-0.1,2.4c-0.1-0.5,0.1-0.8-0.9-1.7C11.7,66.7,13.1,66.1,13.4,63.7z M11.6,74.4
					c-1.6-2.3-0.4-3.1-0.5-5.5c0.9,0.2,2.4,3.1,2.5,4.8c0.4-0.9,2.3-1.8,3.7-2.9c-0.7,1.6-0.3,2.5-1.8,3.9c-1.1,1-1.7,0.7-2,0.8
					c-0.2-0.7-0.5-1.3-1-1.8c0.3,0.8,0.4,1.6,0.4,2.4C12.6,75.5,12.8,75.2,11.6,74.4z M9.2,75.9c0.9,0.2,2.4,3.2,2.4,4.8
					c0.5-1,2.3-1.6,3.7-2.7c-0.8,1.6-0.3,2.5-1.8,3.8c-1.1,0.9-1.6,0.6-2,0.7c-0.2-0.6-0.6-1.3-1-1.9c0.3,0.8,0.4,1.6,0.4,2.4
					c-0.2-0.5,0-0.8-1.3-1.7C8.2,79.2,9.4,78.3,9.2,75.9z M11.7,87.7c-0.3-0.7-0.8-1.2-1.3-1.7c0.4,0.7,0.7,1.5,0.8,2.3
					c-0.3-0.5-0.2-0.8-1.6-1.5c-1.9-2.1-1.2-2.7-1.8-5c0.9,0.1,3.1,2.6,3.5,4.1c0.3-1,1.9-1.9,3.1-3.2c-0.4,1.7,0.2,2.5-1,4
					C12.6,87.7,12,87.5,11.7,87.7z M13.8,88.1c0,0.3,0,0.6,0,0.9c-0.6,0.4-1.3,0.9-1.7,1.3C12.4,89.5,13,89.2,13.8,88.1z M7.8,89
					c0.9,0.1,3.1,2.7,3.5,4.3c0.3-1,1.9-1.9,3.1-3.2c-0.4,1.6,0.2,2.6-0.9,4c-0.8,1.1-1.4,0.8-1.8,1c-0.3-0.7-0.8-1.3-1.3-1.8
					c0.5,0.7,0.7,1.5,0.8,2.4c-0.3-0.5-0.2-0.9-1.6-1.6C7.7,92,8.5,91.4,7.8,89z M11.3,97.7c0,0.1,0,0.2,0,0.2
					c-0.4-0.8-1.2-1.7-2.1-2.5l0,0C10.5,96.1,11,96.9,11.3,97.7z M7.5,95.9c0.9,0.1,3.2,2.2,3.9,3.7c0.1-1,1.5-2.2,2.4-3.5
					c-0.1,1.7,0.7,2.6-0.2,4.2c-0.6,1.2-1.2,1-1.5,1.2c-0.4-0.7-0.9-1.2-1.5-1.7c0.5,0.7,0.9,1.5,1.2,2.3c-0.4-0.5-0.3-0.8-1.8-1.4
					C6.5,97.7,10.1,101.7,7.5,95.9z M12,104.1c-0.1,0.2-0.1,0.4-0.1,0.6c-0.4-0.9-1.3-1.7-2.2-2.4C10.7,102.8,11.4,103.5,12,104.1z
					 M11.8,106.4c0.2-1.1,1.6-2.6,2.6-4.3c-0.2,1.8,0.4,2.6-0.6,4.4c-0.7,1.4-1.2,1.4-1.5,1.7c-0.3-0.7-0.8-1-1.4-1.4
					c0.5,0.6,0.8,1.3,1,2.1c-0.4-0.4-0.3-0.8-1.6-1.2c-2-1.5-1.1-2.3-1.9-4.5C9.2,103.2,11.4,105,11.8,106.4z M8.7,108.6
					c0.8-0.3,3.5,1.6,4.2,3c-0.1-1.1,1.2-2.8,1.9-4.6c0.1,1.8,0.9,2.4,0.2,4.4c-0.5,1.5-1.1,1.5-1.4,1.8c-0.5-0.5-1-0.8-1.7-1.1
					c0.6,0.4,1,1.2,1.4,1.9c-0.5-0.3-0.4-0.7-1.8-0.8C9.3,112,9.9,110.7,8.7,108.6z M15.3,118.5c-0.1-1.1,1.2-2.9,1.8-4.5
					c0.1,1.8,0.9,2.4,0.3,4.3c-0.5,1.4-1,1.4-1.3,1.7c-0.5-0.5-1-0.8-1.6-1.1c0.6,0.5,1,1.1,1.4,1.9c-0.5-0.2-0.5-0.7-1.9-0.7
					c-2.4-1.1-1.7-2.5-3-4.6C11.8,115.3,14.6,117,15.3,118.5z M12.5,120.9c0.7-0.4,3.8,0.9,4.9,2.3c-0.3-1.1,0.7-2.9,1.1-4.6
					c0.4,1.7,1.3,2.1,1,4.1c-0.2,1.4-0.8,1.6-1,1.9c-0.6-0.5-1.2-0.7-1.9-0.8c0.7,0.3,1.3,1,1.8,1.6c-0.5-0.2-0.5-0.6-2-0.5
					C13.7,124.2,14.1,122.7,12.5,120.9z M15.5,127c0.8-0.4,3.9,1,4.9,2.4c-0.2-1,0.8-2.8,1.3-4.5c0.4,1.6,1.3,2.1,0.9,4.1
					c-0.2,1.4-0.8,1.5-1.1,1.8c-0.5-0.5-1.2-0.7-2-0.9c0.7,0.4,1.3,0.9,1.8,1.6c-0.5-0.2-0.6-0.7-2.1-0.5
					C16.6,130.2,17.1,128.8,15.5,127z M17.8,132c0.7-0.4,4.1,0.5,5.4,1.6c-0.4-0.9,0.3-2.7,0.5-4.4c0.7,1.6,1.7,1.9,1.6,3.7
					c0,1.4-0.6,1.6-0.8,2c-0.6-0.4-1.3-0.5-2.1-0.6c0.8,0.3,1.4,0.7,2,1.3c-0.5-0.2-0.6-0.5-2.1-0.2C19.6,134.9,19.8,133.5,17.8,132
					z M25.5,137c0,0.3,0.1,0.5,0.2,0.8c-0.7-0.6-1.7-1-2.8-1.2C23.9,136.5,24.8,136.8,25.5,137z M21.1,137.3c0.8-0.4,4.2,0.8,5.5,2
					c-0.4-1,0.4-2.7,0.6-4.4c0.7,1.6,1.7,2,1.5,3.8c-0.1,1.4-0.7,1.5-0.8,1.8c-0.6-0.4-1.3-0.6-2.1-0.7c0.8,0.3,1.4,0.9,2.1,1.5
					c-0.6-0.2-0.7-0.6-2.2-0.5C22.8,140.3,23,138.9,21.1,137.3z M33.4,146.1c-0.5-0.5-1.1-1-2.3-0.7c-3-0.3-3.8-2.2-6-3.5
					c0.7-0.4,4.4,0.2,5.9,1.2c-0.6-0.9-0.1-2.6-0.2-4.3c0.9,1.5,2.1,1.7,2.3,3.5c0.2,1.5,0.2,2.4,0.5,3.2c-0.5-0.5-1.1-0.8-1.6-1.1
					C32.5,144.9,33,145.4,33.4,146.1z M29.8,141.7C29.8,141.7,29.8,141.7,29.8,141.7L29.8,141.7L29.8,141.7z M49.1,153.8
					c-6.5-2-12.2-5.1-13.7-7.3c-0.5-1.2-0.7-2.6-1-4.5c0-0.1-0.1-0.1-0.1-0.2c4.6,3.9,9.7,6.8,15.1,8.1H49
					C47.2,152.2,48.2,153.4,49.1,153.8z M56.8,148.6c-17.9-0.4-28.5-15-32.6-22.1c-0.6-0.8,10.2-4.2,12.6-4.9l3-0.8
					c0.1,1.4,2.4,1.8,2.2,1.2c0.5,0.3-0.2,1.2,1.2,2.2c1.5,1,2.3,0.5,2.5,0.2c-0.9,0.9,2.2,2.6,4.1,1.4c-0.3,1,1.3,1.2,1.6,1.3
					c0.7,0.4,2.3,0.7,3.4,0c0,0,0,6.3,0,9.8c0.2,1.8,0.3,2.4,1.1,2.6c4,0.4,3.2-0.9,3.5-2.1c-0.1-4.3-0.2-10.4-0.2-10.4
					c2.8-0.3,2-1,3.1-1.3c1.2,0.2,1.8,0.2,2.8-1.2c1.4,0.1,2.7-0.3,3.1-1.5c1.2,0.5,2.9-0.8,3.9-3c2.7,0.9,12.3,6,16.8,7.4
					C86.9,130.9,75.8,148.6,56.8,148.6z M87.9,138.2c0.4-0.2,0.9-0.3,1.6-0.4c-0.6,0.3-1.3,0.6-1.7,0.9
					C87.8,138.5,87.9,138.3,87.9,138.2z M83.6,142.6C83.6,142.6,83.5,142.6,83.6,142.6C83.5,142.6,83.6,142.6,83.6,142.6L83.6,142.6
					z M78.9,142.8c-0.3,1.7-0.5,2.9-0.8,4c-1.6,3.1-9.9,5.8-13.4,7c1-1,1.6-2.9,0.2-3.9h-0.3c5.1-1.3,9.9-3.8,14.3-7.4
					C78.9,142.7,78.9,142.8,78.9,142.8z M83,145.8c-1.3-0.3-2.2,0.5-2.8,1c0.5-0.7,1.1-1.5,1.6-1.9c-0.6,0.2-1.3,0.5-1.8,0.8
					c0.1-0.6,0-1.3,0.2-2.5c0.3-1.8,1.4-2,2.4-3.6c-0.1,1.8,0.4,3.5-0.2,4.4c1.6-1,5.3-1.6,6-1.2C86,144.2,86,145.6,83,145.8z
					 M87.7,141.9c-1.5-0.2-1.7,0.2-2.2,0.4c0.6-0.6,1.4-1.1,2.1-1.4c-0.8,0.1-1.5,0.3-2.2,0.8c-0.1-0.4-0.8-0.6-0.8-2
					c-0.1-1.9,0.9-2.2,1.7-3.8c0.2,1.7,0.9,3.5,0.5,4.5c1.3-1.2,4.9-2.4,5.6-2C90.5,139.9,90.7,141.3,87.7,141.9z M91.1,136.6
					c-1.5-0.3-1.7,0.1-2.2,0.3c0.7-0.6,1.4-1.1,2.1-1.4c-0.8,0-1.5,0.2-2.1,0.6c-0.2-0.3-0.8-0.5-0.8-2c0-1.9,1-2.2,1.7-3.8
					c0.1,1.7,0.9,3.5,0.5,4.5c1.2-1.2,4.7-2.1,5.4-1.6C93.7,134.7,94,136.1,91.1,136.6z M94.3,132.2c-1.5-0.1-1.6,0.3-2.1,0.6
					c0.5-0.6,1.1-1.3,1.8-1.7c-0.7,0.1-1.4,0.5-1.9,0.9c-0.2-0.4-0.9-0.4-1.1-1.8c-0.4-2,0.5-2.4,0.9-4.2c0.5,1.7,1.5,3.5,1.3,4.6
					c1-1.4,4.2-2.9,5-2.5C96.5,129.9,97,131.4,94.3,132.2z M97.7,125.9c-1.5-0.1-1.6,0.2-2.1,0.5c0.5-0.6,1.1-1.2,1.8-1.6
					c-0.7,0.2-1.4,0.5-2,0.9c-0.2-0.4-0.8-0.5-1-2c-0.4-2,0.6-2.4,1-4.2c0.4,1.8,1.4,3.7,1.2,4.7c1.1-1.3,4.2-2.6,4.9-2.2
					C99.9,123.7,100.3,125.2,97.7,125.9z M100.1,121c-1.5,0-1.5,0.4-1.9,0.8c0.4-0.8,0.8-1.5,1.4-1.9c-0.6,0.3-1.2,0.5-1.7,1.2
					c-0.3-0.4-0.9-0.5-1.3-1.9c-0.7-2,0.2-2.6,0.3-4.4c0.7,1.7,1.9,3.6,1.9,4.6c0.8-1.5,3.6-3.2,4.4-3
					C101.8,118.4,102.5,119.9,100.1,121z M100.6,116.2c0.3-0.3,0.6-0.4,1.1-0.6C101.4,115.8,101,115.9,100.6,116.2z M102.5,114
					c-1.4,0.1-1.4,0.5-1.9,0.8c0.4-0.7,0.8-1.4,1.4-1.9c-0.6,0.3-1.2,0.5-1.7,1.1c-0.3-0.3-0.8-0.3-1.3-1.8c-0.7-2,0.1-2.6,0.1-4.5
					c0.7,1.8,2,3.5,2,4.7c0.7-1.6,3.4-3.4,4.2-3.1C104.2,111.5,104.8,112.9,102.5,114z"/>
			</g>
			<path class="st1" d="M42.6,30.5c1.7-0.8,2.2-1.3,2.2-1.3l-5.4-1.5l5.6-1.1c0,0-0.2-0.3-3.4-1.3c-0.6-0.2-0.1-0.8-2.8-1.4
				c1-0.2,0.7,0.3,2.5,0.6c1.3,0,2.3,0.2,4.1-0.2c0,0-3.3-2.5-5.5-3.7c0,0,3.6,0.9,6.4,1.6c0-0.3-2.3-2.1-3.7-3.9
				c-0.4-0.4-0.5-0.7-0.8-1c1.5,0.5,1.5,1,2.4,1.6c0.9,0.4,2.8,1.4,3.4,1.3c-1.6-2.3-3.9-5.5-3.9-5.5l5.7,3.8
				c-0.2-1.4-1.3-2.6-1.4-3.1c-0.7-2.4-0.5-2.2-1-3.1c1.5,2.3,2.1,3.6,4.5,5l-1.1-7.1l3.4,6.2c0.3-0.9,0-2.6-0.1-3.2
				C54,10,54,11.9,53.6,9.5c0.4,1.4,0.4,1.1,0.6,2.8c0.6,1.4,1,2.4,1.8,3.6l1.4-6.5c0,0,1.1,6.5,0.9,6.6c0.7-1.4,0.6-2.1,1.3-3.2
				c1.1-1.8,1.4-3.3,1.4-3.3c-0.5,2.7-0.5,1.8-0.7,3.3c0.1,1.4-0.1,3.3,0.4,3.6l4.1-5.8l-1.6,6.8c0.5-0.2,2.2-2.3,3.6-3.4
				c0.4-0.4,1.2-1.6,1.2-1.6c-0.9,1.3-1.2,2-1.7,2.9c-0.7,1.6-0.5,1.1-1.3,3.4l5.8-3.9l-3.9,5.7c0,0,0.3,0.2,2.9-1.3
				c1.6-0.4,2.8-1,3.6-1.6c-1.9,1.7-2.8,1.6-5.2,4.8l6.5-1.4c0,0-5.4,3.3-5.7,3.5c0.3,0.3,2.6-0.4,4.3,0c1.5,0.1,1.5,0.1,2.9-0.2
				c-1.7,0.6-2.1,0.3-4,1c-0.8,0.5-2.4,1-2.7,1.4l6.6,1.2c0,0-6.5,1.5-7.5,1.9c-0.3-0.1-0.7-0.1-1.1-0.1c-0.3,0-0.6,0.1-0.9,0.1
				c0.3-0.4,0.4-1,0.3-1.4c-2.2,0.5-4.2-0.1-6,0.4c0.1-0.5,0.2-1,0.1-1.3c-2.7,1.3-5,0.7-7.2,2.4c0-0.5-0.1-1.1-0.3-1.8
				c-2.4,1.3-4.4,0.5-6,1.9c0.1-0.5,0-0.9-0.1-1.2c-2.4,1-4.4,1.3-6.2,3.1c-0.5-0.1-1-0.1-1.5-0.1c-0.1-0.1-0.1-0.2-0.2-0.3
				c0,0.1-0.1,0.1-0.2,0.2c-0.3-0.1-0.7,0-1.1,0.1C40.4,31.2,41.7,31,42.6,30.5z"/>
			<path d="M66.2,23.5l0.7,0c0,0-0.4-3-5.9-2.7h-1.2c0,0.1-0.6,1.7-0.6,1.7l3.7-0.3C62.9,22.2,65.4,22,66.2,23.5z"/>
			<path d="M60.2,25.5c0-0.1,0.8-0.9,0.8-0.9s0.1,0,0.2,0c-0.1,0.1-0.1,0.2-0.1,0.4c0,0.6,0.3,1.1,0.9,1.3c0.1,0,0.9,0,0.9,0
				c0.5-0.2,0.9-0.7,0.9-1.3c0-0.2-0.1-0.3-0.1-0.4c0.5,0.1,1.1,0.4,1.3,0.9l1.1,0.1c0,0-0.7-2.9-5.8-2.1c0,0-1.3,1.8-1.3,2
				C59,25.6,60.2,25.6,60.2,25.5z"/>
			<path d="M48.4,25.5l1.2-0.1c0.3-0.6,0.9-0.8,1.3-0.9c-0.1,0.1-0.1,0.2-0.1,0.3c0,0.6,0.3,1.1,0.9,1.3c0,0,0.8,0.1,0.9,0
				c0.6-0.2,0.9-0.7,0.9-1.3c0-0.1-0.1-0.1-0.1-0.2c0.2,0,0.3,0,0.3,0s0.7,0.7,0.7,0.8c0,0.1,1.3,0.1,1.2-0.1c0-0.1-1.3-2-1.3-2
				C49.1,22.5,48.4,25.5,48.4,25.5z"/>
			<path d="M51.5,22.2l3.8,0.2c0,0-0.4-1.5-0.4-1.6h-1c-5.8-0.3-6.3,2.5-6.3,2.5h0.7C49.1,21.8,51.5,22.2,51.5,22.2z"/>
			<path class="st2" d="M105.8,103.3c-0.9,2.3,0,3.7-2,5.3c-1.4,0.3-1.3,0.7-1.7,1.1c0.2-0.9,0.5-1.6,1-2.2
				c-0.6,0.3-1.1,0.7-1.4,1.3c-0.3-0.3-0.9-0.2-1.6-1.6c-1-1.9-0.3-2.7-0.6-4.5c1,1.6,2.5,3.2,2.7,4.3
				C102.8,105.5,105,103.2,105.8,103.3z"/>
			<path class="st2" d="M106.8,95.7c-1,2.4-0.3,3.5-2.6,5.6c-1.4,0.6-1.4,1-1.8,1.5c0.3-0.9,0.7-1.7,1.2-2.4
				c-0.6,0.5-1.2,1.1-1.6,1.7c-0.3-0.2-1,0-1.6-1.2c-0.9-1.7-0.1-2.5-0.2-4.3c0.9,1.4,2.4,2.6,2.5,3.6
				C103.4,98.5,105.9,95.7,106.8,95.7z"/>
			<path class="st2" d="M102.8,93.7c0.4-1.7,2.5-4.7,3.4-4.8c-0.7,2.5,0.3,3.5-1.6,5.7c-1.4,0.8-1.2,1.1-1.6,1.7
				c0.2-0.9,0.4-1.8,0.9-2.5c-0.5,0.6-1.1,1.2-1.4,1.8c-0.3-0.1-0.9,0.1-1.8-1c-1.2-1.4-0.5-2.4-1-4
				C100.8,91.7,102.5,92.7,102.8,93.7z"/>
			<path class="st2" d="M106.1,81.5c-0.6,2.4,0.4,3.4-1.6,5.5c-1.4,0.7-1.3,1.1-1.6,1.5c0.2-0.8,0.4-1.7,0.8-2.3
				c-0.5,0.5-1,1-1.3,1.8c-0.4-0.2-0.9,0-1.8-1.1c-1.2-1.5-0.5-2.3-1-4.1c1.2,1.3,2.9,2.3,3.2,3.2C103.2,84.4,105.3,81.6,106.1,81.5
				z"/>
			<path class="st2" d="M102.4,80.9c0.1-1.7,1.6-4.7,2.4-4.9c-0.1,2.5,1.1,3.3-0.5,5.5c-1.3,1-1.1,1.3-1.3,1.8
				c0-0.8,0.1-1.6,0.4-2.4c-0.5,0.6-0.9,1.1-1,1.9c-0.4-0.1-0.9,0.2-2-0.9c-1.5-1.2-1-2.2-1.8-3.8C100.1,79.2,102,80,102.4,80.9z"/>
			<path class="st2" d="M40,37c0.4-0.5,0.8-0.5,1.1-2c0.9-3,2.6-2.7,4.8-4.1c0.7,0.9-1.9,4.4-3.5,5.4c1-0.1,2.4,1.1,4,1.7
				c-1.8,0.3-2.5,1.1-4.2,0.5c-1.2-0.4-1.2-1-1.5-1.3c0.6-0.5,1-1.2,1.4-1.9C41.5,36.1,40.8,36.5,40,37z"/>
			<path class="st2" d="M69.9,36c-0.7,0-1.3-0.3-2-0.5c0.9-0.3,1.9-0.7,2.6-1.2c1.7,0.3,3.2,1.2,3.3,2.6c-1.4-0.4-1.7,0.5-3.8,0.8
				c-2,0.5-3-0.7-4.7-1c-0.6-0.5-0.8-0.8-0.8-1.2c0.9,0.2,1.8,0.2,2.6,0L67.2,36C68.1,36.3,69,36.2,69.9,36z"/>
			<path class="st2" d="M63.6,33.5c0.9,0.1,1.7-0.2,2.5-0.5c-0.6,0.1-1.2,0-1.8,0c1.1-0.8,2-1.8,3.6-1.7c2.2,0,2.2,1.3,3.6,0.7
				C71.6,33,65.3,36,63.6,33.5z"/>
			<path class="st2" d="M60.6,33c1,0.3,2,2.1,3.3,3.3c-1.7-0.5-2.5,0.1-4-1.1c-1.1-0.9-0.9-1.5-1.1-1.9c0.7-0.3,1.2-0.7,1.7-1.3
				c-0.7,0.4-1.5,0.7-2.3,0.8c0.4-0.3,0.8-0.2,1.5-1.5c2-1.9,3-0.9,5.4-1.4C64.9,30.8,62.2,32.8,60.6,33z"/>
			<path class="st2" d="M55.5,33.5c1,0.1,2.2,1.6,3.6,2.6c-1.7-0.1-2.5,0.6-4.1-0.4c-1.2-0.7-1-1.3-1.3-1.6c0.6-0.4,1-1,1.5-1.6
				c-0.6,0.5-1.4,0.9-2.2,1.2c0.4-0.5,0.8-0.4,1.3-1.8c1.8-2.2,2.6-1.4,4.8-2.4C59.2,30.4,57,32.9,55.5,33.5z"/>
			<path class="st2" d="M52,36.6c-1.7,0-2.5,0.9-4.1,0c-1.2-0.5-1.1-1.1-1.4-1.4c0.6-0.4,1-1,1.4-1.7c-0.6,0.6-1.3,1-2.1,1.4
				c0.4-0.4,0.8-0.3,1.2-1.9c1.6-2.4,2.9-1.7,5.1-2.9c0.1,0.8-2.3,3.6-3.9,4.3C49.2,34.4,50.5,35.8,52,36.6z"/>
			<path class="st2" d="M103,68.8c-0.2,2.5,1.1,3.3-0.5,5.6c-1.3,0.8-1,1.1-1.3,1.6c0-0.8,0.1-1.6,0.4-2.4c-0.4,0.6-0.8,1.2-1,1.9
				c-0.4-0.2-0.9,0.1-2-0.9c-1.5-1.3-1-2.3-1.8-3.9c1.4,1.1,3.4,1.9,3.8,2.9C100.6,71.9,102.1,69,103,68.8z"/>
			<path class="st2" d="M99.1,68.6c-0.3-1.7,0.7-4.8,1.5-5.1c0.3,2.4,1.7,3.1,0.5,5.5c-1.1,1-0.8,1.3-1,1.8
				c-0.2-0.8-0.3-1.6-0.1-2.3c-0.3,0.6-0.6,1.2-0.6,1.9c-0.4-0.1-0.9,0.3-2.2-0.6c-1.7-1.1-1.5-2.1-2.5-3.6
				C96.4,67.2,98.5,67.7,99.1,68.6z"/>
			<path class="st2" d="M97.3,56.6c0.2,2.4,1.7,3.1,0.5,5.5c-1.1,0.9-0.8,1.2-1,1.7c-0.1-0.8-0.2-1.6,0-2.3
				c-0.3,0.5-0.6,1.2-0.7,1.8c-0.4-0.1-0.9,0.2-2.2-0.7c-1.7-1.2-1.4-2.1-2.5-3.7c1.6,0.9,3.7,1.6,4.4,2.5
				C95.4,59.9,96.5,56.9,97.3,56.6z"/>
			<path class="st2" d="M94.1,51.7c0.7,2.3,2.2,2.9,1.5,5.4c-0.9,1-0.6,1.4-0.7,1.9c-0.3-0.8-0.5-1.6-0.5-2.4
				c-0.2,0.7-0.4,1.3-0.3,2c-0.4,0-0.8,0.4-2.3-0.3c-1.9-1-1.8-2-3.2-3.4c1.8,0.8,3.9,1.1,4.8,2C92.8,55.1,93.3,52,94.1,51.7z"/>
			<path class="st2" d="M89.5,44.9c1.1,2.4,1.9,2.1,1.8,5.2c-0.5,1.5-0.2,1.7-0.2,2.4c-0.4-0.8-0.8-1.6-0.9-2.5c0,0.7,0,1.5,0.2,2.3
				c-0.4,0.1-0.7,0.6-2,0.3c-1.8-0.4-1.9-1.6-3.3-2.7c1.6,0.3,3.5,0,4.4,0.7C88.8,48.9,89,45.5,89.5,44.9z"/>
			<path class="st2" d="M85.5,46.1c-0.9-1.3-1.1-4.7-0.6-5.4c1.3,2.2,2.1,1.7,2.3,4.7c-0.4,1.5-0.1,1.7,0.1,2.3
				c-0.5-0.7-1-1.5-1.2-2.3c0,0.8,0.1,1.5,0.4,2.2c-0.4,0.1-0.6,0.8-2,0.5c-1.8-0.1-2.1-1.2-3.6-2.1C82.8,46.1,84.7,45.6,85.5,46.1z
				"/>
			<path class="st2" d="M79.2,35.7c1.4,2.1,2.8,1.9,3.1,4.9c-0.4,1.5,0,1.7,0.1,2.2c-0.5-0.7-1-1.4-1.2-2.1c0,0.8,0.1,1.4,0.5,2.1
				c-0.4,0.2-0.6,0.8-2,0.6c-1.9,0-2.2-1.1-3.7-1.8c1.7-0.1,3.6-0.7,4.6-0.2C79.5,39.9,78.7,36.4,79.2,35.7z"/>
			<path class="st2" d="M77.6,36.1c-0.2,1.7,0.3,1.6,0.5,2.3c-0.2-0.1-0.3-0.1-0.4-0.1c-0.6-0.6-1.1-1.4-1.4-1.8
				c0.3,1.3,0.3,1.8,0.8,2.4c-0.2,0.2-0.5,0.4-1.3,0.5c-2.3,0.2-2.8-0.4-3.7-0.9c1.5-0.6,2.3-1.4,3.7-0.9c0-0.1,0-0.3-0.1-0.5
				c0,0,0.1,0,0.1,0c0,0-0.1,0-0.1,0c-0.2-0.5-0.6-1.1-1.3-1.7c-0.7-1.2-1.2-2.5-0.9-3.1C75.3,34.1,76.9,33.4,77.6,36.1z"/>
			<path class="st2" d="M34.9,38.3c0.7-2.7,2.2-2.3,3.8-4c0.4,0.7-0.8,3.9-2.1,5c1-0.4,2.8,0.6,4.5,1c-1.7,0.5-2.1,1.5-4,1.2
				c-1.5-0.2-1.6-0.8-1.9-1c0.4-0.5,0.6-1.2,0.7-2c-0.3,0.8-0.9,1.3-1.5,1.9C34.7,39.9,35.1,39.8,34.9,38.3z"/>
			<path class="st2" d="M30.8,41.6c0.3-2.7,1.7-2.7,3.1-4.7c0.5,0.7-0.2,4.2-1.3,5.5c0.9-0.4,2.8,0.2,4.5,0.3
				c-1.6,0.7-1.8,1.8-3.7,1.8c-1.4,0-1.6-0.6-2-0.7c0.3-0.6,0.4-1.3,0.5-2.1c-0.2,0.8-0.7,1.5-1.2,2.2
				C30.8,43.3,31.2,43.2,30.8,41.6z"/>
			<path class="st2" d="M26.1,45.6c0.2-3,1-2.6,2.3-4.8c0.5,0.7,0.2,4.2-0.6,5.5c0.8-0.5,2.7,0,4.4-0.1c-1.5,0.9-1.7,2-3.6,2.1
				c-1.4,0.1-1.6-0.5-1.9-0.5c0.3-0.7,0.4-1.4,0.4-2.2c-0.2,0.8-0.6,1.6-1.1,2.2C26.2,47.2,26.5,47.1,26.1,45.6z"/>
			<path class="st2" d="M24,45.3c0.6,0.6,0.7,4.1-0.1,5.6c0.8-0.6,2.7-0.4,4.3-0.6c-1.4,1.1-1.5,2.2-3.3,2.7
				c-1.3,0.3-1.6-0.2-1.9-0.3c0.3-0.7,0.3-1.5,0.2-2.3c-0.1,0.9-0.5,1.7-0.9,2.4c0-0.6,0.4-0.7-0.1-2.2C22.1,47.6,23,47.7,24,45.3z"
				/>
			<path class="st2" d="M19.4,52.1c0.8,0.3,1.2,3.4,0.5,5c0.8-0.8,2.9-1.2,4.7-1.9c-1.3,1.3-1.2,2.4-3.1,3.3
				c-1.4,0.7-1.8,0.3-2.3,0.5c0.1-0.7,0-1.4-0.2-2c0,0.8-0.2,1.6-0.5,2.4c-0.1-0.6,0.3-0.8-0.6-1.8C17.2,54.9,18.7,54.3,19.4,52.1z"
				/>
			<path class="st2" d="M15.8,62.4C14.6,60,16,59.3,16.2,57c0.8,0.2,1.8,3.2,1.5,4.9c0.7-0.9,2.7-1.6,4.3-2.5
				c-1.1,1.5-0.7,2.5-2.4,3.6c-1.3,0.9-1.8,0.5-2.2,0.7c0-0.7-0.3-1.3-0.6-1.8c0.2,0.7,0.1,1.5-0.1,2.3
				C16.6,63.7,16.9,63.3,15.8,62.4z"/>
			<path class="st2" d="M13.4,63.8c0.8,0.2,1.8,3.2,1.5,4.9c0.7-0.8,2.7-1.5,4.3-2.3c-1.1,1.4-0.8,2.4-2.5,3.5
				c-1.2,0.8-1.7,0.5-2.1,0.6c-0.1-0.7-0.3-1.3-0.7-1.9c0.2,0.7,0.1,1.5,0,2.3c-0.2-0.5,0.1-0.8-1-1.7
				C11.7,66.8,13.1,66.1,13.4,63.8z"/>
			<path class="st2" d="M11.7,74.4c-1.6-2.2-0.3-3.1-0.5-5.4c0.9,0.1,2.4,3,2.4,4.7c0.4-1,2.4-1.8,3.8-2.9c-0.8,1.6-0.3,2.5-1.8,3.8
				c-1.1,1-1.6,0.7-2,0.8c-0.2-0.7-0.6-1.3-1-1.8c0.3,0.7,0.4,1.5,0.4,2.3C12.7,75.5,12.9,75.2,11.7,74.4z"/>
			<path class="st2" d="M9.2,76c0.9,0.2,2.4,3.2,2.5,4.8c0.5-0.9,2.3-1.7,3.8-2.7c-0.8,1.6-0.3,2.5-1.8,3.8c-1.1,0.9-1.6,0.6-2,0.8
				c-0.2-0.7-0.6-1.3-1-1.9c0.4,0.8,0.4,1.6,0.4,2.4c-0.3-0.5,0-0.8-1.3-1.7C8.2,79.2,9.4,78.3,9.2,76z"/>
			<path class="st2" d="M11.7,87.7c-0.3-0.7-0.8-1.2-1.3-1.7c0.5,0.7,0.7,1.5,0.8,2.3c-0.3-0.5-0.2-0.9-1.6-1.5
				c-1.9-2.1-1.1-2.7-1.7-5.1c0.8,0.1,3.1,2.6,3.4,4.1c0.3-1,2-1.9,3.2-3.2c-0.5,1.7,0.2,2.5-1,4C12.6,87.7,12,87.5,11.7,87.7z"/>
			<path class="st2" d="M7.9,89c0.8,0.1,3.1,2.7,3.4,4.3c0.3-1,1.9-1.9,3.1-3.1c-0.4,1.7,0.2,2.6-0.9,4c-0.8,1.1-1.4,0.7-1.7,1
				c-0.3-0.7-0.8-1.3-1.3-1.8c0.4,0.7,0.6,1.5,0.8,2.3c-0.3-0.4-0.2-0.8-1.6-1.6C7.7,92,8.5,91.5,7.9,89z"/>
			<path class="st2" d="M7.5,95.9c0.8,0.1,3.2,2.2,3.9,3.8c0.1-1,1.5-2.2,2.4-3.5c-0.1,1.7,0.7,2.6-0.2,4.2c-0.6,1.2-1.2,1-1.5,1.2
				c-0.4-0.7-1-1.2-1.6-1.6c0.5,0.6,0.9,1.4,1.2,2.3c-0.4-0.5-0.3-0.9-1.8-1.5C6.5,97.7,10.1,101.7,7.5,95.9z"/>
			<path class="st2" d="M11.9,106.4c0.2-1,1.6-2.6,2.6-4.2c-0.3,1.7,0.4,2.5-0.6,4.3c-0.7,1.5-1.3,1.4-1.6,1.7
				c-0.3-0.6-0.8-1-1.4-1.4c0.5,0.6,0.8,1.3,1.1,2.1c-0.4-0.4-0.4-0.8-1.7-1.1c-2-1.5-1.1-2.3-1.9-4.5
				C9.2,103.2,11.4,105,11.9,106.4z"/>
			<path class="st2" d="M8.7,108.6c0.8-0.3,3.5,1.6,4.2,3.1c-0.1-1.2,1.2-2.9,1.9-4.7c0.1,1.8,0.9,2.4,0.2,4.4
				c-0.5,1.5-1.1,1.5-1.3,1.8c-0.4-0.5-1-0.8-1.6-1.1c0.6,0.5,1,1.2,1.4,1.9c-0.4-0.3-0.4-0.7-1.8-0.8
				C9.4,112.1,9.9,110.7,8.7,108.6z"/>
			<path class="st2" d="M15.3,118.5c0-1.1,1.2-2.8,1.9-4.5c0.1,1.8,0.9,2.4,0.3,4.3c-0.5,1.5-1,1.5-1.3,1.8c-0.4-0.5-1-0.8-1.7-1.1
				c0.6,0.4,1,1.1,1.4,1.9c-0.5-0.3-0.4-0.7-1.9-0.8c-2.4-1.1-1.8-2.5-3-4.6C11.9,115.3,14.6,117,15.3,118.5z"/>
			<path class="st2" d="M12.5,121c0.7-0.5,3.8,0.9,4.9,2.2c-0.3-1,0.7-2.9,1.1-4.6c0.4,1.8,1.3,2.2,1,4.1c-0.2,1.4-0.8,1.5-1,1.9
				c-0.6-0.5-1.2-0.6-1.9-0.8c0.7,0.4,1.2,0.9,1.8,1.5c-0.6-0.1-0.6-0.6-2.1-0.5C13.7,124.2,14.2,122.7,12.5,121z"/>
			<path class="st2" d="M15.5,127c0.7-0.4,3.8,1.1,4.9,2.4c-0.2-1,0.8-2.8,1.3-4.4c0.4,1.6,1.3,2.1,0.9,4c-0.3,1.4-0.8,1.5-1.1,1.8
				c-0.6-0.5-1.2-0.7-1.9-0.9c0.7,0.4,1.2,1,1.7,1.6c-0.5-0.2-0.5-0.7-2-0.5C16.6,130.2,17.1,128.8,15.5,127z"/>
			<path class="st2" d="M17.9,132c0.7-0.4,4.1,0.5,5.4,1.6c-0.4-0.9,0.3-2.7,0.5-4.4c0.7,1.6,1.8,1.9,1.7,3.8c0,1.4-0.6,1.5-0.8,1.9
				c-0.6-0.4-1.3-0.5-2.1-0.6c0.7,0.3,1.4,0.7,2,1.3c-0.5-0.1-0.7-0.5-2.2-0.2C19.6,134.9,19.8,133.5,17.9,132z"/>
			<path class="st2" d="M21.1,137.3c0.8-0.4,4.2,0.8,5.5,2c-0.4-0.9,0.4-2.7,0.6-4.4c0.6,1.6,1.7,2,1.5,3.8c0,1.4-0.6,1.5-0.8,1.8
				c-0.6-0.4-1.3-0.6-2.1-0.7c0.8,0.3,1.5,0.8,2.1,1.5c-0.6-0.2-0.7-0.6-2.2-0.5C22.8,140.3,23.1,138.9,21.1,137.3z"/>
			<path class="st2" d="M33.4,146.1c-0.5-0.4-1.1-1-2.3-0.7c-3-0.3-3.8-2.2-6-3.5c0.7-0.4,4.4,0.3,5.9,1.2c-0.6-0.9-0.1-2.6-0.2-4.3
				c0.9,1.5,2.1,1.7,2.3,3.5c0.2,1.5,0.2,2.4,0.5,3.2c-0.5-0.5-1-0.8-1.6-1.1C32.5,144.9,33,145.5,33.4,146.1z"/>
			<path class="st2" d="M83,145.8c-1.3-0.3-2.1,0.5-2.8,1c0.5-0.7,1.1-1.5,1.6-1.9c-0.6,0.1-1.2,0.4-1.7,0.7c0.1-0.6,0-1.3,0.2-2.5
				c0.3-1.8,1.4-2,2.4-3.6c-0.2,1.8,0.3,3.6-0.3,4.4c1.5-1,5.3-1.6,6-1.2C86,144.2,86,145.6,83,145.8z"/>
			<path class="st2" d="M87.7,141.9c-1.5-0.2-1.6,0.2-2.2,0.4c0.6-0.6,1.3-1.1,2.2-1.5c-0.8,0.1-1.5,0.4-2.2,0.8
				c-0.2-0.4-0.8-0.6-0.8-2c-0.1-1.8,1-2.2,1.7-3.8c0.2,1.7,1,3.5,0.5,4.5c1.3-1.2,4.8-2.4,5.6-2C90.5,139.9,90.7,141.3,87.7,141.9z
				"/>
			<path class="st2" d="M91.1,136.6c-1.5-0.3-1.6,0.1-2.2,0.3c0.6-0.6,1.4-1.1,2.1-1.4c-0.8,0.1-1.5,0.3-2.1,0.6
				c-0.2-0.3-0.8-0.5-0.8-2c-0.1-1.9,1-2.2,1.7-3.8c0.2,1.7,0.9,3.7,0.5,4.5c1.3-1.1,4.7-2.1,5.5-1.6
				C93.8,134.7,94,136.1,91.1,136.6z"/>
			<path class="st2" d="M94.3,132.2c-1.5-0.1-1.5,0.3-2,0.5c0.5-0.6,1.1-1.3,1.8-1.7c-0.7,0.1-1.4,0.5-1.9,0.9
				c-0.2-0.3-0.8-0.4-1.1-1.8c-0.4-2,0.5-2.4,0.9-4.2c0.5,1.7,1.5,3.5,1.3,4.6c1-1.4,4.2-2.9,5-2.5C96.5,129.9,97,131.4,94.3,132.2z
				"/>
			<path class="st2" d="M97.7,126c-1.5-0.2-1.5,0.1-2,0.4c0.5-0.6,1.1-1.2,1.8-1.6c-0.7,0.2-1.4,0.5-2,0.9c-0.2-0.4-0.8-0.5-1-2
				c-0.4-2,0.6-2.5,1-4.2c0.4,1.8,1.4,3.7,1.1,4.7c1.1-1.4,4.2-2.6,5-2.3C100,123.7,100.4,125.2,97.7,126z"/>
			<path class="st2" d="M100.1,121c-1.5,0-1.4,0.5-1.9,0.8c0.4-0.7,0.8-1.4,1.4-1.9c-0.6,0.2-1.2,0.6-1.7,1.1
				c-0.3-0.4-0.8-0.4-1.3-1.8c-0.7-2,0.1-2.6,0.2-4.5c0.7,1.7,2,3.5,1.9,4.6c0.8-1.5,3.6-3.2,4.4-3
				C101.8,118.5,102.5,119.9,100.1,121z"/>
			<path class="st2" d="M102.5,114c-1.5,0.2-1.5,0.5-1.9,0.8c0.3-0.8,0.8-1.5,1.4-1.9c-0.6,0.3-1.2,0.6-1.7,1.1
				c-0.2-0.3-0.8-0.3-1.3-1.8c-0.7-2,0.1-2.6,0.1-4.5c0.8,1.8,2,3.5,2,4.7c0.8-1.5,3.5-3.4,4.3-3.1
				C104.2,111.5,104.9,112.9,102.5,114z"/>
			<path class="st3" d="M91.1,123.1c0,0-7.4,1.2-16.5-4.8c0.7-0.9,1.1-3.4,0.7-4.8c-0.2-1.1-0.3-0.2-0.6,0.6
				c-0.9,2.1-1.5,2.3-2.5,3.1c-2.7-2.7-3.1-2.8-6.5-4.8c-2.5-1.4-2.7-2.2-4.1-3.1c-2.4,1.1-6.1,3.3-8.1,2c-1.5-0.8,1.8-1.7,3.2-3.8
				c1.2-1.6,2.6-2.2,4.6-1.7c3.7,0.7,5.5,2.1,11.1,4.5c6.7,0.6,11.7,2.6,18.6,4.1c1.2,0.3,2.8,0.4,3.6,0.5
				C93.8,117.6,93,119.6,91.1,123.1z"/>
			<path class="st3" d="M61.5,115.7c2,2.3,3.8,2.7,5.1,5.5c-0.4,0.8-1.2,1-2.1,0.5c-3-3.4-5.8-3.9-4.6-5.5c-0.7-0.1-1.2,0.8-1.1,1.4
				c0.5,2.3,3.3,3.3,4.1,5.4c-0.4,1.6-3.7,0.1-5.2-4.1l-0.1-0.2c-0.7,1.2-1.1,1.7,1,4.3c0.4,1,0.8,2-0.8,1.8c0.3,0.3-0.8-0.1-0.3,0
				c0.1,0,0.2,0,0.3,0c-0.1,0-0.2-0.1-0.3-0.2c0.8-4.2-3.1-3.4-3-3.4c0.6-1.4-1.6-3-3.7-2c0.3-1.1-2-2.9-5.2-1.6
				c-0.5-1.2-3.4-2.3-6.1,1.1c-4.8,0.4-12.8,4.7-17.6,2.5c-0.2,0.2-3-7.9-3.2-8.1c5.6-0.6,18.4-1.4,22.9-3.3
				c3.6-2.3,10.2-3.5,11.7-2.7c-0.1,1.3-3,3.6-1.5,4.7c2.5,2.4,6.4,1.3,9.1-0.3c2.8,2.9,7.4,3.3,9.1,7.1l-0.5,1.3
				c-0.9,0.6-1,0.6-2.1-0.9c-2.7-3.6-5.2-2.8-5.7-5.2C60.8,114.1,61.5,115.2,61.5,115.7z"/>
			<path class="st3" d="M48.5,123.1c-1.1,0.4,0.4-0.6,0.8-0.8l0.4-0.5c0.8-0.8,2-1.8,2.8-0.2c0.4,0.9-2.9,2.9-3.5,3
				c-0.6,0.2-0.6,0.2-1-0.3C47.7,123.7,47.9,123.3,48.5,123.1z"/>
			<path class="st3" d="M45.5,122.7c-0.6,0.2-1.1,0.2-1.4-0.3c-0.2-0.6,0.8-1.7,1.2-2.2c0.3-0.4,0.7-0.5,0.8-0.6l0.6-0.5
				c1.2-0.2,1.1,0,1.4,0.5C48.4,120.3,46.1,122.7,45.5,122.7z"/>
			<path class="st3" d="M53.6,123.3c0,0,1.4-1.4,1.9,0.5c0.2,0.8-1.2,1.7-2.6,2.1C52.3,125.5,50.7,125.6,53.6,123.3z"/>
			<path class="st3" d="M42.2,120.5c-0.5,0.2-1.4-0.7-0.9-0.9l0.6-1.1c0.9-0.4,1.5-0.7,1.8-0.3C43.9,118.7,42.6,120.3,42.2,120.5z"
				/>
			<path class="st4" d="M59.3,103.5V79.9c0,0,8.1,0.1,9.9-0.3c0,0,2.7-0.8,3.2-3.4c0.3-1.7-1.1-6.5-1.3-7.5c0,0-1.4-1.4-1.5-2.5
				c0,0-0.8-8.8-2.6-11.3c-1.8-2.5-4.4-5.5-10.4-5.4c-5.9,0.1-9,3.9-9.4,6.5c-0.5,3.1,2.7,3.4,2.7,3.4s-0.9,1.5-1.4,2.3
				c-0.6,0.8-2.1,2.2-3.7,5.2c-1.5,3-2.9,7.6-2.2,9.2c0.7,1.6,3.9,3.4,7.1,3.8c3.2,0.4,5.1,0.1,5.1,0.1v23.2L59.3,103.5z"/>
			<g>
				<path class="st5" d="M57,38.4c-22.2,0-40.3,23.5-41.1,53h82.2C97.3,61.9,79.2,38.4,57,38.4z"/>
			</g>
			<g>
				<path d="M59.3,103.5l0.1-23.3c0,0,8,0.2,9.7-0.1c0,0,2.9-1.2,3.4-3.7c0.3-1.7-1-6.9-1.3-7.9c0,0-1.4-1-1.5-2.2
					c0,0-0.8-8.8-2.6-11.3c-1.8-2.5-4.4-5.5-10.4-5.4c-5.9,0.1-8.8,4-9.2,6.7c-0.6,3.5,3.2,3.4,3.2,3.4s-1.6,1.4-2.2,2.1
					c-0.6,0.8-2.1,2.2-3.7,5.2c-1.5,3-2.6,7.8-2,9.3c0.7,1.6,3.5,3.5,6.7,3.9c3.2,0.4,5.3-0.1,5.3-0.1v23.2L59.3,103.5z"/>
				<g>
					<path class="st6" d="M50.7,71.5c-2.3,0.1-3.3,1.3-5.4,1.4c0,0,0.4-4.3,4.7-9.5c1.7-2,5.8-4.2,7.9-5.1l0-0.5
						c-1.9,0.3-6.8,1.2-8.2-0.9c-0.2-2.2,2.7-4.6,6.8-4.9c2.6-0.1,4.4,0.8,6.3,1.9c2.2,1.6,3.3,4.1,3.6,6.7
						c-2.8,1.2-3.5,1.8-3.8,1.9c0.4,0.1,1.1,0.2,1.9,0.2c1,0,1.6-0.1,2.1-0.2c0.1,0.5,0.1,1,0,1.5c0.2,0.2,0.4,0.5,0.5,0.7
						c-4.9,2.2-7.4,3.1-7.7,2.8c0,0,0.9,0.2,2,0.3c1.6,0.1,4.1-0.7,5.8-1.2c0,0.9,0,1.7,1.5,2.3l0.1,0.1h-0.1c-5,2.7-7,2.5-7.4,2.2
						l-3.6-0.7c1,0.4,2.8,2.1,4.7,2.3c1.8,0.3,5-1.3,6.9-1.8l0.6,2.3c-3,0-6.3,4.3-10.9,2.8C56.7,74.1,53.9,71.5,50.7,71.5z"/>
					<path class="st6" d="M54.8,77.7c-2.3-0.1-5.9,0-6-0.2c-1.1-0.2-4.1-1.9-3.7-2.3c0.2,0,1.1,0.2,3.8-1C52,73,54.7,76.9,54.8,77.7
						z"/>
					<path class="st6" d="M70.3,75.3c-0.1,0.8-0.8,2.2-1.7,2.3c-0.6-0.1-3.5,0-5.2,0c1.2,0,1.9-0.4,2.6-0.7
						C70.9,74.6,70.3,75.3,70.3,75.3z"/>
				</g>
			</g>
			<path class="st0" d="M54.5,161.5c0.3-0.8-0.1-1.8-0.1-1.8s-1.6,2.4-3.8,3.7c-2,1.2-5.4,1.9-6,2c0.4,0.5,0.9,0.9,1.5,1.3
				c0.6-0.1,3.1-0.3,5.6-1.9C53.3,163.8,54.5,161.5,54.5,161.5z"/>
			<g>
				<path class="st5" d="M59.7,161.5c-0.3-0.8,0.1-1.8,0.1-1.8s1.6,2.4,3.8,3.7c1.9,1.2,5.3,1.9,6,2l0,0c0.9-0.9,1.6-1.8,1.6-1.8
					s-3.1-0.4-6-1.3c-3-0.9-4.3-2.8-4.6-3.3c-0.2-0.6,0.3-1.9,0.7-2.3c0.4-0.4,5.4-0.8,5.2-5c-0.2-4.9-8.4-3.5-9.4-3.3
					c-1.1-0.2-9.2-1.6-9.4,3.3c-0.2,4.2,4.8,4.6,5.2,5c0.4,0.4,1,1.7,0.7,2.3c-0.3,0.5-1.5,2.4-4.5,3.3c-3,0.9-6,1.3-6,1.3
					s0.6,0.9,1.5,1.8c0.6-0.1,4-0.9,6-2c2.2-1.4,3.8-3.7,3.8-3.7s0.4,1.1,0.1,1.8c0,0-1.2,2.3-2.8,3.4c-2.5,1.5-5.1,1.8-5.6,1.9
					c0.8,0.5,1.6,1,2.4,0.9c5.2-0.2,7.2-6,7.2-6s0.6,0.5,1.4,0.6l0,0c0,0,0,0,0,0s0,0,0,0l0,0c0.8-0.1,1.5-0.6,1.5-0.6s2,5.8,7.2,6
					c0.8,0.1,1.6-0.4,2.4-0.9c-0.7-0.1-3.2-0.4-5.6-1.9C60.9,163.8,59.7,161.5,59.7,161.5z"/>
				<path class="st0" d="M69.6,165.4c-0.7-0.1-4-0.9-6-2c-2.2-1.4-3.8-3.7-3.8-3.7s-0.4,1.1-0.1,1.8c0,0,1.2,2.3,2.8,3.4
					c2.5,1.5,4.9,1.8,5.6,1.9c0,0,0,0,0,0C68.7,166.4,69.2,165.9,69.6,165.4z"/>
			</g>
			<path class="st0" d="M53.3,150c0,0-1.3,1-1.5,2.2c-0.1,1.1,0.3,2.5,0.3,2.5s-2.7-1-2.6-2.7C49.7,149.3,53.3,150,53.3,150z"/>
			<path class="st0" d="M61,150c0,0,1.3,1,1.4,2.2c0.2,1.1-0.3,2.5-0.3,2.5s2.7-1,2.6-2.7C64.5,149.3,61,150,61,150z"/>
			<g>
				<path class="st0" d="M57.3,151c0,0-0.3,0-0.4,0c-4.6,0-1.9,4.2-1.9,4.2s0.8-0.6,1.9-0.6c0,0,0.4,0,0.5,0
					c1.2,0.1,1.9,0.6,1.9,0.6S61.9,150.9,57.3,151z"/>
				<path class="st0" d="M57.3,156.6c-0.1,0-0.2,0-0.3,0l0,0c0,0,0,0,0,0l0,0l0,0c0,0-0.1,0-0.2,0c-1.2,0-1.2,0.7-1.2,1.3
					c0,0.6,0.3,3.1,1.3,3.1c0,0,0,0,0.1,0c0,0,0.1,0,0.1,0c1,0,1.3-2.5,1.3-3.1C58.4,157.2,58.6,156.6,57.3,156.6z"/>
			</g>
		</g>
	</g>
	<g>
		<g>
			<g>
				<g>
					<path class="st7" d="M128.8,50c-0.2-5.3-0.4-10.5-0.7-15.8l0,0l-0.1-1.6l1.6,0.1c3.7,0.2,7.4,0.3,11,0.4l0,0
						c3.6,0.1,7.3,0.2,11,0.2l0,0c3.7,0,7.3-0.1,10.9-0.2l0,0c3.6-0.1,7.3-0.3,11-0.4l0,0l1.9-0.1l-0.4,1.8
						c-0.2,1.2-0.3,2.3-0.3,3.4l0,0c0,1.1,0.1,2.3,0.3,3.4l0,0l0.4,1.9l-1.9-0.1c-2.6-0.2-5.1-0.3-7.2-0.5l0,0
						c-2.2-0.2-4.5-0.3-6.9-0.5l0,0c-2.4-0.2-5.1-0.3-7.9-0.4l0,0c-2.5-0.1-5.5-0.2-8.9-0.2l0,0c-0.1,2.1-0.2,4.2-0.3,6.1l0,0
						c-0.1,2.4-0.2,5.1-0.2,8.1l0,0c0,3.2,0,6.3,0.1,9.4l0,0c0,2.2,0,4,0.1,5.5l0,0c3,0,5.8-0.1,8.3-0.1l0,0
						c2.9-0.1,5.5-0.2,7.9-0.3l0,0c2.4-0.1,4.6-0.2,6.6-0.4l0,0c2-0.1,3.9-0.3,5.7-0.4l0,0l1.9-0.2l-0.4,1.9
						c-0.2,1.1-0.3,2.3-0.3,3.5l0,0c0,1.1,0.1,2.3,0.3,3.4l0,0l0.4,2l-2-0.2c-2.1-0.2-4.6-0.4-7.4-0.6l0,0c-2.8-0.2-5.6-0.3-8.5-0.3
						l0,0c-2.8-0.1-5.5-0.1-8-0.1l0,0c-1.8,0-3.3-0.1-4.5-0.1l0,0c0,0.3,0,0.7,0,1l0,0c0,0.8-0.1,1.9-0.1,3.2l0,0v4.8v7.4
						c0,4.7,0,8.6,0.1,11.6l0,0c0,2.2,0.1,4,0.1,5.5l0,0c2.3,0,4.7,0,7.2,0l0,0c3.1,0,6.2-0.1,9.1-0.2l0,0c3-0.1,5.8-0.3,8.5-0.5
						l0,0c2.6-0.2,4.9-0.5,6.8-0.9l0,0l2.4-0.5l-0.7,2.3c-0.1,0.5-0.2,1-0.3,1.6l0,0c0,0.7-0.1,1.3-0.1,1.8l0,0
						c0,1.2,0.1,2.2,0.3,2.8l0,0l0.6,2l-2.1-0.1l0,0c-3.7-0.2-7.4-0.2-11-0.2l0,0c-3.7,0-7.4,0-11.2,0l0,0c-3.8,0-7.5,0-11.2,0l0,0
						c-3.7,0-7.4,0.1-11.2,0.2l0,0l-1.6,0.1l0.1-1.6c0.2-5.3,0.5-10.5,0.7-15.7l0,0c0.2-5.2,0.3-10.5,0.3-15.9l0,0V66
						C129.1,60.6,129,55.3,128.8,50L128.8,50"/>
				</g>
				<g>
					<path class="st7" d="M227.4,88c-9.9-10.6-19.8-21.2-29.7-31.7l0,0c0,1.7-0.1,3.6-0.1,5.7l0,0c-0.1,3.9-0.1,9.1-0.1,15.8l0,0
						c0,1.7,0,3.8,0.1,6.4l0,0c0,2.6,0.1,5.2,0.1,8l0,0c0,2.8,0.1,5.6,0.2,8.5l0,0c0.1,2.9,0.2,5.6,0.2,8l0,0
						c0.1,2.5,0.2,4.6,0.2,6.5l0,0c0.1,1.8,0.2,3.1,0.2,3.7l0,0l0.2,1.9l-1.9-0.2c-1.2-0.2-2.6-0.2-4.1-0.2l0,0
						c-1.6,0-3.1,0.1-4.4,0.2l0,0l-2,0.2l0.4-2c0.1-0.7,0.3-2.2,0.5-4.4l0,0c0.2-2.2,0.4-4.8,0.6-7.9l0,0c0.2-3.1,0.4-6.4,0.6-10.1
						l0,0c0.2-3.6,0.4-7.2,0.5-10.8l0,0c0.1-3.6,0.2-7.2,0.3-10.6l0,0c0.1-3.5,0.1-6.5,0.1-9.2l0,0c0-7.9,0-14.7-0.1-20.4l0,0
						c0-5.7-0.1-9.9-0.3-12.6l0,0l-0.1-1.5h1.6h2.6l0.4,0.5c5,5.4,10.4,11.3,16.1,17.5l0,0c5.7,6.2,11.4,12.3,17,18.4l0,0
						c5.6,6,11,11.8,16.1,17.2l0,0c4,4.2,7.6,8,10.7,11.2l0,0V82.6c0-8.6-0.1-17.1-0.2-25.2l0,0c-0.1-8.2-0.4-15.9-0.8-23.1l0,0
						l-0.1-2l1.9,0.5c1.6,0.4,2.9,0.6,3.8,0.6l0,0c0.8,0,2-0.2,3.6-0.6l0,0l2-0.5l-0.2,2.1c-0.2,1.8-0.4,4.5-0.5,8.1l0,0
						c-0.2,3.6-0.4,7.5-0.6,11.6l0,0c-0.2,4.1-0.4,8.1-0.6,12.1l0,0c-0.2,3.9-0.2,7.1-0.2,9.4l0,0c0,2.1,0,4.5,0,7.4l0,0
						c0,2.8,0,5.7,0.1,8.8l0,0c0,3,0.1,6.1,0.1,9.2l0,0c0,3.1,0.1,6,0.1,8.6l0,0c0,2.7,0.1,5,0.1,7l0,0c0,1.8,0,3.2,0,4.1l0,0v1.5
						h-1.5l0,0h-2.4l-0.4-0.5C248.2,110.6,238.1,99.4,227.4,88L227.4,88"/>
				</g>
				<g>
					<path class="st7" d="M348,120.5c-1.1-0.2-2.1-0.2-3.1-0.2l0,0c-1,0-2.1,0-3.3,0l0,0c-1.1,0-2.2,0-3.3,0l0,0c-1,0-2,0.1-3.1,0.2
						l0,0l-1.2,0.2l-0.4-1.2c-0.6-1.9-1.3-4.1-2.3-6.8l0,0c-1-2.7-2.1-5.4-3.3-8.3l0,0c-1.2-2.9-2.4-5.9-3.6-8.9l0,0
						c-1.1-2.7-2.1-5.2-3.1-7.7l0,0c-2.3-0.1-4.7-0.1-7-0.2l0,0c-2.7,0-5.4-0.1-8.1-0.1l0,0c-2.5,0-5,0-7.5,0.1l0,0
						c-2.2,0-4.4,0.1-6.6,0.2l0,0c-2.5,6.1-4.8,11.9-6.8,17.4l0,0c-2.1,5.8-3.7,10.5-4.8,14.3l0,0l-0.3,1.2l-1.2-0.2
						c-1.3-0.2-2.8-0.2-4.4-0.2l0,0c-1.6,0-3.1,0.1-4.4,0.2l0,0l-2.6,0.3l1.1-2.4c6.7-14.4,13.2-28.7,19.5-43l0,0
						c6.3-14.2,12.7-28.7,19.1-43.5l0,0l0.4-0.9h1h3.3l0.4,0.9c2,4.8,4.1,9.9,6.4,15.5l0,0c2.3,5.6,4.7,11.2,7,16.8l0,0
						c2.4,5.7,4.8,11.3,7.2,16.9l0,0c2.4,5.6,4.6,10.8,6.7,15.6l0,0c2.1,4.8,4,9.1,5.7,12.9l0,0c1.7,3.8,3.1,6.6,4.1,8.5l0,0
						l-1.3,0.7l0.2-1.4l-0.2,1.4l1.3-0.7l1.4,2.6L348,120.5L348,120.5z M300.2,79.3c2.3,0.1,4.5,0.1,6.6,0.1l0,0
						c2.3,0,4.6,0,6.9-0.1l0,0c1.6,0,3.2-0.1,4.7-0.1l0,0L307,52.9l-11.3,26.2C297.2,79.2,298.7,79.2,300.2,79.3L300.2,79.3z"/>
				</g>
				<g>
					<path class="st7" d="M420.5,120.5c-1.2-0.2-2.3-0.2-3.5-0.2l0,0c-1.2,0-2.5,0-3.7,0l0,0c-1.2,0-2.3,0-3.6,0l0,0
						c-1.2,0-2.3,0.1-3.4,0.2l0,0l-0.9,0.1l-0.5-0.7c-1.2-1.7-3.1-4.3-5.6-7.8l0,0c-2.5-3.4-5.3-7.1-8.3-11.1l0,0
						c-3-3.9-6.1-7.9-9.3-11.8l0,0c-3-3.7-5.7-6.8-8.2-9.4l0,0h-2.6v7.6c0,5.4,0.1,10.7,0.3,16l0,0c0.2,5.3,0.4,10.5,0.7,15.5l0,0
						l0.1,1.7l-1.7-0.1c-1.9-0.2-3.8-0.2-5.9-0.2l0,0c-2.1,0-4.1,0.1-5.9,0.2l0,0l-1.7,0.1l0.1-1.7c0.2-5.1,0.5-10.3,0.7-15.5l0,0
						c0.2-5.2,0.3-10.6,0.3-16l0,0l0-21.2c0-5.4-0.1-10.7-0.3-15.9l0,0l0,0c-0.2-5.2-0.4-10.6-0.7-16l0,0l-0.1-1.6l1.6,0.1
						c2.4,0.2,4.7,0.3,7,0.4l0,0c2.3,0.1,4.6,0.2,7,0.2l0,0c2.3,0,4.6-0.1,6.9-0.3l0,0c2.4-0.2,4.7-0.3,7.2-0.3l0,0
						c3.5,0,6.9,0.3,10.2,1l0,0c3.3,0.7,6.2,1.8,8.7,3.5l0,0c2.5,1.7,4.6,3.8,6,6.5l0,0c1.5,2.7,2.2,6.1,2.2,10l0,0
						c0,4.2-0.9,7.9-2.9,11l0,0c-1.9,3-4.2,5.5-6.9,7.5l0,0c-2.7,1.9-5.5,3.4-8.6,4.5l0,0c-2.1,0.7-4,1.3-5.8,1.7l0,0
						c0.7,0.9,1.6,2,2.6,3.3l0,0c1.7,2.2,3.7,4.7,5.8,7.3l0,0c2.1,2.7,4.4,5.5,6.7,8.4l0,0c2.3,2.9,4.5,5.7,6.7,8.4l0,0
						c2.1,2.7,4.1,5.1,6,7.3l0,0c1.9,2.2,3.4,3.9,4.5,5l0,0l3.1,3.1L420.5,120.5L420.5,120.5z M373.3,72.2c1.3,0.1,2.8,0.1,4.4,0.1
						l0,0c2.4,0,5-0.3,7.7-0.8l0,0c2.6-0.5,5-1.5,7.1-2.8l0,0c2.1-1.3,3.9-3.1,5.3-5.3l0,0c1.3-2.1,2.1-4.9,2.1-8.4l0,0
						c0-3-0.6-5.4-1.6-7.2l0,0c-1.1-1.9-2.5-3.4-4.2-4.5l0,0c-1.8-1.1-3.6-1.9-5.7-2.3l0,0c-2.1-0.4-4.2-0.7-6.3-0.7l0,0
						c-2.9,0-5.2,0.1-7.1,0.2l0,0c-1.3,0.1-2.5,0.2-3.5,0.3l0,0c-0.1,4.1-0.3,8.2-0.4,12.2l0,0c-0.2,4.4-0.2,8.9-0.2,13.3l0,0V72
						C371.7,72.1,372.5,72.2,373.3,72.2L373.3,72.2"/>
				</g>
				<g>
					<path class="st7" d="M454.4,119.4c-6.1-1.8-11.3-4.7-15.6-8.5l0,0c-4.3-3.9-7.6-8.7-9.9-14.4l0,0c-2.3-5.7-3.4-12.3-3.4-19.7
						l0,0c0-7.2,1.2-13.6,3.6-19.3l0,0c2.4-5.7,5.8-10.5,10.1-14.4l0,0c4.4-3.9,9.6-6.9,15.8-8.9l0,0c6.1-2,12.9-3,20.3-3l0,0
						c4.3,0,8,0.2,11.4,0.7l0,0c3.3,0.5,6.3,1.1,8.9,1.8l0,0c2.6,0.8,4.8,1.6,6.8,2.4l0,0c1.9,0.8,3.6,1.6,5.1,2.4l0,0l1.4,0.7
						l-0.8,1.3c-0.6,1-1.2,2.4-1.7,4.1l0,0c-0.5,1.7-0.8,3.3-1,4.8l0,0l-0.1,1.3h-1.3h-2.2l-0.4-0.5c-1.2-1.4-2.6-2.8-4.4-4.2l0,0
						l0.9-1.1l-0.9,1.1c-1.8-1.4-3.7-2.7-5.9-3.7l0,0c-2.2-1.1-4.6-1.9-7.2-2.6l0,0c-2.6-0.7-5.5-1-8.5-1l0,0c-5,0-9.5,0.8-13.8,2.3
						l0,0c-4.2,1.5-7.8,3.8-10.9,6.9l0,0c-3.1,3.1-5.5,7-7.3,11.8l0,0c-1.8,4.8-2.7,10.5-2.7,17.2l0,0c0,5.9,0.8,11.1,2.4,15.8l0,0
						c1.6,4.7,3.9,8.6,6.9,11.8l0,0c3,3.2,6.7,5.6,11.1,7.4l0,0c4.4,1.7,9.4,2.6,15,2.6l0,0c1.7,0,3.4-0.1,5.3-0.2l0,0
						c1.8-0.2,3.6-0.4,5.3-0.7l0,0c1.7-0.3,3.3-0.7,4.8-1.2l0,0c1.1-0.4,2.1-0.8,2.9-1.2l0,0c0.1-2.2,0.1-4.4,0.2-6.6l0,0
						c0-2.5,0.1-5,0.1-7.5l0,0c0-2.9-0.1-5.7-0.2-8.6l0,0c-0.1-2.9-0.3-5.6-0.4-8.2l0,0l-0.1-1.9l1.9,0.4c2,0.4,3.9,0.6,5.6,0.6l0,0
						c0.9,0,1.7,0,2.6-0.1l0,0c0.8-0.1,1.6-0.2,2.3-0.4l0,0l2.1-0.6l-0.2,2.2c-0.2,1.8-0.3,4.8-0.4,8.9l0,0
						c-0.1,4.1-0.1,9.4-0.1,16.1l0,0c0,1.6,0,3.3,0.1,5l0,0c0,1.7,0.1,3.4,0.1,5l0,0v1l-0.9,0.4c-1.8,0.7-4,1.4-6.6,2.1l0,0
						c-2.6,0.7-5.5,1.3-8.4,1.8l0,0c-2.9,0.5-5.9,0.9-8.8,1.2l0,0c-3,0.4-5.7,0.6-8.2,0.6l0,0C467.2,122.1,460.5,121.2,454.4,119.4
						L454.4,119.4z"/>
				</g>
				<g>
					<path class="st7" d="M592.7,120.5c-1.1-0.2-2.1-0.2-3.1-0.2l0,0c-1,0-2.1,0-3.3,0l0,0c-1.2,0-2.2,0-3.3,0l0,0
						c-1,0-2,0.1-3.1,0.2l0,0l-1.2,0.2l-0.4-1.2c-0.6-1.9-1.3-4.1-2.3-6.8l0,0c-1-2.7-2.1-5.4-3.3-8.3l0,0c-1.2-2.9-2.4-5.9-3.6-8.9
						l0,0c-1.1-2.7-2.1-5.2-3.1-7.7l0,0c-2.3-0.1-4.7-0.1-7-0.2l0,0c-2.7,0-5.4-0.1-8.1-0.1l0,0c-2.6,0-5.1,0-7.5,0.1l0,0
						c-2.2,0-4.3,0.1-6.6,0.2l0,0c-2.5,6.1-4.8,11.9-6.8,17.4l0,0c-2.1,5.8-3.7,10.5-4.8,14.3l0,0l-0.3,1.2l-1.2-0.2
						c-1.3-0.2-2.8-0.2-4.4-0.2l0,0c-1.6,0-3.1,0.1-4.4,0.2l0,0l-2.6,0.3l1.1-2.4c6.7-14.4,13.2-28.7,19.5-43l0,0
						c6.3-14.2,12.7-28.7,19.1-43.5l0,0l0.4-0.9h1h3.3L557,32c2,4.8,4.1,9.9,6.4,15.5l0,0c2.3,5.6,4.7,11.2,7,16.8l0,0
						c2.4,5.7,4.8,11.3,7.2,16.9l0,0c2.4,5.6,4.6,10.8,6.7,15.6l0,0c2.1,4.8,4,9.1,5.7,12.9l0,0c1.7,3.8,3,6.6,4.1,8.5l0,0l-1.3,0.7
						l0.2-1.5l-0.2,1.5l1.3-0.7l1.4,2.6L592.7,120.5L592.7,120.5z M544.9,79.3c2.3,0.1,4.5,0.1,6.6,0.1l0,0c2.3,0,4.6,0,6.9-0.1l0,0
						c1.6,0,3.2-0.1,4.7-0.1l0,0l-11.5-26.3l-11.3,26.2C541.8,79.2,543.3,79.2,544.9,79.3L544.9,79.3z"/>
				</g>
				<g>
					<path class="st7" d="M604.8,119.9c-3.3-1.4-6.1-3-8.3-4.8l0,0l-0.8-0.7l0.4-1c0.7-1.8,1.2-3.5,1.5-4.9l0,0
						c0.3-1.5,0.5-3.4,0.8-5.7l0,0l0.1-1.3h1.3h2.4l0.4,0.9c0.6,1.4,1.4,2.8,2.5,4.2l0,0l-1.2,0.9l1.2-0.9c1,1.4,2.3,2.7,3.8,3.8
						l0,0c1.5,1.1,3.2,2.1,5.2,2.8l0,0c2,0.7,4.2,1.1,6.7,1.1l0,0c2.5,0,4.8-0.4,6.8-1.3l0,0c2-0.9,3.7-2,5.1-3.5l0,0
						c1.4-1.5,2.5-3.2,3.2-5.2l0,0c0.8-2,1.1-4.1,1.1-6.5l0,0c0-3.5-0.9-6.1-2.5-8.1l0,0c-1.8-2.1-4-3.8-6.8-5.2l0,0
						c-2.8-1.4-5.9-2.8-9.2-4l0,0c-3.4-1.3-6.6-2.9-9.6-4.8l0,0c-3.1-1.9-5.6-4.5-7.7-7.5l0,0c-2.1-3.2-3.1-7.4-3.1-12.4l0,0
						c0-3.6,0.7-7,2-10l0,0c1.3-3,3.2-5.7,5.7-7.9l0,0c2.5-2.2,5.5-3.9,8.9-5.1l0,0c3.5-1.2,7.4-1.8,11.6-1.8l0,0
						c4.1,0,7.6,0.5,10.7,1.5l0,0c3,1,5.9,2.5,8.5,4.6l0,0l0.9,0.7l-0.6,1.1c-0.7,1.3-1.3,2.7-1.7,4.2l0,0c-0.5,1.5-1,3.4-1.4,5.8
						l0,0l-0.2,1.2h-1.2h-2.5l-0.3-1c-0.4-1.1-0.9-2.3-1.6-3.6l0,0c-0.6-1.2-1.5-2.3-2.6-3.4l0,0c-1.1-1-2.3-1.9-3.9-2.6l0,0
						c-1.4-0.7-3.2-1-5.3-1l0,0c-2.2,0-4.1,0.3-5.8,1l0,0c-1.8,0.7-3.3,1.6-4.6,2.9l0,0c-1.3,1.2-2.3,2.7-3,4.4l0,0
						c-0.7,1.7-1.1,3.6-1.1,5.6l0,0c0,3.6,0.9,6.3,2.5,8.2l0,0c1.8,2.1,4.1,3.8,6.8,5.3l0,0c2.8,1.5,5.9,2.8,9.1,4l0,0
						c3.4,1.2,6.6,2.7,9.6,4.5l0,0c3,1.8,5.6,4.2,7.7,7.1l0,0c2.2,3,3.2,7,3.2,11.7l0,0c0,4-0.7,7.7-2.1,11.3l0,0
						c-1.4,3.6-3.5,6.7-6.3,9.3l0,0c-2.7,2.7-6.1,4.7-10,6.1l0,0c-3.9,1.4-8.4,2.1-13.3,2.1l0,0
						C612.6,122.1,608.3,121.4,604.8,119.9L604.8,119.9z"/>
				</g>
			</g>
		</g>
		<g>
			<path class="st7" d="M129.7,142.6c0-1.1-0.1-2.3-0.1-3.5c0.8,0,1.6,0,2.4,0.1c0.8,0,1.6,0.1,2.4,0.1c1.3,0,2.5,0,3.5,0
				c1,0,1.7-0.1,2.1-0.1c-0.1,0.3-0.1,0.7-0.1,1.1c0,0.3,0,0.5,0,0.7c0,0.2,0,0.3,0.1,0.5c-0.5,0-1.1-0.1-1.7-0.1
				c-0.6,0-1.2-0.1-1.8-0.1c-0.6,0-1.1-0.1-1.6-0.1c-0.5,0-0.8,0-1,0c-0.1,1-0.1,1.9-0.1,2.9c0,1,0,1.9,0,2.9c1.2,0,2.2,0,3.1-0.1
				c0.9,0,1.9-0.1,2.9-0.1c-0.1,0.3-0.1,0.5-0.1,0.7c0,0.2,0,0.3,0,0.5c0,0.1,0,0.3,0,0.4c0,0.2,0.1,0.4,0.1,0.7
				c-2-0.2-4.1-0.2-6.1-0.2c0,0.6,0,1.1,0,1.7c0,0.6,0,1.1,0,1.7c0,1.2,0,2.3,0.1,3.3c1,0,2,0,3-0.1c1-0.1,2-0.1,3.1-0.3
				c0,0.2-0.1,0.4-0.1,0.5c0,0.2,0,0.4,0,0.7c0,0.3,0,0.5,0,0.7c0,0.2,0,0.3,0.1,0.4c-0.5,0-1.1,0-1.8,0c-0.7,0-1.7,0-2.9,0
				c-1.1,0-2,0-2.6,0c-0.7,0-1.2,0-1.6,0c-0.4,0-0.7,0-0.9,0c-0.2,0-0.4,0-0.5,0c0.1-1.1,0.1-2.2,0.1-3.4c0-1.1,0-2.5,0-3.9v-3.6
				C129.7,145.1,129.7,143.8,129.7,142.6z"/>
			<path class="st7" d="M144.6,141.4c0-0.8-0.1-1.6-0.1-2.2c0.5,0.1,0.9,0.1,1.2,0.1c0.3,0,0.7,0,1.2-0.1c1.9,2.2,3.9,4.3,5.8,6.4
				c1.9,2.1,3.8,4.2,5.8,6.4v-2.3V147c0-0.9,0-1.7,0-2.6c0-0.8,0-1.6,0-2.3c0-0.7,0-1.3-0.1-1.8c0-0.5-0.1-0.9-0.1-1
				c0.5,0.1,0.9,0.1,1.2,0.1c0.3,0,0.7,0,1.2-0.1c-0.1,1.6-0.2,3.1-0.2,4.4c-0.1,1.3-0.1,2.5-0.1,3.7c0,1.2-0.1,2.3-0.1,3.4
				c0,1.1,0,2.3,0,3.6v3.2c-0.4,0-0.7-0.1-1.1-0.1c-0.4,0-0.7,0-1,0.1c-3.7-4.3-7.6-8.6-11.7-12.9c0,0.5,0,1,0,1.5c0,0.5,0,1,0,1.6
				v3.1c0,1.1,0,2,0,2.7c0,0.7,0,1.4,0,1.9c0,0.5,0,0.9,0.1,1.3c0,0.3,0,0.6,0.1,0.8c-0.2,0-0.4-0.1-0.6-0.1c-0.2,0-0.4,0-0.6,0
				c-0.4,0-0.8,0-1.2,0.1c0-0.1,0.1-0.6,0.1-1.5c0.1-0.9,0.1-1.9,0.2-3.2c0.1-1.3,0.1-2.6,0.2-4.1c0-1.5,0.1-2.9,0.1-4.2
				C144.7,143.3,144.6,142.2,144.6,141.4z"/>
			<path class="st7" d="M169.4,142.1c0-0.4,0-0.7-0.1-0.9c-0.3,0-0.6,0-1,0c-0.4,0-0.8,0-1.3,0.1c-0.4,0-0.9,0.1-1.4,0.1
				c-0.5,0-0.9,0.1-1.3,0.1c0-0.2,0.1-0.4,0.1-0.6c0-0.2,0-0.4,0-0.6c0-0.2,0-0.4,0-0.6c0-0.2-0.1-0.4-0.1-0.6c0.6,0,1.2,0,1.6,0.1
				c0.5,0,1,0,1.5,0c0.5,0,1.1,0,1.7,0c0.6,0,1.3,0,2.1,0c0.8,0,1.6,0,2.1,0c0.6,0,1.1,0,1.6,0c0.5,0,1,0,1.5,0c0.5,0,1,0,1.5-0.1
				c0,0.2-0.1,0.4-0.1,0.6c0,0.2,0,0.4,0,0.6c0,0.2,0,0.4,0,0.6c0,0.2,0.1,0.4,0.1,0.6c-0.4-0.1-0.8-0.1-1.2-0.1
				c-0.4,0-0.9-0.1-1.3-0.1c-0.4,0-0.9,0-1.2-0.1c-0.4,0-0.7,0-1,0c0,0.1,0,0.2,0,0.4c0,0.2,0,0.3,0,0.6v1.4v6.7
				c0,1.5,0,2.8,0.1,3.9c0,1.1,0.1,2.3,0.2,3.4c-0.3,0-0.6-0.1-1-0.1c-0.4,0-0.8,0-1.2,0s-0.8,0-1.2,0s-0.7,0-1,0.1
				c0.1-1.1,0.1-2.2,0.2-3.4c0-1.1,0.1-2.5,0.1-3.9v-6.7C169.4,143,169.4,142.5,169.4,142.1z"/>
			<path class="st7" d="M181.9,142.6c0-1.1-0.1-2.3-0.1-3.5c0.8,0,1.6,0,2.4,0.1c0.8,0,1.6,0.1,2.4,0.1c1.3,0,2.5,0,3.5,0
				c1,0,1.7-0.1,2.1-0.1c-0.1,0.3-0.1,0.7-0.1,1.1c0,0.3,0,0.5,0,0.7c0,0.2,0,0.3,0.1,0.5c-0.5,0-1.1-0.1-1.7-0.1
				c-0.6,0-1.2-0.1-1.8-0.1c-0.6,0-1.1-0.1-1.6-0.1c-0.5,0-0.8,0-1,0c-0.1,1-0.1,1.9-0.1,2.9c0,1,0,1.9,0,2.9c1.2,0,2.2,0,3.1-0.1
				c0.9,0,1.9-0.1,2.9-0.1c-0.1,0.3-0.1,0.5-0.1,0.7c0,0.2,0,0.3,0,0.5c0,0.1,0,0.3,0,0.4c0,0.2,0.1,0.4,0.1,0.7
				c-2-0.2-4.1-0.2-6.1-0.2c0,0.6,0,1.1,0,1.7c0,0.6,0,1.1,0,1.7c0,1.2,0,2.3,0.1,3.3c1,0,2,0,3-0.1c1-0.1,2-0.1,3.1-0.3
				c0,0.2-0.1,0.4-0.1,0.5c0,0.2,0,0.4,0,0.7c0,0.3,0,0.5,0,0.7c0,0.2,0,0.3,0.1,0.4c-0.5,0-1.1,0-1.8,0c-0.7,0-1.7,0-2.9,0
				c-1.1,0-2,0-2.6,0c-0.7,0-1.2,0-1.6,0c-0.4,0-0.7,0-0.9,0c-0.2,0-0.4,0-0.5,0c0.1-1.1,0.1-2.2,0.1-3.4c0-1.1,0-2.5,0-3.9v-3.6
				C181.9,145.1,181.9,143.8,181.9,142.6z"/>
			<path class="st7" d="M205.3,141.4c0-0.8-0.1-1.6-0.1-2.2c0.5,0.1,0.9,0.1,1.2,0.1c0.3,0,0.7,0,1.2-0.1c1.9,2.2,3.9,4.3,5.8,6.4
				c1.9,2.1,3.8,4.2,5.8,6.4v-2.3V147c0-0.9,0-1.7,0-2.6c0-0.8,0-1.6,0-2.3c0-0.7,0-1.3-0.1-1.8c0-0.5-0.1-0.9-0.1-1
				c0.5,0.1,0.9,0.1,1.2,0.1c0.3,0,0.7,0,1.2-0.1c-0.1,1.6-0.2,3.1-0.2,4.4c-0.1,1.3-0.1,2.5-0.1,3.7c0,1.2-0.1,2.3-0.1,3.4
				c0,1.1,0,2.3,0,3.6v3.2c-0.4,0-0.7-0.1-1.1-0.1c-0.4,0-0.7,0-1,0.1c-3.7-4.3-7.6-8.6-11.7-12.9c0,0.5,0,1,0,1.5c0,0.5,0,1,0,1.6
				v3.1c0,1.1,0,2,0,2.7c0,0.7,0,1.4,0,1.9c0,0.5,0,0.9,0.1,1.3c0,0.3,0,0.6,0.1,0.8c-0.2,0-0.4-0.1-0.6-0.1c-0.2,0-0.4,0-0.6,0
				c-0.4,0-0.8,0-1.2,0.1c0-0.1,0.1-0.6,0.1-1.5c0.1-0.9,0.1-1.9,0.2-3.2c0.1-1.3,0.1-2.6,0.2-4.1c0-1.5,0.1-2.9,0.1-4.2
				C205.3,143.3,205.3,142.2,205.3,141.4z"/>
			<path class="st7" d="M241.5,157.5c-0.4,0-0.8-0.1-1.2-0.1c-0.4,0-0.8,0-1.1,0c-0.4,0-0.8,0-1.1,0c-0.4,0-0.8,0-1.1,0.1
				c-0.3-0.9-0.6-1.8-0.9-2.7c-0.3-0.9-0.6-1.8-1-2.7c-0.6,0-1.1,0-1.7,0c-0.6,0-1.1,0-1.7,0c-0.5,0-0.9,0-1.4,0c-0.5,0-0.9,0-1.4,0
				c-0.4,0.9-0.7,1.8-1,2.7c-0.3,0.9-0.6,1.8-0.8,2.7c-0.2,0-0.4-0.1-0.6-0.1c-0.2,0-0.4,0-0.6,0c-0.2,0-0.4,0-0.6,0
				c-0.2,0-0.4,0-0.7,0.1c0.2-0.5,0.5-1.1,0.9-1.9c0.4-0.8,0.7-1.7,1.2-2.8c0.4-1,0.9-2.1,1.4-3.3c0.5-1.2,1-2.4,1.5-3.6
				c0.5-1.2,1-2.4,1.4-3.6c0.5-1.2,0.9-2.3,1.3-3.3c0.2,0,0.3,0.1,0.5,0.1c0.2,0,0.3,0,0.5,0c0.2,0,0.3,0,0.5,0
				c0.2,0,0.3-0.1,0.5-0.1c0.6,1.5,1.2,3.1,1.8,4.9c0.7,1.7,1.3,3.4,2,5.1c0.7,1.7,1.3,3.2,1.9,4.7
				C240.4,155.2,241,156.5,241.5,157.5z M232.1,144.2c-0.5,1.1-0.9,2.1-1.3,3.2c-0.4,1-0.8,2.1-1.2,3.2h4.9
				c-0.4-1.1-0.8-2.1-1.2-3.2C232.9,146.3,232.5,145.3,232.1,144.2z"/>
			<path class="st7" d="M258.6,155.6c-0.1,0.4-0.2,0.8-0.2,1.1c-1.4,0.7-3.3,1.1-5.4,1.1c-1.5,0-2.9-0.2-4.2-0.7
				c-1.2-0.4-2.3-1.1-3.1-1.8c-0.8-0.8-1.5-1.7-1.9-2.8c-0.4-1.1-0.7-2.3-0.7-3.5c0-1.9,0.3-3.4,0.9-4.7c0.6-1.3,1.4-2.3,2.3-3.2
				c1-0.8,2.1-1.4,3.4-1.8c1.3-0.4,2.6-0.6,4-0.6c0.5,0,1,0,1.5,0.1c0.5,0.1,1,0.2,1.5,0.3c0.5,0.1,0.9,0.3,1.4,0.4
				c0.4,0.2,0.8,0.3,1.1,0.5c-0.2,0.4-0.3,0.9-0.4,1.3c-0.1,0.5-0.2,0.9-0.2,1.4h-0.4c-0.7-0.9-1.4-1.5-2.1-1.8
				c-0.7-0.4-1.5-0.5-2.5-0.5c-0.7,0-1.4,0.2-2.1,0.5c-0.7,0.3-1.4,0.8-2,1.5c-0.6,0.7-1.1,1.5-1.4,2.5c-0.4,1-0.5,2.2-0.5,3.7
				c0,1.4,0.2,2.5,0.6,3.5c0.4,1,0.9,1.8,1.5,2.4c0.6,0.6,1.3,1.1,2,1.3c0.8,0.3,1.5,0.4,2.3,0.4c0.4,0,0.9,0,1.3-0.1
				c0.4-0.1,0.9-0.2,1.3-0.4c0.4-0.2,0.8-0.4,1.2-0.6c0.4-0.2,0.7-0.5,1-0.8l0.3,0.2C258.8,154.9,258.7,155.3,258.6,155.6z"/>
			<path class="st7" d="M263.5,142.6c0-1.1-0.1-2.3-0.2-3.5c0.3,0,0.6,0.1,1,0.1c0.4,0,0.8,0,1.2,0c0.4,0,0.8,0,1.2,0
				c0.4,0,0.7-0.1,1-0.1c-0.1,1.2-0.1,2.3-0.2,3.5c0,1.2-0.1,2.5-0.1,3.9v3.6c0,1.5,0,2.8,0.1,3.9c0,1.1,0.1,2.3,0.2,3.4
				c-0.3,0-0.6-0.1-1-0.1c-0.4,0-0.8,0-1.2,0c-0.4,0-0.8,0-1.2,0c-0.4,0-0.7,0-1,0.1c0.1-1.1,0.1-2.2,0.2-3.4c0-1.1,0.1-2.5,0.1-3.9
				v-3.6C263.5,145.1,263.5,143.8,263.5,142.6z"/>
			<path class="st7" d="M272.7,144.7c0.5-1.2,1.2-2.2,2.1-3c0.9-0.9,2-1.6,3.2-2.1c1.3-0.5,2.7-0.7,4.2-0.7c1.4,0,2.8,0.2,4,0.6
				c1.2,0.4,2.3,1,3.2,1.8c0.9,0.8,1.6,1.8,2.1,3c0.5,1.2,0.8,2.6,0.8,4.2c0,1.3-0.3,2.6-0.8,3.7c-0.5,1.2-1.2,2.2-2.1,3
				c-0.9,0.9-2,1.5-3.2,2c-1.2,0.5-2.6,0.7-4.1,0.7c-1.4,0-2.7-0.2-4-0.5c-1.2-0.3-2.3-0.9-3.2-1.7c-0.9-0.8-1.6-1.8-2.2-3
				c-0.5-1.2-0.8-2.6-0.8-4.3C271.9,147.1,272.2,145.8,272.7,144.7z M287.5,144.7c-0.3-0.9-0.7-1.7-1.2-2.3
				c-0.5-0.6-1.1-1.1-1.8-1.5c-0.7-0.3-1.5-0.5-2.4-0.5c-0.9,0-1.7,0.2-2.4,0.7c-0.7,0.4-1.3,1-1.8,1.8c-0.5,0.7-0.9,1.6-1.1,2.6
				c-0.3,1-0.4,2.1-0.4,3.2c0,1.4,0.2,2.6,0.5,3.6c0.3,1,0.7,1.8,1.2,2.4c0.5,0.6,1.1,1,1.8,1.3c0.7,0.3,1.4,0.4,2.1,0.4
				c0.8,0,1.6-0.2,2.3-0.5c0.7-0.3,1.4-0.9,1.9-1.5c0.5-0.7,1-1.6,1.3-2.6c0.3-1.1,0.5-2.3,0.5-3.8
				C287.9,146.6,287.8,145.6,287.5,144.7z"/>
			<path class="st7" d="M296.9,141.4c0-0.8-0.1-1.6-0.1-2.2c0.5,0.1,0.9,0.1,1.2,0.1c0.3,0,0.7,0,1.2-0.1c1.9,2.2,3.9,4.3,5.8,6.4
				c1.9,2.1,3.8,4.2,5.8,6.4v-2.3V147c0-0.9,0-1.7,0-2.6c0-0.8,0-1.6,0-2.3c0-0.7,0-1.3-0.1-1.8c0-0.5-0.1-0.9-0.1-1
				c0.5,0.1,0.9,0.1,1.2,0.1c0.3,0,0.7,0,1.2-0.1c-0.1,1.6-0.2,3.1-0.2,4.4c-0.1,1.3-0.1,2.5-0.1,3.7c0,1.2-0.1,2.3-0.1,3.4
				c0,1.1,0,2.3,0,3.6v3.2c-0.4,0-0.7-0.1-1.1-0.1c-0.4,0-0.7,0-1,0.1c-3.7-4.3-7.6-8.6-11.7-12.9c0,0.5,0,1,0,1.5c0,0.5,0,1,0,1.6
				v3.1c0,1.1,0,2,0,2.7c0,0.7,0,1.4,0,1.9c0,0.5,0,0.9,0.1,1.3c0,0.3,0,0.6,0.1,0.8c-0.2,0-0.4-0.1-0.6-0.1c-0.2,0-0.4,0-0.6,0
				c-0.4,0-0.8,0-1.2,0.1c0-0.1,0.1-0.6,0.1-1.5c0.1-0.9,0.1-1.9,0.2-3.2c0.1-1.3,0.1-2.6,0.2-4.1c0-1.5,0.1-2.9,0.1-4.2
				C296.9,143.3,296.9,142.2,296.9,141.4z"/>
			<path class="st7" d="M333.1,157.5c-0.4,0-0.8-0.1-1.2-0.1c-0.4,0-0.8,0-1.1,0c-0.4,0-0.8,0-1.1,0c-0.4,0-0.8,0-1.1,0.1
				c-0.3-0.9-0.6-1.8-0.9-2.7c-0.3-0.9-0.6-1.8-1-2.7c-0.6,0-1.1,0-1.7,0c-0.6,0-1.1,0-1.7,0c-0.5,0-0.9,0-1.4,0c-0.5,0-0.9,0-1.4,0
				c-0.4,0.9-0.7,1.8-1,2.7c-0.3,0.9-0.6,1.8-0.8,2.7c-0.2,0-0.4-0.1-0.6-0.1c-0.2,0-0.4,0-0.6,0c-0.2,0-0.4,0-0.6,0
				c-0.2,0-0.4,0-0.7,0.1c0.2-0.5,0.5-1.1,0.9-1.9c0.4-0.8,0.7-1.7,1.2-2.8c0.4-1,0.9-2.1,1.4-3.3c0.5-1.2,1-2.4,1.5-3.6
				c0.5-1.2,1-2.4,1.4-3.6c0.5-1.2,0.9-2.3,1.3-3.3c0.2,0,0.3,0.1,0.5,0.1c0.2,0,0.3,0,0.5,0s0.3,0,0.5,0c0.2,0,0.3-0.1,0.5-0.1
				c0.6,1.5,1.2,3.1,1.8,4.9c0.6,1.7,1.3,3.4,2,5.1c0.7,1.7,1.3,3.2,1.9,4.7C332,155.2,332.6,156.5,333.1,157.5z M323.7,144.2
				c-0.5,1.1-0.9,2.1-1.3,3.2c-0.4,1-0.8,2.1-1.2,3.2h4.9c-0.4-1.1-0.8-2.1-1.2-3.2C324.5,146.3,324.1,145.3,323.7,144.2z"/>
			<path class="st7" d="M336.9,142.6c0-1.1-0.1-2.3-0.2-3.5c0.3,0,0.6,0.1,1,0.1c0.4,0,0.8,0,1.2,0c0.4,0,0.8,0,1.2,0
				c0.4,0,0.7-0.1,1-0.1c-0.1,1.2-0.1,2.3-0.2,3.5c0,1.2-0.1,2.5-0.1,3.9v3.6c0,1,0,2,0,2.9c0,0.9,0,1.8,0,2.5c1,0,2,0,3-0.1
				c1-0.1,2-0.1,3.1-0.3c0,0.2-0.1,0.4-0.1,0.5c0,0.2,0,0.4,0,0.7c0,0.3,0,0.5,0,0.7c0,0.2,0,0.3,0.1,0.4c-0.5,0-1.1,0-1.8,0
				c-0.7,0-1.7,0-2.9,0c-1.1,0-2,0-2.6,0c-0.7,0-1.2,0-1.6,0s-0.7,0-0.9,0c-0.2,0-0.4,0-0.5,0c0.1-1.1,0.1-2.2,0.2-3.4
				c0-1.1,0.1-2.5,0.1-3.9v-3.6C336.9,145.1,336.9,143.8,336.9,142.6z"/>
			<path class="st7" d="M363.8,149.1v1.1c0,1.5,0,2.8,0.1,3.9c0,1.1,0.1,2.3,0.2,3.4c-0.3,0-0.6-0.1-1-0.1c-0.4,0-0.8,0-1.2,0
				c-0.4,0-0.8,0-1.2,0c-0.4,0-0.7,0-1,0.1c0.1-1.1,0.1-2.2,0.2-3.4c0-1.1,0.1-2.5,0.1-3.9v-3.6c0-1.5,0-2.8-0.1-3.9
				c0-1.1-0.1-2.3-0.2-3.5c0.3,0,0.6,0.1,1,0.1c0.4,0,0.8,0,1.2,0c0.5,0,1,0,1.6-0.1c0.6,0,1.4-0.1,2.3-0.1c0.7,0,1.3,0,1.7,0.1
				c0.5,0,0.9,0.1,1.2,0.2c0.3,0.1,0.7,0.2,0.9,0.3c0.3,0.1,0.5,0.3,0.7,0.4c0.5,0.4,1,0.9,1.3,1.5c0.3,0.6,0.5,1.3,0.5,2.1
				c0,1.3-0.4,2.4-1.1,3.2c-0.7,0.8-1.7,1.4-3.1,1.7c0.9,1.5,1.8,3,2.8,4.5c1,1.5,2,3,2.9,4.5c-0.4,0-0.8-0.1-1.2-0.1
				c-0.4,0-0.8,0-1.2,0c-0.4,0-0.8,0-1.2,0s-0.8,0-1.2,0.1l-4.8-8.4H363.8z M367.8,142.3c-0.2-0.5-0.4-0.8-0.7-1.1
				c-0.3-0.2-0.8-0.4-1.3-0.5c-0.5-0.1-1.2-0.1-1.9-0.1c-0.1,2.4-0.1,4.8-0.1,7.3c0.1,0,0.2,0,0.3,0c0.1,0,0.2,0,0.3,0
				c1.2,0,2.1-0.3,2.7-0.9c0.6-0.6,0.9-1.6,0.9-2.9C368,143.4,367.9,142.8,367.8,142.3z"/>
			<path class="st7" d="M376.9,142.6c0-1.1-0.1-2.3-0.1-3.5c0.8,0,1.6,0,2.4,0.1c0.8,0,1.6,0.1,2.4,0.1c1.3,0,2.5,0,3.5,0
				c1,0,1.7-0.1,2.1-0.1c-0.1,0.3-0.1,0.7-0.1,1.1c0,0.3,0,0.5,0,0.7c0,0.2,0,0.3,0.1,0.5c-0.5,0-1.1-0.1-1.7-0.1
				c-0.6,0-1.2-0.1-1.8-0.1c-0.6,0-1.1-0.1-1.6-0.1c-0.5,0-0.8,0-1,0c-0.1,1-0.1,1.9-0.1,2.9c0,1,0,1.9,0,2.9c1.2,0,2.2,0,3.1-0.1
				c0.9,0,1.9-0.1,2.9-0.1c-0.1,0.3-0.1,0.5-0.1,0.7c0,0.2,0,0.3,0,0.5c0,0.1,0,0.3,0,0.4c0,0.2,0.1,0.4,0.1,0.7
				c-2-0.2-4.1-0.2-6.1-0.2c0,0.6,0,1.1,0,1.7c0,0.6,0,1.1,0,1.7c0,1.2,0,2.3,0.1,3.3c1,0,2,0,3-0.1c1-0.1,2-0.1,3.1-0.3
				c0,0.2-0.1,0.4-0.1,0.5c0,0.2,0,0.4,0,0.7c0,0.3,0,0.5,0,0.7c0,0.2,0,0.3,0.1,0.4c-0.5,0-1.1,0-1.8,0c-0.7,0-1.7,0-2.9,0
				c-1.1,0-2,0-2.6,0c-0.7,0-1.2,0-1.6,0c-0.4,0-0.7,0-0.9,0c-0.2,0-0.4,0-0.5,0c0.1-1.1,0.1-2.2,0.1-3.4c0-1.1,0-2.5,0-3.9v-3.6
				C377,145.1,376.9,143.8,376.9,142.6z"/>
			<path class="st7" d="M404.8,141.2c-0.9-0.5-1.9-0.7-3.1-0.7c-0.8,0-1.6,0.2-2.4,0.5c-0.8,0.3-1.5,0.9-2.2,1.6
				c-0.6,0.7-1.1,1.6-1.5,2.6c-0.4,1-0.6,2.3-0.6,3.7c0,1.1,0.1,2.1,0.4,3c0.3,0.9,0.7,1.7,1.3,2.4c0.6,0.7,1.2,1.2,2,1.6
				c0.8,0.4,1.7,0.6,2.8,0.6c0.2,0,0.5,0,0.8,0c0.3,0,0.6-0.1,0.9-0.1c0.3,0,0.5-0.1,0.8-0.1c0.2-0.1,0.4-0.1,0.5-0.2
				c0-0.2,0.1-0.5,0.1-0.8c0-0.3,0-0.7,0-1.1c0-1.4,0-2.5-0.1-3.2c-0.1-0.7-0.1-1.2-0.1-1.4c0.2,0,0.4,0.1,0.7,0.1
				c0.3,0,0.7,0,1.3,0c0.6,0,1.1,0,1.4,0c0.3,0,0.6-0.1,0.7-0.1c0,0.1-0.1,0.4-0.1,0.7c0,0.3,0,0.7-0.1,1.1c0,0.4,0,0.9,0,1.3
				c0,0.5,0,0.9,0,1.3v0.9c0,0.4,0,0.9,0,1.2c0,0.4,0,0.7,0.1,0.8c-1.2,0.3-2.4,0.6-3.6,0.8c-1.2,0.2-2.4,0.3-3.6,0.3
				c-1.5,0-2.9-0.2-4.2-0.6c-1.3-0.4-2.4-1-3.3-1.8c-0.9-0.8-1.7-1.7-2.2-2.8c-0.5-1.1-0.8-2.3-0.8-3.7c0-1.7,0.3-3.2,0.8-4.4
				c0.6-1.3,1.3-2.3,2.3-3.2c1-0.8,2.2-1.5,3.5-1.9c1.4-0.4,2.8-0.6,4.4-0.6c1.4,0,2.5,0.1,3.5,0.4c1,0.3,2,0.7,2.9,1.2
				c-0.1,0.5-0.3,0.9-0.4,1.4c-0.1,0.4-0.2,0.9-0.3,1.4h-0.4C406.3,142.3,405.6,141.7,404.8,141.2z"/>
			<path class="st7" d="M418.5,157.5c-1-0.2-1.8-0.6-2.6-1.2c-0.7-0.6-1.3-1.3-1.7-2.2c-0.4-0.9-0.6-2-0.6-3.2c0-0.7,0-1.3,0-1.9
				c0-0.6,0-1.1,0-1.6c0-0.5,0-0.9,0-1.4c0-0.4,0-0.9,0-1.4c0-1.4,0-2.6,0-3.5c0-0.9,0-1.6-0.1-2c0.4,0,0.7,0.1,1.1,0.1
				c0.4,0,0.7,0,1.1,0c0.4,0,0.7,0,1.1,0c0.4,0,0.7-0.1,1.1-0.1c-0.2,1.7-0.3,3.3-0.3,4.8c0,1.5-0.1,3-0.1,4.5
				c0,1.6,0.1,2.9,0.3,3.9c0.2,1,0.6,1.8,1,2.3c0.5,0.5,1,0.9,1.7,1.1c0.7,0.2,1.4,0.3,2.3,0.3c1.1,0,1.9-0.3,2.5-0.8
				s1.1-1.2,1.4-2.1c0.3-0.9,0.5-1.9,0.6-3.1c0.1-1.1,0.1-2.3,0.1-3.6c0-1.2,0-2.5-0.1-3.7c0-1.2-0.1-2.4-0.2-3.7
				c0.2,0,0.5,0.1,0.7,0.1c0.2,0,0.4,0,0.6,0c0.2,0,0.5,0,0.7,0c0.2,0,0.4-0.1,0.7-0.1c0,0.4-0.1,0.9-0.1,1.6c0,0.7-0.1,1.4-0.1,2.3
				c0,0.9-0.1,1.8-0.1,2.9c0,1,0,2.1,0,3.3c0,3.1-0.7,5.3-2,6.7c-1.3,1.3-3.3,2-5.9,2C420.5,157.9,419.4,157.7,418.5,157.5z"/>
			<path class="st7" d="M435.3,142.6c0-1.1-0.1-2.3-0.2-3.5c0.3,0,0.6,0.1,1,0.1c0.4,0,0.8,0,1.2,0c0.4,0,0.8,0,1.2,0
				c0.4,0,0.7-0.1,1-0.1c-0.1,1.2-0.1,2.3-0.2,3.5c0,1.2-0.1,2.5-0.1,3.9v3.6c0,1,0,2,0,2.9c0,0.9,0,1.8,0,2.5c1,0,2,0,3-0.1
				c1-0.1,2-0.1,3.1-0.3c0,0.2-0.1,0.4-0.1,0.5c0,0.2,0,0.4,0,0.7c0,0.3,0,0.5,0,0.7c0,0.2,0,0.3,0.1,0.4c-0.5,0-1.1,0-1.8,0
				c-0.7,0-1.7,0-2.9,0c-1.1,0-2,0-2.6,0c-0.7,0-1.2,0-1.6,0c-0.4,0-0.7,0-0.9,0c-0.2,0-0.4,0-0.5,0c0.1-1.1,0.1-2.2,0.2-3.4
				c0-1.1,0.1-2.5,0.1-3.9v-3.6C435.3,145.1,435.3,143.8,435.3,142.6z"/>
			<path class="st7" d="M464.8,157.5c-0.4,0-0.8-0.1-1.2-0.1c-0.4,0-0.8,0-1.1,0c-0.4,0-0.8,0-1.1,0c-0.4,0-0.8,0-1.1,0.1
				c-0.3-0.9-0.6-1.8-0.9-2.7c-0.3-0.9-0.6-1.8-1-2.7c-0.6,0-1.1,0-1.7,0c-0.6,0-1.1,0-1.7,0c-0.5,0-0.9,0-1.4,0c-0.5,0-0.9,0-1.4,0
				c-0.4,0.9-0.7,1.8-1,2.7c-0.3,0.9-0.6,1.8-0.8,2.7c-0.2,0-0.4-0.1-0.6-0.1c-0.2,0-0.4,0-0.6,0c-0.2,0-0.4,0-0.6,0
				c-0.2,0-0.4,0-0.7,0.1c0.2-0.5,0.5-1.1,0.9-1.9c0.4-0.8,0.7-1.7,1.2-2.8c0.4-1,0.9-2.1,1.4-3.3c0.5-1.2,1-2.4,1.5-3.6
				c0.5-1.2,1-2.4,1.4-3.6c0.5-1.2,0.9-2.3,1.3-3.3c0.2,0,0.3,0.1,0.5,0.1c0.2,0,0.3,0,0.5,0c0.2,0,0.3,0,0.5,0
				c0.2,0,0.3-0.1,0.5-0.1c0.6,1.5,1.2,3.1,1.8,4.9c0.7,1.7,1.3,3.4,2,5.1c0.7,1.7,1.3,3.2,1.9,4.7
				C463.7,155.2,464.3,156.5,464.8,157.5z M455.4,144.2c-0.5,1.1-0.9,2.1-1.3,3.2c-0.4,1-0.8,2.1-1.2,3.2h4.9
				c-0.4-1.1-0.8-2.1-1.2-3.2C456.2,146.3,455.8,145.3,455.4,144.2z"/>
			<path class="st7" d="M468.6,142.6c0-1.1-0.1-2.3-0.2-3.5c0.3,0,0.6,0.1,1,0.1c0.4,0,0.8,0,1.2,0c0.6,0,1.2,0,2-0.1
				c0.7,0,1.7-0.1,2.9-0.1c1.5,0,2.9,0.1,4.2,0.4c1.3,0.3,2.3,0.7,3.2,1.4c0.9,0.7,1.6,1.5,2.1,2.7c0.5,1.1,0.7,2.5,0.7,4.2
				c0,1.5-0.2,2.8-0.7,4c-0.5,1.2-1.2,2.2-2,3.1c-0.8,0.8-1.8,1.5-2.9,1.9c-1.1,0.4-2.3,0.7-3.6,0.7c-1.3,0-2.5,0-3.4,0
				c-0.9,0-1.8,0-2.5,0c-0.4,0-0.8,0-1.2,0c-0.4,0-0.7,0-1,0.1c0.1-1.1,0.1-2.2,0.2-3.4c0-1.1,0.1-2.5,0.1-3.9v-3.6
				C468.6,145.1,468.6,143.8,468.6,142.6z M472.6,152.1v1.6c0,0.5,0,1,0,1.4c0,0.4,0,0.7,0,0.8c0.3,0,0.6,0,1,0.1c0.4,0,0.8,0,1.4,0
				c2,0,3.6-0.7,4.8-2.1c1.2-1.4,1.8-3.4,1.8-6.2c0-1.1-0.1-2.1-0.4-3c-0.3-0.9-0.7-1.6-1.2-2.2c-0.5-0.6-1.2-1.1-1.9-1.4
				c-0.7-0.3-1.6-0.5-2.5-0.5c-0.6,0-1.2,0-1.6,0c-0.4,0-0.8,0.1-1.2,0.1c0,0.1,0,0.4,0,0.8c0,0.4,0,0.9,0,1.4v1.6v1.3v4.8V152.1z"
				/>
			<path class="st7" d="M489.8,144.7c0.5-1.2,1.2-2.2,2.1-3c0.9-0.9,2-1.6,3.2-2.1c1.3-0.5,2.7-0.7,4.2-0.7c1.4,0,2.7,0.2,4,0.6
				c1.2,0.4,2.3,1,3.2,1.8c0.9,0.8,1.6,1.8,2.2,3c0.5,1.2,0.8,2.6,0.8,4.2c0,1.3-0.3,2.6-0.8,3.7c-0.5,1.2-1.2,2.2-2.1,3
				c-0.9,0.9-2,1.5-3.2,2c-1.2,0.5-2.6,0.7-4.1,0.7c-1.4,0-2.7-0.2-4-0.5c-1.2-0.3-2.3-0.9-3.2-1.7c-0.9-0.8-1.6-1.8-2.2-3
				c-0.5-1.2-0.8-2.6-0.8-4.3C489,147.1,489.3,145.8,489.8,144.7z M504.6,144.7c-0.3-0.9-0.7-1.7-1.2-2.3c-0.5-0.6-1.1-1.1-1.8-1.5
				c-0.7-0.3-1.5-0.5-2.4-0.5c-0.9,0-1.7,0.2-2.4,0.7c-0.7,0.4-1.3,1-1.8,1.8c-0.5,0.7-0.9,1.6-1.1,2.6c-0.3,1-0.4,2.1-0.4,3.2
				c0,1.4,0.2,2.6,0.5,3.6c0.3,1,0.7,1.8,1.2,2.4c0.5,0.6,1.1,1,1.8,1.3c0.7,0.3,1.4,0.4,2.1,0.4c0.8,0,1.6-0.2,2.3-0.5
				c0.7-0.3,1.4-0.9,1.9-1.5c0.5-0.7,1-1.6,1.3-2.6c0.3-1.1,0.5-2.3,0.5-3.8C505,146.6,504.9,145.6,504.6,144.7z"/>
			<path class="st7" d="M517.8,149.1v1.1c0,1.5,0,2.8,0.1,3.9c0,1.1,0.1,2.3,0.2,3.4c-0.3,0-0.6-0.1-1-0.1c-0.4,0-0.8,0-1.2,0
				c-0.4,0-0.8,0-1.2,0c-0.4,0-0.7,0-1,0.1c0.1-1.1,0.1-2.2,0.2-3.4c0-1.1,0.1-2.5,0.1-3.9v-3.6c0-1.5,0-2.8-0.1-3.9
				c0-1.1-0.1-2.3-0.2-3.5c0.3,0,0.6,0.1,1,0.1c0.4,0,0.8,0,1.2,0c0.5,0,1,0,1.6-0.1c0.6,0,1.4-0.1,2.3-0.1c0.7,0,1.3,0,1.7,0.1
				c0.5,0,0.9,0.1,1.2,0.2c0.3,0.1,0.6,0.2,0.9,0.3c0.3,0.1,0.5,0.3,0.7,0.4c0.5,0.4,1,0.9,1.3,1.5c0.3,0.6,0.5,1.3,0.5,2.1
				c0,1.3-0.4,2.4-1.1,3.2c-0.7,0.8-1.7,1.4-3.1,1.7c0.9,1.5,1.8,3,2.7,4.5c1,1.5,2,3,2.9,4.5c-0.4,0-0.8-0.1-1.2-0.1
				c-0.4,0-0.8,0-1.2,0c-0.4,0-0.8,0-1.2,0c-0.4,0-0.8,0-1.2,0.1l-4.8-8.4H517.8z M521.7,142.3c-0.2-0.5-0.4-0.8-0.7-1.1
				c-0.3-0.2-0.8-0.4-1.3-0.5c-0.5-0.1-1.2-0.1-1.9-0.1c-0.1,2.4-0.1,4.8-0.1,7.3c0.1,0,0.2,0,0.3,0c0.1,0,0.2,0,0.3,0
				c1.2,0,2.1-0.3,2.7-0.9c0.6-0.6,0.9-1.6,0.9-2.9C522,143.4,521.9,142.8,521.7,142.3z"/>
			<path class="st7" d="M539.6,142.6c0-1.1-0.1-2.3-0.2-3.5c0.3,0,0.6,0.1,1,0.1c0.4,0,0.8,0,1.2,0c0.6,0,1.2,0,2-0.1
				c0.7,0,1.7-0.1,2.9-0.1c1.5,0,2.9,0.1,4.2,0.4c1.3,0.3,2.3,0.7,3.2,1.4c0.9,0.7,1.6,1.5,2.1,2.7c0.5,1.1,0.7,2.5,0.7,4.2
				c0,1.5-0.2,2.8-0.7,4c-0.5,1.2-1.2,2.2-2,3.1c-0.8,0.8-1.8,1.5-2.9,1.9c-1.1,0.4-2.3,0.7-3.6,0.7c-1.3,0-2.5,0-3.4,0
				c-0.9,0-1.8,0-2.5,0c-0.4,0-0.8,0-1.2,0c-0.4,0-0.7,0-1,0.1c0.1-1.1,0.1-2.2,0.2-3.4c0-1.1,0.1-2.5,0.1-3.9v-3.6
				C539.7,145.1,539.7,143.8,539.6,142.6z M543.6,152.1v1.6c0,0.5,0,1,0,1.4c0,0.4,0,0.7,0,0.8c0.3,0,0.6,0,1,0.1c0.4,0,0.8,0,1.4,0
				c2,0,3.6-0.7,4.8-2.1c1.2-1.4,1.8-3.4,1.8-6.2c0-1.1-0.1-2.1-0.4-3c-0.3-0.9-0.7-1.6-1.2-2.2c-0.5-0.6-1.2-1.1-1.9-1.4
				c-0.7-0.3-1.6-0.5-2.5-0.5c-0.6,0-1.2,0-1.6,0c-0.4,0-0.8,0.1-1.2,0.1c0,0.1,0,0.4,0,0.8c0,0.4,0,0.9,0,1.4v1.6v1.3v4.8V152.1z"
				/>
			<path class="st7" d="M561.2,142.6c0-1.1-0.1-2.3-0.1-3.5c0.8,0,1.6,0,2.4,0.1c0.8,0,1.6,0.1,2.4,0.1c1.3,0,2.5,0,3.5,0
				c1,0,1.7-0.1,2.1-0.1c-0.1,0.3-0.1,0.7-0.1,1.1c0,0.3,0,0.5,0,0.7c0,0.2,0,0.3,0.1,0.5c-0.5,0-1.1-0.1-1.7-0.1
				c-0.6,0-1.2-0.1-1.8-0.1c-0.6,0-1.1-0.1-1.6-0.1c-0.5,0-0.8,0-1,0c-0.1,1-0.1,1.9-0.1,2.9c0,1,0,1.9,0,2.9c1.2,0,2.2,0,3.1-0.1
				c0.9,0,1.9-0.1,2.9-0.1c-0.1,0.3-0.1,0.5-0.1,0.7c0,0.2,0,0.3,0,0.5c0,0.1,0,0.3,0,0.4c0,0.2,0.1,0.4,0.1,0.7
				c-2-0.2-4-0.2-6.1-0.2c0,0.6,0,1.1,0,1.7c0,0.6,0,1.1,0,1.7c0,1.2,0,2.3,0.1,3.3c1,0,2,0,3-0.1c1-0.1,2-0.1,3.1-0.3
				c0,0.2-0.1,0.4-0.1,0.5c0,0.2,0,0.4,0,0.7c0,0.3,0,0.5,0,0.7c0,0.2,0,0.3,0.1,0.4c-0.5,0-1.1,0-1.8,0c-0.7,0-1.7,0-2.9,0
				c-1.1,0-2,0-2.6,0c-0.7,0-1.2,0-1.6,0c-0.4,0-0.7,0-0.9,0c-0.2,0-0.4,0-0.5,0c0.1-1.1,0.1-2.2,0.1-3.4c0-1.1,0-2.5,0-3.9v-3.6
				C561.3,145.1,561.2,143.8,561.2,142.6z"/>
			<path class="st7" d="M575.9,142.6c0-1.1-0.1-2.3-0.2-3.5c0.3,0,0.6,0.1,1,0.1c0.4,0,0.8,0,1.2,0c0.4,0,0.8,0,1.2,0
				c0.4,0,0.7-0.1,1-0.1c-0.1,1.2-0.1,2.3-0.2,3.5c0,1.2-0.1,2.5-0.1,3.9v3.6c0,1,0,2,0,2.9c0,0.9,0,1.8,0,2.5c1,0,2,0,3-0.1
				c1-0.1,2-0.1,3.1-0.3c0,0.2-0.1,0.4-0.1,0.5c0,0.2,0,0.4,0,0.7c0,0.3,0,0.5,0,0.7c0,0.2,0,0.3,0.1,0.4c-0.5,0-1.1,0-1.8,0
				c-0.7,0-1.7,0-2.9,0c-1.1,0-2,0-2.6,0c-0.7,0-1.2,0-1.6,0c-0.4,0-0.7,0-0.9,0c-0.2,0-0.4,0-0.5,0c0.1-1.1,0.1-2.2,0.2-3.4
				c0-1.1,0.1-2.5,0.1-3.9v-3.6C575.9,145.1,575.9,143.8,575.9,142.6z"/>
			<path class="st7" d="M612,141.2c-0.9-0.5-1.9-0.7-3.1-0.7c-0.8,0-1.6,0.2-2.4,0.5c-0.8,0.3-1.5,0.9-2.2,1.6
				c-0.6,0.7-1.1,1.6-1.5,2.6c-0.4,1-0.6,2.3-0.6,3.7c0,1.1,0.1,2.1,0.4,3c0.3,0.9,0.7,1.7,1.3,2.4c0.6,0.7,1.2,1.2,2,1.6
				c0.8,0.4,1.7,0.6,2.8,0.6c0.2,0,0.5,0,0.8,0c0.3,0,0.6-0.1,0.9-0.1c0.3,0,0.5-0.1,0.8-0.1c0.2-0.1,0.4-0.1,0.5-0.2
				c0-0.2,0.1-0.5,0.1-0.8c0-0.3,0-0.7,0-1.1c0-1.4,0-2.5-0.1-3.2c-0.1-0.7-0.1-1.2-0.1-1.4c0.2,0,0.4,0.1,0.7,0.1
				c0.3,0,0.7,0,1.3,0c0.6,0,1.1,0,1.4,0c0.3,0,0.6-0.1,0.7-0.1c0,0.1-0.1,0.4-0.1,0.7c0,0.3,0,0.7-0.1,1.1c0,0.4,0,0.9,0,1.3
				c0,0.5,0,0.9,0,1.3v0.9c0,0.4,0,0.9,0,1.2c0,0.4,0,0.7,0.1,0.8c-1.2,0.3-2.4,0.6-3.6,0.8c-1.2,0.2-2.4,0.3-3.6,0.3
				c-1.5,0-2.9-0.2-4.2-0.6c-1.3-0.4-2.4-1-3.3-1.8c-0.9-0.8-1.7-1.7-2.2-2.8c-0.5-1.1-0.8-2.3-0.8-3.7c0-1.7,0.3-3.2,0.8-4.4
				c0.6-1.3,1.3-2.3,2.3-3.2c1-0.8,2.2-1.5,3.5-1.9c1.4-0.4,2.8-0.6,4.4-0.6c1.4,0,2.5,0.1,3.5,0.4c1,0.3,2,0.7,2.9,1.2
				c-0.1,0.5-0.3,0.9-0.4,1.4c-0.1,0.4-0.2,0.9-0.3,1.4h-0.4C613.5,142.3,612.8,141.7,612,141.2z"/>
			<path class="st7" d="M635.8,157.5c-0.4,0-0.8-0.1-1.2-0.1s-0.8,0-1.1,0c-0.4,0-0.8,0-1.1,0s-0.8,0-1.1,0.1
				c-0.3-0.9-0.6-1.8-0.9-2.7c-0.3-0.9-0.6-1.8-1-2.7c-0.6,0-1.1,0-1.7,0c-0.6,0-1.1,0-1.7,0c-0.5,0-0.9,0-1.4,0c-0.5,0-0.9,0-1.4,0
				c-0.4,0.9-0.7,1.8-1,2.7c-0.3,0.9-0.6,1.8-0.8,2.7c-0.2,0-0.4-0.1-0.6-0.1c-0.2,0-0.4,0-0.6,0c-0.2,0-0.4,0-0.6,0
				c-0.2,0-0.4,0-0.7,0.1c0.2-0.5,0.5-1.1,0.9-1.9c0.4-0.8,0.7-1.7,1.2-2.8c0.4-1,0.9-2.1,1.4-3.3c0.5-1.2,1-2.4,1.5-3.6
				c0.5-1.2,1-2.4,1.4-3.6c0.5-1.2,0.9-2.3,1.3-3.3c0.2,0,0.3,0.1,0.5,0.1c0.2,0,0.3,0,0.5,0c0.2,0,0.3,0,0.5,0
				c0.2,0,0.3-0.1,0.5-0.1c0.6,1.5,1.2,3.1,1.8,4.9c0.6,1.7,1.3,3.4,2,5.1c0.7,1.7,1.3,3.2,1.9,4.7
				C634.7,155.2,635.2,156.5,635.8,157.5z M626.3,144.2c-0.5,1.1-0.9,2.1-1.3,3.2c-0.4,1-0.8,2.1-1.2,3.2h4.9
				c-0.4-1.1-0.8-2.1-1.2-3.2C627.1,146.3,626.7,145.3,626.3,144.2z"/>
			<path class="st7" d="M644.2,140.5c-0.8,0-1.5,0.2-2,0.7c-0.5,0.5-0.8,1-0.8,1.7c0,0.7,0.2,1.2,0.6,1.6c0.4,0.4,0.9,0.8,1.5,1.1
				c0.6,0.3,1.3,0.7,1.9,1c0.7,0.3,1.3,0.7,1.9,1.1c0.6,0.5,1.1,1,1.5,1.7c0.4,0.6,0.6,1.5,0.6,2.5c0,0.9-0.2,1.7-0.5,2.4
				c-0.3,0.7-0.8,1.4-1.4,1.9c-0.6,0.5-1.4,0.9-2.2,1.2c-0.9,0.3-1.8,0.4-2.9,0.4c-1,0-1.8-0.1-2.6-0.3c-0.8-0.2-1.3-0.5-1.7-0.8
				c0.2-0.6,0.3-1.2,0.5-1.7c0.1-0.5,0.2-1.1,0.3-1.7h0.5c0.1,0.4,0.2,0.8,0.4,1.1c0.2,0.3,0.4,0.7,0.7,0.9c0.3,0.3,0.7,0.5,1.1,0.6
				c0.4,0.2,0.9,0.2,1.4,0.2c1.1,0,1.9-0.3,2.4-0.8c0.5-0.5,0.8-1.2,0.8-1.9c0-0.7-0.2-1.2-0.6-1.7c-0.4-0.4-0.9-0.8-1.5-1.1
				c-0.6-0.3-1.2-0.6-1.9-1c-0.7-0.3-1.3-0.7-1.9-1.1c-0.6-0.4-1.1-1-1.5-1.6c-0.4-0.7-0.6-1.5-0.6-2.5c0-0.9,0.2-1.7,0.5-2.5
				c0.3-0.7,0.8-1.3,1.3-1.8c0.6-0.5,1.2-0.8,1.9-1.1c0.7-0.2,1.5-0.4,2.3-0.4c1,0,1.8,0.1,2.5,0.3c0.7,0.2,1.3,0.6,1.9,1
				c-0.2,0.4-0.3,0.8-0.4,1.2c-0.1,0.4-0.3,0.9-0.4,1.5h-0.4C646.9,141.2,645.8,140.5,644.2,140.5z"/>
		</g>
	</g>
</g>
</svg>
