<?xml version="1.0" encoding="utf-8"?>
<!-- Generator: Adobe Illustrator 22.1.0, SVG Export Plug-In . SVG Version: 6.00 Build 0)  -->
<svg version="1.1"
	 id="svg2" inkscape:export-filename="C:\Users\Flor\Documents\Crisvill\watafan\Final Works\Logo1\logo1-sin_fondo.png" inkscape:export-xdpi="343.37326" inkscape:export-ydpi="343.37326" inkscape:version="0.92.0 r15299" sodipodi:docname="logo1.1.svg" xmlns:cc="http://creativecommons.org/ns#" xmlns:dc="http://purl.org/dc/elements/1.1/" xmlns:inkscape="http://www.inkscape.org/namespaces/inkscape" xmlns:rdf="http://www.w3.org/1999/02/22-rdf-syntax-ns#" xmlns:sodipodi="http://sodipodi.sourceforge.net/DTD/sodipodi-0.dtd" xmlns:svg="http://www.w3.org/2000/svg"
	 xmlns="http://www.w3.org/2000/svg" xmlns:xlink="http://www.w3.org/1999/xlink" x="0px" y="0px" viewBox="0 0 160 63"
	 style="enable-background:new 0 0 160 63;" xml:space="preserve">
<style type="text/css">
	.st0{fill:#FFFFFF;}
</style>
<defs>
	
	
		<inkscape:path-effect  apply_no_weight="true" apply_with_weight="true" effect="bspline" helper_size="0" id="path-effect4494" is_visible="true" only_selected="false" steps="2" weight="33.333333">
		</inkscape:path-effect>
</defs>
<sodipodi:namedview  bordercolor="#666666" borderopacity="1.0" fit-margin-bottom="0" fit-margin-left="0" fit-margin-right="0" fit-margin-top="0" id="base" inkscape:current-layer="layer1" inkscape:cx="-180.4674" inkscape:cy="692.3723" inkscape:document-units="px" inkscape:object-nodes="false" inkscape:object-paths="false" inkscape:pageopacity="0.0" inkscape:pageshadow="2" inkscape:snap-grids="false" inkscape:snap-nodes="false" inkscape:snap-smooth-nodes="true" inkscape:snap-to-guides="false" inkscape:window-height="705" inkscape:window-maximized="1" inkscape:window-width="1366" inkscape:window-x="-8" inkscape:window-y="-8" inkscape:zoom="0.35355339" pagecolor="#ffffff" showgrid="false" showguides="false">
	</sodipodi:namedview>
<g>
	<g>
		<path d="M92.3,28.5v11.8h-3.1v-2.6c-0.7,1.8-2.1,2.8-4.1,2.8c-3.4,0-5.4-2.5-5.4-6.1c0-3.7,1.9-6.2,5.2-6.2c2,0,3.5,1,4.2,2.9
			v-2.7H92.3z M89.3,34.4c0-2.3-1-3.4-3.3-3.4c-2.2,0-3.2,1.1-3.2,3.4c0,2.3,1,3.4,3.2,3.4C88.3,37.7,89.3,36.7,89.3,34.4z"/>
		<path d="M99.7,31.2v6.4h3.1v2.7h-2.5c-2.2,0-3.7-1.5-3.7-3.7v-5.4h-2.3v-2.7h2.3v-3.5h3.1v3.5h3.4v2.7H99.7z"/>
		<path d="M117.2,28.5v11.8h-3.1v-2.6c-0.7,1.8-2.1,2.8-4.1,2.8c-3.4,0-5.4-2.5-5.4-6.1c0-3.7,1.9-6.2,5.2-6.2c2,0,3.5,1,4.2,2.9
			v-2.7H117.2z M114.2,34.4c0-2.3-1-3.4-3.3-3.4c-2.2,0-3.2,1.1-3.2,3.4c0,2.3,1,3.4,3.2,3.4C113.2,37.7,114.2,36.7,114.2,34.4z"/>
		<path d="M128.3,31.2h-3.5v9.1h-3.1v-9.1h-2.5v-2.7h2.5v-2c0-2.2,1.5-3.7,3.7-3.7h2.8v2.7h-3.4v3h3.5V31.2z"/>
		<path d="M141.8,28.5v11.8h-3.1v-2.6c-0.7,1.8-2.1,2.8-4.1,2.8c-3.4,0-5.4-2.5-5.4-6.1c0-3.7,1.9-6.2,5.2-6.2c2,0,3.5,1,4.2,2.9
			v-2.7H141.8z M138.8,34.4c0-2.3-1-3.4-3.3-3.4c-2.2,0-3.2,1.1-3.2,3.4c0,2.3,1,3.4,3.2,3.4C137.8,37.7,138.8,36.7,138.8,34.4z"/>
		<path d="M74.9,28.2v7.1c0,1.8-0.8,2.2-2.4,2.2c-1.6,0-2.4-0.4-2.4-2.2v-7.1h0H67h0v7.1c0,1.8-0.8,2.2-2.4,2.2
			c-1.6,0-2.4-0.4-2.4-2.2v-7.1h-3.1v6.9c0,3.5,2.4,5.3,5.5,5.3c1.6,0,3-0.5,4-1.4c1,0.9,2.4,1.4,4,1.4c3.1,0,5.5-1.8,5.5-5.3v-6.9
			H74.9z"/>
		<g>
			<path d="M144.2,40.3l0-6.9c0-3.5,2.4-5.3,5.5-5.3c3.1,0,5.5,1.8,5.5,5.3v6.9h-3.1l0-7.1c0-1.8-0.8-2.2-2.4-2.2
				c-1.6,0-2.4,0.4-2.4,2.2l0,7.1H144.2z"/>
		</g>
	</g>
	<g>
		<path class="st0" d="M47.4,20.9c-0.2-0.2-0.7-1.4-0.7-2.2c0-0.5,0.1-1.9-0.4-2.6c-0.4-0.6-1-0.5-1.3-0.1c-0.4,0.6-0.1,1.5,0,2.2
			c0,0.4,0,1-0.3,1.1c-0.2,0-0.4-0.3-0.5-0.4c-0.4-0.7-0.6-1.5-0.8-2.3c-0.3-0.7-0.5-1.4-1.1-1.9c-0.3-0.3-0.8-0.2-1.1-0.1
			c-0.4,0.2-0.5,0.7-0.4,1.1c0.2,0.7,0.6,1.4,0.9,2.1c0.1,0.3,0.5,1,0.5,1.2c0.1,0.2,0.2,0.6,0,0.7c-0.3,0.2-1-0.8-1.1-0.8
			c-0.4-0.5-0.8-1.1-1.2-1.7c-0.4-0.6-1.5-2.4-2.3-1.2c-0.6,0.8,0.2,2.1,0.6,2.7c0.5,0.8,1.1,1.5,1.6,2.2c0.1,0.3,0.1,0.5,0.1,0.6
			c-0.1,0.1-0.5,0-0.6-0.1c-0.1-0.1-1.8-1.7-3.2-2.1c-0.7-0.2-1.1,0.4-1,0.9c0.1,0.8,1.9,2,2.8,2.6c0.7,0.5,1.3,0.9,2,1.3
			c-1.3-0.2-3.1,0-3.7,0.8c-0.2,0.2-0.2,0.5,0,0.9c0.3,0.6,1.5,0.5,2.2,0.6c1,0.1,2.2,0.3,3.5,1.3c1.7,1.7,2.4,3.7,2.3,6.2
			c-0.1,5-4.1,9-9,9.1c-0.7,0-1.4,0-2.1-0.2c2-2.5,3.2-5.7,3.3-9.1h0c0,0,0,0,0,0h0c0-4.2-3.4-7.7-7.7-7.7s-7.7,3.4-7.7,7.7h0
			c0,0,0,0,0,0h0c0.1,3.4,1.3,6.6,3.3,9.1c-0.7,0.1-1.4,0.2-2.1,0.2c-5-0.1-9-4.2-9-9.1c0-2.7,0.5-5,2.8-6.8c0,0,1-0.8,3.5-0.7
			c0.7,0,1.7-0.1,1.8-0.8c0-0.4-0.5-1.9-3.9-1.4c0.7-0.4,1.4-0.8,2.1-1.3c0.9-0.7,2.2-1.5,2.6-2.2c0.1-0.2,0.3-0.5,0.1-1
			c-0.4-0.6-1.1-0.3-1.5-0.1c-0.2,0.1-0.6,0.4-0.6,0.4c-0.6,0.5-0.9,0.7-1.4,1.1c-0.1,0.1-1,0.7-1.2,0.5c-0.4-0.3,1.1-1.8,1.6-2.6
			c0.4-0.7,1.3-1.9,0.7-2.7c-1-1.3-1.8,0.4-2.2,1c-0.4,0.6-1.8,2.8-2.3,2.6c-0.5-0.3,1.3-3.2,1.4-4.2c0-0.4-0.2-1.2-1.3-0.8
			c-0.9,0.3-1,1.4-1.3,2.1c-0.3,0.8-0.4,1.4-0.8,2.1c-0.1,0.1-0.3,0.4-0.4,0.4c-0.4,0-0.2-0.6-0.2-1.1c0-0.7,0.3-1.8-0.1-2.3
			c-0.3-0.3-1-0.2-1.2,0.2c-0.4,0.8-0.4,1.5-0.4,2.4c0,0.8-0.4,2.1-0.8,2.6C7,24,4.9,28.2,5,33c0.1,8.7,7.1,15.6,15.8,15.6
			c2.9,0,5.7-0.8,8-2.2c2.3,1.4,5.1,2.2,8,2.2c8.7,0,15.7-6.9,15.8-15.6C52.7,28.2,51.1,23.9,47.4,20.9z M31.8,33.4
			c0,2.7-1.2,5.1-3,6.8c-1.9-1.7-3-4.1-3-6.8c0,0,0,0,0,0c0,0,0,0,0,0c0,0,0,0,0,0c0-1.7,1.4-3,3-3C30.5,30.4,31.8,31.8,31.8,33.4
			C31.8,33.4,31.8,33.4,31.8,33.4C31.8,33.4,31.8,33.4,31.8,33.4C31.8,33.4,31.8,33.4,31.8,33.4z"/>
		<path d="M49,43.3c-2,2.3-4.5,4-7.4,4.8c-4.9,1.5-10.2,0.5-14.3-2.5c-3.8-2.9-6.1-7.4-6.3-12.1c0-0.2,0.3-0.3,0.3,0
			c0.1,2.6,0.9,5.2,2.2,7.4c2.4,4,6.5,6.7,11,7.4c5.3,0.8,10.7-1.2,14.2-5.2C48.9,42.8,49.1,43.1,49,43.3z M21.4,32.2
			c0.7-3.9,4.4-6.6,8.4-6.1c3.8,0.5,6.8,4,6.5,7.9c-0.2,2.6-1,5.2-2.5,7.4c-0.1,0.2,0.1,0.4,0.2,0.2c2.3-3.6,3.8-9,1.1-12.8
			c-2.4-3.3-7.1-4.2-10.5-2c-1.9,1.2-3.1,3.1-3.5,5.3C21,32.3,21.3,32.4,21.4,32.2z M27.6,46.9c-5.2,2.5-11.5,2-16.2-1.5
			C7.2,42.3,4.9,37.2,5.1,32c0.2-3.6,1.6-6.9,4-9.6C9.3,22.2,9,22,8.9,22.2c-4,4.5-5.2,11.1-2.9,16.7c1.9,4.8,6.3,8.5,11.4,9.6
			c3.5,0.8,7.2,0.3,10.4-1.2C27.9,47.1,27.8,46.8,27.6,46.9z M51.6,26.2c-0.5-1.3-1.3-2.5-2.2-3.6c-1-1.2-2.3-1.9-2.5-3.6
			c-0.1-0.6-0.1-1.2-0.1-1.8c0-0.5-0.1-1.1-0.4-1.5c-0.5-0.6-1.3-0.5-1.6,0.2c-0.2,0.5-0.1,1,0,1.5c0,0.4,0.1,0.8,0,1.2
			c-0.1,0.5-0.3,0.2-0.4-0.1c-0.5-1-0.8-2.1-1.2-3.1c-0.3-0.8-1.3-1.8-2.1-1c-0.9,0.7-0.1,1.9,0.3,2.7c0.2,0.5,0.4,0.9,0.6,1.4
			c0.1,0.2,0.2,0.4,0.2,0.6c0.1,0.3,0,0.3-0.2,0.1c-0.6-0.5-1.1-1.3-1.6-2c-0.4-0.7-1.3-2.4-2.3-1.9c-1,0.5-0.7,1.7-0.3,2.5
			c0.3,0.6,0.8,1.3,1.2,1.9c0.3,0.3,0.5,0.7,0.8,1c0,0,0.2,0.4,0.2,0.4c0,0-0.4-0.2-0.4-0.2c-0.4-0.3-0.8-0.6-1.2-0.9
			c-0.6-0.4-1.3-1-2-1.1c-0.9-0.2-1.5,0.9-1,1.6c0.3,0.5,0.8,0.8,1.2,1.2c0.7,0.5,1.4,1,2.1,1.5c0.2,0.1,0.4-0.2,0.2-0.3
			c-0.5-0.4-1.1-0.8-1.6-1.2c-0.4-0.3-1-0.7-1.3-1.1c-0.3-0.3-0.5-0.7-0.3-1.1c0.3-0.4,0.8-0.2,1.2-0.1c0.6,0.3,1.2,0.7,1.8,1.1
			c0.3,0.3,1.1,1.1,1.6,0.9c0.8-0.2-0.4-1.5-0.6-1.7c-0.4-0.5-0.7-1-1.1-1.5c-0.4-0.6-1-1.6-0.5-2.3c0.9-1.1,2.2,1.6,2.6,2.2
			c0.4,0.5,0.9,1.3,1.4,1.6c0.4,0.2,0.6-0.2,0.6-0.6c-0.1-0.8-0.6-1.6-0.9-2.3c-0.2-0.5-0.9-1.7-0.3-2.1c0.8-0.6,1.5,0.6,1.7,1.2
			c0.4,0.9,0.6,1.9,1.1,2.8c0.2,0.4,0.7,1,1,0.4c0.2-0.3,0.2-0.6,0.1-1c0-0.5-0.5-2.4,0.5-2.3c1.1,0.1,0.9,2.3,1,3.1
			c0.1,1.1,0.5,2,1.3,2.8c1,1,1.9,2,2.6,3.2c3.1,5.2,2.5,12.3-1,17.2c-0.1,0.2,0.1,0.4,0.3,0.2C53,37.7,53.8,31.4,51.6,26.2z
			 M43.2,25.8c-0.2,0.1-0.1,0.5,0.1,0.4c1.2-0.7,1.1-2.9,0.3-3.8c-0.1-0.2-0.4,0.1-0.2,0.3c0.4,0.4,0.5,1,0.5,1.5
			C43.8,24.7,43.7,25.5,43.2,25.8z M10.1,21.4c1-1.3,0.9-2.8,1.1-4.3c0.1-0.3,0.1-0.7,0.3-1c0.3-0.4,1-0.2,1.1,0.3
			c0.1,0.3,0,0.6,0,1c-0.1,0.5-0.3,1.5,0.1,1.9c0.6,0.6,1.2-1.2,1.3-1.6c0.3-0.7,0.5-1.6,0.9-2.3c0.2-0.4,0.6-0.8,1-0.8
			c1,0,0.7,1,0.5,1.6c-0.3,0.7-0.6,1.4-0.9,2.1c-0.1,0.3-0.5,0.9-0.3,1.3c0.4,1,1.7-1,1.9-1.3c0.5-0.7,0.9-1.4,1.4-2.1
			c0.3-0.4,1-0.8,1.3-0.1c0.2,0.4,0.2,0.8,0,1.2c-0.3,0.9-1,1.7-1.5,2.4c-0.3,0.4-1,1-1,1.5c0,0.4,0.4,0.4,0.7,0.3
			c0.8-0.4,1.4-1,2.1-1.5c0.3-0.3,0.8-0.6,1.2-0.6c1.1-0.1,0.8,1.1,0.3,1.5c-0.8,0.8-1.8,1.5-2.8,2.1c-0.2,0.1,0,0.4,0.2,0.2
			c0.9-0.6,1.8-1.2,2.5-1.9c0.5-0.5,1.1-1.1,0.8-1.8c-0.6-1.5-2.7,0.3-3.4,0.8c-0.3,0.2-0.6,0.5-1,0.7c-0.2,0.1-0.4,0.2-0.3-0.1
			c0.1-0.2,0.2-0.3,0.3-0.4c0.6-0.8,1.2-1.5,1.7-2.3c0.4-0.6,0.7-1.3,0.5-2c-0.2-0.5-0.6-0.9-1.1-0.8c-0.7,0.1-1.1,0.8-1.4,1.3
			c-0.5,0.8-1,1.5-1.5,2.2c-0.2,0.2-0.8,0.9-0.6,0.2c0.1-0.3,0.2-0.6,0.4-0.9c0.4-0.8,0.8-1.6,1-2.4c0.5-1.5-1.4-1.9-2.2-0.8
			c-0.4,0.6-0.6,1.3-0.8,2c-0.2,0.4-0.3,0.9-0.5,1.3C13.3,18.4,13.1,19,13,19c-0.2,0,0-1.6,0-1.7c0-0.4,0.1-0.9-0.1-1.3
			c-0.3-0.6-1-0.7-1.5-0.2c-0.6,0.5-0.6,1.4-0.6,2.1c-0.1,1.2-0.2,2.4-0.9,3.4C9.7,21.4,10,21.6,10.1,21.4z M16.9,26.6
			c0.8-0.2,1.6-0.3,2.4-0.3c0.7,0,1.5,0.1,2-0.5c0.7-0.8-0.1-1.5-0.8-1.8c-1.2-0.5-2.7-0.4-3.9,0c-0.2,0.1-0.2,0.4,0.1,0.3
			c1.2-0.4,2.8-0.5,4,0.1c0.6,0.4,0.8,1.2-0.1,1.4c-0.4,0.1-0.8,0.1-1.1,0.1c-0.8,0-1.5,0.1-2.3,0.3c-1,0.2-1.8,0.9-2.4,1.7
			c-2.9,3.7-2,9.5,1.4,12.6c1.9,1.7,4.4,2.6,6.9,2.4c0.2,0,0.3-0.3,0-0.3c-5.1,0.3-9.6-3.9-9.7-9c0-1.3,0.2-2.7,0.7-3.9
			C14.7,28.4,15.6,27,16.9,26.6z M14.1,22.4c-0.5,0.6-0.7,1.2-0.6,1.9c0,0.7,0.2,1.5,0.8,1.8c0.2,0.1,0.4-0.2,0.2-0.3
			c-1-0.5-0.8-2.5-0.2-3.2C14.4,22.4,14.2,22.2,14.1,22.4z M36.8,24.5c1.2-0.8,2.9-0.6,4.2-0.2c0.2,0.1,0.3-0.3,0.1-0.3
			c-1-0.3-2.1-0.4-3.2-0.2c-0.6,0.1-1.4,0.4-1.6,0.9c-0.3,0.5,0,1.2,0.6,1.4c0.3,0.1,0.7,0.2,1,0.2c0.5,0,1.1,0,1.6,0.1
			c5.1,1,5.8,7.8,3.6,11.6c-2.1,3.6-6.5,5.4-10.4,4.2c-3.8-1.1-6.6-4.7-6.5-8.7c0.1-2.7,3.7-3.9,5.2-1.6c0.7,1,0.5,2.4,0.2,3.6
			c-0.3,1.4-1,2.7-1.9,3.8c-0.1,0.2,0.1,0.4,0.3,0.3c1.4-1.7,2.4-4.1,2.2-6.4c-0.2-1.9-2.1-3.3-4-2.8c-0.9,0.2-1.7,0.9-2,1.7
			c-0.4,0.8-0.3,1.7-0.2,2.6c0.3,2,1.1,3.8,2.5,5.3c2.9,3,7.5,3.9,11.2,1.9c3.9-2,5.8-6.6,4.7-10.8c-0.3-1.3-1-2.7-1.9-3.6
			c-0.8-0.8-1.9-1.3-3.1-1.5c-0.6-0.1-1.2-0.1-1.8-0.1c-0.4,0-1-0.1-1-0.7C36.3,24.9,36.6,24.7,36.8,24.5z"/>
	</g>
</g>
</svg>
