<svg id="Capa_1" data-name="Capa 1" xmlns="http://www.w3.org/2000/svg" viewBox="0 0 277.32 93.81"><defs><style>.cls-1{fill:#202122;}.cls-2{fill:#3e6e43;}.cls-3{fill:#64894a;}.cls-4{fill:#008cff;}.cls-5{fill:#ababab;}</style></defs><path class="cls-1" d="M68.09,69.64l0-26.21,5.38-.66.83,4.11A8.49,8.49,0,0,1,82,42.65a11.43,11.43,0,0,1,1.72.1l-.11,5.36a13.24,13.24,0,0,0-2-.15c-2.37,0-4.14.62-5.3,1.88a7.37,7.37,0,0,0-1.75,5.23V69.65Z"/><path class="cls-1" d="M95.94,70.15a19.12,19.12,0,0,1-9.51-2l.66-4.81a20.1,20.1,0,0,0,4.11,1.58,17.23,17.23,0,0,0,4.55.7,5.89,5.89,0,0,0,3.31-.79,2.71,2.71,0,0,0,1.22-2.34,2.58,2.58,0,0,0-1.11-2.2,20.9,20.9,0,0,0-4.25-2l-1.39-.51a14.42,14.42,0,0,1-5.35-3.22,6.8,6.8,0,0,1-1.64-4.81,6.58,6.58,0,0,1,2.66-5.63c1.77-1.3,4.23-2,7.4-2a20.13,20.13,0,0,1,9,1.94L104,48.49a17.38,17.38,0,0,0-7.31-1.79,5.92,5.92,0,0,0-3,.64,2.17,2.17,0,0,0-1.1,2,2.21,2.21,0,0,0,1.06,1.95,23.27,23.27,0,0,0,4.1,1.82l.64.22.83.32a13.79,13.79,0,0,1,5.43,3.22,6.89,6.89,0,0,1,1.73,4.88A7.66,7.66,0,0,1,103.65,68c-1.81,1.46-4.38,2.2-7.71,2.19"/><polygon class="cls-1" points="124.25 54.38 135.22 42.81 127.58 42.81 116.64 54.06 116.66 34.03 110.25 35.22 110.22 69.67 116.63 69.68 116.63 69.68 116.64 62.4 120.17 58.67 128.15 69.69 135.9 69.69 124.25 54.38"/><path class="cls-2" d="M31.56,38.88l0-25s-8.08,4-8.08,12.57,8.06,12.38,8.06,12.38"/><path class="cls-3" d="M31.58,13.93s8.07,4,8.06,12.58-8.08,12.37-8.08,12.37Z"/><path class="cls-2" d="M50.4,50.63l11.09-6.3s-3.82-2.57-7.63-.41-3.46,6.71-3.46,6.71"/><path class="cls-3" d="M61.49,44.33s.25,4.61-3.55,6.77-7.54-.46-7.54-.46Z"/><path class="cls-1" d="M62,43.33c-.2-.1-4.88-2.58-8.83-.29-3.17,1.82-3.8,5.49-3.93,7l-1.46.84a4,4,0,0,0-5.63,0L35.48,47a3.91,3.91,0,0,0,.12-1,4,4,0,0,0-2.92-3.89V39.75c2-1.25,8.16-5.8,8.16-13.06,0-8.4-8.32-13.65-8.67-13.87l-.59-.37-.59.37c-.36.22-8.69,5.46-8.69,13.86,0,7.25,6.18,11.82,8.14,13.07v2.38A4.06,4.06,0,0,0,27.51,46a4.44,4.44,0,0,0,.11,1l-6.7,3.87a4,4,0,0,0-2.8-1.14A4.05,4.05,0,0,0,17,57.66v8a4,4,0,0,0,1.12,7.93,4,4,0,0,0,3-1.32l6.51,3.76a3.85,3.85,0,0,0-.12,1,4.05,4.05,0,0,0,8.1,0,3.91,3.91,0,0,0-.12-1L42,72.32a4,4,0,0,0,3,1.33,4,4,0,0,0,1.13-7.93v-8A4.06,4.06,0,0,0,49,53.79a4.17,4.17,0,0,0-.11-.94L50.38,52a10.81,10.81,0,0,0,4.45,1.06,7.11,7.11,0,0,0,3.62-.93c3.95-2.28,4.16-7.57,4.17-7.79l0-.69ZM46.1,55.21A1.83,1.83,0,0,1,45,55.6a1.69,1.69,0,0,1-.64-.12,1.75,1.75,0,0,1-.48-.27,1.84,1.84,0,0,1-.67-1.16,2.28,2.28,0,0,1,0-.26,1.64,1.64,0,0,1,0-.23,1.77,1.77,0,0,1,1.13-1.45A1.65,1.65,0,0,1,45,52a1.87,1.87,0,0,1,.71.14,1.83,1.83,0,0,1,1.1,1.67,1.53,1.53,0,0,1,0,.3,1.83,1.83,0,0,1-.66,1.12m.68,14.4A1.82,1.82,0,0,1,45,71.41a1.7,1.7,0,0,1-.95-.27,1.78,1.78,0,0,1-.86-1.54v0h0a1.74,1.74,0,0,1,.11-.56,1.81,1.81,0,0,1,.58-.81,1.69,1.69,0,0,1,.81-.35,1.55,1.55,0,0,1,.31,0,1.77,1.77,0,0,1,1.12.39,1.8,1.8,0,0,1,.69,1.42m-2.93-3.89a3.79,3.79,0,0,0-1.47.78l-6.87-4h0a4,4,0,0,0-.08-1.92l6.76-3.9a4.13,4.13,0,0,0,1.67,1ZM31.53,78.84a1.82,1.82,0,0,1-1.79-1.53,2.45,2.45,0,0,1,0-.27,1.79,1.79,0,0,1,1.13-1.67,1.72,1.72,0,0,1,1.36,0A1.8,1.8,0,0,1,33.34,77a2.28,2.28,0,0,1,0,.27,1.82,1.82,0,0,1-1.79,1.53m-4-16.3-6.87,3.95a4.11,4.11,0,0,0-1.49-.79v-8a4.16,4.16,0,0,0,1.69-1l6.74,3.9a4,4,0,0,0-.17,1.15,3.59,3.59,0,0,0,.09.81Zm-7.67,7.05a1.77,1.77,0,0,1-.86,1.53,1.7,1.7,0,0,1-.95.27A1.81,1.81,0,0,1,17,68.17a1.78,1.78,0,0,1,1.13-.39,1.63,1.63,0,0,1,.31,0,1.82,1.82,0,0,1,.8.35,1.72,1.72,0,0,1,.58.82,1.46,1.46,0,0,1,.11.55v.06m-3.6-15.82A1.81,1.81,0,0,1,18.12,52a1.85,1.85,0,0,1,.66.13,1.82,1.82,0,0,1,1.13,1.42,2.11,2.11,0,0,1,0,.26,1.15,1.15,0,0,1,0,.26,1.75,1.75,0,0,1-.67,1.16,1.43,1.43,0,0,1-.45.26,1.81,1.81,0,0,1-2.47-1.68M30.44,44.6a1.8,1.8,0,0,1,1.12-.38,1.77,1.77,0,0,1,1.78,1.54,2.45,2.45,0,0,1,0,.27,1.79,1.79,0,0,1-.69,1.41,1.56,1.56,0,0,1-.45.26,1.86,1.86,0,0,1-.67.13,1.8,1.8,0,0,1-.66-.13,1.61,1.61,0,0,1-.46-.26A1.79,1.79,0,0,1,29.75,46a1.1,1.1,0,0,1,0-.26,1.79,1.79,0,0,1,.67-1.16m2.91,17.21a1.77,1.77,0,0,1-.69,1.34,1.06,1.06,0,0,1-.26.17,1.8,1.8,0,0,1-.86.22,1.83,1.83,0,0,1-.84-.21,1.67,1.67,0,0,1-.28-.18,1.79,1.79,0,0,1-.68-1.37.07.07,0,0,1,0-.05,1.84,1.84,0,0,1,.07-.47,1.8,1.8,0,0,1,.62-.95A2,2,0,0,1,31.1,60a1.61,1.61,0,0,1,.44-.06A1.45,1.45,0,0,1,32,60a1.72,1.72,0,0,1,.65.32,1.79,1.79,0,0,1,.62.93,1.61,1.61,0,0,1,.07.49v.07Zm7.7-9a3.91,3.91,0,0,0-.12,1,4.24,4.24,0,0,0,.13,1l-6.83,3.92a3.93,3.93,0,0,0-1.56-.87V49.91a4,4,0,0,0,1.69-1ZM24.54,26.68c0-5.95,5.25-10.26,7-11.55,1.79,1.29,7,5.59,7,11.56,0,5-3.69,8.59-5.92,10.31V27.59a1.12,1.12,0,1,0-2.24,0V37c-2.23-1.72-5.91-5.32-5.9-10.32m4.21,22.25a4,4,0,0,0,1.68,1v7.93a4,4,0,0,0-1.56.86l-6.82-4a4.53,4.53,0,0,0,.12-1,4,4,0,0,0-.12-1ZM22.09,70.3a4.17,4.17,0,0,0,.06-.71A4.11,4.11,0,0,0,22,68.36l6.66-3.84a4,4,0,0,0,1.8,1.1v7.53a4.16,4.16,0,0,0-1.69,1Zm12.25,3.84a4,4,0,0,0-1.69-1V65.62a4,4,0,0,0,1.81-1.1l6.65,3.84a4,4,0,0,0-.2,1.24,4.17,4.17,0,0,0,.06.71Zm23-23.94a5.84,5.84,0,0,1-4.43.36l2.24-1.29A1.12,1.12,0,0,0,54,47.33l-2.23,1.28A5.8,5.8,0,0,1,54.32,45c2.14-1.23,4.77-.44,6,0-.18,1.28-.81,4-3,5.19"/><path class="cls-1" d="M215.13,69.93l0-26.25,5.39-.66.83,4.12A8.5,8.5,0,0,1,229,42.91a11.52,11.52,0,0,1,1.72.1l-.11,5.36a13.37,13.37,0,0,0-2-.15,6.93,6.93,0,0,0-5.3,1.88,7.44,7.44,0,0,0-1.76,5.24V69.93Z"/><polygon class="cls-1" points="241.11 33.64 241.1 38.88 234.66 38.87 234.67 34.08 241.11 33.64"/><rect class="cls-1" x="234.65" y="43.04" width="6.42" height="26.91"/><path class="cls-1" d="M249.3,70l0-22.64h-4.26V43.71l4.26-.66v-1.5a17.31,17.31,0,0,1,.46-4.18,7.54,7.54,0,0,1,1.49-3A6.07,6.07,0,0,1,254,32.56a13.06,13.06,0,0,1,4.25-.6,27.77,27.77,0,0,1,5,.47l-.56,4.78a23.71,23.71,0,0,0-3.16-.28,3.74,3.74,0,0,0-2.93,1,5,5,0,0,0-.87,3.3v1.83h5.5l.4,4.26h-5.9l0,22.65Z"/><rect class="cls-4" x="157.79" y="58.5" width="3.32" height="3.32"/><polygon class="cls-4" points="164.59 61.82 167.91 61.83 167.93 58.51 164.59 58.51 164.59 61.82"/><rect class="cls-4" x="169.58" y="44.94" width="11.06" height="3.32"/><rect class="cls-4" x="177.33" y="38.17" width="3.32" height="3.31"/><rect class="cls-4" x="190.89" y="43.14" width="3.32" height="11.06"/><rect class="cls-4" x="171.37" y="58.51" width="3.32" height="11.06"/><rect class="cls-4" x="177.33" y="31.37" width="3.32" height="3.32"/><rect class="cls-4" x="197.69" y="50.88" width="3.32" height="3.32"/><rect class="cls-4" x="188" y="57.74" width="15.82" height="3.21"/><polygon class="cls-4" points="184.96 67.78 196.02 67.79 196.04 64.47 184.96 64.47 184.96 67.78"/><rect class="cls-4" x="204.47" y="50.91" width="3.32" height="3.32"/><rect class="cls-4" x="184.93" y="71.25" width="3.32" height="3.31"/><rect class="cls-4" x="161.76" y="51.78" width="15.82" height="3.21"/><rect class="cls-4" x="178.2" y="61.58" width="3.21" height="15.82"/><rect class="cls-4" x="184.93" y="78.04" width="3.32" height="3.32"/><rect class="cls-4" x="184.17" y="35.33" width="3.21" height="15.84"/><rect class="cls-5" x="144.5" y="52.6" width="1.83" height="6.94"/><rect class="cls-5" x="141.95" y="55.15" width="6.94" height="1.83"/></svg>