<svg id="Layer_1" data-name="Layer 1" xmlns="http://www.w3.org/2000/svg" viewBox="0 0 500 257.25"><defs><style>.cls-1{fill:#008cff;}.cls-2{fill:#0cbfe8;}</style></defs><title>Rif_Services_Logos_August2020</title><path class="cls-1" d="M255.6,214.69a0.62,0.62,0,0,1-.19-0.46v-16.9a0.61,0.61,0,0,1,.19-0.47,0.65,0.65,0,0,1,.46-0.18h3.72a0.62,0.62,0,0,1,.65.65v16.9a0.65,0.65,0,0,1-.18.46,0.62,0.62,0,0,1-.47.2h-3.72A0.63,0.63,0,0,1,255.6,214.69Z"/><path class="cls-1" d="M264.78,213.56a6.87,6.87,0,0,1-1.55-4.52l0-.91,0-.94a6.83,6.83,0,0,1,1.56-4.46,5,5,0,0,1,4-1.62,5,5,0,0,1,3.77,1.51v-5.54a0.61,0.61,0,0,1,.2-0.47,0.65,0.65,0,0,1,.46-0.18h3.35a0.68,0.68,0,0,1,.48.18,0.61,0.61,0,0,1,.2.47v17.16a0.61,0.61,0,0,1-.2.47,0.68,0.68,0,0,1-.48.18h-3.09a0.67,0.67,0,0,1-.65-0.65v-0.81a4.91,4.91,0,0,1-4,1.72A5.09,5.09,0,0,1,264.78,213.56Zm7.14-2.74a3.14,3.14,0,0,0,.6-1.81q0.05-.73.05-1t-0.05-1a2.74,2.74,0,0,0-.61-1.68,2,2,0,0,0-1.65-.66,2,2,0,0,0-1.68.69,3.57,3.57,0,0,0-.58,1.91l0,0.81,0,0.81a3.56,3.56,0,0,0,.58,1.91A2.34,2.34,0,0,0,271.92,210.82Z"/><path class="cls-1" d="M281.51,213.45a6.61,6.61,0,0,1-1.87-5v-0.81a6.71,6.71,0,0,1,1.92-4.84,6.81,6.81,0,0,1,4.91-1.74,7.43,7.43,0,0,1,3.78.9,5.68,5.68,0,0,1,2.31,2.47,8.07,8.07,0,0,1,.77,3.58v0.65a0.67,0.67,0,0,1-.68.68h-8.24v0.16a3.26,3.26,0,0,0,.55,1.88,1.72,1.72,0,0,0,1.48.71,1.8,1.8,0,0,0,1-.25,3.47,3.47,0,0,0,.71-0.64,1.39,1.39,0,0,1,.38-0.33,1.18,1.18,0,0,1,.46-0.06h3.41a0.6,0.6,0,0,1,.4.14,0.44,0.44,0,0,1,.17.35,2.66,2.66,0,0,1-.77,1.59A6.09,6.09,0,0,1,290,214.5a8.54,8.54,0,0,1-3.47.65A7,7,0,0,1,281.51,213.45Zm7-6.72v-0.05a3.05,3.05,0,0,0-.55-1.94,1.85,1.85,0,0,0-1.54-.69,1.81,1.81,0,0,0-1.52.69,3.1,3.1,0,0,0-.53,1.94v0.05h4.13Z"/><path class="cls-1" d="M295.88,214.69a0.62,0.62,0,0,1-.2-0.46V202a0.61,0.61,0,0,1,.2-0.47,0.65,0.65,0,0,1,.46-0.18h3.2a0.63,0.63,0,0,1,.65.65v1a5.08,5.08,0,0,1,1.81-1.38,5.89,5.89,0,0,1,2.54-.52,5.14,5.14,0,0,1,2.64.68,4.65,4.65,0,0,1,1.82,2,7.08,7.08,0,0,1,.66,3.2v7.25a0.65,0.65,0,0,1-.18.46,0.61,0.61,0,0,1-.47.2h-3.46a0.68,0.68,0,0,1-.48-0.18,0.61,0.61,0,0,1-.19-0.47v-7.1a2.6,2.6,0,0,0-.56-1.79,2.07,2.07,0,0,0-1.62-.62,2.14,2.14,0,0,0-1.64.64,2.5,2.5,0,0,0-.6,1.78v7.1a0.65,0.65,0,0,1-.18.46,0.61,0.61,0,0,1-.47.2h-3.46A0.62,0.62,0,0,1,295.88,214.69Z"/><path class="cls-1" d="M313.94,209.72V204.9h-2.05a0.67,0.67,0,0,1-.65-0.65V202a0.61,0.61,0,0,1,.2-0.47,0.65,0.65,0,0,1,.46-0.18h2.05v-4.29a0.61,0.61,0,0,1,.2-0.47,0.65,0.65,0,0,1,.46-0.18h3.2a0.62,0.62,0,0,1,.65.65v4.29h3.25a0.68,0.68,0,0,1,.48.18,0.61,0.61,0,0,1,.2.47v2.24a0.61,0.61,0,0,1-.2.47,0.68,0.68,0,0,1-.48.18h-3.25v4.42a2.34,2.34,0,0,0,.34,1.38,1.26,1.26,0,0,0,1.09.47h2.05a0.61,0.61,0,0,1,.47.2,0.68,0.68,0,0,1,.18.48v2.39a0.65,0.65,0,0,1-.18.46,0.61,0.61,0,0,1-.47.2h-2.47Q313.94,214.89,313.94,209.72Z"/><path class="cls-1" d="M324.86,199.3a0.68,0.68,0,0,1-.18-0.48V196.4a0.65,0.65,0,0,1,.2-0.48,0.62,0.62,0,0,1,.46-0.2h3.25a0.67,0.67,0,0,1,.68.68v2.42a0.67,0.67,0,0,1-.68.68h-3.25A0.61,0.61,0,0,1,324.86,199.3Zm0,15.39a0.62,0.62,0,0,1-.2-0.46V202a0.61,0.61,0,0,1,.2-0.47,0.65,0.65,0,0,1,.46-0.18h3.25a0.68,0.68,0,0,1,.48.18,0.61,0.61,0,0,1,.19.47v12.22a0.61,0.61,0,0,1-.19.47,0.68,0.68,0,0,1-.48.18h-3.25A0.62,0.62,0,0,1,324.87,214.69Z"/><path class="cls-1" d="M333.81,209.72V204.9h-2.05a0.67,0.67,0,0,1-.65-0.65V202a0.61,0.61,0,0,1,.2-0.47,0.65,0.65,0,0,1,.46-0.18h2.05v-4.29a0.61,0.61,0,0,1,.2-0.47,0.65,0.65,0,0,1,.46-0.18h3.2a0.62,0.62,0,0,1,.65.65v4.29h3.25a0.68,0.68,0,0,1,.48.18,0.61,0.61,0,0,1,.2.47v2.24a0.61,0.61,0,0,1-.2.47,0.68,0.68,0,0,1-.48.18h-3.25v4.42a2.34,2.34,0,0,0,.34,1.38,1.26,1.26,0,0,0,1.09.47h2.05a0.61,0.61,0,0,1,.47.2,0.68,0.68,0,0,1,.18.48v2.39a0.65,0.65,0,0,1-.18.46,0.61,0.61,0,0,1-.47.2h-2.47Q333.81,214.89,333.81,209.72Z"/><path class="cls-1" d="M346.7,219.68a0.53,0.53,0,0,1-.16-0.39,1.08,1.08,0,0,1,.05-0.34l2.05-4.89-5-11.81a1,1,0,0,1-.08-0.29,0.81,0.81,0,0,1,.22-0.43,0.55,0.55,0,0,1,.4-0.17h3.09a0.76,0.76,0,0,1,.75.55l2.89,7.39,3-7.39a0.83,0.83,0,0,1,.78-0.55h3.07a0.55,0.55,0,0,1,.4.17,0.53,0.53,0,0,1,.17.38,1.08,1.08,0,0,1-.05.34l-7.36,17a0.85,0.85,0,0,1-.81.55h-3A0.53,0.53,0,0,1,346.7,219.68Z"/><path d="M255.07,183.59v-70l14.37-1.77,2.22,11q7.05-11.3,20.44-11.3a32.24,32.24,0,0,1,4.57.26l-0.26,14.3a36.36,36.36,0,0,0-5.42-.39q-9.47,0-14.14,5t-4.67,14v38.92H255.07Z"/><path class="cls-1" d="M157.5,101.54V34.93S135.95,45.67,135.95,68.5s21.55,33,21.55,33"/><path class="cls-2" d="M157.5,34.93S179,45.67,179,68.5s-21.55,33-21.55,33V34.93Z"/><path class="cls-1" d="M207.81,132.88L237.42,116s-10.23-6.87-20.38-1.09-9.24,17.94-9.24,17.94"/><path class="cls-2" d="M237.42,116s0.67,12.3-9.48,18.07-20.14-1.23-20.14-1.23Z"/><path d="M238.84,113.36c-0.52-.28-13-6.87-23.56-0.77-8.46,4.88-10.14,14.69-10.48,18.77l-3.9,2.25a10.74,10.74,0,0,0-15-.06L168,123.21a10.81,10.81,0,0,0-7.5-13v-6.36c5.22-3.35,21.76-15.51,21.76-34.89,0-22.42-22.23-36.43-23.18-37l-1.58-1-1.56,1c-1,.57-23.19,14.59-23.19,37,0,19.38,16.55,31.54,21.77,34.89v6.36a10.8,10.8,0,0,0-7.5,13l-17.89,10.33a10.69,10.69,0,0,0-7.48-3,10.81,10.81,0,0,0-3,21.19v21.46a10.81,10.81,0,0,0,3,21.19,10.7,10.7,0,0,0,8-3.54l17.39,10a10.65,10.65,0,0,0-.32,2.59,10.81,10.81,0,0,0,21.61,0,10.64,10.64,0,0,0-.31-2.59l17.38-10a10.7,10.7,0,0,0,8,3.54,10.81,10.81,0,0,0,3-21.19V151.7a10.83,10.83,0,0,0,7.8-10.38,11.27,11.27,0,0,0-.29-2.52l3.89-2.24a28.83,28.83,0,0,0,11.88,2.84,19.06,19.06,0,0,0,9.67-2.51c10.55-6.09,11.09-20.2,11.11-20.79l0.05-1.85ZM196.36,145.1a4.82,4.82,0,0,1-3,1,4.68,4.68,0,0,1-1.7-.31,4.45,4.45,0,0,1-1.28-.72,4.78,4.78,0,0,1-1.8-3.1,5.32,5.32,0,0,1-.05-0.7,3.74,3.74,0,0,1,0-.61,4.83,4.83,0,0,1,9.61.61,4.63,4.63,0,0,1-.07.79,4.86,4.86,0,0,1-1.76,3m1.83,38.44a4.83,4.83,0,0,1-4.83,4.83,4.74,4.74,0,0,1-2.52-.72,4.82,4.82,0,0,1-2.3-4.11,0.66,0.66,0,0,1,0-.14h0a4.55,4.55,0,0,1,.28-1.48,4.79,4.79,0,0,1,1.56-2.16,4.59,4.59,0,0,1,2.15-1,4.06,4.06,0,0,1,.83-0.08,4.82,4.82,0,0,1,4.83,4.83m-7.81-10.38a10.68,10.68,0,0,0-3.95,2.11L168.1,164.69h0a11.45,11.45,0,0,0,.21-2.13,10.64,10.64,0,0,0-.43-3l18-10.4a10.75,10.75,0,0,0,4.46,2.56v21.46ZM157.5,208.23a4.83,4.83,0,0,1-4.77-4.09,5.32,5.32,0,0,1-.05-0.73,4.83,4.83,0,0,1,9.66,0,5.32,5.32,0,0,1-.05.73,4.83,4.83,0,0,1-4.77,4.09m-10.59-43.51-18.33,10.55a10.76,10.76,0,0,0-4-2.12V151.7a10.68,10.68,0,0,0,4.5-2.61l18,10.4a10.44,10.44,0,0,0-.45,3.06,11,11,0,0,0,.22,2.16h0Zm-20.44,18.82a4.82,4.82,0,0,1-2.31,4.11,4.73,4.73,0,0,1-2.52.72,4.83,4.83,0,1,1,0-9.66,4.24,4.24,0,0,1,.84.08,4.8,4.8,0,0,1,3.7,3.12,4.48,4.48,0,0,1,.28,1.49,0.53,0.53,0,0,1,0,.14m-9.66-42.23a4.83,4.83,0,0,1,9.66,0,4.92,4.92,0,0,1-.05.7,4.77,4.77,0,0,1-1.79,3.1,4.47,4.47,0,0,1-1.2.68,4.66,4.66,0,0,1-1.78.35,4.82,4.82,0,0,1-4.83-4.83m37.69-24.5a4.82,4.82,0,0,1,7.76,3.09,5.06,5.06,0,0,1,.05.71,4.8,4.8,0,0,1-1.84,3.78,4.57,4.57,0,0,1-1.21.68,4.75,4.75,0,0,1-3.57,0,4.53,4.53,0,0,1-1.21-.68,4.8,4.8,0,0,1-1.84-3.78,5.06,5.06,0,0,1,.05-0.71,4.84,4.84,0,0,1,1.78-3.09m7.81,45.93a4.75,4.75,0,0,1-1.83,3.6,5.88,5.88,0,0,1-.7.46,4.81,4.81,0,0,1-4.54,0,4.51,4.51,0,0,1-.74-0.47,4.78,4.78,0,0,1-1.83-3.65,0.53,0.53,0,0,1,0-.14,4.33,4.33,0,0,1,.17-1.25,4.78,4.78,0,0,1,1.66-2.54,5,5,0,0,1,1.79-.88,4.85,4.85,0,0,1,1.2-.15,4.4,4.4,0,0,1,1.25.17,4.74,4.74,0,0,1,3.39,3.35,4.68,4.68,0,0,1,.18,1.31,1,1,0,0,1,0,.18h0Zm20.55-24a10.87,10.87,0,0,0,0,5.28l-18.21,10.49a10.6,10.6,0,0,0-4.19-2.32V131a10.69,10.69,0,0,0,4.5-2.6ZM138.72,69c0-15.88,14-27.39,18.78-30.84C162.28,41.58,176.27,53,176.27,69c0,13.3-9.84,22.93-15.78,27.54V71.41a3,3,0,1,0-6,0V96.53c-6-4.6-15.79-14.21-15.79-27.55M150,128.39a10.7,10.7,0,0,0,4.5,2.6v21.18a10.64,10.64,0,0,0-4.14,2.28l-18.23-10.52a11,11,0,0,0,0-5.22Zm-17.73,57a9.83,9.83,0,0,0,.17-1.89,10.6,10.6,0,0,0-.52-3.29L149.69,170a10.79,10.79,0,0,0,4.82,2.92V193a10.77,10.77,0,0,0-4.51,2.63ZM165,195.66a10.77,10.77,0,0,0-4.51-2.63v-20.1a10.67,10.67,0,0,0,4.83-2.94l17.76,10.24a10.73,10.73,0,0,0-.52,3.31,9.83,9.83,0,0,0,.17,1.89Zm61.32-64c-4,2.28-8.45,1.88-11.83,1l6-3.45a3,3,0,1,0-3-5.18l-5.94,3.43c0.9-3.37,2.79-7.44,6.74-9.71,5.71-3.29,12.74-1.21,16,.08-0.49,3.43-2.17,10.54-7.92,13.86"/><path d="M309,95.74Q309,87,318.77,87t9.76,8.76a8.55,8.55,0,0,1-2.44,6.5q-2.44,2.32-7.32,2.32Q309,104.57,309,95.74Zm18.7,87.85H309.77V112.74h17.94v70.85Z"/><path d="M382.87,126.21H367.35v57.38H349.41V126.21h-9.88v-8.65l9.88-4.82v-4.82q0-11.23,5.53-16.41t17.7-5.18a46.1,46.1,0,0,1,16.53,2.76l-4.59,13.17a33.45,33.45,0,0,0-10-1.71q-3.82,0-5.53,2.26a9.36,9.36,0,0,0-1.71,5.79v4.12h15.53v13.47Z"/></svg>