<svg width="600" height="600" viewBox="0 0 600 600" fill="none" xmlns="http://www.w3.org/2000/svg">
<path d="M146.915 274.834L180.808 293.925C181.164 294.123 181.599 294.242 181.995 294.242C182.825 294.242 183.616 293.806 184.091 293.054C184.724 291.905 184.328 290.44 183.181 289.766L152.966 272.775L187.611 253.169L219.566 271.666C220.713 272.299 222.176 271.903 222.848 270.755C223.481 269.606 223.086 268.141 221.978 267.507L188.797 248.337L188.758 248.297C187.967 247.901 187.097 247.901 186.385 248.297L146.876 270.675C146.124 271.111 145.689 271.903 145.689 272.735C145.689 273.606 146.164 274.399 146.915 274.834Z" fill="#5658F3"/>
<path d="M231.786 277.132C231.035 276.696 230.125 276.696 229.374 277.132L186.662 301.609C185.91 302.045 185.436 302.837 185.436 303.708V334.682C185.436 335.989 186.503 337.098 187.848 337.098C189.193 337.098 190.26 336.028 190.26 334.682V305.095L228.148 283.39V322.76L188.125 345.851L147.825 322.205V284.974C147.825 283.667 146.757 282.558 145.412 282.558C144.068 282.558 143 283.627 143 284.974V323.591C143 324.384 143.395 325.136 144.107 325.611L144.345 325.809H144.463L186.978 350.683C187.373 350.881 187.769 351 188.164 351C188.481 351 188.797 350.921 189.114 350.802H189.311L189.509 350.604L231.865 326.206C232.617 325.77 233.091 324.978 233.091 324.106V279.191C233.012 278.359 232.538 277.528 231.786 277.132Z" fill="#5658F3"/>
<path d="M299.453 290.607H304.106C303.093 284.85 298.087 280.867 291.599 280.867C283.818 280.867 278.137 286.624 278.137 296.061C278.137 305.411 283.657 311.226 291.804 311.226C299.1 311.226 304.312 306.522 304.312 299.062V295.7H292.494V299.38H299.922C299.82 304.141 296.619 307.157 291.804 307.157C286.505 307.157 282.644 303.218 282.644 296.032C282.644 288.875 286.534 284.936 291.628 284.936C295.621 284.936 298.322 287.101 299.453 290.607Z" fill="#1A1A1A"/>
<path d="M320.037 311.269C324.955 311.269 328.434 308.889 329.432 305.281L325.278 304.545C324.485 306.638 322.577 307.705 320.081 307.705C316.323 307.705 313.798 305.31 313.681 301.039H329.711V299.51C329.711 291.501 324.838 288.37 319.729 288.37C313.446 288.37 309.306 293.074 309.306 299.885C309.306 306.768 313.387 311.269 320.037 311.269ZM313.695 297.807C313.871 294.661 316.191 291.934 319.758 291.934C323.164 291.934 325.395 294.416 325.41 297.807H313.695Z" fill="#1A1A1A"/>
<path d="M345.408 288.659H340.783V283.349H336.394V288.659H333.091V292.122H336.394V305.209C336.379 309.235 339.506 311.183 342.971 311.111C344.365 311.096 345.305 310.837 345.819 310.649L345.026 307.085C344.732 307.143 344.189 307.273 343.485 307.273C342.061 307.273 340.783 306.811 340.783 304.315V292.122H345.408V288.659Z" fill="#1A1A1A"/>
<path d="M351.4 310.822H362.924C369.912 310.822 373.068 307.402 373.068 302.872C373.068 298.298 369.809 295.715 366.829 295.556V295.267C369.589 294.575 371.894 292.728 371.894 289.034C371.894 284.662 368.811 281.271 362.411 281.271H351.4V310.822ZM355.937 306.998V297.533H362.645C366.286 297.533 368.561 299.842 368.561 302.655C368.561 305.137 366.844 306.998 362.484 306.998H355.937ZM355.937 294.055V285.066H362.132C365.728 285.066 367.446 286.927 367.446 289.38C367.446 292.237 365.068 294.055 362.014 294.055H355.937Z" fill="#1A1A1A"/>
<path d="M382.786 281.271H378.397V310.822H382.786V281.271Z" fill="#1A1A1A"/>
<path d="M398.189 311.269C404.546 311.269 408.7 306.695 408.7 299.842C408.7 292.944 404.546 288.37 398.189 288.37C391.833 288.37 387.678 292.944 387.678 299.842C387.678 306.695 391.833 311.269 398.189 311.269ZM398.204 307.648C394.049 307.648 392.112 304.084 392.112 299.827C392.112 295.585 394.049 291.978 398.204 291.978C402.329 291.978 404.267 295.585 404.267 299.827C404.267 304.084 402.329 307.648 398.204 307.648Z" fill="#1A1A1A"/>
<path d="M423.398 311.269C428.727 311.269 432.177 308.124 432.661 303.81H428.389C427.832 306.205 425.938 307.619 423.428 307.619C419.714 307.619 417.321 304.574 417.321 299.741C417.321 294.993 419.758 292.007 423.428 292.007C426.217 292.007 427.92 293.738 428.389 295.816H432.661C432.192 291.343 428.478 288.37 423.354 288.37C416.998 288.37 412.887 293.074 412.887 299.842C412.887 306.522 416.851 311.269 423.398 311.269Z" fill="#1A1A1A"/>
<path d="M437.656 310.822H442.045V302.958L444.233 300.808L451.896 310.822H456.682L447.536 298.168L456.366 288.659H451.411L442.427 298.038H442.045V281.271H437.656V310.822Z" fill="#1A1A1A"/>
</svg>
