<?xml version="1.0" standalone="no"?>
<!DOCTYPE svg PUBLIC "-//W3C//DTD SVG 1.1//EN" "http://www.w3.org/Graphics/SVG/1.1/DTD/svg11.dtd" >
<svg xmlns="http://www.w3.org/2000/svg" xmlns:xlink="http://www.w3.org/1999/xlink" version="1.1">
<metadata>
Created by FontForge 20161003 at Wed Feb 27 15:09:04 2019
 By www-data
Copyright \(c\) 2017 by Alexander Slobzheninov. All rights reserved.
</metadata>
<defs>
<font id="Objective-Thin" horiz-adv-x="602" >
  <font-face 
    font-family="Objective"
    font-weight="250"
    font-stretch="normal"
    units-per-em="1000"
    panose-1="0 0 0 0 0 0 0 0 0 0"
    ascent="800"
    descent="-200"
    x-height="500"
    cap-height="700"
    bbox="-54 -280 1446 980"
    underline-thickness="50"
    underline-position="-125"
    stemh="30"
    stemv="30"
    unicode-range="U+000D-F6C3"
  />
<missing-glyph horiz-adv-x="500" 
 />
    <glyph glyph-name=".notdef" horiz-adv-x="500" 
 />
    <glyph glyph-name="NULL" horiz-adv-x="692" 
d="M601 700v-700h-510v700h510zM120 30h452v640h-452v-640z" />
    <glyph glyph-name="NULL" horiz-adv-x="692" 
d="M601 700v-700h-510v700h510zM120 30h452v640h-452v-640z" />
    <glyph glyph-name="CR" unicode="&#xd;" horiz-adv-x="30" 
 />
    <glyph glyph-name="space" unicode=" " horiz-adv-x="300" 
 />
    <glyph glyph-name="exclam" unicode="!" horiz-adv-x="162" 
d="M51 20c0 17 12 30 30 30c17 0 30 -13 30 -30s-13 -30 -30 -30c-18 0 -30 12 -30 30zM96 700v-520h-30v520h30z" />
    <glyph glyph-name="quotedbl" unicode="&#x22;" horiz-adv-x="272" 
d="M81 399h-30v300h30v-300zM221 399h-30v300h30v-300z" />
    <glyph glyph-name="numbersign" unicode="#" horiz-adv-x="945" 
d="M566 244l-65 -245h-31l65 245h-213l-66 -245h-31l66 245h-240v30h248l57 210h-255v30h263l59 222h31l-59 -222h212l59 222h31l-59 -222h255l1 -30h-264l-56 -210h270l-1 -30h-277zM543 274l56 210h-212l-57 -210h213z" />
    <glyph glyph-name="dollar" unicode="$" horiz-adv-x="689" 
d="M359 -25v-98h-30v98c-151 8 -258 109 -258 247h30c0 -128 104 -217 247 -217c139 0 240 76 240 173c-1 219 -504 103 -504 347c0 108 100 196 245 200v95h30v-96c145 -7 252 -101 252 -228h-30c0 115 -102 199 -243 199c-132 0 -224 -74 -224 -167
c0 -216 502 -100 504 -350c0 -116 -108 -199 -259 -203z" />
    <glyph glyph-name="percent" unicode="%" horiz-adv-x="1018" 
d="M766 390c116 0 201 -84 201 -200s-84 -200 -201 -200s-202 84 -202 200s85 200 202 200zM767 360c-101 0 -174 -71 -174 -169c0 -99 73 -171 174 -171c99 0 171 72 171 171c0 98 -72 169 -171 169zM254 740c116 0 201 -84 201 -200s-84 -200 -201 -200s-203 84 -203 200
s86 200 203 200zM255 710c-101 0 -174 -71 -174 -169c0 -99 73 -171 174 -171c99 0 171 72 171 171c0 98 -72 169 -171 169zM776 730l-496 -730h-36l496 730h36z" />
    <glyph glyph-name="ampersand" unicode="&#x26;" horiz-adv-x="764" 
d="M693 0h-45l-110 98c-59 -82 -132 -123 -234 -123c-135 0 -233 82 -233 194s76 165 164 204c-46 45 -94 104 -94 176c0 96 74 165 181 165c99 0 169 -68 185 -165l-29 -5c-13 82 -71 141 -154 141c-92 0 -153 -57 -153 -136c1 -65 48 -120 107 -174
c81 -74 169 -153 255 -231c34 55 61 122 86 196h32c-28 -83 -58 -157 -96 -216c47 -43 93 -84 138 -124zM304 5c95 0 161 43 212 114c-85 77 -172 154 -258 232c-85 -36 -157 -83 -157 -182c0 -95 85 -164 203 -164z" />
    <glyph glyph-name="quotesingle" unicode="'" horiz-adv-x="132" 
d="M81 400h-30v300h30v-300z" />
    <glyph glyph-name="parenleft" unicode="(" horiz-adv-x="302" 
d="M61 281c0 181 64 366 159 461h41c-104 -102 -170 -280 -170 -461c0 -185 66 -362 170 -461h-41c-95 95 -159 280 -159 461z" />
    <glyph glyph-name="parenright" unicode=")" horiz-adv-x="302" 
d="M241 281c0 -181 -64 -366 -159 -461h-41c104 99 170 276 170 461c0 181 -66 359 -170 461h41c95 -95 159 -280 159 -461z" />
    <glyph glyph-name="asterisk" unicode="*" horiz-adv-x="498" 
d="M432 357l-168 97v-194h-30v194l-168 -97l-15 26l168 97l-168 97l15 26l168 -97v194h30v-194l168 97l15 -26l-168 -97l168 -97z" />
    <glyph glyph-name="plus" unicode="+" horiz-adv-x="572" 
d="M300 90h-29v214h-220v30h220v196h30v-196h220v-30h-221v-214z" />
    <glyph glyph-name="comma" unicode="," horiz-adv-x="170" 
d="M54 20c0 17 12 30 30 30c20 0 35 -17 35 -41c0 -48 -23 -98 -55 -119l-13 15c21 15 37 50 37 85c-20 0 -34 13 -34 30z" />
    <glyph glyph-name="hyphen" unicode="-" horiz-adv-x="512" 
d="M461 331v-30h-410v30h410z" />
    <glyph glyph-name="period" unicode="." horiz-adv-x="162" 
d="M51 20c0 17 12 30 30 30c17 0 30 -13 30 -30s-13 -30 -30 -30c-18 0 -30 12 -30 30z" />
    <glyph glyph-name="slash" unicode="/" horiz-adv-x="415" 
d="M374 700l-302 -930h-31l301 930h32z" />
    <glyph glyph-name="zero" unicode="0" horiz-adv-x="702" 
d="M71 350c0 218 117 375 280 375c162 0 280 -157 280 -375c0 -217 -118 -375 -280 -375c-163 0 -280 158 -280 375zM101 350c0 -200 105 -345 250 -345s250 145 250 345s-105 345 -250 345s-250 -145 -250 -345z" />
    <glyph glyph-name="one" unicode="1" horiz-adv-x="321" 
d="M191 653l-160 -132v39l170 140h20v-700h-30v653z" />
    <glyph glyph-name="two" unicode="2" horiz-adv-x="592" 
d="M307 725c124 0 214 -90 214 -215c0 -105 -60 -178 -159 -262l-257 -218h406v-30h-440v40l291 248c83 70 129 140 129 222c0 107 -76 185 -182 185c-109 0 -193 -74 -209 -185l-29 5c13 122 115 210 236 210z" />
    <glyph glyph-name="three" unicode="3" horiz-adv-x="612" 
d="M101 670v30h400v-20l-233 -261c11 1 22 1 32 1c141 0 241 -91 241 -220c0 -131 -99 -225 -235 -225c-127 0 -227 93 -235 220l28 5c6 -113 94 -195 208 -195c118 0 204 82 204 195c0 112 -87 190 -210 190c-35 0 -71 -8 -86 -19l-11 21l248 278h-351z" />
    <glyph glyph-name="four" unicode="4" horiz-adv-x="552" 
d="M21 210l330 490h50v-480h90v-30h-90v-190h-30v190h-350v20zM371 677l-307 -457h307v457z" />
    <glyph glyph-name="five" unicode="5" horiz-adv-x="613" 
d="M162 700h330v-30h-303l-20 -250h103c157 0 270 -92 270 -220c0 -131 -99 -225 -235 -225c-127 0 -226 92 -236 219l29 6c7 -113 95 -195 208 -195c118 0 204 82 204 195c0 110 -101 190 -240 190h-136z" />
    <glyph glyph-name="six" unicode="6" horiz-adv-x="571" 
d="M101 340l257 360h38l-227 -316c28 21 79 36 122 36c133 0 230 -92 230 -220c0 -131 -97 -225 -230 -225c-140 0 -240 94 -240 222c0 60 22 104 50 143zM81 197c0 -111 86 -192 210 -192c116 0 200 82 200 195c0 110 -84 190 -200 190c-122 0 -211 -80 -210 -193z" />
    <glyph glyph-name="seven" unicode="7" horiz-adv-x="502" 
d="M195 0h-33l282 670h-433v30h470v-20z" />
    <glyph glyph-name="eight" unicode="8" horiz-adv-x="642" 
d="M321 725c127 0 220 -76 220 -181c0 -84 -60 -150 -148 -169c106 -19 178 -95 178 -194c0 -120 -105 -206 -250 -206s-250 86 -250 205c0 100 72 176 177 195c-88 19 -147 84 -147 169c0 105 92 181 220 181zM321 360c-128 0 -220 -76 -220 -180s92 -180 220 -180
c127 0 220 76 220 180s-93 180 -220 180zM321 695c-110 0 -190 -63 -190 -151c0 -89 80 -154 190 -154s190 65 190 154c0 88 -80 151 -190 151z" />
    <glyph glyph-name="nine" unicode="9" horiz-adv-x="572" 
d="M471 330l-257 -330h-39l207 265c-29 -16 -64 -25 -101 -25c-134 0 -230 101 -230 240c0 142 96 245 230 245c139 0 240 -103 240 -245c0 -49 -21 -112 -50 -150zM491 480c0 125 -88 215 -210 215c-116 0 -200 -90 -200 -215c0 -122 84 -210 200 -210
c122 0 210 88 210 210z" />
    <glyph glyph-name="colon" unicode=":" horiz-adv-x="162" 
d="M51 20c0 17 12 30 30 30c17 0 30 -13 30 -30s-13 -30 -30 -30c-18 0 -30 12 -30 30zM51 440c0 17 12 30 30 30c17 0 30 -13 30 -30s-13 -30 -30 -30c-18 0 -30 12 -30 30z" />
    <glyph glyph-name="semicolon" unicode=";" horiz-adv-x="170" 
d="M51 440c0 17 12 30 30 30c17 0 30 -13 30 -30s-13 -30 -30 -30c-18 0 -30 12 -30 30zM54 20c0 17 12 30 30 30c20 0 35 -17 35 -41c0 -48 -23 -98 -55 -119l-13 15c21 15 37 50 37 85c-20 0 -34 13 -34 30z" />
    <glyph glyph-name="less" unicode="&#x3c;" horiz-adv-x="474" 
d="M413 35v-35l-372 237v26l372 237v-35l-337 -215z" />
    <glyph glyph-name="equal" unicode="=" horiz-adv-x="572" 
d="M51 207h470v-30h-470v30zM51 458h470v-30h-470v30z" />
    <glyph glyph-name="greater" unicode="&#x3e;" horiz-adv-x="474" 
d="M61 500l372 -237v-26l-372 -237v35l337 215l-337 215v35z" />
    <glyph glyph-name="question" unicode="?" horiz-adv-x="568" 
d="M237 20c0 17 12 30 30 30s30 -13 30 -30s-12 -30 -30 -30s-30 12 -30 30zM282 160h-30c0 105 34 140 119 194c52 33 106 67 106 154c0 106 -80 187 -191 187c-113 0 -181 -84 -195 -201l-30 6c17 130 98 225 226 225s220 -95 220 -218c0 -100 -61 -141 -130 -186
c-70 -44 -95 -73 -95 -161z" />
    <glyph glyph-name="at" unicode="@" horiz-adv-x="1003" 
d="M91 260c0 -232 159 -400 379 -400c47 0 103 16 134 37v-35c-36 -19 -90 -32 -135 -32c-237 0 -408 181 -408 430c0 251 185 435 440 435c256 0 441 -183 440 -435c0 -155 -41 -267 -144 -267c-64 0 -110 44 -115 159c-31 -67 -98 -110 -181 -110c-122 0 -210 92 -210 218
c0 128 88 220 211 220c121 0 210 -86 210 -206l1 -124c0 -84 30 -127 84 -127c84 0 114 106 114 237c0 236 -171 405 -410 405c-237 0 -410 -170 -410 -405zM502 450c-107 0 -181 -78 -181 -191c0 -110 74 -187 181 -187c104 0 181 78 181 187c0 117 -71 191 -181 191z" />
    <glyph glyph-name="A" unicode="A" horiz-adv-x="638" 
d="M339 700l278 -700h-32l-76 190h-381l-75 -190h-32l278 700h40zM319 670l-179 -450h358z" />
    <glyph glyph-name="B" unicode="B" horiz-adv-x="642" 
d="M341 0h-250v700h260c116 0 200 -74 200 -175c0 -80 -56 -141 -137 -159c93 -18 157 -86 157 -176c0 -110 -97 -190 -230 -190zM341 350h-220v-320h220c116 0 200 67 200 160s-84 160 -200 160zM351 670h-230v-290h230c99 0 170 61 170 145s-72 145 -170 145z" />
    <glyph glyph-name="C" unicode="C" horiz-adv-x="820" 
d="M730 228l29 -7c-29 -137 -164 -246 -328 -246c-215 0 -370 158 -370 375c0 218 155 375 370 375c163 0 298 -113 327 -255l-29 -5c-29 128 -151 230 -298 230c-197 0 -340 -143 -340 -345c0 -200 143 -345 340 -345c151 0 273 99 299 223z" />
    <glyph glyph-name="D" unicode="D" horiz-adv-x="732" 
d="M91 0v700h170c246 0 410 -140 410 -350s-164 -350 -410 -350h-170zM641 350c0 192 -152 320 -380 320h-140v-640h140c228 0 380 128 380 320z" />
    <glyph glyph-name="E" unicode="E" horiz-adv-x="622" 
d="M121 30h450v-30h-480v700h470v-30h-440v-290h400v-30h-400v-320z" />
    <glyph glyph-name="F" unicode="F" horiz-adv-x="552" 
d="M451 310h-330v-310h-30v700h420v-30h-390v-330h330v-30z" />
    <glyph glyph-name="G" unicode="G" horiz-adv-x="852" 
d="M761 350h-330v30h359c13 -235 -138 -405 -359 -405c-215 0 -370 158 -370 375c0 218 155 375 370 375c161 0 299 -105 328 -249l-29 -6c-30 130 -156 225 -299 225c-197 1 -340 -144 -340 -345c0 -198 143 -345 340 -345c191 0 330 142 330 345z" />
    <glyph glyph-name="H" unicode="H" horiz-adv-x="690" 
d="M120 0h-30v700h30v-320h450v320h30v-700h-30v350h-450v-350z" />
    <glyph glyph-name="I" unicode="I" horiz-adv-x="212" 
d="M121 700v-700h-30v700h30z" />
    <glyph glyph-name="J" unicode="J" horiz-adv-x="432" 
d="M311 210v490h30v-490c0 -153 -81 -230 -194 -230c-30 0 -79 8 -116 20v31c42 -13 92 -21 120 -21c93 0 160 64 160 200z" />
    <glyph glyph-name="K" unicode="K" horiz-adv-x="541" 
d="M91 700h30v-311l337 311h45l-359 -330l366 -370h-42l-347 350v-350h-30v700z" />
    <glyph glyph-name="L" unicode="L" horiz-adv-x="552" 
d="M521 0h-430v700h30v-670h400v-30z" />
    <glyph glyph-name="M" unicode="M" horiz-adv-x="892" 
d="M121 0h-30v700h44l311 -662l310 662h45v-700h-30v661l-310 -661h-30l-310 659v-659z" />
    <glyph glyph-name="N" unicode="N" horiz-adv-x="692" 
d="M131 700l440 -661v661h30v-700h-40l-440 660v-660h-30v700h40z" />
    <glyph glyph-name="O" unicode="O" horiz-adv-x="862" 
d="M61 350c0 218 155 375 370 375c214 0 370 -157 370 -375c0 -217 -156 -375 -370 -375c-215 0 -370 158 -370 375zM91 350c0 -199 143 -345 340 -345s340 145 340 345s-143 345 -340 345s-340 -145 -340 -345z" />
    <glyph glyph-name="P" unicode="P" horiz-adv-x="632" 
d="M341 280h-220v-280h-30v700h250c139 0 240 -88 240 -210s-101 -210 -240 -210zM341 670h-220v-360h220c122 0 210 76 210 180s-88 180 -210 180z" />
    <glyph glyph-name="Q" unicode="Q" horiz-adv-x="862" 
d="M61 350c0 218 155 375 370 375c214 0 370 -157 370 -375c0 -136 -61 -249 -159 -314l158 -196h-39l-145 180c-54 -29 -117 -45 -185 -45c-215 0 -370 158 -370 375zM91 350c0 -199 143 -345 340 -345s340 145 340 345s-143 345 -340 345s-340 -145 -340 -345z" />
    <glyph glyph-name="R" unicode="R" horiz-adv-x="682" 
d="M91 0v700h290c144 0 240 -82 240 -205c0 -108 -74 -184 -190 -201l183 -294h-36l-180 290h-277v-290h-30zM381 670h-260v-350h260c126 0 210 70 210 175s-84 175 -210 175z" />
    <glyph glyph-name="S" unicode="S" horiz-adv-x="689" 
d="M347 -25c-160 0 -276 104 -276 247h30c0 -128 104 -217 247 -217c139 0 240 76 240 173c-1 219 -504 103 -504 347c0 111 104 200 254 200c156 0 273 -96 273 -229h-30c0 115 -102 199 -243 199c-132 0 -224 -74 -224 -167c0 -216 502 -100 504 -350
c0 -119 -114 -203 -271 -203z" />
    <glyph glyph-name="T" unicode="T" horiz-adv-x="572" 
d="M271 670h-250v30h530v-30h-250v-670h-30v670z" />
    <glyph glyph-name="U" unicode="U" horiz-adv-x="692" 
d="M581 280v420h30v-420c0 -183 -106 -305 -265 -305s-265 122 -265 305v420h30v-420c0 -167 92 -275 235 -275s235 108 235 275z" />
    <glyph glyph-name="V" unicode="V" horiz-adv-x="638" 
d="M54 700l265 -669l265 669h33l-278 -700h-40l-278 700h33z" />
    <glyph glyph-name="W" unicode="W" horiz-adv-x="976" 
d="M708 36l206 664h31l-217 -700h-40l-200 661l-200 -661h-40l-217 700h31l206 -664l200 664h40z" />
    <glyph glyph-name="X" unicode="X" horiz-adv-x="590" 
d="M275 370l-235 330h37l218 -306l219 306h37l-236 -330l244 -370h-36l-228 345l-228 -345h-36z" />
    <glyph glyph-name="Y" unicode="Y" horiz-adv-x="556" 
d="M263 290l-242 410h35l222 -377l222 377h35l-242 -410v-290h-30v290z" />
    <glyph glyph-name="Z" unicode="Z" 
d="M31 20l485 650h-475v30h520v-20l-485 -650h495v-30h-540v20z" />
    <glyph glyph-name="bracketleft" unicode="[" horiz-adv-x="432" 
d="M121 700v-850h270l-1 -30h-299v910h300v-30h-270z" />
    <glyph glyph-name="backslash" unicode="\" horiz-adv-x="415" 
d="M41 700h32l301 -930h-31z" />
    <glyph glyph-name="bracketright" unicode="]" horiz-adv-x="432" 
d="M341 -180h-300v30h270v850h-270v30h300v-910z" />
    <glyph glyph-name="asciicircum" unicode="^" horiz-adv-x="570" 
d="M78 400h-37l224 300h40l224 -300h-37l-207 277z" />
    <glyph glyph-name="underscore" unicode="_" horiz-adv-x="500" 
d="M0 0h500v-30h-500v30z" />
    <glyph glyph-name="grave" unicode="`" horiz-adv-x="252" 
d="M51 730h42l108 -110h-42z" />
    <glyph glyph-name="a" unicode="a" horiz-adv-x="662" 
d="M541 369v131h30v-500h-30v131c-36 -91 -122 -151 -230 -151c-152 0 -260 113 -260 270s108 270 260 270c108 0 194 -60 230 -151zM311 10c129 0 230 101 230 240c0 138 -101 240 -230 240c-134 0 -230 -101 -230 -240s96 -240 230 -240z" />
    <glyph glyph-name="b" unicode="b" horiz-adv-x="662" 
d="M91 730h30v-361c35 91 121 151 230 151c151 0 260 -113 260 -270s-109 -270 -260 -270c-109 0 -195 60 -230 151v-131h-30v730zM581 250c0 139 -97 240 -230 240c-134 0 -230 -101 -230 -240s96 -240 230 -240c133 0 230 101 230 240z" />
    <glyph glyph-name="c" unicode="c" horiz-adv-x="594" 
d="M543 345l-30 -5c-23 87 -107 150 -202 150c-134 0 -230 -101 -230 -240s96 -240 230 -240c96 0 180 59 202 140l29 -6c-24 -95 -121 -164 -231 -164c-151 0 -260 113 -260 270s109 270 260 270c111 0 209 -73 232 -175z" />
    <glyph glyph-name="d" unicode="d" horiz-adv-x="662" 
d="M541 369v361h30v-730h-30v131c-36 -91 -122 -151 -230 -151c-151 0 -260 113 -260 270s109 270 260 270c108 0 194 -60 230 -151zM81 250c0 -139 96 -240 230 -240c133 0 230 101 230 240s-97 240 -230 240c-134 0 -230 -101 -230 -240z" />
    <glyph glyph-name="e" unicode="e" horiz-adv-x="632" 
d="M321 10c96 0 187 60 216 144l30 -5c-32 -98 -136 -169 -246 -169c-157 0 -270 113 -270 270s113 270 270 270c152 0 260 -113 260 -270v-10h-500c4 -134 103 -230 240 -230zM81 270h469c-9 129 -102 220 -229 220c-133 0 -231 -91 -240 -220z" />
    <glyph glyph-name="f" unicode="f" horiz-adv-x="342" 
d="M311 740v-30c-17 5 -50 10 -70 10c-47 0 -80 -26 -80 -90v-130h140v-30h-140v-470h-30v470h-90v30h90v130c0 81 46 120 110 120c23 0 52 -4 70 -10z" />
    <glyph glyph-name="g" unicode="g" horiz-adv-x="662" 
d="M62 -55l30 4c12 -98 108 -169 229 -169c127 -1 220 92 220 220v127c-40 -90 -125 -147 -230 -147c-151 0 -260 113 -260 270s109 270 260 270c105 0 190 -58 230 -147v127h30v-500c0 -145 -105 -250 -250 -250c-136 0 -244 82 -259 195zM311 10c134 0 230 101 230 240
s-98 240 -230 240c-136 0 -230 -101 -230 -240s99 -240 230 -240z" />
    <glyph glyph-name="h" unicode="h" 
d="M316 520c126 0 205 -97 205 -230v-290h-30v290c0 116 -68 200 -178 200c-106 0 -192 -80 -192 -190v-300h-30v730h30v-333c31 74 106 123 195 123z" />
    <glyph glyph-name="i" unicode="i" horiz-adv-x="222" 
d="M126 500v-500h-30v500h30zM81 640c0 17 12 30 30 30c17 0 30 -13 30 -30s-13 -30 -30 -30c-18 0 -30 13 -30 30z" />
    <glyph glyph-name="j" unicode="j" horiz-adv-x="218" 
d="M92 -111v611h30v-610c0 -64 -44 -110 -104 -110c-23 0 -44 5 -67 13v31c20 -7 46 -14 66 -14c44 0 75 33 75 79zM77 640c0 18 12 30 30 30c17 0 30 -12 30 -30c0 -17 -13 -30 -30 -30s-30 12 -30 30z" />
    <glyph glyph-name="k" unicode="k" horiz-adv-x="494" 
d="M91 730h30v-452l267 222h47l-290 -240l298 -260h-45l-277 241v-241h-30v730z" />
    <glyph glyph-name="l" unicode="l" horiz-adv-x="210" 
d="M120 730v-730h-30v730h30z" />
    <glyph glyph-name="m" unicode="m" horiz-adv-x="922" 
d="M91 0v500h30v-82c27 63 88 102 170 102c91 0 157 -52 175 -133c19 81 88 133 185 133c114 0 190 -84 190 -210v-310h-30v310c0 108 -64 180 -160 180c-102 0 -170 -72 -170 -180v-310h-30v310c0 108 -64 180 -160 180c-102 0 -170 -72 -170 -180v-310h-30z" />
    <glyph glyph-name="n" unicode="n" 
d="M324 520c127 0 197 -97 197 -230v-290h-30v290c0 116 -57 200 -167 200c-107 0 -203 -80 -203 -190v-300h-30v500h30v-100c32 73 113 120 203 120z" />
    <glyph glyph-name="o" unicode="o" horiz-adv-x="620" 
d="M570 250c0 -157 -109 -270 -260 -270s-260 113 -260 270s109 270 260 270s260 -113 260 -270zM540 250c0 139 -97 240 -230 240s-230 -101 -230 -240s97 -240 230 -240s230 101 230 240z" />
    <glyph glyph-name="p" unicode="p" horiz-adv-x="662" 
d="M121 131v-361h-30v730h30v-131c35 91 121 151 230 151c151 0 260 -113 260 -270s-109 -270 -260 -270c-109 0 -195 60 -230 151zM581 250c0 139 -97 240 -230 240c-134 0 -230 -101 -230 -240s96 -240 230 -240c133 0 230 101 230 240z" />
    <glyph glyph-name="q" unicode="q" horiz-adv-x="662" 
d="M571 -230h-30v361c-36 -91 -122 -151 -230 -151c-151 0 -260 113 -260 270s109 270 260 270c108 0 194 -60 230 -151v131h30v-730zM81 250c0 -139 96 -240 230 -240c133 0 230 101 230 240s-97 240 -230 240c-134 0 -230 -101 -230 -240z" />
    <glyph glyph-name="r" unicode="r" horiz-adv-x="381" 
d="M263 520c27 0 54 -6 78 -17v-34c-25 14 -50 21 -77 21c-87 0 -143 -80 -143 -200v-290h-30v500h30v-89c23 68 72 109 142 109z" />
    <glyph glyph-name="s" unicode="s" horiz-adv-x="505" 
d="M259 -20c-121 0 -208 74 -208 176h30c0 -86 74 -146 177 -146c96 0 166 52 166 120c0 154 -357 67 -357 245c0 83 78 145 182 145c111 0 193 -69 193 -165h-30c0 80 -70 135 -162 135c-87 0 -153 -49 -153 -113c0 -148 357 -62 357 -245c0 -88 -83 -152 -195 -152z" />
    <glyph glyph-name="t" unicode="t" horiz-adv-x="352" 
d="M121 100v370h-90v30h90v112h30v-112h140v-30h-140v-370c0 -52 30 -90 84 -90c20 0 46 4 66 10v-30c-17 -6 -45 -10 -70 -10c-66 0 -110 48 -110 120z" />
    <glyph glyph-name="u" unicode="u" 
d="M278 -20c-127 0 -197 97 -197 230v290h30v-290c0 -116 57 -200 167 -200c107 0 203 80 203 190v300h30v-500h-30v100c-33 -73 -114 -120 -203 -120z" />
    <glyph glyph-name="v" unicode="v" horiz-adv-x="556" 
d="M258 0l-217 500h32l204 -473l206 473h32l-217 -500h-40z" />
    <glyph glyph-name="w" unicode="w" horiz-adv-x="868" 
d="M229 0l-178 500h32l166 -467l164 467h40l166 -467l166 467h32l-178 -500h-40l-166 466l-164 -466h-40z" />
    <glyph glyph-name="x" unicode="x" horiz-adv-x="494" 
d="M88 0h-37l176 260l-166 240h37l149 -216l150 216h36l-166 -240l176 -260h-36l-160 236z" />
    <glyph glyph-name="y" unicode="y" horiz-adv-x="560" 
d="M61 -210v30c19 -6 42 -10 59 -10c72 0 108 78 158 195l-237 495h34l219 -459l193 459h32l-210 -500c-55 -132 -100 -220 -191 -220c-19 0 -42 4 -57 10z" />
    <glyph glyph-name="z" unicode="z" horiz-adv-x="542" 
d="M433 470h-372v30h420v-20l-382 -450h392v-30h-440v20z" />
    <glyph glyph-name="braceleft" unicode="{" horiz-adv-x="335" 
d="M244 -150h50l-1 -30h-49c-64 0 -110 50 -110 120v240c0 44 -27 76 -63 76h-10v47h10c36 0 63 32 63 77v230c0 70 46 120 110 120h50v-30h-50c-47 0 -80 -38 -80 -90v-230c0 -54 -30 -95 -70 -99l-10 -1l10 -1c40 -4 70 -45 70 -99v-240c0 -52 33 -90 80 -90z" />
    <glyph glyph-name="bar" unicode="|" horiz-adv-x="212" 
d="M91 730h30v-960h-30v960z" />
    <glyph glyph-name="braceright" unicode="}" horiz-adv-x="335" 
d="M91 -180h-50v30h50c46 0 80 38 80 90v240c0 54 29 95 70 99l10 1l-10 1c-41 4 -70 45 -70 99v230c0 52 -34 90 -80 90h-50v30h50c64 0 110 -50 110 -120v-230c0 -45 26 -77 63 -77h10v-47h-10c-37 0 -63 -32 -63 -76v-240c0 -70 -46 -120 -110 -120z" />
    <glyph glyph-name="asciitilde" unicode="~" horiz-adv-x="576" 
d="M164 390c99 0 181 -120 266 -120c26 0 55 11 79 31l17 -25c-30 -23 -65 -36 -97 -36c-98 -1 -178 120 -266 120c-31 0 -66 -15 -94 -41l-18 25c33 29 75 46 113 46z" />
    <glyph glyph-name="exclamdown" unicode="&#xa1;" horiz-adv-x="160" 
d="M65 -230v520h30v-520h-30zM110 450c0 -17 -12 -30 -30 -30s-30 13 -30 30s12 30 30 30s30 -12 30 -30z" />
    <glyph glyph-name="cent" unicode="&#xa2;" horiz-adv-x="594" 
d="M331 -19v-81h-30v80c-146 5 -250 117 -250 270s104 265 250 270v80h30v-81c103 -8 190 -79 212 -174l-30 -5c-23 87 -107 150 -202 150c-134 0 -230 -101 -230 -240s96 -240 230 -240c96 0 180 59 202 140l29 -6c-22 -89 -109 -156 -211 -163z" />
    <glyph glyph-name="sterling" unicode="&#xa3;" horiz-adv-x="562" 
d="M326 695c-77 0 -135 -69 -135 -165v-160h270v-30h-270c-2 -200 -42 -283 -101 -310h421v-30h-460v50c63 8 108 72 110 290h-100v30h100v160c0 113 70 195 164 195c98 0 174 -89 182 -211l-30 -4c-5 106 -68 185 -151 185z" />
    <glyph glyph-name="currency" unicode="&#xa4;" horiz-adv-x="746" 
d="M555 441l108 109l21 -21l-109 -110c37 -44 58 -103 58 -169s-21 -125 -58 -169l109 -110l-21 -21l-108 109c-46 -44 -109 -69 -182 -69s-136 25 -181 69l-109 -109l-22 20l110 111c-37 44 -58 103 -58 169s21 125 58 169l-109 110l21 21l109 -109c45 44 108 69 181 69
s136 -25 182 -69zM603 250c0 134 -96 230 -230 230c-132 0 -230 -96 -230 -230c0 -133 96 -230 230 -230s230 97 230 230z" />
    <glyph glyph-name="yen" unicode="&#xa5;" horiz-adv-x="637" 
d="M291 280l-260 420h35l252 -408l252 408h35l-260 -420h248v-30h-260v-140h260v-30h-260v-80h-30v80h-260v30h260v140h-260v30h248z" />
    <glyph glyph-name="section" unicode="&#xa7;" horiz-adv-x="592" 
d="M290 705c111 0 191 -76 191 -182l-29 -3c0 90 -68 155 -161 155c-95 0 -160 -56 -160 -135c0 -102 95 -113 191 -125c99 -13 199 -26 199 -135c0 -67 -45 -113 -126 -126c60 -18 106 -53 106 -134c0 -102 -86 -175 -204 -175c-120 0 -206 76 -206 180l30 4
c0 -91 70 -154 175 -154c103 0 175 60 175 145c0 105 -97 114 -196 125c-101 11 -204 23 -204 135c0 63 45 112 130 126c-57 19 -100 55 -100 134c0 96 79 165 189 165zM278 390c-112 -4 -177 -45 -177 -110c0 -87 86 -95 179 -106c11 -1 22 -2 33 -4c115 4 178 42 178 110
c0 94 -112 97 -178 105c-12 2 -23 3 -35 5z" />
    <glyph glyph-name="dieresis" unicode="&#xa8;" horiz-adv-x="362" 
d="M81 625c-18 0 -30 12 -30 30s12 30 30 30s30 -12 30 -30s-12 -30 -30 -30zM281 625c-18 0 -30 12 -30 30s12 30 30 30s30 -12 30 -30s-12 -30 -30 -30z" />
    <glyph glyph-name="copyright" unicode="&#xa9;" horiz-adv-x="882" 
d="M61 250c0 215 159 380 380 380c220 0 380 -160 380 -380s-160 -380 -380 -380c-221 0 -380 160 -380 380zM91 250c0 -203 147 -350 350 -350s350 147 350 350c0 197 -147 350 -350 350s-350 -153 -350 -350zM670 374l-27 -9c-33 77 -110 125 -202 125
c-133 0 -230 -101 -230 -240c0 -141 95 -240 230 -240c89 0 173 53 203 128l27 -12c-33 -85 -130 -146 -231 -146c-150 0 -259 113 -259 270s109 270 261 270c103 0 199 -61 228 -146z" />
    <glyph glyph-name="guillemotleft" unicode="&#xab;" horiz-adv-x="570" 
d="M289 500l-209 -250l209 -250h-40l-208 250l209 250h39zM509 500l-209 -250l209 -250h-40l-208 250l209 250h39z" />
    <glyph glyph-name="logicalnot" unicode="&#xac;" horiz-adv-x="627" 
d="M536 70v238h-485v30h515v-268h-30z" />
    <glyph glyph-name="registered" unicode="&#xae;" horiz-adv-x="882" 
d="M61 253c0 215 159 380 380 380c220 0 380 -160 380 -380s-160 -380 -380 -380c-221 0 -380 160 -380 380zM791 253c0 197 -147 350 -350 350s-350 -153 -350 -350c0 -203 147 -350 350 -350s350 147 350 350zM321 13h-30v490h203c85 0 147 -61 147 -145
c0 -75 -54 -135 -129 -144l124 -201h-35l-123 200h-157v-200zM611 358c0 68 -49 115 -120 115h-170v-230h170c69 0 120 48 120 115z" />
    <glyph glyph-name="macron" unicode="&#xaf;" horiz-adv-x="376" 
d="M325 690v-30h-274v30h274z" />
    <glyph glyph-name="degree" unicode="&#xb0;" horiz-adv-x="503" 
d="M252 347c-121 0 -201 78 -201 194c0 117 80 195 201 195c120 0 200 -78 200 -195c0 -116 -80 -194 -200 -194zM253 706c-103 0 -172 -66 -172 -165c0 -98 69 -164 172 -164c102 0 169 66 169 164c0 99 -67 165 -169 165z" />
    <glyph glyph-name="plusminus" unicode="&#xb1;" horiz-adv-x="552" 
d="M51 30h450v-30h-450v30zM291 186h-30v149h-210v30h210v135h30v-135h210v-30h-210v-149z" />
    <glyph glyph-name="acute" unicode="&#xb4;" horiz-adv-x="252" 
d="M201 730l-108 -110h-42l108 110h42z" />
    <glyph glyph-name="paragraph" unicode="&#xb6;" horiz-adv-x="641" 
d="M561 670h-90v-900h-30v900h-140v-900h-30v570c-133 0 -220 72 -220 180s89 180 220 180h290v-30z" />
    <glyph glyph-name="periodcentered" unicode="&#xb7;" horiz-adv-x="162" 
d="M81 261c-18 0 -30 13 -30 30s12 30 30 30c17 0 30 -13 30 -30s-13 -30 -30 -30z" />
    <glyph glyph-name="cedilla" unicode="&#xb8;" horiz-adv-x="309" 
d="M143 -90h-35l10 92h30l-7 -62c73 0 117 -46 117 -110c0 -58 -42 -100 -103 -100c-54 0 -94 34 -104 84l29 6c8 -36 37 -60 76 -60c43 0 72 29 72 70c0 49 -33 80 -85 80z" />
    <glyph glyph-name="guillemotright" unicode="&#xbb;" horiz-adv-x="568" 
d="M308 250l-208 -250h-40l209 250l-209 250h39zM528 250l-208 -250h-40l209 250l-209 250h39z" />
    <glyph glyph-name="questiondown" unicode="&#xbf;" horiz-adv-x="568" 
d="M285 320h30c0 -105 -34 -140 -119 -194c-52 -33 -105 -67 -105 -154c0 -106 80 -187 191 -187c113 0 181 84 195 201l30 -6c-17 -130 -98 -225 -226 -225s-220 95 -220 218c0 100 60 141 130 186c70 44 94 73 94 161zM331 460c0 -17 -12 -30 -30 -30c-17 0 -30 13 -30 30
s13 30 30 30c18 0 30 -12 30 -30z" />
    <glyph glyph-name="Agrave" unicode="&#xc0;" horiz-adv-x="638" 
d="M339 700l278 -700h-32l-76 190h-381l-75 -190h-32l278 700h40zM319 670l-179 -450h358zM296 790l-88 90h42l88 -90h-42z" />
    <glyph glyph-name="Aacute" unicode="&#xc1;" horiz-adv-x="638" 
d="M339 700l278 -700h-32l-76 190h-381l-75 -190h-32l278 700h40zM319 670l-179 -450h358zM428 880l-88 -90h-42l88 90h42z" />
    <glyph glyph-name="Acircumflex" unicode="&#xc2;" horiz-adv-x="638" 
d="M339 700l278 -700h-32l-76 190h-381l-75 -190h-32l278 700h40zM319 670l-179 -450h358zM244 790h-45l99 90h40l98 -90h-45l-73 67z" />
    <glyph glyph-name="Atilde" unicode="&#xc3;" horiz-adv-x="638" 
d="M339 700l278 -700h-32l-76 190h-381l-75 -190h-32l278 700h40zM319 670l-179 -450h358zM203 805l-25 15c13 29 49 50 88 50c61 0 70 -50 125 -50c30 0 54 16 64 38l27 -13c-14 -32 -51 -55 -93 -55c-62 0 -72 50 -123 50c-28 0 -52 -15 -63 -35z" />
    <glyph glyph-name="Adieresis" unicode="&#xc4;" horiz-adv-x="638" 
d="M339 700l278 -700h-32l-76 190h-381l-75 -190h-32l278 700h40zM319 670l-179 -450h358zM218 815c-17 0 -30 13 -30 30s13 30 30 30s30 -13 30 -30s-13 -30 -30 -30zM418 815c-17 0 -30 13 -30 30s13 30 30 30s30 -13 30 -30s-13 -30 -30 -30z" />
    <glyph glyph-name="Aring" unicode="&#xc5;" horiz-adv-x="638" 
d="M339 700l278 -700h-32l-76 190h-381l-75 -190h-32l278 700h40zM319 670l-179 -450h358zM318 751c-49 0 -85 36 -85 85s36 84 85 84s85 -35 85 -84s-37 -85 -85 -85zM318 890c-32 0 -55 -22 -55 -53c0 -33 22 -56 55 -56c32 0 56 23 56 56c0 31 -23 53 -56 53z" />
    <glyph glyph-name="AE" unicode="&#xc6;" horiz-adv-x="873" 
d="M821 30v-30h-410v160h-272l-85 -160h-33l370 700h420v-29h-370v-301h330v-30h-330v-310h380zM411 190v483l-256 -483h256z" />
    <glyph glyph-name="Ccedilla" unicode="&#xc7;" horiz-adv-x="820" 
d="M443 -90h-35l7 65c-206 8 -354 163 -354 375c0 218 155 375 370 375c163 0 298 -113 327 -255l-29 -5c-29 128 -151 230 -298 230c-197 0 -340 -143 -340 -345c0 -200 143 -345 340 -345c151 0 273 99 299 223l29 -7c-28 -133 -156 -240 -314 -246l-4 -35
c73 0 117 -46 117 -110c0 -58 -42 -100 -103 -100c-54 0 -94 34 -104 84l29 6c8 -36 37 -60 76 -60c43 0 72 29 72 70c0 49 -33 80 -85 80z" />
    <glyph glyph-name="Egrave" unicode="&#xc8;" horiz-adv-x="622" 
d="M121 30h450v-30h-480v700h470v-30h-440v-290h400v-30h-400v-320zM309 790l-88 90h42l88 -90h-42z" />
    <glyph glyph-name="Eacute" unicode="&#xc9;" horiz-adv-x="622" 
d="M121 30h450v-30h-480v700h470v-30h-440v-290h400v-30h-400v-320zM441 880l-88 -90h-42l88 90h42z" />
    <glyph glyph-name="Ecircumflex" unicode="&#xca;" horiz-adv-x="622" 
d="M121 30h450v-30h-480v700h470v-30h-440v-290h400v-30h-400v-320zM257 790h-45l99 90h40l98 -90h-45l-73 67z" />
    <glyph glyph-name="Edieresis" unicode="&#xcb;" horiz-adv-x="622" 
d="M121 30h450v-30h-480v700h470v-30h-440v-290h400v-30h-400v-320zM231 815c-17 0 -30 13 -30 30s13 30 30 30s30 -13 30 -30s-13 -30 -30 -30zM431 815c-17 0 -30 13 -30 30s13 30 30 30s30 -13 30 -30s-13 -30 -30 -30z" />
    <glyph glyph-name="Igrave" unicode="&#xcc;" horiz-adv-x="222" 
d="M126 700v-700h-30v700h30zM89 790l-88 90h42l88 -90h-42z" />
    <glyph glyph-name="Iacute" unicode="&#xcd;" horiz-adv-x="222" 
d="M126 700v-700h-30v700h30zM221 880l-88 -90h-42l88 90h42z" />
    <glyph glyph-name="Icircumflex" unicode="&#xce;" horiz-adv-x="199" 
d="M115 700v-700h-30v700h30zM26 790h-45l99 90h40l98 -90h-45l-73 67z" />
    <glyph glyph-name="Idieresis" unicode="&#xcf;" horiz-adv-x="212" 
d="M121 700v-700h-30v700h30zM6 815c-17 0 -30 13 -30 30s13 30 30 30s30 -13 30 -30s-13 -30 -30 -30zM206 815c-17 0 -30 13 -30 30s13 30 30 30s30 -13 30 -30s-13 -30 -30 -30z" />
    <glyph glyph-name="Ntilde" unicode="&#xd1;" horiz-adv-x="692" 
d="M131 700l440 -661v661h30v-700h-40l-440 660v-660h-30v700h40zM226 805l-25 15c13 29 49 50 88 50c61 0 70 -50 125 -50c30 0 54 16 64 38l27 -13c-14 -32 -51 -55 -93 -55c-62 0 -72 50 -123 50c-28 0 -52 -15 -63 -35z" />
    <glyph glyph-name="Ograve" unicode="&#xd2;" horiz-adv-x="862" 
d="M61 350c0 218 155 375 370 375c214 0 370 -157 370 -375c0 -217 -156 -375 -370 -375c-215 0 -370 158 -370 375zM91 350c0 -199 143 -345 340 -345s340 145 340 345s-143 345 -340 345s-340 -145 -340 -345zM409 790l-88 90h42l88 -90h-42z" />
    <glyph glyph-name="Oacute" unicode="&#xd3;" horiz-adv-x="862" 
d="M61 350c0 218 155 375 370 375c214 0 370 -157 370 -375c0 -217 -156 -375 -370 -375c-215 0 -370 158 -370 375zM91 350c0 -199 143 -345 340 -345s340 145 340 345s-143 345 -340 345s-340 -145 -340 -345zM541 880l-88 -90h-42l88 90h42z" />
    <glyph glyph-name="Ocircumflex" unicode="&#xd4;" horiz-adv-x="862" 
d="M61 350c0 218 155 375 370 375c214 0 370 -157 370 -375c0 -217 -156 -375 -370 -375c-215 0 -370 158 -370 375zM91 350c0 -199 143 -345 340 -345s340 145 340 345s-143 345 -340 345s-340 -145 -340 -345zM357 810h-45l99 90h40l98 -90h-45l-73 67z" />
    <glyph glyph-name="Otilde" unicode="&#xd5;" horiz-adv-x="862" 
d="M61 350c0 218 155 375 370 375c214 0 370 -157 370 -375c0 -217 -156 -375 -370 -375c-215 0 -370 158 -370 375zM91 350c0 -199 143 -345 340 -345s340 145 340 345s-143 345 -340 345s-340 -145 -340 -345zM306 805l-25 15c13 29 49 50 88 50c61 0 70 -50 125 -50
c30 0 54 16 64 38l27 -13c-14 -32 -51 -55 -93 -55c-62 0 -72 50 -123 50c-28 0 -52 -15 -63 -35z" />
    <glyph glyph-name="Odieresis" unicode="&#xd6;" horiz-adv-x="862" 
d="M61 350c0 218 155 375 370 375c214 0 370 -157 370 -375c0 -217 -156 -375 -370 -375c-215 0 -370 158 -370 375zM91 350c0 -199 143 -345 340 -345s340 145 340 345s-143 345 -340 345s-340 -145 -340 -345zM331 815c-17 0 -30 13 -30 30s13 30 30 30s30 -13 30 -30
s-13 -30 -30 -30zM531 815c-17 0 -30 13 -30 30s13 30 30 30s30 -13 30 -30s-13 -30 -30 -30z" />
    <glyph glyph-name="multiply" unicode="&#xd7;" horiz-adv-x="365" 
d="M72 160l-21 20l111 120l-111 120l21 20l110 -118l110 118l23 -20l-112 -120l111 -120l-22 -20l-110 118z" />
    <glyph glyph-name="Oslash" unicode="&#xd8;" horiz-adv-x="842" 
d="M589 686l88 174h34l-96 -189c102 -64 166 -180 166 -321c0 -217 -151 -375 -360 -375c-52 0 -101 10 -144 28l-72 -143h-35l79 156c-115 60 -188 182 -188 334c0 218 151 375 360 375c62 0 118 -14 168 -39zM91 350c0 -139 67 -251 172 -307l312 616
c-45 23 -97 36 -154 36c-192 0 -330 -145 -330 -345zM751 350c0 129 -58 235 -150 294l-310 -614c39 -16 83 -25 130 -25c191 0 330 144 330 345z" />
    <glyph glyph-name="Ugrave" unicode="&#xd9;" horiz-adv-x="692" 
d="M581 280v420h30v-420c0 -183 -106 -305 -265 -305s-265 122 -265 305v420h30v-420c0 -167 92 -275 235 -275s235 108 235 275zM334 790l-88 90h42l88 -90h-42z" />
    <glyph glyph-name="Uacute" unicode="&#xda;" horiz-adv-x="692" 
d="M581 280v420h30v-420c0 -183 -106 -305 -265 -305s-265 122 -265 305v420h30v-420c0 -167 92 -275 235 -275s235 108 235 275zM446 880l-88 -90h-42l88 90h42z" />
    <glyph glyph-name="Ucircumflex" unicode="&#xdb;" horiz-adv-x="692" 
d="M581 280v420h30v-420c0 -183 -106 -305 -265 -305s-265 122 -265 305v420h30v-420c0 -167 92 -275 235 -275s235 108 235 275zM272 810h-45l99 90h40l98 -90h-45l-73 67z" />
    <glyph glyph-name="Udieresis" unicode="&#xdc;" horiz-adv-x="692" 
d="M581 280v420h30v-420c0 -183 -106 -305 -265 -305s-265 122 -265 305v420h30v-420c0 -167 92 -275 235 -275s235 108 235 275zM246 815c-17 0 -30 13 -30 30s13 30 30 30s30 -13 30 -30s-13 -30 -30 -30zM446 815c-17 0 -30 13 -30 30s13 30 30 30s30 -13 30 -30
s-13 -30 -30 -30z" />
    <glyph glyph-name="Yacute" unicode="&#xdd;" horiz-adv-x="556" 
d="M263 290l-242 410h35l222 -377l222 377h35l-242 -410v-290h-30v290zM378 880l-88 -90h-42l88 90h42z" />
    <glyph glyph-name="germandbls" unicode="&#xdf;" horiz-adv-x="632" 
d="M111 480v-480h-30v480c0 136 94 235 223 235c113 0 197 -82 197 -181c0 -90 -63 -142 -159 -158c130 -17 219 -86 219 -205c0 -114 -83 -196 -197 -196c-61 0 -117 22 -151 49l17 24c33 -25 81 -43 133 -43c99 0 168 68 168 167c-1 117 -110 188 -259 188h-31v30h34
c114 0 196 55 196 143c0 83 -70 152 -167 152c-112 0 -193 -86 -193 -205z" />
    <glyph glyph-name="agrave" unicode="&#xe0;" horiz-adv-x="662" 
d="M541 369v131h30v-500h-30v131c-36 -91 -122 -151 -230 -151c-152 0 -260 113 -260 270s108 270 260 270c108 0 194 -60 230 -151zM311 10c129 0 230 101 230 240c0 138 -101 240 -230 240c-134 0 -230 -101 -230 -240s96 -240 230 -240zM191 720h42l108 -110h-42z" />
    <glyph glyph-name="aacute" unicode="&#xe1;" horiz-adv-x="662" 
d="M541 369v131h30v-500h-30v131c-36 -91 -122 -151 -230 -151c-152 0 -260 113 -260 270s108 270 260 270c108 0 194 -60 230 -151zM311 10c129 0 230 101 230 240c0 138 -101 240 -230 240c-134 0 -230 -101 -230 -240s96 -240 230 -240zM389 720h42l-108 -110h-42z" />
    <glyph glyph-name="acircumflex" unicode="&#xe2;" horiz-adv-x="662" 
d="M541 369v131h30v-500h-30v131c-36 -91 -122 -151 -230 -151c-152 0 -260 113 -260 270s108 270 260 270c108 0 194 -60 230 -151zM311 10c129 0 230 101 230 240c0 138 -101 240 -230 240c-134 0 -230 -101 -230 -240s96 -240 230 -240zM235 610h-39l95 110h40l95 -110
h-39l-76 87z" />
    <glyph glyph-name="atilde" unicode="&#xe3;" horiz-adv-x="662" 
d="M541 369v131h30v-500h-30v131c-36 -91 -122 -151 -230 -151c-152 0 -260 113 -260 270s108 270 260 270c108 0 194 -60 230 -151zM311 10c129 0 230 101 230 240c0 138 -101 240 -230 240c-134 0 -230 -101 -230 -240s96 -240 230 -240zM206 628l-25 16
c14 29 49 50 81 50c58 0 86 -60 133 -60c27 0 53 16 63 38l27 -13c-14 -32 -51 -55 -88 -55c-61 0 -85 60 -133 60c-25 0 -47 -15 -58 -36z" />
    <glyph glyph-name="adieresis" unicode="&#xe4;" horiz-adv-x="662" 
d="M541 369v131h30v-500h-30v131c-36 -91 -122 -151 -230 -151c-152 0 -260 113 -260 270s108 270 260 270c108 0 194 -60 230 -151zM311 10c129 0 230 101 230 240c0 138 -101 240 -230 240c-134 0 -230 -101 -230 -240s96 -240 230 -240zM211 610c-18 0 -30 12 -30 30
s12 30 30 30s30 -12 30 -30s-12 -30 -30 -30zM411 610c-18 0 -30 12 -30 30s12 30 30 30s30 -12 30 -30s-12 -30 -30 -30z" />
    <glyph glyph-name="aring" unicode="&#xe5;" horiz-adv-x="662" 
d="M541 369v131h30v-500h-30v131c-36 -91 -122 -151 -230 -151c-152 0 -260 113 -260 270s108 270 260 270c108 0 194 -60 230 -151zM311 10c129 0 230 101 230 240c0 138 -101 240 -230 240c-134 0 -230 -101 -230 -240s96 -240 230 -240zM321 580c-67 0 -116 48 -116 115
s49 115 116 115c66 0 114 -48 114 -115s-48 -115 -114 -115zM320 780c-49 0 -85 -36 -85 -85s36 -85 85 -85s85 36 85 85s-36 85 -85 85z" />
    <glyph glyph-name="ae" unicode="&#xe6;" horiz-adv-x="1102" 
d="M1051 260c0 -9 -1 -19 -1 -30h-478c12 -131 98 -220 220 -220c99 0 187 58 216 143l27 -9c-27 -95 -130 -164 -243 -164c-101 0 -184 54 -221 146v-126h-30v127c-40 -89 -125 -147 -230 -147c-151 0 -260 113 -260 270s109 270 260 270c105 0 190 -58 230 -147v127h30
v-120c40 85 125 140 220 140c151 0 260 -109 260 -260zM81 250c0 -138 97 -239 230 -240c133 0 230 101 230 240s-97 240 -230 240c-134 0 -230 -101 -230 -240zM571 260h450c0 133 -100 230 -230 230c-128 0 -220 -102 -220 -230z" />
    <glyph glyph-name="ccedilla" unicode="&#xe7;" horiz-adv-x="594" 
d="M323 -90h-35l7 70c-142 8 -244 119 -244 270c0 157 109 270 260 270c111 0 209 -73 232 -175l-30 -5c-23 87 -107 150 -202 150c-134 0 -230 -101 -230 -240s96 -240 230 -240c96 0 180 59 202 140l29 -6c-22 -91 -112 -158 -217 -164l-4 -40c73 0 117 -46 117 -110
c0 -58 -42 -100 -103 -100c-54 0 -94 34 -104 84l29 6c8 -36 37 -60 76 -60c43 0 72 29 72 70c0 49 -33 80 -85 80z" />
    <glyph glyph-name="egrave" unicode="&#xe8;" horiz-adv-x="632" 
d="M321 10c96 0 187 60 216 144l30 -5c-32 -98 -136 -169 -246 -169c-157 0 -270 113 -270 270s113 270 270 270c152 0 260 -113 260 -270v-10h-500c4 -134 103 -230 240 -230zM81 270h469c-9 129 -102 220 -229 220c-133 0 -231 -91 -240 -220zM201 720h42l108 -110h-42z
" />
    <glyph glyph-name="eacute" unicode="&#xe9;" horiz-adv-x="632" 
d="M321 10c96 0 187 60 216 144l30 -5c-32 -98 -136 -169 -246 -169c-157 0 -270 113 -270 270s113 270 270 270c152 0 260 -113 260 -270v-10h-500c4 -134 103 -230 240 -230zM81 270h469c-9 129 -102 220 -229 220c-133 0 -231 -91 -240 -220zM399 720h42l-108 -110h-42z
" />
    <glyph glyph-name="ecircumflex" unicode="&#xea;" horiz-adv-x="632" 
d="M321 10c96 0 187 60 216 144l30 -5c-32 -98 -136 -169 -246 -169c-157 0 -270 113 -270 270s113 270 270 270c152 0 260 -113 260 -270v-10h-500c4 -134 103 -230 240 -230zM81 270h469c-9 129 -102 220 -229 220c-133 0 -231 -91 -240 -220zM245 610h-39l95 110h40
l95 -110h-39l-76 87z" />
    <glyph glyph-name="edieresis" unicode="&#xeb;" horiz-adv-x="632" 
d="M321 10c96 0 187 60 216 144l30 -5c-32 -98 -136 -169 -246 -169c-157 0 -270 113 -270 270s113 270 270 270c152 0 260 -113 260 -270v-10h-500c4 -134 103 -230 240 -230zM81 270h469c-9 129 -102 220 -229 220c-133 0 -231 -91 -240 -220zM221 610
c-18 0 -30 12 -30 30s12 30 30 30s30 -12 30 -30s-12 -30 -30 -30zM421 610c-18 0 -30 12 -30 30s12 30 30 30s30 -12 30 -30s-12 -30 -30 -30z" />
    <glyph glyph-name="igrave" unicode="&#xec;" horiz-adv-x="217" 
d="M120 500v-500h-30v500h30zM-14 720h42l108 -110h-42z" />
    <glyph glyph-name="iacute" unicode="&#xed;" horiz-adv-x="217" 
d="M126 500v-500h-30v500h30zM189 720h42l-108 -110h-42z" />
    <glyph glyph-name="icircumflex" unicode="&#xee;" horiz-adv-x="172" 
d="M101 500v-500h-30v500h30zM10 610h-39l95 110h40l95 -110h-39l-76 87z" />
    <glyph glyph-name="idieresis" unicode="&#xef;" horiz-adv-x="172" 
d="M101 500v-500h-30v500h30zM-14 610c-18 0 -30 12 -30 30s12 30 30 30s30 -12 30 -30s-12 -30 -30 -30zM186 610c-18 0 -30 12 -30 30s12 30 30 30s30 -12 30 -30s-12 -30 -30 -30z" />
    <glyph glyph-name="ntilde" unicode="&#xf1;" 
d="M324 520c127 0 197 -97 197 -230v-290h-30v290c0 116 -57 200 -167 200c-107 0 -203 -80 -203 -190v-300h-30v500h30v-100c32 73 113 120 203 120zM169 628l-25 16c15 29 49 50 82 50c58 0 85 -60 132 -60c27 0 53 16 63 38l27 -13c-13 -32 -50 -55 -88 -55
c-61 0 -85 60 -133 60c-24 0 -47 -15 -58 -36z" />
    <glyph glyph-name="ograve" unicode="&#xf2;" horiz-adv-x="622" 
d="M571 250c0 -157 -109 -270 -260 -270s-260 113 -260 270s109 270 260 270s260 -113 260 -270zM541 250c0 139 -97 240 -230 240c-134 0 -230 -101 -230 -240s96 -240 230 -240c133 0 230 101 230 240zM191 720h42l108 -110h-42z" />
    <glyph glyph-name="oacute" unicode="&#xf3;" horiz-adv-x="622" 
d="M571 250c0 -157 -109 -270 -260 -270s-260 113 -260 270s109 270 260 270s260 -113 260 -270zM541 250c0 139 -97 240 -230 240c-134 0 -230 -101 -230 -240s96 -240 230 -240c133 0 230 101 230 240zM389 720h42l-108 -110h-42z" />
    <glyph glyph-name="ocircumflex" unicode="&#xf4;" horiz-adv-x="622" 
d="M571 250c0 -157 -109 -270 -260 -270s-260 113 -260 270s109 270 260 270s260 -113 260 -270zM541 250c0 139 -97 240 -230 240c-134 0 -230 -101 -230 -240s96 -240 230 -240c133 0 230 101 230 240zM235 610h-39l95 110h40l95 -110h-39l-76 87z" />
    <glyph glyph-name="otilde" unicode="&#xf5;" horiz-adv-x="622" 
d="M571 250c0 -157 -109 -270 -260 -270s-260 113 -260 270s109 270 260 270s260 -113 260 -270zM541 250c0 139 -97 240 -230 240c-134 0 -230 -101 -230 -240s96 -240 230 -240c133 0 230 101 230 240zM196 628l-25 16c14 29 49 50 81 50c58 0 86 -60 133 -60
c27 0 53 16 63 38l27 -13c-14 -32 -51 -55 -88 -55c-61 0 -85 60 -133 60c-25 0 -47 -15 -58 -36z" />
    <glyph glyph-name="odieresis" unicode="&#xf6;" horiz-adv-x="622" 
d="M571 250c0 -157 -109 -270 -260 -270s-260 113 -260 270s109 270 260 270s260 -113 260 -270zM541 250c0 139 -97 240 -230 240c-134 0 -230 -101 -230 -240s96 -240 230 -240c133 0 230 101 230 240zM211 610c-18 0 -30 12 -30 30s12 30 30 30s30 -12 30 -30
s-12 -30 -30 -30zM411 610c-18 0 -30 12 -30 30s12 30 30 30s30 -12 30 -30s-12 -30 -30 -30z" />
    <glyph glyph-name="divide" unicode="&#xf7;" horiz-adv-x="552" 
d="M276 20c-18 0 -30 12 -30 30s12 30 30 30s30 -12 30 -30s-12 -30 -30 -30zM51 270h450v-30h-450v30zM276 410c-18 0 -30 12 -30 30s12 30 30 30s30 -12 30 -30s-12 -30 -30 -30z" />
    <glyph glyph-name="oslash" unicode="&#xf8;" horiz-adv-x="622" 
d="M432 492l55 108h34l-63 -123c70 -47 113 -129 113 -227c0 -157 -109 -270 -260 -270c-35 0 -67 6 -97 17l-39 -77h-34l45 90c-83 43 -135 131 -135 240c0 157 109 270 260 270c44 0 85 -10 121 -28zM81 250c0 -96 46 -174 119 -213l218 428c-31 16 -68 25 -107 25
c-134 0 -230 -101 -230 -240zM541 250c0 86 -37 157 -97 199l-216 -425c25 -9 53 -14 83 -14c133 0 230 101 230 240z" />
    <glyph glyph-name="ugrave" unicode="&#xf9;" 
d="M278 -20c-127 0 -197 97 -197 230v290h30v-290c0 -116 57 -200 167 -200c107 0 203 80 203 190v300h30v-500h-30v100c-33 -73 -114 -120 -203 -120zM186 720h42l108 -110h-42z" />
    <glyph glyph-name="uacute" unicode="&#xfa;" 
d="M278 -20c-127 0 -197 97 -197 230v290h30v-290c0 -116 57 -200 167 -200c107 0 203 80 203 190v300h30v-500h-30v100c-33 -73 -114 -120 -203 -120zM364 720h42l-108 -110h-42z" />
    <glyph glyph-name="ucircumflex" unicode="&#xfb;" 
d="M278 -20c-127 0 -197 97 -197 230v290h30v-290c0 -116 57 -200 167 -200c107 0 203 80 203 190v300h30v-500h-30v100c-33 -73 -114 -120 -203 -120zM220 610h-39l95 110h40l95 -110h-39l-76 87z" />
    <glyph glyph-name="udieresis" unicode="&#xfc;" 
d="M278 -20c-127 0 -197 97 -197 230v290h30v-290c0 -116 57 -200 167 -200c107 0 203 80 203 190v300h30v-500h-30v100c-33 -73 -114 -120 -203 -120zM196 610c-18 0 -30 12 -30 30s12 30 30 30s30 -12 30 -30s-12 -30 -30 -30zM396 610c-18 0 -30 12 -30 30s12 30 30 30
s30 -12 30 -30s-12 -30 -30 -30z" />
    <glyph glyph-name="yacute" unicode="&#xfd;" horiz-adv-x="560" 
d="M61 -210v30c19 -6 42 -10 59 -10c72 0 108 78 158 195l-237 495h34l219 -459l193 459h32l-210 -500c-55 -132 -100 -220 -191 -220c-19 0 -42 4 -57 10zM349 720h42l-108 -110h-42z" />
    <glyph glyph-name="ydieresis" unicode="&#xff;" horiz-adv-x="560" 
d="M61 -210v30c19 -6 42 -10 59 -10c72 0 108 78 158 195l-237 495h34l219 -459l193 459h32l-210 -500c-55 -132 -100 -220 -191 -220c-19 0 -42 4 -57 10zM181 610c-18 0 -30 12 -30 30s12 30 30 30s30 -12 30 -30s-12 -30 -30 -30zM381 610c-18 0 -30 12 -30 30
s12 30 30 30s30 -12 30 -30s-12 -30 -30 -30z" />
    <glyph glyph-name="Amacron" unicode="&#x100;" horiz-adv-x="638" 
d="M339 700l278 -700h-32l-76 190h-381l-75 -190h-32l278 700h40zM319 670l-179 -450h358zM455 860v-30h-274v30h274z" />
    <glyph glyph-name="amacron" unicode="&#x101;" horiz-adv-x="662" 
d="M541 369v131h30v-500h-30v131c-36 -91 -122 -151 -230 -151c-152 0 -260 113 -260 270s108 270 260 270c108 0 194 -60 230 -151zM311 10c129 0 230 101 230 240c0 138 -101 240 -230 240c-134 0 -230 -101 -230 -240s96 -240 230 -240zM448 650v-30h-274v30h274z" />
    <glyph glyph-name="Abreve" unicode="&#x102;" horiz-adv-x="638" 
d="M339 700l278 -700h-32l-76 190h-381l-75 -190h-32l278 700h40zM319 670l-179 -450h358zM398 900h29c1 -58 -45 -100 -109 -100s-110 42 -110 100h30c0 -41 34 -70 80 -70s80 29 80 70z" />
    <glyph glyph-name="abreve" unicode="&#x103;" horiz-adv-x="662" 
d="M541 369v131h30v-500h-30v131c-36 -91 -122 -151 -230 -151c-152 0 -260 113 -260 270s108 270 260 270c108 0 194 -60 230 -151zM311 10c129 0 230 101 230 240c0 138 -101 240 -230 240c-134 0 -230 -101 -230 -240s96 -240 230 -240zM420 720h30
c1 -70 -50 -120 -120 -120c-69 0 -119 50 -120 120h30c1 -52 38 -90 90 -90c53 0 91 38 90 90z" />
    <glyph glyph-name="Aogonek" unicode="&#x104;" horiz-adv-x="685" 
d="M576 22l-67 168h-381l-75 -190h-32l278 700h40l278 -700h-32c-56 -17 -97 -65 -97 -120c0 -74 74 -129 176 -129v-30c-120 0 -207 67 -206 157c0 68 50 127 118 144zM319 670l-179 -450h358z" />
    <glyph glyph-name="aogonek" unicode="&#x105;" horiz-adv-x="723" 
d="M541 20v111c-36 -91 -122 -151 -230 -151c-152 0 -260 113 -260 270s108 270 260 270c108 0 194 -60 230 -151v131h30v-500h-15c-58 -17 -99 -66 -100 -121c0 -74 74 -129 177 -129v-30c-120 0 -207 67 -207 157c1 67 48 125 115 143zM311 10c129 0 230 101 230 240
c0 138 -101 240 -230 240c-134 0 -230 -101 -230 -240s96 -240 230 -240z" />
    <glyph glyph-name="Cacute" unicode="&#x106;" horiz-adv-x="820" 
d="M730 228l29 -7c-29 -137 -164 -246 -328 -246c-215 0 -370 158 -370 375c0 218 155 375 370 375c163 0 298 -113 327 -255l-29 -5c-29 128 -151 230 -298 230c-197 0 -340 -143 -340 -345c0 -200 143 -345 340 -345c151 0 273 99 299 223zM531 900l-88 -90h-42l88 90h42z
" />
    <glyph glyph-name="cacute" unicode="&#x107;" horiz-adv-x="594" 
d="M543 345l-30 -5c-23 87 -107 150 -202 150c-134 0 -230 -101 -230 -240s96 -240 230 -240c96 0 180 59 202 140l29 -6c-24 -95 -121 -164 -231 -164c-151 0 -260 113 -260 270s109 270 260 270c111 0 209 -73 232 -175zM389 720h42l-108 -110h-42z" />
    <glyph glyph-name="Ccircumflex" unicode="&#x108;" horiz-adv-x="820" 
d="M730 228l29 -7c-29 -137 -164 -246 -328 -246c-215 0 -370 158 -370 375c0 218 155 375 370 375c163 0 298 -113 327 -255l-29 -5c-29 128 -151 230 -298 230c-197 0 -340 -143 -340 -345c0 -200 143 -345 340 -345c151 0 273 99 299 223zM357 810h-45l99 90h40l98 -90
h-45l-73 67z" />
    <glyph glyph-name="ccircumflex" unicode="&#x109;" horiz-adv-x="594" 
d="M543 345l-30 -5c-23 87 -107 150 -202 150c-134 0 -230 -101 -230 -240s96 -240 230 -240c96 0 180 59 202 140l29 -6c-24 -95 -121 -164 -231 -164c-151 0 -260 113 -260 270s109 270 260 270c111 0 209 -73 232 -175zM235 610h-39l95 110h40l95 -110h-39l-76 87z" />
    <glyph glyph-name="Cdotaccent" unicode="&#x10a;" horiz-adv-x="820" 
d="M730 228l29 -7c-29 -137 -164 -246 -328 -246c-215 0 -370 158 -370 375c0 218 155 375 370 375c163 0 298 -113 327 -255l-29 -5c-29 128 -151 230 -298 230c-197 0 -340 -143 -340 -345c0 -200 143 -345 340 -345c151 0 273 99 299 223zM431 817c-18 0 -30 13 -30 30
c0 18 12 30 30 30c17 0 30 -12 30 -30c0 -17 -13 -30 -30 -30z" />
    <glyph glyph-name="cdotaccent" unicode="&#x10b;" horiz-adv-x="594" 
d="M543 345l-30 -5c-23 87 -107 150 -202 150c-134 0 -230 -101 -230 -240s96 -240 230 -240c96 0 180 59 202 140l29 -6c-24 -95 -121 -164 -231 -164c-151 0 -260 113 -260 270s109 270 260 270c111 0 209 -73 232 -175zM312 610c-18 0 -30 13 -30 30c0 18 12 30 30 30
c17 0 30 -12 30 -30c0 -17 -13 -30 -30 -30z" />
    <glyph glyph-name="Ccaron" unicode="&#x10c;" horiz-adv-x="820" 
d="M730 228l29 -7c-29 -137 -164 -246 -328 -246c-215 0 -370 158 -370 375c0 218 155 375 370 375c163 0 298 -113 327 -255l-29 -5c-29 128 -151 230 -298 230c-197 0 -340 -143 -340 -345c0 -200 143 -345 340 -345c151 0 273 99 299 223zM497 880h45l-98 -90h-41l-98 90
h45l73 -67z" />
    <glyph glyph-name="ccaron" unicode="&#x10d;" horiz-adv-x="594" 
d="M543 345l-30 -5c-23 87 -107 150 -202 150c-134 0 -230 -101 -230 -240s96 -240 230 -240c96 0 180 59 202 140l29 -6c-24 -95 -121 -164 -231 -164c-151 0 -260 113 -260 270s109 270 260 270c111 0 209 -73 232 -175zM387 720h39l-95 -110h-40l-95 110h39l76 -87z" />
    <glyph glyph-name="Dcaron" unicode="&#x10e;" horiz-adv-x="732" 
d="M91 0v700h170c246 0 410 -140 410 -350s-164 -350 -410 -350h-170zM641 350c0 192 -152 320 -380 320h-140v-640h140c228 0 380 128 380 320zM417 880h45l-98 -90h-41l-98 90h45l73 -67z" />
    <glyph glyph-name="dcaron" unicode="&#x10f;" horiz-adv-x="752" 
d="M541 369v361h30v-730h-30v131c-36 -91 -122 -151 -230 -151c-151 0 -260 113 -260 270s109 270 260 270c108 0 194 -60 230 -151zM81 250c0 -139 96 -240 230 -240c133 0 230 101 230 240s-97 240 -230 240c-134 0 -230 -101 -230 -240zM686 660h-2c-20 0 -33 13 -33 31
s12 30 28 30c19 0 33 -19 33 -46c0 -37 -16 -66 -38 -94l-16 12c16 21 28 49 28 67z" />
    <glyph glyph-name="Dcroat" unicode="&#x110;" horiz-adv-x="782" 
d="M141 423v277h170c246 0 410 -140 410 -350s-164 -350 -410 -350h-170v393h-120v30h120zM691 350c0 192 -152 320 -380 320h-140v-247h250v-30h-250v-363h140c228 0 380 128 380 320z" />
    <glyph glyph-name="dcroat" unicode="&#x111;" horiz-adv-x="715" 
d="M541 369v259h-249v30h249v72h30v-72h103v-30h-103v-628h-30v131c-36 -91 -122 -151 -230 -151c-151 0 -260 113 -260 270s109 270 260 270c108 0 194 -60 230 -151zM81 250c0 -139 96 -240 230 -240c133 0 230 101 230 240s-97 240 -230 240c-134 0 -230 -101 -230 -240z
" />
    <glyph glyph-name="Emacron" unicode="&#x112;" horiz-adv-x="622" 
d="M121 30h450v-30h-480v700h470v-30h-440v-290h400v-30h-400v-320zM468 860v-30h-274v30h274z" />
    <glyph glyph-name="emacron" unicode="&#x113;" horiz-adv-x="632" 
d="M321 10c96 0 187 60 216 144l30 -5c-32 -98 -136 -169 -246 -169c-157 0 -270 113 -270 270s113 270 270 270c152 0 260 -113 260 -270v-10h-500c4 -134 103 -230 240 -230zM81 270h469c-9 129 -102 220 -229 220c-133 0 -231 -91 -240 -220zM458 650v-30h-274v30h274z
" />
    <glyph glyph-name="Ebreve" unicode="&#x114;" horiz-adv-x="622" 
d="M121 30h450v-30h-480v700h470v-30h-440v-290h400v-30h-400v-320zM411 880h29c1 -58 -45 -100 -109 -100s-110 42 -110 100h30c0 -41 34 -70 80 -70s80 29 80 70z" />
    <glyph glyph-name="ebreve" unicode="&#x115;" horiz-adv-x="632" 
d="M321 10c96 0 187 60 216 144l30 -5c-32 -98 -136 -169 -246 -169c-157 0 -270 113 -270 270s113 270 270 270c152 0 260 -113 260 -270v-10h-500c4 -134 103 -230 240 -230zM81 270h469c-9 129 -102 220 -229 220c-133 0 -231 -91 -240 -220zM410 720h30
c1 -70 -50 -120 -120 -120c-69 0 -119 50 -120 120h30c1 -52 38 -90 90 -90c53 0 91 38 90 90z" />
    <glyph glyph-name="Edotaccent" unicode="&#x116;" horiz-adv-x="622" 
d="M121 30h450v-30h-480v700h470v-30h-440v-290h400v-30h-400v-320zM331 817c-18 0 -30 13 -30 30c0 18 12 30 30 30c17 0 30 -12 30 -30c0 -17 -13 -30 -30 -30z" />
    <glyph glyph-name="edotaccent" unicode="&#x117;" horiz-adv-x="632" 
d="M321 10c96 0 187 60 216 144l30 -5c-32 -98 -136 -169 -246 -169c-157 0 -270 113 -270 270s113 270 270 270c152 0 260 -113 260 -270v-10h-500c4 -134 103 -230 240 -230zM81 270h469c-9 129 -102 220 -229 220c-133 0 -231 -91 -240 -220zM322 610
c-18 0 -30 13 -30 30c0 18 12 30 30 30c17 0 30 -12 30 -30c0 -17 -13 -30 -30 -30z" />
    <glyph glyph-name="Eogonek" unicode="&#x118;" horiz-adv-x="622" 
d="M433 0h-342v700h470v-30h-440v-290h400v-30h-400v-320h450v-30h-80c-56 -17 -96 -66 -96 -120c-1 -74 74 -129 176 -129v-30c-120 0 -207 67 -206 157c0 50 27 95 68 122z" />
    <glyph glyph-name="eogonek" unicode="&#x119;" horiz-adv-x="632" 
d="M330 -20c-161 0 -279 105 -279 270c0 157 113 270 270 270c152 0 260 -113 260 -270v-10h-500c4 -134 103 -230 240 -230c96 0 187 60 216 144l30 -5c-26 -78 -97 -140 -181 -161c-42 -22 -70 -63 -71 -109c0 -74 74 -129 177 -129v-30c-120 0 -207 67 -207 157
c1 40 18 76 45 103zM81 270h469c-9 129 -102 220 -229 220c-133 0 -231 -91 -240 -220z" />
    <glyph glyph-name="Ecaron" unicode="&#x11a;" horiz-adv-x="622" 
d="M121 30h450v-30h-480v700h470v-30h-440v-290h400v-30h-400v-320zM407 880h39l-95 -110h-40l-95 110h39l76 -87z" />
    <glyph glyph-name="ecaron" unicode="&#x11b;" horiz-adv-x="632" 
d="M321 10c96 0 187 60 216 144l30 -5c-32 -98 -136 -169 -246 -169c-157 0 -270 113 -270 270s113 270 270 270c152 0 260 -113 260 -270v-10h-500c4 -134 103 -230 240 -230zM81 270h469c-9 129 -102 220 -229 220c-133 0 -231 -91 -240 -220zM397 720h39l-95 -110h-40
l-95 110h39l76 -87z" />
    <glyph glyph-name="Gcircumflex" unicode="&#x11c;" horiz-adv-x="852" 
d="M761 350h-330v30h359c13 -235 -138 -405 -359 -405c-215 0 -370 158 -370 375c0 218 155 375 370 375c161 0 299 -105 328 -249l-29 -6c-30 130 -156 225 -299 225c-197 1 -340 -144 -340 -345c0 -198 143 -345 340 -345c191 0 330 142 330 345zM357 790h-45l99 90h40
l98 -90h-45l-73 67z" />
    <glyph glyph-name="gcircumflex" unicode="&#x11d;" horiz-adv-x="662" 
d="M62 -55l30 4c12 -98 108 -169 229 -169c127 -1 220 92 220 220v127c-40 -90 -125 -147 -230 -147c-151 0 -260 113 -260 270s109 270 260 270c105 0 190 -58 230 -147v127h30v-500c0 -145 -105 -250 -250 -250c-136 0 -244 82 -259 195zM311 10c134 0 230 101 230 240
s-98 240 -230 240c-136 0 -230 -101 -230 -240s99 -240 230 -240zM235 610h-39l95 110h40l95 -110h-39l-76 87z" />
    <glyph glyph-name="Gbreve" unicode="&#x11e;" horiz-adv-x="852" 
d="M761 350h-330v30h359c13 -235 -138 -405 -359 -405c-215 0 -370 158 -370 375c0 218 155 375 370 375c161 0 299 -105 328 -249l-29 -6c-30 130 -156 225 -299 225c-197 1 -340 -144 -340 -345c0 -198 143 -345 340 -345c191 0 330 142 330 345zM511 880h29
c1 -58 -45 -100 -109 -100s-110 42 -110 100h30c0 -41 34 -70 80 -70s80 29 80 70z" />
    <glyph glyph-name="gbreve" unicode="&#x11f;" horiz-adv-x="662" 
d="M62 -55l30 4c12 -98 108 -169 229 -169c127 -1 220 92 220 220v127c-40 -90 -125 -147 -230 -147c-151 0 -260 113 -260 270s109 270 260 270c105 0 190 -58 230 -147v127h30v-500c0 -145 -105 -250 -250 -250c-136 0 -244 82 -259 195zM311 10c134 0 230 101 230 240
s-98 240 -230 240c-136 0 -230 -101 -230 -240s99 -240 230 -240zM411 720h30c0 -70 -51 -120 -120 -120c-70 0 -120 50 -120 120h30c0 -52 38 -90 90 -90s90 38 90 90z" />
    <glyph glyph-name="Gdotaccent" unicode="&#x120;" horiz-adv-x="852" 
d="M761 350h-330v30h359c13 -235 -138 -405 -359 -405c-215 0 -370 158 -370 375c0 218 155 375 370 375c161 0 299 -105 328 -249l-29 -6c-30 130 -156 225 -299 225c-197 1 -340 -144 -340 -345c0 -198 143 -345 340 -345c191 0 330 142 330 345zM431 817
c-18 0 -30 13 -30 30c0 18 12 30 30 30c17 0 30 -12 30 -30c0 -17 -13 -30 -30 -30z" />
    <glyph glyph-name="gdotaccent" unicode="&#x121;" horiz-adv-x="662" 
d="M62 -55l30 4c12 -98 108 -169 229 -169c127 -1 220 92 220 220v127c-40 -90 -125 -147 -230 -147c-151 0 -260 113 -260 270s109 270 260 270c105 0 190 -58 230 -147v127h30v-500c0 -145 -105 -250 -250 -250c-136 0 -244 82 -259 195zM311 10c134 0 230 101 230 240
s-98 240 -230 240c-136 0 -230 -101 -230 -240s99 -240 230 -240zM312 610c-18 0 -30 13 -30 30c0 18 12 30 30 30c17 0 30 -12 30 -30c0 -17 -13 -30 -30 -30z" />
    <glyph glyph-name="Gcommaaccent" unicode="&#x122;" horiz-adv-x="852" 
d="M761 350h-330v30h359c13 -235 -138 -405 -359 -405c-215 0 -370 158 -370 375c0 218 155 375 370 375c161 0 299 -105 328 -249l-29 -6c-30 130 -156 225 -299 225c-197 1 -340 -144 -340 -345c0 -198 143 -345 340 -345c191 0 330 142 330 345zM436 -180h-2
c-20 0 -33 13 -33 31s12 30 28 30c19 0 33 -19 33 -46c0 -37 -16 -66 -38 -94l-16 12c16 21 28 49 28 67z" />
    <glyph glyph-name="gcommaaccent" unicode="&#x123;" horiz-adv-x="662" 
d="M62 -55l30 4c12 -98 108 -169 229 -169c127 -1 220 92 220 220v127c-40 -90 -125 -147 -230 -147c-151 0 -260 113 -260 270s109 270 260 270c105 0 190 -58 230 -147v127h30v-500c0 -145 -105 -250 -250 -250c-136 0 -244 82 -259 195zM311 10c134 0 230 101 230 240
s-98 240 -230 240c-136 0 -230 -101 -230 -240s99 -240 230 -240zM307 661c19 0 35 -12 35 -32c0 -17 -12 -29 -28 -29c-19 0 -33 19 -33 46c0 37 16 66 38 94l16 -12c-16 -22 -28 -49 -28 -67z" />
    <glyph glyph-name="Itilde" unicode="&#x128;" horiz-adv-x="196" 
d="M111 700v-700h-30v700h30zM-29 805l-25 15c13 29 49 50 88 50c61 0 70 -50 125 -50c30 0 54 16 64 38l27 -13c-14 -32 -51 -55 -93 -55c-62 0 -72 50 -123 50c-28 0 -52 -15 -63 -35z" />
    <glyph glyph-name="itilde" unicode="&#x129;" horiz-adv-x="216" 
d="M121 500v-500h-30v500h30zM-19 628l-25 16c14 29 49 50 81 50c58 0 86 -60 133 -60c27 0 53 16 63 38l27 -13c-14 -32 -51 -55 -88 -55c-61 0 -85 60 -133 60c-25 0 -47 -15 -58 -36z" />
    <glyph glyph-name="Imacron" unicode="&#x12a;" horiz-adv-x="196" 
d="M113 700v-700h-30v700h30zM235 860v-30h-274v30h274z" />
    <glyph glyph-name="imacron" unicode="&#x12b;" horiz-adv-x="176" 
d="M103 500v-500h-30v500h30zM225 650v-30h-274v30h274z" />
    <glyph glyph-name="Iogonek" unicode="&#x12e;" horiz-adv-x="213" 
d="M90 17v683h30v-700h-5c-57 -17 -99 -66 -99 -121c-1 -74 74 -129 176 -129v-30c-120 0 -207 67 -206 157c0 64 43 119 104 140z" />
    <glyph glyph-name="iogonek" unicode="&#x12f;" horiz-adv-x="208" 
d="M90 17v483h30v-500h-5c-57 -17 -99 -66 -99 -121c-1 -74 74 -129 176 -129v-30c-120 0 -207 67 -206 157c0 63 43 119 104 140zM75 640c0 17 12 30 30 30c17 0 30 -13 30 -30s-13 -30 -30 -30c-18 0 -30 13 -30 30z" />
    <glyph glyph-name="Idotaccent" unicode="&#x130;" horiz-adv-x="212" 
d="M121 700v-700h-30v700h30zM106 817c-18 0 -30 13 -30 30c0 18 12 30 30 30c17 0 30 -12 30 -30c0 -17 -13 -30 -30 -30z" />
    <glyph glyph-name="dotlessi" unicode="&#x131;" horiz-adv-x="192" 
d="M111 500v-500h-30v500h30z" />
    <glyph glyph-name="IJ" unicode="&#x132;" horiz-adv-x="633" 
d="M121 700v-700h-30v700h30zM522 210v490h30v-490c0 -153 -82 -230 -194 -230c-30 0 -79 8 -116 20v31c42 -13 92 -21 120 -21c92 0 160 64 160 200z" />
    <glyph glyph-name="ij" unicode="&#x133;" horiz-adv-x="348" 
d="M126 500v-500h-30v500h30zM293 -111v611h30v-610c0 -64 -44 -110 -104 -110c-23 0 -44 5 -67 13v31c20 -7 46 -14 66 -14c44 0 75 33 75 79zM81 640c0 17 12 30 30 30c17 0 30 -13 30 -30s-13 -30 -30 -30c-18 0 -30 13 -30 30zM278 640c0 18 12 30 30 30
c17 0 30 -12 30 -30c0 -17 -13 -30 -30 -30s-30 12 -30 30z" />
    <glyph glyph-name="Kcommaaccent" unicode="&#x136;" horiz-adv-x="541" 
d="M91 700h30v-311l337 311h45l-359 -330l366 -370h-42l-347 350v-350h-30v700zM290 -191c-19 0 -35 12 -35 32c0 17 12 29 28 29c19 0 33 -19 33 -46c0 -37 -16 -66 -38 -94l-16 12c16 22 28 49 28 67z" />
    <glyph glyph-name="kcommaaccent" unicode="&#x137;" horiz-adv-x="494" 
d="M91 730h30v-452l267 222h47l-290 -240l298 -260h-45l-277 241v-241h-30v730zM272 -181c-19 0 -35 11 -35 31c0 18 12 30 28 30c19 0 33 -19 33 -46c0 -37 -16 -66 -38 -94l-16 12c16 21 28 49 28 67z" />
    <glyph glyph-name="Lacute" unicode="&#x139;" horiz-adv-x="552" 
d="M521 0h-430v700h30v-670h400v-30zM221 880l-88 -90h-42l88 90h42z" />
    <glyph glyph-name="lacute" unicode="&#x13a;" horiz-adv-x="296" 
d="M121 730v-730h-30v730h30zM213 877l-88 -90h-42l88 90h42z" />
    <glyph glyph-name="Lcommaaccent" unicode="&#x13b;" horiz-adv-x="552" 
d="M521 0h-430v700h30v-670h400v-30zM317 -191c-20 0 -35 11 -35 32c0 17 12 29 28 29c19 0 33 -19 33 -46c0 -37 -16 -66 -38 -94l-16 12c16 22 28 49 28 67z" />
    <glyph glyph-name="lcommaaccent" unicode="&#x13c;" horiz-adv-x="216" 
d="M121 730v-730h-30v730h30zM112 -181c-19 0 -35 11 -35 31c0 17 12 30 28 30c19 0 33 -20 33 -46c0 -37 -15 -67 -37 -95l-17 13c17 21 28 49 28 67z" />
    <glyph glyph-name="Lcaron" unicode="&#x13d;" horiz-adv-x="552" 
d="M521 0h-430v700h30v-670h400v-30zM288 659h-2c-20 0 -33 13 -33 31s12 30 28 30c19 0 33 -19 33 -46c0 -37 -16 -66 -38 -94l-16 12c16 21 28 49 28 67z" />
    <glyph glyph-name="lcaron" unicode="&#x13e;" horiz-adv-x="303" 
d="M121 730v-730h-30v730h30zM237 659h-2c-20 0 -33 13 -33 31s12 30 28 30c19 0 33 -19 33 -46c0 -37 -16 -66 -38 -94l-16 12c16 21 28 49 28 67z" />
    <glyph glyph-name="Lslash" unicode="&#x141;" horiz-adv-x="482" 
d="M21 250l110 69v381h30v-363l310 194v-35l-310 -194v-272h400v-30h-430v284l-110 -69v35z" />
    <glyph glyph-name="lslash" unicode="&#x142;" horiz-adv-x="370" 
d="M200 392v-392h-30v373l-170 -111v38l170 111v319h30v-300l170 111v-38z" />
    <glyph glyph-name="Nacute" unicode="&#x143;" horiz-adv-x="692" 
d="M131 700l440 -661v661h30v-700h-40l-440 660v-660h-30v700h40zM461 880l-88 -90h-42l88 90h42z" />
    <glyph glyph-name="nacute" unicode="&#x144;" 
d="M324 520c127 0 197 -97 197 -230v-290h-30v290c0 116 -57 200 -167 200c-107 0 -203 -80 -203 -190v-300h-30v500h30v-100c32 73 113 120 203 120zM382 720h42l-108 -110h-42z" />
    <glyph glyph-name="Ncommaaccent" unicode="&#x145;" horiz-adv-x="692" 
d="M131 700l440 -661v661h30v-700h-40l-440 660v-660h-30v700h40zM355 -191c-19 0 -35 12 -35 32c0 17 12 29 28 29c20 0 33 -19 33 -46c0 -37 -15 -66 -37 -94l-17 12c17 22 28 49 28 67z" />
    <glyph glyph-name="ncommaaccent" unicode="&#x146;" 
d="M324 520c127 0 197 -97 197 -230v-290h-30v290c0 116 -57 200 -167 200c-107 0 -203 -80 -203 -190v-300h-30v500h30v-100c32 73 113 120 203 120zM319 -191c-19 0 -35 11 -35 31c0 18 12 30 28 30c19 0 33 -19 33 -46c0 -37 -16 -66 -38 -94l-16 12c16 21 28 49 28 67z
" />
    <glyph glyph-name="Ncaron" unicode="&#x147;" horiz-adv-x="692" 
d="M131 700l440 -661v661h30v-700h-40l-440 660v-660h-30v700h40zM427 880h45l-98 -90h-41l-98 90h45l73 -67z" />
    <glyph glyph-name="ncaron" unicode="&#x148;" 
d="M324 520c127 0 197 -97 197 -230v-290h-30v290c0 116 -57 200 -167 200c-107 0 -203 -80 -203 -190v-300h-30v500h30v-100c32 73 113 120 203 120zM390 720h39l-95 -110h-40l-95 110h39l76 -87z" />
    <glyph glyph-name="Omacron" unicode="&#x14c;" horiz-adv-x="862" 
d="M61 350c0 218 155 375 370 375c214 0 370 -157 370 -375c0 -217 -156 -375 -370 -375c-215 0 -370 158 -370 375zM91 350c0 -199 143 -345 340 -345s340 145 340 345s-143 345 -340 345s-340 -145 -340 -345zM568 860v-30h-274v30h274z" />
    <glyph glyph-name="omacron" unicode="&#x14d;" horiz-adv-x="622" 
d="M571 250c0 -157 -109 -270 -260 -270s-260 113 -260 270s109 270 260 270s260 -113 260 -270zM541 250c0 139 -97 240 -230 240c-134 0 -230 -101 -230 -240s96 -240 230 -240c133 0 230 101 230 240zM448 650v-30h-274v30h274z" />
    <glyph glyph-name="Obreve" unicode="&#x14e;" horiz-adv-x="862" 
d="M61 350c0 218 155 375 370 375c214 0 370 -157 370 -375c0 -217 -156 -375 -370 -375c-215 0 -370 158 -370 375zM91 350c0 -199 143 -345 340 -345s340 145 340 345s-143 345 -340 345s-340 -145 -340 -345zM511 880h29c1 -58 -45 -100 -109 -100s-110 42 -110 100h30
c0 -41 34 -70 80 -70s80 29 80 70z" />
    <glyph glyph-name="obreve" unicode="&#x14f;" horiz-adv-x="622" 
d="M571 250c0 -157 -109 -270 -260 -270s-260 113 -260 270s109 270 260 270s260 -113 260 -270zM541 250c0 139 -97 240 -230 240c-134 0 -230 -101 -230 -240s96 -240 230 -240c133 0 230 101 230 240zM400 720h30c1 -70 -50 -120 -120 -120c-69 0 -119 50 -120 120h30
c1 -52 38 -90 90 -90c53 0 91 38 90 90z" />
    <glyph glyph-name="Ohungarumlaut" unicode="&#x150;" horiz-adv-x="862" 
d="M61 350c0 218 155 375 370 375c214 0 370 -157 370 -375c0 -217 -156 -375 -370 -375c-215 0 -370 158 -370 375zM91 350c0 -199 143 -345 340 -345s340 145 340 345s-143 345 -340 345s-340 -145 -340 -345zM414 880h41l-82 -90h-42zM573 880h42l-83 -90h-41z" />
    <glyph glyph-name="ohungarumlaut" unicode="&#x151;" horiz-adv-x="620" 
d="M570 250c0 -157 -109 -270 -260 -270s-260 113 -260 270s109 270 260 270s260 -113 260 -270zM540 250c0 139 -97 240 -230 240s-230 -101 -230 -240s97 -240 230 -240s230 101 230 240zM314 720h45l-103 -110h-46zM474 720h45l-103 -110h-46z" />
    <glyph glyph-name="OE" unicode="&#x152;" horiz-adv-x="1052" 
d="M61 350c0 218 155 375 370 375c41 0 85 -9 125 -25h435v-30h-410v-300h370v-30h-370v-310h420v-30h-446c-40 -16 -83 -25 -124 -25c-215 0 -370 158 -370 375zM551 29v642c-37 16 -77 24 -120 24c-197 0 -340 -145 -340 -345s143 -345 340 -345c43 0 83 8 120 24z" />
    <glyph glyph-name="oe" unicode="&#x153;" horiz-adv-x="1122" 
d="M811 10c96 0 187 60 216 144l30 -5c-32 -98 -136 -169 -246 -169c-123 0 -219 70 -255 175c-35 -105 -127 -175 -245 -175c-151 0 -260 113 -260 270s109 270 260 270c118 0 210 -70 245 -175c36 105 132 175 255 175c152 0 260 -113 260 -270v-10h-500
c4 -134 103 -230 240 -230zM541 250c0 139 -97 240 -230 240c-134 0 -230 -101 -230 -240s96 -240 230 -240c133 0 230 101 230 240zM571 270h469c-9 129 -102 220 -229 220c-133 0 -231 -91 -240 -220z" />
    <glyph glyph-name="Racute" unicode="&#x154;" horiz-adv-x="682" 
d="M91 0v700h290c144 0 240 -82 240 -205c0 -108 -74 -184 -190 -201l183 -294h-36l-180 290h-277v-290h-30zM381 670h-260v-350h260c126 0 210 70 210 175s-84 175 -210 175zM421 880l-88 -90h-42l88 90h42z" />
    <glyph glyph-name="racute" unicode="&#x155;" horiz-adv-x="381" 
d="M263 520c27 0 54 -6 78 -17v-34c-25 14 -50 21 -77 21c-87 0 -143 -80 -143 -200v-290h-30v500h30v-89c23 68 72 109 142 109zM294 720h42l-108 -110h-42z" />
    <glyph glyph-name="Rcommaaccent" unicode="&#x156;" horiz-adv-x="682" 
d="M91 0v700h290c144 0 240 -82 240 -205c0 -108 -74 -184 -190 -201l183 -294h-36l-180 290h-277v-290h-30zM381 670h-260v-350h260c126 0 210 70 210 175s-84 175 -210 175zM350 -191c-19 0 -35 12 -35 32c0 17 12 29 28 29c19 0 33 -19 33 -46c0 -37 -15 -66 -37 -94
l-17 12c17 22 28 49 28 67z" />
    <glyph glyph-name="rcommaaccent" unicode="&#x157;" horiz-adv-x="368" 
d="M263 520c27 0 54 -6 78 -17v-34c-25 14 -50 21 -77 21c-87 0 -143 -80 -143 -200v-290h-30v500h30v-89c23 68 72 109 142 109zM112 -180c-19 0 -35 11 -35 31c0 18 12 30 28 30c19 0 33 -19 33 -46c0 -37 -16 -66 -38 -94l-16 12c16 21 28 49 28 67z" />
    <glyph glyph-name="Rcaron" unicode="&#x158;" horiz-adv-x="682" 
d="M91 0v700h290c144 0 240 -82 240 -205c0 -108 -74 -184 -190 -201l183 -294h-36l-180 290h-277v-290h-30zM381 670h-260v-350h260c126 0 210 70 210 175s-84 175 -210 175zM397 880h45l-98 -90h-41l-98 90h45l73 -67z" />
    <glyph glyph-name="rcaron" unicode="&#x159;" horiz-adv-x="381" 
d="M263 520c27 0 54 -6 78 -17v-34c-25 14 -50 21 -77 21c-87 0 -143 -80 -143 -200v-290h-30v500h30v-89c23 68 72 109 142 109zM292 720h39l-95 -110h-40l-95 110h39l76 -87z" />
    <glyph glyph-name="Sacute" unicode="&#x15a;" horiz-adv-x="689" 
d="M347 -25c-160 0 -276 104 -276 247h30c0 -128 104 -217 247 -217c139 0 240 76 240 173c-1 219 -504 103 -504 347c0 111 104 200 254 200c156 0 273 -96 273 -229h-30c0 115 -102 199 -243 199c-132 0 -224 -74 -224 -167c0 -216 502 -100 504 -350
c0 -119 -114 -203 -271 -203zM449 880l-88 -90h-42l88 90h42z" />
    <glyph glyph-name="sacute" unicode="&#x15b;" horiz-adv-x="505" 
d="M259 -20c-121 0 -208 74 -208 176h30c0 -86 74 -146 177 -146c96 0 166 52 166 120c0 154 -357 67 -357 245c0 83 78 145 182 145c111 0 193 -69 193 -165h-30c0 80 -70 135 -162 135c-87 0 -153 -49 -153 -113c0 -148 357 -62 357 -245c0 -88 -83 -152 -195 -152z
M325 720h42l-108 -110h-42z" />
    <glyph glyph-name="Scircumflex" unicode="&#x15c;" horiz-adv-x="689" 
d="M347 -25c-160 0 -276 104 -276 247h30c0 -128 104 -217 247 -217c139 0 240 76 240 173c-1 219 -504 103 -504 347c0 111 104 200 254 200c156 0 273 -96 273 -229h-30c0 115 -102 199 -243 199c-132 0 -224 -74 -224 -167c0 -216 502 -100 504 -350
c0 -119 -114 -203 -271 -203zM265 790h-45l98 90h41l98 -90h-45l-74 67z" />
    <glyph glyph-name="scircumflex" unicode="&#x15d;" horiz-adv-x="505" 
d="M259 -20c-121 0 -208 74 -208 176h30c0 -86 74 -146 177 -146c96 0 166 52 166 120c0 154 -357 67 -357 245c0 83 78 145 182 145c111 0 193 -69 193 -165h-30c0 80 -70 135 -162 135c-87 0 -153 -49 -153 -113c0 -148 357 -62 357 -245c0 -88 -83 -152 -195 -152z
M171 610h-39l95 110h40l95 -110h-39l-76 87z" />
    <glyph glyph-name="Scedilla" unicode="&#x15e;" horiz-adv-x="689" 
d="M351 -90h-35l7 66c-148 10 -252 110 -252 246h30c0 -128 104 -217 247 -217c139 0 240 76 240 173c-1 219 -504 103 -504 347c0 111 104 200 254 200c156 0 273 -96 273 -229h-30c0 115 -102 199 -243 199c-132 0 -224 -74 -224 -167c0 -216 502 -100 504 -350
c0 -118 -111 -201 -265 -203l-4 -35c73 0 117 -46 117 -110c0 -58 -43 -100 -103 -100c-54 0 -94 34 -104 84l29 6c8 -36 37 -60 75 -60c44 0 73 29 73 70c0 49 -33 80 -85 80z" />
    <glyph glyph-name="scedilla" unicode="&#x15f;" horiz-adv-x="505" 
d="M259 -90h-35l8 71c-107 10 -181 81 -181 175h30c0 -86 74 -146 177 -146c96 0 166 52 166 120c0 154 -357 67 -357 245c0 83 78 145 182 145c111 0 193 -69 193 -165h-30c0 80 -70 135 -162 135c-87 0 -153 -49 -153 -113c0 -148 357 -62 357 -245
c0 -87 -81 -151 -193 -152l-4 -40c73 0 117 -46 117 -110c0 -58 -42 -100 -103 -100c-54 0 -94 34 -104 84l29 6c8 -36 37 -60 76 -60c43 0 72 29 72 70c0 49 -33 80 -85 80z" />
    <glyph glyph-name="Scaron" unicode="&#x160;" horiz-adv-x="689" 
d="M347 -25c-160 0 -276 104 -276 247h30c0 -128 104 -217 247 -217c139 0 240 76 240 173c-1 219 -504 103 -504 347c0 111 104 200 254 200c156 0 273 -96 273 -229h-30c0 115 -102 199 -243 199c-132 0 -224 -74 -224 -167c0 -216 502 -100 504 -350
c0 -119 -114 -203 -271 -203zM415 880h44l-97 -90h-41l-99 90h46l73 -67z" />
    <glyph glyph-name="scaron" unicode="&#x161;" horiz-adv-x="505" 
d="M259 -20c-121 0 -208 74 -208 176h30c0 -86 74 -146 177 -146c96 0 166 52 166 120c0 154 -357 67 -357 245c0 83 78 145 182 145c111 0 193 -69 193 -165h-30c0 80 -70 135 -162 135c-87 0 -153 -49 -153 -113c0 -148 357 -62 357 -245c0 -88 -83 -152 -195 -152z
M323 720h39l-95 -110h-40l-95 110h39l76 -87z" />
    <glyph glyph-name="Tcommaaccent" unicode="&#x162;" horiz-adv-x="572" 
d="M271 670h-250v30h530v-30h-250v-670h-30v670zM293 -191c-19 0 -35 11 -35 31c0 17 12 30 28 30c19 0 33 -20 33 -46c0 -37 -16 -67 -37 -95l-17 13c16 21 28 49 28 67z" />
    <glyph glyph-name="tcommaaccent" unicode="&#x163;" horiz-adv-x="352" 
d="M121 100v370h-90v30h90v112h30v-112h140v-30h-140v-370c0 -52 30 -90 84 -90c20 0 46 4 66 10v-30c-17 -6 -45 -10 -70 -10c-66 0 -110 48 -110 120zM228 -191h-2c-20 0 -33 13 -33 31s12 30 28 30c19 0 33 -19 33 -46c0 -37 -16 -66 -38 -94l-16 12c16 21 28 49 28 67z
" />
    <glyph glyph-name="Tcaron" unicode="&#x164;" horiz-adv-x="572" 
d="M271 670h-250v30h530v-30h-250v-670h-30v670zM359 880h45l-98 -90h-41l-98 90h45l73 -67z" />
    <glyph glyph-name="tcaron" unicode="&#x165;" horiz-adv-x="352" 
d="M121 100v370h-90v30h90v112h30v-112h140v-30h-140v-370c0 -52 30 -90 84 -90c20 0 46 4 66 10v-30c-17 -6 -45 -10 -70 -10c-66 0 -110 48 -110 120zM266 660h-2c-20 0 -33 13 -33 31s12 30 28 30c19 0 33 -19 33 -46c0 -37 -16 -66 -38 -94l-16 12c16 21 28 49 28 67z
" />
    <glyph glyph-name="Utilde" unicode="&#x168;" horiz-adv-x="692" 
d="M581 280v420h30v-420c0 -183 -106 -305 -265 -305s-265 122 -265 305v420h30v-420c0 -167 92 -275 235 -275s235 108 235 275zM221 805l-25 15c13 29 49 50 88 50c61 0 70 -50 125 -50c30 0 54 16 64 38l27 -13c-14 -32 -51 -55 -93 -55c-62 0 -72 50 -123 50
c-28 0 -52 -15 -63 -35z" />
    <glyph glyph-name="utilde" unicode="&#x169;" 
d="M278 -20c-127 0 -197 97 -197 230v290h30v-290c0 -116 57 -200 167 -200c107 0 203 80 203 190v300h30v-500h-30v100c-33 -73 -114 -120 -203 -120zM181 628l-25 16c14 29 49 50 81 50c58 0 86 -60 133 -60c27 0 53 16 63 38l27 -13c-14 -32 -51 -55 -88 -55
c-61 0 -85 60 -133 60c-25 0 -47 -15 -58 -36z" />
    <glyph glyph-name="Umacron" unicode="&#x16a;" horiz-adv-x="692" 
d="M581 280v420h30v-420c0 -183 -106 -305 -265 -305s-265 122 -265 305v420h30v-420c0 -167 92 -275 235 -275s235 108 235 275zM483 860v-30h-274v30h274z" />
    <glyph glyph-name="umacron" unicode="&#x16b;" 
d="M278 -20c-127 0 -197 97 -197 230v290h30v-290c0 -116 57 -200 167 -200c107 0 203 80 203 190v300h30v-500h-30v100c-33 -73 -114 -120 -203 -120zM433 650v-30h-274v30h274z" />
    <glyph glyph-name="Ubreve" unicode="&#x16c;" horiz-adv-x="692" 
d="M581 280v420h30v-420c0 -183 -106 -305 -265 -305s-265 122 -265 305v420h30v-420c0 -167 92 -275 235 -275s235 108 235 275zM426 880h29c1 -58 -45 -100 -109 -100s-110 42 -110 100h30c0 -41 34 -70 80 -70s80 29 80 70z" />
    <glyph glyph-name="ubreve" unicode="&#x16d;" 
d="M278 -20c-127 0 -197 97 -197 230v290h30v-290c0 -116 57 -200 167 -200c107 0 203 80 203 190v300h30v-500h-30v100c-33 -73 -114 -120 -203 -120zM385 700h30c1 -70 -50 -120 -120 -120c-69 0 -119 50 -120 120h30c1 -52 38 -90 90 -90c53 0 91 38 90 90z" />
    <glyph glyph-name="Uring" unicode="&#x16e;" horiz-adv-x="692" 
d="M581 280v420h30v-420c0 -183 -106 -305 -265 -305s-265 122 -265 305v420h30v-420c0 -167 92 -275 235 -275s235 108 235 275zM346 751c-49 0 -85 36 -85 85s36 84 85 84s85 -35 85 -84s-37 -85 -85 -85zM346 890c-32 0 -55 -22 -55 -53c0 -33 22 -56 55 -56
c32 0 56 23 56 56c0 31 -23 53 -56 53z" />
    <glyph glyph-name="uring" unicode="&#x16f;" 
d="M278 -20c-127 0 -197 97 -197 230v290h30v-290c0 -116 57 -200 167 -200c107 0 203 80 203 190v300h30v-500h-30v100c-33 -73 -114 -120 -203 -120zM296 550c-67 0 -116 48 -116 115s49 115 116 115c66 0 114 -48 114 -115s-48 -115 -114 -115zM295 750
c-49 0 -85 -36 -85 -85s36 -85 85 -85s85 36 85 85s-36 85 -85 85z" />
    <glyph glyph-name="Uhungarumlaut" unicode="&#x170;" horiz-adv-x="692" 
d="M581 280v420h30v-420c0 -183 -106 -305 -265 -305s-265 122 -265 305v420h30v-420c0 -167 92 -275 235 -275s235 108 235 275zM329 910h41l-82 -90h-42zM488 910h42l-83 -90h-41z" />
    <glyph glyph-name="uhungarumlaut" unicode="&#x171;" 
d="M278 -20c-127 0 -197 97 -197 230v290h30v-290c0 -116 57 -200 167 -200c107 0 203 80 203 190v300h30v-500h-30v100c-33 -73 -114 -120 -203 -120zM300 720h45l-103 -110h-46zM460 720h45l-103 -110h-46z" />
    <glyph glyph-name="Uogonek" unicode="&#x172;" horiz-adv-x="692" 
d="M367 -24c-7 -1 -14 -1 -21 -1c-159 0 -265 122 -265 305v420h30v-420c0 -167 92 -275 235 -275s235 108 235 275v420h30v-420c0 -152 -74 -262 -190 -295c-39 -23 -64 -62 -65 -106c0 -74 74 -129 177 -129v-30c-120 0 -207 67 -207 157c1 38 16 72 41 99z" />
    <glyph glyph-name="uogonek" unicode="&#x173;" horiz-adv-x="673" 
d="M481 18v82c-33 -73 -114 -120 -203 -120c-127 0 -197 97 -197 230v290h30v-290c0 -116 57 -200 167 -200c107 0 203 80 203 190v300h30v-500h-9c-55 -17 -95 -66 -96 -120c0 -74 74 -129 177 -129v-30c-120 0 -207 67 -207 157c1 64 44 119 105 140z" />
    <glyph glyph-name="Wcircumflex" unicode="&#x174;" horiz-adv-x="976" 
d="M708 36l206 664h31l-217 -700h-40l-200 661l-200 -661h-40l-217 700h31l206 -664l200 664h40zM412 790h-45l99 90h40l98 -90h-45l-73 67z" />
    <glyph glyph-name="wcircumflex" unicode="&#x175;" horiz-adv-x="868" 
d="M229 0l-178 500h32l166 -467l164 467h40l166 -467l166 467h32l-178 -500h-40l-166 466l-164 -466h-40zM358 610h-39l95 110h40l95 -110h-39l-76 87z" />
    <glyph glyph-name="Ycircumflex" unicode="&#x176;" horiz-adv-x="556" 
d="M263 290l-242 410h35l222 -377l222 377h35l-242 -410v-290h-30v290zM204 790h-45l99 90h40l98 -90h-45l-73 67z" />
    <glyph glyph-name="ycircumflex" unicode="&#x177;" horiz-adv-x="560" 
d="M61 -210v30c19 -6 42 -10 59 -10c72 0 108 78 158 195l-237 495h34l219 -459l193 459h32l-210 -500c-55 -132 -100 -220 -191 -220c-19 0 -42 4 -57 10zM205 610h-39l95 110h40l95 -110h-39l-76 87z" />
    <glyph glyph-name="Ydieresis" unicode="&#x178;" horiz-adv-x="556" 
d="M263 290l-242 410h35l222 -377l222 377h35l-242 -410v-290h-30v290zM178 815c-17 0 -30 13 -30 30s13 30 30 30s30 -13 30 -30s-13 -30 -30 -30zM378 815c-17 0 -30 13 -30 30s13 30 30 30s30 -13 30 -30s-13 -30 -30 -30z" />
    <glyph glyph-name="Zacute" unicode="&#x179;" 
d="M31 20l485 650h-475v30h520v-20l-485 -650h495v-30h-540v20zM411 880l-88 -90h-42l88 90h42z" />
    <glyph glyph-name="zacute" unicode="&#x17a;" horiz-adv-x="542" 
d="M433 470h-372v30h420v-20l-382 -450h392v-30h-440v20zM349 720h42l-108 -110h-42z" />
    <glyph glyph-name="Zdotaccent" unicode="&#x17b;" 
d="M31 20l485 650h-475v30h520v-20l-485 -650h495v-30h-540v20zM301 817c-18 0 -30 13 -30 30c0 18 12 30 30 30c17 0 30 -12 30 -30c0 -17 -13 -30 -30 -30z" />
    <glyph glyph-name="zdotaccent" unicode="&#x17c;" horiz-adv-x="542" 
d="M433 470h-372v30h420v-20l-382 -450h392v-30h-440v20zM272 610c-18 0 -30 13 -30 30c0 18 12 30 30 30c17 0 30 -12 30 -30c0 -17 -13 -30 -30 -30z" />
    <glyph glyph-name="Zcaron" unicode="&#x17d;" 
d="M31 20l485 650h-475v30h520v-20l-485 -650h495v-30h-540v20zM377 880h45l-98 -90h-41l-98 90h45l73 -67z" />
    <glyph glyph-name="zcaron" unicode="&#x17e;" horiz-adv-x="542" 
d="M433 470h-372v30h420v-20l-382 -450h392v-30h-440v20zM347 720h39l-95 -110h-40l-95 110h39l76 -87z" />
    <glyph glyph-name="Aacutering" unicode="&#x1fa;" horiz-adv-x="638" 
d="M339 700l278 -700h-32l-76 190h-381l-75 -190h-32l278 700h40zM319 670l-179 -450h358zM317 711c-49 0 -85 36 -85 85s36 84 85 84s85 -35 85 -84s-37 -85 -85 -85zM317 850c-32 0 -55 -22 -55 -53c0 -33 22 -56 55 -56c32 0 56 23 56 56c0 31 -23 53 -56 53zM411 980
l-73 -90h-37l73 90h37z" />
    <glyph glyph-name="aacutering" unicode="&#x1fb;" horiz-adv-x="662" 
d="M541 369v131h30v-500h-30v131c-36 -91 -122 -151 -230 -151c-152 0 -260 113 -260 270s108 270 260 270c108 0 194 -60 230 -151zM311 10c129 0 230 101 230 240c0 138 -101 240 -230 240c-134 0 -230 -101 -230 -240s96 -240 230 -240zM327 561c-49 0 -85 36 -85 85
s36 84 85 84s85 -35 85 -84s-37 -85 -85 -85zM327 700c-32 0 -55 -22 -55 -53c0 -33 22 -56 55 -56c32 0 56 23 56 56c0 31 -23 53 -56 53zM461 880l-88 -90h-42l88 90h42z" />
    <glyph glyph-name="AEacute" unicode="&#x1fc;" horiz-adv-x="873" 
d="M821 30v-30h-410v160h-272l-85 -160h-33l370 700h420v-29h-370v-301h330v-30h-330v-310h380zM411 190v483l-256 -483h256zM641 870l-88 -90h-42l88 90h42z" />
    <glyph glyph-name="aeacute" unicode="&#x1fd;" horiz-adv-x="1102" 
d="M1051 260c0 -9 -1 -19 -1 -30h-478c12 -131 98 -220 220 -220c99 0 187 58 216 143l27 -9c-27 -95 -130 -164 -243 -164c-101 0 -184 54 -221 146v-126h-30v127c-40 -89 -125 -147 -230 -147c-151 0 -260 113 -260 270s109 270 260 270c105 0 190 -58 230 -147v127h30
v-120c40 85 125 140 220 140c151 0 260 -109 260 -260zM81 250c0 -138 97 -239 230 -240c133 0 230 101 230 240s-97 240 -230 240c-134 0 -230 -101 -230 -240zM571 260h450c0 133 -100 230 -230 230c-128 0 -220 -102 -220 -230zM628 730h42l-108 -110h-42z" />
    <glyph glyph-name="Oslashacute" unicode="&#x1fe;" horiz-adv-x="842" 
d="M589 686l88 174h34l-96 -189c102 -64 166 -180 166 -321c0 -217 -151 -375 -360 -375c-52 0 -101 10 -144 28l-72 -143h-35l79 156c-115 60 -188 182 -188 334c0 218 151 375 360 375c62 0 118 -14 168 -39zM91 350c0 -139 67 -251 172 -307l312 616
c-45 23 -97 36 -154 36c-192 0 -330 -145 -330 -345zM751 350c0 129 -58 235 -150 294l-310 -614c39 -16 83 -25 130 -25c191 0 330 144 330 345zM551 880l-88 -90h-42l88 90h42z" />
    <glyph glyph-name="oslashacute" unicode="&#x1ff;" horiz-adv-x="622" 
d="M432 492l55 108h34l-63 -123c70 -47 113 -129 113 -227c0 -157 -109 -270 -260 -270c-35 0 -67 6 -97 17l-39 -77h-34l45 90c-83 43 -135 131 -135 240c0 157 109 270 260 270c44 0 85 -10 121 -28zM200 37l218 428c-31 16 -68 25 -107 25c-134 0 -230 -101 -230 -240
c0 -96 46 -174 119 -213zM541 250c0 86 -37 157 -97 199l-216 -425c25 -9 53 -14 83 -14c133 0 230 101 230 240zM441 720l-91 -110h-39l91 110h39z" />
    <glyph glyph-name="Scommaaccent" unicode="&#x218;" horiz-adv-x="689" 
d="M347 -25c-160 0 -276 104 -276 247h30c0 -128 104 -217 247 -217c139 0 240 76 240 173c-1 219 -504 103 -504 347c0 111 104 200 254 200c156 0 273 -96 273 -229h-30c0 115 -102 199 -243 199c-132 0 -224 -74 -224 -167c0 -216 502 -100 504 -350
c0 -119 -114 -203 -271 -203zM345 -191h-2c-20 0 -33 13 -33 32c0 17 11 29 28 29c19 0 33 -19 33 -46c0 -37 -16 -66 -38 -94l-16 12c16 22 28 49 28 67z" />
    <glyph glyph-name="scommaaccent" unicode="&#x219;" horiz-adv-x="505" 
d="M259 -20c-121 0 -208 74 -208 176h30c0 -86 74 -146 177 -146c96 0 166 52 166 120c0 154 -357 67 -357 245c0 83 78 145 182 145c111 0 193 -69 193 -165h-30c0 80 -70 135 -162 135c-87 0 -153 -49 -153 -113c0 -148 357 -62 357 -245c0 -88 -83 -152 -195 -152z
M253 -191h-2c-20 0 -33 13 -33 31s12 30 28 30c19 0 33 -19 33 -46c0 -37 -16 -66 -38 -94l-16 12c16 21 28 49 28 67z" />
    <glyph glyph-name="circumflex" unicode="&#x2c6;" horiz-adv-x="332" 
d="M51 620l95 110h40l95 -110h-39l-76 87l-76 -87h-39z" />
    <glyph glyph-name="caron" unicode="&#x2c7;" horiz-adv-x="332" 
d="M242 730h39l-95 -110h-40l-95 110h39l76 -87z" />
    <glyph glyph-name="breve" unicode="&#x2d8;" horiz-adv-x="342" 
d="M261 730h30c0 -70 -50 -120 -120 -120s-120 50 -120 120h30c0 -52 38 -90 90 -90s90 38 90 90z" />
    <glyph glyph-name="dotaccent" unicode="&#x2d9;" horiz-adv-x="162" 
d="M81 560c-18 0 -30 13 -30 30c0 18 12 30 30 30c17 0 30 -12 30 -30c0 -17 -13 -30 -30 -30z" />
    <glyph glyph-name="ring" unicode="&#x2da;" horiz-adv-x="332" 
d="M167 540c-68 0 -116 48 -116 115s48 115 116 115c66 0 114 -48 114 -115s-48 -115 -114 -115zM166 740c-49 0 -85 -36 -85 -85s36 -85 85 -85s85 36 85 85s-36 85 -85 85z" />
    <glyph glyph-name="ogonek" unicode="&#x2db;" horiz-adv-x="308" 
d="M170 21l10 -21c-57 -17 -99 -66 -99 -121c-1 -74 74 -129 176 -129v-30c-120 0 -207 67 -206 157c0 69 50 128 119 144z" />
    <glyph glyph-name="tilde" unicode="&#x2dc;" horiz-adv-x="406" 
d="M76 628l-25 16c14 29 49 50 81 50c58 0 86 -60 133 -60c27 0 53 16 63 38l27 -13c-14 -32 -51 -55 -88 -55c-61 0 -85 60 -133 60c-25 0 -47 -15 -58 -36z" />
    <glyph glyph-name="hungarumlaut" unicode="&#x2dd;" horiz-adv-x="410" 
d="M155 730h45l-103 -110h-46zM315 730h45l-103 -110h-46z" />
    <glyph glyph-name="Wgrave" unicode="&#x1e80;" horiz-adv-x="976" 
d="M708 36l206 664h31l-217 -700h-40l-200 661l-200 -661h-40l-217 700h31l206 -664l200 664h40zM464 790l-88 90h42l88 -90h-42z" />
    <glyph glyph-name="wgrave" unicode="&#x1e81;" horiz-adv-x="868" 
d="M229 0l-178 500h32l166 -467l164 467h40l166 -467l166 467h32l-178 -500h-40l-166 466l-164 -466h-40zM314 720h42l108 -110h-42z" />
    <glyph glyph-name="Wacute" unicode="&#x1e82;" horiz-adv-x="976" 
d="M708 36l206 664h31l-217 -700h-40l-200 661l-200 -661h-40l-217 700h31l206 -664l200 664h40zM596 880l-88 -90h-42l88 90h42z" />
    <glyph glyph-name="wacute" unicode="&#x1e83;" horiz-adv-x="868" 
d="M229 0l-178 500h32l166 -467l164 467h40l166 -467l166 467h32l-178 -500h-40l-166 466l-164 -466h-40zM512 720h42l-108 -110h-42z" />
    <glyph glyph-name="Wdieresis" unicode="&#x1e84;" horiz-adv-x="976" 
d="M708 36l206 664h31l-217 -700h-40l-200 661l-200 -661h-40l-217 700h31l206 -664l200 664h40zM376 815c-17 0 -30 13 -30 30s13 30 30 30s30 -13 30 -30s-13 -30 -30 -30zM596 815c-17 0 -30 13 -30 30s13 30 30 30s30 -13 30 -30s-13 -30 -30 -30z" />
    <glyph glyph-name="wdieresis" unicode="&#x1e85;" horiz-adv-x="868" 
d="M229 0l-178 500h32l166 -467l164 467h40l166 -467l166 467h32l-178 -500h-40l-166 466l-164 -466h-40zM334 610c-18 0 -30 12 -30 30s12 30 30 30s30 -12 30 -30s-12 -30 -30 -30zM534 610c-18 0 -30 12 -30 30s12 30 30 30s30 -12 30 -30s-12 -30 -30 -30z" />
    <glyph glyph-name="Germandbls" unicode="&#x1e9e;" horiz-adv-x="632" 
d="M111 480v-480h-30v480c0 136 94 235 223 235c113 0 197 -82 197 -181c0 -90 -63 -142 -159 -158c130 -17 219 -86 219 -205c0 -114 -83 -196 -197 -196c-61 0 -117 22 -151 49l17 24c33 -25 81 -43 133 -43c99 0 168 68 168 167c-1 117 -110 188 -259 188h-31v30h34
c114 0 196 55 196 143c0 83 -70 152 -167 152c-112 0 -193 -86 -193 -205z" />
    <glyph glyph-name="Ygrave" unicode="&#x1ef2;" horiz-adv-x="556" 
d="M263 290l-242 410h35l222 -377l222 377h35l-242 -410v-290h-30v290zM266 790l-88 90h42l88 -90h-42z" />
    <glyph glyph-name="ygrave" unicode="&#x1ef3;" horiz-adv-x="518" 
d="M40 -210v30c19 -6 43 -10 59 -10c72 0 108 78 159 195l-238 495h34l219 -459l193 459h32l-210 -500c-55 -132 -100 -220 -190 -220c-19 0 -43 4 -58 10zM150 720h42l108 -110h-42z" />
    <glyph glyph-name="endash" unicode="&#x2013;" horiz-adv-x="652" 
d="M611 331v-30h-570v30h570z" />
    <glyph glyph-name="emdash" unicode="&#x2014;" horiz-adv-x="812" 
d="M21 331h770v-30h-770v30z" />
    <glyph glyph-name="quoteleft" unicode="&#x2018;" horiz-adv-x="170" 
d="M116 600c0 -17 -13 -30 -30 -30c-21 0 -35 17 -35 41c0 48 23 98 55 119l13 -15c-22 -15 -37 -50 -37 -85c19 0 34 -13 34 -30z" />
    <glyph glyph-name="quoteright" unicode="&#x2019;" horiz-adv-x="170" 
d="M54 690c0 17 12 30 30 30c20 0 35 -17 35 -41c0 -48 -23 -98 -55 -119l-13 15c21 15 37 50 37 85c-20 0 -34 13 -34 30z" />
    <glyph glyph-name="quotesinglbase" unicode="&#x201a;" horiz-adv-x="170" 
d="M54 20c0 17 12 30 30 30c20 0 35 -17 35 -41c0 -48 -23 -98 -55 -119l-13 15c21 15 37 50 37 85c-20 0 -34 13 -34 30z" />
    <glyph glyph-name="quotedblleft" unicode="&#x201c;" horiz-adv-x="289" 
d="M118 600c0 -17 -13 -30 -30 -30c-20 0 -35 17 -35 41c0 48 23 98 55 119l13 -15c-21 -15 -37 -50 -37 -85c20 0 34 -13 34 -30zM233 600c0 -17 -12 -30 -30 -30c-20 0 -35 17 -35 41c0 48 23 98 55 119l13 -15c-21 -15 -37 -50 -37 -85c20 0 34 -13 34 -30z" />
    <glyph glyph-name="quotedblright" unicode="&#x201d;" horiz-adv-x="285" 
d="M56 690c0 17 13 30 30 30c20 0 35 -17 35 -41c0 -48 -23 -98 -55 -119l-13 15c21 15 37 50 37 85c-20 0 -34 13 -34 30zM170 690c0 17 13 30 30 30c21 0 35 -17 35 -41c0 -48 -23 -98 -55 -119l-13 15c22 15 37 50 37 85c-19 0 -34 13 -34 30z" />
    <glyph glyph-name="quotedblbase" unicode="&#x201e;" horiz-adv-x="286" 
d="M53 20c0 17 13 30 30 30c20 0 35 -17 35 -41c0 -48 -23 -98 -55 -119l-13 15c21 15 37 50 37 85c-20 0 -34 13 -34 30zM168 20c0 17 12 30 30 30c20 0 35 -17 35 -41c0 -48 -23 -98 -55 -119l-13 15c21 15 37 50 37 85c-20 0 -34 13 -34 30z" />
    <glyph glyph-name="bullet" unicode="&#x2022;" horiz-adv-x="162" 
d="M81 280c-18 0 -30 13 -30 30s12 30 30 30c17 0 30 -13 30 -30s-13 -30 -30 -30z" />
    <glyph glyph-name="ellipsis" unicode="&#x2026;" horiz-adv-x="422" 
d="M51 20c0 17 12 30 30 30c17 0 30 -13 30 -30s-13 -30 -30 -30c-18 0 -30 12 -30 30zM181 20c0 17 12 30 30 30c17 0 30 -13 30 -30s-13 -30 -30 -30c-18 0 -30 12 -30 30zM311 20c0 17 12 30 30 30c17 0 30 -13 30 -30s-13 -30 -30 -30c-18 0 -30 12 -30 30z" />
    <glyph glyph-name="perthousand" unicode="&#x2030;" horiz-adv-x="1497" 
d="M563 190c0 116 85 200 202 200s202 -84 202 -200s-85 -200 -202 -200s-202 84 -202 200zM937 191c0 98 -72 169 -171 169c-101 0 -174 -71 -174 -169c0 -99 73 -171 174 -171c99 0 171 72 171 171zM1042 189c0 116 86 200 203 200c116 0 201 -84 201 -200
s-84 -200 -202 -200c-117 0 -202 84 -202 200zM1417 190c0 98 -72 169 -172 169s-173 -71 -173 -169c0 -99 73 -171 173 -171s172 72 172 171zM51 540c0 116 85 200 202 200s202 -84 202 -200s-85 -200 -202 -200s-202 84 -202 200zM425 541c0 98 -72 169 -171 169
c-101 0 -174 -71 -174 -169c0 -99 73 -171 174 -171c99 0 171 72 171 171zM741 730h34l-499 -730h-33z" />
    <glyph glyph-name="guilsinglleft" unicode="&#x2039;" horiz-adv-x="340" 
d="M289 500l-209 -250l209 -250h-40l-208 250l209 250h39z" />
    <glyph glyph-name="guilsinglright" unicode="&#x203a;" horiz-adv-x="340" 
d="M299 250l-209 -250h-39l209 250l-209 250h39z" />
    <glyph glyph-name="lira" unicode="&#x20a4;" horiz-adv-x="565" 
d="M61 370h100v160c0 113 73 195 169 195c99 0 174 -87 184 -208l-30 -5c-10 106 -72 183 -154 183c-78 0 -139 -69 -139 -165v-160h270v-30h-270c0 -25 -1 -48 -3 -70h273v-30h-275c-12 -129 -48 -188 -96 -210h421v-30h-460v50c52 7 92 51 105 190h-95v30h97
c2 21 3 45 3 70h-100v30z" />
    <glyph glyph-name="Euro" unicode="&#x20ac;" horiz-adv-x="879" 
d="M790 228l28 -7c-28 -137 -163 -246 -328 -246c-187 0 -329 120 -362 295h-77v30h72c-2 16 -3 33 -3 50c0 21 2 41 4 60h-73v30h79c36 170 176 285 360 285c163 0 298 -113 328 -255l-30 -5c-28 128 -150 230 -298 230c-166 0 -294 -102 -330 -255h391v-30h-396
c-3 -19 -5 -39 -5 -60c0 -17 1 -34 3 -50h398v-30h-393c33 -158 162 -265 332 -265c151 0 274 99 300 223z" />
    <glyph glyph-name="trademark" unicode="&#x2122;" horiz-adv-x="1042" 
d="M171 150v520h-160v30h350v-30h-160v-520h-30zM931 668l-210 -518h-30l-210 518v-518h-30v550h50l205 -508l205 508h50v-550h-30v518z" />
    <glyph glyph-name="minus" unicode="&#x2212;" horiz-adv-x="512" 
d="M51 331h410v-30h-410v30z" />
    <glyph glyph-name="notequal" unicode="&#x2260;" horiz-adv-x="572" 
d="M521 418h-175l-79 -211h254v-30h-265l-81 -217h-33l81 217h-172v30h184l79 211h-263v30h274l71 188h32l-71 -188h164v-30z" />
    <glyph glyph-name="lessequal" unicode="&#x2264;" horiz-adv-x="422" 
d="M361 30v-30h-340v30h340zM21 330l340 180v-34l-314 -166l314 -167v-34l-340 181v40z" />
    <glyph glyph-name="greaterequal" unicode="&#x2265;" horiz-adv-x="422" 
d="M61 30h340v-30h-340v30zM61 143l314 167l-314 166v34l340 -180v-40l-340 -181v34z" />
    <glyph glyph-name="commaaccent" unicode="&#xf6c3;" horiz-adv-x="162" 
d="M86 -50h-2c-20 0 -33 13 -33 31s12 30 28 30c19 0 33 -19 33 -46c0 -37 -16 -66 -38 -94l-16 12c16 21 28 49 28 67z" />
    <glyph glyph-name="IJacute" horiz-adv-x="624" 
d="M120 700v-700h-30v700h30zM521 210v490h30v-490c0 -153 -81 -230 -194 -230c-30 0 -79 8 -116 20v31c42 -13 92 -21 120 -21c93 0 160 64 160 200zM225 880l-88 -90h-42l88 90h42zM644 880l-87 -90h-43l89 90h41z" />
    <glyph glyph-name="acute.case" horiz-adv-x="232" 
d="M93 610h-42l88 90h42z" />
    <glyph glyph-name="breve.case" horiz-adv-x="321" 
d="M241 730h29c1 -58 -45 -100 -109 -100s-110 42 -110 100h30c0 -41 34 -70 80 -70s80 29 80 70z" />
    <glyph glyph-name="caron.case" horiz-adv-x="339" 
d="M243 690h45l-98 -90h-40l-99 90h45l74 -67z" />
    <glyph glyph-name="circumflex.case" horiz-adv-x="339" 
d="M51 630l99 90h40l98 -90h-45l-73 67l-74 -67h-45z" />
    <glyph glyph-name="dieresis.case" horiz-adv-x="362" 
d="M81 625c-17 0 -30 13 -30 30s13 30 30 30s30 -13 30 -30s-13 -30 -30 -30zM281 625c-17 0 -30 13 -30 30s13 30 30 30s30 -13 30 -30s-13 -30 -30 -30z" />
    <glyph glyph-name="dotaccent.case" horiz-adv-x="162" 
d="M81 587c-18 0 -30 13 -30 30c0 18 12 30 30 30c17 0 30 -12 30 -30c0 -17 -13 -30 -30 -30z" />
    <glyph glyph-name="grave.case" horiz-adv-x="232" 
d="M139 620l-88 90h42l88 -90h-42z" />
    <glyph glyph-name="hungarumlaut.case" horiz-adv-x="385" 
d="M134 730h41l-82 -90h-42zM293 730h42l-83 -90h-41z" />
    <glyph glyph-name="ijacute" horiz-adv-x="387" 
d="M87 500h30v-500h-30v500zM283 -111v611h30v-610c0 -64 -43 -110 -104 -110c-23 0 -44 5 -67 13v31c20 -7 46 -14 66 -14c45 0 75 33 75 79zM182 730h39l-101 -120h-39zM377 730h39l-101 -120h-39z" />
    <glyph glyph-name="ring.case" horiz-adv-x="272" 
d="M136 541c-49 0 -85 36 -85 85s36 84 85 84c50 0 85 -35 85 -84s-37 -85 -85 -85zM137 680c-33 0 -56 -22 -56 -53c0 -33 23 -56 56 -56c31 0 55 23 55 56c0 31 -23 53 -55 53z" />
    <glyph glyph-name="tilde.case" horiz-adv-x="406" 
d="M76 605l-25 15c13 29 49 50 88 50c61 0 70 -50 125 -50c30 0 54 16 64 38l27 -13c-14 -32 -51 -55 -93 -55c-62 0 -72 50 -123 50c-28 0 -52 -15 -63 -35z" />
    </font>
</defs>
</svg>
