<?xml version="1.0" encoding="utf-8"?>
<!-- Generator: Adobe Illustrator 24.1.2, SVG Export Plug-In . SVG Version: 6.00 Build 0)  -->
<svg version="1.1" id="Capa_1" xmlns="http://www.w3.org/2000/svg" xmlns:xlink="http://www.w3.org/1999/xlink" x="0px" y="0px"
	 viewBox="0 0 13.8 13.8" style="enable-background:new 0 0 13.8 13.8;" xml:space="preserve">
<style type="text/css">
	.st0{fill:#999999;}
</style>
<g>
	<g>
		<path class="st0" d="M10.7,7.3c0-1.7,1.4-2.6,1.5-2.6c-0.8-1.2-2.1-1.3-2.5-1.4C8.6,3.2,7.5,4,7,4C6.4,4,5.6,3.4,4.7,3.4
			c-1.2,0-2.3,0.7-2.9,1.7c-1.2,2.1-0.3,5.2,0.9,7c0.6,0.8,1.3,1.8,2.2,1.7c0.9,0,1.2-0.6,2.3-0.6s1.4,0.6,2.3,0.5
			c0.9,0,1.5-0.9,2.1-1.7c0.7-1,0.9-1.9,1-2C12.5,10.1,10.7,9.4,10.7,7.3z"/>
		<path class="st0" d="M8.9,2.2C9.4,1.6,9.7,0.8,9.6,0C9,0,8.1,0.5,7.6,1C7.2,1.6,6.8,2.4,6.9,3.2C7.7,3.2,8.4,2.8,8.9,2.2z"/>
	</g>
</g>
</svg>
