<?xml version="1.0" standalone="no"?>
<!DOCTYPE svg PUBLIC "-//W3C//DTD SVG 1.1//EN" "http://www.w3.org/Graphics/SVG/1.1/DTD/svg11.dtd" >
<svg xmlns="http://www.w3.org/2000/svg" xmlns:xlink="http://www.w3.org/1999/xlink" version="1.1">
<metadata>
Created by FontForge 20161003 at Wed Feb 27 15:41:52 2019
 By www-data
Copyright \(c\) 2017 by Alexander Slobzheninov. All rights reserved.

</metadata>
<defs>
<font id="Objective-Black" horiz-adv-x="642" >
  <font-face 
    font-family="Objective"
    font-weight="900"
    font-stretch="normal"
    units-per-em="1000"
    panose-1="0 0 0 0 0 0 0 0 0 0"
    ascent="800"
    descent="-200"
    x-height="520"
    cap-height="720"
    bbox="-79 -401 1591 1150"
    underline-thickness="50"
    underline-position="-125"
    stemh="200"
    stemv="230"
    unicode-range="U+000D-F6C3"
  />
<missing-glyph horiz-adv-x="500" 
 />
    <glyph glyph-name=".notdef" horiz-adv-x="500" 
 />
    <glyph glyph-name="NULL" horiz-adv-x="742" 
d="M681 720v-720h-620v720h620zM261 170h220v380h-220v-380z" />
    <glyph glyph-name="NULL" horiz-adv-x="742" 
d="M681 720v-720h-620v720h620zM261 170h220v380h-220v-380z" />
    <glyph glyph-name="CR" unicode="&#xd;" horiz-adv-x="30" 
 />
    <glyph glyph-name="space" unicode=" " horiz-adv-x="300" 
 />
    <glyph glyph-name="exclam" unicode="!" horiz-adv-x="372" 
d="M61 100c0 70 53 120 125 120c73 0 125 -50 125 -120s-52 -120 -125 -120c-72 0 -125 50 -125 120zM301 520l-60 -260h-110l-60 260v200h230v-200z" />
    <glyph glyph-name="quotedbl" unicode="&#x22;" horiz-adv-x="452" 
d="M161 340h-100l-30 240v140h160v-140zM391 340h-100l-30 240v140h160v-140z" />
    <glyph glyph-name="numbersign" unicode="#" horiz-adv-x="912" 
d="M640 180l-49 -180h-194l49 180h-106l-49 -180h-194l49 180h-115v150h156l24 90h-130v150h171l49 180h194l-50 -180h107l49 180h194l-50 -180h136v-150h-176l-25 -90h151v-150h-191zM487 330l24 90h-106l-25 -90h107z" />
    <glyph glyph-name="dollar" unicode="$" horiz-adv-x="733" 
d="M488 -8v-115h-240v112c-127 34 -212 129 -212 250h222c0 -49 48 -84 109 -84c47 0 81 21 81 50c0 104 -410 -16 -410 285c0 121 83 210 210 242v88h240v-94c116 -37 192 -125 192 -235h-212c0 43 -43 74 -101 74c-45 0 -79 -19 -79 -45c0 -99 410 22 410 -280
c0 -121 -83 -212 -210 -248z" />
    <glyph glyph-name="percent" unicode="%" horiz-adv-x="1132" 
d="M871 440c133 0 230 -97 230 -230s-97 -230 -230 -230s-230 97 -230 230s97 230 230 230zM871 270c-35 0 -60 -25 -60 -60s25 -60 60 -60s60 25 60 60s-25 60 -60 60zM261 770c133 0 230 -97 230 -230s-97 -230 -230 -230s-230 97 -230 230s97 230 230 230zM261 600
c-35 0 -60 -25 -60 -60s25 -60 60 -60s60 25 60 60s-25 60 -60 60zM908 750l-497 -750h-187l497 750h187z" />
    <glyph glyph-name="ampersand" unicode="&#x26;" horiz-adv-x="881" 
d="M846 0h-240l-42 37c-69 -39 -149 -62 -238 -62c-174 0 -290 81 -290 225c0 105 62 159 139 193c-24 38 -39 81 -39 125c0 132 110 227 256 227c137 0 248 -85 263 -202l-190 -33c-8 44 -38 75 -71 75c-32 0 -58 -29 -58 -70c0 -32 16 -64 54 -98
c14 -13 160 -147 175 -160c16 24 29 52 41 83h199c-22 -76 -63 -142 -114 -199c14 -12 142 -129 155 -141zM366 145c24 0 45 3 65 8c-11 10 -123 107 -134 117c-17 -9 -29 -30 -29 -53c0 -41 41 -72 98 -72z" />
    <glyph glyph-name="quotesingle" unicode="'" horiz-adv-x="222" 
d="M161 340h-100l-30 240v140h160v-140z" />
    <glyph glyph-name="parenleft" unicode="(" horiz-adv-x="396" 
d="M31 285c0 189 64 369 160 465h204c-99 -118 -164 -298 -164 -465s65 -347 163 -465h-203c-96 96 -160 276 -160 465z" />
    <glyph glyph-name="parenright" unicode=")" horiz-adv-x="395" 
d="M365 285c0 -189 -64 -369 -160 -465h-203c98 118 163 298 163 465s-66 347 -164 465h204c96 -96 160 -276 160 -465z" />
    <glyph glyph-name="asterisk" unicode="*" horiz-adv-x="518" 
d="M412 325l-88 62l10 -107h-150l10 107l-88 -62l-75 130l97 45l-97 45l75 130l88 -62l-10 107h150l-10 -107l88 62l75 -130l-97 -45l97 -45z" />
    <glyph glyph-name="plus" unicode="+" horiz-adv-x="532" 
d="M371 90h-210v140h-130v160h130v140h210v-140h130v-160h-130v-140z" />
    <glyph glyph-name="comma" unicode="," horiz-adv-x="312" 
d="M31 100c0 70 53 120 120 120c78 0 130 -67 130 -169c0 -84 -51 -186 -120 -241l-112 20c53 50 92 113 92 150c-64 0 -110 50 -110 120z" />
    <glyph glyph-name="hyphen" unicode="-" horiz-adv-x="472" 
d="M441 400v-180h-410v180h410z" />
    <glyph glyph-name="period" unicode="." horiz-adv-x="312" 
d="M31 100c0 70 53 120 125 120c73 0 125 -50 125 -120s-52 -120 -125 -120c-72 0 -125 50 -125 120z" />
    <glyph glyph-name="slash" unicode="/" horiz-adv-x="520" 
d="M519 720l-324 -950h-194l324 950h194z" />
    <glyph glyph-name="zero" unicode="0" horiz-adv-x="781" 
d="M41 360c0 223 147 385 350 385s350 -162 350 -385s-147 -385 -350 -385s-350 162 -350 385zM291 360c0 -96 42 -165 100 -165s100 69 100 165s-42 165 -100 165s-100 -69 -100 -165z" />
    <glyph glyph-name="one" unicode="1" horiz-adv-x="521" 
d="M201 460l-170 -123v233l200 150h220v-720h-250v460z" />
    <glyph glyph-name="two" unicode="2" horiz-adv-x="677" 
d="M349 745c159 0 287 -101 288 -250c0 -91 -48 -166 -129 -206l-220 -109h329v-180h-581v210l299 170c52 30 72 59 72 97c0 43 -26 68 -62 68c-41 0 -76 -44 -83 -105l-222 42c13 153 142 263 309 263z" />
    <glyph glyph-name="three" unicode="3" horiz-adv-x="676" 
d="M46 540v180h570v-130l-139 -138c94 -30 159 -119 159 -223c0 -149 -131 -254 -310 -254c-188 0 -300 116 -310 275l226 31c6 -61 32 -106 84 -106c40 0 70 33 70 79c0 45 -30 76 -70 76c-19 0 -41 -4 -53 -11l-47 126l118 95h-298z" />
    <glyph glyph-name="four" unicode="4" horiz-adv-x="709" 
d="M11 270l240 450h350v-400h78v-180h-78v-140h-260v140h-330v130zM341 530l-100 -210h100v210z" />
    <glyph glyph-name="five" unicode="5" horiz-adv-x="690" 
d="M110 720h495v-180h-316l-5 -70h131c139 0 240 -97 240 -234c0 -156 -131 -261 -310 -261c-188 0 -300 116 -310 275l226 31c6 -61 32 -106 84 -106c41 0 70 33 70 75c0 47 -37 80 -88 80h-242z" />
    <glyph glyph-name="six" unicode="6" horiz-adv-x="702" 
d="M96 426l195 294h277l-165 -236c18 4 37 6 55 6c127 0 213 -94 213 -231c0 -169 -131 -284 -328 -284c-187 0 -312 110 -312 276c0 59 33 127 65 175zM291 260c0 -51 24 -85 60 -85s60 34 60 85c0 48 -24 80 -60 80s-60 -32 -60 -80z" />
    <glyph glyph-name="seven" unicode="7" horiz-adv-x="542" 
d="M311 0h-265l213 520h-248v200h530v-150z" />
    <glyph glyph-name="eight" unicode="8" horiz-adv-x="721" 
d="M361 750c168 0 290 -85 290 -207c0 -72 -43 -142 -103 -163c77 -16 133 -94 133 -177c0 -130 -135 -223 -320 -223c-186 0 -320 93 -320 223c0 83 56 161 133 177c-60 21 -103 90 -103 162c0 121 122 208 290 208zM361 290c-35 0 -60 -24 -60 -57c0 -34 25 -58 60 -58
s60 24 60 58c0 33 -25 57 -60 57zM361 555c-35 0 -60 -24 -60 -56c0 -34 25 -59 60 -59s60 25 60 59c0 32 -25 56 -60 56z" />
    <glyph glyph-name="nine" unicode="9" horiz-adv-x="702" 
d="M606 294l-195 -294h-277l165 236c-19 -4 -38 -6 -56 -6c-126 0 -212 94 -212 231c0 169 131 284 328 284c187 0 312 -110 312 -276c0 -59 -34 -127 -65 -175zM411 460c0 51 -24 85 -60 85s-60 -34 -60 -85c0 -48 24 -80 60 -80s60 32 60 80z" />
    <glyph glyph-name="colon" unicode=":" horiz-adv-x="312" 
d="M31 100c0 70 53 120 125 120c73 0 125 -50 125 -120s-52 -120 -125 -120c-72 0 -125 50 -125 120zM31 440c0 70 53 120 125 120c73 0 125 -50 125 -120s-52 -120 -125 -120c-72 0 -125 50 -125 120z" />
    <glyph glyph-name="semicolon" unicode=";" horiz-adv-x="312" 
d="M31 100c0 70 53 120 120 120c78 0 130 -67 130 -169c0 -84 -51 -186 -120 -241l-112 20c53 50 92 113 92 150c-64 0 -110 50 -110 120zM31 440c0 70 53 120 125 120c73 0 125 -50 125 -120s-52 -120 -125 -120c-72 0 -125 50 -125 120z" />
    <glyph glyph-name="less" unicode="&#x3c;" horiz-adv-x="422" 
d="M391 180v-192l-390 172v200l390 171v-191l-229 -80z" />
    <glyph glyph-name="equal" unicode="=" horiz-adv-x="532" 
d="M31 260h470v-170h-470v170zM31 520h470v-170h-470v170z" />
    <glyph glyph-name="greater" unicode="&#x3e;" horiz-adv-x="421" 
d="M31 531l390 -171v-200l-390 -172v192l229 80l-229 80v191z" />
    <glyph glyph-name="question" unicode="?" horiz-adv-x="671" 
d="M206 100c0 70 53 120 125 120c73 0 125 -50 125 -120s-52 -120 -125 -120c-72 0 -125 50 -125 120zM431 240h-200c0 95 27 147 99 194c27 16 61 37 61 71c0 29 -23 50 -54 50c-41 0 -70 -39 -76 -94l-230 42c11 141 138 242 318 242c168 0 292 -88 292 -214
c0 -80 -51 -145 -120 -177c-52 -24 -90 -48 -90 -114z" />
    <glyph glyph-name="at" unicode="@" horiz-adv-x="1041" 
d="M191 260c0 -166 101 -287 240 -287c55 0 119 17 159 40v-149c-41 -23 -105 -39 -159 -39c-230 0 -400 182 -400 435c0 252 206 435 490 435s490 -183 490 -435c0 -152 -70 -260 -240 -260c-87 0 -155 40 -168 99c-31 -35 -89 -59 -144 -59c-107 0 -178 88 -178 220
c0 128 101 220 240 220c144 0 240 -93 240 -230v-72c0 -25 -5 -68 37 -68s53 63 53 150c0 177 -139 305 -330 305s-330 -128 -330 -305zM521 320c-35 0 -60 -25 -60 -60s25 -60 60 -60s60 25 60 60s-25 60 -60 60z" />
    <glyph glyph-name="A" unicode="A" horiz-adv-x="804" 
d="M592 720l211 -720h-271l-23 90h-214l-23 -90h-271l211 720h380zM402 501l-60 -231h120z" />
    <glyph glyph-name="B" unicode="B" horiz-adv-x="801" 
d="M481 0h-420v720h393c172 0 287 -86 287 -200c0 -80 -39 -137 -100 -155c74 -17 120 -83 120 -175c0 -120 -112 -190 -280 -190zM421 290h-100v-110h100c42 0 70 20 70 50c0 36 -28 60 -70 60zM401 540h-80v-100h80c42 0 70 20 70 50s-28 50 -70 50z" />
    <glyph glyph-name="C" unicode="C" horiz-adv-x="842" 
d="M571 303l241 -25c-9 -176 -169 -303 -381 -303c-232 0 -400 162 -400 385s168 385 400 385c207 0 366 -127 378 -303l-239 -25c-11 63 -66 108 -130 108c-90 0 -149 -66 -149 -165s60 -165 148 -165c64 0 120 45 132 108z" />
    <glyph glyph-name="D" unicode="D" horiz-adv-x="821" 
d="M61 0v720h320c246 0 410 -144 410 -360s-164 -360 -410 -360h-320zM531 360c0 102 -60 170 -150 170h-70v-340h70c90 0 150 68 150 170z" />
    <glyph glyph-name="E" unicode="E" horiz-adv-x="621" 
d="M311 200h280v-200h-530v720h520v-200h-270v-70h230v-170h-230v-80z" />
    <glyph glyph-name="F" unicode="F" horiz-adv-x="611" 
d="M531 220h-210v-220h-260v720h530v-220h-270v-90h210v-190z" />
    <glyph glyph-name="G" unicode="G" horiz-adv-x="861" 
d="M581 280h-150v140h397c29 -258 -134 -445 -387 -445c-238 0 -410 162 -410 385s172 385 410 385c185 0 327 -106 357 -255l-239 -40c-13 44 -62 75 -120 75c-86 0 -148 -69 -148 -165s66 -165 160 -165c67 0 123 36 130 85z" />
    <glyph glyph-name="H" unicode="H" horiz-adv-x="830" 
d="M320 0h-260v720h260v-250h190v250h260v-720h-260v270h-190v-270z" />
    <glyph glyph-name="I" unicode="I" horiz-adv-x="382" 
d="M321 720v-720h-260v720h260z" />
    <glyph glyph-name="J" unicode="J" horiz-adv-x="512" 
d="M201 280v440h260v-480c0 -156 -115 -260 -272 -260c-57 0 -120 8 -158 20v190c21 -6 53 -10 80 -10c54 0 90 40 90 100z" />
    <glyph glyph-name="K" unicode="K" horiz-adv-x="795" 
d="M61 720h260v-266l170 266h303l-243 -340l243 -380h-303l-170 295v-295h-260v720z" />
    <glyph glyph-name="L" unicode="L" horiz-adv-x="581" 
d="M551 0h-490v720h260v-500h230v-220z" />
    <glyph glyph-name="M" unicode="M" horiz-adv-x="1072" 
d="M311 0h-250v720h326l149 -458l143 458h332v-720h-250v414l-130 -414h-190l-130 414v-414z" />
    <glyph glyph-name="N" unicode="N" horiz-adv-x="832" 
d="M321 720l210 -407v407h240v-720h-260l-210 405v-405h-240v720h260z" />
    <glyph glyph-name="O" unicode="O" horiz-adv-x="881" 
d="M31 360c0 231 164 385 410 385s410 -154 410 -385s-164 -385 -410 -385s-410 154 -410 385zM291 360c0 -99 60 -165 150 -165s150 66 150 165s-60 165 -150 165s-150 -66 -150 -165z" />
    <glyph glyph-name="P" unicode="P" horiz-adv-x="761" 
d="M431 180h-120v-180h-250v720h373c184 0 307 -108 307 -270s-124 -270 -310 -270zM381 540h-70v-180h70c60 0 100 36 100 90s-40 90 -100 90z" />
    <glyph glyph-name="Q" unicode="Q" horiz-adv-x="881" 
d="M31 360c0 231 164 385 410 385s410 -154 410 -385c0 -131 -54 -238 -144 -306l135 -194h-230l-83 122c-28 -4 -57 -7 -88 -7c-246 0 -410 154 -410 385zM291 360c0 -99 60 -165 150 -165s150 66 150 165s-60 165 -150 165s-150 -66 -150 -165z" />
    <glyph glyph-name="R" unicode="R" horiz-adv-x="805" 
d="M61 0v720h383c185 0 307 -103 307 -260c0 -97 -53 -170 -140 -208l164 -252h-284l-110 220h-60v-220h-260zM391 540h-70v-160h70c54 0 100 29 100 80s-46 80 -100 80z" />
    <glyph glyph-name="S" unicode="S" horiz-adv-x="733" 
d="M358 -25c-187 0 -322 111 -322 264h222c0 -49 48 -84 109 -84c47 0 81 21 81 50c0 104 -410 -16 -410 285c0 154 134 255 320 255c187 0 322 -107 322 -254h-212c0 43 -43 74 -101 74c-45 0 -79 -19 -79 -45c0 -99 410 22 410 -280c0 -159 -143 -265 -340 -265z" />
    <glyph glyph-name="T" unicode="T" horiz-adv-x="662" 
d="M201 510h-190v210h640v-210h-190v-510h-260v510z" />
    <glyph glyph-name="U" unicode="U" horiz-adv-x="812" 
d="M501 315v405h260v-415c0 -198 -142 -330 -355 -330s-355 132 -355 330v415h260v-405c0 -57 27 -115 95 -120c57 0 95 48 95 120z" />
    <glyph glyph-name="V" unicode="V" horiz-adv-x="799" 
d="M269 720l130 -529l130 529h269l-199 -720h-400l-198 720h268z" />
    <glyph glyph-name="W" unicode="W" horiz-adv-x="1284" 
d="M893 238l119 482h261l-191 -720h-350l-90 369l-90 -369h-350l-191 720h261l120 -482l130 482h240z" />
    <glyph glyph-name="X" unicode="X" horiz-adv-x="893" 
d="M239 380l-227 340h297l135 -206l135 206h302l-242 -340l243 -380h-303l-135 238l-135 -238h-298z" />
    <glyph glyph-name="Y" unicode="Y" horiz-adv-x="743" 
d="M245 240l-245 480h269l106 -260l95 260h273l-238 -480v-240h-260v240z" />
    <glyph glyph-name="Z" unicode="Z" horiz-adv-x="682" 
d="M41 170l260 350h-250v200h580v-170l-247 -350h257v-200h-600v170z" />
    <glyph glyph-name="bracketleft" unicode="[" horiz-adv-x="412" 
d="M281 600v-630h130v-150h-350v930h350v-150h-130z" />
    <glyph glyph-name="backslash" unicode="\" horiz-adv-x="520" 
d="M1 720h194l324 -950h-194z" />
    <glyph glyph-name="bracketright" unicode="]" horiz-adv-x="412" 
d="M351 -180h-350v150h130v630h-130v150h350v-930z" />
    <glyph glyph-name="asciicircum" unicode="^" horiz-adv-x="632" 
d="M238 400h-207l175 320h220l175 -320h-205l-80 182z" />
    <glyph glyph-name="underscore" unicode="_" horiz-adv-x="500" 
d="M0 0h500v-150h-500v150z" />
    <glyph glyph-name="grave" unicode="`" horiz-adv-x="369" 
d="M31 750h197l110 -180h-150z" />
    <glyph glyph-name="a" unicode="a" horiz-adv-x="683" 
d="M402 458v62h230v-520h-230v62c-34 -52 -85 -82 -145 -82c-136 0 -226 112 -226 280s90 280 226 280c60 0 111 -30 145 -82zM331 180c41 0 70 34 70 80s-29 80 -70 80s-70 -34 -70 -80s29 -80 70 -80z" />
    <glyph glyph-name="b" unicode="b" horiz-adv-x="672" 
d="M51 750h230v-278c34 43 82 68 140 68c132 0 220 -112 220 -280s-88 -280 -220 -280c-59 0 -106 24 -140 66v-46h-230v750zM411 260c0 46 -29 80 -70 80s-70 -34 -70 -80s29 -80 70 -80s70 34 70 80z" />
    <glyph glyph-name="c" unicode="c" horiz-adv-x="637" 
d="M611 317l-210 -27c-7 35 -36 60 -69 60c-41 0 -71 -38 -71 -90s29 -90 71 -90c33 0 62 25 69 60l210 -25c-15 -130 -136 -225 -282 -225c-170 0 -298 118 -298 280s125 280 298 280c146 0 268 -94 282 -223z" />
    <glyph glyph-name="d" unicode="d" horiz-adv-x="672" 
d="M391 472v278h230v-750h-230v46c-34 -42 -82 -66 -140 -66c-132 0 -220 112 -220 280s88 280 220 280c57 0 105 -25 140 -68zM261 260c0 -46 29 -80 70 -80s70 34 70 80s-29 80 -70 80s-70 -34 -70 -80z" />
    <glyph glyph-name="e" unicode="e" horiz-adv-x="652" 
d="M341 140c33 0 52 17 60 40l200 -25c-20 -101 -134 -175 -275 -175c-175 0 -295 112 -295 280s124 280 300 280c178 0 290 -113 290 -283c0 -16 -1 -48 -3 -57h-350c12 -38 35 -60 73 -60zM265 310h126c0 35 -26 70 -63 70c-35 0 -55 -27 -63 -70z" />
    <glyph glyph-name="f" unicode="f" horiz-adv-x="442" 
d="M421 750v-185c-14 3 -32 5 -45 5c-33 0 -55 -16 -55 -40v-10h100v-170h-100v-350h-230v350h-60v170h60v20c0 138 81 230 202 230c41 0 90 -8 128 -20z" />
    <glyph glyph-name="g" unicode="g" horiz-adv-x="672" 
d="M50 -40l198 20c6 -35 37 -60 72 -60c42 0 71 36 71 90v52c-35 -39 -83 -62 -142 -62c-126 0 -218 104 -218 260c0 168 92 280 218 280c59 0 107 -24 142 -67v47h230v-520c0 -150 -116 -250 -290 -250c-154 0 -272 88 -281 210zM331 180c41 0 70 34 70 80s-29 80 -70 80
s-70 -34 -70 -80s29 -80 70 -80z" />
    <glyph glyph-name="h" unicode="h" 
d="M427 540c103 0 174 -76 174 -190v-350h-230v280c0 36 -19 60 -46 60s-44 -24 -44 -60v-280h-230v750h230v-281c33 47 88 71 146 71z" />
    <glyph glyph-name="i" unicode="i" horiz-adv-x="352" 
d="M291 520v-520h-230v520h230zM51 680c0 70 53 120 125 120c73 0 125 -50 125 -120s-52 -120 -125 -120c-72 0 -125 50 -125 120z" />
    <glyph glyph-name="j" unicode="j" horiz-adv-x="362" 
d="M71 10v510h230v-540c0 -132 -85 -220 -212 -220c-45 0 -100 8 -138 20v175c14 -3 36 -5 55 -5c39 0 65 24 65 60zM61 680c0 70 53 120 125 120c73 0 125 -50 125 -120s-52 -120 -125 -120c-72 0 -125 50 -125 120z" />
    <glyph glyph-name="k" unicode="k" horiz-adv-x="677" 
d="M51 750h230v-407l130 177h264l-194 -250l196 -270h-266l-130 196v-196h-230v750z" />
    <glyph glyph-name="l" unicode="l" horiz-adv-x="330" 
d="M280 750v-750h-230v750h230z" />
    <glyph glyph-name="m" unicode="m" horiz-adv-x="972" 
d="M51 0v520h220v-67c30 57 92 87 156 87c67 0 119 -31 148 -83c29 52 104 83 169 83c113 0 187 -76 187 -190v-350h-230v280c0 31 -17 57 -51 60c-31 0 -49 -24 -49 -60v-280h-230v280c0 36 -18 60 -46 60s-44 -24 -44 -60v-280h-230z" />
    <glyph glyph-name="n" unicode="n" 
d="M431 540c98 0 170 -84 170 -200v-340h-230v280c0 36 -18 60 -45 60s-45 -24 -45 -60v-280h-230v520h220v-78c38 59 91 98 160 98z" />
    <glyph glyph-name="o" unicode="o" horiz-adv-x="660" 
d="M630 260c0 -168 -120 -280 -300 -280s-300 112 -300 280s120 280 300 280s300 -112 300 -280zM400 260c0 48 -28 80 -70 80s-70 -32 -70 -80s28 -80 70 -80s70 32 70 80z" />
    <glyph glyph-name="p" unicode="p" horiz-adv-x="672" 
d="M281 48v-278h-230v750h230v-46c34 42 81 66 140 66c132 0 220 -112 220 -280s-88 -280 -220 -280c-58 0 -106 25 -140 68zM411 260c0 46 -29 80 -70 80s-70 -34 -70 -80s29 -80 70 -80s70 34 70 80z" />
    <glyph glyph-name="q" unicode="q" horiz-adv-x="672" 
d="M621 -230h-230v278c-35 -43 -83 -68 -140 -68c-132 0 -220 112 -220 280s88 280 220 280c58 0 106 -24 140 -66v46h230v-750zM261 260c0 -46 29 -80 70 -80s70 34 70 80s-29 80 -70 80s-70 -34 -70 -80z" />
    <glyph glyph-name="r" unicode="r" horiz-adv-x="471" 
d="M406 540c19 0 38 -4 55 -12v-203c-32 14 -70 23 -96 23c-50 0 -84 -35 -84 -88v-260h-230v520h220v-66c27 52 81 86 135 86z" />
    <glyph glyph-name="s" unicode="s" horiz-adv-x="582" 
d="M282 -25c-146 0 -251 81 -251 193h181c0 -31 31 -53 75 -53c31 0 55 15 55 36c0 82 -310 -32 -310 199c0 113 105 195 250 195c147 0 255 -77 255 -184h-191c0 26 -28 44 -63 44c-30 0 -51 -13 -51 -31c0 -72 330 8 330 -193c0 -121 -112 -206 -280 -206z" />
    <glyph glyph-name="t" unicode="t" horiz-adv-x="442" 
d="M81 210v140h-60v170h70l20 140h200v-140h100v-170h-100v-110c0 -36 22 -60 55 -60c13 0 31 2 45 5v-185c-38 -12 -87 -20 -128 -20c-121 0 -202 98 -202 230z" />
    <glyph glyph-name="u" unicode="u" 
d="M211 -20c-98 0 -170 84 -170 200v340h230v-280c0 -36 18 -60 45 -60s45 24 45 60v280h230v-520h-220v78c-38 -59 -91 -98 -160 -98z" />
    <glyph glyph-name="v" unicode="v" horiz-adv-x="661" 
d="M166 0l-165 520h245l85 -348l85 348h245l-165 -520h-330z" />
    <glyph glyph-name="w" unicode="w" horiz-adv-x="967" 
d="M149 0l-138 520h238l62 -287l78 287h189l88 -294l63 294h228l-138 -520h-280l-55 250l-55 -250h-280z" />
    <glyph glyph-name="x" unicode="x" horiz-adv-x="711" 
d="M291 0h-280l170 270l-163 250h273l65 -127l65 127h273l-163 -250l170 -270h-280l-65 142z" />
    <glyph glyph-name="y" unicode="y" horiz-adv-x="657" 
d="M116 -220v155c9 -3 35 -5 50 -5c51 0 85 0 101 58l-266 532h250l100 -243l70 243h235l-195 -550c-57 -159 -130 -210 -225 -210c-38 0 -88 8 -120 20z" />
    <glyph glyph-name="z" unicode="z" horiz-adv-x="581" 
d="M231 340h-180v180h480v-150l-167 -190h177v-180h-500v150z" />
    <glyph glyph-name="braceleft" unicode="{" horiz-adv-x="461" 
d="M401 -30h60v-150h-210c-84 0 -140 56 -140 140v160c0 42 -28 70 -70 70h-10v200h10c42 0 70 28 70 70v150c0 84 56 140 140 140h210v-150h-60c-42 0 -70 -28 -70 -70v-90c0 -84 -56 -144 -140 -149l-10 -1l10 -1c84 -5 140 -65 140 -149v-100c0 -42 28 -70 70 -70z" />
    <glyph glyph-name="bar" unicode="|" horiz-adv-x="322" 
d="M61 750h200v-980h-200v980z" />
    <glyph glyph-name="braceright" unicode="}" horiz-adv-x="461" 
d="M211 -180h-210v150h60c42 0 70 28 70 70v100c0 84 56 144 140 149l10 1l-10 1c-84 5 -140 65 -140 149v90c0 42 -28 70 -70 70h-60v150h210c84 0 140 -56 140 -140v-150c0 -42 28 -70 70 -70h10v-200h-10c-42 0 -70 -28 -70 -70v-160c0 -84 -56 -140 -140 -140z" />
    <glyph glyph-name="asciitilde" unicode="~" horiz-adv-x="632" 
d="M195 440c96 0 189 -100 256 -100c34 0 71 17 93 40l57 -150c-48 -48 -114 -80 -163 -80c-97 0 -197 100 -267 100c-28 0 -61 -17 -85 -40l-55 150c48 48 115 80 164 80z" />
    <glyph glyph-name="exclamdown" unicode="&#xa1;" horiz-adv-x="370" 
d="M310 390c0 -70 -53 -120 -125 -120c-73 0 -125 50 -125 120s52 120 125 120c72 0 125 -50 125 -120zM70 -30l60 260h110l60 -260v-200h-230v200z" />
    <glyph glyph-name="cent" unicode="&#xa2;" horiz-adv-x="637" 
d="M407 -11v-109h-190v119c-111 39 -186 137 -186 261c0 125 74 223 186 262v98h190v-89c109 -27 192 -109 204 -214l-210 -27c-7 35 -36 60 -69 60c-41 0 -71 -38 -71 -90s29 -90 71 -90c33 0 62 25 69 60l210 -25c-12 -106 -95 -189 -204 -216z" />
    <glyph glyph-name="sterling" unicode="&#xa3;" horiz-adv-x="702" 
d="M421 555c-23 0 -40 -23 -40 -55v-70h190v-130h-203c-21 -50 -68 -93 -131 -120h434v-180h-640v200c51 17 89 55 104 100h-94v130h100v80c0 136 105 235 257 235c146 0 261 -92 273 -219l-200 -31c-5 35 -26 60 -50 60z" />
    <glyph glyph-name="currency" unicode="&#xa4;" horiz-adv-x="718" 
d="M501 494l50 66l133 -100l-56 -73c21 -36 33 -79 33 -127s-12 -91 -33 -128l59 -75l-136 -97l-50 65c-41 -16 -88 -25 -140 -25s-100 8 -140 24l-60 -64l-130 97l62 75c-21 37 -32 80 -32 128s11 91 32 127l-54 73l132 100l50 -65c40 16 88 25 140 25c53 0 99 -9 140 -26z
M431 260c0 54 -28 90 -70 90s-70 -36 -70 -90s28 -90 70 -90s70 36 70 90z" />
    <glyph glyph-name="yen" unicode="&#xa5;" horiz-adv-x="805" 
d="M225 322l-214 398h279l116 -280l105 280h283l-209 -398h119v-100h-168v-42h168v-100h-168v-80h-260v80h-172v100h172v42h-172v100h121z" />
    <glyph glyph-name="section" unicode="&#xa7;" horiz-adv-x="661" 
d="M324 705c132 0 232 -55 258 -160l-186 -26c-5 38 -35 66 -77 66c-31 0 -53 -15 -53 -35c0 -32 58 -45 127 -60c104 -23 233 -51 233 -158c0 -67 -50 -117 -124 -138c49 -27 84 -70 84 -143c0 -119 -113 -206 -266 -206c-139 0 -244 71 -257 169l183 26
c6 -38 41 -65 84 -65c31 0 56 13 56 32c0 38 -60 52 -130 69c-99 23 -220 52 -220 163c0 63 40 113 103 134c-43 25 -73 66 -73 137c0 117 100 195 258 195zM266 334c-18 -3 -30 -19 -30 -33c0 -20 25 -37 60 -45c11 -3 68 -16 80 -19c23 3 40 17 40 33s-17 30 -40 36
c-20 5 -94 24 -110 28z" />
    <glyph glyph-name="dieresis" unicode="&#xa8;" horiz-adv-x="552" 
d="M136 550c-61 0 -105 42 -105 100s44 100 105 100s105 -42 105 -100s-44 -100 -105 -100zM416 550c-61 0 -105 42 -105 100s44 100 105 100s105 -42 105 -100s-44 -100 -105 -100z" />
    <glyph glyph-name="copyright" unicode="&#xa9;" horiz-adv-x="1061" 
d="M31 265c0 282 200 470 500 470s500 -188 500 -470c0 -288 -200 -480 -500 -480s-500 192 -500 480zM181 265c0 -210 140 -350 350 -350s350 140 350 350c0 204 -140 340 -350 340s-350 -136 -350 -340zM792 316l-154 -23c-10 56 -50 97 -99 97c-55 0 -101 -52 -101 -130
c0 -75 45 -130 101 -130c49 0 89 41 99 98l151 -27c-9 -122 -115 -211 -253 -211c-152 0 -268 108 -268 270c0 157 111 270 265 270c137 0 245 -90 259 -214z" />
    <glyph glyph-name="guillemotleft" unicode="&#xab;" horiz-adv-x="760" 
d="M420 520l-169 -250l169 -270h-229l-160 270l160 250h229zM730 520l-169 -250l169 -270h-229l-160 270l160 250h229z" />
    <glyph glyph-name="logicalnot" unicode="&#xac;" 
d="M440 70v150h-409v180h570v-330h-161z" />
    <glyph glyph-name="registered" unicode="&#xae;" horiz-adv-x="1061" 
d="M31 265c0 282 200 470 500 470s500 -188 500 -470c0 -288 -200 -480 -500 -480s-500 192 -500 480zM881 265c0 204 -140 340 -350 340s-350 -136 -350 -340c0 -210 140 -350 350 -350s350 140 350 350zM471 10h-160v510h253c124 0 207 -64 207 -160
c0 -68 -43 -120 -113 -145l104 -205h-181l-71 190h-39v-190zM606 355c0 39 -24 65 -76 65h-59v-130h59c44 0 76 23 76 65z" />
    <glyph glyph-name="macron" unicode="&#xaf;" horiz-adv-x="432" 
d="M401 720v-130h-370v130h370z" />
    <glyph glyph-name="degree" unicode="&#xb0;" horiz-adv-x="562" 
d="M281 315c-150 0 -250 92 -250 230s100 230 250 230s250 -92 250 -230s-100 -230 -250 -230zM281 635c-54 0 -90 -36 -90 -90s36 -90 90 -90s90 36 90 90s-36 90 -90 90z" />
    <glyph glyph-name="plusminus" unicode="&#xb1;" horiz-adv-x="532" 
d="M31 140h470v-140h-470v140zM351 200h-170v90h-150v140h150v90h170v-90h150v-140h-150v-90z" />
    <glyph glyph-name="acute" unicode="&#xb4;" horiz-adv-x="389" 
d="M338 750l-157 -180h-150l110 180h197z" />
    <glyph glyph-name="paragraph" unicode="&#xb6;" horiz-adv-x="882" 
d="M831 560h-100v-760h-200v760h-70v-760h-200v480c-139 0 -231 88 -230 220s93 220 230 220h570v-160z" />
    <glyph glyph-name="periodcentered" unicode="&#xb7;" horiz-adv-x="312" 
d="M156 200c-72 0 -125 50 -125 120s53 120 125 120c73 0 125 -50 125 -120s-52 -120 -125 -120z" />
    <glyph glyph-name="cedilla" unicode="&#xb8;" horiz-adv-x="310" 
d="M111 -130h-50l30 160h110l-20 -110c59 0 98 -37 98 -92c0 -59 -55 -98 -137 -98c-49 0 -93 24 -111 60l50 50c9 -18 28 -30 48 -30s32 12 32 30s-20 30 -50 30z" />
    <glyph glyph-name="guillemotright" unicode="&#xbb;" horiz-adv-x="759" 
d="M419 270l-160 -270h-229l169 270l-169 250h229zM729 270l-160 -270h-229l169 270l-169 250h229z" />
    <glyph glyph-name="questiondown" unicode="&#xbf;" horiz-adv-x="671" 
d="M241 260h200c0 -95 -27 -147 -100 -194c-26 -16 -60 -36 -60 -71c0 -29 23 -50 53 -50c42 0 71 39 77 94l230 -42c-11 -141 -138 -242 -318 -242c-168 0 -292 88 -292 214c0 80 50 145 120 177c52 24 90 48 90 114zM471 400c0 -70 -53 -120 -125 -120
c-73 0 -125 50 -125 120s52 120 125 120c72 0 125 -50 125 -120z" />
    <glyph glyph-name="Agrave" unicode="&#xc0;" horiz-adv-x="804" 
d="M592 720l211 -720h-271l-23 90h-214l-23 -90h-271l211 720h380zM402 501l-60 -231h120zM320 790l-158 160h198l116 -160h-156z" />
    <glyph glyph-name="Aacute" unicode="&#xc1;" horiz-adv-x="804" 
d="M592 720l211 -720h-271l-23 90h-214l-23 -90h-271l211 720h380zM402 501l-60 -231h120zM625 950l-158 -160h-157l117 160h198z" />
    <glyph glyph-name="Acircumflex" unicode="&#xc2;" horiz-adv-x="804" 
d="M592 720l211 -720h-271l-23 90h-214l-23 -90h-271l211 720h380zM402 501l-60 -231h120zM341 790h-140l90 160h220l90 -160h-140l-60 80z" />
    <glyph glyph-name="Atilde" unicode="&#xc3;" horiz-adv-x="804" 
d="M592 720l211 -720h-271l-23 90h-214l-23 -90h-271l211 720h380zM402 501l-60 -231h120zM275 823l-104 52c20 63 83 115 149 115c71 0 114 -50 147 -50c18 0 38 15 49 37l105 -52c-20 -62 -87 -115 -156 -115c-74 0 -114 50 -147 50c-18 0 -32 -15 -43 -37z" />
    <glyph glyph-name="Adieresis" unicode="&#xc4;" horiz-adv-x="804" 
d="M592 720l211 -720h-271l-23 90h-214l-23 -90h-271l211 720h380zM402 501l-60 -231h120zM261 780c-61 0 -105 44 -105 105s44 105 105 105s105 -44 105 -105s-44 -105 -105 -105zM541 780c-61 0 -105 44 -105 105s44 105 105 105s105 -44 105 -105s-44 -105 -105 -105z
" />
    <glyph glyph-name="Aring" unicode="&#xc5;" horiz-adv-x="804" 
d="M592 720l211 -720h-271l-23 90h-214l-23 -90h-271l211 720h380zM402 501l-60 -231h120zM402 765c-93 0 -155 54 -155 135s62 135 155 135s155 -54 155 -135s-62 -135 -155 -135zM402 935c-21 0 -35 -14 -35 -35s14 -35 35 -35s35 14 35 35s-14 35 -35 35z" />
    <glyph glyph-name="AE" unicode="&#xc6;" horiz-adv-x="1049" 
d="M1019 200v-200h-480v90h-209l-41 -90h-288l348 720h660v-200h-240v-70h200v-170h-200v-80h250zM539 260v288l-131 -288h131z" />
    <glyph glyph-name="Ccedilla" unicode="&#xc7;" horiz-adv-x="842" 
d="M411 -130h-50l20 108c-206 21 -350 175 -350 382c0 223 168 385 400 385c207 0 366 -127 378 -303l-239 -25c-11 63 -66 108 -130 108c-90 0 -149 -66 -149 -165s60 -165 148 -165c64 0 120 45 132 108l241 -25c-8 -159 -139 -278 -321 -299l-10 -59c59 0 98 -37 98 -92
c0 -59 -55 -98 -137 -98c-49 0 -93 24 -111 60l50 50c9 -18 28 -30 48 -30s32 12 32 30s-20 30 -50 30z" />
    <glyph glyph-name="Egrave" unicode="&#xc8;" horiz-adv-x="621" 
d="M311 200h280v-200h-530v720h520v-200h-270v-70h230v-170h-230v-80zM260 790l-158 160h198l116 -160h-156z" />
    <glyph glyph-name="Eacute" unicode="&#xc9;" horiz-adv-x="621" 
d="M311 200h280v-200h-530v720h520v-200h-270v-70h230v-170h-230v-80zM545 950l-158 -160h-157l117 160h198z" />
    <glyph glyph-name="Ecircumflex" unicode="&#xca;" horiz-adv-x="621" 
d="M311 200h280v-200h-530v720h520v-200h-270v-70h230v-170h-230v-80zM261 790h-140l90 160h220l90 -160h-140l-60 80z" />
    <glyph glyph-name="Edieresis" unicode="&#xcb;" horiz-adv-x="621" 
d="M311 200h280v-200h-530v720h520v-200h-270v-70h230v-170h-230v-80zM181 780c-61 0 -105 44 -105 105s44 105 105 105s105 -44 105 -105s-44 -105 -105 -105zM461 780c-61 0 -105 44 -105 105s44 105 105 105s105 -44 105 -105s-44 -105 -105 -105z" />
    <glyph glyph-name="Igrave" unicode="&#xcc;" horiz-adv-x="381" 
d="M320 720v-720h-260v720h260zM109 790l-158 160h198l116 -160h-156z" />
    <glyph glyph-name="Iacute" unicode="&#xcd;" horiz-adv-x="385" 
d="M321 720v-720h-260v720h260zM415 950l-158 -160h-157l117 160h198z" />
    <glyph glyph-name="Icircumflex" unicode="&#xce;" horiz-adv-x="382" 
d="M321 720v-720h-260v720h260zM131 790h-140l90 160h220l90 -160h-140l-60 80z" />
    <glyph glyph-name="Idieresis" unicode="&#xcf;" horiz-adv-x="372" 
d="M316 720v-720h-260v720h260zM46 780c-61 0 -105 44 -105 105s44 105 105 105s105 -44 105 -105s-44 -105 -105 -105zM326 780c-61 0 -105 44 -105 105s44 105 105 105s105 -44 105 -105s-44 -105 -105 -105z" />
    <glyph glyph-name="Ntilde" unicode="&#xd1;" horiz-adv-x="832" 
d="M321 720l210 -407v407h240v-720h-260l-210 405v-405h-240v720h260zM292 823l-104 52c20 63 83 115 149 115c71 0 114 -50 147 -50c18 0 38 15 49 37l105 -52c-20 -62 -87 -115 -156 -115c-74 0 -114 50 -147 50c-18 0 -32 -15 -43 -37z" />
    <glyph glyph-name="Ograve" unicode="&#xd2;" horiz-adv-x="881" 
d="M31 360c0 231 164 385 410 385s410 -154 410 -385s-164 -385 -410 -385s-410 154 -410 385zM291 360c0 -99 60 -165 150 -165s150 66 150 165s-60 165 -150 165s-150 -66 -150 -165zM360 790l-158 160h198l116 -160h-156z" />
    <glyph glyph-name="Oacute" unicode="&#xd3;" horiz-adv-x="881" 
d="M31 360c0 231 164 385 410 385s410 -154 410 -385s-164 -385 -410 -385s-410 154 -410 385zM291 360c0 -99 60 -165 150 -165s150 66 150 165s-60 165 -150 165s-150 -66 -150 -165zM665 950l-158 -160h-157l117 160h198z" />
    <glyph glyph-name="Ocircumflex" unicode="&#xd4;" horiz-adv-x="881" 
d="M31 360c0 231 164 385 410 385s410 -154 410 -385s-164 -385 -410 -385s-410 154 -410 385zM291 360c0 -99 60 -165 150 -165s150 66 150 165s-60 165 -150 165s-150 -66 -150 -165zM381 790h-140l90 160h220l90 -160h-140l-60 80z" />
    <glyph glyph-name="Otilde" unicode="&#xd5;" horiz-adv-x="881" 
d="M31 360c0 231 164 385 410 385s410 -154 410 -385s-164 -385 -410 -385s-410 154 -410 385zM291 360c0 -99 60 -165 150 -165s150 66 150 165s-60 165 -150 165s-150 -66 -150 -165zM315 823l-104 52c20 63 83 115 149 115c71 0 114 -50 147 -50c18 0 38 15 49 37
l105 -52c-20 -62 -87 -115 -156 -115c-74 0 -114 50 -147 50c-18 0 -32 -15 -43 -37z" />
    <glyph glyph-name="Odieresis" unicode="&#xd6;" horiz-adv-x="881" 
d="M31 360c0 231 164 385 410 385s410 -154 410 -385s-164 -385 -410 -385s-410 154 -410 385zM291 360c0 -99 60 -165 150 -165s150 66 150 165s-60 165 -150 165s-150 -66 -150 -165zM301 780c-61 0 -105 44 -105 105s44 105 105 105s105 -44 105 -105s-44 -105 -105 -105
zM581 780c-61 0 -105 44 -105 105s44 105 105 105s105 -44 105 -105s-44 -105 -105 -105z" />
    <glyph glyph-name="multiply" unicode="&#xd7;" horiz-adv-x="502" 
d="M161 80l-130 130l90 90l-90 90l130 130l90 -90l90 90l131 -129l-91 -91l90 -90l-130 -130l-90 90z" />
    <glyph glyph-name="Oslash" unicode="&#xd8;" horiz-adv-x="861" 
d="M561 726l70 134h126l-95 -180c104 -68 169 -182 169 -320c0 -223 -168 -385 -400 -385c-46 0 -90 7 -130 19l-70 -134h-126l94 180c-104 67 -168 182 -168 320c0 223 168 385 400 385c46 0 89 -7 130 -19zM291 360c0 -38 9 -71 25 -98l137 261c-7 1 -15 2 -22 2
c-81 0 -140 -69 -140 -165zM571 360c0 38 -10 71 -26 98l-137 -261c7 -2 15 -2 23 -2c81 0 140 69 140 165z" />
    <glyph glyph-name="Ugrave" unicode="&#xd9;" horiz-adv-x="812" 
d="M501 315v405h260v-415c0 -198 -142 -330 -355 -330s-355 132 -355 330v415h260v-405c0 -57 27 -115 95 -120c57 0 95 48 95 120zM325 790l-158 160h198l116 -160h-156z" />
    <glyph glyph-name="Uacute" unicode="&#xda;" horiz-adv-x="812" 
d="M501 315v405h260v-415c0 -198 -142 -330 -355 -330s-355 132 -355 330v415h260v-405c0 -57 27 -115 95 -120c57 0 95 48 95 120zM630 950l-158 -160h-157l117 160h198z" />
    <glyph glyph-name="Ucircumflex" unicode="&#xdb;" horiz-adv-x="812" 
d="M501 315v405h260v-415c0 -198 -142 -330 -355 -330s-355 132 -355 330v415h260v-405c0 -57 27 -115 95 -120c57 0 95 48 95 120zM346 790h-140l90 160h220l90 -160h-140l-60 80z" />
    <glyph glyph-name="Udieresis" unicode="&#xdc;" horiz-adv-x="812" 
d="M501 315v405h260v-415c0 -198 -142 -330 -355 -330s-355 132 -355 330v415h260v-405c0 -57 27 -115 95 -120c57 0 95 48 95 120zM266 780c-61 0 -105 44 -105 105s44 105 105 105s105 -44 105 -105s-44 -105 -105 -105zM546 780c-61 0 -105 44 -105 105s44 105 105 105
s105 -44 105 -105s-44 -105 -105 -105z" />
    <glyph glyph-name="Yacute" unicode="&#xdd;" horiz-adv-x="743" 
d="M245 240l-245 480h269l106 -260l95 260h273l-238 -480v-240h-260v240zM596 950l-158 -160h-156l116 160h198z" />
    <glyph glyph-name="germandbls" unicode="&#xdf;" horiz-adv-x="811" 
d="M311 490v-490h-260v480c0 159 139 265 349 265c191 0 311 -90 311 -225c0 -55 -36 -99 -95 -122c84 -23 155 -104 155 -208c0 -125 -101 -215 -240 -215c-56 0 -132 17 -181 39l35 144c21 -11 46 -18 63 -18c36 0 63 32 63 76c0 56 -42 94 -105 94h-46v130h50
c43 0 71 24 71 60c0 47 -34 78 -85 78s-85 -35 -85 -88z" />
    <glyph glyph-name="agrave" unicode="&#xe0;" horiz-adv-x="683" 
d="M402 458v62h230v-520h-230v62c-34 -52 -85 -82 -145 -82c-136 0 -226 112 -226 280s90 280 226 280c60 0 111 -30 145 -82zM331 180c41 0 70 34 70 80s-29 80 -70 80s-70 -34 -70 -80s29 -80 70 -80zM112 760h197l110 -180h-150z" />
    <glyph glyph-name="aacute" unicode="&#xe1;" horiz-adv-x="683" 
d="M402 458v62h230v-520h-230v62c-34 -52 -85 -82 -145 -82c-136 0 -226 112 -226 280s90 280 226 280c60 0 111 -30 145 -82zM331 180c41 0 70 34 70 80s-29 80 -70 80s-70 -34 -70 -80s29 -80 70 -80zM352 760h197l-157 -180h-150z" />
    <glyph glyph-name="acircumflex" unicode="&#xe2;" horiz-adv-x="683" 
d="M402 458v62h230v-520h-230v62c-34 -52 -85 -82 -145 -82c-136 0 -226 112 -226 280s90 280 226 280c60 0 111 -30 145 -82zM331 180c41 0 70 34 70 80s-29 80 -70 80s-70 -34 -70 -80s29 -80 70 -80zM272 580h-147l97 180h220l97 -180h-147l-60 100z" />
    <glyph glyph-name="atilde" unicode="&#xe3;" horiz-adv-x="683" 
d="M402 458v62h230v-520h-230v62c-34 -52 -85 -82 -145 -82c-136 0 -226 112 -226 280s90 280 226 280c60 0 111 -30 145 -82zM331 180c41 0 70 34 70 80s-29 80 -70 80s-70 -34 -70 -80s29 -80 70 -80zM216 603l-104 52c20 63 83 115 149 115c71 0 114 -50 147 -50
c18 0 38 15 49 37l105 -52c-20 -62 -87 -115 -156 -115c-74 0 -114 50 -147 50c-18 0 -32 -15 -43 -37z" />
    <glyph glyph-name="adieresis" unicode="&#xe4;" horiz-adv-x="683" 
d="M402 458v62h230v-520h-230v62c-34 -52 -85 -82 -145 -82c-136 0 -226 112 -226 280s90 280 226 280c60 0 111 -30 145 -82zM331 180c41 0 70 34 70 80s-29 80 -70 80s-70 -34 -70 -80s29 -80 70 -80zM192 573c-61 0 -105 42 -105 100s44 100 105 100s105 -42 105 -100
s-44 -100 -105 -100zM472 573c-61 0 -105 42 -105 100s44 100 105 100s105 -42 105 -100s-44 -100 -105 -100z" />
    <glyph glyph-name="aring" unicode="&#xe5;" horiz-adv-x="683" 
d="M402 458v62h230v-520h-230v62c-34 -52 -85 -82 -145 -82c-136 0 -226 112 -226 280s90 280 226 280c60 0 111 -30 145 -82zM331 180c41 0 70 34 70 80s-29 80 -70 80s-70 -34 -70 -80s29 -80 70 -80zM332 570c-102 0 -170 60 -170 150s68 150 170 150s170 -60 170 -150
s-68 -150 -170 -150zM332 770c-30 0 -50 -20 -50 -50s20 -50 50 -50s50 20 50 50s-20 50 -50 50z" />
    <glyph glyph-name="ae" unicode="&#xe6;" horiz-adv-x="1032" 
d="M1002 265c0 -16 -1 -55 -3 -65h-353c7 -35 37 -60 76 -60c31 0 58 17 65 40l194 -27c-31 -100 -134 -173 -247 -173c-82 0 -154 38 -184 91v-71h-130v68c-37 -56 -93 -88 -160 -88c-138 0 -230 112 -230 280s92 280 230 280c67 0 123 -33 160 -88v68h130v-76
c32 56 104 96 193 96c150 0 259 -115 259 -275zM260 260c0 -60 32 -100 80 -100s80 40 80 100s-32 100 -80 100s-80 -40 -80 -100zM645 300h127c-4 38 -29 70 -63 70c-32 0 -56 -22 -64 -70z" />
    <glyph glyph-name="ccedilla" unicode="&#xe7;" horiz-adv-x="637" 
d="M290 -130h-50l22 116c-136 27 -231 134 -231 274c0 162 125 280 298 280c146 0 268 -94 282 -223l-210 -27c-7 35 -36 60 -69 60c-41 0 -71 -38 -71 -90s29 -90 71 -90c33 0 62 25 69 60l210 -25c-13 -118 -113 -206 -240 -222l-11 -63c59 0 98 -37 98 -92
c0 -59 -55 -98 -137 -98c-49 0 -93 24 -111 60l50 50c9 -18 28 -30 48 -30s32 12 32 30s-20 30 -50 30z" />
    <glyph glyph-name="egrave" unicode="&#xe8;" horiz-adv-x="652" 
d="M341 140c33 0 52 17 60 40l200 -25c-20 -101 -134 -175 -275 -175c-175 0 -295 112 -295 280s124 280 300 280c178 0 290 -113 290 -283c0 -16 -1 -48 -3 -57h-350c12 -38 35 -60 73 -60zM265 310h126c0 35 -26 70 -63 70c-35 0 -55 -27 -63 -70zM111 760h197l110 -180
h-150z" />
    <glyph glyph-name="eacute" unicode="&#xe9;" horiz-adv-x="652" 
d="M341 140c33 0 52 17 60 40l200 -25c-20 -101 -134 -175 -275 -175c-175 0 -295 112 -295 280s124 280 300 280c178 0 290 -113 290 -283c0 -16 -1 -48 -3 -57h-350c12 -38 35 -60 73 -60zM265 310h126c0 35 -26 70 -63 70c-35 0 -55 -27 -63 -70zM351 760h197l-157 -180
h-150z" />
    <glyph glyph-name="ecircumflex" unicode="&#xea;" horiz-adv-x="652" 
d="M341 140c33 0 52 17 60 40l200 -25c-20 -101 -134 -175 -275 -175c-175 0 -295 112 -295 280s124 280 300 280c178 0 290 -113 290 -283c0 -16 -1 -48 -3 -57h-350c12 -38 35 -60 73 -60zM265 310h126c0 35 -26 70 -63 70c-35 0 -55 -27 -63 -70zM271 580h-147l97 180
h220l97 -180h-147l-60 100z" />
    <glyph glyph-name="edieresis" unicode="&#xeb;" horiz-adv-x="652" 
d="M341 140c33 0 52 17 60 40l200 -25c-20 -101 -134 -175 -275 -175c-175 0 -295 112 -295 280s124 280 300 280c178 0 290 -113 290 -283c0 -16 -1 -48 -3 -57h-350c12 -38 35 -60 73 -60zM265 310h126c0 35 -26 70 -63 70c-35 0 -55 -27 -63 -70zM191 573
c-61 0 -105 42 -105 100s44 100 105 100s105 -42 105 -100s-44 -100 -105 -100zM471 573c-61 0 -105 42 -105 100s44 100 105 100s105 -42 105 -100s-44 -100 -105 -100z" />
    <glyph glyph-name="igrave" unicode="&#xec;" horiz-adv-x="336" 
d="M286 520v-520h-230v520h230zM-49 760h197l110 -180h-150z" />
    <glyph glyph-name="iacute" unicode="&#xed;" horiz-adv-x="334" 
d="M281 520v-520h-230v520h230zM187 760h197l-157 -180h-151z" />
    <glyph glyph-name="icircumflex" unicode="&#xee;" horiz-adv-x="336" 
d="M283 520v-520h-230v520h230zM108 580h-147l97 180h220l97 -180h-147l-60 100z" />
    <glyph glyph-name="idieresis" unicode="&#xef;" horiz-adv-x="332" 
d="M281 520v-520h-230v520h230zM26 573c-61 0 -105 42 -105 100s44 100 105 100s105 -42 105 -100s-44 -100 -105 -100zM306 573c-61 0 -105 42 -105 100s44 100 105 100s105 -42 105 -100s-44 -100 -105 -100z" />
    <glyph glyph-name="ntilde" unicode="&#xf1;" 
d="M431 540c98 0 170 -84 170 -200v-340h-230v280c0 36 -18 60 -45 60s-45 -24 -45 -60v-280h-230v520h220v-78c38 59 91 98 160 98zM200 603l-104 52c20 63 83 115 149 115c71 0 114 -50 147 -50c18 0 38 15 49 37l105 -52c-20 -62 -87 -115 -156 -115
c-74 0 -114 50 -147 50c-18 0 -32 -15 -43 -37z" />
    <glyph glyph-name="ograve" unicode="&#xf2;" horiz-adv-x="662" 
d="M631 260c0 -168 -120 -280 -300 -280s-300 112 -300 280s120 280 300 280s300 -112 300 -280zM401 260c0 48 -28 80 -70 80s-70 -32 -70 -80s28 -80 70 -80s70 32 70 80zM111 760h197l110 -180h-150z" />
    <glyph glyph-name="oacute" unicode="&#xf3;" horiz-adv-x="662" 
d="M631 260c0 -168 -120 -280 -300 -280s-300 112 -300 280s120 280 300 280s300 -112 300 -280zM401 260c0 48 -28 80 -70 80s-70 -32 -70 -80s28 -80 70 -80s70 32 70 80zM351 760h197l-157 -180h-150z" />
    <glyph glyph-name="ocircumflex" unicode="&#xf4;" horiz-adv-x="662" 
d="M631 260c0 -168 -120 -280 -300 -280s-300 112 -300 280s120 280 300 280s300 -112 300 -280zM401 260c0 48 -28 80 -70 80s-70 -32 -70 -80s28 -80 70 -80s70 32 70 80zM271 580h-147l97 180h220l97 -180h-147l-60 100z" />
    <glyph glyph-name="otilde" unicode="&#xf5;" horiz-adv-x="662" 
d="M631 260c0 -168 -120 -280 -300 -280s-300 112 -300 280s120 280 300 280s300 -112 300 -280zM401 260c0 48 -28 80 -70 80s-70 -32 -70 -80s28 -80 70 -80s70 32 70 80zM215 603l-104 52c20 63 83 115 149 115c71 0 114 -50 147 -50c18 0 38 15 49 37l105 -52
c-20 -62 -87 -115 -156 -115c-74 0 -114 50 -147 50c-18 0 -32 -15 -43 -37z" />
    <glyph glyph-name="odieresis" unicode="&#xf6;" horiz-adv-x="662" 
d="M631 260c0 -168 -120 -280 -300 -280s-300 112 -300 280s120 280 300 280s300 -112 300 -280zM401 260c0 48 -28 80 -70 80s-70 -32 -70 -80s28 -80 70 -80s70 32 70 80zM191 573c-61 0 -105 42 -105 100s44 100 105 100s105 -42 105 -100s-44 -100 -105 -100zM471 573
c-61 0 -105 42 -105 100s44 100 105 100s105 -42 105 -100s-44 -100 -105 -100z" />
    <glyph glyph-name="divide" unicode="&#xf7;" horiz-adv-x="512" 
d="M256 20c-61 0 -105 42 -105 100s44 100 105 100s105 -42 105 -100s-44 -100 -105 -100zM31 410h450v-160h-450v160zM256 440c-61 0 -105 42 -105 100s44 100 105 100s105 -42 105 -100s-44 -100 -105 -100z" />
    <glyph glyph-name="oslash" unicode="&#xf8;" horiz-adv-x="682" 
d="M434 529l37 71h101l-55 -103c84 -47 134 -131 134 -237c0 -168 -124 -280 -310 -280c-33 0 -64 4 -93 11l-37 -71h-102l55 102c-84 47 -133 131 -133 238c0 168 124 280 310 280c33 0 64 -4 93 -11zM231 260c0 -30 7 -55 20 -75l104 195h-14c-63 0 -110 -48 -110 -120z
M451 260c0 29 -7 54 -20 74l-103 -193c4 -1 8 -1 13 -1c66 0 110 48 110 120z" />
    <glyph glyph-name="ugrave" unicode="&#xf9;" 
d="M211 -20c-98 0 -170 84 -170 200v340h230v-280c0 -36 18 -60 45 -60s45 24 45 60v280h230v-520h-220v78c-38 -59 -91 -98 -160 -98zM96 760h197l110 -180h-150z" />
    <glyph glyph-name="uacute" unicode="&#xfa;" 
d="M211 -20c-98 0 -170 84 -170 200v340h230v-280c0 -36 18 -60 45 -60s45 24 45 60v280h230v-520h-220v78c-38 -59 -91 -98 -160 -98zM336 760h197l-157 -180h-150z" />
    <glyph glyph-name="ucircumflex" unicode="&#xfb;" 
d="M211 -20c-98 0 -170 84 -170 200v340h230v-280c0 -36 18 -60 45 -60s45 24 45 60v280h230v-520h-220v78c-38 -59 -91 -98 -160 -98zM256 580h-147l97 180h220l97 -180h-147l-60 100z" />
    <glyph glyph-name="udieresis" unicode="&#xfc;" 
d="M211 -20c-98 0 -170 84 -170 200v340h230v-280c0 -36 18 -60 45 -60s45 24 45 60v280h230v-520h-220v78c-38 -59 -91 -98 -160 -98zM176 573c-61 0 -105 42 -105 100s44 100 105 100s105 -42 105 -100s-44 -100 -105 -100zM456 573c-61 0 -105 42 -105 100
s44 100 105 100s105 -42 105 -100s-44 -100 -105 -100z" />
    <glyph glyph-name="yacute" unicode="&#xfd;" horiz-adv-x="657" 
d="M116 -220v155c9 -3 35 -5 50 -5c51 0 85 0 101 58l-266 532h250l100 -243l70 243h235l-195 -550c-57 -159 -130 -210 -225 -210c-38 0 -88 8 -120 20zM349 760h197l-157 -180h-150z" />
    <glyph glyph-name="ydieresis" unicode="&#xff;" horiz-adv-x="657" 
d="M116 -220v155c9 -3 35 -5 50 -5c51 0 85 0 101 58l-266 532h250l100 -243l70 243h235l-195 -550c-57 -159 -130 -210 -225 -210c-38 0 -88 8 -120 20zM189 573c-61 0 -105 42 -105 100s44 100 105 100s105 -42 105 -100s-44 -100 -105 -100zM469 573
c-61 0 -105 42 -105 100s44 100 105 100s105 -42 105 -100s-44 -100 -105 -100z" />
    <glyph glyph-name="Amacron" unicode="&#x100;" horiz-adv-x="804" 
d="M592 720l211 -720h-271l-23 90h-214l-23 -90h-271l211 720h380zM402 501l-60 -231h120zM586 940v-130h-370v130h370z" />
    <glyph glyph-name="amacron" unicode="&#x101;" horiz-adv-x="683" 
d="M402 458v62h230v-520h-230v62c-34 -52 -85 -82 -145 -82c-136 0 -226 112 -226 280s90 280 226 280c60 0 111 -30 145 -82zM331 180c41 0 70 34 70 80s-29 80 -70 80s-70 -34 -70 -80s29 -80 70 -80zM497 730v-130h-370v130h370z" />
    <glyph glyph-name="Abreve" unicode="&#x102;" horiz-adv-x="804" 
d="M592 720l211 -720h-271l-23 90h-214l-23 -90h-271l211 720h380zM402 501l-60 -231h120zM441 950h130c0 -96 -68 -160 -170 -160s-170 64 -170 160h130c0 -30 16 -50 40 -50s40 20 40 50z" />
    <glyph glyph-name="abreve" unicode="&#x103;" horiz-adv-x="683" 
d="M402 458v62h230v-520h-230v62c-34 -52 -85 -82 -145 -82c-136 0 -226 112 -226 280s90 280 226 280c60 0 111 -30 145 -82zM331 180c41 0 70 34 70 80s-29 80 -70 80s-70 -34 -70 -80s29 -80 70 -80zM352 760h130c0 -112 -47 -180 -170 -180s-170 68 -170 180h130
c0 -42 16 -70 40 -70s40 28 40 70z" />
    <glyph glyph-name="Aogonek" unicode="&#x104;" horiz-adv-x="830" 
d="M681 0h-149l-23 90h-214l-23 -90h-271l211 720h380l211 -720h-4c-57 -22 -96 -52 -96 -96c0 -50 50 -88 126 -88v-95c-150 0 -250 64 -250 153c0 56 39 102 102 126zM402 501l-60 -231h120z" />
    <glyph glyph-name="aogonek" unicode="&#x105;" horiz-adv-x="707" 
d="M509 0h-107v62c-34 -52 -85 -82 -145 -82c-136 0 -226 112 -226 280s90 280 226 280c60 0 111 -30 145 -82v62h230v-520h-5c-58 -22 -96 -52 -96 -96c0 -50 50 -88 126 -88v-95c-150 0 -250 64 -250 153c0 56 39 102 102 126zM331 180c41 0 70 34 70 80s-29 80 -70 80
s-70 -34 -70 -80s29 -80 70 -80z" />
    <glyph glyph-name="Cacute" unicode="&#x106;" horiz-adv-x="842" 
d="M571 303l241 -25c-9 -176 -169 -303 -381 -303c-232 0 -400 162 -400 385s168 385 400 385c207 0 366 -127 378 -303l-239 -25c-11 63 -66 108 -130 108c-90 0 -149 -66 -149 -165s60 -165 148 -165c64 0 120 45 132 108zM655 950l-158 -160h-157l117 160h198z" />
    <glyph glyph-name="cacute" unicode="&#x107;" horiz-adv-x="637" 
d="M611 317l-210 -27c-7 35 -36 60 -69 60c-41 0 -71 -38 -71 -90s29 -90 71 -90c33 0 62 25 69 60l210 -25c-15 -130 -136 -225 -282 -225c-170 0 -298 118 -298 280s125 280 298 280c146 0 268 -94 282 -223zM340 760h197l-157 -180h-150z" />
    <glyph glyph-name="Ccircumflex" unicode="&#x108;" horiz-adv-x="842" 
d="M571 303l241 -25c-9 -176 -169 -303 -381 -303c-232 0 -400 162 -400 385s168 385 400 385c207 0 366 -127 378 -303l-239 -25c-11 63 -66 108 -130 108c-90 0 -149 -66 -149 -165s60 -165 148 -165c64 0 120 45 132 108zM371 790h-140l90 160h220l90 -160h-140l-60 80z
" />
    <glyph glyph-name="ccircumflex" unicode="&#x109;" horiz-adv-x="637" 
d="M611 317l-210 -27c-7 35 -36 60 -69 60c-41 0 -71 -38 -71 -90s29 -90 71 -90c33 0 62 25 69 60l210 -25c-15 -130 -136 -225 -282 -225c-170 0 -298 118 -298 280s125 280 298 280c146 0 268 -94 282 -223zM260 580h-147l97 180h220l97 -180h-147l-60 100z" />
    <glyph glyph-name="Cdotaccent" unicode="&#x10a;" horiz-adv-x="842" 
d="M571 303l241 -25c-9 -176 -169 -303 -381 -303c-232 0 -400 162 -400 385s168 385 400 385c207 0 366 -127 378 -303l-239 -25c-11 63 -66 108 -130 108c-90 0 -149 -66 -149 -165s60 -165 148 -165c64 0 120 45 132 108zM431 790c-67 0 -115 46 -115 110s48 110 115 110
s115 -46 115 -110s-48 -110 -115 -110z" />
    <glyph glyph-name="cdotaccent" unicode="&#x10b;" horiz-adv-x="637" 
d="M611 317l-210 -27c-7 35 -36 60 -69 60c-41 0 -71 -38 -71 -90s29 -90 71 -90c33 0 62 25 69 60l210 -25c-15 -130 -136 -225 -282 -225c-170 0 -298 118 -298 280s125 280 298 280c146 0 268 -94 282 -223zM319 590c-66 0 -115 46 -115 110s49 110 115 110
c68 0 115 -46 115 -110s-47 -110 -115 -110z" />
    <glyph glyph-name="Ccaron" unicode="&#x10c;" horiz-adv-x="842" 
d="M571 303l241 -25c-9 -176 -169 -303 -381 -303c-232 0 -400 162 -400 385s168 385 400 385c207 0 366 -127 378 -303l-239 -25c-11 63 -66 108 -130 108c-90 0 -149 -66 -149 -165s60 -165 148 -165c64 0 120 45 132 108zM491 970h147l-97 -180h-220l-97 180h147l60 -100
z" />
    <glyph glyph-name="ccaron" unicode="&#x10d;" horiz-adv-x="637" 
d="M611 317l-210 -27c-7 35 -36 60 -69 60c-41 0 -71 -38 -71 -90s29 -90 71 -90c33 0 62 25 69 60l210 -25c-15 -130 -136 -225 -282 -225c-170 0 -298 118 -298 280s125 280 298 280c146 0 268 -94 282 -223zM380 760h147l-97 -180h-220l-97 180h147l60 -100z" />
    <glyph glyph-name="Dcaron" unicode="&#x10e;" horiz-adv-x="821" 
d="M61 0v720h320c246 0 410 -144 410 -360s-164 -360 -410 -360h-320zM531 360c0 102 -60 170 -150 170h-70v-340h70c90 0 150 68 150 170zM436 970h147l-97 -180h-220l-97 180h147l60 -100z" />
    <glyph glyph-name="dcaron" unicode="&#x10f;" horiz-adv-x="848" 
d="M391 472v278h230v-750h-230v46c-34 -42 -82 -66 -140 -66c-132 0 -220 112 -220 280s88 280 220 280c57 0 105 -25 140 -68zM261 260c0 -46 29 -80 70 -80s70 34 70 80s-29 80 -70 80s-70 -34 -70 -80zM728 560c-48 0 -80 40 -80 94c0 58 37 96 93 96
c64 0 107 -49 107 -122c0 -77 -41 -165 -97 -208l-93 20c40 33 70 83 70 120z" />
    <glyph glyph-name="Dcroat" unicode="&#x110;" horiz-adv-x="841" 
d="M81 440v280h320c246 0 410 -144 410 -360s-164 -360 -410 -360h-320v310h-80v130h80zM551 360c0 102 -60 170 -150 170h-70v-90h70v-130h-70v-120h70c90 0 150 68 150 170z" />
    <glyph glyph-name="dcroat" unicode="&#x111;" horiz-adv-x="681" 
d="M391 472v98h-120v110h120v70h230v-70h60v-110h-60v-570h-230v46c-34 -42 -82 -66 -140 -66c-132 0 -220 112 -220 280s88 280 220 280c57 0 105 -25 140 -68zM261 260c0 -46 29 -80 70 -80s70 34 70 80s-29 80 -70 80s-70 -34 -70 -80z" />
    <glyph glyph-name="Emacron" unicode="&#x112;" horiz-adv-x="621" 
d="M311 200h280v-200h-530v720h520v-200h-270v-70h230v-170h-230v-80zM506 940v-130h-370v130h370z" />
    <glyph glyph-name="emacron" unicode="&#x113;" horiz-adv-x="652" 
d="M341 140c33 0 52 17 60 40l200 -25c-20 -101 -134 -175 -275 -175c-175 0 -295 112 -295 280s124 280 300 280c178 0 290 -113 290 -283c0 -16 -1 -48 -3 -57h-350c12 -38 35 -60 73 -60zM265 310h126c0 35 -26 70 -63 70c-35 0 -55 -27 -63 -70zM516 730v-130h-370v130
h370z" />
    <glyph glyph-name="Ebreve" unicode="&#x114;" horiz-adv-x="621" 
d="M311 200h280v-200h-530v720h520v-200h-270v-70h230v-170h-230v-80zM361 950h130c0 -96 -68 -160 -170 -160s-170 64 -170 160h130c0 -30 16 -50 40 -50s40 20 40 50z" />
    <glyph glyph-name="ebreve" unicode="&#x115;" horiz-adv-x="652" 
d="M341 140c33 0 52 17 60 40l200 -25c-20 -101 -134 -175 -275 -175c-175 0 -295 112 -295 280s124 280 300 280c178 0 290 -113 290 -283c0 -16 -1 -48 -3 -57h-350c12 -38 35 -60 73 -60zM265 310h126c0 35 -26 70 -63 70c-35 0 -55 -27 -63 -70zM371 760h130
c0 -112 -47 -180 -170 -180s-170 68 -170 180h130c0 -42 16 -70 40 -70s40 28 40 70z" />
    <glyph glyph-name="Edotaccent" unicode="&#x116;" horiz-adv-x="621" 
d="M311 200h280v-200h-530v720h520v-200h-270v-70h230v-170h-230v-80zM321 790c-67 0 -115 46 -115 110s48 110 115 110s115 -46 115 -110s-48 -110 -115 -110z" />
    <glyph glyph-name="edotaccent" unicode="&#x117;" horiz-adv-x="652" 
d="M341 140c33 0 52 17 60 40l200 -25c-20 -101 -134 -175 -275 -175c-175 0 -295 112 -295 280s124 280 300 280c178 0 290 -113 290 -283c0 -16 -1 -48 -3 -57h-350c12 -38 35 -60 73 -60zM265 310h126c0 35 -26 70 -63 70c-35 0 -55 -27 -63 -70zM330 590
c-66 0 -115 46 -115 110s49 110 115 110c68 0 115 -46 115 -110s-47 -110 -115 -110z" />
    <glyph glyph-name="Eogonek" unicode="&#x118;" horiz-adv-x="621" 
d="M443 0h-382v720h520v-200h-270v-70h230v-170h-230v-80h280v-200h-30c-57 -22 -96 -52 -96 -96c0 -50 50 -88 126 -88v-95c-150 0 -250 64 -250 153c0 56 39 102 102 126z" />
    <glyph glyph-name="eogonek" unicode="&#x119;" horiz-adv-x="652" 
d="M302 -19c-162 10 -271 119 -271 279c0 168 124 280 300 280c178 0 290 -113 290 -283c0 -16 -1 -48 -3 -57h-350c12 -38 35 -60 73 -60c33 0 52 17 60 40l200 -25c-14 -69 -70 -125 -150 -154l9 -1c-59 -22 -99 -52 -99 -97c0 -50 50 -88 126 -88v-95
c-150 0 -250 64 -250 153c0 44 24 82 65 108zM265 310h126c0 35 -26 70 -63 70c-35 0 -55 -27 -63 -70z" />
    <glyph glyph-name="Ecaron" unicode="&#x11a;" horiz-adv-x="621" 
d="M311 200h280v-200h-530v720h520v-200h-270v-70h230v-170h-230v-80zM381 970h147l-97 -180h-220l-97 180h147l60 -100z" />
    <glyph glyph-name="ecaron" unicode="&#x11b;" horiz-adv-x="652" 
d="M341 140c33 0 52 17 60 40l200 -25c-20 -101 -134 -175 -275 -175c-175 0 -295 112 -295 280s124 280 300 280c178 0 290 -113 290 -283c0 -16 -1 -48 -3 -57h-350c12 -38 35 -60 73 -60zM265 310h126c0 35 -26 70 -63 70c-35 0 -55 -27 -63 -70zM391 760h147l-97 -180
h-220l-97 180h147l60 -100z" />
    <glyph glyph-name="Gcircumflex" unicode="&#x11c;" horiz-adv-x="861" 
d="M581 280h-150v140h397c29 -258 -134 -445 -387 -445c-238 0 -410 162 -410 385s172 385 410 385c185 0 327 -106 357 -255l-239 -40c-13 44 -62 75 -120 75c-86 0 -148 -69 -148 -165s66 -165 160 -165c67 0 123 36 130 85zM381 790h-140l90 160h220l90 -160h-140l-60 80
z" />
    <glyph glyph-name="gcircumflex" unicode="&#x11d;" horiz-adv-x="672" 
d="M50 -40l198 20c6 -35 37 -60 72 -60c42 0 71 36 71 90v52c-35 -39 -83 -62 -142 -62c-126 0 -218 104 -218 260c0 168 92 280 218 280c59 0 107 -24 142 -67v47h230v-520c0 -150 -116 -250 -290 -250c-154 0 -272 88 -281 210zM331 180c41 0 70 34 70 80s-29 80 -70 80
s-70 -34 -70 -80s29 -80 70 -80zM266 580h-147l97 180h220l97 -180h-147l-60 100z" />
    <glyph glyph-name="Gbreve" unicode="&#x11e;" horiz-adv-x="861" 
d="M581 280h-150v140h397c29 -258 -134 -445 -387 -445c-238 0 -410 162 -410 385s172 385 410 385c185 0 327 -106 357 -255l-239 -40c-13 44 -62 75 -120 75c-86 0 -148 -69 -148 -165s66 -165 160 -165c67 0 123 36 130 85zM481 950h130c0 -96 -68 -160 -170 -160
s-170 64 -170 160h130c0 -30 16 -50 40 -50s40 20 40 50z" />
    <glyph glyph-name="gbreve" unicode="&#x11f;" horiz-adv-x="672" 
d="M50 -40l198 20c6 -35 37 -60 72 -60c42 0 71 36 71 90v52c-35 -39 -83 -62 -142 -62c-126 0 -218 104 -218 260c0 168 92 280 218 280c59 0 107 -24 142 -67v47h230v-520c0 -150 -116 -250 -290 -250c-154 0 -272 88 -281 210zM331 180c41 0 70 34 70 80s-29 80 -70 80
s-70 -34 -70 -80s29 -80 70 -80zM366 760h130c0 -112 -47 -180 -170 -180s-170 68 -170 180h130c0 -42 16 -70 40 -70s40 28 40 70z" />
    <glyph glyph-name="Gdotaccent" unicode="&#x120;" horiz-adv-x="861" 
d="M581 280h-150v140h397c29 -258 -134 -445 -387 -445c-238 0 -410 162 -410 385s172 385 410 385c185 0 327 -106 357 -255l-239 -40c-13 44 -62 75 -120 75c-86 0 -148 -69 -148 -165s66 -165 160 -165c67 0 123 36 130 85zM441 790c-67 0 -115 46 -115 110
s48 110 115 110s115 -46 115 -110s-48 -110 -115 -110z" />
    <glyph glyph-name="gdotaccent" unicode="&#x121;" horiz-adv-x="672" 
d="M50 -40l198 20c6 -35 37 -60 72 -60c42 0 71 36 71 90v52c-35 -39 -83 -62 -142 -62c-126 0 -218 104 -218 260c0 168 92 280 218 280c59 0 107 -24 142 -67v47h230v-520c0 -150 -116 -250 -290 -250c-154 0 -272 88 -281 210zM331 180c41 0 70 34 70 80s-29 80 -70 80
s-70 -34 -70 -80s29 -80 70 -80zM325 590c-66 0 -115 46 -115 110s49 110 115 110c68 0 115 -46 115 -110s-47 -110 -115 -110z" />
    <glyph glyph-name="Gcommaaccent" unicode="&#x122;" horiz-adv-x="861" 
d="M581 280h-150v140h397c29 -258 -134 -445 -387 -445c-238 0 -410 162 -410 385s172 385 410 385c185 0 327 -106 357 -255l-239 -40c-13 44 -62 75 -120 75c-86 0 -148 -69 -148 -165s66 -165 160 -165c67 0 123 36 130 85zM428 -260c-48 0 -80 40 -80 94
c0 58 37 96 93 96c64 0 107 -49 107 -122c0 -77 -41 -165 -97 -208l-93 20c40 33 70 83 70 120z" />
    <glyph glyph-name="gcommaaccent" unicode="&#x123;" horiz-adv-x="672" 
d="M50 -40l198 20c6 -35 37 -60 72 -60c42 0 71 36 71 90v52c-35 -39 -83 -62 -142 -62c-126 0 -218 104 -218 260c0 168 92 280 218 280c59 0 107 -24 142 -67v47h230v-520c0 -150 -116 -250 -290 -250c-154 0 -272 88 -281 210zM331 180c41 0 70 34 70 80s-29 80 -70 80
s-70 -34 -70 -80s29 -80 70 -80zM333 760c48 0 80 -40 80 -94c0 -58 -37 -96 -93 -96c-64 0 -107 49 -107 122c0 77 40 165 96 208l94 -20c-41 -33 -70 -83 -70 -120z" />
    <glyph glyph-name="Itilde" unicode="&#x128;" horiz-adv-x="372" 
d="M321 720v-720h-260v720h260zM65 823l-104 52c20 63 83 115 149 115c71 0 114 -50 147 -50c18 0 38 15 49 37l105 -52c-20 -62 -87 -115 -156 -115c-74 0 -114 50 -147 50c-18 0 -32 -15 -43 -37z" />
    <glyph glyph-name="itilde" unicode="&#x129;" horiz-adv-x="332" 
d="M276 520v-520h-230v520h230zM45 603l-104 52c20 63 83 115 149 115c71 0 114 -50 147 -50c18 0 38 15 49 37l105 -52c-20 -62 -87 -115 -156 -115c-74 0 -114 50 -147 50c-18 0 -32 -15 -43 -37z" />
    <glyph glyph-name="Imacron" unicode="&#x12a;" horiz-adv-x="382" 
d="M321 720v-720h-260v720h260zM376 940v-130h-370v130h370z" />
    <glyph glyph-name="imacron" unicode="&#x12b;" horiz-adv-x="352" 
d="M291 520v-520h-230v520h230zM361 730v-130h-370v130h370z" />
    <glyph glyph-name="Iogonek" unicode="&#x12e;" horiz-adv-x="408" 
d="M200 0h-139v720h260v-720h-3c-58 -22 -97 -52 -97 -96c0 -50 50 -88 126 -88v-95c-150 0 -250 64 -250 153c0 56 40 102 103 126z" />
    <glyph glyph-name="iogonek" unicode="&#x12f;" horiz-adv-x="368" 
d="M169 0h-108v520h230v-520h-4c-57 -22 -96 -52 -96 -96c0 -50 50 -88 126 -88v-95c-150 0 -250 64 -250 153c0 56 39 102 102 126zM51 680c0 70 53 120 125 120c73 0 125 -50 125 -120s-52 -120 -125 -120c-72 0 -125 50 -125 120z" />
    <glyph glyph-name="Idotaccent" unicode="&#x130;" horiz-adv-x="382" 
d="M321 720v-720h-260v720h260zM191 790c-67 0 -115 46 -115 110s48 110 115 110s115 -46 115 -110s-48 -110 -115 -110z" />
    <glyph glyph-name="dotlessi" unicode="&#x131;" horiz-adv-x="332" 
d="M281 520v-520h-230v520h230z" />
    <glyph glyph-name="IJ" unicode="&#x132;" horiz-adv-x="882" 
d="M321 720v-720h-260v720h260zM562 280v440h260v-480c0 -156 -115 -260 -272 -260c-57 0 -120 8 -158 20v190c21 -6 53 -10 80 -10c54 0 90 40 90 100z" />
    <glyph glyph-name="ij" unicode="&#x133;" horiz-adv-x="692" 
d="M291 520v-520h-230v520h230zM402 10v510h230v-540c0 -132 -85 -220 -212 -220c-45 0 -100 8 -138 20v175c14 -3 36 -5 55 -5c39 0 65 24 65 60zM51 680c0 70 53 120 125 120c73 0 125 -50 125 -120s-52 -120 -125 -120c-72 0 -125 50 -125 120zM392 680
c0 70 53 120 125 120c73 0 125 -50 125 -120s-52 -120 -125 -120c-72 0 -125 50 -125 120z" />
    <glyph glyph-name="Kcommaaccent" unicode="&#x136;" horiz-adv-x="795" 
d="M61 720h260v-266l170 266h303l-243 -340l243 -380h-303l-170 295v-295h-260v720zM388 -260c-48 0 -80 40 -80 94c0 58 37 96 93 96c64 0 107 -49 107 -122c0 -77 -41 -165 -97 -208l-93 20c40 33 70 83 70 120z" />
    <glyph glyph-name="kcommaaccent" unicode="&#x137;" horiz-adv-x="677" 
d="M51 750h230v-407l130 177h264l-194 -250l196 -270h-266l-130 196v-196h-230v750zM323 -260c-48 0 -80 40 -80 94c0 58 37 96 93 96c64 0 107 -49 107 -122c0 -77 -41 -165 -97 -208l-93 20c40 33 70 83 70 120z" />
    <glyph glyph-name="Lacute" unicode="&#x139;" horiz-adv-x="581" 
d="M551 0h-490v720h260v-500h230v-220zM409 950l-158 -160h-156l116 160h198z" />
    <glyph glyph-name="lacute" unicode="&#x13a;" horiz-adv-x="429" 
d="M281 750v-750h-230v750h230zM378 960l-157 -180h-150l110 180h197z" />
    <glyph glyph-name="Lcommaaccent" unicode="&#x13b;" horiz-adv-x="581" 
d="M551 0h-490v720h260v-500h230v-220zM288 -260c-48 0 -80 40 -80 94c0 58 37 96 93 96c64 0 107 -49 107 -122c0 -77 -41 -165 -97 -208l-93 20c40 33 70 83 70 120z" />
    <glyph glyph-name="lcommaaccent" unicode="&#x13c;" horiz-adv-x="332" 
d="M281 750v-750h-230v750h230zM147 -260c-48 0 -80 40 -80 94c0 58 37 96 93 96c64 0 107 -49 107 -122c0 -77 -41 -165 -97 -208l-93 20c40 33 70 83 70 120z" />
    <glyph glyph-name="Lcaron" unicode="&#x13d;" horiz-adv-x="588" 
d="M551 0h-490v720h260v-500h230v-220zM438 560c-48 0 -80 40 -80 94c0 58 37 96 93 96c64 0 107 -49 107 -122c0 -77 -41 -165 -97 -208l-93 20c40 33 70 83 70 120z" />
    <glyph glyph-name="lcaron" unicode="&#x13e;" horiz-adv-x="521" 
d="M281 750v-750h-230v750h230zM401 560c-48 0 -80 40 -80 94c0 58 37 96 93 96c64 0 107 -49 107 -122c0 -77 -41 -165 -97 -208l-93 20c40 33 70 83 70 120z" />
    <glyph glyph-name="Lslash" unicode="&#x141;" horiz-adv-x="521" 
d="M1 310l100 63v347h260v-183l210 133v-187l-210 -133v-130h230v-220h-490v186l-100 -63v187z" />
    <glyph glyph-name="lslash" unicode="&#x142;" horiz-adv-x="510" 
d="M370 366v-366h-230v220l-120 -77v187l120 77v343h230v-197l120 77v-187z" />
    <glyph glyph-name="Nacute" unicode="&#x143;" horiz-adv-x="832" 
d="M321 720l210 -407v407h240v-720h-260l-210 405v-405h-240v720h260zM642 950l-158 -160h-157l117 160h198z" />
    <glyph glyph-name="nacute" unicode="&#x144;" 
d="M431 540c98 0 170 -84 170 -200v-340h-230v280c0 36 -18 60 -45 60s-45 -24 -45 -60v-280h-230v520h220v-78c38 59 91 98 160 98zM376 760h197l-157 -180h-150z" />
    <glyph glyph-name="Ncommaaccent" unicode="&#x145;" horiz-adv-x="832" 
d="M321 720l210 -407v407h240v-720h-260l-210 405v-405h-240v720h260zM403 -260c-48 0 -80 40 -80 94c0 58 37 96 93 96c64 0 107 -49 107 -122c0 -77 -40 -165 -96 -208l-94 20c41 33 70 83 70 120z" />
    <glyph glyph-name="ncommaaccent" unicode="&#x146;" 
d="M431 540c98 0 170 -84 170 -200v-340h-230v280c0 36 -18 60 -45 60s-45 -24 -45 -60v-280h-230v520h220v-78c38 59 91 98 160 98zM311 -260c-48 0 -80 40 -80 94c0 58 37 96 93 96c64 0 107 -49 107 -122c0 -77 -41 -165 -97 -208l-93 20c40 33 70 83 70 120z" />
    <glyph glyph-name="Ncaron" unicode="&#x147;" horiz-adv-x="832" 
d="M321 720l210 -407v407h240v-720h-260l-210 405v-405h-240v720h260zM478 970h147l-97 -180h-220l-97 180h147l60 -100z" />
    <glyph glyph-name="ncaron" unicode="&#x148;" 
d="M431 540c98 0 170 -84 170 -200v-340h-230v280c0 36 -18 60 -45 60s-45 -24 -45 -60v-280h-230v520h220v-78c38 59 91 98 160 98zM416 760h147l-97 -180h-220l-97 180h147l60 -100z" />
    <glyph glyph-name="Omacron" unicode="&#x14c;" horiz-adv-x="881" 
d="M31 360c0 231 164 385 410 385s410 -154 410 -385s-164 -385 -410 -385s-410 154 -410 385zM291 360c0 -99 60 -165 150 -165s150 66 150 165s-60 165 -150 165s-150 -66 -150 -165zM626 940v-130h-370v130h370z" />
    <glyph glyph-name="omacron" unicode="&#x14d;" horiz-adv-x="662" 
d="M631 260c0 -168 -120 -280 -300 -280s-300 112 -300 280s120 280 300 280s300 -112 300 -280zM401 260c0 48 -28 80 -70 80s-70 -32 -70 -80s28 -80 70 -80s70 32 70 80zM516 730v-130h-370v130h370z" />
    <glyph glyph-name="Obreve" unicode="&#x14e;" horiz-adv-x="881" 
d="M31 360c0 231 164 385 410 385s410 -154 410 -385s-164 -385 -410 -385s-410 154 -410 385zM291 360c0 -99 60 -165 150 -165s150 66 150 165s-60 165 -150 165s-150 -66 -150 -165zM481 950h130c0 -96 -68 -160 -170 -160s-170 64 -170 160h130c0 -30 16 -50 40 -50
s40 20 40 50z" />
    <glyph glyph-name="obreve" unicode="&#x14f;" horiz-adv-x="662" 
d="M631 260c0 -168 -120 -280 -300 -280s-300 112 -300 280s120 280 300 280s300 -112 300 -280zM401 260c0 48 -28 80 -70 80s-70 -32 -70 -80s28 -80 70 -80s70 32 70 80zM371 760h130c0 -112 -47 -180 -170 -180s-170 68 -170 180h130c0 -42 16 -70 40 -70s40 28 40 70z
" />
    <glyph glyph-name="Ohungarumlaut" unicode="&#x150;" horiz-adv-x="881" 
d="M31 360c0 231 164 385 410 385s410 -154 410 -385s-164 -385 -410 -385s-410 154 -410 385zM291 360c0 -99 60 -165 150 -165s150 66 150 165s-60 165 -150 165s-150 -66 -150 -165zM353 950h190l-130 -160h-152zM583 950h190l-150 -160h-152z" />
    <glyph glyph-name="ohungarumlaut" unicode="&#x151;" horiz-adv-x="660" 
d="M630 260c0 -168 -120 -280 -300 -280s-300 112 -300 280s120 280 300 280s300 -112 300 -280zM400 260c0 48 -28 80 -70 80s-70 -32 -70 -80s28 -80 70 -80s70 32 70 80zM233 760h197l-137 -180h-143zM463 760h207l-167 -180h-150z" />
    <glyph glyph-name="OE" unicode="&#x152;" horiz-adv-x="1041" 
d="M31 360c0 231 130 385 370 385c41 0 82 -9 120 -25h480v-200h-230v-70h190v-170h-190v-80h240v-200h-488c-40 -17 -82 -25 -122 -25c-240 0 -370 154 -370 385zM521 231v258c-24 23 -57 36 -90 36c-81 0 -140 -69 -140 -165s59 -165 140 -165c33 0 66 13 90 36z" />
    <glyph glyph-name="oe" unicode="&#x153;" horiz-adv-x="1023" 
d="M711 140c31 0 52 17 62 40l188 -38c-24 -94 -131 -162 -254 -162c-87 0 -149 25 -190 70c-40 -45 -101 -70 -186 -70c-180 0 -300 112 -300 280s120 280 300 280c86 0 147 -26 187 -71c42 45 105 71 194 71c168 0 280 -113 280 -283c0 -16 -1 -48 -3 -57h-350
c12 -38 35 -60 72 -60zM401 260c0 48 -28 80 -70 80s-70 -32 -70 -80s28 -80 70 -80s70 32 70 80zM636 310h126c0 35 -26 70 -63 70c-35 0 -55 -27 -63 -70z" />
    <glyph glyph-name="Racute" unicode="&#x154;" horiz-adv-x="805" 
d="M61 0v720h383c185 0 307 -103 307 -260c0 -97 -53 -170 -140 -208l164 -252h-284l-110 220h-60v-220h-260zM391 540h-70v-160h70c54 0 100 29 100 80s-46 80 -100 80zM615 950l-158 -160h-157l117 160h198z" />
    <glyph glyph-name="racute" unicode="&#x155;" horiz-adv-x="484" 
d="M406 540c19 0 38 -4 55 -12v-203c-32 14 -70 23 -96 23c-50 0 -84 -35 -84 -88v-260h-230v520h220v-66c27 52 81 86 135 86zM276 760h197l-157 -180h-150z" />
    <glyph glyph-name="Rcommaaccent" unicode="&#x156;" horiz-adv-x="805" 
d="M61 0v720h383c185 0 307 -103 307 -260c0 -97 -53 -170 -140 -208l164 -252h-284l-110 220h-60v-220h-260zM391 540h-70v-160h70c54 0 100 29 100 80s-46 80 -100 80zM387 -260c-48 0 -80 40 -80 94c0 58 37 96 93 96c64 0 107 -49 107 -122c0 -78 -40 -165 -96 -209
l-94 21c41 32 70 83 70 120z" />
    <glyph glyph-name="rcommaaccent" unicode="&#x157;" horiz-adv-x="471" 
d="M406 540c19 0 38 -4 55 -12v-203c-32 14 -70 23 -96 23c-50 0 -84 -35 -84 -88v-260h-230v520h220v-66c27 52 81 86 135 86zM153 -260c-48 0 -80 40 -80 94c0 58 37 96 93 96c64 0 107 -49 107 -122c0 -77 -41 -165 -97 -208l-93 20c40 33 70 83 70 120z" />
    <glyph glyph-name="Rcaron" unicode="&#x158;" horiz-adv-x="805" 
d="M61 0v720h383c185 0 307 -103 307 -260c0 -97 -53 -170 -140 -208l164 -252h-284l-110 220h-60v-220h-260zM391 540h-70v-160h70c54 0 100 29 100 80s-46 80 -100 80zM451 970h147l-97 -180h-220l-97 180h147l60 -100z" />
    <glyph glyph-name="rcaron" unicode="&#x159;" horiz-adv-x="471" 
d="M406 540c19 0 38 -4 55 -12v-203c-32 14 -70 23 -96 23c-50 0 -84 -35 -84 -88v-260h-230v520h220v-66c27 52 81 86 135 86zM316 760h147l-97 -180h-220l-97 180h147l60 -100z" />
    <glyph glyph-name="Sacute" unicode="&#x15a;" horiz-adv-x="733" 
d="M358 -25c-187 0 -322 111 -322 264h222c0 -49 48 -84 109 -84c47 0 81 21 81 50c0 104 -410 -16 -410 285c0 154 134 255 320 255c187 0 322 -107 322 -254h-212c0 43 -43 74 -101 74c-45 0 -79 -19 -79 -45c0 -99 410 22 410 -280c0 -159 -143 -265 -340 -265zM582 950
l-158 -160h-156l116 160h198z" />
    <glyph glyph-name="sacute" unicode="&#x15b;" horiz-adv-x="582" 
d="M282 -25c-146 0 -251 81 -251 193h181c0 -31 31 -53 75 -53c31 0 55 15 55 36c0 82 -310 -32 -310 199c0 113 105 195 250 195c147 0 255 -77 255 -184h-191c0 26 -28 44 -63 44c-30 0 -51 -13 -51 -31c0 -72 330 8 330 -193c0 -121 -112 -206 -280 -206zM312 760h197
l-157 -180h-150z" />
    <glyph glyph-name="Scircumflex" unicode="&#x15c;" horiz-adv-x="733" 
d="M358 -25c-187 0 -322 111 -322 264h222c0 -49 48 -84 109 -84c47 0 81 21 81 50c0 104 -410 -16 -410 285c0 154 134 255 320 255c187 0 322 -107 322 -254h-212c0 43 -43 74 -101 74c-45 0 -79 -19 -79 -45c0 -99 410 22 410 -280c0 -159 -143 -265 -340 -265zM298 790
h-140l90 160h220l90 -160h-140l-60 80z" />
    <glyph glyph-name="scircumflex" unicode="&#x15d;" horiz-adv-x="582" 
d="M282 -25c-146 0 -251 81 -251 193h181c0 -31 31 -53 75 -53c31 0 55 15 55 36c0 82 -310 -32 -310 199c0 113 105 195 250 195c147 0 255 -77 255 -184h-191c0 26 -28 44 -63 44c-30 0 -51 -13 -51 -31c0 -72 330 8 330 -193c0 -121 -112 -206 -280 -206zM232 580h-147
l97 180h220l97 -180h-147l-60 100z" />
    <glyph glyph-name="Scedilla" unicode="&#x15e;" horiz-adv-x="733" 
d="M318 -130h-50l21 110c-150 24 -253 125 -253 259h222c0 -49 48 -84 109 -84c47 0 81 21 81 50c0 104 -410 -16 -410 285c0 154 134 255 320 255c187 0 322 -107 322 -254h-212c0 43 -43 74 -101 74c-45 0 -79 -19 -79 -45c0 -99 410 22 410 -280
c0 -148 -124 -250 -300 -263l-10 -57c59 0 98 -37 98 -92c0 -59 -55 -98 -137 -98c-49 0 -93 24 -111 60l50 50c9 -18 28 -30 48 -30s32 12 32 30s-20 30 -50 30z" />
    <glyph glyph-name="scedilla" unicode="&#x15f;" horiz-adv-x="582" 
d="M272 -130h-50l20 107c-125 13 -211 89 -211 191h181c0 -31 31 -53 75 -53c31 0 55 15 55 36c0 82 -310 -32 -310 199c0 113 105 195 250 195c147 0 255 -77 255 -184h-191c0 26 -28 44 -63 44c-30 0 -51 -13 -51 -31c0 -72 330 8 330 -193c0 -103 -82 -180 -209 -201
l-11 -60c59 0 98 -37 98 -92c0 -59 -55 -98 -137 -98c-49 0 -93 24 -111 60l50 50c9 -18 28 -30 48 -30s32 12 32 30s-20 30 -50 30z" />
    <glyph glyph-name="Scaron" unicode="&#x160;" horiz-adv-x="733" 
d="M358 -25c-187 0 -322 111 -322 264h222c0 -49 48 -84 109 -84c47 0 81 21 81 50c0 104 -410 -16 -410 285c0 154 134 255 320 255c187 0 322 -107 322 -254h-212c0 43 -43 74 -101 74c-45 0 -79 -19 -79 -45c0 -99 410 22 410 -280c0 -159 -143 -265 -340 -265zM418 970
h147l-97 -180h-220l-97 180h147l60 -100z" />
    <glyph glyph-name="scaron" unicode="&#x161;" horiz-adv-x="582" 
d="M282 -25c-146 0 -251 81 -251 193h181c0 -31 31 -53 75 -53c31 0 55 15 55 36c0 82 -310 -32 -310 199c0 113 105 195 250 195c147 0 255 -77 255 -184h-191c0 26 -28 44 -63 44c-30 0 -51 -13 -51 -31c0 -72 330 8 330 -193c0 -121 -112 -206 -280 -206zM332 760h147
l-97 -180h-220l-98 180h148l60 -100z" />
    <glyph glyph-name="Tcommaaccent" unicode="&#x162;" horiz-adv-x="662" 
d="M201 510h-190v210h640v-210h-190v-510h-260v510zM316 -260c-48 0 -80 40 -80 94c0 58 37 96 93 96c64 0 107 -49 107 -122c0 -78 -41 -165 -96 -208l-94 20c41 33 70 83 70 120z" />
    <glyph glyph-name="tcommaaccent" unicode="&#x163;" horiz-adv-x="442" 
d="M81 210v140h-60v170h70l20 140h200v-140h100v-170h-100v-110c0 -36 22 -60 55 -60c13 0 31 2 45 5v-185c-38 -12 -87 -20 -128 -20c-121 0 -202 98 -202 230zM242 -260c-48 0 -80 40 -80 94c0 58 37 96 93 96c64 0 107 -49 107 -122c0 -77 -41 -165 -97 -208l-93 20
c40 33 70 83 70 120z" />
    <glyph glyph-name="Tcaron" unicode="&#x164;" horiz-adv-x="662" 
d="M201 510h-190v210h640v-210h-190v-510h-260v510zM391 970h147l-97 -180h-220l-97 180h147l60 -100z" />
    <glyph glyph-name="tcaron" unicode="&#x165;" horiz-adv-x="519" 
d="M81 210v140h-60v170h70l20 140h200v-140h100v-170h-100v-110c0 -36 22 -60 55 -60c13 0 31 2 45 5v-185c-38 -12 -87 -20 -128 -20c-121 0 -202 98 -202 230zM399 700c-48 0 -80 40 -80 94c0 58 37 96 93 96c64 0 107 -49 107 -122c0 -77 -41 -165 -97 -208l-93 20
c40 33 70 83 70 120z" />
    <glyph glyph-name="Utilde" unicode="&#x168;" horiz-adv-x="812" 
d="M501 315v405h260v-415c0 -198 -142 -330 -355 -330s-355 132 -355 330v415h260v-405c0 -57 27 -115 95 -120c57 0 95 48 95 120zM280 823l-104 52c20 63 83 115 149 115c71 0 114 -50 147 -50c18 0 38 15 49 37l105 -52c-20 -62 -87 -115 -156 -115
c-74 0 -114 50 -147 50c-18 0 -32 -15 -43 -37z" />
    <glyph glyph-name="utilde" unicode="&#x169;" 
d="M211 -20c-98 0 -170 84 -170 200v340h230v-280c0 -36 18 -60 45 -60s45 24 45 60v280h230v-520h-220v78c-38 -59 -91 -98 -160 -98zM200 603l-104 52c20 63 83 115 149 115c71 0 114 -50 147 -50c18 0 38 15 49 37l105 -52c-20 -62 -87 -115 -156 -115
c-74 0 -114 50 -147 50c-18 0 -32 -15 -43 -37z" />
    <glyph glyph-name="Umacron" unicode="&#x16a;" horiz-adv-x="812" 
d="M501 315v405h260v-415c0 -198 -142 -330 -355 -330s-355 132 -355 330v415h260v-405c0 -57 27 -115 95 -120c57 0 95 48 95 120zM591 940v-130h-370v130h370z" />
    <glyph glyph-name="umacron" unicode="&#x16b;" 
d="M211 -20c-98 0 -170 84 -170 200v340h230v-280c0 -36 18 -60 45 -60s45 24 45 60v280h230v-520h-220v78c-38 -59 -91 -98 -160 -98zM501 730v-130h-370v130h370z" />
    <glyph glyph-name="Ubreve" unicode="&#x16c;" horiz-adv-x="812" 
d="M501 315v405h260v-415c0 -198 -142 -330 -355 -330s-355 132 -355 330v415h260v-405c0 -57 27 -115 95 -120c57 0 95 48 95 120zM446 950h130c0 -96 -68 -160 -170 -160s-170 64 -170 160h130c0 -30 16 -50 40 -50s40 20 40 50z" />
    <glyph glyph-name="ubreve" unicode="&#x16d;" 
d="M211 -20c-98 0 -170 84 -170 200v340h230v-280c0 -36 18 -60 45 -60s45 24 45 60v280h230v-520h-220v78c-38 -59 -91 -98 -160 -98zM356 760h130c0 -112 -47 -180 -170 -180s-170 68 -170 180h130c0 -42 16 -70 40 -70s40 28 40 70z" />
    <glyph glyph-name="Uring" unicode="&#x16e;" horiz-adv-x="812" 
d="M501 315v405h260v-415c0 -198 -142 -330 -355 -330s-355 132 -355 330v415h260v-405c0 -57 27 -115 95 -120c57 0 95 48 95 120zM406 780c-102 0 -170 60 -170 150s68 150 170 150s170 -60 170 -150s-68 -150 -170 -150zM406 980c-30 0 -50 -20 -50 -50s20 -50 50 -50
s50 20 50 50s-20 50 -50 50z" />
    <glyph glyph-name="uring" unicode="&#x16f;" 
d="M211 -20c-98 0 -170 84 -170 200v340h230v-280c0 -36 18 -60 45 -60s45 24 45 60v280h230v-520h-220v78c-38 -59 -91 -98 -160 -98zM316 570c-102 0 -170 60 -170 150s68 150 170 150s170 -60 170 -150s-68 -150 -170 -150zM316 770c-30 0 -50 -20 -50 -50s20 -50 50 -50
s50 20 50 50s-20 50 -50 50z" />
    <glyph glyph-name="Uhungarumlaut" unicode="&#x170;" horiz-adv-x="812" 
d="M501 315v405h260v-415c0 -198 -142 -330 -355 -330s-355 132 -355 330v415h260v-405c0 -57 27 -115 95 -120c57 0 95 48 95 120zM313 950h190l-130 -160h-152zM543 950h190l-150 -160h-152z" />
    <glyph glyph-name="uhungarumlaut" unicode="&#x171;" horiz-adv-x="636" 
d="M211 -20c-98 0 -170 84 -170 200v340h230v-280c0 -36 18 -60 45 -60s45 24 45 60v280h230v-520h-220v78c-38 -59 -91 -98 -160 -98zM209 760h196l-136 -180h-143zM439 760h206l-166 -180h-150z" />
    <glyph glyph-name="Uogonek" unicode="&#x172;" horiz-adv-x="812" 
d="M365 -23c-190 15 -314 143 -314 328v415h260v-405c0 -57 27 -115 95 -120c57 0 95 48 95 120v405h260v-415c0 -171 -106 -292 -271 -323c-37 -19 -59 -45 -59 -79c0 -50 50 -88 126 -88v-95c-150 0 -250 64 -250 153c0 42 21 78 58 104z" />
    <glyph glyph-name="uogonek" unicode="&#x173;" horiz-adv-x="662" 
d="M464 0h-93v78c-38 -59 -91 -98 -160 -98c-98 0 -170 84 -170 200v340h230v-280c0 -36 18 -60 45 -60s45 24 45 60v280h230v-520h-9c-58 -22 -96 -52 -96 -96c0 -50 50 -88 126 -88v-95c-150 0 -250 64 -250 153c0 56 39 102 102 126z" />
    <glyph glyph-name="Wcircumflex" unicode="&#x174;" horiz-adv-x="1284" 
d="M893 238l119 482h261l-191 -720h-350l-90 369l-90 -369h-350l-191 720h261l120 -482l130 482h240zM581 790h-140l90 160h220l90 -160h-140l-60 80z" />
    <glyph glyph-name="wcircumflex" unicode="&#x175;" horiz-adv-x="967" 
d="M149 0l-138 520h238l62 -287l78 287h189l88 -294l63 294h228l-138 -520h-280l-55 250l-55 -250h-280zM424 580h-147l97 180h220l97 -180h-147l-60 100z" />
    <glyph glyph-name="Ycircumflex" unicode="&#x176;" horiz-adv-x="743" 
d="M245 240l-245 480h269l106 -260l95 260h273l-238 -480v-240h-260v240zM312 790h-140l90 160h220l90 -160h-140l-60 80z" />
    <glyph glyph-name="ycircumflex" unicode="&#x177;" horiz-adv-x="657" 
d="M116 -220v155c9 -3 35 -5 50 -5c51 0 85 0 101 58l-266 532h250l100 -243l70 243h235l-195 -550c-57 -159 -130 -210 -225 -210c-38 0 -88 8 -120 20zM269 580h-147l97 180h220l97 -180h-147l-60 100z" />
    <glyph glyph-name="Ydieresis" unicode="&#x178;" horiz-adv-x="743" 
d="M245 240l-245 480h269l106 -260l95 260h273l-238 -480v-240h-260v240zM232 780c-61 0 -105 44 -105 105s44 105 105 105s105 -44 105 -105s-44 -105 -105 -105zM512 780c-61 0 -105 44 -105 105s44 105 105 105s105 -44 105 -105s-44 -105 -105 -105z" />
    <glyph glyph-name="Zacute" unicode="&#x179;" horiz-adv-x="682" 
d="M41 170l260 350h-250v200h580v-170l-247 -350h257v-200h-600v170zM565 950l-158 -160h-157l117 160h198z" />
    <glyph glyph-name="zacute" unicode="&#x17a;" horiz-adv-x="581" 
d="M231 340h-180v180h480v-150l-167 -190h177v-180h-500v150zM312 760h197l-157 -180h-151z" />
    <glyph glyph-name="Zdotaccent" unicode="&#x17b;" horiz-adv-x="682" 
d="M41 170l260 350h-250v200h580v-170l-247 -350h257v-200h-600v170zM341 790c-67 0 -115 46 -115 110s48 110 115 110s115 -46 115 -110s-48 -110 -115 -110z" />
    <glyph glyph-name="zdotaccent" unicode="&#x17c;" horiz-adv-x="581" 
d="M231 340h-180v180h480v-150l-167 -190h177v-180h-500v150zM291 590c-67 0 -115 46 -115 110s48 110 115 110s115 -46 115 -110s-48 -110 -115 -110z" />
    <glyph glyph-name="Zcaron" unicode="&#x17d;" horiz-adv-x="682" 
d="M41 170l260 350h-250v200h580v-170l-247 -350h257v-200h-600v170zM401 970h147l-97 -180h-220l-97 180h147l60 -100z" />
    <glyph glyph-name="zcaron" unicode="&#x17e;" horiz-adv-x="581" 
d="M231 340h-180v180h480v-150l-167 -190h177v-180h-500v150zM351 760h147l-97 -180h-220l-97 180h147l60 -100z" />
    <glyph glyph-name="Aacutering" unicode="&#x1fa;" horiz-adv-x="804" 
d="M592 720l211 -720h-271l-23 90h-214l-23 -90h-271l211 720h380zM402 501l-60 -231h120zM402 740c-93 0 -155 54 -155 135s62 135 155 135s155 -54 155 -135s-62 -135 -155 -135zM402 910c-21 0 -35 -14 -35 -35s14 -35 35 -35s35 14 35 35s-14 35 -35 35zM606 1150
l-138 -120h-156l116 120h178z" />
    <glyph glyph-name="aacutering" unicode="&#x1fb;" horiz-adv-x="683" 
d="M402 458v62h230v-520h-230v62c-34 -52 -85 -82 -145 -82c-136 0 -226 112 -226 280s90 280 226 280c60 0 111 -30 145 -82zM331 180c41 0 70 34 70 80s-29 80 -70 80s-70 -34 -70 -80s29 -80 70 -80zM337 550c-93 0 -155 54 -155 135s62 135 155 135s155 -54 155 -135
s-62 -135 -155 -135zM337 720c-21 0 -35 -14 -35 -35s14 -35 35 -35s35 14 35 35s-14 35 -35 35zM556 950l-108 -110h-146l86 110h168z" />
    <glyph glyph-name="AEacute" unicode="&#x1fc;" horiz-adv-x="1049" 
d="M1019 200v-200h-480v90h-209l-41 -90h-288l348 720h660v-200h-240v-70h200v-170h-200v-80h250zM539 260v288l-131 -288h131zM817 930l-158 -160h-156l116 160h198z" />
    <glyph glyph-name="aeacute" unicode="&#x1fd;" horiz-adv-x="1032" 
d="M1002 265c0 -16 -1 -55 -3 -65h-353c7 -35 37 -60 76 -60c31 0 58 17 65 40l194 -27c-31 -100 -134 -173 -247 -173c-82 0 -154 38 -184 91v-71h-130v68c-37 -56 -93 -88 -160 -88c-138 0 -230 112 -230 280s92 280 230 280c67 0 123 -33 160 -88v68h130v-76
c32 56 104 96 193 96c150 0 259 -115 259 -275zM260 260c0 -60 32 -100 80 -100s80 40 80 100s-32 100 -80 100s-80 -40 -80 -100zM645 300h127c-4 38 -29 70 -63 70c-32 0 -56 -22 -64 -70zM521 750h197l-157 -180h-150z" />
    <glyph glyph-name="Oslashacute" unicode="&#x1fe;" horiz-adv-x="861" 
d="M561 726l70 134h126l-95 -180c104 -68 169 -182 169 -320c0 -223 -168 -385 -400 -385c-46 0 -90 7 -130 19l-70 -134h-126l94 180c-104 67 -168 182 -168 320c0 223 168 385 400 385c46 0 89 -7 130 -19zM291 360c0 -38 9 -71 25 -98l137 261c-7 1 -15 2 -22 2
c-81 0 -140 -69 -140 -165zM571 360c0 38 -10 71 -26 98l-137 -261c7 -2 15 -2 23 -2c81 0 140 69 140 165zM658 940l-158 -160h-156l116 160h198z" />
    <glyph glyph-name="oslashacute" unicode="&#x1ff;" horiz-adv-x="682" 
d="M434 529l37 71h101l-55 -103c84 -47 134 -131 134 -237c0 -168 -124 -280 -310 -280c-33 0 -64 4 -93 11l-37 -71h-102l55 102c-84 47 -133 131 -133 238c0 168 124 280 310 280c33 0 64 -4 93 -11zM251 185l104 195h-14c-63 0 -110 -48 -110 -120c0 -30 7 -55 20 -75z
M451 260c0 29 -7 54 -20 74l-103 -193c4 -1 8 -1 13 -1c66 0 110 48 110 120zM558 760l-157 -180h-150l110 180h197z" />
    <glyph glyph-name="Scommaaccent" unicode="&#x218;" horiz-adv-x="733" 
d="M358 -25c-187 0 -322 111 -322 264h222c0 -49 48 -84 109 -84c47 0 81 21 81 50c0 104 -410 -16 -410 285c0 154 134 255 320 255c187 0 322 -107 322 -254h-212c0 43 -43 74 -101 74c-45 0 -79 -19 -79 -45c0 -99 410 22 410 -280c0 -159 -143 -265 -340 -265zM340 -260
c-48 0 -80 40 -80 94c0 58 37 96 94 96c63 0 106 -49 106 -122c0 -77 -40 -165 -96 -208l-94 20c41 33 70 83 70 120z" />
    <glyph glyph-name="scommaaccent" unicode="&#x219;" horiz-adv-x="582" 
d="M282 -25c-146 0 -251 81 -251 193h181c0 -31 31 -53 75 -53c31 0 55 15 55 36c0 82 -310 -32 -310 199c0 113 105 195 250 195c147 0 255 -77 255 -184h-191c0 26 -28 44 -63 44c-30 0 -51 -13 -51 -31c0 -72 330 8 330 -193c0 -121 -112 -206 -280 -206zM279 -260
c-48 0 -80 40 -80 94c0 58 37 96 93 96c64 0 107 -49 107 -122c0 -77 -41 -165 -97 -208l-93 20c40 33 70 83 70 120z" />
    <glyph glyph-name="circumflex" unicode="&#x2c6;" horiz-adv-x="476" 
d="M31 570l97 180h220l97 -180h-147l-60 100l-60 -100h-147z" />
    <glyph glyph-name="caron" unicode="&#x2c7;" horiz-adv-x="476" 
d="M298 750h147l-97 -180h-220l-97 180h147l60 -100z" />
    <glyph glyph-name="breve" unicode="&#x2d8;" horiz-adv-x="402" 
d="M241 750h130c0 -112 -47 -180 -170 -180s-170 68 -170 180h130c0 -42 16 -70 40 -70s40 28 40 70z" />
    <glyph glyph-name="dotaccent" unicode="&#x2d9;" horiz-adv-x="292" 
d="M146 560c-66 0 -115 46 -115 110s49 110 115 110c67 0 115 -46 115 -110s-48 -110 -115 -110z" />
    <glyph glyph-name="ring" unicode="&#x2da;" horiz-adv-x="402" 
d="M201 545c-102 0 -170 60 -170 150s68 150 170 150s170 -60 170 -150s-68 -150 -170 -150zM201 745c-30 0 -50 -20 -50 -50s20 -50 50 -50s50 20 50 50s-20 50 -50 50z" />
    <glyph glyph-name="ogonek" unicode="&#x2db;" horiz-adv-x="312" 
d="M171 10l83 -10c-59 -22 -99 -52 -99 -97c0 -50 50 -88 126 -88v-95c-150 0 -250 64 -250 153c0 67 55 119 140 137z" />
    <glyph glyph-name="tilde" unicode="&#x2dc;" horiz-adv-x="512" 
d="M135 583l-104 52c20 63 83 115 149 115c71 0 114 -50 147 -50c18 0 38 15 49 37l105 -52c-20 -62 -87 -115 -156 -115c-74 0 -114 50 -147 50c-18 0 -32 -15 -43 -37z" />
    <glyph glyph-name="hungarumlaut" unicode="&#x2dd;" horiz-adv-x="581" 
d="M114 750h196l-136 -180h-143zM344 750h206l-166 -180h-150z" />
    <glyph glyph-name="Wgrave" unicode="&#x1e80;" horiz-adv-x="1284" 
d="M893 238l119 482h261l-191 -720h-350l-90 369l-90 -369h-350l-191 720h261l120 -482l130 482h240zM560 790l-158 160h198l116 -160h-156z" />
    <glyph glyph-name="wgrave" unicode="&#x1e81;" horiz-adv-x="967" 
d="M149 0l-138 520h238l62 -287l78 287h189l88 -294l63 294h228l-138 -520h-280l-55 250l-55 -250h-280zM264 760h197l110 -180h-150z" />
    <glyph glyph-name="Wacute" unicode="&#x1e82;" horiz-adv-x="1284" 
d="M893 238l119 482h261l-191 -720h-350l-90 369l-90 -369h-350l-191 720h261l120 -482l130 482h240zM865 950l-158 -160h-157l117 160h198z" />
    <glyph glyph-name="wacute" unicode="&#x1e83;" horiz-adv-x="967" 
d="M149 0l-138 520h238l62 -287l78 287h189l88 -294l63 294h228l-138 -520h-280l-55 250l-55 -250h-280zM504 760h197l-157 -180h-150z" />
    <glyph glyph-name="Wdieresis" unicode="&#x1e84;" horiz-adv-x="1284" 
d="M893 238l119 482h261l-191 -720h-350l-90 369l-90 -369h-350l-191 720h261l120 -482l130 482h240zM501 780c-61 0 -105 44 -105 105s44 105 105 105s105 -44 105 -105s-44 -105 -105 -105zM781 780c-61 0 -105 44 -105 105s44 105 105 105s105 -44 105 -105
s-44 -105 -105 -105z" />
    <glyph glyph-name="wdieresis" unicode="&#x1e85;" horiz-adv-x="967" 
d="M149 0l-138 520h238l62 -287l78 287h189l88 -294l63 294h228l-138 -520h-280l-55 250l-55 -250h-280zM344 573c-61 0 -105 42 -105 100s44 100 105 100s105 -42 105 -100s-44 -100 -105 -100zM624 573c-61 0 -105 42 -105 100s44 100 105 100s105 -42 105 -100
s-44 -100 -105 -100z" />
    <glyph glyph-name="Germandbls" unicode="&#x1e9e;" horiz-adv-x="811" 
d="M311 490v-490h-260v480c0 159 139 265 349 265c191 0 311 -90 311 -225c0 -55 -36 -99 -95 -122c84 -23 155 -104 155 -208c0 -125 -101 -215 -240 -215c-56 0 -132 17 -181 39l35 144c21 -11 46 -18 63 -18c36 0 63 32 63 76c0 56 -42 94 -105 94h-46v130h50
c43 0 71 24 71 60c0 47 -34 78 -85 78s-85 -35 -85 -88z" />
    <glyph glyph-name="Ygrave" unicode="&#x1ef2;" horiz-adv-x="743" 
d="M245 240l-245 480h269l106 -260l95 260h273l-238 -480v-240h-260v240zM291 790l-158 160h198l116 -160h-156z" />
    <glyph glyph-name="ygrave" unicode="&#x1ef3;" horiz-adv-x="657" 
d="M116 -220v155c9 -3 35 -5 50 -5c51 0 85 0 101 58l-266 532h250l100 -243l70 243h235l-195 -550c-57 -159 -130 -210 -225 -210c-38 0 -88 8 -120 20zM109 760h197l110 -180h-150z" />
    <glyph glyph-name="endash" unicode="&#x2013;" horiz-adv-x="632" 
d="M601 400v-180h-570v180h570z" />
    <glyph glyph-name="emdash" unicode="&#x2014;" horiz-adv-x="812" 
d="M21 400h770v-180h-770v180z" />
    <glyph glyph-name="quoteleft" unicode="&#x2018;" horiz-adv-x="312" 
d="M281 455c0 -70 -53 -120 -120 -120c-78 0 -130 67 -130 169c0 84 50 186 120 241l112 -20c-54 -50 -92 -113 -92 -150c64 0 110 -50 110 -120z" />
    <glyph glyph-name="quoteright" unicode="&#x2019;" horiz-adv-x="312" 
d="M31 640c0 70 53 120 120 120c78 0 130 -67 130 -169c0 -84 -51 -186 -120 -241l-112 20c53 50 92 113 92 150c-64 0 -110 50 -110 120z" />
    <glyph glyph-name="quotesinglbase" unicode="&#x201a;" horiz-adv-x="312" 
d="M31 100c0 70 53 120 120 120c78 0 130 -67 130 -169c0 -84 -51 -186 -120 -241l-112 20c53 50 92 113 92 150c-64 0 -110 50 -110 120z" />
    <glyph glyph-name="quotedblleft" unicode="&#x201c;" horiz-adv-x="616" 
d="M283 455c0 -70 -53 -120 -120 -120c-78 0 -130 67 -130 169c0 84 50 186 120 241l112 -20c-53 -50 -92 -113 -92 -150c64 0 110 -50 110 -120zM583 455c0 -70 -53 -120 -120 -120c-78 0 -130 67 -130 169c0 84 50 186 120 241l112 -20c-53 -50 -92 -113 -92 -150
c64 0 110 -50 110 -120z" />
    <glyph glyph-name="quotedblright" unicode="&#x201d;" horiz-adv-x="613" 
d="M33 650c0 70 53 120 120 120c78 0 130 -67 130 -169c0 -84 -50 -186 -120 -241l-112 20c53 50 92 113 92 150c-64 0 -110 50 -110 120zM333 650c0 70 53 120 120 120c78 0 130 -67 130 -169c0 -84 -50 -186 -120 -241l-112 20c53 50 92 113 92 150
c-64 0 -110 50 -110 120z" />
    <glyph glyph-name="quotedblbase" unicode="&#x201e;" horiz-adv-x="613" 
d="M33 100c0 70 53 120 120 120c78 0 130 -67 130 -169c0 -84 -50 -186 -120 -241l-112 20c53 50 92 113 92 150c-64 0 -110 50 -110 120zM333 100c0 70 53 120 120 120c78 0 130 -67 130 -169c0 -84 -50 -186 -120 -241l-112 20c53 50 92 113 92 150
c-64 0 -110 50 -110 120z" />
    <glyph glyph-name="bullet" unicode="&#x2022;" horiz-adv-x="392" 
d="M196 150c-96 0 -165 67 -165 160s69 160 165 160s165 -67 165 -160s-69 -160 -165 -160z" />
    <glyph glyph-name="ellipsis" unicode="&#x2026;" horiz-adv-x="912" 
d="M31 100c0 70 53 120 125 120c73 0 125 -50 125 -120s-52 -120 -125 -120c-72 0 -125 50 -125 120zM331 100c0 70 53 120 125 120c73 0 125 -50 125 -120s-52 -120 -125 -120c-72 0 -125 50 -125 120zM631 100c0 70 53 120 125 120c73 0 125 -50 125 -120
s-52 -120 -125 -120c-72 0 -125 50 -125 120z" />
    <glyph glyph-name="perthousand" unicode="&#x2030;" horiz-adv-x="1622" 
d="M641 210c0 133 97 230 230 230s230 -97 230 -230s-97 -230 -230 -230s-230 97 -230 230zM931 210c0 35 -25 60 -60 60s-60 -25 -60 -60s25 -60 60 -60s60 25 60 60zM1131 210c0 133 97 230 230 230s230 -97 230 -230s-97 -230 -230 -230s-230 97 -230 230zM1421 210
c0 35 -25 60 -60 60s-60 -25 -60 -60s25 -60 60 -60s60 25 60 60zM31 540c0 133 97 230 230 230s230 -97 230 -230s-97 -230 -230 -230s-230 97 -230 230zM321 540c0 35 -25 60 -60 60s-60 -25 -60 -60s25 -60 60 -60s60 25 60 60zM721 750h187l-497 -750h-187z" />
    <glyph glyph-name="guilsinglleft" unicode="&#x2039;" horiz-adv-x="421" 
d="M390 520l-169 -250l169 -270h-229l-160 270l160 250h229z" />
    <glyph glyph-name="guilsinglright" unicode="&#x203a;" horiz-adv-x="420" 
d="M420 270l-160 -270h-229l169 270l-169 250h229z" />
    <glyph glyph-name="lira" unicode="&#x20a4;" horiz-adv-x="702" 
d="M31 460h110v50c0 136 107 235 255 235c162 0 258 -92 276 -218l-202 -32c-7 35 -21 60 -47 60s-42 -27 -42 -65v-30h190v-100h-190c0 -10 -1 -20 -2 -30h192v-100h-239c-25 -29 -57 -53 -95 -70h434v-160h-640v200c26 9 48 22 66 40h-66v90h110v30h-110v100z" />
    <glyph glyph-name="Euro" unicode="&#x20ac;" horiz-adv-x="902" 
d="M631 303l241 -25c-9 -176 -169 -303 -381 -303c-190 0 -338 109 -384 271h-86v100h70v29h-70v100h86c47 162 194 270 384 270c207 0 366 -127 378 -303l-239 -25c-11 63 -66 108 -130 108c-48 0 -86 -18 -112 -50h113v-100h-150v-29h150v-100h-114c26 -32 65 -51 112 -51
c64 0 120 45 132 108z" />
    <glyph glyph-name="trademark" unicode="&#x2122;" horiz-adv-x="1232" 
d="M131 150v410h-120v160h430v-160h-120v-410h-190zM991 442l-100 -292h-130l-100 292v-292h-180v570h216l128 -329l124 329h222v-570h-180v292z" />
    <glyph glyph-name="minus" unicode="&#x2212;" horiz-adv-x="472" 
d="M31 400h410v-180h-410v180z" />
    <glyph glyph-name="notequal" unicode="&#x2260;" horiz-adv-x="532" 
d="M501 350h-155l-26 -90h181v-170h-232l-38 -130h-128l39 130h-111v170h162l27 90h-189v170h241l39 130h125l-39 -130h104v-170z" />
    <glyph glyph-name="lessequal" unicode="&#x2264;" horiz-adv-x="452" 
d="M421 140v-140h-390v140h390zM31 450l390 70v-130l-268 -40l268 -40v-130l-390 70v200z" />
    <glyph glyph-name="greaterequal" unicode="&#x2265;" horiz-adv-x="452" 
d="M31 140h390v-140h-390v140zM31 310l268 40l-268 40v130l390 -70v-200l-390 -70v130z" />
    <glyph glyph-name="commaaccent" unicode="&#xf6c3;" horiz-adv-x="262" 
d="M111 -40c-48 0 -80 40 -80 94c0 58 37 96 93 96c64 0 107 -49 107 -122c0 -77 -41 -165 -97 -208l-93 20c40 33 70 83 70 120z" />
    <glyph glyph-name="IJacute" horiz-adv-x="885" 
d="M320 720v-720h-260v720h260zM561 280v440h260v-480c0 -156 -115 -260 -272 -260c-57 0 -120 8 -158 20v190c21 -6 53 -10 80 -10c54 0 90 40 90 100zM414 950l-158 -160h-156l116 160h198zM915 950l-158 -160h-156l116 160h198z" />
    <glyph glyph-name="acute.case" horiz-adv-x="376" 
d="M187 590h-156l116 160h198z" />
    <glyph glyph-name="breve.case" horiz-adv-x="402" 
d="M241 750h130c0 -96 -68 -160 -170 -160s-170 64 -170 160h130c0 -30 16 -50 40 -50s40 20 40 50z" />
    <glyph glyph-name="caron.case" horiz-adv-x="462" 
d="M291 750h140l-90 -160h-220l-90 160h140l60 -80z" />
    <glyph glyph-name="circumflex.case" horiz-adv-x="462" 
d="M31 590l90 160h220l90 -160h-140l-60 80l-60 -80h-140z" />
    <glyph glyph-name="dieresis.case" horiz-adv-x="552" 
d="M136 540c-61 0 -105 44 -105 105s44 105 105 105s105 -44 105 -105s-44 -105 -105 -105zM416 540c-61 0 -105 44 -105 105s44 105 105 105s105 -44 105 -105s-44 -105 -105 -105z" />
    <glyph glyph-name="dotaccent.case" horiz-adv-x="292" 
d="M146 560c-67 0 -115 46 -115 110s48 110 115 110s115 -46 115 -110s-48 -110 -115 -110z" />
    <glyph glyph-name="grave.case" horiz-adv-x="376" 
d="M189 790l-158 160h198l116 -160h-156z" />
    <glyph glyph-name="hungarumlaut.case" horiz-adv-x="574" 
d="M123 750h190l-130 -160h-152zM353 750h190l-150 -160h-152z" />
    <glyph glyph-name="ijacute" horiz-adv-x="679" 
d="M51 520h230v-520h-230v520zM401 10v510h230v-520c0 -132 -85 -220 -212 -220c-45 0 -100 8 -138 20v155c14 -3 36 -5 55 -5c39 0 65 24 65 60zM189 750h197l-157 -180h-151zM531 750h197l-157 -180h-150z" />
    <glyph glyph-name="ring.case" horiz-adv-x="372" 
d="M186 540c-93 0 -155 54 -155 135s62 135 155 135s155 -54 155 -135s-62 -135 -155 -135zM186 710c-21 0 -35 -14 -35 -35s14 -35 35 -35s35 14 35 35s-14 35 -35 35z" />
    <glyph glyph-name="tilde.case" horiz-adv-x="512" 
d="M135 603l-104 52c20 63 83 115 149 115c71 0 114 -50 147 -50c18 0 38 15 49 37l105 -52c-20 -62 -87 -115 -156 -115c-74 0 -114 50 -147 50c-18 0 -32 -15 -43 -37z" />
    </font>
</defs>
</svg>
