<?xml version="1.0" encoding="utf-8"?>
<!-- Generator: Adobe Illustrator 22.0.0, SVG Export Plug-In . SVG Version: 6.00 Build 0)  -->
<svg version="1.1" id="Capa_1" xmlns="http://www.w3.org/2000/svg" xmlns:xlink="http://www.w3.org/1999/xlink" x="0px" y="0px"
	 viewBox="0 0 100 110" style="enable-background:new 0 0 100 110;" xml:space="preserve">
<style type="text/css">
	.st0{fill:#00B520;}
</style>
<g>
	<path class="st0" d="M70.3,39.8c-0.1-0.1-0.2-0.3-0.3-0.4v-0.6c0-6.4-6-11.5-13.4-11.5c-5.6,0-10.5,3-12.4,7.3
		c-2.4-1.2-6.2-2.5-10.7-1.2C27.9,35,25.8,40,25,42.7c-2.3,0.1-6.5,0.8-10.7,3.5c-5,3.2-5.3,9.7-5.1,13.2c-1.7,0.2-3.9,0.7-5.9,2.1
		c-4.3,2.9-1.4,11.1-0.8,12.7l5.5,13.9c0.1,0.2,2.5,6.2,9.9,8.8c2.4,0.9,5.3,1.7,8.3,1.7c3.3,0,6.7-1.1,9.5-4.4
		c0.5,0.1,1,0.1,1.6,0.1c0,0,0.1,0,0.1,0c-2.9,4.3-2.7,8.9-1,11.9c1.1,1.9,2.8,3,4.5,3c0.4,0,0.8-0.1,1.2-0.2
		c2.3-0.7,16.5-1.6,24.9-2c0.2,0,0.4,0,0.5-0.1c0.8-0.2,7.7-2.8,20.5-22.6c4.9-7.6,2.2-13.9-0.1-16.4L70.3,39.8z M56.6,31.4
		c5.1,0,9.2,3.3,9.2,7.4v8.9c0,4.2-4.2,8-9,8c-4.4,0-8.4-3.1-9.2-6.7c0.1-1.6,1.4-3.8,3.5-5.1c2.4-1.4,5.4-1.2,8.5,0.5
		c1,0.6,2.3,0.2,2.9-0.8s0.2-2.3-0.8-2.9c-6-3.4-10.5-1.8-12.7-0.5c-0.5,0.3-1.1,0.7-1.5,1.1v-2.6C47.4,34.7,51.5,31.4,56.6,31.4z
		 M32.5,89.2c-5.4-2.7-8.4-5.9-9.1-6.6l-6.2-13.9c-0.5-1.1-1.7-1.5-2.8-1.1c-1.1,0.5-1.5,1.7-1.1,2.8l6.3,14.1
		c0.1,0.2,0.2,0.3,0.3,0.4c0.1,0.2,3.6,4.5,10.7,8c0,0,0.1,0,0.1,0c-2.7,1.9-6.3,1.9-11.6,0c-5.5-2-7.4-6.2-7.4-6.4L6.3,72.7
		c-1.3-3.3-1.7-7.1-0.8-7.7c2.5-1.7,5.8-1.5,5.8-1.5c0.6,0.1,1.3-0.2,1.7-0.7c0.4-0.5,0.6-1.1,0.5-1.8c0-0.1-1.5-8.4,3-11.2
		c5-3.2,9.9-2.8,10-2.8c1.1,0.1,2.1-0.7,2.3-1.8c0-0.1,0.9-6.3,5.9-7.7c3.9-1.1,7.2,0.5,8.6,1.4v8.9c0,0.6,0.1,1.2,0.2,1.7
		c0,0,0,0.1,0,0.1c0.5,2.6,1.9,4.9,4,6.8l4.3,13.5c0.2,0.6,0.6,1,1.1,1.3c5.2,2.4,10.1,5.6,10.6,6.7c0.2,1.3-1.2,4.2-2.3,5.8
		c-0.1,0.1-0.5,0.3-1.3,0.4c-0.4,0-1.4,0.1-2.7,0.2c-2,0-4.8-0.2-8.9-1.1c-11.1-2.3-12.2-9.2-12.2-9.5c0-0.1,0-0.2-0.1-0.3
		l-5.9-20.6c-0.3-1.1-1.5-1.8-2.6-1.4c-1.1,0.3-1.8,1.5-1.4,2.6L32,74.4c0.2,1.4,2,8.6,12.1,12c-1,1.5-2.3,2.6-3.8,3.2
		C36.6,90.9,32.5,89.2,32.5,89.2z M51.4,103.7c-3,0.2-5.9,0.5-8,0.8c0.1-0.8,0.3-1.5,0.7-2c1.2-1.5,3.8-1.8,5.9-2l0.7-0.1
		C51.1,100.7,51.4,102.2,51.4,103.7z M84.5,82c-10.8,16.7-17.1,20.3-18.1,20.8c-1.5,0.1-6,0.3-10.8,0.6c0-1.8-0.3-4.4-1.8-6
		c-0.9-0.9-2.1-1.3-3.5-1.2l-0.7,0.1c-2.6,0.3-6.5,0.6-8.8,3.5c-0.7,0.8-1.1,1.8-1.4,2.9c-0.3-1.3-0.6-4.9,3.3-8.4
		c4.6-4.1,11.2-5.5,14.8-6c4.8-0.1,6.4-1.5,6.9-2.3c0,0,0,0,0,0c0.4-0.6,1.7-2.6,2.5-4.9c1.7-3.5,1.9-8.1,0.4-11
		c-0.5-1-1.7-1.5-2.8-1c-1,0.5-1.5,1.7-1,2.8c0.1,0.2,0.1,0.3,0.2,0.5c-2.4-1.8-5.5-3.5-8.4-4.9l-2.7-8.4c1.3,0.4,2.6,0.6,4,0.6
		c7.2,0,13.2-5.6,13.2-12.1v-0.6l14.5,23.1c0.1,0.1,0.2,0.3,0.3,0.4C84.8,70.7,89,75,84.5,82z"/>
	<path class="st0" d="M31.2,78.9l-4,1.9c-1,0.5-1.5,1.7-1,2.8c0.4,0.8,1.1,1.2,1.9,1.2c0.3,0,0.6-0.1,0.9-0.2l4-1.9
		c1-0.5,1.5-1.7,1-2.8C33.5,78.8,32.3,78.4,31.2,78.9z"/>
	<path class="st0" d="M41.2,77.3c0.4,0,0.8-0.1,1.2-0.4l4.2-2.9c1-0.7,1.2-2,0.5-2.9c-0.7-1-2-1.2-2.9-0.5l-4.2,2.9
		c-1,0.7-1.2,2-0.5,2.9C39.9,76.9,40.6,77.3,41.2,77.3z"/>
	<path class="st0" d="M18.4,90.8c0.2,0,0.4,0,0.6-0.1l0.9-0.3c1.1-0.3,1.7-1.5,1.4-2.6c-0.3-1.1-1.5-1.7-2.6-1.4l-0.9,0.3
		c-1.1,0.3-1.7,1.5-1.4,2.6C16.7,90.2,17.5,90.8,18.4,90.8z"/>
	<path class="st0" d="M37.7,25.3c0.4,0.4,1,0.6,1.5,0.6c0.5,0,1.1-0.2,1.5-0.6c0.8-0.8,0.8-2.1,0-3L30.5,11.9c-0.8-0.8-2.1-0.8-3,0
		c-0.8,0.8-0.8,2.1,0,3L37.7,25.3z"/>
	<path class="st0" d="M58.1,20.7c1.2,0,2.1-0.9,2.1-2.1V2.9c0-1.2-0.9-2.1-2.1-2.1c-1.2,0-2.1,0.9-2.1,2.1v15.7
		C56,19.8,56.9,20.7,58.1,20.7z"/>
	<path class="st0" d="M75.5,25.9c0.5,0,1.1-0.2,1.5-0.6l11.1-11c0.8-0.8,0.8-2.1,0-3c-0.8-0.8-2.1-0.8-3,0l-11.1,11
		c-0.8,0.8-0.8,2.1,0,3C74.5,25.7,75,25.9,75.5,25.9z"/>
	<path class="st0" d="M97,38.5H80.4c-1.2,0-2.1,0.9-2.1,2.1s0.9,2.1,2.1,2.1H97c1.2,0,2.1-0.9,2.1-2.1C99.1,39.4,98.2,38.5,97,38.5z
		"/>
</g>
</svg>
