<svg width="895" height="504" viewBox="0 0 895 504" fill="none" xmlns="http://www.w3.org/2000/svg">
<rect width="895" height="504" fill="black"/>
<rect x="23" y="343" width="850" height="140" rx="16" fill="#FF9900"/>
<rect x="23" y="20" width="850" height="140" rx="16" fill="#008AFF"/>
<rect x="23" y="181" width="850" height="140" rx="16" fill="#00B23C"/>
<path d="M145.336 90H141.112V67.6H150.84C152.973 67.6 154.669 68.144 155.928 69.232C157.187 70.32 157.816 71.7707 157.816 73.584V73.968C157.816 76.464 156.707 78.16 154.488 79.056V79.632C155.341 79.6747 156.003 79.9733 156.472 80.528C156.941 81.0613 157.176 81.776 157.176 82.672V90H152.952V83.28C152.952 82.128 152.376 81.552 151.224 81.552H145.336V90ZM145.336 71.44V77.712H150.392C151.395 77.712 152.173 77.4453 152.728 76.912C153.304 76.3573 153.592 75.632 153.592 74.736V74.416C153.592 73.4987 153.304 72.7733 152.728 72.24C152.173 71.7067 151.395 71.44 150.392 71.44H145.336ZM175.059 88.24C173.544 89.712 171.528 90.448 169.011 90.448C166.493 90.448 164.477 89.712 162.963 88.24C161.448 86.768 160.691 84.7947 160.691 82.32V81.808C160.691 79.3333 161.448 77.36 162.963 75.888C164.477 74.416 166.493 73.68 169.011 73.68C171.528 73.68 173.544 74.416 175.059 75.888C176.573 77.36 177.331 79.3333 177.331 81.808V82.32C177.331 84.7947 176.573 86.768 175.059 88.24ZM165.907 85.648C166.717 86.4587 167.752 86.864 169.011 86.864C170.269 86.864 171.293 86.4587 172.083 85.648C172.893 84.816 173.299 83.6747 173.299 82.224V81.904C173.299 80.4533 172.904 79.3227 172.115 78.512C171.347 77.68 170.312 77.264 169.011 77.264C167.752 77.264 166.717 77.68 165.907 78.512C165.117 79.3227 164.723 80.4533 164.723 81.904V82.224C164.723 83.6747 165.117 84.816 165.907 85.648ZM194.653 88.24C193.138 89.712 191.122 90.448 188.605 90.448C186.087 90.448 184.071 89.712 182.557 88.24C181.042 86.768 180.285 84.7947 180.285 82.32V81.808C180.285 79.3333 181.042 77.36 182.557 75.888C184.071 74.416 186.087 73.68 188.605 73.68C191.122 73.68 193.138 74.416 194.653 75.888C196.167 77.36 196.925 79.3333 196.925 81.808V82.32C196.925 84.7947 196.167 86.768 194.653 88.24ZM185.501 85.648C186.311 86.4587 187.346 86.864 188.605 86.864C189.863 86.864 190.887 86.4587 191.677 85.648C192.487 84.816 192.893 83.6747 192.893 82.224V81.904C192.893 80.4533 192.498 79.3227 191.709 78.512C190.941 77.68 189.906 77.264 188.605 77.264C187.346 77.264 186.311 77.68 185.501 78.512C184.711 79.3227 184.317 80.4533 184.317 81.904V82.224C184.317 83.6747 184.711 84.816 185.501 85.648ZM210.706 90H206.226C205.181 90 204.328 89.68 203.666 89.04C203.026 88.3787 202.706 87.504 202.706 86.416V77.456H198.738V74.128H202.706V69.2H206.738V74.128H211.09V77.456H206.738V85.712C206.738 86.352 207.037 86.672 207.634 86.672H210.706V90ZM221.332 90.448C219.241 90.448 217.535 90 216.212 89.104C214.911 88.1867 214.121 86.9067 213.844 85.264L217.556 84.304C217.961 86.2667 219.22 87.248 221.332 87.248C222.249 87.248 222.932 87.088 223.38 86.768C223.849 86.448 224.084 86.032 224.084 85.52C224.084 85.0293 223.871 84.656 223.444 84.4C223.039 84.1227 222.356 83.8987 221.396 83.728L220.5 83.568C219.369 83.3333 218.356 83.0347 217.46 82.672C215.433 81.8613 214.42 80.496 214.42 78.576C214.42 77.0187 214.985 75.8133 216.116 74.96C217.247 74.1067 218.772 73.68 220.692 73.68C222.441 73.68 223.903 74.0747 225.076 74.864C226.249 75.632 227.028 76.6667 227.412 77.968L223.668 79.12C223.348 77.6267 222.356 76.88 220.692 76.88C219.113 76.88 218.324 77.3813 218.324 78.384C218.324 79.2373 219.113 79.8027 220.692 80.08L221.588 80.24C222.911 80.496 223.999 80.7733 224.852 81.072C226.943 81.84 227.988 83.2267 227.988 85.232C227.988 86.8747 227.391 88.1547 226.196 89.072C225.001 89.9893 223.38 90.448 221.332 90.448ZM241.769 90H237.289C236.243 90 235.39 89.68 234.729 89.04C234.089 88.3787 233.769 87.504 233.769 86.416V77.456H229.801V74.128H233.769V69.2H237.801V74.128H242.153V77.456H237.801V85.712C237.801 86.352 238.099 86.672 238.697 86.672H241.769V90ZM258.84 88.24C257.325 89.712 255.309 90.448 252.792 90.448C250.275 90.448 248.259 89.712 246.744 88.24C245.229 86.768 244.472 84.7947 244.472 82.32V81.808C244.472 79.3333 245.229 77.36 246.744 75.888C248.259 74.416 250.275 73.68 252.792 73.68C255.309 73.68 257.325 74.416 258.84 75.888C260.355 77.36 261.112 79.3333 261.112 81.808V82.32C261.112 84.7947 260.355 86.768 258.84 88.24ZM249.688 85.648C250.499 86.4587 251.533 86.864 252.792 86.864C254.051 86.864 255.075 86.4587 255.864 85.648C256.675 84.816 257.08 83.6747 257.08 82.224V81.904C257.08 80.4533 256.685 79.3227 255.896 78.512C255.128 77.68 254.093 77.264 252.792 77.264C251.533 77.264 250.499 77.68 249.688 78.512C248.899 79.3227 248.504 80.4533 248.504 81.904V82.224C248.504 83.6747 248.899 84.816 249.688 85.648ZM272.29 90.448C269.815 90.448 267.82 89.712 266.306 88.24C264.812 86.768 264.066 84.784 264.066 82.288V81.84C264.066 79.344 264.812 77.36 266.306 75.888C267.82 74.416 269.815 73.68 272.29 73.68C274.572 73.68 276.375 74.2667 277.698 75.44C279.02 76.6133 279.842 78.0747 280.162 79.824L276.258 80.656C276.13 79.6107 275.735 78.7893 275.074 78.192C274.412 77.5733 273.516 77.264 272.386 77.264C271.106 77.264 270.071 77.6693 269.282 78.48C268.492 79.2907 268.098 80.432 268.098 81.904V82.224C268.098 83.696 268.492 84.8373 269.282 85.648C270.071 86.4587 271.106 86.864 272.386 86.864C274.647 86.864 275.97 85.7227 276.354 83.44L280.258 84.368C279.959 85.5413 279.49 86.5653 278.85 87.44C277.399 89.4453 275.212 90.448 272.29 90.448ZM287.616 90H283.584V67.6H287.616V79.984H288.192L293.44 74.128H298.688L291.36 81.808L298.944 90H293.76L288.192 83.696H287.616V90ZM313.867 90H309.643V67.6H313.867V90ZM322.241 90H318.209V74.128H322.177V76.208H322.753C323.457 74.6507 325.003 73.872 327.393 73.872C329.227 73.872 330.71 74.48 331.841 75.696C332.993 76.8907 333.569 78.5013 333.569 80.528V90H329.537V80.848C329.537 78.4587 328.406 77.264 326.145 77.264C324.907 77.264 323.947 77.68 323.265 78.512C322.582 79.3227 322.241 80.464 322.241 81.936V90ZM344.146 90H340.114V77.456H336.082V74.128H340.114V71.184C340.114 70.096 340.434 69.232 341.074 68.592C341.735 67.9307 342.589 67.6 343.634 67.6H347.794V70.928H345.042C344.445 70.928 344.146 71.248 344.146 71.888V74.128H348.306V77.456H344.146V90ZM355.46 90H351.428V74.128H355.396V75.92H355.972C356.441 74.6827 357.465 74.064 359.044 74.064H360.964V77.648H358.98C357.913 77.648 357.06 77.936 356.42 78.512C355.78 79.0667 355.46 79.888 355.46 80.976V90ZM368.668 90.448C366.876 90.448 365.436 90 364.348 89.104C363.26 88.1867 362.716 86.9387 362.716 85.36C362.716 83.7813 363.249 82.5653 364.316 81.712C365.404 80.8373 366.919 80.4 368.86 80.4H373.212V79.504C373.212 78.7147 372.967 78.096 372.476 77.648C371.985 77.1787 371.249 76.944 370.268 76.944C368.455 76.944 367.388 77.7653 367.068 79.408L363.356 78.16C363.783 76.7947 364.583 75.7067 365.756 74.896C366.929 74.0853 368.455 73.68 370.332 73.68C372.444 73.68 374.097 74.2133 375.292 75.28C376.508 76.3253 377.116 77.8293 377.116 79.792V85.712C377.116 86.352 377.415 86.672 378.012 86.672H379.292V90H376.604C375.815 90 375.164 89.808 374.652 89.424C374.14 89.04 373.884 88.528 373.884 87.888V87.856H373.276C373.191 88.0907 372.999 88.4213 372.7 88.848C371.911 89.9147 370.567 90.448 368.668 90.448ZM369.372 87.184C370.503 87.184 371.42 86.8747 372.124 86.256C372.849 85.616 373.212 84.7733 373.212 83.728V83.408H369.148C368.401 83.408 367.815 83.568 367.388 83.888C366.961 84.208 366.748 84.656 366.748 85.232C366.748 85.8293 366.972 86.3093 367.42 86.672C367.889 87.0133 368.54 87.184 369.372 87.184ZM388.707 90.448C386.616 90.448 384.91 90 383.587 89.104C382.286 88.1867 381.496 86.9067 381.219 85.264L384.931 84.304C385.336 86.2667 386.595 87.248 388.707 87.248C389.624 87.248 390.307 87.088 390.755 86.768C391.224 86.448 391.459 86.032 391.459 85.52C391.459 85.0293 391.246 84.656 390.819 84.4C390.414 84.1227 389.731 83.8987 388.771 83.728L387.875 83.568C386.744 83.3333 385.731 83.0347 384.835 82.672C382.808 81.8613 381.795 80.496 381.795 78.576C381.795 77.0187 382.36 75.8133 383.491 74.96C384.622 74.1067 386.147 73.68 388.067 73.68C389.816 73.68 391.278 74.0747 392.451 74.864C393.624 75.632 394.403 76.6667 394.787 77.968L391.043 79.12C390.723 77.6267 389.731 76.88 388.067 76.88C386.488 76.88 385.699 77.3813 385.699 78.384C385.699 79.2373 386.488 79.8027 388.067 80.08L388.963 80.24C390.286 80.496 391.374 80.7733 392.227 81.072C394.318 81.84 395.363 83.2267 395.363 85.232C395.363 86.8747 394.766 88.1547 393.571 89.072C392.376 89.9893 390.755 90.448 388.707 90.448ZM409.144 90H404.664C403.618 90 402.765 89.68 402.104 89.04C401.464 88.3787 401.144 87.504 401.144 86.416V77.456H397.176V74.128H401.144V69.2H405.176V74.128H409.528V77.456H405.176V85.712C405.176 86.352 405.474 86.672 406.072 86.672H409.144V90ZM417.21 90H413.178V74.128H417.146V75.92H417.722C418.191 74.6827 419.215 74.064 420.794 74.064H422.714V77.648H420.73C419.663 77.648 418.81 77.936 418.17 78.512C417.53 79.0667 417.21 79.888 417.21 80.976V90ZM431.913 90.256C430.078 90.256 428.585 89.648 427.433 88.432C426.302 87.216 425.737 85.6053 425.737 83.6V74.128H429.769V83.28C429.769 85.6693 430.9 86.864 433.161 86.864C434.398 86.864 435.358 86.4587 436.041 85.648C436.724 84.816 437.065 83.664 437.065 82.192V74.128H441.097V90H437.129V87.92H436.553C435.806 89.4773 434.26 90.256 431.913 90.256ZM453.04 90.448C450.565 90.448 448.57 89.712 447.056 88.24C445.562 86.768 444.816 84.784 444.816 82.288V81.84C444.816 79.344 445.562 77.36 447.056 75.888C448.57 74.416 450.565 73.68 453.04 73.68C455.322 73.68 457.125 74.2667 458.448 75.44C459.77 76.6133 460.592 78.0747 460.912 79.824L457.008 80.656C456.88 79.6107 456.485 78.7893 455.824 78.192C455.162 77.5733 454.266 77.264 453.136 77.264C451.856 77.264 450.821 77.6693 450.032 78.48C449.242 79.2907 448.848 80.432 448.848 81.904V82.224C448.848 83.696 449.242 84.8373 450.032 85.648C450.821 86.4587 451.856 86.864 453.136 86.864C455.397 86.864 456.72 85.7227 457.104 83.44L461.008 84.368C460.709 85.5413 460.24 86.5653 459.6 87.44C458.149 89.4453 455.962 90.448 453.04 90.448ZM474.394 90H469.914C468.868 90 468.015 89.68 467.354 89.04C466.714 88.3787 466.394 87.504 466.394 86.416V77.456H462.426V74.128H466.394V69.2H470.426V74.128H474.778V77.456H470.426V85.712C470.426 86.352 470.724 86.672 471.322 86.672H474.394V90ZM484.476 90.256C482.641 90.256 481.148 89.648 479.996 88.432C478.865 87.216 478.299 85.6053 478.299 83.6V74.128H482.332V83.28C482.332 85.6693 483.462 86.864 485.724 86.864C486.961 86.864 487.921 86.4587 488.604 85.648C489.286 84.816 489.628 83.664 489.628 82.192V74.128H493.66V90H489.692V87.92H489.116C488.369 89.4773 486.822 90.256 484.476 90.256ZM502.178 90H498.146V74.128H502.114V75.92H502.69C503.16 74.6827 504.184 74.064 505.762 74.064H507.682V77.648H505.698C504.632 77.648 503.778 77.936 503.138 78.512C502.498 79.0667 502.178 79.888 502.178 80.976V90ZM517.503 90.448C515.093 90.448 513.151 89.712 511.679 88.24C510.229 86.7467 509.503 84.752 509.503 82.256V81.872C509.503 79.376 510.218 77.392 511.647 75.92C513.098 74.4267 515.029 73.68 517.439 73.68C519.765 73.68 521.631 74.4373 523.039 75.952C524.447 77.4453 525.151 79.4187 525.151 81.872V83.248H513.599C513.642 84.336 514.047 85.2213 514.815 85.904C515.583 86.5867 516.522 86.928 517.631 86.928C519.381 86.928 520.618 86.1387 521.343 84.56L524.639 86.288C524.362 86.8 523.935 87.3973 523.359 88.08C521.973 89.6587 520.021 90.448 517.503 90.448ZM513.631 80.24H521.055C520.97 79.3227 520.597 78.5867 519.935 78.032C519.274 77.4773 518.431 77.2 517.407 77.2C516.341 77.2 515.477 77.4773 514.815 78.032C514.175 78.5653 513.781 79.3013 513.631 80.24ZM540.961 90H536.737V67.6H550.817V71.44H540.961V76.848H550.049V80.688H540.961V90ZM557.991 90H553.959V74.128H557.927V75.92H558.503C558.972 74.6827 559.996 74.064 561.575 74.064H563.495V77.648H561.511C560.444 77.648 559.591 77.936 558.951 78.512C558.311 79.0667 557.991 79.888 557.991 80.976V90ZM571.199 90.448C569.407 90.448 567.967 90 566.879 89.104C565.791 88.1867 565.247 86.9387 565.247 85.36C565.247 83.7813 565.781 82.5653 566.847 81.712C567.935 80.8373 569.45 80.4 571.391 80.4H575.743V79.504C575.743 78.7147 575.498 78.096 575.007 77.648C574.517 77.1787 573.781 76.944 572.799 76.944C570.986 76.944 569.919 77.7653 569.599 79.408L565.887 78.16C566.314 76.7947 567.114 75.7067 568.287 74.896C569.461 74.0853 570.986 73.68 572.863 73.68C574.975 73.68 576.629 74.2133 577.823 75.28C579.039 76.3253 579.647 77.8293 579.647 79.792V85.712C579.647 86.352 579.946 86.672 580.543 86.672H581.823V90H579.135C578.346 90 577.695 89.808 577.183 89.424C576.671 89.04 576.415 88.528 576.415 87.888V87.856H575.807C575.722 88.0907 575.53 88.4213 575.231 88.848C574.442 89.9147 573.098 90.448 571.199 90.448ZM571.903 87.184C573.034 87.184 573.951 86.8747 574.655 86.256C575.381 85.616 575.743 84.7733 575.743 83.728V83.408H571.679C570.933 83.408 570.346 83.568 569.919 83.888C569.493 84.208 569.279 84.656 569.279 85.232C569.279 85.8293 569.503 86.3093 569.951 86.672C570.421 87.0133 571.071 87.184 571.903 87.184ZM588.803 90H584.771V74.128H588.739V75.856H589.315C589.998 74.5333 591.299 73.872 593.219 73.872C595.246 73.872 596.675 74.6613 597.507 76.24H598.083C598.937 74.6613 600.387 73.872 602.435 73.872C603.971 73.872 605.241 74.3627 606.243 75.344C607.246 76.304 607.747 77.712 607.747 79.568V90H603.715V79.856C603.715 78.1067 602.862 77.232 601.155 77.232C600.238 77.232 599.523 77.5307 599.011 78.128C598.521 78.704 598.275 79.536 598.275 80.624V90H594.243V79.856C594.243 78.1067 593.39 77.232 591.683 77.232C590.766 77.232 590.051 77.5307 589.539 78.128C589.049 78.704 588.803 79.536 588.803 80.624V90ZM619.316 90.448C616.905 90.448 614.964 89.712 613.492 88.24C612.041 86.7467 611.316 84.752 611.316 82.256V81.872C611.316 79.376 612.03 77.392 613.46 75.92C614.91 74.4267 616.841 73.68 619.252 73.68C621.577 73.68 623.444 74.4373 624.852 75.952C626.26 77.4453 626.964 79.4187 626.964 81.872V83.248H615.412C615.454 84.336 615.86 85.2213 616.628 85.904C617.396 86.5867 618.334 86.928 619.444 86.928C621.193 86.928 622.43 86.1387 623.156 84.56L626.452 86.288C626.174 86.8 625.748 87.3973 625.172 88.08C623.785 89.6587 621.833 90.448 619.316 90.448ZM615.444 80.24H622.868C622.782 79.3227 622.409 78.5867 621.748 78.032C621.086 77.4773 620.244 77.2 619.22 77.2C618.153 77.2 617.289 77.4773 616.628 78.032C615.988 78.5653 615.593 79.3013 615.444 80.24ZM638.458 90H631.77L629.53 74.128H633.53L634.938 87.28H635.514L637.562 74.128H644.026L646.074 87.28H646.65L648.058 74.128H652.058L649.818 90H643.13L641.082 76.848H640.506L638.458 90ZM669.121 88.24C667.607 89.712 665.591 90.448 663.073 90.448C660.556 90.448 658.54 89.712 657.025 88.24C655.511 86.768 654.753 84.7947 654.753 82.32V81.808C654.753 79.3333 655.511 77.36 657.025 75.888C658.54 74.416 660.556 73.68 663.073 73.68C665.591 73.68 667.607 74.416 669.121 75.888C670.636 77.36 671.393 79.3333 671.393 81.808V82.32C671.393 84.7947 670.636 86.768 669.121 88.24ZM659.969 85.648C660.78 86.4587 661.815 86.864 663.073 86.864C664.332 86.864 665.356 86.4587 666.145 85.648C666.956 84.816 667.361 83.6747 667.361 82.224V81.904C667.361 80.4533 666.967 79.3227 666.177 78.512C665.409 77.68 664.375 77.264 663.073 77.264C661.815 77.264 660.78 77.68 659.969 78.512C659.18 79.3227 658.785 80.4533 658.785 81.904V82.224C658.785 83.6747 659.18 84.816 659.969 85.648ZM679.147 90H675.115V74.128H679.083V75.92H679.659C680.128 74.6827 681.152 74.064 682.731 74.064H684.651V77.648H682.667C681.6 77.648 680.747 77.936 680.107 78.512C679.467 79.0667 679.147 79.888 679.147 80.976V90ZM691.835 90H687.803V67.6H691.835V79.984H692.411L697.659 74.128H702.907L695.579 81.808L703.163 90H697.979L692.411 83.696H691.835V90Z" fill="white"/>
<path d="M216.336 261H212.112V238.6H221.84C223.973 238.6 225.669 239.144 226.928 240.232C228.187 241.32 228.816 242.771 228.816 244.584V244.968C228.816 247.464 227.707 249.16 225.488 250.056V250.632C226.341 250.675 227.003 250.973 227.472 251.528C227.941 252.061 228.176 252.776 228.176 253.672V261H223.952V254.28C223.952 253.128 223.376 252.552 222.224 252.552H216.336V261ZM216.336 242.44V248.712H221.392C222.395 248.712 223.173 248.445 223.728 247.912C224.304 247.357 224.592 246.632 224.592 245.736V245.416C224.592 244.499 224.304 243.773 223.728 243.24C223.173 242.707 222.395 242.44 221.392 242.44H216.336ZM246.059 259.24C244.544 260.712 242.528 261.448 240.011 261.448C237.493 261.448 235.477 260.712 233.963 259.24C232.448 257.768 231.691 255.795 231.691 253.32V252.808C231.691 250.333 232.448 248.36 233.963 246.888C235.477 245.416 237.493 244.68 240.011 244.68C242.528 244.68 244.544 245.416 246.059 246.888C247.573 248.36 248.331 250.333 248.331 252.808V253.32C248.331 255.795 247.573 257.768 246.059 259.24ZM236.907 256.648C237.717 257.459 238.752 257.864 240.011 257.864C241.269 257.864 242.293 257.459 243.083 256.648C243.893 255.816 244.299 254.675 244.299 253.224V252.904C244.299 251.453 243.904 250.323 243.115 249.512C242.347 248.68 241.312 248.264 240.011 248.264C238.752 248.264 237.717 248.68 236.907 249.512C236.117 250.323 235.723 251.453 235.723 252.904V253.224C235.723 254.675 236.117 255.816 236.907 256.648ZM265.653 259.24C264.138 260.712 262.122 261.448 259.605 261.448C257.087 261.448 255.071 260.712 253.557 259.24C252.042 257.768 251.285 255.795 251.285 253.32V252.808C251.285 250.333 252.042 248.36 253.557 246.888C255.071 245.416 257.087 244.68 259.605 244.68C262.122 244.68 264.138 245.416 265.653 246.888C267.167 248.36 267.925 250.333 267.925 252.808V253.32C267.925 255.795 267.167 257.768 265.653 259.24ZM256.501 256.648C257.311 257.459 258.346 257.864 259.605 257.864C260.863 257.864 261.887 257.459 262.677 256.648C263.487 255.816 263.893 254.675 263.893 253.224V252.904C263.893 251.453 263.498 250.323 262.709 249.512C261.941 248.68 260.906 248.264 259.605 248.264C258.346 248.264 257.311 248.68 256.501 249.512C255.711 250.323 255.317 251.453 255.317 252.904V253.224C255.317 254.675 255.711 255.816 256.501 256.648ZM281.706 261H277.226C276.181 261 275.328 260.68 274.666 260.04C274.026 259.379 273.706 258.504 273.706 257.416V248.456H269.738V245.128H273.706V240.2H277.738V245.128H282.09V248.456H277.738V256.712C277.738 257.352 278.037 257.672 278.634 257.672H281.706V261ZM292.332 261.448C290.241 261.448 288.535 261 287.212 260.104C285.911 259.187 285.121 257.907 284.844 256.264L288.556 255.304C288.961 257.267 290.22 258.248 292.332 258.248C293.249 258.248 293.932 258.088 294.38 257.768C294.849 257.448 295.084 257.032 295.084 256.52C295.084 256.029 294.871 255.656 294.444 255.4C294.039 255.123 293.356 254.899 292.396 254.728L291.5 254.568C290.369 254.333 289.356 254.035 288.46 253.672C286.433 252.861 285.42 251.496 285.42 249.576C285.42 248.019 285.985 246.813 287.116 245.96C288.247 245.107 289.772 244.68 291.692 244.68C293.441 244.68 294.903 245.075 296.076 245.864C297.249 246.632 298.028 247.667 298.412 248.968L294.668 250.12C294.348 248.627 293.356 247.88 291.692 247.88C290.113 247.88 289.324 248.381 289.324 249.384C289.324 250.237 290.113 250.803 291.692 251.08L292.588 251.24C293.911 251.496 294.999 251.773 295.852 252.072C297.943 252.84 298.988 254.227 298.988 256.232C298.988 257.875 298.391 259.155 297.196 260.072C296.001 260.989 294.38 261.448 292.332 261.448ZM312.769 261H308.289C307.243 261 306.39 260.68 305.729 260.04C305.089 259.379 304.769 258.504 304.769 257.416V248.456H300.801V245.128H304.769V240.2H308.801V245.128H313.153V248.456H308.801V256.712C308.801 257.352 309.099 257.672 309.697 257.672H312.769V261ZM329.84 259.24C328.325 260.712 326.309 261.448 323.792 261.448C321.275 261.448 319.259 260.712 317.744 259.24C316.229 257.768 315.472 255.795 315.472 253.32V252.808C315.472 250.333 316.229 248.36 317.744 246.888C319.259 245.416 321.275 244.68 323.792 244.68C326.309 244.68 328.325 245.416 329.84 246.888C331.355 248.36 332.112 250.333 332.112 252.808V253.32C332.112 255.795 331.355 257.768 329.84 259.24ZM320.688 256.648C321.499 257.459 322.533 257.864 323.792 257.864C325.051 257.864 326.075 257.459 326.864 256.648C327.675 255.816 328.08 254.675 328.08 253.224V252.904C328.08 251.453 327.685 250.323 326.896 249.512C326.128 248.68 325.093 248.264 323.792 248.264C322.533 248.264 321.499 248.68 320.688 249.512C319.899 250.323 319.504 251.453 319.504 252.904V253.224C319.504 254.675 319.899 255.816 320.688 256.648ZM343.29 261.448C340.815 261.448 338.82 260.712 337.306 259.24C335.812 257.768 335.066 255.784 335.066 253.288V252.84C335.066 250.344 335.812 248.36 337.306 246.888C338.82 245.416 340.815 244.68 343.29 244.68C345.572 244.68 347.375 245.267 348.698 246.44C350.02 247.613 350.842 249.075 351.162 250.824L347.258 251.656C347.13 250.611 346.735 249.789 346.074 249.192C345.412 248.573 344.516 248.264 343.386 248.264C342.106 248.264 341.071 248.669 340.282 249.48C339.492 250.291 339.098 251.432 339.098 252.904V253.224C339.098 254.696 339.492 255.837 340.282 256.648C341.071 257.459 342.106 257.864 343.386 257.864C345.647 257.864 346.97 256.723 347.354 254.44L351.258 255.368C350.959 256.541 350.49 257.565 349.85 258.44C348.399 260.445 346.212 261.448 343.29 261.448ZM358.616 261H354.584V238.6H358.616V250.984H359.192L364.44 245.128H369.688L362.36 252.808L369.944 261H364.76L359.192 254.696H358.616V261ZM388.419 261.448C385.774 261.448 383.641 260.755 382.019 259.368C380.419 257.96 379.619 256.072 379.619 253.704V252.808H383.779V253.704C383.779 255.027 384.185 256.029 384.995 256.712C385.827 257.395 386.969 257.736 388.419 257.736C389.827 257.736 390.894 257.459 391.619 256.904C392.366 256.349 392.739 255.603 392.739 254.664C392.739 254.024 392.569 253.523 392.227 253.16C391.651 252.52 390.318 251.976 388.227 251.528L387.491 251.368C385.87 251.005 384.558 250.568 383.555 250.056C381.273 248.989 380.131 247.197 380.131 244.68C380.131 242.653 380.835 241.064 382.243 239.912C383.673 238.739 385.603 238.152 388.035 238.152C390.595 238.152 392.611 238.792 394.083 240.072C395.577 241.331 396.323 243.123 396.323 245.448V246.408H392.163V245.448C392.163 243.059 390.787 241.864 388.035 241.864C385.539 241.864 384.291 242.76 384.291 244.552C384.291 245.363 384.601 246.003 385.219 246.472C385.859 246.92 386.862 247.293 388.227 247.592L388.963 247.752C390.67 248.136 392.067 248.573 393.155 249.064C395.651 250.173 396.899 251.997 396.899 254.536C396.899 256.605 396.121 258.28 394.563 259.56C393.027 260.819 390.979 261.448 388.419 261.448ZM404.21 261H400.178V245.128H404.146V246.856H404.722C405.404 245.533 406.706 244.872 408.626 244.872C410.652 244.872 412.082 245.661 412.914 247.24H413.49C414.343 245.661 415.794 244.872 417.842 244.872C419.378 244.872 420.647 245.363 421.65 246.344C422.652 247.304 423.154 248.712 423.154 250.568V261H419.122V250.856C419.122 249.107 418.268 248.232 416.562 248.232C415.644 248.232 414.93 248.531 414.418 249.128C413.927 249.704 413.682 250.536 413.682 251.624V261H409.65V250.856C409.65 249.107 408.796 248.232 407.09 248.232C406.172 248.232 405.458 248.531 404.946 249.128C404.455 249.704 404.21 250.536 404.21 251.624V261ZM432.418 261.448C430.626 261.448 429.186 261 428.098 260.104C427.01 259.187 426.466 257.939 426.466 256.36C426.466 254.781 426.999 253.565 428.066 252.712C429.154 251.837 430.669 251.4 432.61 251.4H436.962V250.504C436.962 249.715 436.717 249.096 436.226 248.648C435.735 248.179 434.999 247.944 434.018 247.944C432.205 247.944 431.138 248.765 430.818 250.408L427.106 249.16C427.533 247.795 428.333 246.707 429.506 245.896C430.679 245.085 432.205 244.68 434.082 244.68C436.194 244.68 437.847 245.213 439.042 246.28C440.258 247.325 440.866 248.829 440.866 250.792V256.712C440.866 257.352 441.165 257.672 441.762 257.672H443.042V261H440.354C439.565 261 438.914 260.808 438.402 260.424C437.89 260.04 437.634 259.528 437.634 258.888V258.856H437.026C436.941 259.091 436.749 259.421 436.45 259.848C435.661 260.915 434.317 261.448 432.418 261.448ZM433.122 258.184C434.253 258.184 435.17 257.875 435.874 257.256C436.599 256.616 436.962 255.773 436.962 254.728V254.408H432.898C432.151 254.408 431.565 254.568 431.138 254.888C430.711 255.208 430.498 255.656 430.498 256.232C430.498 256.829 430.722 257.309 431.17 257.672C431.639 258.013 432.29 258.184 433.122 258.184ZM450.022 261H445.99V245.128H449.958V246.92H450.534C451.003 245.683 452.027 245.064 453.606 245.064H455.526V248.648H453.542C452.475 248.648 451.622 248.936 450.982 249.512C450.342 250.067 450.022 250.888 450.022 251.976V261ZM469.238 261H464.758C463.712 261 462.859 260.68 462.198 260.04C461.558 259.379 461.238 258.504 461.238 257.416V248.456H457.27V245.128H461.238V240.2H465.27V245.128H469.622V248.456H465.27V256.712C465.27 257.352 465.568 257.672 466.166 257.672H469.238V261ZM489.78 261.448C486.986 261.448 484.778 260.669 483.156 259.112C481.556 257.555 480.756 255.347 480.756 252.488V247.112C480.756 244.253 481.556 242.045 483.156 240.488C484.778 238.931 486.986 238.152 489.78 238.152C492.511 238.152 494.634 238.899 496.148 240.392C497.663 241.885 498.42 243.955 498.42 246.6V246.792H494.26V246.472C494.26 245.085 493.876 243.987 493.108 243.176C492.362 242.344 491.252 241.928 489.78 241.928C488.287 241.928 487.114 242.387 486.26 243.304C485.407 244.221 484.98 245.469 484.98 247.048V252.552C484.98 254.109 485.407 255.357 486.26 256.296C487.135 257.213 488.308 257.672 489.78 257.672C491.252 257.672 492.362 257.256 493.108 256.424C493.876 255.592 494.26 254.493 494.26 253.128V252.552H498.42V253C498.42 255.645 497.663 257.715 496.148 259.208C494.634 260.701 492.511 261.448 489.78 261.448ZM515.59 259.24C514.075 260.712 512.059 261.448 509.542 261.448C507.025 261.448 505.009 260.712 503.494 259.24C501.979 257.768 501.222 255.795 501.222 253.32V252.808C501.222 250.333 501.979 248.36 503.494 246.888C505.009 245.416 507.025 244.68 509.542 244.68C512.059 244.68 514.075 245.416 515.59 246.888C517.105 248.36 517.862 250.333 517.862 252.808V253.32C517.862 255.795 517.105 257.768 515.59 259.24ZM506.438 256.648C507.249 257.459 508.283 257.864 509.542 257.864C510.801 257.864 511.825 257.459 512.614 256.648C513.425 255.816 513.83 254.675 513.83 253.224V252.904C513.83 251.453 513.435 250.323 512.646 249.512C511.878 248.68 510.843 248.264 509.542 248.264C508.283 248.264 507.249 248.68 506.438 249.512C505.649 250.323 505.254 251.453 505.254 252.904V253.224C505.254 254.675 505.649 255.816 506.438 256.648ZM525.616 261H521.584V245.128H525.552V247.208H526.128C526.832 245.651 528.378 244.872 530.768 244.872C532.602 244.872 534.085 245.48 535.216 246.696C536.368 247.891 536.944 249.501 536.944 251.528V261H532.912V251.848C532.912 249.459 531.781 248.264 529.52 248.264C528.282 248.264 527.322 248.68 526.64 249.512C525.957 250.323 525.616 251.464 525.616 252.936V261ZM551.425 261H546.945C545.9 261 545.046 260.68 544.385 260.04C543.745 259.379 543.425 258.504 543.425 257.416V248.456H539.457V245.128H543.425V240.2H547.457V245.128H551.809V248.456H547.457V256.712C547.457 257.352 547.756 257.672 548.353 257.672H551.425V261ZM559.491 261H555.459V245.128H559.427V246.92H560.003C560.472 245.683 561.496 245.064 563.075 245.064H564.995V248.648H563.011C561.944 248.648 561.091 248.936 560.451 249.512C559.811 250.067 559.491 250.888 559.491 251.976V261ZM572.699 261.448C570.907 261.448 569.467 261 568.379 260.104C567.291 259.187 566.747 257.939 566.747 256.36C566.747 254.781 567.281 253.565 568.347 252.712C569.435 251.837 570.95 251.4 572.891 251.4H577.243V250.504C577.243 249.715 576.998 249.096 576.507 248.648C576.017 248.179 575.281 247.944 574.299 247.944C572.486 247.944 571.419 248.765 571.099 250.408L567.387 249.16C567.814 247.795 568.614 246.707 569.787 245.896C570.961 245.085 572.486 244.68 574.363 244.68C576.475 244.68 578.129 245.213 579.323 246.28C580.539 247.325 581.147 248.829 581.147 250.792V256.712C581.147 257.352 581.446 257.672 582.043 257.672H583.323V261H580.635C579.846 261 579.195 260.808 578.683 260.424C578.171 260.04 577.915 259.528 577.915 258.888V258.856H577.307C577.222 259.091 577.03 259.421 576.731 259.848C575.942 260.915 574.598 261.448 572.699 261.448ZM573.403 258.184C574.534 258.184 575.451 257.875 576.155 257.256C576.881 256.616 577.243 255.773 577.243 254.728V254.408H573.179C572.433 254.408 571.846 254.568 571.419 254.888C570.993 255.208 570.779 255.656 570.779 256.232C570.779 256.829 571.003 257.309 571.451 257.672C571.921 258.013 572.571 258.184 573.403 258.184ZM593.415 261.448C590.94 261.448 588.945 260.712 587.431 259.24C585.937 257.768 585.191 255.784 585.191 253.288V252.84C585.191 250.344 585.937 248.36 587.431 246.888C588.945 245.416 590.94 244.68 593.415 244.68C595.697 244.68 597.5 245.267 598.823 246.44C600.145 247.613 600.967 249.075 601.287 250.824L597.383 251.656C597.255 250.611 596.86 249.789 596.199 249.192C595.537 248.573 594.641 248.264 593.511 248.264C592.231 248.264 591.196 248.669 590.407 249.48C589.617 250.291 589.223 251.432 589.223 252.904V253.224C589.223 254.696 589.617 255.837 590.407 256.648C591.196 257.459 592.231 257.864 593.511 257.864C595.772 257.864 597.095 256.723 597.479 254.44L601.383 255.368C601.084 256.541 600.615 257.565 599.975 258.44C598.524 260.445 596.337 261.448 593.415 261.448ZM614.769 261H610.289C609.243 261 608.39 260.68 607.729 260.04C607.089 259.379 606.769 258.504 606.769 257.416V248.456H602.801V245.128H606.769V240.2H610.801V245.128H615.153V248.456H610.801V256.712C610.801 257.352 611.099 257.672 611.697 257.672H614.769V261ZM625.395 261.448C623.304 261.448 621.597 261 620.275 260.104C618.973 259.187 618.184 257.907 617.907 256.264L621.619 255.304C622.024 257.267 623.283 258.248 625.395 258.248C626.312 258.248 626.995 258.088 627.443 257.768C627.912 257.448 628.147 257.032 628.147 256.52C628.147 256.029 627.933 255.656 627.507 255.4C627.101 255.123 626.419 254.899 625.459 254.728L624.562 254.568C623.432 254.333 622.419 254.035 621.523 253.672C619.496 252.861 618.483 251.496 618.483 249.576C618.483 248.019 619.048 246.813 620.179 245.96C621.309 245.107 622.835 244.68 624.755 244.68C626.504 244.68 627.965 245.075 629.139 245.864C630.312 246.632 631.091 247.667 631.475 248.968L627.731 250.12C627.411 248.627 626.419 247.88 624.755 247.88C623.176 247.88 622.387 248.381 622.387 249.384C622.387 250.237 623.176 250.803 624.755 251.08L625.651 251.24C626.973 251.496 628.061 251.773 628.915 252.072C631.005 252.84 632.051 254.227 632.051 256.232C632.051 257.875 631.453 259.155 630.259 260.072C629.064 260.989 627.443 261.448 625.395 261.448Z" fill="white"/>
<path d="M404.624 424H395.504V420.288V405.312V401.6H404.496C406.544 401.6 408.187 402.112 409.424 403.136C410.661 404.16 411.28 405.536 411.28 407.264V407.584C411.28 408.608 411.088 409.44 410.704 410.08C410.043 411.211 409.093 411.968 407.856 412.352V412.928C408.368 413.056 408.88 413.291 409.392 413.632C410.736 414.485 411.408 415.861 411.408 417.76V418.08C411.408 419.893 410.789 421.333 409.552 422.4C408.336 423.467 406.693 424 404.624 424ZM399.728 414.656V420.16H404.112C405.051 420.16 405.797 419.936 406.352 419.488C406.907 419.019 407.184 418.379 407.184 417.568V417.248C407.184 416.416 406.907 415.776 406.352 415.328C405.819 414.88 405.072 414.656 404.112 414.656H399.728ZM399.728 405.44V410.816H404.048C404.944 410.816 405.669 410.592 406.224 410.144C406.779 409.675 407.056 409.056 407.056 408.288V407.968C407.056 407.157 406.779 406.539 406.224 406.112C405.691 405.664 404.965 405.44 404.048 405.44H399.728ZM419.022 424H414.99V408.128H419.022V424ZM417.006 406.272C416.281 406.272 415.662 406.037 415.15 405.568C414.659 405.077 414.414 404.459 414.414 403.712C414.414 402.965 414.659 402.357 415.15 401.888C415.662 401.397 416.281 401.152 417.006 401.152C417.774 401.152 418.393 401.387 418.862 401.856C419.353 402.325 419.598 402.944 419.598 403.712C419.598 404.48 419.353 405.099 418.862 405.568C418.393 406.037 417.774 406.272 417.006 406.272ZM434.05 424H429.57C428.525 424 427.671 423.68 427.01 423.04C426.37 422.379 426.05 421.504 426.05 420.416V411.456H422.082V408.128H426.05V403.2H430.082V408.128H434.434V411.456H430.082V419.712C430.082 420.352 430.381 420.672 430.978 420.672H434.05V424ZM444.977 424.448C442.503 424.448 440.508 423.712 438.993 422.24C437.5 420.768 436.753 418.784 436.753 416.288V415.84C436.753 413.344 437.5 411.36 438.993 409.888C440.508 408.416 442.503 407.68 444.977 407.68C447.26 407.68 449.063 408.267 450.385 409.44C451.708 410.613 452.529 412.075 452.849 413.824L448.945 414.656C448.817 413.611 448.423 412.789 447.761 412.192C447.1 411.573 446.204 411.264 445.073 411.264C443.793 411.264 442.759 411.669 441.969 412.48C441.18 413.291 440.785 414.432 440.785 415.904V416.224C440.785 417.696 441.18 418.837 441.969 419.648C442.759 420.459 443.793 420.864 445.073 420.864C447.335 420.864 448.657 419.723 449.041 417.44L452.945 418.368C452.647 419.541 452.177 420.565 451.537 421.44C450.087 423.445 447.9 424.448 444.977 424.448ZM469.871 422.24C468.357 423.712 466.341 424.448 463.823 424.448C461.306 424.448 459.29 423.712 457.775 422.24C456.261 420.768 455.503 418.795 455.503 416.32V415.808C455.503 413.333 456.261 411.36 457.775 409.888C459.29 408.416 461.306 407.68 463.823 407.68C466.341 407.68 468.357 408.416 469.871 409.888C471.386 411.36 472.143 413.333 472.143 415.808V416.32C472.143 418.795 471.386 420.768 469.871 422.24ZM460.719 419.648C461.53 420.459 462.565 420.864 463.823 420.864C465.082 420.864 466.106 420.459 466.895 419.648C467.706 418.816 468.111 417.675 468.111 416.224V415.904C468.111 414.453 467.717 413.323 466.927 412.512C466.159 411.68 465.125 411.264 463.823 411.264C462.565 411.264 461.53 411.68 460.719 412.512C459.93 413.323 459.535 414.453 459.535 415.904V416.224C459.535 417.675 459.93 418.816 460.719 419.648ZM479.897 424H475.865V408.128H479.897V424ZM477.881 406.272C477.156 406.272 476.537 406.037 476.025 405.568C475.534 405.077 475.289 404.459 475.289 403.712C475.289 402.965 475.534 402.357 476.025 401.888C476.537 401.397 477.156 401.152 477.881 401.152C478.649 401.152 479.268 401.387 479.737 401.856C480.228 402.325 480.473 402.944 480.473 403.712C480.473 404.48 480.228 405.099 479.737 405.568C479.268 406.037 478.649 406.272 477.881 406.272ZM488.397 424H484.365V408.128H488.333V410.208H488.909C489.613 408.651 491.16 407.872 493.549 407.872C495.384 407.872 496.866 408.48 497.997 409.696C499.149 410.891 499.725 412.501 499.725 414.528V424H495.693V414.848C495.693 412.459 494.562 411.264 492.301 411.264C491.064 411.264 490.104 411.68 489.421 412.512C488.738 413.323 488.397 414.464 488.397 415.936V424Z" fill="white"/>
</svg>
