<?xml version="1.0" encoding="utf-8"?>
<!-- Generator: Adobe Illustrator 22.0.0, SVG Export Plug-In . SVG Version: 6.00 Build 0)  -->
<svg version="1.1" id="Capa_1" xmlns="http://www.w3.org/2000/svg" xmlns:xlink="http://www.w3.org/1999/xlink" x="0px" y="0px"
	 viewBox="0 0 111 116.1" style="enable-background:new 0 0 111 116.1;" xml:space="preserve">
<style type="text/css">
	.st0{fill:#00B900;}
</style>
<g>
	<g>
		<path class="st0" d="M94.1,37.7c0-5.5-4.5-10-10-10H79v-5.4c0-1.1-0.9-2-2-2s-2,0.9-2,2v5.4H36v-5.4c0-1.1-0.9-2-2-2s-2,0.9-2,2
			v5.4h-5.1c-5.5,0-10,4.5-10,10v48c0,5.5,4.5,10,10,10h57.2c5.5,0,10-4.5,10-10V37.7z M26.9,31.7H32v3.8c0,1.1,0.9,2,2,2s2-0.9,2-2
			v-3.8h39v3.8c0,1.1,0.9,2,2,2s2-0.9,2-2v-3.8h5.1c3.3,0,6,2.7,6,6v7.4H20.9v-7.4C20.9,34.4,23.6,31.7,26.9,31.7z M84.1,91.7H26.9
			c-3.3,0-6-2.7-6-6V49.1h69.2v36.6C90.1,89,87.4,91.7,84.1,91.7z"/>
		<path class="st0" d="M69,60.2L51.2,75.9l-8-8.1c-0.9-0.7-2.1-0.5-2.8,0.4c-0.5,0.7-0.5,1.7,0,2.4l9.2,9.5c0.4,0.4,0.9,0.6,1.5,0.6
			c0.5,0,0.9-0.2,1.3-0.5l19.3-17c0.8-0.8,0.9-2,0.2-2.9C71.1,59.5,69.8,59.5,69,60.2z"/>
	</g>
</g>
</svg>
