<svg xmlns="http://www.w3.org/2000/svg" viewBox="0 0 124 124"><defs><style>.a{fill:#fff;}</style></defs><title>btc-icon-white</title><path class="a" d="M50.29,80.38h-2.2a2.75,2.75,0,0,0,0,5.49h6.65v2.2a2.75,2.75,0,0,0,5.5,0V85.84l4.94,0v2.24a2.75,2.75,0,1,0,5.49,0V85.44a14.11,14.11,0,0,0,3.54-26.13,12.45,12.45,0,0,0-3.54-20V35.94a2.75,2.75,0,1,0-5.49,0v2.19H60.24V35.94a2.75,2.75,0,0,0-5.5,0v2.19H48.09a2.75,2.75,0,0,0,0,5.49h2.2V80.38Zm17.16,0-11.67,0V63.1l11.67,0a8.63,8.63,0,0,1,0,17.25ZM65.3,57.57H55.78v-14H65.3a7,7,0,1,1,0,14Z"/><path class="a" d="M62,124A62,62,0,0,0,108.74,21.27a2.75,2.75,0,1,0-4.14,3.61A56.53,56.53,0,1,1,97,17.65a2.75,2.75,0,0,0,3.41-4.31A61.34,61.34,0,0,0,62,0a62,62,0,0,0,0,124Z"/><path class="a" d="M34.26,95.11A2.75,2.75,0,0,0,34.84,99,45.91,45.91,0,1,0,26.49,91a2.75,2.75,0,1,0,4.25-3.48,40.39,40.39,0,1,1,7.36,7A2.76,2.76,0,0,0,34.26,95.11Z"/></svg>