<svg xmlns="http://www.w3.org/2000/svg" viewBox="0 0 278.95 214.79"><defs><style>.a{fill:#006e3c;}.b{fill:#00b520;}.c{stroke:#000;stroke-miterlimit:10;stroke-width:1.78px;}.d{fill:#fff;}</style></defs><title>btc-logo</title><path class="a" d="M218.49,55.77l56.23-31.94s-19.4-13-38.67-2.09S218.49,55.77,218.49,55.77Z"/><path class="b" d="M274.72,23.83s1.27,23.34-18,34.29-38.22-2.35-38.22-2.35Z"/><path class="c" d="M154.4,95.51,218,59.41c5.33,2.8,23.53,10.93,39.88,1.64,18.93-10.74,20.1-36.23,20.13-37.3L278,22l-1.58-.86c-.94-.53-23.43-12.58-42.35-1.83-16.36,9.29-18.69,29.09-19,35.1l-63.56,36.1M237,24.31c13.41-7.62,29.83-1.31,35,1.06-.62,5.69-3.58,23-17,30.64-11.23,6.37-24.07,2.69-30.82-.12l21.2-12a2.9,2.9,0,0,0-2.86-5l-21.21,12C222.31,43.61,225.71,30.71,237,24.31Z"/><circle class="b" cx="107.39" cy="107.39" r="103"/><circle class="d" cx="107.39" cy="107.39" r="73.34"/><path d="M87.1,139.23H83.31a4.76,4.76,0,1,0,0,9.51H94.82v3.81a4.76,4.76,0,0,0,9.52,0v-3.85l8.56,0v3.88a4.76,4.76,0,0,0,9.51,0V148a24.44,24.44,0,0,0,6.13-45.26,21.58,21.58,0,0,0-6.13-34.59v-5.9a4.76,4.76,0,1,0-9.51,0v3.8h-8.56v-3.8a4.76,4.76,0,0,0-9.52,0v3.8H83.31a4.76,4.76,0,1,0,0,9.51H87.1v63.67Zm29.73-.09c-3.68,0-14,0-20.21.06V109.29l20.21,0a14.94,14.94,0,1,1,0,29.88Zm-3.71-39.42-16.5,0V75.56h16.5a12.08,12.08,0,0,1,0,24.16Z"/><path d="M214.79,107.39a107.39,107.39,0,0,0-177.95-81,4.76,4.76,0,1,0,6.25,7.17A97.88,97.88,0,1,1,9.51,107.39,96.81,96.81,0,0,1,30.57,46.75a4.76,4.76,0,1,0-7.47-5.9A106.28,106.28,0,0,0,0,107.39a107.4,107.4,0,1,0,214.79,0Z"/><path d="M59.34,164.74a4.76,4.76,0,0,0,1,6.65,79.43,79.43,0,1,0-32.39-64,79.58,79.58,0,0,0,17.93,50.26,4.76,4.76,0,1,0,7.36-6A69.89,69.89,0,1,1,66,163.73,4.76,4.76,0,0,0,59.34,164.74Z"/><path d="M202.38,68.78a4.14,4.14,0,0,1-2-7.76l15.14-8.48a4.14,4.14,0,1,1,4,7.23L204.4,68.25A4.12,4.12,0,0,1,202.38,68.78Z"/></svg>