<?xml version="1.0" encoding="utf-8"?>
<!-- Generator: Adobe Illustrator 22.0.0, SVG Export Plug-In . SVG Version: 6.00 Build 0)  -->
<svg version="1.1" id="Capa_1" xmlns="http://www.w3.org/2000/svg" xmlns:xlink="http://www.w3.org/1999/xlink" x="0px" y="0px"
	 viewBox="0 0 111 116.1" style="enable-background:new 0 0 111 116.1;" xml:space="preserve">
<style type="text/css">
	.st0{fill:#008BFF;}
</style>
<g>
	<path class="st0" d="M55.5,25c-16.9,0-30.8,13.8-30.8,30.8c0,10.6,5.6,20.5,14.6,26.1v17.5c0,8.9,7.3,16.1,16.1,16.1
		c8.8,0,16.1-7.3,16.1-16.1V81.9c9-5.6,14.6-15.4,14.6-26.1C86.3,38.8,72.4,25,55.5,25z M67.9,97.1H43.1v-7.3h24.7V97.1z
		 M55.5,111.8c-6.3,0-11.6-4.8-12.4-11h24.7C67.1,107,61.8,111.8,55.5,111.8z M68.8,79.2c-0.6,0.4-1,1-1,1.6V86H43.1v-5.2
		c0-0.6-0.4-1.2-1-1.6c-8.4-4.8-13.7-13.8-13.7-23.5c0-14.9,12.1-27,27-27s27,12.1,27,27C82.5,65.4,77.2,74.4,68.8,79.2z"/>
	<path class="st0" d="M68.7,45.9c-0.9-0.6-2-0.4-2.6,0.4L51.4,66.7l-6.5-9.3c-0.6-0.9-1.7-1-2.6-0.4c-0.9,0.6-1,1.7-0.4,2.6
		l8.2,11.4c0.4,0.5,0.9,0.7,1.5,0.7c0.6,0,1.1-0.2,1.5-0.7l16.2-22.6C69.7,47.6,69.6,46.5,68.7,45.9z"/>
	<path class="st0" d="M55.5,17.9c1,0,1.9-0.9,1.9-1.9V2.5c0-1-0.9-1.9-1.9-1.9s-1.9,0.9-1.9,1.9v13.6C53.6,17.1,54.5,17.9,55.5,17.9
		z"/>
	<path class="st0" d="M26.1,29.1c0.4,0.4,0.9,0.5,1.4,0.5c0.5,0,1-0.1,1.4-0.5c0.7-0.7,0.7-1.9,0-2.6l-9.6-9.6
		c-0.7-0.7-1.9-0.7-2.6,0c-0.7,0.7-0.7,1.9,0,2.6L26.1,29.1z"/>
	<path class="st0" d="M84.9,82.4c-0.7-0.7-1.9-0.7-2.6,0c-0.7,0.7-0.7,1.9,0,2.6l9.6,9.6c0.4,0.4,0.9,0.5,1.4,0.5
		c0.5,0,1-0.1,1.4-0.5c0.7-0.7,0.7-1.9,0-2.6L84.9,82.4z"/>
	<path class="st0" d="M83.5,29.6c0.5,0,1-0.1,1.4-0.5l9.6-9.6c0.7-0.7,0.7-1.9,0-2.6c-0.7-0.7-1.9-0.7-2.6,0l-9.6,9.6
		c-0.7,0.7-0.7,1.9,0,2.6C82.5,29.4,83,29.6,83.5,29.6z"/>
	<path class="st0" d="M26.1,82.4l-9.6,9.6c-0.7,0.7-0.7,1.9,0,2.6c0.4,0.4,0.9,0.5,1.4,0.5c0.5,0,1-0.1,1.4-0.5l9.6-9.6
		c0.7-0.7,0.7-1.9,0-2.6C28.1,81.8,26.8,81.8,26.1,82.4z"/>
	<path class="st0" d="M108.7,53.9H95.1c-1,0-1.9,0.9-1.9,1.9c0,1,0.9,1.9,1.9,1.9h13.6c1,0,1.9-0.9,1.9-1.9
		C110.6,54.8,109.7,53.9,108.7,53.9z"/>
	<path class="st0" d="M17.7,55.7c0-1-0.9-1.9-1.9-1.9H2.3c-1,0-1.9,0.9-1.9,1.9c0,1,0.9,1.9,1.9,1.9h13.6
		C16.8,57.6,17.7,56.7,17.7,55.7z"/>
</g>
</svg>
