<?xml version="1.0" encoding="utf-8"?>
<!-- Generator: Adobe Illustrator 22.0.0, SVG Export Plug-In . SVG Version: 6.00 Build 0)  -->
<svg version="1.1" xmlns="http://www.w3.org/2000/svg" xmlns:xlink="http://www.w3.org/1999/xlink" x="0px" y="0px"
	 viewBox="0 0 771.1 437.8" style="enable-background:new 0 0 771.1 437.8;" xml:space="preserve">
<style type="text/css">
	.st0{display:none;}
	.st1{display:inline;fill:#5C5C5C;}
	.st2{fill:#FFFFFF;}
	.st3{font-family:'Objective-Bold';}
	.st4{font-size:30px;}
	.st5{font-family:'Objective-Light';}
	.st6{font-size:28px;}
	.st7{fill:#00B520;}
	.st8{fill:#3C3C3B;}
	.st9{font-family:'Objective-Regular';}
	.st10{font-size:24px;}
</style>
<g id="Capa_2" class="st0">
	<rect x="-325.1" y="-447.1" class="st1" width="1435.6" height="1344.4"/>
</g>
<g id="Capa_1">
	<g>
		<g>
			<text transform="matrix(1 0 0 1 5.0345 147.7142)"><tspan x="0" y="0" class="st2 st3 st4">On-Chain</tspan><tspan x="0" y="44" class="st2 st5 st6">Total $500M</tspan></text>
		</g>
		<g>
			<path class="st2" d="M423,195H283c-11,0-20-9-20-20V95c0-11,9-20,20-20h140c11,0,20,9,20,20v80C443,186.1,434.1,195,423,195z"/>
			<text transform="matrix(1 0 0 1 294.2503 142.8699)" class="st7 st3 st4">$500M</text>
		</g>
		<g>
			<path class="st2" d="M736.4,209.3H563.2c-13.7,0-24.8-11.1-24.8-24.8v-99c0-13.7,11.1-24.8,24.8-24.8h173.3
				c13.7,0,24.8,11.1,24.8,24.8v99C761.2,198.2,750.1,209.3,736.4,209.3z"/>
			<text transform="matrix(1 0 0 1 573.5839 106.1576)"><tspan x="0" y="0" class="st8 st9 st10">Addressable</tspan><tspan x="31.4" y="32" class="st8 st9 st10">market: </tspan><tspan x="-1.4" y="70" class="st7 st3 st4">$1B - $3B</tspan></text>
		</g>
		<g>
			<text transform="matrix(1 0 0 1 5.0345 341.1859)"><tspan x="0" y="0" class="st2 st3 st4">Off-Chain</tspan><tspan x="0" y="44" class="st2 st5 st6">Total $4.1B</tspan></text>
		</g>
		<g>
			<path class="st2" d="M423,412.4H283c-11,0-20-9-20-20v-80c0-11,9-20,20-20h140c11,0,20,9,20,20v80
				C443,403.4,434.1,412.4,423,412.4z"/>
			<text transform="matrix(1 0 0 1 294.3551 341.1859)"><tspan x="0" y="0" class="st7 st3 st4">$300M</tspan><tspan x="-0.1" y="38" class="st7 st3 st4">$600M</tspan></text>
		</g>
		<g>
			<path class="st2" d="M736.4,426.6H563.2c-13.7,0-24.8-11.1-24.8-24.8v-99c0-13.7,11.1-24.8,24.8-24.8h173.3
				c13.7,0,24.8,11.1,24.8,24.8v99C761.2,415.5,750.1,426.6,736.4,426.6z"/>
			<text transform="matrix(1 0 0 1 604.0032 360.1859)" class="st7 st3 st4">$3.5B</text>
		</g>
		<g>
			<text transform="matrix(1 0 0 1 285.9335 34.7215)" class="st2 st5 st6">Ethereum</text>
		</g>
		<g>
			<text transform="matrix(1 0 0 1 602.6592 34.7215)" class="st2 st5 st6">Bitcoin</text>
		</g>
	</g>
</g>
</svg>
