<?xml version="1.0" encoding="utf-8"?>
<!-- Generator: Adobe Illustrator 22.0.0, SVG Export Plug-In . SVG Version: 6.00 Build 0)  -->
<svg version="1.1" id="Capa_1" xmlns="http://www.w3.org/2000/svg" xmlns:xlink="http://www.w3.org/1999/xlink" x="0px" y="0px"
	 viewBox="0 0 1334 496" style="enable-background:new 0 0 1334 496;" xml:space="preserve">
<style type="text/css">
	.st0{fill:#00B520;}
	.st1{font-family:'Objective-Bold';}
	.st2{font-size:30px;}
	.st3{fill:#FFFFFF;}
	.st4{font-family:'Objective-Light';}
	.st5{font-size:24px;}
	.st6{fill:#3C3C3B;}
	.st7{font-family:'Objective-Regular';}
	.st8{fill:none;stroke:#000000;stroke-width:3;stroke-linecap:round;stroke-miterlimit:10;}
	.st9{fill:none;stroke:#000000;stroke-width:3;stroke-linecap:round;stroke-linejoin:round;stroke-miterlimit:10;}
	.st10{fill:none;}
</style>
<g>
	<path class="st0" d="M384.5,196.7H19.9c-8.6,0-15.6-7-15.6-15.6V82.3c0-8.6,7-15.6,15.6-15.6h364.6c8.6,0,15.6,7,15.6,15.6v98.8
		C400.1,189.7,393.2,196.7,384.5,196.7z"/>
	<path class="st0" d="M1314.1,196.7H949.5c-8.6,0-15.6-7-15.6-15.6V82.3c0-8.6,7-15.6,15.6-15.6h364.6c8.6,0,15.6,7,15.6,15.6v98.8
		C1329.7,189.7,1322.7,196.7,1314.1,196.7z"/>
	<text transform="matrix(1 0 0 1 33.0945 37.7068)" class="st0 st1 st2">ABC a BTC Exchange</text>
	<text transform="matrix(1 0 0 1 49.4482 118.201)"><tspan x="0" y="0" class="st3 st4 st5">Incremento reservas ABC</tspan><tspan x="1.1" y="36" class="st3 st4 st5">Incremento reservas BTC</tspan></text>
	<text transform="matrix(1 0 0 1 965.2244 37.7068)" class="st0 st1 st2">XYZ a Exchange BTC</text>
	<text transform="matrix(1 0 0 1 980.0808 118.1717)"><tspan x="0" y="0" class="st3 st4 st5">Incremento reservas BTC</tspan><tspan x="6.6" y="36" class="st3 st4 st5">Reduccion reservas XYZ</tspan></text>
	<g>
		<text transform="matrix(1 0 0 1 640.9878 22.468)"><tspan x="0" y="0" class="st1 st5">BTC</tspan><tspan x="-56.7" y="32" class="st6 st7 st5">Dirección del </tspan><tspan x="-40.7" y="64" class="st6 st7 st5">comprador</tspan></text>
	</g>
	<g>
		<text transform="matrix(1 0 0 1 150.2178 419.6834)"><tspan x="0" y="0" class="st6 st7 st5">ABC tokens</tspan><tspan x="0" y="32" class="st6 st7 st5">Direccion XYZ</tspan></text>
	</g>
	<g>
		<text transform="matrix(1 0 0 1 611.2642 487.0673)" class="st6 st7 st5">Comprador</text>
	</g>
	<line class="st8" x1="471.1" y1="130.7" x2="851.8" y2="130.7"/>
	<polyline class="st9" points="838.1,113 855.7,130.7 838.1,148.4 	"/>
	<line class="st8" x1="545.3" y1="428.5" x2="376.8" y2="428.5"/>
	<polyline class="st9" points="390.5,446.2 372.8,428.5 390.5,410.8 	"/>
	<line class="st8" x1="202.2" y1="365.3" x2="202.2" y2="229"/>
	<polyline class="st9" points="184.5,242.8 202.2,225.1 219.9,242.8 	"/>
	<polyline class="st9" points="846.6,446.2 828.9,428.5 846.6,410.8 	"/>
	<polyline class="st8" points="1131.8,229 1131.8,428.5 832.7,428.5 	"/>
	<g>
		<path class="st10" d="M679.6,357.8c15.2,0,27.5-12.4,27.5-27.5s-12.4-27.5-27.5-27.5s-27.5,12.4-27.5,27.5
			S664.4,357.8,679.6,357.8z"/>
		<path class="st0" d="M679.6,366.6c20,0,36.3-16.3,36.3-36.3c0-20-16.3-36.3-36.3-36.3s-36.3,16.3-36.3,36.3
			C643.4,350.3,659.6,366.6,679.6,366.6z M679.6,300.3c16.6,0,30,13.5,30,30c0,16.6-13.5,30-30,30s-30-13.5-30-30
			C649.6,313.7,663,300.3,679.6,300.3z"/>
		<path class="st0" d="M713.2,377.5h-67.1c-9.6,0-19.1,3.3-26.6,9.3c-1.3,1.1-1.6,3-0.5,4.4c1.1,1.3,3,1.6,4.4,0.5
			c6.5-5.2,14.4-7.9,22.7-7.9h67.1c20.1,0,36.5,16.4,36.5,36.5v21.4c0,0.7-0.6,1.3-1.3,1.3h-20.8V421c0-1.7-1.4-3.1-3.1-3.1
			s-3.1,1.4-3.1,3.1v21.9h-82.4V421c0-1.7-1.4-3.1-3.1-3.1s-3.1,1.4-3.1,3.1v21.9h-21.8c-0.7,0-1.3-0.6-1.3-1.3v-21.4
			c0-6.2,1.6-12.3,4.5-17.6c0.4-0.7,0.5-1.6,0.3-2.4c-0.2-0.8-0.8-1.5-1.5-1.9c-0.5-0.3-1-0.4-1.5-0.4c-1.1,0-2.2,0.6-2.7,1.6
			c-3.5,6.3-5.3,13.4-5.3,20.7v21.4c0,4.2,3.4,7.5,7.5,7.5h137.4c4.2,0,7.5-3.4,7.5-7.5v-21.4C755.8,396.6,736.7,377.5,713.2,377.5z
			"/>
	</g>
</g>
</svg>
