<svg xmlns="http://www.w3.org/2000/svg" viewBox="0 0 253.42 141.54"><defs><style>.a,.b{fill:#00b520;stroke:#fff;stroke-miterlimit:10;}.a{stroke-width:1.41px;}.b{stroke-width:0.71px;}</style></defs><title>dollar-icon</title><path class="a" d="M187.87,140.84a3.7,3.7,0,0,0,0-7.4H8.1V8.1H37.21a3.7,3.7,0,1,0,0-7.39H4.4A3.69,3.69,0,0,0,.71,4.4V137.14a3.7,3.7,0,0,0,3.69,3.7Z"/><path class="a" d="M52,.71A3.7,3.7,0,1,0,52,8.1H245.32V133.44H202.65a3.7,3.7,0,1,0,0,7.4H249a3.7,3.7,0,0,0,3.7-3.7V4.4A3.7,3.7,0,0,0,249,.71H52Z"/><path class="b" d="M126.71,101.15A30.33,30.33,0,1,0,96.38,70.82a30.36,30.36,0,0,0,30.33,30.33Zm0-54.31a24,24,0,1,1-24,24,24,24,0,0,1,24-24Z"/><path class="a" d="M95.42,122.72H208a3.7,3.7,0,0,0,3.69-3.7c0-9.3,9.39-18.44,18.95-18.44a3.7,3.7,0,0,0,3.7-3.69V44.65a3.7,3.7,0,0,0-3.7-3.69c-9.56,0-18.95-9.14-18.95-18.44a3.69,3.69,0,0,0-3.69-3.7H43.38a3.69,3.69,0,0,0-3.69,3.7c0,9.87-7.92,18.54-16.94,18.54a3.7,3.7,0,0,0-3.7,3.69v52a3.7,3.7,0,0,0,3.7,3.69c9,0,16.94,8.66,16.94,18.54a3.7,3.7,0,0,0,3.69,3.7H80.63a3.7,3.7,0,0,0,0-7.4H46.81a27.32,27.32,0,0,0-6.71-14.18A23.79,23.79,0,0,0,26.45,93.4V48.14A23.9,23.9,0,0,0,40.1,40.4a27.36,27.36,0,0,0,6.71-14.19H204.66c1.86,10.63,11.48,20,22.32,21.83V93.49c-10.84,1.8-20.46,11.21-22.32,21.83H95.42a3.7,3.7,0,0,0,0,7.4Z"/></svg>