<?xml version="1.0" encoding="utf-8"?>
<!-- Generator: Adobe Illustrator 22.0.0, SVG Export Plug-In . SVG Version: 6.00 Build 0)  -->
<svg version="1.1" id="Capa_1" xmlns="http://www.w3.org/2000/svg" xmlns:xlink="http://www.w3.org/1999/xlink" x="0px" y="0px"
	 viewBox="0 0 111 116.1" style="enable-background:new 0 0 111 116.1;" xml:space="preserve">
<style type="text/css">
	.st0{fill:#00B900;}
</style>
<g>
	<g>
		<path class="st0" d="M96.2,15.5H25.4c-3.4,0-6.1,2.8-6.1,6.1v4.6h-4.6c-3.4,0-6.1,2.8-6.1,6.1v46c0,3.4,2.8,6.1,6.1,6.1h4.8V99
			c0,1.2,1.4,2,2.5,1.2l21-15.7h42.6c3.4,0,6.1-2.8,6.1-6.1v-4.6h4.6c3.4,0,6.1-2.8,6.1-6.1v-46C102.4,18.2,99.6,15.5,96.2,15.5z
			 M88.6,78.4c0,1.7-1.4,3.1-3.1,3.1H42.4c-0.3,0-0.6,0.2-0.9,0.3L22.4,96V83c0-0.9-0.6-1.5-1.5-1.5h-6.3c-1.7,0-3.1-1.4-3.1-3.1
			v-46c0-1.7,1.4-3.1,3.1-3.1h71c1.7,0,3.1,1.4,3.1,3.1L88.6,78.4L88.6,78.4z M99.3,67.6c0,1.7-1.4,3.1-3.1,3.1h-4.6V32.3
			c0-3.4-2.8-6.1-6.1-6.1H22.3v-4.6c0-1.7,1.4-3.1,3.1-3.1h71c1.7,0,3.1,1.4,3.1,3.1v46H99.3z"/>
		<path class="st0" d="M38.4,57.5H22.3c-0.9,0-1.5,0.6-1.5,1.5v15.5c0,0.9,0.6,1.5,1.5,1.5h16.1c0.9,0,1.5-0.6,1.5-1.5V59
			C39.9,58.3,39.3,57.5,38.4,57.5z M36.9,73h-13V60.6h13V73z"/>
		<path class="st0" d="M48.4,64.7h17.9c0.9,0,1.5-0.6,1.5-1.5s-0.6-1.5-1.5-1.5H48.4c-0.9,0-1.5,0.6-1.5,1.5
			C46.8,64.1,47.6,64.7,48.4,64.7z"/>
		<path class="st0" d="M77.8,68.8H48.4c-0.9,0-1.5,0.6-1.5,1.5s0.6,1.5,1.5,1.5h29.5c0.9,0,1.5-0.6,1.5-1.5
			C79.4,69.5,78.7,68.8,77.8,68.8z"/>
		<path class="st0" d="M38.4,34.6H22.3c-0.9,0-1.5,0.6-1.5,1.5v15.5c0,0.9,0.6,1.5,1.5,1.5h16.1c0.9,0,1.5-0.6,1.5-1.5V36.2
			C39.9,35.4,39.3,34.6,38.4,34.6z M36.9,50.1h-13V37.7h13V50.1z"/>
		<path class="st0" d="M48.4,41.8h17.9c0.9,0,1.5-0.6,1.5-1.5s-0.6-1.5-1.5-1.5H48.4c-0.9,0-1.5,0.6-1.5,1.5
			C46.8,41.2,47.6,41.8,48.4,41.8z"/>
		<path class="st0" d="M77.8,46H48.4c-0.9,0-1.5,0.6-1.5,1.5s0.6,1.5,1.5,1.5h29.5c0.9,0,1.5-0.6,1.5-1.5S78.7,46,77.8,46z"/>
	</g>
</g>
</svg>
