<?xml version="1.0" encoding="utf-8"?>
<!-- Generator: Adobe Illustrator 22.0.0, SVG Export Plug-In . SVG Version: 6.00 Build 0)  -->
<svg version="1.1" id="Capa_1" xmlns="http://www.w3.org/2000/svg" xmlns:xlink="http://www.w3.org/1999/xlink" x="0px" y="0px"
	 viewBox="0 0 111 116.1" style="enable-background:new 0 0 111 116.1;" xml:space="preserve">
<style type="text/css">
	.st0{fill:#00B900;}
</style>
<g>
	<path class="st0" d="M55.5,24.9c-18.3,0-33.2,14.9-33.2,33.2s14.9,33.2,33.2,33.2s33.2-15,33.2-33.3S73.8,24.9,55.5,24.9z
		 M55.5,88.4c-16.8,0-30.4-13.6-30.4-30.4s13.6-30.4,30.4-30.4S85.9,41.2,85.9,58S72.3,88.4,55.5,88.4z"/>
	<path class="st0" d="M109.3,47.8c0.4,0,0.7-0.2,1-0.6c0.2-0.3,0.3-0.7,0.2-1.1c-1.4-6.6-4-12.9-7.7-18.6c-0.2-0.3-0.6-0.5-0.9-0.6
		c-0.4-0.1-0.8,0-1.1,0.3c-4.1,3.3-10,3-13.7-0.7s-4-9.6-0.7-13.7c0.2-0.3,0.3-0.7,0.3-1.1c-0.1-0.4-0.3-0.7-0.6-0.9
		c-5.7-3.7-12-6.3-18.6-7.7c-0.4-0.1-0.8,0-1.1,0.2c-0.3,0.2-0.5,0.6-0.6,1c-0.6,5.2-4.9,9.2-10.2,9.2S46,9.6,45.4,4.3
		c0-0.4-0.2-0.7-0.6-1C44.4,3.1,44,3,43.6,3.1C37,4.5,30.7,7.1,25,10.8c-0.3,0.2-0.5,0.6-0.6,0.9c-0.1,0.4,0,0.8,0.3,1.1
		c3.3,4.1,3,10-0.7,13.7s-9.6,4-13.7,0.7C10,27,9.6,26.9,9.2,26.9c-0.4,0.1-0.7,0.3-0.9,0.6c-3.7,5.7-6.3,12-7.7,18.6
		c-0.1,0.4,0,0.8,0.2,1.1s0.6,0.5,1,0.6C7,48.4,11,52.7,11,58s-4,9.7-9.3,10.2c-0.4,0-0.7,0.2-1,0.6c-0.2,0.3-0.3,0.7-0.2,1.1
		c1.4,6.6,4,12.9,7.7,18.6c0.2,0.3,0.6,0.5,0.9,0.6c0.4,0.1,0.8,0,1.1-0.3c4.1-3.3,10-3,13.7,0.7s4,9.6,0.7,13.7
		c-0.2,0.3-0.3,0.7-0.3,1.1c0.1,0.4,0.3,0.7,0.6,0.9c5.7,3.7,12,6.3,18.6,7.7c0.4,0.1,0.8,0,1.1-0.2s0.5-0.6,0.6-1
		c0.5-5.2,4.9-9.2,10.2-9.2s9.6,3.9,10.2,9.2c0,0.4,0.2,0.7,0.6,1c0.2,0.2,0.5,0.3,0.8,0.3c0.1,0,0.2,0,0.3,0
		c6.6-1.4,12.9-4,18.6-7.7c0.3-0.2,0.5-0.6,0.6-0.9c0.1-0.4,0-0.8-0.3-1.1c-3.3-4.1-3-10,0.7-13.7s9.6-4,13.7-0.7
		c0.3,0.2,0.7,0.4,1.1,0.3s0.7-0.3,0.9-0.6c3.7-5.7,6.3-12,7.7-18.6c0.1-0.4,0-0.8-0.2-1.1c-0.2-0.3-0.6-0.5-1-0.6
		c-5.2-0.6-9.2-4.9-9.2-10.2S104,48.4,109.3,47.8z M97.3,58c0,6.2,4.3,11.4,10.1,12.7c-1.3,5.3-3.4,10.4-6.3,15.1
		C96,82.6,89.3,83.3,85,87.6c-4.3,4.3-5,11-1.8,16.1c-4.7,2.9-9.8,5-15.1,6.3c-1.3-5.9-6.5-10.1-12.7-10.1S44,104.1,42.7,110
		c-5.3-1.3-10.4-3.4-15.1-6.3c3.2-5.1,2.5-11.8-1.8-16.1c-4.3-4.3-11-5-16.1-1.8c-2.9-4.7-5-9.8-6.3-15.1
		c5.9-1.3,10.1-6.5,10.1-12.7s-4.1-11.3-10-12.7C4.8,40,6.9,35,9.8,30.3c5.1,3.2,11.8,2.5,16.1-1.8s5-11,1.8-16.1
		c4.7-2.9,9.8-5,15.1-6.3c1.3,5.9,6.5,10.1,12.7,10.1S66.9,12,68.2,6.1c5.3,1.3,10.4,3.4,15.1,6.3c-3.2,5.1-2.5,11.8,1.8,16.1
		s11,5,16.1,1.8c2.9,4.7,5,9.8,6.3,15.1C101.6,46.7,97.3,51.9,97.3,58z"/>
	<path class="st0" d="M68.1,47.3h-1v-4.8c0-2.3-1.8-4.1-4.1-4.1H48c-2.3,0-4.1,1.8-4.1,4.1v4.8h-1c-3.1,0-5.6,2.5-5.6,5.6v16.9
		c0,3.1,2.5,5.6,5.6,5.6h25.3c3.1,0,5.6-2.5,5.6-5.6V52.9C73.8,49.8,71.3,47.3,68.1,47.3z M46.6,42.5c0-0.7,0.6-1.3,1.3-1.3H63
		c0.7,0,1.3,0.6,1.3,1.3v4.8H46.6V42.5z M42.9,50h25.3c1.6,0,2.9,1.3,2.9,2.9v4.4H60.6v-2.1c0-0.8-0.6-1.4-1.4-1.4h-7.5
		c-0.8,0-1.4,0.6-1.4,1.4v2.1H40v-4.4C40,51.3,41.3,50,42.9,50z M57.9,60.8h-4.7v-4.2h4.7V60.8z M68.1,72.7H42.9
		c-1.6,0-2.9-1.3-2.9-2.9V60h10.4v2.1c0,0.8,0.6,1.4,1.4,1.4h7.5c0.8,0,1.4-0.6,1.4-1.4V60H71v9.7C71,71.4,69.7,72.7,68.1,72.7z"/>
</g>
</svg>
