<?xml version="1.0" encoding="utf-8"?>
<!-- Generator: Adobe Illustrator 22.0.0, SVG Export Plug-In . SVG Version: 6.00 Build 0)  -->
<svg version="1.1" id="Capa_1" xmlns="http://www.w3.org/2000/svg" xmlns:xlink="http://www.w3.org/1999/xlink" x="0px" y="0px"
	 viewBox="0 0 615 640" style="enable-background:new 0 0 615 640;" xml:space="preserve">
<style type="text/css">
	.st0{enable-background:new    ;}
	.st1{clip-path:url(#XMLID_23_);enable-background:new    ;}
	.st2{fill:#62CC22;}
	.st3{fill:#62CE22;}
	.st4{fill:#62CF23;}
	.st5{fill:#62D123;}
	.st6{fill:#62D323;}
	.st7{fill:#62D523;}
	.st8{fill:#62D723;}
	.st9{fill:#62D923;}
	.st10{fill:#62DA24;}
	.st11{fill:#62DC24;}
	.st12{fill:#62DE24;}
	.st13{fill:#62E024;}
	.st14{fill:#62E551;}
	.st15{fill:#62E864;}
	.st16{fill:#62E973;}
	.st17{fill:#62EB80;}
	.st18{fill:#62ED8B;}
	.st19{fill:#63ED94;}
	.st20{fill:#63EE9D;}
	.st21{clip-path:url(#XMLID_24_);enable-background:new    ;}
	.st22{fill:#62CA22;}
	.st23{fill:#62C822;}
	.st24{fill:#62C622;}
	.st25{fill:#62C422;}
	.st26{fill:#62C321;}
	.st27{fill:#62C121;}
	.st28{clip-path:url(#XMLID_29_);enable-background:new    ;}
	.st29{fill:#62BB21;}
	.st30{fill:#62BD21;}
	.st31{fill:#62BF21;}
	.st32{fill:#57A212;}
	.st33{fill:#338B12;}
	.st34{fill:#63CE3D;}
	.st35{clip-path:url(#XMLID_30_);enable-background:new    ;}
	.st36{clip-path:url(#XMLID_31_);enable-background:new    ;}
	.st37{clip-path:url(#XMLID_32_);enable-background:new    ;}
	.st38{clip-path:url(#XMLID_33_);enable-background:new    ;}
	.st39{clip-path:url(#XMLID_34_);enable-background:new    ;}
	.st40{clip-path:url(#XMLID_35_);enable-background:new    ;}
	.st41{clip-path:url(#XMLID_36_);enable-background:new    ;}
	.st42{fill:#56A812;}
	.st43{clip-path:url(#XMLID_37_);enable-background:new    ;}
	.st44{fill:#62C522;}
	.st45{fill:#62C722;}
	.st46{fill:#62CB22;}
	.st47{fill:#62CD22;}
	.st48{fill:#62D223;}
	.st49{fill:#62D423;}
	.st50{fill:#62D823;}
	.st51{fill:#62DA23;}
	.st52{fill:#62DB24;}
	.st53{fill:#62DF24;}
	.st54{fill:#62E23D;}
	.st55{fill:#62E448;}
	.st56{fill:#62E550;}
	.st57{fill:#62E656;}
	.st58{fill:#62E75D;}
	.st59{fill:#62E762;}
	.st60{fill:#62E867;}
	.st61{fill:#62E96C;}
	.st62{fill:#62E970;}
	.st63{fill:#62EA74;}
	.st64{fill:#62EA79;}
	.st65{fill:#62EB7C;}
	.st66{fill:#62EC83;}
	.st67{fill:#62EC86;}
	.st68{fill:#62EB8A;}
	.st69{fill:#62EC8C;}
	.st70{fill:#63EC90;}
	.st71{fill:#63ED93;}
	.st72{fill:#63ED95;}
	.st73{fill:#63ED98;}
	.st74{fill:#63EE9B;}
	.st75{fill:#63BF3A;}
	.st76{clip-path:url(#XMLID_38_);enable-background:new    ;}
	.st77{fill:#62CF22;}
	.st78{fill:#62D623;}
	.st79{clip-path:url(#XMLID_39_);enable-background:new    ;}
	.st80{clip-path:url(#XMLID_40_);enable-background:new    ;}
	.st81{fill:#55B412;}
	.st82{fill:#499912;}
	.st83{fill:#63CD3D;}
	.st84{clip-path:url(#XMLID_41_);enable-background:new    ;}
	.st85{fill:#62D03E;}
	.st86{fill:#62D13E;}
	.st87{fill:#62D43E;}
	.st88{fill:#62D63F;}
	.st89{fill:#62D83F;}
	.st90{fill:#62DA3F;}
	.st91{fill:#62DD3F;}
	.st92{fill:#63E255;}
	.st93{clip-path:url(#XMLID_42_);enable-background:new    ;}
	.st94{clip-path:url(#XMLID_43_);enable-background:new    ;}
	.st95{clip-path:url(#XMLID_44_);enable-background:new    ;}
	.st96{clip-path:url(#XMLID_45_);enable-background:new    ;}
	.st97{clip-path:url(#XMLID_46_);enable-background:new    ;}
</style>
<g>
	<g id="XMLID_1_">
		<g id="XMLID_2_">
			<g id="XMLID_209_" class="st0">
				<defs>
					<path id="XMLID_210_" class="st0" d="M321.2,476.1c5.7-0.6,11.4-1.2,17.1-1.8c17.8,33.3,18.8,79.1,0.6,110.3l-17.1,1.8
						C340,555.2,339,509.4,321.2,476.1z"/>
				</defs>
				<clipPath id="XMLID_23_">
					<use xlink:href="#XMLID_210_"  style="overflow:visible;"/>
				</clipPath>
				<g id="XMLID_211_" class="st1">
					<path id="XMLID_241_" class="st2" d="M338.9,584.6l-17.1,1.8c0,0,0.1-0.1,0.1-0.1l17.1-1.8C339,584.5,338.9,584.6,338.9,584.6
						L338.9,584.6z"/>
					<path id="XMLID_240_" class="st3" d="M339,584.5l-17.1,1.8c0.5-0.9,1-1.8,1.5-2.7l17.1-1.8C340,582.7,339.5,583.6,339,584.5
						L339,584.5z"/>
					<path id="XMLID_239_" class="st4" d="M340.5,581.8l-17.1,1.8c0.5-0.9,1-1.8,1.4-2.8l17.1-1.8
						C341.4,579.9,341,580.9,340.5,581.8L340.5,581.8z"/>
					<path id="XMLID_238_" class="st5" d="M341.9,579l-17.1,1.8c0.5-1,0.9-2,1.4-3l17.1-1.8C342.8,577,342.4,578,341.9,579
						L341.9,579z"/>
					<path id="XMLID_237_" class="st6" d="M343.3,576l-17.1,1.8c0.4-1,0.9-2,1.3-3.1l17.1-1.8C344.2,574,343.7,575,343.3,576
						L343.3,576z"/>
					<path id="XMLID_236_" class="st7" d="M344.6,572.9l-17.1,1.8c0.4-1,0.8-2,1.1-3l17.1-1.8C345.4,570.9,345,571.9,344.6,572.9
						L344.6,572.9z"/>
					<path id="XMLID_235_" class="st8" d="M345.7,569.9l-17.1,1.8c0.4-1,0.7-2,1-3.1l17.1-1.8C346.4,567.9,346.1,568.9,345.7,569.9
						L345.7,569.9z"/>
					<path id="XMLID_234_" class="st9" d="M346.8,566.8l-17.1,1.8c0.3-1,0.6-2,0.9-3l17.1-1.8C347.4,564.8,347.1,565.8,346.8,566.8
						L346.8,566.8z"/>
					<path id="XMLID_233_" class="st10" d="M347.7,563.8l-17.1,1.8c0.3-1,0.6-2,0.8-3.1l17.1-1.8C348.3,561.8,348,562.8,347.7,563.8
						L347.7,563.8z"/>
					<path id="XMLID_232_" class="st11" d="M348.5,560.8l-17.1,1.8c0.3-1,0.5-2,0.7-3.1l17.1-1.8C349,558.7,348.8,559.7,348.5,560.8
						L348.5,560.8z"/>
					<path id="XMLID_231_" class="st12" d="M349.3,557.7l-17.1,1.8c0.2-1,0.4-2.1,0.7-3.1l17.1-1.8
						C349.7,555.6,349.5,556.7,349.3,557.7L349.3,557.7z"/>
					<path id="XMLID_230_" class="st13" d="M349.9,554.6l-17.1,1.8c0.2-1.1,0.4-2.1,0.6-3.2l17.1-1.8
						C350.3,552.5,350.1,553.5,349.9,554.6L349.9,554.6z"/>
					<path id="XMLID_229_" class="st14" d="M350.5,551.4l-17.1,1.8c0.2-1.1,0.3-2.1,0.5-3.2l17.1-1.8
						C350.8,549.3,350.7,550.4,350.5,551.4L350.5,551.4z"/>
					<path id="XMLID_228_" class="st15" d="M351,548.2l-17.1,1.8c0.2-1.1,0.3-2.3,0.4-3.4l17.1-1.8
						C351.3,545.9,351.1,547.1,351,548.2L351,548.2z"/>
					<path id="XMLID_227_" class="st16" d="M351.4,544.8l-17.1,1.8c0.1-1.2,0.2-2.4,0.3-3.5l17.1-1.8
						C351.7,542.4,351.5,543.6,351.4,544.8L351.4,544.8z"/>
					<path id="XMLID_226_" class="st17" d="M351.7,541.2l-17.1,1.8c0.1-1.4,0.2-2.8,0.3-4.2l17.1-1.8
						C351.9,538.5,351.9,539.9,351.7,541.2L351.7,541.2z"/>
					<path id="XMLID_225_" class="st18" d="M352,537.1l-17.1,1.8c0.1-1.6,0.1-3.2,0.1-4.8l17.1-1.8
						C352.1,533.9,352.1,535.5,352,537.1L352,537.1z"/>
					<path id="XMLID_224_" class="st19" d="M352.1,532.3l-17.1,1.8c0-2.3,0-4.7-0.2-7l17.1-1.8C352.1,527.6,352.1,530,352.1,532.3
						L352.1,532.3z"/>
					<path id="XMLID_223_" class="st20" d="M352,525.3l-17.1,1.8c-0.2-4.6-0.7-9.2-1.4-13.8l17.1-1.8
						C351.3,516,351.7,520.7,352,525.3L352,525.3z"/>
					<path id="XMLID_222_" class="st19" d="M350.5,511.5l-17.1,1.8c-0.4-2.3-0.8-4.6-1.3-6.9l17.1-1.8
						C349.7,506.9,350.2,509.2,350.5,511.5L350.5,511.5z"/>
					<path id="XMLID_221_" class="st18" d="M349.3,504.6l-17.1,1.8c-0.3-1.6-0.7-3.2-1.1-4.8l17.1-1.8
						C348.5,501.4,348.9,503,349.3,504.6L349.3,504.6z"/>
					<path id="XMLID_220_" class="st17" d="M348.1,499.8l-17.1,1.8c-0.3-1.3-0.7-2.5-1-3.7l17.1-1.8
						C347.5,497.3,347.8,498.5,348.1,499.8L348.1,499.8z"/>
					<path id="XMLID_219_" class="st16" d="M347.1,496l-17.1,1.8c-0.3-1.2-0.7-2.4-1.1-3.5l17.1-1.8
						C346.4,493.6,346.8,494.8,347.1,496L347.1,496z"/>
					<path id="XMLID_218_" class="st15" d="M346,492.5l-17.1,1.8c-0.3-1.1-0.7-2.1-1.1-3.2l17.1-1.8
						C345.3,490.3,345.7,491.4,346,492.5L346,492.5z"/>
					<path id="XMLID_217_" class="st14" d="M344.9,489.3l-17.1,1.8c-0.4-1-0.8-2.1-1.2-3.1l17.1-1.8
						C344.2,487.2,344.5,488.2,344.9,489.3L344.9,489.3z"/>
					<path id="XMLID_216_" class="st13" d="M343.8,486.2l-17.1,1.8c-0.4-1-0.8-2-1.2-2.9l17.1-1.8
						C343,484.2,343.4,485.2,343.8,486.2L343.8,486.2z"/>
					<path id="XMLID_215_" class="st12" d="M342.6,483.2l-17.1,1.8c-0.4-1-0.8-1.9-1.3-2.9l17.1-1.8
						C341.7,481.3,342.2,482.3,342.6,483.2L342.6,483.2z"/>
					<path id="XMLID_214_" class="st11" d="M341.3,480.3l-17.1,1.8c-0.4-1-0.9-1.9-1.3-2.8l17.1-1.8
						C340.4,478.4,340.9,479.4,341.3,480.3L341.3,480.3z"/>
					<path id="XMLID_213_" class="st10" d="M339.9,477.5l-17.1,1.8c-0.5-0.9-0.9-1.9-1.4-2.8l17.1-1.8
						C339,475.6,339.5,476.5,339.9,477.5L339.9,477.5z"/>
					<path id="XMLID_212_" class="st9" d="M338.5,474.7l-17.1,1.8c-0.5-0.9-1-1.9-1.5-2.8l17.1-1.8
						C337.5,472.8,338,473.7,338.5,474.7L338.5,474.7z"/>
				</g>
			</g>
			<g id="XMLID_192_" class="st0">
				<defs>
					<path id="XMLID_193_" class="st0" d="M310.8,460.4c-6.8-8.3-14.4-14.3-22.3-18.1c5.7-0.6,11.4-1.2,17.1-1.8
						c7.9,3.8,15.5,9.9,22.3,18.1c4,4.8,7.4,10,10.4,15.7c-5.7,0.6-11.4,1.2-17.1,1.8C318.2,470.5,314.7,465.2,310.8,460.4z"/>
				</defs>
				<clipPath id="XMLID_24_">
					<use xlink:href="#XMLID_193_"  style="overflow:visible;"/>
				</clipPath>
				<g id="XMLID_194_" class="st21">
					<path id="XMLID_208_" class="st9" d="M338.5,474.7l-17.1,1.8c-0.5-0.9-1-1.9-1.5-2.8l17.1-1.8
						C337.5,472.8,338,473.7,338.5,474.7L338.5,474.7z"/>
					<path id="XMLID_207_" class="st8" d="M337,471.9l-17.1,1.8c-0.5-0.9-1.1-1.8-1.6-2.7l17.1-1.8C335.9,470,336.4,470.9,337,471.9
						L337,471.9z"/>
					<path id="XMLID_206_" class="st7" d="M335.3,469.1l-17.1,1.8c-0.6-0.9-1.2-1.9-1.8-2.8l17.1-1.8
						C334.2,467.3,334.8,468.2,335.3,469.1L335.3,469.1z"/>
					<path id="XMLID_205_" class="st6" d="M333.6,466.3l-17.1,1.8c-0.6-0.9-1.2-1.8-1.8-2.7l17.1-1.8
						C332.4,464.5,333,465.4,333.6,466.3L333.6,466.3z"/>
					<path id="XMLID_204_" class="st5" d="M331.7,463.6l-17.1,1.8c-0.6-0.8-1.2-1.6-1.8-2.4l17.1-1.8
						C330.6,462.1,331.2,462.8,331.7,463.6L331.7,463.6z"/>
					<path id="XMLID_203_" class="st4" d="M330,461.3l-17.1,1.8c-0.6-0.8-1.2-1.6-1.8-2.3l17.1-1.8
						C328.8,459.7,329.4,460.5,330,461.3L330,461.3z"/>
					<path id="XMLID_202_" class="st3" d="M328.1,459l-17.1,1.8c-0.1-0.1-0.2-0.2-0.3-0.3c-0.7-0.8-1.4-1.7-2.1-2.4l17.1-1.8
						c0.7,0.8,1.4,1.6,2.1,2.4C328,458.7,328.1,458.9,328.1,459L328.1,459z"/>
					<path id="XMLID_201_" class="st2" d="M325.8,456.2l-17.1,1.8c-0.8-0.9-1.7-1.8-2.5-2.7l17.1-1.8
						C324.1,454.3,324.9,455.2,325.8,456.2L325.8,456.2z"/>
					<path id="XMLID_200_" class="st22" d="M323.2,453.5l-17.1,1.8c-0.9-0.9-1.7-1.7-2.6-2.6l17.1-1.8
						C321.5,451.7,322.4,452.6,323.2,453.5L323.2,453.5z"/>
					<path id="XMLID_199_" class="st23" d="M320.6,450.9l-17.1,1.8c-0.9-0.8-1.8-1.7-2.8-2.4l17.1-1.8
						C318.8,449.3,319.7,450.1,320.6,450.9L320.6,450.9z"/>
					<path id="XMLID_198_" class="st24" d="M317.8,448.5l-17.1,1.8c-1-0.8-1.9-1.5-2.9-2.3l17.1-1.8
						C315.9,446.9,316.9,447.7,317.8,448.5L317.8,448.5z"/>
					<path id="XMLID_197_" class="st25" d="M314.9,446.2l-17.1,1.8c-1.1-0.8-2.1-1.5-3.2-2.2l17.1-1.8
						C312.8,444.7,313.9,445.4,314.9,446.2L314.9,446.2z"/>
					<path id="XMLID_196_" class="st26" d="M311.7,444l-17.1,1.8c-1.1-0.7-2.3-1.4-3.5-2.1l17.1-1.8
						C309.4,442.6,310.6,443.3,311.7,444L311.7,444z"/>
					<path id="XMLID_195_" class="st27" d="M308.3,441.9l-17.1,1.8c-1.3-0.7-2.6-1.4-3.9-2l17.1-1.8
						C305.7,440.6,307,441.2,308.3,441.9L308.3,441.9z"/>
				</g>
			</g>
			<g id="XMLID_170_" class="st0">
				<defs>
					<path id="XMLID_176_" class="st0" d="M281.5,615.4c15.4-1.6,30-11.4,40.3-29l17.1-1.8c-10.3,17.7-24.9,27.4-40.3,29
						C293.5,614.2,286.7,614.9,281.5,615.4z"/>
				</defs>
				<clipPath id="XMLID_29_">
					<use xlink:href="#XMLID_176_"  style="overflow:visible;"/>
				</clipPath>
				<g id="XMLID_177_" class="st28">
					<path id="XMLID_191_" class="st29" d="M298.6,613.7l-17.1,1.8c4.5-0.5,9-1.6,13.2-3.5l17.1-1.8
						C307.6,612,303.1,613.2,298.6,613.7L298.6,613.7z"/>
					<path id="XMLID_190_" class="st30" d="M311.9,610.1l-17.1,1.8c1.8-0.8,3.6-1.7,5.4-2.8l17.1-1.8
						C315.5,608.4,313.7,609.4,311.9,610.1L311.9,610.1z"/>
					<path id="XMLID_189_" class="st31" d="M317.3,607.4l-17.1,1.8c1.4-0.8,2.8-1.7,4.1-2.7l17.1-1.8
						C320,605.7,318.6,606.6,317.3,607.4L317.3,607.4z"/>
					<path id="XMLID_188_" class="st27" d="M321.4,604.7l-17.1,1.8c1.2-0.8,2.3-1.8,3.4-2.7l17.1-1.8
						C323.7,602.9,322.5,603.8,321.4,604.7L321.4,604.7z"/>
					<path id="XMLID_187_" class="st26" d="M324.8,601.9l-17.1,1.8c1-0.9,2-1.8,2.9-2.7l17.1-1.8
						C326.8,600.2,325.8,601.1,324.8,601.9L324.8,601.9z"/>
					<path id="XMLID_186_" class="st25" d="M327.7,599.2l-17.1,1.8c0.9-0.9,1.8-1.8,2.6-2.8l17.1-1.8
						C329.5,597.4,328.6,598.3,327.7,599.2L327.7,599.2z"/>
					<path id="XMLID_185_" class="st24" d="M330.4,596.5l-17.1,1.8c0.8-0.9,1.6-1.9,2.4-2.9l17.1-1.8
						C332,594.6,331.2,595.6,330.4,596.5L330.4,596.5z"/>
					<path id="XMLID_184_" class="st23" d="M332.8,593.6l-17.1,1.8c0.8-0.9,1.5-1.9,2.2-2.9l17.1-1.8
						C334.3,591.7,333.5,592.7,332.8,593.6L332.8,593.6z"/>
					<path id="XMLID_183_" class="st22" d="M335,590.7l-17.1,1.8c0.7-1,1.4-2,2.1-3l17.1-1.8C336.4,588.7,335.7,589.7,335,590.7
						L335,590.7z"/>
					<path id="XMLID_182_" class="st2" d="M337.1,587.6l-17.1,1.8c0.6-1,1.2-2,1.8-3l17.1-1.8C338.3,585.6,337.7,586.6,337.1,587.6
						L337.1,587.6z"/>
				</g>
			</g>
			<path id="XMLID_169_" class="st32" d="M239.8,461.4c22-35.8,61.8-39.8,85.9-5.2c22.6,32.4,24.6,90.5,7.6,125.3
				c-17.9,36.8-54.2,44.4-81.6,13.2C222.1,561.2,216.5,499.4,239.8,461.4z"/>
			<g id="XMLID_157_">
				<polygon id="XMLID_158_" class="st33" points="262.8,501.4 254.6,503 259.3,494.8 267.6,493.2 				"/>
			</g>
			<g id="XMLID_155_">
				<polygon id="XMLID_156_" class="st33" points="267.6,493.2 259.2,494.8 250.2,484 258.6,482.4 				"/>
			</g>
			<g id="XMLID_150_">
				<path id="XMLID_151_" class="st34" d="M296.7,505.5c5.1-4.8,11.5-5.4,17.9,2.4c6.7,8.1,8.1,18.3,5.6,27.9l10.6,12.8l-7.2,12.4
					l-9.6-11.6l-4.7,8.1l9.6,11.6l-7.2,12.4L302,570l-3.9,6.6l-46.5-56.2l3.9-6.6l-9-10.9l7.2-12.4l9,10.9l4.7-8.1l-9-10.9l7.2-12.4
					l10.3,12.5c5-3.7,10.5-3.4,15.9,3.1C296.5,490.9,297.9,498.4,296.7,505.5z M305.7,540c3.4-5.8,5.9-12.5,0.4-19.1
					c-5.6-6.8-9.9-1.5-13.4,4.5l-7.6,13l12.7,15.3L305.7,540L305.7,540z M267.3,516.8l10.9,13.2l7.2-12.4c2.9-5,5.3-11.1,0.6-16.8
					c-4.7-5.7-8.4-1.6-11.5,3.7L267.3,516.8L267.3,516.8z"/>
			</g>
			<g id="XMLID_148_">
				<polygon id="XMLID_149_" class="st33" points="258.6,482.4 250.2,484 257.4,471.5 265.8,470 				"/>
			</g>
			<g id="XMLID_146_">
				<polygon id="XMLID_147_" class="st33" points="251.7,520.5 243.3,522 247.2,515.4 255.6,513.8 				"/>
			</g>
			<g id="XMLID_131_">
				<polygon id="XMLID_132_" class="st33" points="298.2,576.6 289.8,578.2 243.3,522 251.7,520.5 				"/>
			</g>
			<g id="XMLID_129_">
				<polygon id="XMLID_130_" class="st33" points="255.6,513.8 247,515.4 238,504.5 246.6,502.9 				"/>
			</g>
			<g id="XMLID_127_">
				<polygon id="XMLID_128_" class="st33" points="246.6,502.9 238,504.5 245.3,492 253.8,490.5 				"/>
			</g>
			<g id="XMLID_114_" class="st0">
				<defs>
					<path id="XMLID_115_" class="st0" d="M260.5,414.2l17.1-1.8c-19.4,2-37.8,14.3-50.8,36.6l-17.1,1.8
						C222.7,428.6,241.1,416.3,260.5,414.2z"/>
				</defs>
				<clipPath id="XMLID_30_">
					<use xlink:href="#XMLID_115_"  style="overflow:visible;"/>
				</clipPath>
				<g id="XMLID_116_" class="st35">
					<path id="XMLID_126_" class="st2" d="M226.8,449.1l-17.1,1.8c0.8-1.3,1.5-2.6,2.3-3.8l17.1-1.8
						C228.3,446.5,227.6,447.8,226.8,449.1L226.8,449.1z"/>
					<path id="XMLID_125_" class="st22" d="M229.1,445.3l-17.1,1.8c0.8-1.3,1.7-2.6,2.6-3.8l17.1-1.8
						C230.9,442.7,230,444,229.1,445.3L229.1,445.3z"/>
					<path id="XMLID_124_" class="st23" d="M231.8,441.5l-17.1,1.8c0.9-1.3,1.8-2.5,2.8-3.7l17.1-1.8
						C233.6,439,232.7,440.2,231.8,441.5L231.8,441.5z"/>
					<path id="XMLID_123_" class="st24" d="M234.6,437.8l-17.1,1.8c1-1.2,2-2.5,3.1-3.6l17.1-1.8
						C236.6,435.3,235.6,436.5,234.6,437.8L234.6,437.8z"/>
					<path id="XMLID_122_" class="st25" d="M237.6,434.1l-17.1,1.8c1.1-1.2,2.2-2.4,3.3-3.5l17.1-1.8
						C239.8,431.8,238.7,432.9,237.6,434.1L237.6,434.1z"/>
					<path id="XMLID_121_" class="st26" d="M240.9,430.7l-17.1,1.8c1.2-1.2,2.5-2.4,3.7-3.4l17.1-1.8
						C243.4,428.3,242.1,429.5,240.9,430.7L240.9,430.7z"/>
					<path id="XMLID_120_" class="st27" d="M244.6,427.2l-17.1,1.8c1.4-1.2,2.9-2.4,4.3-3.4l17.1-1.8
						C247.5,424.9,246,426,244.6,427.2L244.6,427.2z"/>
					<path id="XMLID_119_" class="st31" d="M249,423.8l-17.1,1.8c1.7-1.2,3.4-2.4,5.2-3.4l17.1-1.8
						C252.4,421.4,250.7,422.6,249,423.8L249,423.8z"/>
					<path id="XMLID_118_" class="st30" d="M254.1,420.4l-17.1,1.8c2.2-1.3,4.5-2.5,6.8-3.5l17.1-1.8
						C258.6,417.9,256.4,419.1,254.1,420.4L254.1,420.4z"/>
					<path id="XMLID_117_" class="st29" d="M260.9,416.9l-17.1,1.8c5.4-2.4,11-3.8,16.7-4.4l17.1-1.8
						C271.9,413.1,266.3,414.5,260.9,416.9L260.9,416.9z"/>
				</g>
			</g>
			<g id="XMLID_8_" class="st0">
				<defs>
					<path id="XMLID_9_" class="st0" d="M301.1,636.9l-17.1,1.8c-20.7,2.2-42.5-7.3-60.3-28.9c-34.5-41.8-40.8-112.9-13.9-159
						l17.1-1.8c-26.8,46-20.6,117.2,13.9,159C258.5,629.6,280.4,639.1,301.1,636.9z"/>
				</defs>
				<clipPath id="XMLID_31_">
					<use xlink:href="#XMLID_9_"  style="overflow:visible;"/>
				</clipPath>
				<g id="XMLID_10_" class="st36">
					<path id="XMLID_113_" class="st29" d="M301.1,636.9l-17.1,1.8c-5.8,0.6-11.6,0.3-17.4-0.9l17.1-1.8
						C289.5,637.2,295.3,637.5,301.1,636.9L301.1,636.9z"/>
					<path id="XMLID_112_" class="st30" d="M283.6,636l-17.1,1.8c-2.5-0.5-5-1.2-7.5-2.1l17.1-1.8
						C278.6,634.8,281.1,635.5,283.6,636L283.6,636z"/>
					<path id="XMLID_111_" class="st31" d="M276.1,633.9l-17.1,1.8c-1.9-0.7-3.8-1.4-5.7-2.3l17.1-1.8
						C272.2,632.5,274.2,633.2,276.1,633.9L276.1,633.9z"/>
					<path id="XMLID_110_" class="st27" d="M270.3,631.6l-17.1,1.8c-1.6-0.7-3.3-1.6-4.9-2.5l17.1-1.8
						C267.1,630,268.7,630.9,270.3,631.6L270.3,631.6z"/>
					<path id="XMLID_109_" class="st26" d="M265.5,629.1l-17.1,1.8c-1.5-0.8-2.9-1.7-4.4-2.6l17.1-1.8
						C262.5,627.5,264,628.3,265.5,629.1L265.5,629.1z"/>
					<path id="XMLID_108_" class="st25" d="M261.1,626.5l-17.1,1.8c-1.4-0.9-2.7-1.8-4-2.8l17.1-1.8
						C258.4,624.7,259.7,625.6,261.1,626.5L261.1,626.5z"/>
					<path id="XMLID_107_" class="st24" d="M257.1,623.7l-17.1,1.8c-1.2-0.9-2.4-1.9-3.6-2.9l17.1-1.8
						C254.6,621.9,255.8,622.8,257.1,623.7L257.1,623.7z"/>
					<path id="XMLID_106_" class="st23" d="M253.4,620.9l-17.1,1.8c-1.2-1-2.3-2-3.5-3.1l17.1-1.8
						C251.1,618.9,252.2,619.9,253.4,620.9L253.4,620.9z"/>
					<path id="XMLID_105_" class="st22" d="M249.9,617.8l-17.1,1.8c-1.1-1-2.2-2.1-3.3-3.2l17.1-1.8
						C247.7,615.7,248.8,616.8,249.9,617.8L249.9,617.8z"/>
					<path id="XMLID_104_" class="st2" d="M246.6,614.6l-17.1,1.8c-1.1-1.1-2.1-2.2-3.2-3.4l17.1-1.8
						C244.5,612.3,245.5,613.5,246.6,614.6L246.6,614.6z"/>
					<path id="XMLID_103_" class="st3" d="M243.4,611.2l-17.1,1.8c-0.9-1-1.8-2-2.7-3.1c-0.1-0.1-0.2-0.3-0.3-0.4l17.1-1.8
						c0.1,0.1,0.2,0.3,0.3,0.4C241.6,609.1,242.5,610.2,243.4,611.2L243.4,611.2z"/>
					<path id="XMLID_102_" class="st4" d="M240.4,607.6l-17.1,1.8c-0.8-1-1.6-1.9-2.3-2.9l17.1-1.8
						C238.8,605.7,239.6,606.7,240.4,607.6L240.4,607.6z"/>
					<path id="XMLID_101_" class="st5" d="M238.1,604.7l-17.1,1.8c-0.8-1-1.5-2-2.2-3l17.1-1.8C236.6,602.7,237.3,603.7,238.1,604.7
						L238.1,604.7z"/>
					<path id="XMLID_100_" class="st6" d="M235.9,601.7l-17.1,1.8c-0.8-1.1-1.6-2.2-2.3-3.4l17.1-1.8
						C234.3,599.5,235.1,600.6,235.9,601.7L235.9,601.7z"/>
					<path id="XMLID_99_" class="st7" d="M233.5,598.3l-17.1,1.8c-0.8-1.2-1.5-2.3-2.2-3.5l17.1-1.8
						C232,596,232.8,597.2,233.5,598.3L233.5,598.3z"/>
					<path id="XMLID_98_" class="st8" d="M231.3,594.8l-17.1,1.8c-0.7-1.1-1.4-2.3-2.1-3.5l17.1-1.8
						C229.9,592.5,230.6,593.7,231.3,594.8L231.3,594.8z"/>
					<path id="XMLID_97_" class="st9" d="M229.3,591.4l-17.1,1.8c-0.7-1.2-1.3-2.4-2-3.5l17.1-1.8
						C227.9,589,228.6,590.2,229.3,591.4L229.3,591.4z"/>
					<path id="XMLID_96_" class="st10" d="M227.3,587.8l-17.1,1.8c-0.6-1.2-1.2-2.4-1.8-3.5l17.1-1.8
						C226.1,585.5,226.7,586.6,227.3,587.8L227.3,587.8z"/>
					<path id="XMLID_95_" class="st11" d="M225.5,584.3l-17.1,1.8c-0.6-1.2-1.2-2.4-1.7-3.6l17.1-1.8
						C224.3,581.9,224.9,583.1,225.5,584.3L225.5,584.3z"/>
					<path id="XMLID_94_" class="st12" d="M223.8,580.7l-17.1,1.8c-0.6-1.2-1.1-2.4-1.6-3.7l17.1-1.8
						C222.7,578.2,223.2,579.5,223.8,580.7L223.8,580.7z"/>
					<path id="XMLID_93_" class="st13" d="M222.2,577l-17.1,1.8c-0.5-1.2-1-2.5-1.5-3.7l17.1-1.8C221.2,574.5,221.7,575.8,222.2,577
						L222.2,577z"/>
					<path id="XMLID_92_" class="st14" d="M220.7,573.3l-17.1,1.8c-0.5-1.3-1-2.6-1.5-3.9l17.1-1.8
						C219.7,570.7,220.2,572,220.7,573.3L220.7,573.3z"/>
					<path id="XMLID_91_" class="st15" d="M219.2,569.4l-17.1,1.8c-0.5-1.3-0.9-2.7-1.4-4l17.1-1.8
						C218.3,566.7,218.7,568,219.2,569.4L219.2,569.4z"/>
					<path id="XMLID_90_" class="st16" d="M217.9,565.3l-17.1,1.8c-0.5-1.5-0.9-3-1.4-4.5l17.1-1.8
						C216.9,562.4,217.4,563.9,217.9,565.3L217.9,565.3z"/>
					<path id="XMLID_89_" class="st17" d="M216.5,560.9l-17.1,1.8c-0.5-1.6-0.9-3.1-1.3-4.7l17.1-1.8
						C215.6,557.7,216,559.3,216.5,560.9L216.5,560.9z"/>
					<path id="XMLID_88_" class="st18" d="M215.2,556.2l-17.1,1.8c-0.5-2-1-4-1.4-6.1l17.1-1.8C214.2,552.1,214.7,554.1,215.2,556.2
						L215.2,556.2z"/>
					<path id="XMLID_87_" class="st19" d="M213.7,550.1l-17.1,1.8c-0.6-2.9-1.2-5.8-1.6-8.7l17.1-1.8
						C212.6,544.3,213.1,547.2,213.7,550.1L213.7,550.1z"/>
					<path id="XMLID_86_" class="st20" d="M212.1,541.4l-17.1,1.8c-0.9-5.8-1.5-11.6-1.8-17.4l17.1-1.8
						C210.6,529.8,211.2,535.6,212.1,541.4L212.1,541.4z"/>
					<path id="XMLID_85_" class="st19" d="M210.3,523.9l-17.1,1.8c-0.1-3-0.2-5.9-0.2-8.8l17.1-1.8C210.1,518,210.2,521,210.3,523.9
						L210.3,523.9z"/>
					<path id="XMLID_84_" class="st18" d="M210.1,515.1l-17.1,1.8c0-2,0.1-4,0.2-6l17.1-1.8C210.2,511.1,210.2,513.1,210.1,515.1
						L210.1,515.1z"/>
					<path id="XMLID_28_" class="st17" d="M210.3,509.1l-17.1,1.8c0.1-1.8,0.2-3.5,0.3-5.3l17.1-1.8
						C210.5,505.6,210.4,507.3,210.3,509.1L210.3,509.1z"/>
					<path id="XMLID_27_" class="st16" d="M210.6,503.8l-17.1,1.8c0.1-1.5,0.3-3,0.4-4.5l17.1-1.8
						C210.9,500.9,210.7,502.3,210.6,503.8L210.6,503.8z"/>
					<path id="XMLID_26_" class="st15" d="M211,499.4l-17.1,1.8c0.2-1.5,0.3-2.9,0.5-4.3l17.1-1.8
						C211.4,496.5,211.2,497.9,211,499.4L211,499.4z"/>
					<path id="XMLID_25_" class="st14" d="M211.6,495l-17.1,1.8c0.2-1.4,0.4-2.7,0.6-4l17.1-1.8C212,492.3,211.8,493.7,211.6,495
						L211.6,495z"/>
					<path id="XMLID_22_" class="st13" d="M212.2,491l-17.1,1.8c0.2-1.3,0.5-2.7,0.7-4l17.1-1.8C212.6,488.3,212.4,489.6,212.2,491
						L212.2,491z"/>
					<path id="XMLID_21_" class="st12" d="M212.9,487l-17.1,1.8c0.3-1.3,0.5-2.6,0.8-3.9l17.1-1.8
						C213.4,484.4,213.2,485.7,212.9,487L212.9,487z"/>
					<path id="XMLID_20_" class="st11" d="M213.7,483.1l-17.1,1.8c0.3-1.3,0.6-2.6,0.9-3.9l17.1-1.8
						C214.3,480.5,214,481.8,213.7,483.1L213.7,483.1z"/>
					<path id="XMLID_19_" class="st10" d="M214.7,479.2l-17.1,1.8c0.3-1.3,0.7-2.6,1.1-3.9l17.1-1.8
						C215.3,476.6,215,477.9,214.7,479.2L214.7,479.2z"/>
					<path id="XMLID_18_" class="st9" d="M215.7,475.3l-17.1,1.8c0.4-1.3,0.8-2.6,1.2-3.8l17.1-1.8
						C216.5,472.8,216.1,474.1,215.7,475.3L215.7,475.3z"/>
					<path id="XMLID_17_" class="st8" d="M216.9,471.5l-17.1,1.8c0.4-1.3,0.9-2.6,1.3-3.9l17.1-1.8
						C217.7,468.9,217.3,470.2,216.9,471.5L216.9,471.5z"/>
					<path id="XMLID_16_" class="st7" d="M218.2,467.7l-17.1,1.8c0.5-1.3,0.9-2.6,1.4-3.8l17.1-1.8
						C219.2,465.1,218.7,466.4,218.2,467.7L218.2,467.7z"/>
					<path id="XMLID_15_" class="st6" d="M219.7,463.8l-17.1,1.8c0.5-1.3,1.1-2.6,1.6-3.9l17.1-1.8
						C220.7,461.3,220.2,462.5,219.7,463.8L219.7,463.8z"/>
					<path id="XMLID_14_" class="st5" d="M221.3,460l-17.1,1.8c0.6-1.3,1.2-2.5,1.8-3.8l17.1-1.8C222.4,457.4,221.8,458.7,221.3,460
						L221.3,460z"/>
					<path id="XMLID_13_" class="st4" d="M223,456.2l-17.1,1.8c0.6-1.2,1.2-2.3,1.8-3.5l17.1-1.8C224.2,453.8,223.6,455,223,456.2
						L223,456.2z"/>
					<path id="XMLID_12_" class="st3" d="M224.8,452.7l-17.1,1.8c0.6-1.1,1.2-2.3,1.9-3.4l17.1-1.8
						C226.1,450.4,225.4,451.5,224.8,452.7L224.8,452.7z"/>
					<path id="XMLID_11_" class="st2" d="M226.7,449.3l-17.1,1.8c0-0.1,0.1-0.1,0.1-0.2l17.1-1.8
						C226.8,449.2,226.7,449.2,226.7,449.3L226.7,449.3z"/>
				</g>
			</g>
			<g id="XMLID_3_">
				<path id="XMLID_4_" class="st30" d="M226.8,449.1c26.8-46,76.6-49.5,111.1-7.8c34.5,41.7,40.8,112.9,13.9,158.9
					c-26.8,46-76.6,49.5-111.1,7.8C206.2,566.3,200,495.1,226.8,449.1z M338.9,584.6c21.3-36.5,16.3-92.9-11-126
					c-27.4-33.1-66.8-30.3-88.1,6.2c-21.3,36.5-16.3,92.9,11,126C278.2,623.9,317.6,621.1,338.9,584.6L338.9,584.6z"/>
			</g>
			<g id="XMLID_957_" class="st0">
				<defs>
					<path id="XMLID_958_" class="st0" d="M565.6,157.7c2.7,5.1,5.4,10.1,8,15.2c-24.3,28.9-66.4,46.9-102.2,41.6l-8-15.2
						C499.2,204.6,541.4,186.6,565.6,157.7z"/>
				</defs>
				<clipPath id="XMLID_32_">
					<use xlink:href="#XMLID_958_"  style="overflow:visible;"/>
				</clipPath>
				<g id="XMLID_959_" class="st37">
					<path id="XMLID_989_" class="st2" d="M471.5,214.6l-8-15.2c0.1,0,0.1,0,0.2,0l8,15.2C471.6,214.6,471.5,214.6,471.5,214.6
						L471.5,214.6z"/>
					<path id="XMLID_988_" class="st3" d="M471.7,214.6l-8-15.2c1,0.1,2,0.3,3.1,0.4l8,15.2C473.7,214.9,472.7,214.7,471.7,214.6
						L471.7,214.6z"/>
					<path id="XMLID_987_" class="st4" d="M474.7,215l-8-15.2c1,0.1,2.1,0.2,3.1,0.3l8,15.2C476.8,215.2,475.7,215.1,474.7,215
						L474.7,215z"/>
					<path id="XMLID_986_" class="st5" d="M477.8,215.3l-8-15.2c1.1,0.1,2.2,0.1,3.3,0.2l8,15.2C480,215.4,478.9,215.3,477.8,215.3
						L477.8,215.3z"/>
					<path id="XMLID_985_" class="st6" d="M481.1,215.4l-8-15.2c1.1,0,2.2,0.1,3.3,0.1l8,15.2C483.3,215.5,482.2,215.5,481.1,215.4
						L481.1,215.4z"/>
					<path id="XMLID_984_" class="st7" d="M484.4,215.5l-8-15.2c1.1,0,2.1,0,3.2-0.1l8,15.2C486.6,215.5,485.5,215.5,484.4,215.5
						L484.4,215.5z"/>
					<path id="XMLID_983_" class="st8" d="M487.7,215.4l-8-15.2c1.1,0,2.2-0.1,3.2-0.2l8,15.2C489.8,215.3,488.7,215.4,487.7,215.4
						L487.7,215.4z"/>
					<path id="XMLID_982_" class="st9" d="M490.9,215.2l-8-15.2c1-0.1,2.1-0.2,3.2-0.3l8,15.2C493,215.1,492,215.2,490.9,215.2
						L490.9,215.2z"/>
					<path id="XMLID_981_" class="st10" d="M494.1,215l-8-15.2c1.1-0.1,2.1-0.2,3.2-0.4l8,15.2C496.2,214.8,495.1,214.9,494.1,215
						L494.1,215z"/>
					<path id="XMLID_980_" class="st11" d="M497.2,214.6l-8-15.2c1-0.1,2.1-0.3,3.1-0.5l8,15.2C499.3,214.3,498.3,214.5,497.2,214.6
						L497.2,214.6z"/>
					<path id="XMLID_979_" class="st12" d="M500.3,214.2l-8-15.2c1-0.2,2.1-0.4,3.1-0.5l8,15.2C502.4,213.8,501.4,214,500.3,214.2
						L500.3,214.2z"/>
					<path id="XMLID_978_" class="st13" d="M503.4,213.6l-8-15.2c1.1-0.2,2.1-0.4,3.2-0.6l8,15.2
						C505.6,213.2,504.5,213.4,503.4,213.6L503.4,213.6z"/>
					<path id="XMLID_977_" class="st14" d="M506.6,213l-8-15.2c1.1-0.2,2.1-0.5,3.2-0.7l8,15.2C508.7,212.5,507.7,212.7,506.6,213
						L506.6,213z"/>
					<path id="XMLID_976_" class="st15" d="M509.8,212.2l-8-15.2c1.1-0.3,2.2-0.6,3.4-0.9l8,15.2C512,211.6,510.9,211.9,509.8,212.2
						L509.8,212.2z"/>
					<path id="XMLID_975_" class="st16" d="M513.1,211.3l-8-15.2c1.1-0.3,2.3-0.7,3.4-1l8,15.2C515.4,210.7,514.3,211,513.1,211.3
						L513.1,211.3z"/>
					<path id="XMLID_974_" class="st17" d="M516.5,210.3l-8-15.2c1.3-0.4,2.7-0.9,4-1.3l8,15.2C519.2,209.5,517.8,209.9,516.5,210.3
						L516.5,210.3z"/>
					<path id="XMLID_973_" class="st18" d="M520.5,209l-8-15.2c1.5-0.5,3-1.1,4.5-1.7l8,15.2C523.5,207.9,522,208.5,520.5,209
						L520.5,209z"/>
					<path id="XMLID_972_" class="st19" d="M524.9,207.3l-8-15.2c2.2-0.9,4.3-1.8,6.5-2.8l8,15.2
						C529.3,205.6,527.1,206.5,524.9,207.3L524.9,207.3z"/>
					<path id="XMLID_971_" class="st20" d="M531.4,204.6l-8-15.2c4.2-1.9,8.3-4.1,12.3-6.5l8,15.2
						C539.7,200.5,535.6,202.7,531.4,204.6L531.4,204.6z"/>
					<path id="XMLID_970_" class="st19" d="M543.7,198.1l-8-15.2c2-1.2,4-2.5,5.9-3.8l8,15.2C547.7,195.7,545.7,196.9,543.7,198.1
						L543.7,198.1z"/>
					<path id="XMLID_969_" class="st18" d="M549.6,194.4l-8-15.2c1.4-0.9,2.7-1.9,4.1-2.9l8,15.2C552.3,192.5,551,193.4,549.6,194.4
						L549.6,194.4z"/>
					<path id="XMLID_968_" class="st17" d="M553.7,191.5l-8-15.2c1-0.8,2.1-1.5,3.1-2.3l8,15.2C555.7,190,554.7,190.7,553.7,191.5
						L553.7,191.5z"/>
					<path id="XMLID_967_" class="st16" d="M556.8,189.2l-8-15.2c1-0.8,1.9-1.5,2.9-2.3l8,15.2C558.7,187.6,557.7,188.4,556.8,189.2
						L556.8,189.2z"/>
					<path id="XMLID_966_" class="st15" d="M559.6,186.8l-8-15.2c0.9-0.7,1.7-1.5,2.6-2.2l8,15.2
						C561.4,185.4,560.5,186.1,559.6,186.8L559.6,186.8z"/>
					<path id="XMLID_965_" class="st14" d="M562.2,184.6l-8-15.2c0.8-0.7,1.6-1.5,2.4-2.2l8,15.2C563.8,183.2,563,183.9,562.2,184.6
						L562.2,184.6z"/>
					<path id="XMLID_964_" class="st13" d="M564.7,182.4l-8-15.2c0.8-0.7,1.5-1.5,2.3-2.2l8,15.2
						C566.2,180.9,565.4,181.7,564.7,182.4L564.7,182.4z"/>
					<path id="XMLID_963_" class="st12" d="M566.9,180.2l-8-15.2c0.8-0.7,1.5-1.5,2.2-2.3l8,15.2
						C568.4,178.7,567.7,179.5,566.9,180.2L566.9,180.2z"/>
					<path id="XMLID_962_" class="st11" d="M569.2,177.9l-8-15.2c0.7-0.8,1.4-1.5,2.1-2.3l8,15.2
						C570.6,176.4,569.9,177.2,569.2,177.9L569.2,177.9z"/>
					<path id="XMLID_961_" class="st10" d="M571.3,175.6l-8-15.2c0.7-0.8,1.4-1.6,2.1-2.4l8,15.2C572.7,174.1,572,174.8,571.3,175.6
						L571.3,175.6z"/>
					<path id="XMLID_960_" class="st9" d="M573.4,173.3l-8-15.2c0.7-0.8,1.4-1.6,2-2.5l8,15.2C574.7,171.6,574.1,172.4,573.4,173.3
						L573.4,173.3z"/>
				</g>
			</g>
			<g id="XMLID_940_" class="st0">
				<defs>
					<path id="XMLID_941_" class="st0" d="M576.3,142.2c5.1-9.4,7.9-18.7,8.5-27.5c2.7,5.1,5.3,10.1,8,15.2
						c-0.6,8.7-3.4,18-8.5,27.5c-3,5.4-6.5,10.6-10.6,15.5c-2.7-5.1-5.4-10.1-8-15.2C569.7,152.8,573.3,147.6,576.3,142.2z"/>
				</defs>
				<clipPath id="XMLID_33_">
					<use xlink:href="#XMLID_941_"  style="overflow:visible;"/>
				</clipPath>
				<g id="XMLID_942_" class="st38">
					<path id="XMLID_956_" class="st9" d="M573.4,173.3l-8-15.2c0.7-0.8,1.4-1.6,2-2.5l8,15.2C574.7,171.6,574.1,172.4,573.4,173.3
						L573.4,173.3z"/>
					<path id="XMLID_955_" class="st8" d="M575.4,170.8l-8-15.2c0.7-0.8,1.3-1.7,1.9-2.5l8,15.2
						C576.7,169.1,576.1,169.9,575.4,170.8L575.4,170.8z"/>
					<path id="XMLID_954_" class="st7" d="M577.3,168.2l-8-15.2c0.7-0.9,1.3-1.8,1.9-2.7l8,15.2C578.6,166.5,578,167.4,577.3,168.2
						L577.3,168.2z"/>
					<path id="XMLID_953_" class="st6" d="M579.3,165.6l-8-15.2c0.6-0.9,1.2-1.8,1.8-2.7l8,15.2
						C580.5,163.8,579.9,164.7,579.3,165.6L579.3,165.6z"/>
					<path id="XMLID_952_" class="st5" d="M581.1,162.8l-8-15.2c0.5-0.8,1-1.7,1.6-2.5l8,15.2C582.1,161.2,581.6,162,581.1,162.8
						L581.1,162.8z"/>
					<path id="XMLID_951_" class="st4" d="M582.6,160.3l-8-15.2c0.5-0.8,1-1.7,1.5-2.6l8,15.2C583.6,158.6,583.1,159.5,582.6,160.3
						L582.6,160.3z"/>
					<path id="XMLID_950_" class="st3" d="M584.1,157.8l-8-15.2c0.1-0.1,0.1-0.3,0.2-0.4c0.5-1,1-1.9,1.5-2.9l8,15.2
						c-0.5,1-1,1.9-1.5,2.9C584.2,157.5,584.2,157.7,584.1,157.8L584.1,157.8z"/>
					<path id="XMLID_949_" class="st2" d="M585.8,154.5l-8-15.2c0.6-1.1,1.1-2.2,1.6-3.4l8,15.2
						C586.9,152.3,586.3,153.4,585.8,154.5L585.8,154.5z"/>
					<path id="XMLID_948_" class="st22" d="M587.3,151.2l-8-15.2c0.5-1.1,1-2.3,1.4-3.4l8,15.2C588.3,148.9,587.8,150,587.3,151.2
						L587.3,151.2z"/>
					<path id="XMLID_947_" class="st23" d="M588.7,147.8l-8-15.2c0.4-1.2,0.8-2.3,1.2-3.5l8,15.2
						C589.6,145.5,589.2,146.6,588.7,147.8L588.7,147.8z"/>
					<path id="XMLID_946_" class="st24" d="M590,144.3l-8-15.2c0.4-1.2,0.7-2.4,1-3.5l8,15.2C590.7,141.9,590.3,143.1,590,144.3
						L590,144.3z"/>
					<path id="XMLID_945_" class="st25" d="M591,140.8l-8-15.2c0.3-1.3,0.6-2.5,0.9-3.8l8,15.2C591.6,138.2,591.3,139.5,591,140.8
						L591,140.8z"/>
					<path id="XMLID_944_" class="st26" d="M591.9,137l-8-15.2c0.3-1.3,0.5-2.7,0.6-4l8,15.2C592.3,134.3,592.1,135.6,591.9,137
						L591.9,137z"/>
					<path id="XMLID_943_" class="st27" d="M592.5,133l-8-15.2c0.2-1.5,0.3-2.9,0.4-4.3l8,15.2C592.8,130.1,592.7,131.5,592.5,133
						L592.5,133z"/>
				</g>
			</g>
			<g id="XMLID_927_" class="st0">
				<defs>
					<path id="XMLID_928_" class="st0" d="M421.5,172.8c7.2,13.7,21.7,23.6,42,26.6l8,15.2c-20.2-3-34.7-12.9-42-26.6
						C427.1,183.4,423.9,177.4,421.5,172.8z"/>
				</defs>
				<clipPath id="XMLID_34_">
					<use xlink:href="#XMLID_928_"  style="overflow:visible;"/>
				</clipPath>
				<g id="XMLID_929_" class="st39">
					<path id="XMLID_939_" class="st29" d="M429.5,188l-8-15.2c2.1,4,4.9,7.7,8.2,11l8,15.2C434.4,195.7,431.6,192,429.5,188
						L429.5,188z"/>
					<path id="XMLID_938_" class="st30" d="M437.7,199l-8-15.2c1.4,1.4,2.9,2.7,4.6,4l8,15.2C440.7,201.7,439.1,200.4,437.7,199
						L437.7,199z"/>
					<path id="XMLID_937_" class="st31" d="M442.3,203l-8-15.2c1.3,1,2.6,1.9,4,2.8l8,15.2C444.9,204.9,443.6,203.9,442.3,203
						L442.3,203z"/>
					<path id="XMLID_936_" class="st27" d="M446.3,205.8l-8-15.2c1.2,0.8,2.5,1.5,3.8,2.2l8,15.2
						C448.8,207.2,447.6,206.5,446.3,205.8L446.3,205.8z"/>
					<path id="XMLID_935_" class="st26" d="M450.1,207.9l-8-15.2c1.2,0.6,2.4,1.2,3.6,1.7l8,15.2
						C452.5,209.1,451.3,208.5,450.1,207.9L450.1,207.9z"/>
					<path id="XMLID_934_" class="st25" d="M453.8,209.6l-8-15.2c1.1,0.5,2.3,1,3.5,1.4l8,15.2C456.1,210.6,454.9,210.1,453.8,209.6
						L453.8,209.6z"/>
					<path id="XMLID_933_" class="st24" d="M457.3,211l-8-15.2c1.2,0.4,2.3,0.8,3.6,1.2l8,15.2C459.6,211.9,458.5,211.5,457.3,211
						L457.3,211z"/>
					<path id="XMLID_932_" class="st23" d="M460.9,212.2l-8-15.2c1.2,0.3,2.3,0.7,3.6,1l8,15.2C463.2,212.9,462,212.6,460.9,212.2
						L460.9,212.2z"/>
					<path id="XMLID_931_" class="st22" d="M464.4,213.2l-8-15.2c1.2,0.3,2.4,0.6,3.6,0.8l8,15.2
						C466.8,213.7,465.6,213.5,464.4,213.2L464.4,213.2z"/>
					<path id="XMLID_930_" class="st2" d="M468,214l-8-15.2c1.1,0.2,2.3,0.4,3.5,0.6l8,15.2C470.3,214.4,469.1,214.2,468,214
						L468,214z"/>
				</g>
			</g>
			<path id="XMLID_926_" class="st32" d="M549,76.7c41.4,7,60,42.5,36.8,77.8c-21.7,33-74.8,56.5-113.5,53.7
				c-40.8-3-61.4-33.7-42.7-70.8C449.7,97.5,504.9,69.2,549,76.7z"/>
			<g id="XMLID_924_">
				<polygon id="XMLID_925_" class="st33" points="520.4,112.9 515.9,105.9 525.2,107.3 529.7,114.3 				"/>
			</g>
			<g id="XMLID_922_">
				<polygon id="XMLID_923_" class="st33" points="529.7,114.3 525.1,107.1 531.8,94.7 536.4,101.9 				"/>
			</g>
			<g id="XMLID_917_">
				<path id="XMLID_918_" class="st34" d="M529.1,145.9c6.4,3,9.3,8.7,4.5,17.6c-5,9.2-14,14.3-23.8,15.6l-7.9,14.6l-14.2-2.1
					l7.2-13.2l-9.3-1.4l-7.2,13.2l-14.2-2.1l7.2-13.2l-7.6-1.1l34.8-64l7.6,1.1l6.7-12.4l14.2,2.1l-6.7,12.4l9.3,1.4l6.7-12.4
					l14.2,2.1l-7.7,14.2c5.2,3.2,7.1,8.5,3.1,15.9C542.6,140.3,536.2,144.4,529.1,145.9z M500.6,167.2c6.7,1,13.8,0.8,17.9-6.8
					c4.2-7.7-2.2-9.7-9.2-10.8l-14.9-2.2l-9.5,17.4L500.6,167.2L500.6,167.2z M507.8,122.9l-8.2,15l14.2,2.1
					c5.7,0.8,12.3,0.7,15.8-5.7c3.5-6.5-1.7-8.4-7.7-9.3L507.8,122.9L507.8,122.9z"/>
			</g>
			<g id="XMLID_915_">
				<polygon id="XMLID_916_" class="st33" points="536.4,101.9 531.8,94.7 546.1,96.8 550.6,104 				"/>
			</g>
			<g id="XMLID_913_">
				<polygon id="XMLID_914_" class="st33" points="498.5,109.7 493.9,102.5 501.6,103.6 506.2,110.9 				"/>
			</g>
			<g id="XMLID_911_">
				<polygon id="XMLID_912_" class="st33" points="463.7,173.8 459.1,166.6 494,102.6 498.5,109.7 				"/>
			</g>
			<g id="XMLID_909_">
				<polygon id="XMLID_910_" class="st33" points="506.2,110.9 501.5,103.5 508.2,91.1 512.9,98.5 				"/>
			</g>
			<g id="XMLID_907_">
				<polygon id="XMLID_908_" class="st33" points="512.9,98.5 508.2,91.1 522.5,93.2 527.1,100.6 				"/>
			</g>
			<g id="XMLID_894_" class="st0">
				<defs>
					<path id="XMLID_895_" class="st0" d="M600.4,78.4l8,15.2c-9.1-17.3-27.4-29.7-52.9-33.5l-8-15.2
						C573,48.6,591.3,61.1,600.4,78.4z"/>
				</defs>
				<clipPath id="XMLID_35_">
					<use xlink:href="#XMLID_895_"  style="overflow:visible;"/>
				</clipPath>
				<g id="XMLID_896_" class="st40">
					<path id="XMLID_906_" class="st2" d="M555.5,60.1l-8-15.2c1.5,0.2,3,0.5,4.4,0.7l8,15.2C558.4,60.5,557,60.3,555.5,60.1
						L555.5,60.1z"/>
					<path id="XMLID_905_" class="st22" d="M559.9,60.8l-8-15.2c1.5,0.3,3.1,0.6,4.5,1l8,15.2C562.9,61.4,561.4,61.1,559.9,60.8
						L559.9,60.8z"/>
					<path id="XMLID_904_" class="st23" d="M564.4,61.8l-8-15.2c1.5,0.4,3,0.8,4.5,1.2l8,15.2C567.4,62.6,565.9,62.2,564.4,61.8
						L564.4,61.8z"/>
					<path id="XMLID_903_" class="st24" d="M568.9,63l-8-15.2c1.5,0.5,3,1,4.5,1.5l8,15.2C571.9,64,570.4,63.5,568.9,63L568.9,63z"
						/>
					<path id="XMLID_902_" class="st25" d="M573.4,64.5l-8-15.2c1.5,0.6,3,1.1,4.4,1.8l8,15.2C576.4,65.7,574.9,65.1,573.4,64.5
						L573.4,64.5z"/>
					<path id="XMLID_901_" class="st26" d="M577.8,66.3l-8-15.2c1.6,0.7,3.1,1.4,4.6,2.2l8,15.2C580.9,67.7,579.4,67,577.8,66.3
						L577.8,66.3z"/>
					<path id="XMLID_900_" class="st27" d="M582.4,68.5l-8-15.2c1.7,0.9,3.3,1.8,4.8,2.7l8,15.2C585.7,70.2,584.1,69.3,582.4,68.5
						L582.4,68.5z"/>
					<path id="XMLID_899_" class="st31" d="M587.2,71.2l-8-15.2c1.8,1.1,3.5,2.3,5.1,3.5l8,15.2C590.7,73.5,589,72.3,587.2,71.2
						L587.2,71.2z"/>
					<path id="XMLID_898_" class="st30" d="M592.3,74.7l-8-15.2c2.1,1.6,4,3.2,5.8,5l8,15.2C596.3,78,594.4,76.3,592.3,74.7
						L592.3,74.7z"/>
					<path id="XMLID_897_" class="st29" d="M598.1,79.7l-8-15.2c4.2,4.1,7.7,8.8,10.3,13.8l8,15.2C605.7,88.5,602.3,83.9,598.1,79.7
						L598.1,79.7z"/>
				</g>
			</g>
			<g id="XMLID_845_" class="st0">
				<defs>
					<path id="XMLID_846_" class="st0" d="M408.8,198.9l-8-15.2c-9.7-18.4-9-42.2,4.3-66.7c25.9-47.6,89.6-79.9,142.3-72.1l8,15.2
						c-52.7-7.8-116.4,24.5-142.3,72.1C399.8,156.7,399.1,180.6,408.8,198.9z"/>
				</defs>
				<clipPath id="XMLID_36_">
					<use xlink:href="#XMLID_846_"  style="overflow:visible;"/>
				</clipPath>
				<g id="XMLID_847_" class="st41">
					<path id="XMLID_893_" class="st29" d="M408.8,198.9l-8-15.2c-2.7-5.1-4.6-10.7-5.6-16.5l8,15.2
						C404.2,188.3,406.1,193.8,408.8,198.9L408.8,198.9z"/>
					<path id="XMLID_892_" class="st30" d="M403.2,182.4l-8-15.2c-0.5-2.5-0.7-5.1-0.9-7.8l8,15.2
						C402.5,177.3,402.7,179.9,403.2,182.4L403.2,182.4z"/>
					<path id="XMLID_891_" class="st31" d="M402.3,174.6l-8-15.2c-0.1-2-0.1-4.1,0-6.2l8,15.2C402.2,170.5,402.2,172.6,402.3,174.6
						L402.3,174.6z"/>
					<path id="XMLID_890_" class="st27" d="M402.3,168.4l-8-15.2c0.1-1.8,0.2-3.6,0.5-5.4l8,15.2
						C402.6,164.8,402.4,166.6,402.3,168.4L402.3,168.4z"/>
					<path id="XMLID_889_" class="st26" d="M402.8,163l-8-15.2c0.2-1.7,0.5-3.3,0.8-5l8,15.2C403.3,159.6,403,161.3,402.8,163
						L402.8,163z"/>
					<path id="XMLID_888_" class="st25" d="M403.6,158l-8-15.2c0.3-1.6,0.7-3.2,1.1-4.8l8,15.2C404.3,154.8,403.9,156.4,403.6,158
						L403.6,158z"/>
					<path id="XMLID_887_" class="st24" d="M404.7,153.2l-8-15.2c0.4-1.5,0.8-3,1.3-4.5l8,15.2C405.5,150.2,405.1,151.7,404.7,153.2
						L404.7,153.2z"/>
					<path id="XMLID_886_" class="st23" d="M406,148.7l-8-15.2c0.5-1.5,1-2.9,1.5-4.4l8,15.2C407,145.8,406.5,147.3,406,148.7
						L406,148.7z"/>
					<path id="XMLID_885_" class="st22" d="M407.5,144.3l-8-15.2c0.5-1.4,1.1-2.9,1.8-4.3l8,15.2
						C408.7,141.5,408.1,142.9,407.5,144.3L407.5,144.3z"/>
					<path id="XMLID_884_" class="st2" d="M409.3,140.1l-8-15.2c0.6-1.4,1.3-2.8,2-4.2l8,15.2C410.6,137.2,409.9,138.6,409.3,140.1
						L409.3,140.1z"/>
					<path id="XMLID_883_" class="st3" d="M411.3,135.8l-8-15.2c0.6-1.2,1.2-2.4,1.9-3.6c0.1-0.2,0.2-0.3,0.3-0.5l8,15.2
						c-0.1,0.2-0.2,0.3-0.3,0.5C412.5,133.4,411.9,134.6,411.3,135.8L411.3,135.8z"/>
					<path id="XMLID_882_" class="st4" d="M413.4,131.7l-8-15.2c0.6-1.1,1.2-2.2,1.8-3.2l8,15.2C414.6,129.6,414,130.6,413.4,131.7
						L413.4,131.7z"/>
					<path id="XMLID_881_" class="st5" d="M415.3,128.5l-8-15.2c0.6-1.1,1.3-2.1,2-3.2l8,15.2C416.5,126.4,415.9,127.4,415.3,128.5
						L415.3,128.5z"/>
					<path id="XMLID_880_" class="st6" d="M417.2,125.3l-8-15.2c0.7-1.2,1.5-2.3,2.3-3.4l8,15.2C418.7,123,418,124.2,417.2,125.3
						L417.2,125.3z"/>
					<path id="XMLID_879_" class="st7" d="M419.5,121.9l-8-15.2c0.8-1.1,1.6-2.3,2.4-3.4l8,15.2
						C421.1,119.6,420.3,120.7,419.5,121.9L419.5,121.9z"/>
					<path id="XMLID_878_" class="st8" d="M421.9,118.5l-8-15.2c0.8-1.1,1.6-2.1,2.5-3.2l8,15.2
						C423.5,116.4,422.7,117.4,421.9,118.5L421.9,118.5z"/>
					<path id="XMLID_877_" class="st9" d="M424.4,115.3l-8-15.2c0.8-1.1,1.7-2.1,2.6-3.1l8,15.2
						C426.1,113.2,425.2,114.3,424.4,115.3L424.4,115.3z"/>
					<path id="XMLID_876_" class="st10" d="M426.9,112.2l-8-15.2c0.9-1,1.7-2,2.6-3l8,15.2C428.7,110.2,427.8,111.2,426.9,112.2
						L426.9,112.2z"/>
					<path id="XMLID_875_" class="st11" d="M429.6,109.2l-8-15.2c0.9-1,1.8-2,2.7-2.9l8,15.2C431.3,107.2,430.4,108.2,429.6,109.2
						L429.6,109.2z"/>
					<path id="XMLID_874_" class="st12" d="M432.3,106.3l-8-15.2c0.9-1,1.9-1.9,2.8-2.9l8,15.2C434.1,104.3,433.2,105.3,432.3,106.3
						L432.3,106.3z"/>
					<path id="XMLID_873_" class="st13" d="M435.1,103.4l-8-15.2c1-0.9,1.9-1.9,2.9-2.8l8,15.2C437,101.5,436,102.5,435.1,103.4
						L435.1,103.4z"/>
					<path id="XMLID_872_" class="st14" d="M438,100.6l-8-15.2c1-0.9,2-1.9,3.1-2.8l8,15.2C440,98.7,439,99.7,438,100.6L438,100.6z"
						/>
					<path id="XMLID_871_" class="st15" d="M441.1,97.8l-8-15.2c1.1-0.9,2.1-1.9,3.2-2.8l8,15.2C443.2,95.9,442.1,96.9,441.1,97.8
						L441.1,97.8z"/>
					<path id="XMLID_870_" class="st16" d="M444.3,95l-8-15.2c1.2-1,2.4-2,3.6-2.9l8,15.2C446.7,93.1,445.5,94,444.3,95L444.3,95z"
						/>
					<path id="XMLID_869_" class="st17" d="M447.9,92.1l-8-15.2c1.3-1,2.6-2,3.9-3l8,15.2C450.5,90.1,449.2,91.1,447.9,92.1
						L447.9,92.1z"/>
					<path id="XMLID_868_" class="st18" d="M451.8,89.1l-8-15.2c1.7-1.2,3.4-2.4,5.1-3.6l8,15.2C455.2,86.7,453.5,87.9,451.8,89.1
						L451.8,89.1z"/>
					<path id="XMLID_867_" class="st19" d="M456.9,85.5l-8-15.2c2.4-1.6,4.9-3.2,7.5-4.7l8,15.2C461.9,82.3,459.4,83.9,456.9,85.5
						L456.9,85.5z"/>
					<path id="XMLID_866_" class="st20" d="M464.4,80.8l-8-15.2c5-3,10.2-5.7,15.5-8.2l8,15.2C474.6,75.1,469.4,77.8,464.4,80.8
						L464.4,80.8z"/>
					<path id="XMLID_865_" class="st19" d="M479.9,72.6l-8-15.2c2.7-1.2,5.4-2.4,8.1-3.5l8,15.2C485.3,70.3,482.6,71.4,479.9,72.6
						L479.9,72.6z"/>
					<path id="XMLID_864_" class="st18" d="M488,69.2L480,54c1.9-0.7,3.7-1.4,5.6-2.1l8,15.2C491.8,67.7,489.9,68.4,488,69.2
						L488,69.2z"/>
					<path id="XMLID_863_" class="st17" d="M493.7,67.1l-8-15.2c1.7-0.6,3.3-1.1,5-1.7l8,15.2C497,65.9,495.3,66.5,493.7,67.1
						L493.7,67.1z"/>
					<path id="XMLID_862_" class="st16" d="M498.7,65.4l-8-15.2c1.4-0.4,2.9-0.9,4.3-1.3l8,15.2C501.5,64.5,500.1,65,498.7,65.4
						L498.7,65.4z"/>
					<path id="XMLID_861_" class="st15" d="M503,64.1l-8-15.2c1.4-0.4,2.8-0.8,4.2-1.1l8,15.2C505.8,63.4,504.4,63.7,503,64.1
						L503,64.1z"/>
					<path id="XMLID_860_" class="st14" d="M507.2,63l-8-15.2c1.3-0.3,2.7-0.6,4-0.9l8,15.2C509.8,62.4,508.5,62.7,507.2,63
						L507.2,63z"/>
					<path id="XMLID_859_" class="st13" d="M511.2,62.1l-8-15.2c1.3-0.3,2.7-0.6,4-0.8l8,15.2C513.8,61.5,512.5,61.8,511.2,62.1
						L511.2,62.1z"/>
					<path id="XMLID_858_" class="st12" d="M515.2,61.3l-8-15.2c1.3-0.3,2.6-0.5,3.9-0.7l8,15.2C517.8,60.8,516.5,61,515.2,61.3
						L515.2,61.3z"/>
					<path id="XMLID_857_" class="st11" d="M519.1,60.6l-8-15.2c1.3-0.2,2.6-0.4,3.9-0.6l8,15.2C521.7,60.2,520.4,60.4,519.1,60.6
						L519.1,60.6z"/>
					<path id="XMLID_856_" class="st10" d="M523,60l-8-15.2c1.3-0.2,2.7-0.3,4-0.5l8,15.2C525.7,59.7,524.4,59.8,523,60L523,60z"/>
					<path id="XMLID_855_" class="st9" d="M527,59.5l-8-15.2c1.3-0.1,2.7-0.2,4-0.3l8,15.2C529.7,59.3,528.3,59.4,527,59.5L527,59.5
						z"/>
					<path id="XMLID_854_" class="st8" d="M531,59.2L523,44c1.4-0.1,2.7-0.2,4.1-0.2l8,15.2C533.7,59,532.3,59.1,531,59.2L531,59.2z
						"/>
					<path id="XMLID_853_" class="st7" d="M535.1,59l-8-15.2c1.4,0,2.7-0.1,4.1-0.1l8,15.2C537.8,58.9,536.4,58.9,535.1,59L535.1,59
						z"/>
					<path id="XMLID_852_" class="st6" d="M539.1,58.9l-8-15.2c1.4,0,2.8,0,4.2,0.1l8,15.2C541.9,58.9,540.5,58.9,539.1,58.9
						L539.1,58.9z"/>
					<path id="XMLID_851_" class="st5" d="M543.3,59l-8-15.2c1.4,0,2.8,0.1,4.2,0.2l8,15.2C546.1,59.1,544.7,59,543.3,59L543.3,59z"
						/>
					<path id="XMLID_850_" class="st4" d="M547.5,59.2l-8-15.2c1.3,0.1,2.6,0.2,3.9,0.3l8,15.2C550.1,59.4,548.8,59.3,547.5,59.2
						L547.5,59.2z"/>
					<path id="XMLID_849_" class="st3" d="M551.4,59.5l-8-15.2c1.3,0.1,2.6,0.3,3.9,0.5l8,15.2C554,59.8,552.7,59.7,551.4,59.5
						L551.4,59.5z"/>
					<path id="XMLID_848_" class="st2" d="M555.3,60l-8-15.2c0.1,0,0.1,0,0.2,0l8,15.2C555.4,60.1,555.3,60,555.3,60L555.3,60z"/>
				</g>
			</g>
			<g id="XMLID_841_">
				<path id="XMLID_842_" class="st30" d="M555.5,60.1c52.7,7.8,74.5,52.6,48.6,100.3c-25.9,47.6-89.6,79.9-142.3,72.1
					c-52.7-7.8-74.5-52.6-48.6-100.2C439,84.6,502.8,52.3,555.5,60.1z M471.5,214.6c41.8,6.2,92.3-19.5,112.8-57.2
					c20.5-37.7,3.3-73.3-38.5-79.4C504,71.8,453.5,97.4,433,135.1C412.4,172.8,429.7,208.4,471.5,214.6L471.5,214.6z"/>
			</g>
		</g>
	</g>
	<g id="XMLID_555_">
		<path id="XMLID_710_" class="st42" d="M136.2,122.8c-2.5-0.1-25.6,12.8-51.7,28.8c-26.1,16-45.2,29-42.7,29.1
			c2.5,0.1,25.6-12.8,51.7-28.8C119.6,135.9,138.7,122.9,136.2,122.8z"/>
		<g id="XMLID_565_" class="st0">
			<defs>
				<path id="XMLID_566_" class="st0" d="M148.8,115.4l7.7,12.7c0.8,1.4-22.6,17.2-54.1,36.6c-32.9,20.2-62.1,36.4-65.2,36.4
					c-0.1,0-0.2,0-0.3-0.1l-7.7-12.7c0,0.1,0.1,0.1,0.3,0.1c3.1,0.1,32.3-16.2,65.2-36.4C126.2,132.6,149.7,116.7,148.8,115.4z"/>
			</defs>
			<clipPath id="XMLID_37_">
				<use xlink:href="#XMLID_566_"  style="overflow:visible;"/>
			</clipPath>
			<g id="XMLID_567_" class="st43">
				<path id="XMLID_709_" class="st25" d="M148.8,115.4l7.7,12.7c0.2,0.3-1.1,1.6-3.7,3.6l-7.7-12.7
					C147.7,117,149.1,115.7,148.8,115.4L148.8,115.4z"/>
				<path id="XMLID_708_" class="st44" d="M145.2,119l7.7,12.7c-0.6,0.5-1.3,1-2,1.5l-7.7-12.7C143.9,119.9,144.5,119.4,145.2,119
					L145.2,119z"/>
				<path id="XMLID_707_" class="st24" d="M143.1,120.5l7.7,12.7c-0.6,0.4-1.2,0.9-1.9,1.3l-7.7-12.7
					C141.9,121.3,142.5,120.9,143.1,120.5L143.1,120.5z"/>
				<path id="XMLID_706_" class="st45" d="M141.3,121.8l7.7,12.7c-0.6,0.4-1.2,0.8-1.8,1.3l-7.7-12.7
					C140.1,122.7,140.7,122.2,141.3,121.8L141.3,121.8z"/>
				<path id="XMLID_705_" class="st23" d="M139.5,123.1l7.7,12.7c-0.6,0.4-1.2,0.8-1.8,1.3l-7.7-12.7
					C138.3,123.9,138.9,123.5,139.5,123.1L139.5,123.1z"/>
				<path id="XMLID_704_" class="st22" d="M137.7,124.4l7.7,12.7c-0.6,0.4-1.2,0.8-1.8,1.2l-7.7-12.7
					C136.5,125.1,137.1,124.7,137.7,124.4L137.7,124.4z"/>
				<path id="XMLID_703_" class="st46" d="M135.9,125.6l7.7,12.7c-0.6,0.4-1.2,0.8-1.8,1.2l-7.7-12.7
					C134.7,126.4,135.3,126,135.9,125.6L135.9,125.6z"/>
				<path id="XMLID_702_" class="st2" d="M134.1,126.8l7.7,12.7c-0.6,0.4-1.2,0.8-1.8,1.2l-7.7-12.7
					C132.9,127.6,133.5,127.2,134.1,126.8L134.1,126.8z"/>
				<path id="XMLID_701_" class="st47" d="M132.3,128l7.7,12.7c-0.6,0.4-1.2,0.8-1.8,1.2l-7.7-12.7
					C131.1,128.8,131.7,128.4,132.3,128L132.3,128z"/>
				<path id="XMLID_700_" class="st3" d="M130.5,129.2l7.7,12.7c-0.6,0.4-1.2,0.8-1.9,1.2l-7.7-12.7
					C129.3,130,129.9,129.6,130.5,129.2L130.5,129.2z"/>
				<path id="XMLID_699_" class="st4" d="M128.7,130.4l7.7,12.7c-0.6,0.4-1.2,0.8-1.9,1.2l-7.7-12.7
					C127.4,131.2,128.1,130.8,128.7,130.4L128.7,130.4z"/>
				<path id="XMLID_698_" class="st5" d="M126.8,131.6l7.7,12.7c-0.6,0.4-1.3,0.8-1.9,1.3l-7.7-12.7
					C125.5,132.5,126.2,132.1,126.8,131.6L126.8,131.6z"/>
				<path id="XMLID_697_" class="st48" d="M124.9,132.9l7.7,12.7c-0.6,0.4-1.3,0.8-1.9,1.3l-7.7-12.7
					C123.6,133.7,124.2,133.3,124.9,132.9L124.9,132.9z"/>
				<path id="XMLID_696_" class="st6" d="M122.9,134.2l7.7,12.7c-0.7,0.4-1.3,0.9-2,1.3l-7.7-12.7
					C121.6,135,122.3,134.6,122.9,134.2L122.9,134.2z"/>
				<path id="XMLID_676_" class="st49" d="M121,135.4l7.7,12.7c-0.7,0.4-1.3,0.8-2,1.3l-7.7-12.7C119.6,136.3,120.3,135.9,121,135.4
					L121,135.4z"/>
				<path id="XMLID_675_" class="st7" d="M119,136.7l7.7,12.7c-0.6,0.4-1.3,0.8-2,1.3L117,138C117.7,137.6,118.3,137.1,119,136.7
					L119,136.7z"/>
				<path id="XMLID_674_" class="st8" d="M117,138l7.7,12.7c-0.6,0.4-1.2,0.8-1.8,1.2l-7.7-12.7C115.8,138.8,116.4,138.4,117,138
					L117,138z"/>
				<path id="XMLID_673_" class="st50" d="M115.2,139.2l7.7,12.7c-0.6,0.4-1.2,0.8-1.9,1.2l-7.7-12.7
					C113.9,139.9,114.6,139.5,115.2,139.2L115.2,139.2z"/>
				<path id="XMLID_672_" class="st9" d="M113.3,140.3l7.7,12.7c-0.5,0.3-1,0.6-1.5,0.9l-7.7-12.7
					C112.3,141,112.8,140.7,113.3,140.3L113.3,140.3z"/>
				<path id="XMLID_671_" class="st51" d="M111.8,141.3l7.7,12.7c-0.5,0.3-1,0.6-1.5,0.9l-7.7-12.7
					C110.8,141.9,111.3,141.6,111.8,141.3L111.8,141.3z"/>
				<path id="XMLID_666_" class="st52" d="M110.3,142.2l7.7,12.7c-0.5,0.3-1,0.6-1.5,0.9l-7.7-12.7
					C109.3,142.8,109.8,142.5,110.3,142.2L110.3,142.2z"/>
				<path id="XMLID_665_" class="st11" d="M108.8,143.2l7.7,12.7c-0.3,0.2-0.7,0.4-1,0.7l-7.7-12.7
					C108.1,143.6,108.5,143.4,108.8,143.2L108.8,143.2z"/>
				<path id="XMLID_664_" class="st12" d="M107.8,143.8l7.7,12.7c-0.4,0.2-0.7,0.4-1.1,0.7l-7.7-12.7
					C107.1,144.3,107.4,144,107.8,143.8L107.8,143.8z"/>
				<path id="XMLID_663_" class="st53" d="M106.7,144.5l7.7,12.7c-0.4,0.2-0.7,0.4-1.1,0.7l-7.7-12.7
					C106,144.9,106.4,144.7,106.7,144.5L106.7,144.5z"/>
				<path id="XMLID_662_" class="st13" d="M105.7,145.1l7.7,12.7c-0.4,0.2-0.7,0.4-1.1,0.7l-7.7-12.7
					C105,145.6,105.3,145.4,105.7,145.1L105.7,145.1z"/>
				<path id="XMLID_661_" class="st54" d="M104.6,145.8l7.7,12.7c-0.3,0.2-0.6,0.4-0.9,0.5l-7.7-12.7
					C104,146.2,104.3,146,104.6,145.8L104.6,145.8z"/>
				<path id="XMLID_660_" class="st55" d="M103.7,146.4l7.7,12.7c-0.3,0.2-0.5,0.3-0.8,0.5l-7.7-12.7
					C103.2,146.7,103.5,146.5,103.7,146.4L103.7,146.4z"/>
				<path id="XMLID_659_" class="st56" d="M102.9,146.8l7.7,12.7c-0.3,0.2-0.5,0.3-0.8,0.5l-7.7-12.7
					C102.4,147.2,102.7,147,102.9,146.8L102.9,146.8z"/>
				<path id="XMLID_658_" class="st57" d="M102.2,147.3l7.7,12.7c-0.3,0.2-0.5,0.3-0.8,0.5l-7.7-12.7
					C101.6,147.7,101.9,147.5,102.2,147.3L102.2,147.3z"/>
				<path id="XMLID_657_" class="st58" d="M101.4,147.8l7.7,12.7c-0.3,0.2-0.5,0.3-0.8,0.5l-7.7-12.7
					C100.8,148.2,101.1,148,101.4,147.8L101.4,147.8z"/>
				<path id="XMLID_656_" class="st59" d="M100.6,148.3l7.7,12.7c-0.3,0.2-0.5,0.3-0.8,0.5l-7.7-12.7
					C100,148.6,100.3,148.5,100.6,148.3L100.6,148.3z"/>
				<path id="XMLID_655_" class="st60" d="M99.8,148.8l7.7,12.7c-0.2,0.1-0.5,0.3-0.7,0.4l-7.7-12.7C99.3,149.1,99.5,149,99.8,148.8
					L99.8,148.8z"/>
				<path id="XMLID_654_" class="st61" d="M99.1,149.3l7.7,12.7c-0.2,0.1-0.5,0.3-0.7,0.4l-7.7-12.7
					C98.6,149.5,98.8,149.4,99.1,149.3L99.1,149.3z"/>
				<path id="XMLID_653_" class="st62" d="M98.4,149.7l7.7,12.7c-0.2,0.1-0.5,0.3-0.7,0.4l-7.7-12.7C97.9,150,98.1,149.8,98.4,149.7
					L98.4,149.7z"/>
				<path id="XMLID_652_" class="st63" d="M97.7,150.1l7.7,12.7c-0.2,0.1-0.5,0.3-0.7,0.4L97,150.5
					C97.2,150.4,97.4,150.3,97.7,150.1L97.7,150.1z"/>
				<path id="XMLID_651_" class="st64" d="M97,150.5l7.7,12.7c-0.2,0.1-0.5,0.3-0.7,0.4L96.3,151C96.5,150.8,96.7,150.7,97,150.5
					L97,150.5z"/>
				<path id="XMLID_650_" class="st65" d="M96.3,151l7.7,12.7c-0.2,0.1-0.5,0.3-0.7,0.4l-7.7-12.7C95.8,151.3,96,151.1,96.3,151
					L96.3,151z"/>
				<path id="XMLID_649_" class="st17" d="M95.6,151.4l7.7,12.7c-0.2,0.1-0.5,0.3-0.7,0.4l-7.7-12.7
					C95.1,151.7,95.3,151.5,95.6,151.4L95.6,151.4z"/>
				<path id="XMLID_648_" class="st66" d="M94.9,151.8l7.7,12.7c-0.1,0-0.1,0.1-0.2,0.1c-0.2,0.1-0.4,0.3-0.6,0.4l-7.7-12.7
					c0.2-0.1,0.4-0.3,0.6-0.4C94.8,151.9,94.8,151.9,94.9,151.8L94.9,151.8z"/>
				<path id="XMLID_647_" class="st67" d="M94.1,152.3l7.7,12.7c-0.3,0.2-0.5,0.3-0.8,0.5l-7.7-12.7
					C93.5,152.7,93.8,152.5,94.1,152.3L94.1,152.3z"/>
				<path id="XMLID_646_" class="st68" d="M93.2,152.8l7.7,12.7c-0.3,0.2-0.5,0.3-0.8,0.5l-7.7-12.7C92.7,153.2,93,153,93.2,152.8
					L93.2,152.8z"/>
				<path id="XMLID_645_" class="st69" d="M92.4,153.3l7.7,12.7c-0.3,0.2-0.5,0.3-0.8,0.5l-7.7-12.7
					C91.9,153.7,92.2,153.5,92.4,153.3L92.4,153.3z"/>
				<path id="XMLID_618_" class="st70" d="M91.6,153.8l7.7,12.7c-0.3,0.2-0.5,0.3-0.8,0.5l-7.7-12.7C91.1,154.2,91.3,154,91.6,153.8
					L91.6,153.8z"/>
				<path id="XMLID_617_" class="st71" d="M90.8,154.3l7.7,12.7c-0.3,0.2-0.5,0.3-0.8,0.5L90,154.8
					C90.3,154.7,90.5,154.5,90.8,154.3L90.8,154.3z"/>
				<path id="XMLID_616_" class="st72" d="M90,154.8l7.7,12.7c-0.5,0.3-1,0.6-1.6,1l-7.7-12.7C88.9,155.5,89.5,155.1,90,154.8
					L90,154.8z"/>
				<path id="XMLID_615_" class="st73" d="M88.4,155.8l7.7,12.7c-0.6,0.4-1.2,0.7-1.8,1.1l-7.7-12.7
					C87.2,156.5,87.8,156.1,88.4,155.8L88.4,155.8z"/>
				<path id="XMLID_614_" class="st74" d="M86.6,156.8l7.7,12.7c-1.5,0.9-3,1.8-4.5,2.7l-7.7-12.7C83.7,158.6,85.1,157.8,86.6,156.8
					L86.6,156.8z"/>
				<path id="XMLID_613_" class="st73" d="M82.2,159.5l7.7,12.7c-0.8,0.5-1.5,0.9-2.3,1.4l-7.7-12.7C80.7,160.4,81.4,160,82.2,159.5
					L82.2,159.5z"/>
				<path id="XMLID_612_" class="st72" d="M79.9,160.9l7.7,12.7c-0.3,0.2-0.6,0.4-0.9,0.6L79,161.4
					C79.3,161.3,79.6,161.1,79.9,160.9L79.9,160.9z"/>
				<path id="XMLID_611_" class="st71" d="M79,161.4l7.7,12.7c-0.3,0.2-0.6,0.4-0.9,0.6L78.1,162C78.4,161.8,78.7,161.6,79,161.4
					L79,161.4z"/>
				<path id="XMLID_610_" class="st70" d="M78.1,162l7.7,12.7c-0.3,0.2-0.6,0.4-0.9,0.6l-7.7-12.7C77.4,162.4,77.7,162.2,78.1,162
					L78.1,162z"/>
				<path id="XMLID_609_" class="st69" d="M77.1,162.6l7.7,12.7c-0.3,0.2-0.6,0.4-0.9,0.5l-7.7-12.7
					C76.5,162.9,76.8,162.7,77.1,162.6L77.1,162.6z"/>
				<path id="XMLID_608_" class="st68" d="M76.2,163.1l7.7,12.7c-0.3,0.2-0.6,0.3-0.9,0.5l-7.7-12.7
					C75.6,163.4,75.9,163.3,76.2,163.1L76.2,163.1z"/>
				<path id="XMLID_607_" class="st67" d="M75.3,163.6l7.7,12.7c-0.2,0.1-0.5,0.3-0.7,0.4L74.6,164
					C74.9,163.9,75.1,163.8,75.3,163.6L75.3,163.6z"/>
				<path id="XMLID_606_" class="st66" d="M74.6,164l7.7,12.7c-0.2,0.1-0.5,0.3-0.7,0.4l-7.7-12.7C74.1,164.3,74.4,164.2,74.6,164
					L74.6,164z"/>
				<path id="XMLID_605_" class="st17" d="M73.9,164.5l7.7,12.7c-0.2,0.1-0.5,0.3-0.7,0.4l-7.7-12.7
					C73.4,164.8,73.6,164.6,73.9,164.5L73.9,164.5z"/>
				<path id="XMLID_604_" class="st65" d="M73.1,164.9l7.7,12.7c-0.2,0.1-0.5,0.3-0.7,0.4l-7.7-12.7
					C72.7,165.2,72.9,165.1,73.1,164.9L73.1,164.9z"/>
				<path id="XMLID_603_" class="st64" d="M72.4,165.3l7.7,12.7c-0.2,0.1-0.5,0.3-0.7,0.4l-7.7-12.7
					C71.9,165.6,72.2,165.5,72.4,165.3L72.4,165.3z"/>
				<path id="XMLID_602_" class="st63" d="M71.7,165.8l7.7,12.7c-0.2,0.1-0.5,0.3-0.7,0.4L71,166.2
					C71.2,166.1,71.4,165.9,71.7,165.8L71.7,165.8z"/>
				<path id="XMLID_601_" class="st62" d="M71,166.2l7.7,12.7c-0.3,0.2-0.5,0.3-0.8,0.5l-7.7-12.7C70.4,166.5,70.7,166.4,71,166.2
					L71,166.2z"/>
				<path id="XMLID_600_" class="st61" d="M70.1,166.7l7.7,12.7c-0.3,0.2-0.5,0.3-0.8,0.5l-7.7-12.7C69.6,167,69.9,166.8,70.1,166.7
					L70.1,166.7z"/>
				<path id="XMLID_599_" class="st60" d="M69.3,167.2l7.7,12.7c-0.3,0.2-0.5,0.3-0.8,0.5l-7.7-12.7
					C68.8,167.5,69.1,167.3,69.3,167.2L69.3,167.2z"/>
				<path id="XMLID_598_" class="st59" d="M68.5,167.6l7.7,12.7c-0.3,0.2-0.5,0.3-0.8,0.5l-7.7-12.7C68,167.9,68.3,167.8,68.5,167.6
					L68.5,167.6z"/>
				<path id="XMLID_597_" class="st58" d="M67.7,168.1l7.7,12.7c-0.3,0.2-0.5,0.3-0.8,0.5l-7.7-12.7
					C67.2,168.4,67.5,168.2,67.7,168.1L67.7,168.1z"/>
				<path id="XMLID_596_" class="st57" d="M66.9,168.6l7.7,12.7c-0.3,0.2-0.7,0.4-1,0.6L66,169.1C66.3,168.9,66.6,168.7,66.9,168.6
					L66.9,168.6z"/>
				<path id="XMLID_595_" class="st56" d="M66,169.1l7.7,12.7c-0.4,0.2-0.7,0.4-1.1,0.6l-7.7-12.7C65.2,169.6,65.6,169.3,66,169.1
					L66,169.1z"/>
				<path id="XMLID_594_" class="st55" d="M64.9,169.8l7.7,12.7c-0.4,0.2-0.7,0.4-1.1,0.6l-7.7-12.7C64.2,170.2,64.5,170,64.9,169.8
					L64.9,169.8z"/>
				<path id="XMLID_593_" class="st54" d="M63.8,170.4l7.7,12.7c-0.4,0.2-0.7,0.4-1.1,0.6L62.8,171
					C63.1,170.8,63.5,170.6,63.8,170.4L63.8,170.4z"/>
				<path id="XMLID_592_" class="st13" d="M62.8,171l7.7,12.7c-0.5,0.3-0.9,0.5-1.4,0.8l-7.7-12.7C61.8,171.5,62.3,171.3,62.8,171
					L62.8,171z"/>
				<path id="XMLID_591_" class="st53" d="M61.4,171.8l7.7,12.7c-0.5,0.3-1,0.6-1.5,0.9l-7.7-12.7C60.4,172.4,60.9,172.1,61.4,171.8
					L61.4,171.8z"/>
				<path id="XMLID_590_" class="st12" d="M59.9,172.7l7.7,12.7c-0.5,0.3-1,0.6-1.5,0.9l-7.7-12.7C58.8,173.2,59.3,172.9,59.9,172.7
					L59.9,172.7z"/>
				<path id="XMLID_589_" class="st11" d="M58.3,173.5l7.7,12.7c-0.7,0.4-1.3,0.8-2,1.1l-7.7-12.7C57,174.3,57.7,173.9,58.3,173.5
					L58.3,173.5z"/>
				<path id="XMLID_588_" class="st52" d="M56.4,174.6l7.7,12.7c-0.7,0.4-1.3,0.7-1.9,1.1l-7.7-12.7C55.1,175.4,55.7,175,56.4,174.6
					L56.4,174.6z"/>
				<path id="XMLID_587_" class="st51" d="M54.4,175.7l7.7,12.7c-0.7,0.4-1.4,0.8-2.1,1.2l-7.7-12.7C53,176.5,53.7,176.1,54.4,175.7
					L54.4,175.7z"/>
				<path id="XMLID_586_" class="st9" d="M52.3,176.9l7.7,12.7c-0.7,0.4-1.4,0.8-2,1.1l-7.7-12.7C51,177.7,51.7,177.3,52.3,176.9
					L52.3,176.9z"/>
				<path id="XMLID_585_" class="st50" d="M50.3,178.1l7.7,12.7c-0.7,0.4-1.3,0.7-2,1.1l-7.7-12.7C49,178.8,49.6,178.4,50.3,178.1
					L50.3,178.1z"/>
				<path id="XMLID_584_" class="st8" d="M48.4,179.1l7.7,12.7c-0.6,0.3-1.2,0.7-1.8,1l-7.7-12.7C47.1,179.8,47.7,179.5,48.4,179.1
					L48.4,179.1z"/>
				<path id="XMLID_583_" class="st7" d="M46.5,180.2l7.7,12.7c-0.6,0.3-1.2,0.6-1.7,0.9l-7.7-12.7
					C45.3,180.8,45.9,180.5,46.5,180.2L46.5,180.2z"/>
				<path id="XMLID_582_" class="st49" d="M44.8,181.1l7.7,12.7c-0.6,0.3-1.1,0.6-1.6,0.9L43.2,182
					C43.7,181.7,44.2,181.4,44.8,181.1L44.8,181.1z"/>
				<path id="XMLID_581_" class="st6" d="M43.2,182l7.7,12.7c-0.5,0.3-1,0.6-1.5,0.8l-7.7-12.7C42.1,182.5,42.6,182.3,43.2,182
					L43.2,182z"/>
				<path id="XMLID_580_" class="st48" d="M41.6,182.8l7.7,12.7c-0.5,0.3-1,0.5-1.4,0.8l-7.7-12.7C40.6,183.3,41.1,183,41.6,182.8
					L41.6,182.8z"/>
				<path id="XMLID_579_" class="st5" d="M40.2,183.5l7.7,12.7c-0.5,0.2-0.9,0.5-1.4,0.7l-7.7-12.7C39.3,184,39.7,183.8,40.2,183.5
					L40.2,183.5z"/>
				<path id="XMLID_578_" class="st4" d="M38.8,184.3l7.7,12.7c-0.4,0.2-0.9,0.4-1.3,0.7l-7.7-12.7
					C37.9,184.7,38.4,184.5,38.8,184.3L38.8,184.3z"/>
				<path id="XMLID_577_" class="st3" d="M37.5,184.9l7.7,12.7c-0.4,0.2-0.8,0.4-1.2,0.6l-7.7-12.7
					C36.7,185.3,37.1,185.1,37.5,184.9L37.5,184.9z"/>
				<path id="XMLID_576_" class="st47" d="M36.3,185.5l7.7,12.7c-0.4,0.2-0.8,0.4-1.2,0.6l-7.7-12.7
					C35.5,185.9,35.9,185.7,36.3,185.5L36.3,185.5z"/>
				<path id="XMLID_575_" class="st2" d="M35.2,186.1l7.7,12.7c-0.4,0.2-0.7,0.4-1.1,0.5l-7.7-12.7
					C34.4,186.4,34.8,186.3,35.2,186.1L35.2,186.1z"/>
				<path id="XMLID_574_" class="st46" d="M34.1,186.6l7.7,12.7c-0.4,0.2-0.7,0.3-1,0.5L33,187.1C33.4,186.9,33.7,186.8,34.1,186.6
					L34.1,186.6z"/>
				<path id="XMLID_573_" class="st22" d="M33,187.1l7.7,12.7c-0.3,0.2-0.7,0.3-1,0.4l-7.7-12.7C32.4,187.4,32.7,187.2,33,187.1
					L33,187.1z"/>
				<path id="XMLID_572_" class="st23" d="M32.1,187.5l7.7,12.7c-0.3,0.1-0.6,0.2-0.9,0.3l-7.7-12.7
					C31.5,187.7,31.8,187.6,32.1,187.5L32.1,187.5z"/>
				<path id="XMLID_571_" class="st45" d="M31.2,187.8l7.7,12.7c-0.3,0.1-0.6,0.2-0.8,0.3l-7.7-12.7C30.7,188,30.9,187.9,31.2,187.8
					L31.2,187.8z"/>
				<path id="XMLID_570_" class="st24" d="M30.4,188.1l7.7,12.7c-0.3,0.1-0.5,0.1-0.7,0.2l-7.7-12.7
					C29.9,188.3,30.1,188.2,30.4,188.1L30.4,188.1z"/>
				<path id="XMLID_569_" class="st44" d="M29.7,188.3l7.7,12.7c-0.1,0-0.2,0-0.2,0c-0.1,0-0.2,0-0.2-0.1l-7.7-12.7
					c0,0,0.1,0.1,0.2,0.1C29.6,188.3,29.6,188.3,29.7,188.3L29.7,188.3z"/>
				<path id="XMLID_568_" class="st25" d="M29.3,188.2l7.7,12.7c0,0,0,0,0,0L29.3,188.2C29.3,188.2,29.3,188.2,29.3,188.2
					L29.3,188.2z"/>
			</g>
		</g>
		<g id="XMLID_561_">
			<path id="XMLID_562_" class="st26" d="M83.4,151.6c32.9-20.2,62.1-36.4,65.2-36.4c3.1,0.1-21,16.5-53.9,36.7
				c-32.9,20.2-62.1,36.4-65.2,36.4C26.4,188.2,50.5,171.8,83.4,151.6z M93.5,151.9c26.1-16,45.2-29,42.7-29.1
				c-2.5-0.1-25.6,12.8-51.7,28.8c-26.1,16-45.2,29-42.7,29.1C44.3,180.8,67.5,167.9,93.5,151.9L93.5,151.9z"/>
		</g>
		<g id="XMLID_556_">
			<path id="XMLID_557_" class="st75" d="M93.3,150.5l0.9,0l8.9-5.4l-1,0c5-3.2,8.3-5.4,7.7-5.4c-0.6,0-4.4,2.1-9.1,4.9
				c3.4-2.2,5.6-3.7,5.2-3.7c-0.5,0-3.5,1.6-7.7,4.1l-0.9,0l-8.9,5.4l0.8,0l-5.8,3.6l-0.8,0l-8.9,5.4l0.8,0l-4.7,2.9l4.2,0.1
				l4.7-2.9l0.9,0l8.9-5.4l-0.9,0L93.3,150.5z M79.8,156.5l8.8-5.4c3.7-2.3,7.4-4.5,7.8-4.5c0.4,0-3.3,2.3-6.8,4.5l-8.8,5.4
				L79.8,156.5L79.8,156.5z M81.4,156.6l9.3-5.7c4.4-2.7,8.8-5.3,9.3-5.3c0.5,0-3.5,2.5-7.6,5l-9.8,6L81.4,156.6L81.4,156.6z"/>
		</g>
	</g>
	<g id="XMLID_437_">
		<g id="XMLID_540_" class="st0">
			<defs>
				<path id="XMLID_541_" class="st0" d="M83.2,32.9c-23,7-42,18-52,28.9c-1.7-5.4-3.4-10.9-5.1-16.3c10-10.9,29-21.9,52-28.9
					c26.6-8.1,51.2-8.7,64.3-2.7c1.7,5.4,3.4,10.9,5.1,16.3C134.4,24.2,109.8,24.8,83.2,32.9z"/>
			</defs>
			<clipPath id="XMLID_38_">
				<use xlink:href="#XMLID_541_"  style="overflow:visible;"/>
			</clipPath>
			<g id="XMLID_542_" class="st76">
				<path id="XMLID_554_" class="st2" d="M145.7,15.8l5.1,16.3c-1.6-1.1-3.5-2-5.6-2.8L140.1,13C142.3,13.8,144.1,14.7,145.7,15.8
					L145.7,15.8z"/>
				<path id="XMLID_553_" class="st77" d="M140.1,13l5.1,16.3c-1.8-0.7-3.8-1.2-5.9-1.7l-5.1-16.3C136.4,11.8,138.3,12.4,140.1,13
					L140.1,13z"/>
				<path id="XMLID_552_" class="st5" d="M134.2,11.3l5.1,16.3c-2-0.4-4.2-0.8-6.5-1l-5.1-16.3C130,10.6,132.2,10.9,134.2,11.3
					L134.2,11.3z"/>
				<path id="XMLID_551_" class="st49" d="M127.8,10.3l5.1,16.3c-2.3-0.2-4.8-0.4-7.3-0.4l-5.1-16.3C123,10,125.4,10.1,127.8,10.3
					L127.8,10.3z"/>
				<path id="XMLID_550_" class="st78" d="M120.4,9.9l5.1,16.3c-2.8,0-5.7,0-8.7,0.2l-5.1-16.3C114.8,10,117.7,9.9,120.4,9.9
					L120.4,9.9z"/>
				<path id="XMLID_549_" class="st9" d="M111.8,10.2l5.1,16.3c-3.5,0.2-7.2,0.6-11,1.2l-5.1-16.3C104.6,10.8,108.2,10.4,111.8,10.2
					L111.8,10.2z"/>
				<path id="XMLID_548_" class="st52" d="M100.8,11.4l5.1,16.3c-7.3,1.1-14.9,2.9-22.8,5.2c-6.4,2-12.6,4.2-18.3,6.7l-5.1-16.3
					c5.7-2.5,11.8-4.8,18.3-6.7C85.9,14.3,93.5,12.5,100.8,11.4L100.8,11.4z"/>
				<path id="XMLID_547_" class="st9" d="M59.8,23.4l5.1,16.3c-3.5,1.5-6.8,3.1-9.9,4.8l-5.1-16.3C53,26.5,56.3,24.9,59.8,23.4
					L59.8,23.4z"/>
				<path id="XMLID_546_" class="st78" d="M49.9,28.2L55,44.5c-2.7,1.5-5.4,3-7.8,4.5l-5.1-16.3C44.5,31.2,47.1,29.7,49.9,28.2
					L49.9,28.2z"/>
				<path id="XMLID_545_" class="st49" d="M42.1,32.7L47.2,49c-2.3,1.4-4.4,2.9-6.5,4.4l-5.1-16.3C37.6,35.6,39.8,34.2,42.1,32.7
					L42.1,32.7z"/>
				<path id="XMLID_544_" class="st5" d="M35.6,37.1l5.1,16.3c-2,1.5-3.8,3-5.5,4.5l-5.1-16.3C31.8,40.1,33.6,38.6,35.6,37.1
					L35.6,37.1z"/>
				<path id="XMLID_543_" class="st77" d="M30.1,41.6l5.1,16.3c-1.8,1.6-3.4,3.2-4.8,4.8l-5.1-16.3C26.7,44.8,28.3,43.2,30.1,41.6
					L30.1,41.6z"/>
			</g>
		</g>
		<g id="XMLID_535_" class="st0">
			<defs>
				<path id="XMLID_536_" class="st0" d="M147.5,30.2c-1.7-5.4-3.4-10.9-5.1-16.3c4.8,2.2,8,5.3,9.3,9.2l5.1,16.3
					C155.5,35.5,152.3,32.4,147.5,30.2z"/>
			</defs>
			<clipPath id="XMLID_39_">
				<use xlink:href="#XMLID_536_"  style="overflow:visible;"/>
			</clipPath>
			<g id="XMLID_537_" class="st79">
				<path id="XMLID_539_" class="st22" d="M151.6,23.2l5.1,16.3c-0.9-2.9-3-5.4-5.9-7.4l-5.1-16.3C148.7,17.8,150.7,20.2,151.6,23.2
					L151.6,23.2z"/>
				<path id="XMLID_538_" class="st2" d="M145.7,15.8l5.1,16.3c-1.6-1.1-3.5-2-5.6-2.8L140.1,13C142.3,13.8,144.1,14.7,145.7,15.8
					L145.7,15.8z"/>
			</g>
		</g>
		<g id="XMLID_529_" class="st0">
			<defs>
				<path id="XMLID_530_" class="st0" d="M23.8,80.7c0,0.2,0.1,0.4,0.2,0.5l-5.1-16.3c-0.1-0.2-0.1-0.4-0.2-0.5
					c-1.5-5.7,1.3-12.2,7.3-18.8c1.7,5.4,3.4,10.9,5.1,16.3C25.2,68.4,22.3,75,23.8,80.7z"/>
			</defs>
			<clipPath id="XMLID_40_">
				<use xlink:href="#XMLID_530_"  style="overflow:visible;"/>
			</clipPath>
			<g id="XMLID_531_" class="st80">
				<path id="XMLID_534_" class="st77" d="M30.1,41.6l5.1,16.3c-1.8,1.6-3.4,3.2-4.8,4.8l-5.1-16.3C26.7,44.8,28.3,43.2,30.1,41.6
					L30.1,41.6z"/>
				<path id="XMLID_533_" class="st2" d="M25.3,46.4l5.1,16.3c-1.6,1.9-3,3.8-4.1,5.6L21.2,52C22.3,50.2,23.7,48.3,25.3,46.4
					L25.3,46.4z"/>
				<path id="XMLID_532_" class="st22" d="M21.2,52l5.1,16.3c-2.6,4.3-3.5,8.6-2.5,12.4c0,0.2,0.1,0.4,0.2,0.5l-5.1-16.3
					c-0.1-0.2-0.1-0.4-0.2-0.5C17.7,60.6,18.7,56.3,21.2,52L21.2,52z"/>
			</g>
		</g>
		<path id="XMLID_528_" class="st81" d="M81.9,21.2c-34.6,9.3-64.2,28.1-63.7,42.8c0.6,16.6,38.1,19.6,80,5.8
			c38.4-12.6,60.2-32.8,52.5-44.9C143.6,14.1,114,12.6,81.9,21.2z"/>
		<g id="XMLID_526_">
			<path id="XMLID_527_" class="st33" d="M87.6,44.6c6.1-1.9,12.4-3.4,13.2-0.2c0.8,3-4.8,5.2-10.6,7l-13.8,4.2l-1.8-7L87.6,44.6z"
				/>
		</g>
		<path id="XMLID_525_" class="st33" d="M114.5,40.3c1.7,5.3-7.1,9.5-10.7,11.2l3.5,11.3c3.6-1.7,12.2-5.8,10.5-11.1L114.5,40.3z"/>
		<g id="XMLID_523_">
			<polygon id="XMLID_524_" class="st33" points="70.9,62.1 72.9,69.5 66.2,71.5 64.2,64.2 			"/>
		</g>
		<g id="XMLID_521_">
			<polygon id="XMLID_522_" class="st33" points="91.6,55.8 93.6,63.3 85.4,65.8 83.4,58.3 			"/>
		</g>
		<g id="XMLID_519_">
			<polygon id="XMLID_520_" class="st82" points="84.8,63.6 86.5,69.5 74,73.3 72.3,67.4 			"/>
		</g>
		<g id="XMLID_517_">
			<polygon id="XMLID_518_" class="st82" points="105.5,57.3 107.4,62.8 94.5,66.8 93,61.1 			"/>
		</g>
		<g id="XMLID_515_">
			<path id="XMLID_516_" class="st33" d="M84.4,35l-12.4,3.8l1.6,6L86,41c5-1.5,10.2-3.6,9.5-6.2C94.8,32.2,89.6,33.4,84.4,35z"/>
		</g>
		<g id="XMLID_511_">
			<path id="XMLID_512_" class="st5" d="M76.2,9.5c46.4-14.2,88-10.2,93.1,8.9c5,19.1-28.5,46.1-74.9,60.2
				c-46.4,14.2-88,10.2-93-8.9C-3.7,50.6,29.8,23.6,76.2,9.5z M92.5,71.4c36.7-11.2,63.3-32.6,59.3-47.7c-4-15.1-37-18.3-73.7-7
				C41.3,27.9,14.7,49.3,18.7,64.4C22.7,79.5,55.7,82.7,92.5,71.4L92.5,71.4z"/>
		</g>
		<g id="XMLID_506_">
			<path id="XMLID_507_" class="st83" d="M101.5,37.7c6.7-1.2,12.1-0.8,13,2.8c1,3.7-3.5,7.6-10.5,10.9l1.5,5.9L93,61.1l-1.4-5.3
				l-8.2,2.5l1.4,5.3l-12.5,3.8l-1.4-5.3l-6.7,2l-6.8-25.7l6.7-2l-1.3-5l12.5-3.8l1.3,5l8.2-2.5l-1.3-5l12.5-3.8l1.5,5.7
				c5.9-0.8,10.3-0.1,11,2.8C109.3,32.3,106.3,35.2,101.5,37.7z M90.1,51.4c5.9-1.8,11.4-4,10.6-7c-0.8-3.1-7-1.6-13.2,0.2l-13.1,4
				l1.8,7L90.1,51.4L90.1,51.4z M71.9,38.8l1.6,6L86,41c5-1.5,10.2-3.6,9.5-6.2c-0.7-2.6-5.9-1.5-11.1,0.1L71.9,38.8L71.9,38.8z"/>
		</g>
		<g id="XMLID_438_" class="st0">
			<defs>
				<path id="XMLID_439_" class="st0" d="M169,17.7l5.1,16.3c0.1,0.2,0.1,0.4,0.2,0.7c5,19.1-28.5,46.1-74.9,60.2
					c-45.8,14-87,10.3-92.9-8.2L1.5,70.4c5.8,18.5,47,22.2,92.9,8.2c46.4-14.2,79.9-41.1,74.9-60.2C169.2,18.1,169.1,17.9,169,17.7z
					"/>
			</defs>
			<clipPath id="XMLID_41_">
				<use xlink:href="#XMLID_439_"  style="overflow:visible;"/>
			</clipPath>
			<g id="XMLID_440_" class="st84">
				<path id="XMLID_505_" class="st85" d="M169,17.7l5.1,16.3c0.1,0.2,0.1,0.4,0.2,0.7c1.3,4.8,0.1,10.1-3.1,15.6L166.1,34
					c3.2-5.5,4.4-10.8,3.1-15.6C169.2,18.1,169.1,17.9,169,17.7L169,17.7z"/>
				<path id="XMLID_504_" class="st86" d="M166.1,34l5.1,16.3c-1.4,2.3-3.1,4.7-5.2,7.1l-5.1-16.3C163,38.7,164.7,36.3,166.1,34
					L166.1,34z"/>
				<path id="XMLID_503_" class="st87" d="M160.9,41.1l5.1,16.3c-1.8,2-3.8,4.1-6,6.1l-5.1-16.3C157.1,45.1,159.1,43.1,160.9,41.1
					L160.9,41.1z"/>
				<path id="XMLID_502_" class="st88" d="M154.8,47.1l5.1,16.3c-2.1,1.9-4.4,3.8-6.9,5.6l-5.1-16.3C150.4,50.9,152.7,49,154.8,47.1
					L154.8,47.1z"/>
				<path id="XMLID_501_" class="st89" d="M147.9,52.8L153,69c-2.5,1.9-5.2,3.7-8.1,5.6l-5.1-16.3C142.7,56.5,145.4,54.6,147.9,52.8
					L147.9,52.8z"/>
				<path id="XMLID_467_" class="st90" d="M139.8,58.3l5.1,16.3c-3.1,2-6.4,3.9-9.9,5.7L129.9,64C133.4,62.2,136.7,60.3,139.8,58.3
					L139.8,58.3z"/>
				<path id="XMLID_466_" class="st91" d="M129.9,64l5.1,16.3c-4,2.1-8.1,4.1-12.5,6l-5.1-16.3C121.8,68.2,126,66.1,129.9,64
					L129.9,64z"/>
				<path id="XMLID_465_" class="st92" d="M117.4,70.1l5.1,16.3c-7.2,3.2-14.9,6-23,8.5c-9.9,3-19.6,5.2-28.7,6.6l-5.1-16.3
					c9.1-1.4,18.8-3.6,28.7-6.6C102.5,76.1,110.2,73.2,117.4,70.1L117.4,70.1z"/>
				<path id="XMLID_464_" class="st91" d="M65.7,85.2l5.1,16.3c-4.8,0.7-9.4,1.2-13.8,1.5l-5.1-16.3C56.3,86.5,60.9,85.9,65.7,85.2
					L65.7,85.2z"/>
				<path id="XMLID_446_" class="st90" d="M51.8,86.8l5.1,16.3c-3.8,0.3-7.4,0.4-10.9,0.3l-5.1-16.3C44.4,87.1,48,87,51.8,86.8
					L51.8,86.8z"/>
				<path id="XMLID_445_" class="st89" d="M40.9,87.1l5.1,16.3c-3.2,0-6.3-0.2-9.2-0.5l-5.1-16.3C34.6,86.9,37.7,87,40.9,87.1
					L40.9,87.1z"/>
				<path id="XMLID_444_" class="st88" d="M31.7,86.6l5.1,16.3c-2.9-0.3-5.6-0.7-8.2-1.3l-5.1-16.3C26.1,85.8,28.8,86.3,31.7,86.6
					L31.7,86.6z"/>
				<path id="XMLID_443_" class="st87" d="M23.5,85.3l5.1,16.3c-2.7-0.6-5.2-1.3-7.5-2.1L16,83.2C18.3,84,20.8,84.7,23.5,85.3
					L23.5,85.3z"/>
				<path id="XMLID_442_" class="st86" d="M16,83.2l5.1,16.3c-2.7-1-5-2.2-7.1-3.5L9,79.7C11,81,13.4,82.2,16,83.2L16,83.2z"/>
				<path id="XMLID_441_" class="st85" d="M9,79.7l5.1,16.3c-3.7-2.5-6.3-5.6-7.5-9.3L1.5,70.4C2.7,74.1,5.2,77.2,9,79.7L9,79.7z"/>
			</g>
		</g>
	</g>
	<g id="XMLID_369_">
		<g id="XMLID_422_" class="st0">
			<defs>
				<path id="XMLID_423_" class="st0" d="M210.8,281.7c-13.8-8.4-27.9-13-37.9-13.2c2-3.3,3.9-6.6,5.9-9.9
					c10,0.1,24.1,4.8,37.9,13.2c16,9.7,27.4,21.9,30.3,31.2c-2,3.3-3.9,6.6-5.9,9.9C238.2,303.6,226.8,291.4,210.8,281.7z"/>
			</defs>
			<clipPath id="XMLID_42_">
				<use xlink:href="#XMLID_423_"  style="overflow:visible;"/>
			</clipPath>
			<g id="XMLID_424_" class="st93">
				<path id="XMLID_436_" class="st2" d="M247.5,305.5l-5.9,9.9c-0.2-1.3-0.6-2.6-1.1-4.1l5.9-9.9
					C247,302.8,247.3,304.2,247.5,305.5L247.5,305.5z"/>
				<path id="XMLID_435_" class="st77" d="M246.4,301.4l-5.9,9.9c-0.5-1.2-1.1-2.5-1.8-3.7l5.9-9.9
					C245.3,299,245.9,300.2,246.4,301.4L246.4,301.4z"/>
				<path id="XMLID_434_" class="st5" d="M244.6,297.7l-5.9,9.9c-0.7-1.2-1.5-2.4-2.4-3.7l5.9-9.9
					C243.1,295.2,243.9,296.5,244.6,297.7L244.6,297.7z"/>
				<path id="XMLID_433_" class="st49" d="M242.2,294l-5.9,9.9c-0.9-1.3-1.9-2.6-3.1-3.9l5.9-9.9C240.2,291.4,241.3,292.7,242.2,294
					L242.2,294z"/>
				<path id="XMLID_432_" class="st78" d="M239.1,290.1l-5.9,9.9c-1.2-1.4-2.6-2.8-4-4.3l5.9-9.9
					C236.6,287.3,237.9,288.7,239.1,290.1L239.1,290.1z"/>
				<path id="XMLID_431_" class="st9" d="M235.1,285.9l-5.9,9.9c-1.7-1.7-3.6-3.3-5.5-5l5.9-9.9
					C231.5,282.5,233.4,284.2,235.1,285.9L235.1,285.9z"/>
				<path id="XMLID_430_" class="st52" d="M229.6,280.9l-5.9,9.9c-3.8-3.2-8.1-6.2-12.9-9.1c-3.9-2.4-7.8-4.4-11.6-6.2l5.9-9.9
					c3.8,1.7,7.7,3.8,11.6,6.2C221.4,274.7,225.7,277.7,229.6,280.9L229.6,280.9z"/>
				<path id="XMLID_429_" class="st9" d="M205.1,265.6l-5.9,9.9c-2.3-1.1-4.6-2-6.9-2.8l5.9-9.9
					C200.5,263.6,202.8,264.6,205.1,265.6L205.1,265.6z"/>
				<path id="XMLID_428_" class="st78" d="M198.2,262.8l-5.9,9.9c-2-0.7-3.9-1.4-5.8-1.9l5.9-9.9
					C194.3,261.4,196.3,262.1,198.2,262.8L198.2,262.8z"/>
				<path id="XMLID_427_" class="st49" d="M192.5,260.9l-5.9,9.9c-1.8-0.5-3.5-0.9-5.1-1.3l5.9-9.9C189,260,190.7,260.4,192.5,260.9
					L192.5,260.9z"/>
				<path id="XMLID_426_" class="st5" d="M187.3,259.6l-5.9,9.9c-1.6-0.3-3.2-0.6-4.7-0.8l5.9-9.9
					C184.1,259,185.7,259.3,187.3,259.6L187.3,259.6z"/>
				<path id="XMLID_425_" class="st77" d="M182.6,258.9l-5.9,9.9c-1.6-0.2-3.1-0.3-4.6-0.3l5.9-9.9
					C179.5,258.6,181,258.7,182.6,258.9L182.6,258.9z"/>
			</g>
		</g>
		<g id="XMLID_417_" class="st0">
			<defs>
				<path id="XMLID_418_" class="st0" d="M241,312.9c2-3.3,3.9-6.6,5.9-9.9c1,3.4,0.9,6.4-0.5,8.8l-5.9,9.9
					C242,319.3,242.1,316.3,241,312.9z"/>
			</defs>
			<clipPath id="XMLID_43_">
				<use xlink:href="#XMLID_418_"  style="overflow:visible;"/>
			</clipPath>
			<g id="XMLID_419_" class="st94">
				<path id="XMLID_421_" class="st22" d="M246.5,311.8l-5.9,9.9c1.1-1.8,1.4-3.9,1.1-6.3l5.9-9.9
					C247.9,307.9,247.5,310,246.5,311.8L246.5,311.8z"/>
				<path id="XMLID_420_" class="st2" d="M247.5,305.5l-5.9,9.9c-0.2-1.3-0.6-2.6-1.1-4.1l5.9-9.9
					C247,302.8,247.3,304.2,247.5,305.5L247.5,305.5z"/>
			</g>
		</g>
		<g id="XMLID_411_" class="st0">
			<defs>
				<path id="XMLID_412_" class="st0" d="M160.1,273.2c-0.1,0.1-0.1,0.2-0.2,0.3l5.9-9.9c0.1-0.1,0.1-0.2,0.2-0.3
					c2.2-3.3,6.7-4.8,12.8-4.7c-2,3.3-3.9,6.6-5.9,9.9C166.9,268.4,162.3,269.9,160.1,273.2z"/>
			</defs>
			<clipPath id="XMLID_44_">
				<use xlink:href="#XMLID_412_"  style="overflow:visible;"/>
			</clipPath>
			<g id="XMLID_413_" class="st95">
				<path id="XMLID_416_" class="st77" d="M182.6,258.9l-5.9,9.9c-1.6-0.2-3.1-0.3-4.6-0.3l5.9-9.9
					C179.5,258.6,181,258.7,182.6,258.9L182.6,258.9z"/>
				<path id="XMLID_415_" class="st2" d="M178,258.6l-5.9,9.9c-1.7,0-3.2,0.2-4.7,0.4l5.9-9.9C174.8,258.8,176.4,258.6,178,258.6
					L178,258.6z"/>
				<path id="XMLID_414_" class="st22" d="M173.4,259.1l-5.9,9.9c-3.3,0.7-5.9,2.1-7.3,4.3c-0.1,0.1-0.1,0.2-0.2,0.3l5.9-9.9
					c0.1-0.1,0.1-0.2,0.2-0.3C167.5,261.1,170,259.7,173.4,259.1L173.4,259.1z"/>
			</g>
		</g>
		<path id="XMLID_410_" class="st81" d="M216.1,275.8c-20.2-13.2-43-19.7-50.2-12.8c-8.1,7.7,7.2,27.9,33,42.9
			c23.6,13.7,43.6,15.6,46.2,6.2C247.4,303.7,234.9,288.1,216.1,275.8z"/>
		<g id="XMLID_408_">
			<path id="XMLID_409_" class="st33" d="M206.9,289.2c3.7,2.2,7.2,4.7,6,6.5c-1.2,1.8-4.8,0-8.3-2.2l-8.3-5l2.7-4.1L206.9,289.2z"
				/>
		</g>
		<path id="XMLID_407_" class="st33" d="M221.1,300.8c-1.9,3.2-8,0.7-10.5-0.4l-4.1,6.8c2.5,1.1,8.4,3.5,10.3,0.3L221.1,300.8z"/>
		<g id="XMLID_405_">
			<polygon id="XMLID_406_" class="st33" points="190.6,288.6 187.8,292.9 183.7,290.5 186.6,286.2 			"/>
		</g>
		<g id="XMLID_403_">
			<polygon id="XMLID_404_" class="st33" points="203.1,296.2 200.2,300.6 195.2,297.6 198.2,293.2 			"/>
		</g>
		<g id="XMLID_401_">
			<polygon id="XMLID_402_" class="st82" points="196.1,296.3 193.9,299.8 186.3,295.2 188.6,291.7 			"/>
		</g>
		<g id="XMLID_399_">
			<polygon id="XMLID_400_" class="st82" points="208.6,303.9 206.7,307.3 198.8,302.6 201,299.3 			"/>
		</g>
		<g id="XMLID_397_">
			<path id="XMLID_398_" class="st33" d="M210.3,283.2l-7.5-4.6l-2.3,3.5l7.5,4.6c3,1.8,6.4,3.6,7.4,2
				C216.4,287.2,213.5,285.1,210.3,283.2z"/>
		</g>
		<g id="XMLID_393_">
			<path id="XMLID_394_" class="st5" d="M219.5,267.6c28,17,44.7,39.7,37.3,50.8c-7.4,11.1-36,6.3-63.9-10.6
				c-28-17-44.7-39.7-37.3-50.8C162.9,245.9,191.5,250.6,219.5,267.6z M195.6,303.7c22.2,13.5,44.8,17.2,50.7,8.4
				c5.8-8.8-7.4-26.8-29.6-40.3c-22.2-13.5-44.8-17.2-50.7-8.4C160.2,272.2,173.4,290.2,195.6,303.7L195.6,303.7z"/>
		</g>
		<g id="XMLID_388_">
			<path id="XMLID_389_" class="st83" d="M216.6,293.1c3.6,2.8,5.8,5.7,4.4,7.8c-1.4,2.1-5.4,1.7-10.2-0.4l-2.3,3.4l-7.5-4.6l2-3.1
				l-4.9-3l-2,3.1l-7.5-4.6l2-3.1l-4-2.5l9.9-14.9l4,2.5l1.9-2.9l7.5,4.6l-1.9,2.9l4.9,3l1.9-2.9l7.5,4.6l-2.2,3.3
				c3.1,2.6,4.7,5.1,3.5,6.8C222.8,294.5,220,294.4,216.6,293.1z M204.6,293.5c3.5,2.1,7.2,4,8.3,2.2c1.2-1.8-2.3-4.3-6-6.5
				l-7.9-4.8l-2.7,4.1L204.6,293.5L204.6,293.5z M202.8,278.7l-2.3,3.5l7.5,4.6c3,1.8,6.4,3.6,7.4,2c1-1.5-1.9-3.6-5.1-5.5
				L202.8,278.7L202.8,278.7z"/>
		</g>
		<g id="XMLID_370_" class="st0">
			<defs>
				<path id="XMLID_371_" class="st0" d="M257,318.1l-5.9,9.9c-0.1,0.1-0.2,0.3-0.2,0.4c-7.4,11.1-36,6.3-63.9-10.6
					c-27.6-16.8-44.3-39.2-37.6-50.4l5.9-9.9c-6.7,11.2,9.9,33.7,37.6,50.4c28,17,56.6,21.7,63.9,10.6
					C256.9,318.3,256.9,318.2,257,318.1z"/>
			</defs>
			<clipPath id="XMLID_45_">
				<use xlink:href="#XMLID_371_"  style="overflow:visible;"/>
			</clipPath>
			<g id="XMLID_372_" class="st96">
				<path id="XMLID_387_" class="st85" d="M257,318.1l-5.9,9.9c-0.1,0.1-0.2,0.3-0.2,0.4c-1.9,2.8-5.1,4.6-9.3,5.4l5.9-9.9
					c4.2-0.8,7.4-2.6,9.3-5.4C256.9,318.3,256.9,318.2,257,318.1L257,318.1z"/>
				<path id="XMLID_386_" class="st86" d="M247.5,323.9l-5.9,9.9c-1.8,0.4-3.8,0.5-5.9,0.6l5.9-9.9
					C243.7,324.4,245.7,324.3,247.5,323.9L247.5,323.9z"/>
				<path id="XMLID_385_" class="st87" d="M241.6,324.5l-5.9,9.9c-1.8,0-3.7-0.1-5.8-0.3l5.9-9.9
					C237.9,324.4,239.8,324.5,241.6,324.5L241.6,324.5z"/>
				<path id="XMLID_384_" class="st88" d="M235.8,324.1l-5.9,9.9c-1.9-0.2-3.9-0.5-6-1l5.9-9.9C231.9,323.6,233.9,323.9,235.8,324.1
					L235.8,324.1z"/>
				<path id="XMLID_383_" class="st89" d="M229.9,323.2l-5.9,9.9c-2.1-0.4-4.2-1-6.5-1.6l5.9-9.9
					C225.6,322.2,227.8,322.8,229.9,323.2L229.9,323.2z"/>
				<path id="XMLID_382_" class="st90" d="M223.4,321.6l-5.9,9.9c-2.4-0.7-4.8-1.5-7.3-2.4l5.9-9.9
					C218.6,320.1,221.1,320.9,223.4,321.6L223.4,321.6z"/>
				<path id="XMLID_381_" class="st91" d="M216.1,319.2l-5.9,9.9c-2.8-1-5.7-2.2-8.7-3.6l5.9-9.9
					C210.4,316.9,213.3,318.1,216.1,319.2L216.1,319.2z"/>
				<path id="XMLID_380_" class="st92" d="M207.5,315.6l-5.9,9.9c-4.8-2.2-9.7-4.8-14.6-7.8c-6-3.6-11.4-7.5-16.2-11.5l5.9-9.9
					c4.8,4,10.3,7.9,16.2,11.5C197.7,310.8,202.6,313.4,207.5,315.6L207.5,315.6z"/>
				<path id="XMLID_379_" class="st91" d="M176.6,296.4l-5.9,9.9c-2.5-2.1-4.8-4.2-7-6.3l5.9-9.9
					C171.8,292.2,174.1,294.3,176.6,296.4L176.6,296.4z"/>
				<path id="XMLID_378_" class="st90" d="M169.6,290.1l-5.9,9.9c-1.8-1.8-3.5-3.6-5.1-5.4l5.9-9.9
					C166.1,286.5,167.8,288.3,169.6,290.1L169.6,290.1z"/>
				<path id="XMLID_377_" class="st89" d="M164.6,284.7l-5.9,9.9c-1.4-1.6-2.7-3.3-3.9-4.9l5.9-9.9
					C161.8,281.4,163.1,283.1,164.6,284.7L164.6,284.7z"/>
				<path id="XMLID_376_" class="st88" d="M160.7,279.8l-5.9,9.9c-1.1-1.6-2.2-3.1-3-4.7l5.9-9.9
					C158.5,276.7,159.5,278.2,160.7,279.8L160.7,279.8z"/>
				<path id="XMLID_375_" class="st87" d="M157.6,275.2l-5.9,9.9c-0.9-1.6-1.7-3.2-2.3-4.7l5.9-9.9C156,272,156.7,273.5,157.6,275.2
					L157.6,275.2z"/>
				<path id="XMLID_374_" class="st86" d="M155.4,270.4l-5.9,9.9c-0.7-1.8-1.2-3.5-1.4-5.1l5.9-9.9
					C154.2,266.9,154.7,268.7,155.4,270.4L155.4,270.4z"/>
				<path id="XMLID_373_" class="st85" d="M154,265.3l-5.9,9.9c-0.4-3,0-5.7,1.3-7.9l5.9-9.9C153.9,259.6,153.5,262.3,154,265.3
					L154,265.3z"/>
			</g>
		</g>
	</g>
	<g id="XMLID_242_">
		<path id="XMLID_368_" class="st42" d="M312.9,96.7c-0.3-1.8-13.3-16.9-29-33.7c-15.7-16.8-28.1-28.9-27.8-27.1
			c0.3,1.8,13.3,16.9,29,33.7C300.8,86.4,313.2,98.5,312.9,96.7z"/>
		<g id="XMLID_252_" class="st0">
			<defs>
				<path id="XMLID_253_" class="st0" d="M320.3,104.9l-8.2,7.6c-0.9,0.8-16.1-14.1-35-34.3c-19.8-21.2-36.2-40.2-36.6-42.5
					c0-0.1,0-0.2,0-0.2l8.2-7.6c0,0,0,0.1,0,0.2c0.4,2.3,16.8,21.3,36.6,42.5C304.2,90.8,319.4,105.7,320.3,104.9z"/>
			</defs>
			<clipPath id="XMLID_46_">
				<use xlink:href="#XMLID_253_"  style="overflow:visible;"/>
			</clipPath>
			<g id="XMLID_254_" class="st97">
				<path id="XMLID_367_" class="st25" d="M320.3,104.9l-8.2,7.6c-0.2,0.2-1.3-0.6-3.2-2.2l8.2-7.6
					C319,104.3,320.1,105.1,320.3,104.9L320.3,104.9z"/>
				<path id="XMLID_366_" class="st44" d="M317.1,102.7l-8.2,7.6c-0.4-0.4-0.9-0.8-1.4-1.3l8.2-7.6
					C316.2,101.9,316.7,102.3,317.1,102.7L317.1,102.7z"/>
				<path id="XMLID_365_" class="st24" d="M315.7,101.4l-8.2,7.6c-0.4-0.4-0.8-0.8-1.3-1.2l8.2-7.6
					C314.9,100.7,315.3,101.1,315.7,101.4L315.7,101.4z"/>
				<path id="XMLID_364_" class="st45" d="M314.4,100.3l-8.2,7.6c-0.4-0.4-0.8-0.7-1.2-1.1l8.2-7.6C313.6,99.5,314,99.9,314.4,100.3
					L314.4,100.3z"/>
				<path id="XMLID_363_" class="st23" d="M313.2,99.1l-8.2,7.6c-0.4-0.4-0.8-0.7-1.2-1.1L312,98C312.4,98.4,312.8,98.8,313.2,99.1
					L313.2,99.1z"/>
				<path id="XMLID_362_" class="st22" d="M312,98l-8.2,7.6c-0.4-0.4-0.8-0.7-1.2-1.1l8.2-7.6C311.3,97.2,311.6,97.6,312,98L312,98z
					"/>
				<path id="XMLID_361_" class="st46" d="M310.9,96.9l-8.2,7.6c-0.4-0.4-0.8-0.7-1.2-1.1l8.2-7.6C310.1,96.1,310.5,96.5,310.9,96.9
					L310.9,96.9z"/>
				<path id="XMLID_360_" class="st2" d="M309.7,95.7l-8.2,7.6c-0.4-0.4-0.8-0.8-1.2-1.1l8.2-7.6C308.9,95,309.3,95.4,309.7,95.7
					L309.7,95.7z"/>
				<path id="XMLID_359_" class="st47" d="M308.5,94.6l-8.2,7.6c-0.4-0.4-0.8-0.8-1.2-1.1l8.2-7.6C307.8,93.8,308.2,94.2,308.5,94.6
					L308.5,94.6z"/>
				<path id="XMLID_358_" class="st3" d="M307.4,93.5l-8.2,7.6c-0.4-0.4-0.8-0.8-1.2-1.2l8.2-7.6C306.6,92.7,307,93.1,307.4,93.5
					L307.4,93.5z"/>
				<path id="XMLID_357_" class="st4" d="M306.2,92.3l-8.2,7.6c-0.4-0.4-0.8-0.8-1.2-1.2l8.2-7.6C305.4,91.5,305.8,91.9,306.2,92.3
					L306.2,92.3z"/>
				<path id="XMLID_356_" class="st5" d="M305,91.1l-8.2,7.6c-0.4-0.4-0.8-0.8-1.2-1.2l8.2-7.6C304.2,90.3,304.6,90.7,305,91.1
					L305,91.1z"/>
				<path id="XMLID_355_" class="st48" d="M303.8,89.9l-8.2,7.6c-0.4-0.4-0.8-0.8-1.2-1.2l8.2-7.6C303,89,303.4,89.5,303.8,89.9
					L303.8,89.9z"/>
				<path id="XMLID_354_" class="st6" d="M302.6,88.6l-8.2,7.6c-0.4-0.4-0.8-0.8-1.2-1.3l8.2-7.6C301.8,87.8,302.2,88.2,302.6,88.6
					L302.6,88.6z"/>
				<path id="XMLID_353_" class="st49" d="M301.3,87.4l-8.2,7.6c-0.4-0.4-0.8-0.8-1.2-1.3l8.2-7.6C300.5,86.5,300.9,86.9,301.3,87.4
					L301.3,87.4z"/>
				<path id="XMLID_352_" class="st7" d="M300.1,86.1l-8.2,7.6c-0.4-0.4-0.8-0.8-1.2-1.3l8.2-7.6C299.3,85.3,299.7,85.7,300.1,86.1
					L300.1,86.1z"/>
				<path id="XMLID_351_" class="st8" d="M298.9,84.8l-8.2,7.6c-0.4-0.4-0.8-0.8-1.1-1.2l8.2-7.6C298.1,84.1,298.5,84.4,298.9,84.8
					L298.9,84.8z"/>
				<path id="XMLID_350_" class="st50" d="M297.7,83.7l-8.2,7.6c-0.4-0.4-0.8-0.8-1.2-1.2l8.2-7.6C297,82.9,297.4,83.3,297.7,83.7
					L297.7,83.7z"/>
				<path id="XMLID_349_" class="st9" d="M296.6,82.5l-8.2,7.6c-0.3-0.3-0.6-0.6-0.9-0.9l8.2-7.6C296,81.8,296.3,82.1,296.6,82.5
					L296.6,82.5z"/>
				<path id="XMLID_348_" class="st51" d="M295.7,81.5l-8.2,7.6c-0.3-0.3-0.6-0.6-0.9-0.9l8.2-7.6C295.1,80.9,295.4,81.2,295.7,81.5
					L295.7,81.5z"/>
				<path id="XMLID_347_" class="st52" d="M294.8,80.6l-8.2,7.6c-0.3-0.3-0.6-0.6-0.9-1l8.2-7.6C294.2,79.9,294.5,80.2,294.8,80.6
					L294.8,80.6z"/>
				<path id="XMLID_346_" class="st11" d="M293.9,79.6l-8.2,7.6c-0.2-0.2-0.4-0.4-0.6-0.7l8.2-7.6C293.4,79.2,293.6,79.4,293.9,79.6
					L293.9,79.6z"/>
				<path id="XMLID_345_" class="st12" d="M293.2,78.9l-8.2,7.6c-0.2-0.2-0.4-0.5-0.6-0.7l8.2-7.6C292.8,78.5,293,78.7,293.2,78.9
					L293.2,78.9z"/>
				<path id="XMLID_344_" class="st53" d="M292.6,78.2l-8.2,7.6c-0.2-0.2-0.4-0.5-0.6-0.7l8.2-7.6C292.1,77.8,292.3,78,292.6,78.2
					L292.6,78.2z"/>
				<path id="XMLID_343_" class="st13" d="M291.9,77.6l-8.2,7.6c-0.2-0.2-0.4-0.5-0.7-0.7l8.2-7.6C291.5,77.1,291.7,77.3,291.9,77.6
					L291.9,77.6z"/>
				<path id="XMLID_342_" class="st54" d="M291.3,76.9l-8.2,7.6c-0.2-0.2-0.4-0.4-0.5-0.6l8.2-7.6C290.9,76.5,291.1,76.7,291.3,76.9
					L291.3,76.9z"/>
				<path id="XMLID_341_" class="st55" d="M290.7,76.3l-8.2,7.6c-0.2-0.2-0.3-0.3-0.5-0.5l8.2-7.6C290.4,76,290.6,76.2,290.7,76.3
					L290.7,76.3z"/>
				<path id="XMLID_340_" class="st56" d="M290.3,75.8l-8.2,7.6c-0.2-0.2-0.3-0.3-0.5-0.5l8.2-7.6C289.9,75.5,290.1,75.6,290.3,75.8
					L290.3,75.8z"/>
				<path id="XMLID_339_" class="st57" d="M289.8,75.3l-8.2,7.6c-0.2-0.2-0.3-0.3-0.5-0.5l8.2-7.6C289.5,75,289.6,75.1,289.8,75.3
					L289.8,75.3z"/>
				<path id="XMLID_338_" class="st58" d="M289.3,74.8l-8.2,7.6c-0.2-0.2-0.3-0.3-0.5-0.5l8.2-7.6C289,74.5,289.1,74.6,289.3,74.8
					L289.3,74.8z"/>
				<path id="XMLID_337_" class="st59" d="M288.8,74.3l-8.2,7.6c-0.2-0.2-0.3-0.3-0.5-0.5l8.2-7.6C288.5,73.9,288.6,74.1,288.8,74.3
					L288.8,74.3z"/>
				<path id="XMLID_336_" class="st60" d="M288.3,73.8l-8.2,7.6c-0.1-0.2-0.3-0.3-0.4-0.5l8.2-7.6C288,73.5,288.2,73.6,288.3,73.8
					L288.3,73.8z"/>
				<path id="XMLID_335_" class="st61" d="M287.9,73.3l-8.2,7.6c-0.1-0.1-0.3-0.3-0.4-0.4l8.2-7.6C287.6,73,287.8,73.2,287.9,73.3
					L287.9,73.3z"/>
				<path id="XMLID_334_" class="st62" d="M287.5,72.9l-8.2,7.6c-0.1-0.1-0.3-0.3-0.4-0.4l8.2-7.6C287.2,72.6,287.3,72.7,287.5,72.9
					L287.5,72.9z"/>
				<path id="XMLID_333_" class="st63" d="M287.1,72.4l-8.2,7.6c-0.1-0.1-0.3-0.3-0.4-0.4l8.2-7.6C286.8,72.1,286.9,72.3,287.1,72.4
					L287.1,72.4z"/>
				<path id="XMLID_332_" class="st64" d="M286.6,72l-8.2,7.6c-0.1-0.2-0.3-0.3-0.4-0.5l8.2-7.6C286.4,71.7,286.5,71.8,286.6,72
					L286.6,72z"/>
				<path id="XMLID_331_" class="st65" d="M286.2,71.5l-8.2,7.6c-0.1-0.2-0.3-0.3-0.4-0.5l8.2-7.6C285.9,71.2,286.1,71.4,286.2,71.5
					L286.2,71.5z"/>
				<path id="XMLID_330_" class="st17" d="M285.8,71.1l-8.2,7.6c-0.1-0.2-0.3-0.3-0.4-0.5l8.2-7.6C285.5,70.8,285.6,70.9,285.8,71.1
					L285.8,71.1z"/>
				<path id="XMLID_329_" class="st66" d="M285.4,70.6l-8.2,7.6c0,0-0.1-0.1-0.1-0.1c-0.1-0.1-0.3-0.3-0.4-0.4l8.2-7.6
					C285,70.2,285.1,70.4,285.4,70.6C285.3,70.5,285.3,70.6,285.4,70.6L285.4,70.6z"/>
				<path id="XMLID_328_" class="st67" d="M284.9,70.1l-8.2,7.6c-0.2-0.2-0.3-0.4-0.5-0.5l8.2-7.6C284.6,69.7,284.7,69.9,284.9,70.1
					L284.9,70.1z"/>
				<path id="XMLID_327_" class="st68" d="M284.4,69.6l-8.2,7.6c-0.2-0.2-0.3-0.4-0.5-0.5l8.2-7.6C284.1,69.2,284.2,69.4,284.4,69.6
					L284.4,69.6z"/>
				<path id="XMLID_326_" class="st69" d="M283.9,69l-8.2,7.6c-0.2-0.2-0.3-0.4-0.5-0.5l8.2-7.6C283.6,68.7,283.7,68.9,283.9,69
					L283.9,69z"/>
				<path id="XMLID_325_" class="st70" d="M283.4,68.5l-8.2,7.6c-0.2-0.2-0.3-0.4-0.5-0.5l8.2-7.6C283.1,68.2,283.2,68.3,283.4,68.5
					L283.4,68.5z"/>
				<path id="XMLID_324_" class="st71" d="M282.9,68l-8.2,7.6c-0.2-0.2-0.3-0.3-0.5-0.5l8.2-7.6C282.6,67.6,282.8,67.8,282.9,68
					L282.9,68z"/>
				<path id="XMLID_323_" class="st72" d="M282.4,67.5l-8.2,7.6c-0.3-0.3-0.6-0.7-0.9-1l8.2-7.6C281.8,66.8,282.1,67.1,282.4,67.5
					L282.4,67.5z"/>
				<path id="XMLID_302_" class="st73" d="M281.5,66.5l-8.2,7.6c-0.4-0.4-0.7-0.8-1.1-1.1l8.2-7.6C280.8,65.7,281.1,66.1,281.5,66.5
					L281.5,66.5z"/>
				<path id="XMLID_301_" class="st74" d="M280.4,65.3l-8.2,7.6c-0.9-1-1.8-1.9-2.6-2.9l8.2-7.6C278.7,63.4,279.5,64.3,280.4,65.3
					L280.4,65.3z"/>
				<path id="XMLID_300_" class="st73" d="M277.8,62.4l-8.2,7.6c-0.4-0.5-0.9-1-1.3-1.5l8.2-7.6C276.9,61.5,277.3,61.9,277.8,62.4
					L277.8,62.4z"/>
				<path id="XMLID_299_" class="st72" d="M276.5,61l-8.2,7.6c-0.2-0.2-0.4-0.4-0.6-0.6l8.2-7.6C276.1,60.6,276.3,60.8,276.5,61
					L276.5,61z"/>
				<path id="XMLID_298_" class="st71" d="M275.9,60.4l-8.2,7.6c-0.2-0.2-0.4-0.4-0.5-0.6l8.2-7.6C275.5,60,275.7,60.2,275.9,60.4
					L275.9,60.4z"/>
				<path id="XMLID_297_" class="st70" d="M275.4,59.8l-8.2,7.6c-0.2-0.2-0.4-0.4-0.5-0.6l8.2-7.6C275,59.4,275.2,59.6,275.4,59.8
					L275.4,59.8z"/>
				<path id="XMLID_296_" class="st69" d="M274.8,59.2l-8.2,7.6c-0.2-0.2-0.4-0.4-0.5-0.6l8.2-7.6C274.4,58.8,274.6,59,274.8,59.2
					L274.8,59.2z"/>
				<path id="XMLID_295_" class="st68" d="M274.3,58.6l-8.2,7.6c-0.2-0.2-0.3-0.4-0.5-0.6l8.2-7.6C273.9,58.2,274.1,58.4,274.3,58.6
					L274.3,58.6z"/>
				<path id="XMLID_294_" class="st67" d="M273.8,58l-8.2,7.6c-0.1-0.2-0.3-0.3-0.4-0.5l8.2-7.6C273.5,57.7,273.6,57.9,273.8,58
					L273.8,58z"/>
				<path id="XMLID_293_" class="st66" d="M273.3,57.5l-8.2,7.6c-0.1-0.2-0.3-0.3-0.4-0.5l8.2-7.6C273,57.2,273.2,57.4,273.3,57.5
					L273.3,57.5z"/>
				<path id="XMLID_292_" class="st17" d="M272.9,57.1l-8.2,7.6c-0.1-0.2-0.3-0.3-0.4-0.5l8.2-7.6C272.6,56.8,272.8,56.9,272.9,57.1
					L272.9,57.1z"/>
				<path id="XMLID_291_" class="st65" d="M272.5,56.6l-8.2,7.6c-0.1-0.2-0.3-0.3-0.4-0.5l8.2-7.6C272.2,56.3,272.3,56.4,272.5,56.6
					L272.5,56.6z"/>
				<path id="XMLID_290_" class="st64" d="M272,56.1l-8.2,7.6c-0.1-0.2-0.3-0.3-0.4-0.5l8.2-7.6C271.8,55.8,271.9,56,272,56.1
					L272,56.1z"/>
				<path id="XMLID_289_" class="st63" d="M271.6,55.7l-8.2,7.6c-0.1-0.2-0.3-0.3-0.4-0.5l8.2-7.6C271.3,55.3,271.5,55.5,271.6,55.7
					L271.6,55.7z"/>
				<path id="XMLID_288_" class="st62" d="M271.2,55.2l-8.2,7.6c-0.2-0.2-0.3-0.4-0.5-0.5l8.2-7.6C270.9,54.8,271,55,271.2,55.2
					L271.2,55.2z"/>
				<path id="XMLID_287_" class="st61" d="M270.7,54.7l-8.2,7.6c-0.2-0.2-0.3-0.3-0.5-0.5l8.2-7.6C270.4,54.3,270.6,54.5,270.7,54.7
					L270.7,54.7z"/>
				<path id="XMLID_286_" class="st60" d="M270.3,54.1l-8.2,7.6c-0.2-0.2-0.3-0.3-0.5-0.5l8.2-7.6C269.9,53.8,270.1,54,270.3,54.1
					L270.3,54.1z"/>
				<path id="XMLID_285_" class="st59" d="M269.8,53.6l-8.2,7.6c-0.2-0.2-0.3-0.3-0.5-0.5l8.2-7.6C269.5,53.3,269.6,53.4,269.8,53.6
					L269.8,53.6z"/>
				<path id="XMLID_284_" class="st58" d="M269.3,53.1l-8.2,7.6c-0.2-0.2-0.3-0.3-0.5-0.5l8.2-7.6C269,52.8,269.2,52.9,269.3,53.1
					L269.3,53.1z"/>
				<path id="XMLID_283_" class="st57" d="M268.9,52.6l-8.2,7.6c-0.2-0.2-0.4-0.4-0.6-0.6l8.2-7.6C268.5,52.2,268.7,52.4,268.9,52.6
					L268.9,52.6z"/>
				<path id="XMLID_282_" class="st56" d="M268.3,51.9l-8.2,7.6c-0.2-0.2-0.4-0.5-0.6-0.7l8.2-7.6C267.9,51.5,268.1,51.7,268.3,51.9
					L268.3,51.9z"/>
				<path id="XMLID_281_" class="st55" d="M267.7,51.2l-8.2,7.6c-0.2-0.2-0.4-0.5-0.6-0.7l8.2-7.6C267.3,50.8,267.5,51,267.7,51.2
					L267.7,51.2z"/>
				<path id="XMLID_280_" class="st54" d="M267.1,50.6l-8.2,7.6c-0.2-0.2-0.4-0.5-0.6-0.7l8.2-7.6C266.7,50.1,266.9,50.3,267.1,50.6
					L267.1,50.6z"/>
				<path id="XMLID_279_" class="st13" d="M266.5,49.9l-8.2,7.6c-0.3-0.3-0.5-0.6-0.8-0.9l8.2-7.6C265.9,49.3,266.2,49.6,266.5,49.9
					L266.5,49.9z"/>
				<path id="XMLID_278_" class="st53" d="M265.6,49l-8.2,7.6c-0.3-0.3-0.6-0.7-0.9-1l8.2-7.6C265.1,48.3,265.4,48.6,265.6,49
					L265.6,49z"/>
				<path id="XMLID_277_" class="st12" d="M264.8,48l-8.2,7.6c-0.3-0.3-0.6-0.7-0.9-1l8.2-7.6C264.2,47.3,264.5,47.7,264.8,48
					L264.8,48z"/>
				<path id="XMLID_276_" class="st11" d="M263.9,47l-8.2,7.6c-0.4-0.4-0.8-0.9-1.1-1.3l8.2-7.6C263.2,46.1,263.5,46.6,263.9,47
					L263.9,47z"/>
				<path id="XMLID_275_" class="st52" d="M262.8,45.7l-8.2,7.6c-0.4-0.4-0.7-0.8-1.1-1.3l8.2-7.6C262.1,44.9,262.4,45.3,262.8,45.7
					L262.8,45.7z"/>
				<path id="XMLID_274_" class="st51" d="M261.7,44.5l-8.2,7.6c-0.4-0.5-0.8-0.9-1.2-1.4l8.2-7.6C260.9,43.5,261.3,44,261.7,44.5
					L261.7,44.5z"/>
				<path id="XMLID_273_" class="st9" d="M260.5,43.1l-8.2,7.6c-0.4-0.4-0.8-0.9-1.1-1.3l8.2-7.6C259.7,42.2,260.1,42.6,260.5,43.1
					L260.5,43.1z"/>
				<path id="XMLID_272_" class="st50" d="M259.4,41.8l-8.2,7.6c-0.4-0.4-0.7-0.9-1.1-1.3l8.2-7.6C258.6,40.9,259,41.3,259.4,41.8
					L259.4,41.8z"/>
				<path id="XMLID_271_" class="st8" d="M258.3,40.5l-8.2,7.6c-0.3-0.4-0.7-0.8-1-1.2l8.2-7.6C257.6,39.7,257.9,40.1,258.3,40.5
					L258.3,40.5z"/>
				<path id="XMLID_270_" class="st7" d="M257.3,39.3l-8.2,7.6c-0.3-0.4-0.6-0.8-1-1.1l8.2-7.6C256.6,38.5,256.9,38.9,257.3,39.3
					L257.3,39.3z"/>
				<path id="XMLID_269_" class="st49" d="M256.3,38.2l-8.2,7.6c-0.3-0.4-0.6-0.7-0.9-1.1l8.2-7.6C255.7,37.4,256,37.8,256.3,38.2
					L256.3,38.2z"/>
				<path id="XMLID_268_" class="st6" d="M255.4,37.1l-8.2,7.6c-0.3-0.3-0.6-0.7-0.8-1l8.2-7.6C254.9,36.4,255.1,36.7,255.4,37.1
					L255.4,37.1z"/>
				<path id="XMLID_267_" class="st48" d="M254.6,36.1l-8.2,7.6c-0.3-0.3-0.5-0.6-0.8-0.9l8.2-7.6C254.1,35.4,254.3,35.8,254.6,36.1
					L254.6,36.1z"/>
				<path id="XMLID_266_" class="st5" d="M253.8,35.1l-8.2,7.6c-0.2-0.3-0.5-0.6-0.7-0.9l8.2-7.6C253.3,34.5,253.6,34.8,253.8,35.1
					L253.8,35.1z"/>
				<path id="XMLID_265_" class="st4" d="M253.1,34.2l-8.2,7.6c-0.2-0.3-0.5-0.6-0.7-0.9l8.2-7.6C252.6,33.7,252.9,33.9,253.1,34.2
					L253.1,34.2z"/>
				<path id="XMLID_264_" class="st3" d="M252.4,33.4l-8.2,7.6c-0.2-0.3-0.4-0.5-0.6-0.8l8.2-7.6C252,32.8,252.2,33.1,252.4,33.4
					L252.4,33.4z"/>
				<path id="XMLID_263_" class="st47" d="M251.8,32.6l-8.2,7.6c-0.2-0.3-0.4-0.5-0.6-0.8l8.2-7.6C251.4,32.1,251.6,32.3,251.8,32.6
					L251.8,32.6z"/>
				<path id="XMLID_262_" class="st2" d="M251.2,31.8l-8.2,7.6c-0.2-0.2-0.4-0.5-0.5-0.7l8.2-7.6C250.8,31.3,251,31.6,251.2,31.8
					L251.2,31.8z"/>
				<path id="XMLID_261_" class="st46" d="M250.6,31.1l-8.2,7.6c-0.2-0.2-0.3-0.5-0.5-0.7l8.2-7.6C250.3,30.6,250.5,30.9,250.6,31.1
					L250.6,31.1z"/>
				<path id="XMLID_260_" class="st22" d="M250.1,30.4L242,38c-0.2-0.2-0.3-0.4-0.4-0.6l8.2-7.6C249.8,30,250,30.2,250.1,30.4
					L250.1,30.4z"/>
				<path id="XMLID_259_" class="st23" d="M249.7,29.8l-8.2,7.6c-0.1-0.2-0.3-0.4-0.4-0.6l8.2-7.6C249.4,29.4,249.6,29.6,249.7,29.8
					L249.7,29.8z"/>
				<path id="XMLID_258_" class="st45" d="M249.3,29.2l-8.2,7.6c-0.1-0.2-0.2-0.4-0.3-0.6l8.2-7.6C249.1,28.8,249.2,29,249.3,29.2
					L249.3,29.2z"/>
				<path id="XMLID_257_" class="st24" d="M249,28.6l-8.2,7.6c-0.1-0.2-0.2-0.3-0.2-0.5l8.2-7.6C248.8,28.3,248.9,28.5,249,28.6
					L249,28.6z"/>
				<path id="XMLID_256_" class="st44" d="M248.8,28.2l-8.2,7.6c0-0.1,0-0.1,0-0.2c0-0.1,0-0.1,0-0.2l8.2-7.6c0,0,0,0.1,0,0.2
					C248.7,28,248.7,28.1,248.8,28.2L248.8,28.2z"/>
				<path id="XMLID_255_" class="st25" d="M248.7,27.8l-8.2,7.6c0,0,0,0,0,0L248.7,27.8C248.7,27.8,248.7,27.8,248.7,27.8
					L248.7,27.8z"/>
			</g>
		</g>
		<g id="XMLID_248_">
			<path id="XMLID_249_" class="st26" d="M283.8,62.1c19.8,21.2,36.1,40.2,36.6,42.5c0.4,2.3-15.3-13-35.1-34.1
				c-19.8-21.2-36.2-40.2-36.6-42.5C248.3,25.7,264,41,283.8,62.1z M285.1,69.6c15.7,16.8,28.1,28.9,27.8,27.1
				c-0.3-1.8-13.3-16.9-29-33.7c-15.7-16.8-28.1-28.9-27.8-27.1C256.5,37.8,269.4,52.9,285.1,69.6L285.1,69.6z"/>
		</g>
		<g id="XMLID_243_">
			<path id="XMLID_244_" class="st75" d="M286.1,69.2l0.1,0.6l5.3,5.7l-0.1-0.7c3.1,3.2,5.2,5.3,5.2,4.8c-0.1-0.4-2.2-2.9-5-6
				c2.1,2.2,3.6,3.5,3.5,3.2c-0.1-0.4-1.7-2.3-4.2-5l-0.1-0.7l-5.3-5.7l0.1,0.6l-3.5-3.7l-0.1-0.6l-5.3-5.7l0.1,0.6l-2.9-3.1
				l0.5,3.1l2.9,3.1l0.1,0.6l5.3,5.7l-0.1-0.6L286.1,69.2z M279.6,60.2l5.3,5.7c2.2,2.4,4.4,4.8,4.5,5.1c0.1,0.3-2.2-2.1-4.3-4.4
				l-5.3-5.7L279.6,60.2L279.6,60.2z M279.8,61.4l5.6,6c2.6,2.8,5.2,5.6,5.3,6c0.1,0.4-2.4-2.2-4.9-4.9l-5.9-6.3L279.8,61.4
				L279.8,61.4z"/>
		</g>
	</g>
</g>
</svg>
