<?xml version="1.0" encoding="utf-8"?>
<!-- Generator: Adobe Illustrator 22.0.0, SVG Export Plug-In . SVG Version: 6.00 Build 0)  -->
<svg version="1.1" id="Capa_1" xmlns="http://www.w3.org/2000/svg" xmlns:xlink="http://www.w3.org/1999/xlink" x="0px" y="0px"
	 viewBox="0 0 166.7 69.4" style="enable-background:new 0 0 166.7 69.4;" xml:space="preserve">
<style type="text/css">
	.st0{fill:#FFFFFF;}
</style>
<g>
	<title>logo-defi</title>
	<path class="st0" d="M0,15.2h21.7c18.3,0,30.5,10.6,30.5,26.7S40.1,68.5,21.7,68.5H0V15.2z M21.7,56.6c8.9,0,14.8-5.8,14.8-14.8
		S30.7,27,21.7,27h-6.5v29.6H21.7z"/>
	<path class="st0" d="M57,49.1c0-12.2,8.9-20,21.7-20s21,7.9,21,20.1c0,1.3-0.1,2.5-0.2,3.8H71.3c0.9,4.2,3.7,6.8,7.9,6.8
		c2.9,0.1,5.7-1.5,6.9-4.2l12,2.2c-1.9,7.2-9.8,11.6-19.7,11.6C65.7,69.4,57,61.5,57,49.1z M85.6,45.7c-0.2-3.8-3.4-6.9-7.2-6.9
		c-3.9,0-6.4,2.7-7.2,6.9H85.6z"/>
	<path class="st0" d="M105.5,15.2h40.8v13.4h-25.1v8.9h21.7v11.7h-21.7v19.2h-15.7V15.2z"/>
	<rect x="152.7" y="54.6" class="st0" width="13.9" height="13.9"/>
	<rect x="152.7" y="36.4" width="13.9" height="13.9"/>
	<rect x="152.7" y="18.2" class="st0" width="13.9" height="13.9"/>
	<polygon class="st0" points="166.7,0 152.7,2.4 152.7,13.9 166.7,13.9 	"/>
</g>
</svg>
