<svg xmlns="http://www.w3.org/2000/svg" viewBox="0 0 166.67 69.44"><defs><style>.a{fill:#fff;}.b{fill:#00b43c;}</style></defs><title>logo-defi</title><path class="a" d="M0,15.15H21.74c18.32,0,30.53,10.65,30.53,26.66S40.06,68.47,21.74,68.47H0ZM21.74,56.63c8.94,0,14.82-5.81,14.82-14.82S30.68,27,21.74,27H15.19V56.63Z"/><path class="a" d="M57,49.11c0-12.21,8.93-20,21.66-20s21,7.89,21,20.18a28.11,28.11,0,0,1-.22,3.8H71.34c.89,4.17,3.72,6.77,7.89,6.77a7.37,7.37,0,0,0,6.93-4.17l12,2.16c-1.93,7.23-9.82,11.62-19.65,11.62C65.75,69.44,57,61.47,57,49.11Zm28.59-3.5a7.37,7.37,0,0,0-7.22-6.92c-3.88,0-6.41,2.68-7.15,6.92Z"/><path class="a" d="M105.52,15.15h40.8V28.56H121.23v8.93H142.9V49.26H121.23V68.47H105.52Z"/><rect class="a" x="152.75" y="54.55" width="13.92" height="13.92"/><rect class="b" x="152.75" y="36.36" width="13.92" height="13.92"/><rect class="a" x="152.75" y="18.18" width="13.92" height="13.92"/><polygon class="a" points="166.67 0 152.75 2.42 152.75 13.93 166.67 13.93 166.67 0"/></svg>