<svg xmlns="http://www.w3.org/2000/svg" viewBox="0 0 104.99 139.02"><defs><style>.a,.b{fill:#fff;}.b{stroke:#fff;stroke-miterlimit:10;stroke-width:0.5px;}</style></defs><title>page-icon-white</title><path class="a" d="M100.24,0H4.75A4.75,4.75,0,0,0,0,4.75V134.27A4.75,4.75,0,0,0,4.75,139H80.19a2,2,0,1,0,0-4.07H4.75a.69.69,0,0,1-.68-.68V4.75a.69.69,0,0,1,.68-.68H34.26V9.5H14.39a4.77,4.77,0,0,0-4.76,4.76V29.32a2,2,0,0,0,4.08,0V14.26a.67.67,0,0,1,.68-.68H34.26v1.28A4.75,4.75,0,0,0,39,19.61H50.32a2,2,0,1,0,0-4.07H39a.68.68,0,0,1-.68-.68V4.07H66.66V14.86a.69.69,0,0,1-.68.68H59.55a2,2,0,0,0,0,4.07H66a4.75,4.75,0,0,0,4.75-4.75V13.58H90.6a.67.67,0,0,1,.68.68V96.34H66.93a4.76,4.76,0,0,0-4.75,4.76v24.34H14.39a.67.67,0,0,1-.68-.67V38.56a2,2,0,0,0-4.08,0v86.21a4.76,4.76,0,0,0,4.76,4.75H64.22a2,2,0,0,0,1.44-.6l29.1-29.1a2,2,0,0,0,.57-1.7c0-.09,0-83.87,0-83.87A4.75,4.75,0,0,0,90.6,9.5H70.73V4.07h29.51a.68.68,0,0,1,.67.68V134.27a.68.68,0,0,1-.67.68H89.42a2,2,0,1,0,0,4.07h10.82a4.75,4.75,0,0,0,4.75-4.75V4.75A4.75,4.75,0,0,0,100.24,0Zm-34,122.56V101.1a.68.68,0,0,1,.68-.68H88.4Z"/><path class="a" d="M44.07,7.77h0a2,2,0,0,0,0,4.07h0a2,2,0,1,0,0-4.07Z"/><path class="a" d="M60.92,11.84h0a2,2,0,0,0,0-4.07h0a2,2,0,1,0,0,4.07Z"/><path class="a" d="M21.17,64a2,2,0,0,0,2,2h9.51a2,2,0,1,0,0-4.07H23.21A2,2,0,0,0,21.17,64Z"/><path class="a" d="M23.21,83.05h23.1a2,2,0,0,0,0-4.07H23.21a2,2,0,1,0,0,4.07Z"/><path class="a" d="M23.21,91.56h19a2,2,0,1,0,0-4.08h-19a2,2,0,0,0,0,4.08Z"/><path class="a" d="M81.78,62H72.27a2,2,0,1,0,0,4.07h9.51a2,2,0,0,0,0-4.07Z"/><path class="a" d="M56.64,81a2,2,0,0,0,2,2h23.1a2,2,0,0,0,0-4.07H58.68a2,2,0,0,0-2,2Z"/><path class="a" d="M81.78,87.48h-19a2,2,0,0,0,0,4.08h19a2,2,0,0,0,0-4.08Z"/><path class="a" d="M22.08,113.19a2,2,0,0,0,.82.17,2,2,0,0,0,1.86-1.22c1.19-2.69,3.8-6.68,5.89-7.12a1.89,1.89,0,0,1,1.79.66c3.88,3.54,7.42,1.23,9.76-.29,2.64-1.72,4-2.47,6.29-.8a2,2,0,0,0,2.4-3.29c-4.65-3.4-8.42-1-10.91.67s-3.39,2-4.8.7A5.94,5.94,0,0,0,29.8,101c-4.95,1.06-8.39,8.62-8.77,9.48a2,2,0,0,0,1,2.68Z"/><path class="a" d="M23.27,70.17a2,2,0,1,0,0,4.07h0a2,2,0,0,0,0-4.07Z"/><path class="a" d="M29.13,70.17a2,2,0,0,0,0,4.07h0a2,2,0,1,0,0-4.07Z"/><path class="a" d="M75.82,70.17a2,2,0,0,0,0,4.07h0a2,2,0,1,0,0-4.07Z"/><path class="a" d="M81.72,70.17h0a2,2,0,1,0,0,4.07h0a2,2,0,1,0,0-4.07Z"/><path class="b" d="M35.56,42.53A16.94,16.94,0,1,0,52.49,25.6,17,17,0,0,0,35.56,42.53Zm30.79,0A13.86,13.86,0,1,1,52.49,28.68,13.87,13.87,0,0,1,66.35,42.53Z"/><path class="b" d="M50.65,33.3v1.8a4.62,4.62,0,0,0,1.54,9,1.54,1.54,0,0,1,0,3.08,2.78,2.78,0,0,1-2-1.16,1.54,1.54,0,0,0-2.36,2,6.4,6.4,0,0,0,2.82,2v1.79a1.54,1.54,0,1,0,3.08,0V50a4.62,4.62,0,0,0-1.54-9,1.54,1.54,0,0,1,0-3.08,2.46,2.46,0,0,1,1.66.81A1.54,1.54,0,1,0,56,36.51a5.87,5.87,0,0,0-2.26-1.42V33.3a1.54,1.54,0,0,0-3.08,0Z"/></svg>