<svg xmlns="http://www.w3.org/2000/svg" viewBox="0 0 113.68 145.82"><defs><style>.a{fill:#00b520;stroke:#fff;stroke-miterlimit:10;stroke-width:0.68px;}</style></defs><title>page-icon</title><path class="a" d="M113.34,37.47V133c-.1.36-.21.71-.29,1.07-1.39,6.61-6.79,11.38-13.12,11.38q-43.1,0-86.18,0c-7.36,0-13.38-6.4-13.39-14.19q0-58.36,0-116.73A14.24,14.24,0,0,1,10,1C10.67.73,11.4.55,12.12.34H78.26c.73.67,1.51,1.29,2.19,2q15.51,16.4,31,32.8C112.11,35.88,112.7,36.7,113.34,37.47Zm-5.61,3.92H89c-8.66,0-14.44-6.14-14.44-15.29,0-6.09,0-12.18,0-18.28,0-.49,0-1-.06-1.55H14.8C9.14,6.27,6,9.67,6,15.68V130.05c0,6.11,3.17,9.49,8.91,9.49H98.79c5.77,0,8.94-3.36,8.94-9.46V41.39ZM80.18,10.75v1.19c0,4.81,0,9.63,0,14.44,0,5.47,3.39,9.05,8.53,9.07h13.64c.37,0,.74-.06,1.1-.09Z"/><path class="a" d="M56.7,78.83q-15.8,0-31.58,0c-2,0-3.16-.88-3.37-2.48a2.9,2.9,0,0,1,2.45-3.42,7.17,7.17,0,0,1,.93,0H88.57c2,0,3.15.88,3.36,2.47a2.87,2.87,0,0,1-3,3.44c-3.7,0-7.4,0-11.11,0Z"/><path class="a" d="M57,86.46H88.68c2,0,3.18,1,3.28,2.72a2.81,2.81,0,0,1-2.21,3.08,8.26,8.26,0,0,1-1.72.13H25.67a7.77,7.77,0,0,1-2-.19,2.81,2.81,0,0,1-2-3,2.76,2.76,0,0,1,2.33-2.68,12.22,12.22,0,0,1,1.6-.05Z"/><path class="a" d="M56.7,65.27H25c-1.93,0-3.09-.94-3.25-2.59a2.89,2.89,0,0,1,2.33-3.26,8,8,0,0,1,1.47-.07H88.16a6.55,6.55,0,0,1,2,.23,3,3,0,0,1-.65,5.66c-.45,0-.9,0-1.34,0Z"/><path class="a" d="M38,105.88c-4.37,0-8.74,0-13.11,0a2.84,2.84,0,0,1-3.05-2A2.91,2.91,0,0,1,24,100.06a8.44,8.44,0,0,1,1.59-.1H50.52a9.55,9.55,0,0,1,1.6.1,2.81,2.81,0,0,1,2.31,3,2.71,2.71,0,0,1-2.53,2.77c-1.73.1-3.47.05-5.21.06Z"/><path class="a" d="M61.3,105.87c-1.28.1-2.53-.2-3-1.55a4.24,4.24,0,0,1,.08-2.9c1-2.07,4.9-2.07,5.88,0a4.36,4.36,0,0,1,.06,2.92C63.87,105.7,62.59,106,61.3,105.87Z"/></svg>