<?xml version="1.0" encoding="utf-8"?>
<!-- Generator: Adobe Illustrator 22.0.0, SVG Export Plug-In . SVG Version: 6.00 Build 0)  -->
<svg version="1.1" id="Capa_1" xmlns="http://www.w3.org/2000/svg" xmlns:xlink="http://www.w3.org/1999/xlink" x="0px" y="0px"
	 viewBox="0 0 105 139" style="enable-background:new 0 0 105 139;" xml:space="preserve">
<style type="text/css">
	.st0{fill:#00B520;}
	.st1{fill:#00B520;stroke:#FFFFFF;stroke-width:0.5;stroke-miterlimit:10;}
</style>
<title>page-icon-white</title>
<path class="st0" d="M100.2,0H4.8C2.1,0,0,2.1,0,4.8v129.5c0,2.6,2.1,4.7,4.8,4.7h75.4c1.1,0,2-0.9,2-2s-0.9-2-2-2H4.8
	c-0.4,0-0.7-0.3-0.7-0.7V4.8c0-0.4,0.3-0.7,0.7-0.7h29.5v5.4H14.4c-2.6,0-4.8,2.1-4.8,4.8v15.1c0,1.1,0.9,2,2,2s2-0.9,2-2V14.3
	c0-0.4,0.3-0.7,0.7-0.7c0,0,0,0,0,0h19.9v1.3c0,2.6,2.1,4.7,4.7,4.8h11.3c1.1,0,2-0.9,2-2s-0.9-2-2-2H39c-0.4,0-0.7-0.3-0.7-0.7
	c0,0,0,0,0,0V4.1h28.3v10.8c0,0.4-0.3,0.7-0.7,0.7h-6.4c-1.1,0-2,0.9-2,2s0.9,2,2,2H66c2.6,0,4.8-2.1,4.8-4.8v-1.3h19.8
	c0.4,0,0.7,0.3,0.7,0.7c0,0,0,0,0,0v82.1H66.9c-2.6,0-4.8,2.1-4.8,4.8v24.3H14.4c-0.4,0-0.7-0.3-0.7-0.7c0,0,0,0,0,0V38.6
	c0-1.1-0.9-2-2-2s-2,0.9-2,2v86.2c0,2.6,2.1,4.8,4.8,4.8h49.8c0.5,0,1.1-0.2,1.4-0.6l29.1-29.1c0.4-0.4,0.7-1.1,0.6-1.7
	c0-0.1,0-83.9,0-83.9c0-2.6-2.1-4.7-4.7-4.8H70.7V4.1h29.5c0.4,0,0.7,0.3,0.7,0.7v129.5c0,0.4-0.3,0.7-0.7,0.7H89.4
	c-1.1,0-2,0.9-2,2s0.9,2,2,2h10.8c2.6,0,4.8-2.1,4.8-4.8l0,0V4.8C105,2.1,102.9,0,100.2,0z M66.2,122.6v-21.5c0-0.4,0.3-0.7,0.7-0.7
	l0,0h21.5L66.2,122.6z"/>
<path class="st0" d="M44.1,7.8L44.1,7.8c-1.1,0-2,0.9-2,2s0.9,2,2,2l0,0c1.1,0,2-0.9,2-2S45.2,7.8,44.1,7.8z"/>
<path class="st0" d="M60.9,11.8L60.9,11.8c1.1,0,2-0.9,2-2s-0.9-2-2-2l0,0c-1.1,0-2,0.9-2,2S59.8,11.8,60.9,11.8z"/>
<path class="st0" d="M21.2,64c0,1.1,0.9,2,2,2h9.5c1.1,0,2-0.9,2-2s-0.9-2-2-2h-9.5c-1.1,0-2,0.9-2,2C21.2,63.9,21.2,64,21.2,64z"/>
<path class="st0" d="M23.2,83.1h23.1c1.1,0,2-0.9,2-2c0-1.1-0.9-2-2-2H23.2c-1.1,0-2,0.9-2,2C21.2,82.1,22.1,83.1,23.2,83.1z"/>
<path class="st0" d="M23.2,91.6h19c1.1,0,2-0.9,2-2s-0.9-2-2-2h-19c-1.1,0-2,0.9-2,2S22.1,91.6,23.2,91.6z"/>
<path class="st0" d="M81.8,62h-9.5c-1.1,0-2,0.9-2,2c0,1.1,0.9,2,2,2h9.5c1.1,0,2-0.9,2-2C83.8,62.9,82.9,62,81.8,62z"/>
<path class="st0" d="M56.6,81c0,1.1,0.9,2,2,2h23.1c1.1,0,2-0.9,2-2c0-1.1-0.9-2-2-2H58.7C57.6,78.9,56.7,79.8,56.6,81L56.6,81z"/>
<path class="st0" d="M81.8,87.5h-19c-1.1,0-2,0.9-2,2s0.9,2,2,2h19c1.1,0,2-0.9,2-2S82.9,87.5,81.8,87.5z"/>
<path class="st0" d="M22.1,113.2c0.3,0.1,0.5,0.2,0.8,0.2c0.8,0,1.5-0.5,1.9-1.2c1.2-2.7,3.8-6.7,5.9-7.1c0.7-0.1,1.4,0.1,1.8,0.7
	c3.9,3.5,7.4,1.2,9.8-0.3c2.6-1.7,4-2.5,6.3-0.8c0.9,0.7,2.2,0.5,2.8-0.4s0.5-2.2-0.4-2.8l0,0c-4.7-3.4-8.4-1-10.9,0.7
	s-3.4,2-4.8,0.7c-1.4-1.4-3.4-2.1-5.4-1.7c-5,1.1-8.4,8.6-8.8,9.5C20.6,111.5,21,112.7,22.1,113.2C22,113.1,22,113.2,22.1,113.2
	L22.1,113.2z"/>
<path class="st0" d="M23.3,70.2c-1.1,0-2,0.9-2,2c0,1.1,0.9,2,2,2l0,0c1.1,0,2-0.9,2-2C25.3,71.1,24.4,70.2,23.3,70.2z"/>
<path class="st0" d="M29.1,70.2c-1.1,0-2,0.9-2,2c0,1.1,0.9,2,2,2l0,0c1.1,0,2-0.9,2-2C31.2,71.1,30.3,70.2,29.1,70.2z"/>
<path class="st0" d="M75.8,70.2c-1.1,0-2,0.9-2,2c0,1.1,0.9,2,2,2l0,0c1.1,0,2-0.9,2-2C77.9,71.1,76.9,70.2,75.8,70.2z"/>
<path class="st0" d="M81.7,70.2L81.7,70.2c-1.1,0-2,0.9-2,2c0,1.1,0.9,2,2,2l0,0c1.1,0,2-0.9,2-2C83.8,71.1,82.8,70.2,81.7,70.2z"/>
<path class="st1" d="M35.6,42.5c0,9.4,7.6,16.9,16.9,16.9s16.9-7.6,16.9-16.9s-7.6-16.9-16.9-16.9c0,0,0,0,0,0
	C43.2,25.6,35.6,33.2,35.6,42.5z M66.4,42.5c0,7.7-6.2,13.9-13.8,13.9s-13.9-6.2-13.9-13.8s6.2-13.9,13.8-13.9c0,0,0,0,0,0
	C60.1,28.7,66.3,34.9,66.4,42.5z"/>
<path class="st1" d="M50.7,33.3v1.8c-2.4,0.8-3.7,3.4-2.9,5.8c0.6,1.9,2.4,3.2,4.5,3.2c0.9,0,1.5,0.7,1.5,1.5s-0.7,1.5-1.5,1.5l0,0
	c-0.8-0.1-1.5-0.5-2-1.2c-0.6-0.7-1.5-0.7-2.2-0.2s-0.7,1.5-0.2,2.2c0.7,0.9,1.7,1.6,2.8,2v1.8c0,0.9,0.7,1.5,1.5,1.5
	s1.5-0.7,1.5-1.5V50c2.4-0.8,3.7-3.4,2.9-5.8C56,42.2,54.2,41,52.2,41c-0.9,0-1.5-0.7-1.5-1.5s0.7-1.5,1.5-1.5
	c0.6,0,1.2,0.3,1.7,0.8c0.6,0.6,1.6,0.6,2.2,0c0.6-0.6,0.6-1.6,0-2.2c-0.6-0.6-1.4-1.1-2.3-1.4v-1.8c0-0.9-0.7-1.5-1.5-1.5
	C51.3,31.8,50.7,32.5,50.7,33.3L50.7,33.3z"/>
</svg>
