<?xml version="1.0" encoding="utf-8"?>
<!-- Generator: Adobe Illustrator 22.0.0, SVG Export Plug-In . SVG Version: 6.00 Build 0)  -->
<svg version="1.0" id="Capa_1" xmlns="http://www.w3.org/2000/svg" xmlns:xlink="http://www.w3.org/1999/xlink" x="0px" y="0px"
	 viewBox="0 0 348 27" style="enable-background:new 0 0 348 27;" xml:space="preserve">
<style type="text/css">
	.st0{fill:#FFFFFF;}
</style>
<g>
	<path class="st0" d="M3.5,17.2v8.2H0.9V3.1h8.6c4.7,0,8.1,3,8.1,7.1c0,4.1-3.4,7.1-8.1,7.1H3.5z M3.5,5.4v9.4h5.7
		c3.4,0,5.8-2,5.8-4.7c0-2.8-2.4-4.7-5.8-4.7H3.5z"/>
	<path class="st0" d="M33.2,2.3c7,0,12,5,12,12s-5,11.9-12,11.9c-7,0-12-4.9-12-11.9S26.2,2.3,33.2,2.3 M33.2,23.8
		c5.5,0,9.4-4,9.4-9.6c0-5.6-3.9-9.6-9.4-9.6c-5.4,0-9.4,4-9.4,9.6C23.8,19.8,27.8,23.8,33.2,23.8"/>
	<polygon class="st0" points="61.5,3.1 65.4,3.1 70.4,23.6 76.2,3.1 78.9,3.1 72.6,25.4 68.3,25.4 63.4,5.8 58.4,25.4 54.2,25.4 
		47.8,3.1 50.6,3.1 56.3,23.6 	"/>
	<polygon class="st0" points="97.4,14.9 86,14.9 86,23 99,23 99,25.4 83.4,25.4 83.4,3.1 98.6,3.1 98.6,5.4 86,5.4 86,12.7 
		97.4,12.7 	"/>
	<path class="st0" d="M106.5,16.6v8.7h-2.6V3.1h9.8c4.7,0,8.1,2.8,8.1,6.9c0,3-2.3,5.6-5.5,6.3l5.7,9.1h-3.1l-5.3-8.7H106.5z
		 M106.5,5.4v8.9h7c3.3,0,5.6-1.8,5.6-4.4c0-2.8-2.3-4.5-5.6-4.5H106.5z"/>
	<polygon class="st0" points="140.9,14.9 129.5,14.9 129.5,23 142.5,23 142.5,25.4 126.9,25.4 126.9,3.1 142.2,3.1 142.2,5.4 
		129.5,5.4 129.5,12.7 140.9,12.7 	"/>
	<path class="st0" d="M147.4,25.4V3.1h6.8c7.8,0,13,4.5,13,11.2c0,6.7-5.2,11.1-13,11.1H147.4z M154.2,5.4H150V23h4.2
		c6.2,0,10.4-3.4,10.4-8.8C164.5,8.8,160.4,5.4,154.2,5.4"/>
	<path class="st0" d="M181.8,25.4V3.1h9.4c4,0,7,2.5,7,6c0,2.3-1.5,4.2-3.6,4.8c2.5,0.6,4.2,2.8,4.2,5.3c0,3.6-3.2,6.2-7.7,6.2
		H181.8z M184.4,5.4v7.3h6.5c2.7,0,4.7-1.5,4.7-3.6c0-2.1-1.9-3.7-4.7-3.7H184.4z M184.4,15.1v8h6.4c3.1,0,5.4-1.7,5.4-4
		c0-2.3-2.2-4-5.4-4H184.4z"/>
	<polygon class="st0" points="210.8,25.4 208.1,25.4 208.1,17.1 200.1,3.1 203,3.1 209.4,14.5 215.8,3.1 218.8,3.1 210.8,17.1 	"/>
	<path class="st0" d="M292.5,25h-1.8V2.8c0-0.7,0.5-1.2,1.2-1.2h0.6V25z"/>
	<path class="st0" d="M310,8.3h0.6c0.7,0,1.2,0.5,1.2,1.2V25H310v-3.6c-1.3,2.6-3.9,4.3-7.1,4.3c-5,0-8.6-3.8-8.6-9
		c0-5.2,3.6-9,8.6-9c3.2,0,5.8,1.7,7.1,4.3V8.3z M310,16.7c0-4.2-3-7.3-7-7.3c-4.1,0-7,3.1-7,7.3c0,4.2,2.9,7.3,7,7.3
		C307,24,310,20.9,310,16.7"/>
	<path class="st0" d="M316.7,1.6v10.3c1.3-2.6,3.9-4.2,7.1-4.2c5,0,8.6,3.8,8.6,9c0,5.2-3.7,9-8.6,9c-3.2,0-5.8-1.7-7.1-4.2V25h-1.8
		V2.8c0-0.7,0.5-1.2,1.2-1.2H316.7z M323.6,9.4c-4.1,0-7,3.1-7,7.2c0,4.2,2.9,7.2,7,7.2c4,0,7-3,7-7.2
		C330.6,12.5,327.6,9.4,323.6,9.4"/>
	<path class="st0" d="M333.2,19.6h1.8c0,2.6,2.3,4.4,5.4,4.4c2.9,0,4.9-1.5,4.9-3.4c0-4.7-11.7-1.7-11.7-7.9c0-2.9,2.7-5,6.2-5
		c4,0,6.8,2.4,6.8,5.6l-1.8,0c0-2.3-2.1-3.9-5-3.9c-2.5,0-4.5,1.4-4.5,3.2c0,4.5,11.7,1.7,11.7,7.8c0,3-2.8,5.2-6.7,5.2
		C336.2,25.7,333.2,23.1,333.2,19.6"/>
	<path class="st0" d="M235.9,25h-5.5V4.8c0-1.8,1.4-3.2,3.2-3.2h2.3V25z"/>
	<path class="st0" d="M276.2,21l5.2-17c0.4-1.3,1.7-2.3,3.1-2.3h3.4L280.4,25H272l-7.5-23.4h3.4c1.4,0,2.6,0.9,3,2.2L276.2,21z"/>
	<path class="st0" d="M251.7,0.8c-7.7,0-12.9,5.1-12.9,12.5c0,7.4,5.2,12.5,12.9,12.5c7.6,0,12.9-5.1,12.9-12.5
		C264.6,6,259.3,0.8,251.7,0.8 M251.7,21.1c-4.4,0-7.4-3.2-7.4-7.8c0-1.4,0.3-2.7,0.9-3.8l0,0c0,0,0,0,0-0.1c0,0,0,0,0-0.1
		c0,0,0.1-0.1,0.1-0.2c0,0,0-0.1,0.1-0.1c0-0.1,0.1-0.1,0.1-0.2c0.6-0.9,2-2.6,4.5-3l0.1,0c0,0,0.1,0,0.1,0c0.8-0.1,3.2-0.1,4.3,1.7
		c0,0,0,0,0,0.1c0.1,0.1,0.1,0.2,0.1,0.3c0,0,0,0.1,0.1,0.1c1.3,2.8-0.1,6.9-1.8,8.5c0,0,5.2-3,5-7.6c0.7,1.2,1.1,2.7,1.1,4.3
		C259.1,17.9,256.1,21.1,251.7,21.1"/>
</g>
</svg>
