<svg xmlns="http://www.w3.org/2000/svg" viewBox="0 0 141.61 126.91"><defs><style>.a{fill:#fff;stroke:#00b520;stroke-miterlimit:10;}</style></defs><title>Recurso 10</title><path class="a" d="M108,53.43a.25.25,0,0,1,0-.08,2.7,2.7,0,0,0-.08-.39h0a2.42,2.42,0,0,0-.12-.35,1,1,0,0,1,0-.1c0-.08-.08-.16-.13-.24a.54.54,0,0,0,0-.11s0,0,0-.06a1.37,1.37,0,0,0-.15-.21s0,0,0,0a3.58,3.58,0,0,0-.26-.29s0,0,0-.05l-.25-.21-.06,0a2.64,2.64,0,0,0-.35-.23L59.51,24.38l27-17L131.73,33.1l-19,12a3.18,3.18,0,1,0,3.39,5.38l23.55-14.83a3.18,3.18,0,0,0-.12-5.45L88,.92A3.16,3.16,0,0,0,84.72,1L51.65,21.81l0,0L35.1,32.23l0,0L2,53.08a3.18,3.18,0,0,0,.12,5.46L53.62,87.82a3.16,3.16,0,0,0,1.57.42,3.25,3.25,0,0,0,1.7-.49L80.44,72.92a3.18,3.18,0,0,0-3.39-5.38L55.11,81.35,9.87,55.64l27-17L85.1,66.07v36.32a3.18,3.18,0,0,0,1.65,2.79,3.23,3.23,0,0,0,1.54.39,3.13,3.13,0,0,0,1.69-.49l16.55-10.42A3.17,3.17,0,0,0,108,92V53.74C108,53.64,108,53.53,108,53.43ZM91.47,96.63V64.22a3.2,3.2,0,0,0-1.61-2.77L43,34.8,53.4,28.23,98.64,53.94l-4,2.49a3.18,3.18,0,1,0,3.39,5.39l3.58-2.26V90.22Z"/><path class="a" d="M136.23,43,112.68,57.82a3.18,3.18,0,1,0,3.39,5.39l23.55-14.83A3.18,3.18,0,1,0,136.23,43Z"/><path class="a" d="M77.05,80.26,55.11,94.07,5.25,65.73a3.18,3.18,0,0,0-3.14,5.54l51.51,29.28a3.26,3.26,0,0,0,1.57.41,3.16,3.16,0,0,0,1.7-.49L80.44,85.64a3.18,3.18,0,0,0-3.39-5.38Z"/><path class="a" d="M136.23,55.72,112.68,70.55a3.18,3.18,0,1,0,3.39,5.38L139.62,61.1a3.18,3.18,0,1,0-3.39-5.38Z"/><path class="a" d="M77.05,93,55.11,106.8,5.25,78.46A3.18,3.18,0,0,0,2.11,84l51.51,29.28a3.16,3.16,0,0,0,1.57.42,3.25,3.25,0,0,0,1.7-.49L80.44,98.37A3.18,3.18,0,0,0,77.05,93Z"/><path class="a" d="M136.23,68.44,112.68,83.27a3.18,3.18,0,0,0,1.7,5.87,3.09,3.09,0,0,0,1.69-.49l23.55-14.82a3.18,3.18,0,1,0-3.39-5.39Z"/><path class="a" d="M77.05,105.71,55.11,119.52,5.25,91.18a3.18,3.18,0,0,0-3.14,5.53L53.62,126a3.17,3.17,0,0,0,3.27-.07l23.55-14.83a3.18,3.18,0,0,0-3.39-5.38Z"/></svg>