<?xml version="1.0" encoding="utf-8"?>
<!-- Generator: Adobe Illustrator 22.0.0, SVG Export Plug-In . SVG Version: 6.00 Build 0)  -->
<svg version="1.1" id="Capa_1" xmlns="http://www.w3.org/2000/svg" xmlns:xlink="http://www.w3.org/1999/xlink" x="0px" y="0px"
	 viewBox="0 0 111 116.1" style="enable-background:new 0 0 111 116.1;" xml:space="preserve">
<style type="text/css">
	.st0{fill:#00B900;}
</style>
<path class="st0" d="M98.3,28.2H77.1v-2.9c0-4.2-3.7-7.2-7.9-7.2H44.6c-4.3,0-8.1,3-8.1,7.2v2.9H12.2c-2.3,0-3.7,2.2-3.7,4.3v16.5
	c0,3,1.3,5.8,2.5,8v34.8c0,3.4,2.8,6.1,6.2,6.1h76.1c3.3,0,6.6-2.7,6.6-6.1V57.1c1.3-2.2,2.5-5,2.5-8V32.6
	C102.5,30.4,100.5,28.2,98.3,28.2z M66.9,60.4v1.3v3.4h-3.8h-1.3h-1.3h-7.8h-1.3h-1.3h-3.7v-3.4v-1.3v-1.3v-2.9h6.5h7.2h6.6v2.9
	V60.4z M53,67.6h7.6v3.3c0,0.5-0.5,0.5-1,0.5h-5.7c-0.5,0-0.9,0.1-0.9-0.5V67.6z M96.9,55.9c-1.8,1.9-4.3,2.8-7.1,2.8H69.5v-3.8
	c0-0.6-0.8-1.3-1.4-1.3H45.2c-0.6,0-1.1,0.6-1.1,1.3v3.8H20.7c-2.8,0-5.3-0.9-7.1-2.8c-1.1-1.1-1.9-2.5-2.4-4.3
	c-0.3-0.9-0.3-1.7-0.3-2.5V32.6c0-0.9,0.4-1.8,1.1-1.8h86.2c0.8,0,1.7,1,1.7,1.8v16.5c0,0.9-0.3,1.5-0.4,2.3
	C99.1,53.3,98.2,54.7,96.9,55.9z M39,25.3c0-2.8,2.7-4.7,5.6-4.7h24.7c2.8,0,5.3,1.9,5.3,4.7v2.9H39V25.3z M97.4,92
	c0,2-2.2,3.6-4.1,3.6H17.3c-1.9,0-3.7-1.5-3.7-3.6V59.5c2.5,1.4,4.6,1.8,7.1,1.8h23.4V66c0,0.6,0.5,1.7,1.1,1.7h5.2v3.3
	c0,1.9,1.4,3,3.4,3h5.7c1.9,0,3.6-1,3.6-3v-3.3h5c0.8,0,1.4-1,1.4-1.7v-4.7h20.3c2.7,0,5.1-0.4,7.6-1.9V92z"/>
</svg>
