<svg xmlns="http://www.w3.org/2000/svg" viewBox="0 0 139.7 139.74"><defs><style>.a,.b,.c{fill:#00b520;}.a,.b{stroke:#00b520;stroke-miterlimit:10;}.a{stroke-width:0.75px;}.b{stroke-width:1.68px;}.c{font-size:38px;}</style></defs><title>sbc-icon</title><path class="a" d="M125.56,75a55.44,55.44,0,0,1-19.91,37.89,55.95,55.95,0,0,1-71.59,0,2.4,2.4,0,0,1-.85-1.64,2.26,2.26,0,0,1,.56-1.76,2.41,2.41,0,0,1,3.4-.32,51.14,51.14,0,1,0-6.56-6.57A2.44,2.44,0,0,1,30.3,106a2.54,2.54,0,0,1-1.77.56,2.51,2.51,0,0,1-1.65-.87A55.93,55.93,0,1,1,125.56,75Z"/><path class="b" d="M57.92,1.62A57,57,0,0,1,63.87.84C61.88,1,59.89,1.26,57.92,1.62Z"/><path class="b" d="M81.85,1.62c-2-.36-4-.6-5.95-.78A56.63,56.63,0,0,1,81.85,1.62Z"/><path class="b" d="M75.9.84c2,.18,4,.42,5.95.78A56.63,56.63,0,0,0,75.9.84Zm-12,0a57,57,0,0,0-5.95.78C59.89,1.26,61.88,1,63.87.84Z"/><path class="a" d="M115.16,17.19a69.46,69.46,0,0,0-90.54,0l-.2.17a2.47,2.47,0,0,0-.76,1.73,2.42,2.42,0,0,0,.69,1.74,2.44,2.44,0,0,0,1.7.76h.07a2.38,2.38,0,0,0,1.68-.69,64.2,64.2,0,0,1,84.14,0,2.33,2.33,0,0,0,1.58.6h0a2.44,2.44,0,0,0,1.83-.85,2.49,2.49,0,0,0,.61-1.79A2.54,2.54,0,0,0,115.16,17.19ZM81.85,1.62c-2-.36-4-.6-5.95-.78A56.63,56.63,0,0,1,81.85,1.62Zm-18-.78c-2,.18-4,.42-5.95.78A57,57,0,0,1,63.87.84Z"/><path class="a" d="M115,122.71a69.59,69.59,0,0,1-45.13,16.66h0A69.47,69.47,0,0,1,17.15,24.63a2.46,2.46,0,0,1,1.72-.78h.07a2.49,2.49,0,0,1,1.68.67,2.42,2.42,0,0,1,.26,3.29,64.57,64.57,0,1,0,98.08.13,2.46,2.46,0,0,1,.27-3.46A2.39,2.39,0,0,1,121,23.9a2.47,2.47,0,0,1,1.67.85A69.56,69.56,0,0,1,115,122.71Z"/><text class="c" transform="translate(35.26 82.99)">SBC</text></svg>