<?xml version="1.0" encoding="utf-8"?>
<!-- Generator: Adobe Illustrator 22.0.0, SVG Export Plug-In . SVG Version: 6.00 Build 0)  -->
<svg version="1.1" id="Capa_1" xmlns="http://www.w3.org/2000/svg" xmlns:xlink="http://www.w3.org/1999/xlink" x="0px" y="0px"
	 viewBox="0 0 1118 260" style="enable-background:new 0 0 1118 260;" xml:space="preserve">
<style type="text/css">
	.st0{fill:none;stroke:#000000;stroke-width:3;stroke-linecap:round;stroke-miterlimit:10;}
	.st1{fill:none;stroke:#000000;stroke-width:3;stroke-linecap:round;stroke-linejoin:round;stroke-miterlimit:10;}
	.st2{fill:#00B520;stroke:#00B520;stroke-width:0.75;stroke-miterlimit:10;}
	.st3{fill:#00B520;stroke:#00B520;stroke-width:1.6774;stroke-miterlimit:10;}
	.st4{fill:#00B520;}
	.st5{font-size:38px;}
	.st6{fill:#3C3C3B;}
	.st7{font-family:'Objective-Regular';}
	.st8{font-size:24px;}
	.st9{font-family:'Objective-Light';}
	.st10{font-size:28px;}
	.st11{fill:#00B520;stroke:#FFFFFF;stroke-width:0.6762;stroke-miterlimit:10;}
</style>
<g>
	<g>
		<line class="st0" x1="190.5" y1="76" x2="439.3" y2="76"/>
		<polyline class="st1" points="425.6,58.3 443.3,76 425.6,93.7 		"/>
	</g>
	<g>
		<line class="st0" x1="658.1" y1="76" x2="907" y2="76"/>
		<polyline class="st1" points="893.2,58.3 910.9,76 893.2,93.7 		"/>
	</g>
	<g>
		<g>
			<g>
				<g>
					<g>
						<path class="st2" d="M130.7,81.5c-1.3,14.9-8.4,28.3-19.9,37.9c-10,8.3-22.7,12.9-35.8,12.9s-25.8-4.6-35.8-12.9
							c-0.5-0.4-0.8-1-0.8-1.6c-0.1-0.6,0.1-1.3,0.6-1.8c0.8-1,2.4-1.2,3.4-0.3c10.5,8.7,23.8,12.9,37.4,11.6
							c13.6-1.2,25.9-7.7,34.6-18.2c8.7-10.5,12.9-23.8,11.6-37.4c-1.2-13.6-7.7-25.9-18.2-34.6C97.2,28.4,84,24.3,70.4,25.5
							c-13.6,1.2-25.9,7.7-34.6,18.2C20,62.6,20,90.2,35.7,109.1c0.9,1,0.7,2.6-0.3,3.4c-0.5,0.4-1.1,0.6-1.8,0.6
							c-0.6-0.1-1.2-0.4-1.7-0.9c-9.6-11.5-14.1-26-12.7-40.9c1.4-14.9,8.4-28.3,19.9-37.9c11.5-9.6,26-14.1,40.9-12.7
							c14.9,1.4,28.3,8.4,37.9,19.9C127.5,52.1,132.1,66.6,130.7,81.5z"/>
					</g>
					<g>
						<path class="st3" d="M63.1,8.1c2-0.4,4-0.6,5.9-0.8C67,7.5,65,7.8,63.1,8.1z"/>
						<path class="st3" d="M87,8.1c-2-0.4-4-0.6-5.9-0.8C83,7.5,85,7.8,87,8.1z"/>
						<path class="st3" d="M81,7.4c2,0.2,4,0.4,5.9,0.8C85,7.8,83,7.5,81,7.4z M69,7.4c-2,0.2-4,0.4-5.9,0.8C65,7.8,67,7.5,69,7.4z"
							/>
						<path class="st2" d="M120.3,23.7C107.7,12.9,91.6,6.9,75,6.9s-32.7,6-45.3,16.8c-0.1,0.1-0.1,0.1-0.2,0.2
							c-0.5,0.4-0.7,1.1-0.8,1.7c0,0.6,0.2,1.3,0.7,1.7c0.4,0.5,1.1,0.7,1.7,0.8h0.1c0.6,0,1.2-0.2,1.7-0.7
							c24.4-20.9,59.8-20.9,84.1,0c0.4,0.4,1,0.6,1.6,0.6c0,0,0,0,0,0c0.7,0,1.4-0.3,1.8-0.8c0.4-0.5,0.6-1.1,0.6-1.8
							C121.1,24.7,120.8,24.1,120.3,23.7z M87,8.1c-2-0.4-4-0.6-5.9-0.8C83,7.5,85,7.8,87,8.1z M69,7.4c-2,0.2-4,0.4-5.9,0.8
							C65,7.8,67,7.5,69,7.4z"/>
					</g>
					<g>
						<path class="st2" d="M120.2,129.2C107.6,140,91.5,145.9,75,145.9c0,0,0,0,0,0c-18.6,0-36-7.2-49.1-20.4
							C12.8,112.4,5.5,95,5.5,76.4c0-16.6,6-32.7,16.8-45.3c0.5-0.5,1.1-0.8,1.7-0.8h0.1c0.6,0,1.2,0.2,1.7,0.7
							c0.9,0.9,1.1,2.3,0.3,3.3c-23.2,27-20.1,67.9,6.9,91.1c13.1,11.2,29.8,16.7,47,15.4c17.2-1.3,32.9-9.2,44.1-22.3
							c20.9-24.3,20.9-59.6,0.1-84c-0.9-1-0.8-2.6,0.3-3.5c0.5-0.4,1.1-0.6,1.8-0.6c0.6,0.1,1.3,0.4,1.7,0.8
							C152.7,60.4,149.3,104.3,120.2,129.2z"/>
					</g>
				</g>
				<text transform="matrix(1 0 0 1 40.9385 89.5042)" class="st4 st5">U$S</text>
			</g>
		</g>
		<text transform="matrix(1 0 0 1 22.8665 204.3242)"><tspan x="0" y="0" class="st6 st7 st8">U$S 100</tspan><tspan x="-22.5" y="44" class="st9 st10">Stablecoin</tspan></text>
	</g>
	<g>
		<g>
			<path class="st11" d="M616,40.6c0,31.8,0,63.7,0,95.5c-0.1,0.4-0.2,0.7-0.3,1.1c-1.4,6.6-6.8,11.4-13.1,11.4
				c-28.7,0-57.5,0-86.2,0c-7.4,0-13.4-6.4-13.4-14.2c0-38.9,0-77.8,0-116.7c0-6.2,4-11.8,9.6-13.6c0.7-0.2,1.5-0.4,2.2-0.6
				c22,0,44.1,0,66.1,0c0.7,0.7,1.5,1.3,2.2,2c10.3,10.9,20.7,21.9,31,32.8C614.8,39,615.4,39.8,616,40.6z M610.4,44.5
				c-0.6,0-1.1,0-1.6,0c-5.7,0-11.4,0-17.1,0c-8.7,0-14.4-6.1-14.4-15.3c0-6.1,0-12.2,0-18.3c0-0.5,0-1-0.1-1.6c-0.6,0-1,0-1.5,0
				c-19.4,0-38.8,0-58.2,0c-5.7,0-8.9,3.4-8.9,9.4c0,38.1,0,76.2,0,114.4c0,6.1,3.2,9.5,8.9,9.5c28,0,56,0,83.9,0
				c5.8,0,8.9-3.4,8.9-9.5c0-29,0-58,0-87C610.4,45.7,610.4,45.2,610.4,44.5z M582.8,13.9c0,0.5,0,0.8,0,1.2c0,4.8,0,9.6,0,14.4
				c0,5.5,3.4,9.1,8.5,9.1c4.5,0,9.1,0,13.6,0c0.4,0,0.7-0.1,1.1-0.1C598.4,30.3,590.7,22.2,582.8,13.9z"/>
			<path class="st11" d="M559.4,81.9c-10.5,0-21.1,0-31.6,0c-2,0-3.2-0.9-3.4-2.5c-0.2-1.7,0.8-3.2,2.4-3.4c0.3,0,0.6,0,0.9,0
				c21.1,0,42.3,0,63.4,0c2,0,3.2,0.9,3.4,2.5c0.3,1.9-1,3.4-3,3.4c-3.7,0-7.4,0-11.1,0C573.4,81.9,566.4,81.9,559.4,81.9z"/>
			<path class="st11" d="M559.6,89.6c10.6,0,21.1,0,31.7,0c2,0,3.2,1,3.3,2.7c0.1,1.5-0.8,2.8-2.2,3.1c-0.6,0.1-1.2,0.1-1.7,0.1
				c-20.8,0-41.6,0-62.4,0c-0.7,0-1.3,0-2-0.2c-1.3-0.3-2-1.6-2-3c0.1-1.4,1-2.5,2.3-2.7c0.5-0.1,1.1-0.1,1.6-0.1
				C538.7,89.6,549.2,89.6,559.6,89.6z"/>
			<path class="st11" d="M559.4,68.4c-10.6,0-21.1,0-31.7,0c-1.9,0-3.1-0.9-3.2-2.6c-0.2-1.6,0.8-3,2.3-3.3c0.5-0.1,1-0.1,1.5-0.1
				c20.9,0,41.8,0,62.6,0c0.7,0,1.4,0,2,0.2c1.3,0.4,1.9,1.7,1.8,3.1c-0.1,1.4-1.1,2.4-2.5,2.6c-0.4,0-0.9,0-1.3,0
				C580.3,68.4,569.8,68.4,559.4,68.4z"/>
			<path class="st11" d="M540.6,109c-4.4,0-8.7,0-13.1,0c-1.6,0-2.7-0.7-3.1-2c-0.5-1.8,0.5-3.5,2.2-3.8c0.5-0.1,1.1-0.1,1.6-0.1
				c8.3,0,16.6,0,24.9,0c0.5,0,1.1,0,1.6,0.1c1.4,0.3,2.4,1.5,2.3,3c-0.1,1.5-1.1,2.7-2.5,2.8c-1.7,0.1-3.5,0.1-5.2,0.1
				C546.4,109,543.5,109,540.6,109z"/>
			<path class="st11" d="M564,109c-1.3,0.1-2.5-0.2-3-1.5c-0.3-0.9-0.3-2.1,0.1-2.9c1-2.1,4.9-2.1,5.9,0c0.4,0.8,0.4,2,0.1,2.9
				C566.5,108.8,565.2,109.1,564,109z"/>
		</g>
		<g>
			<text transform="matrix(1 0 0 1 449.8479 217.4443)"><tspan x="0" y="0" class="st6 st7 st8">Haz el settlement </tspan><tspan x="-43.2" y="32" class="st6 st7 st8">enviando tus Stablecoins</tspan></text>
		</g>
	</g>
	<g>
		<g>
			<g>
				<g>
					<g>
						<path class="st2" d="M1079.7,87c-1.3,14.9-8.4,28.3-19.9,37.9c-10,8.3-22.7,12.9-35.8,12.9s-25.8-4.6-35.8-12.9
							c-0.5-0.4-0.8-1-0.8-1.6c-0.1-0.6,0.1-1.3,0.6-1.8c0.8-1,2.4-1.2,3.4-0.3c10.5,8.7,23.8,12.9,37.4,11.6
							c13.6-1.2,25.9-7.7,34.6-18.2c8.7-10.5,12.9-23.8,11.6-37.4c-1.2-13.6-7.7-25.9-18.2-34.6c-10.5-8.7-23.8-12.9-37.4-11.6
							c-13.6,1.2-25.9,7.7-34.6,18.2c-15.8,18.9-15.8,46.5,0,65.4c0.9,1,0.7,2.6-0.3,3.4c-0.5,0.4-1.1,0.6-1.8,0.6
							c-0.6-0.1-1.2-0.4-1.7-0.9c-9.6-11.5-14.1-26-12.7-40.9c1.4-14.9,8.4-28.3,19.9-37.9c11.5-9.6,26-14.1,40.9-12.7
							c14.9,1.4,28.3,8.4,37.9,19.9C1076.5,57.6,1081,72.1,1079.7,87z"/>
					</g>
					<g>
						<path class="st3" d="M1012.1,13.7c2-0.4,4-0.6,5.9-0.8C1016,13.1,1014,13.3,1012.1,13.7z"/>
						<path class="st3" d="M1036,13.7c-2-0.4-4-0.6-5.9-0.8C1032,13.1,1034,13.3,1036,13.7z"/>
						<path class="st3" d="M1030,12.9c2,0.2,4,0.4,5.9,0.8C1034,13.3,1032,13.1,1030,12.9z M1018,12.9c-2,0.2-4,0.4-5.9,0.8
							C1014,13.3,1016,13.1,1018,12.9z"/>
						<path class="st2" d="M1069.3,29.3c-12.6-10.8-28.7-16.8-45.3-16.8c-16.6,0-32.7,6-45.3,16.8c-0.1,0.1-0.1,0.1-0.2,0.2
							c-0.5,0.4-0.7,1.1-0.8,1.7c0,0.6,0.2,1.3,0.7,1.7c0.4,0.5,1.1,0.7,1.7,0.8h0.1c0.6,0,1.2-0.2,1.7-0.7
							c24.4-20.9,59.8-20.9,84.1,0c0.4,0.4,1,0.6,1.6,0.6c0,0,0,0,0,0c0.7,0,1.4-0.3,1.8-0.8c0.4-0.5,0.6-1.1,0.6-1.8
							C1070.1,30.3,1069.8,29.7,1069.3,29.3z M1036,13.7c-2-0.4-4-0.6-5.9-0.8C1032,13.1,1034,13.3,1036,13.7z M1018,12.9
							c-2,0.2-4,0.4-5.9,0.8C1014,13.3,1016,13.1,1018,12.9z"/>
					</g>
					<g>
						<path class="st2" d="M1069.2,134.8c-12.6,10.7-28.6,16.7-45.1,16.7c0,0,0,0,0,0c-18.6,0-36-7.2-49.1-20.4
							c-13.1-13.1-20.3-30.6-20.4-49.1c0-16.6,6-32.7,16.8-45.3c0.5-0.5,1.1-0.8,1.7-0.8h0.1c0.6,0,1.2,0.2,1.7,0.7
							c0.9,0.9,1.1,2.3,0.3,3.3c-23.2,27-20.1,67.9,6.9,91.1c13.1,11.3,29.8,16.7,47,15.4c17.2-1.3,32.9-9.2,44.1-22.3
							c20.9-24.3,20.9-59.6,0.1-84c-0.9-1-0.8-2.6,0.3-3.5c0.5-0.4,1.1-0.6,1.8-0.6c0.6,0.1,1.3,0.4,1.7,0.8
							C1101.7,65.9,1098.3,109.9,1069.2,134.8z"/>
					</g>
				</g>
				<text transform="matrix(1 0 0 1 988.5879 95.0505)" class="st4 st5">BTC</text>
			</g>
		</g>
		<g>
			<text transform="matrix(1 0 0 1 930.3091 249.4443)" class="st6 st7 st8">Recibe tus BTC</text>
		</g>
	</g>
</g>
</svg>
