<svg width="104" height="36" viewBox="0 0 104 36" fill="none" xmlns="http://www.w3.org/2000/svg">
<g id="top_logo">
<g id="&#229;&#155;&#190;&#229;&#177;&#130; 2">
<g id="&#229;&#155;&#190;&#229;&#177;&#130; 2_2">
<path id="Vector" d="M72.3469 21.5168C72.3466 20.2689 71.972 19.0491 71.2705 18.0116C70.569 16.9741 69.5722 16.1656 68.406 15.6883C67.2397 15.2109 65.9566 15.0862 64.7187 15.3299C63.4808 15.5735 62.3437 16.1746 61.4513 17.0572C60.5589 17.9397 59.9513 19.0641 59.7051 20.288C59.459 21.512 59.5855 22.7807 60.0686 23.9336C60.5517 25.0865 61.3697 26.0719 62.4192 26.7652C63.4687 27.4585 64.7026 27.8285 65.9648 27.8285C66.803 27.8285 67.6331 27.6652 68.4075 27.348C69.1819 27.0308 69.8855 26.5659 70.4782 25.9797C71.0709 25.3936 71.5409 24.6978 71.8616 23.9321C72.1822 23.1663 72.3471 22.3456 72.3469 21.5168ZM103 21.5168C102.998 24.1883 102.053 26.7752 100.328 28.8315C98.6033 30.8878 96.2067 32.2846 93.5518 32.7809C90.8968 33.2772 88.1499 32.842 85.7847 31.5502C83.4196 30.2585 81.5845 28.1912 80.5959 25.705L85.0137 21.3371V21.5185C85.0174 22.9749 85.5316 24.3851 86.4686 25.5089C87.4056 26.6328 88.7076 27.4008 90.153 27.6823C91.5983 27.9638 93.0977 27.7414 94.3958 27.0529C95.6939 26.3644 96.7106 25.2524 97.2727 23.9061C97.8349 22.5599 97.9078 21.0626 97.479 19.6692C97.0503 18.2758 96.1464 17.0724 94.9211 16.2638C93.6959 15.4552 92.2251 15.0914 90.7591 15.2343C89.2931 15.3772 87.9225 16.0181 86.8806 17.0477L74.2155 29.5763C72.6006 31.1983 70.5337 32.3082 68.2784 32.7644C66.0231 33.2207 63.6815 33.0026 61.552 32.1381C59.4225 31.2736 57.6016 29.8017 56.3213 27.9101C55.0411 26.0185 54.3596 23.7928 54.3636 21.5168V5.42078C54.4045 4.76379 54.6974 4.14697 55.1824 3.69607C55.6675 3.24518 56.3082 2.99414 56.9739 2.99414C57.6397 2.99414 58.2804 3.24518 58.7654 3.69607C59.2505 4.14697 59.5433 4.76379 59.5843 5.42078V11.8582C61.1668 10.8283 62.9804 10.1972 64.8665 10.0199C66.7527 9.84269 68.654 10.1247 70.4044 10.8414C72.1549 11.5581 73.7013 12.6877 74.9085 14.1315C76.1156 15.5752 76.9469 17.2892 77.3297 19.1238L83.1914 13.33C84.8186 11.7204 86.8932 10.6258 89.1513 10.1852C91.4094 9.74456 93.7491 9.97793 95.8727 10.8556C97.9963 11.7333 99.8079 13.2156 101.077 15.114C102.346 17.0124 103.016 19.2412 103 21.5168ZM52.6255 21.5168C52.6307 24.1908 51.6901 26.7825 49.9665 28.8431C48.2429 30.9038 45.8449 32.3038 43.1875 32.8009C40.53 33.2979 37.7804 32.8606 35.4147 31.5648C33.0489 30.269 31.2158 28.1961 30.2327 25.705L34.6505 21.3371V21.5185C34.6542 22.9749 35.1684 24.3851 36.1054 25.5089C37.0424 26.6328 38.3444 27.4008 39.7897 27.6823C41.2351 27.9638 42.7344 27.7414 44.0325 27.0529C45.3307 26.3644 46.3473 25.2524 46.9095 23.9061C47.4716 22.5599 47.5446 21.0626 47.1158 19.6692C46.687 18.2758 45.7831 17.0724 44.5579 16.2638C43.3326 15.4552 41.8619 15.0914 40.3959 15.2343C38.9299 15.3772 37.5593 16.0181 36.5174 17.0477L23.8076 29.6253C22.1847 31.2292 20.1173 32.3213 17.8667 32.7636C15.6161 33.2058 13.2834 32.9784 11.1635 32.11C9.04364 31.2416 7.2318 29.7712 5.95706 27.8848C4.68233 25.9984 4.00195 23.7806 4.00195 21.5119C4.00195 19.2432 4.68233 17.0255 5.95706 15.139C7.2318 13.2526 9.04364 11.7823 11.1635 10.9139C13.2834 10.0455 15.6161 9.81801 17.8667 10.2603C20.1173 10.7025 22.1847 11.7947 23.8076 13.3986C24.05 13.6396 24.2419 13.9254 24.3725 14.2397C24.5031 14.5541 24.5699 14.8908 24.5689 15.2306C24.5679 15.5705 24.4992 15.9068 24.3667 16.2204C24.2343 16.534 24.0406 16.8187 23.7969 17.0583C23.5531 17.2979 23.264 17.4877 22.9461 17.6169C22.6281 17.746 22.2876 17.812 21.9439 17.811C21.6001 17.81 21.26 17.7421 20.9428 17.6111C20.6256 17.4801 20.3376 17.2887 20.0953 17.0477C19.2019 16.1673 18.0647 15.5684 16.8272 15.3265C15.5898 15.0847 14.3076 15.2109 13.1427 15.6891C11.9777 16.1673 10.9822 16.9761 10.2818 18.0133C9.58144 19.0505 9.20766 20.2697 9.20766 21.5168C9.20766 22.764 9.58144 23.9831 10.2818 25.0204C10.9822 26.0576 11.9777 26.8664 13.1427 27.3446C14.3076 27.8228 15.5898 27.9489 16.8272 27.7071C18.0647 27.4653 19.2019 26.8664 20.0953 25.986L32.8265 13.3659C34.4505 11.7569 36.5216 10.6615 38.7768 10.2192C41.0319 9.77684 43.3691 10.0074 45.4913 10.8816C47.6136 11.7559 49.425 13.2342 50.6953 15.1288C51.9657 17.0234 52.6375 19.2487 52.6255 21.5217V21.5168Z" fill="#3885FF"/>
</g>
</g>
</g>
</svg>
