<svg width="200" height="57" viewBox="0 0 200 57" fill="none" xmlns="http://www.w3.org/2000/svg">
<path d="M66.2237 28.948H66.9385C67.6855 28.948 68.2586 28.7783 68.6579 28.4389C69.0572 28.0994 69.2568 27.6115 69.2568 26.9751C69.2568 26.3387 69.0572 25.8507 68.6579 25.5113C68.2586 25.1719 67.6855 25.0022 66.9385 25.0022H66.2237V28.948ZM74.5502 37.7944H69.8364L66.2237 31.6422V37.7944H62.4371V21.7988H68.3295C69.1409 21.7988 69.8492 21.9332 70.4546 22.2019C71.0599 22.4564 71.5558 22.81 71.9421 23.2626C72.3414 23.7152 72.6376 24.2384 72.8308 24.8324C73.0369 25.4264 73.1399 26.0629 73.1399 26.7417C73.1399 27.958 72.8695 28.948 72.3285 29.7117C71.8005 30.4613 71.0148 30.9704 69.9716 31.2392L74.5502 37.7944Z" fill="white"/>
<path d="M77.6657 32.3211C77.6657 32.6747 77.7237 33.007 77.8396 33.3181C77.9555 33.6151 78.1101 33.8768 78.3033 34.1031C78.5093 34.3294 78.7476 34.5061 79.0181 34.6334C79.3014 34.7607 79.6041 34.8244 79.9261 34.8244C80.2352 34.8244 80.525 34.7607 80.7954 34.6334C81.0788 34.5061 81.317 34.3294 81.5102 34.1031C81.7163 33.8768 81.8773 33.6151 81.9932 33.3181C82.122 33.0211 82.1864 32.7029 82.1864 32.3635C82.1864 32.0241 82.122 31.7059 81.9932 31.4089C81.8773 31.0977 81.7163 30.829 81.5102 30.6027C81.317 30.3764 81.0788 30.1997 80.7954 30.0724C80.525 29.9451 80.2352 29.8814 79.9261 29.8814C79.6041 29.8814 79.3014 29.9451 79.0181 30.0724C78.7476 30.1997 78.5093 30.3764 78.3033 30.6027C78.1101 30.829 77.9555 31.0907 77.8396 31.3877C77.7237 31.6705 77.6657 31.9817 77.6657 32.3211ZM82.0705 26.9114H85.5866V37.7944H82.0705V36.5851C81.3235 37.6176 80.3125 38.1338 79.0374 38.1338C78.3161 38.1338 77.6529 37.9924 77.0475 37.7095C76.4422 37.4125 75.9141 37.0024 75.4634 36.4791C75.0126 35.9558 74.6584 35.3406 74.4008 34.6334C74.1561 33.9263 74.0337 33.1555 74.0337 32.3211C74.0337 31.5432 74.1561 30.8078 74.4008 30.1148C74.6455 29.4077 74.9868 28.7924 75.4247 28.2692C75.8626 27.7459 76.3842 27.3357 76.9896 27.0387C77.5949 26.7276 78.2646 26.572 78.9988 26.572C80.2352 26.572 81.2591 27.0458 82.0705 27.9934V26.9114Z" fill="white"/>
<path d="M94.7085 32.3847C94.7085 32.0453 94.6506 31.7271 94.5346 31.4301C94.4187 31.1189 94.2577 30.8502 94.0517 30.6239C93.8456 30.3977 93.6073 30.2209 93.3369 30.0936C93.0664 29.9522 92.7702 29.8814 92.4482 29.8814C92.1391 29.8814 91.8493 29.9451 91.5788 30.0724C91.3084 30.1997 91.0701 30.3764 90.864 30.6027C90.6708 30.829 90.5098 31.0977 90.381 31.4089C90.2651 31.7059 90.2072 32.0241 90.2072 32.3635C90.2072 32.7029 90.2651 33.0211 90.381 33.3181C90.497 33.6151 90.6579 33.8768 90.864 34.1031C91.0701 34.3152 91.3084 34.492 91.5788 34.6334C91.8622 34.7607 92.1584 34.8244 92.4675 34.8244C92.7766 34.8244 93.0664 34.7607 93.3369 34.6334C93.6073 34.5061 93.8392 34.3294 94.0324 34.1031C94.2384 33.8768 94.3994 33.6151 94.5153 33.3181C94.6441 33.0211 94.7085 32.71 94.7085 32.3847ZM90.3038 20.1865V27.9934C91.128 27.0458 92.1584 26.572 93.3948 26.572C94.1289 26.572 94.7987 26.7276 95.404 27.0387C96.0222 27.3357 96.5438 27.7459 96.9689 28.2692C97.4068 28.7783 97.7481 29.3864 97.9928 30.0936C98.2375 30.7866 98.3598 31.5291 98.3598 32.3211C98.3598 33.1272 98.231 33.8839 97.9735 34.591C97.7287 35.2981 97.381 35.9134 96.9302 36.4366C96.4794 36.9599 95.9449 37.3771 95.3267 37.6883C94.7214 37.9853 94.0646 38.1338 93.3562 38.1338C92.0682 38.1338 91.0508 37.6176 90.3038 36.5851V37.7944H86.807V20.1865H90.3038Z" fill="white"/>
<path d="M107.095 32.3847C107.095 32.0453 107.037 31.7271 106.922 31.4301C106.806 31.1189 106.645 30.8502 106.439 30.6239C106.232 30.3977 105.994 30.2209 105.724 30.0936C105.453 29.9522 105.157 29.8814 104.835 29.8814C104.526 29.8814 104.236 29.9451 103.966 30.0724C103.695 30.1997 103.457 30.3764 103.251 30.6027C103.058 30.829 102.897 31.0977 102.768 31.4089C102.652 31.7059 102.594 32.0241 102.594 32.3635C102.594 32.7029 102.652 33.0211 102.768 33.3181C102.884 33.6151 103.045 33.8768 103.251 34.1031C103.457 34.3152 103.695 34.492 103.966 34.6334C104.249 34.7607 104.545 34.8244 104.854 34.8244C105.163 34.8244 105.453 34.7607 105.724 34.6334C105.994 34.5061 106.226 34.3294 106.419 34.1031C106.625 33.8768 106.786 33.6151 106.902 33.3181C107.031 33.0211 107.095 32.71 107.095 32.3847ZM102.691 20.1865V27.9934C103.515 27.0458 104.545 26.572 105.782 26.572C106.516 26.572 107.186 26.7276 107.791 27.0387C108.409 27.3357 108.931 27.7459 109.356 28.2692C109.794 28.7783 110.135 29.3864 110.38 30.0936C110.624 30.7866 110.747 31.5291 110.747 32.3211C110.747 33.1272 110.618 33.8839 110.36 34.591C110.116 35.2981 109.768 35.9134 109.317 36.4366C108.866 36.9599 108.332 37.3771 107.714 37.6883C107.108 37.9853 106.451 38.1338 105.743 38.1338C104.455 38.1338 103.438 37.6176 102.691 36.5851V37.7944H99.1939V20.1865H102.691Z" fill="white"/>
<path d="M114.646 36.3094L109.855 26.9114H113.912L116.558 32.4908L119.128 26.9114H123.146L115.187 43.2252H111.265L114.646 36.3094Z" fill="white"/>
<path d="M131.363 21.7988L133.875 32.1302L136.966 21.7988H139.979L143.07 32.1302L145.582 21.7988H149.542L145.196 37.7944H141.332L138.473 28.5237L135.613 37.7944H131.749L127.403 21.7988H131.363Z" fill="white"/>
<path d="M152.176 32.3211C152.176 32.6747 152.234 33.007 152.35 33.3181C152.465 33.6151 152.62 33.8768 152.813 34.1031C153.019 34.3294 153.258 34.5061 153.528 34.6334C153.811 34.7607 154.114 34.8244 154.436 34.8244C154.745 34.8244 155.035 34.7607 155.305 34.6334C155.589 34.5061 155.827 34.3294 156.02 34.1031C156.226 33.8768 156.387 33.6151 156.503 33.3181C156.632 33.0211 156.696 32.7029 156.696 32.3635C156.696 32.0241 156.632 31.7059 156.503 31.4089C156.387 31.0977 156.226 30.829 156.02 30.6027C155.827 30.3764 155.589 30.1997 155.305 30.0724C155.035 29.9451 154.745 29.8814 154.436 29.8814C154.114 29.8814 153.811 29.9451 153.528 30.0724C153.258 30.1997 153.019 30.3764 152.813 30.6027C152.62 30.829 152.465 31.0907 152.35 31.3877C152.234 31.6705 152.176 31.9817 152.176 32.3211ZM156.58 26.9114H160.096V37.7944H156.58V36.5851C155.833 37.6176 154.822 38.1338 153.547 38.1338C152.826 38.1338 152.163 37.9924 151.557 37.7095C150.952 37.4125 150.424 37.0024 149.973 36.4791C149.522 35.9558 149.168 35.3406 148.911 34.6334C148.666 33.9263 148.544 33.1555 148.544 32.3211C148.544 31.5432 148.666 30.8078 148.911 30.1148C149.155 29.4077 149.497 28.7924 149.935 28.2692C150.373 27.7459 150.894 27.3357 151.499 27.0387C152.105 26.7276 152.775 26.572 153.509 26.572C154.745 26.572 155.769 27.0458 156.58 27.9934V26.9114Z" fill="white"/>
<path d="M164.814 20.1865V37.7944H161.317V20.1865H164.814Z" fill="white"/>
<path d="M169.541 20.1865V37.7944H166.044V20.1865H169.541Z" fill="white"/>
<path d="M178.016 30.7724C177.9 30.235 177.662 29.8037 177.301 29.4784C176.94 29.1531 176.503 28.9904 175.987 28.9904C175.446 28.9904 175.002 29.146 174.654 29.4572C174.32 29.7683 174.107 30.2067 174.017 30.7724H178.016ZM173.92 32.9999C173.92 34.6546 174.629 35.482 176.045 35.482C176.805 35.482 177.378 35.1426 177.765 34.4637H181.146C180.463 36.9529 178.756 38.1974 176.026 38.1974C175.189 38.1974 174.423 38.0631 173.727 37.7944C173.032 37.5115 172.433 37.1155 171.93 36.6064C171.441 36.0972 171.061 35.4891 170.791 34.7819C170.52 34.0748 170.385 33.2828 170.385 32.4059C170.385 31.5008 170.514 30.6876 170.771 29.9663C171.029 29.2309 171.396 28.6086 171.872 28.0994C172.349 27.5903 172.922 27.2014 173.592 26.9327C174.274 26.6498 175.041 26.5084 175.891 26.5084C176.728 26.5084 177.481 26.6498 178.151 26.9327C178.821 27.2014 179.388 27.5974 179.851 28.1207C180.315 28.6439 180.669 29.2874 180.914 30.0512C181.158 30.8007 181.281 31.6493 181.281 32.5969V32.9999H173.92Z" fill="white"/>
<path d="M186.155 30.1148V37.7944H182.658V30.1148H181.499V26.9114H182.658V23.6444H186.155V26.9114H188.145V30.1148H186.155Z" fill="white"/>
<path d="M52.7138 31.1812C54.394 27.4123 46.0878 16.8828 38.1525 12.496C33.1507 9.09756 27.9388 9.56444 26.8832 11.0566C24.5666 14.3313 34.554 17.1061 41.2333 20.3441C39.7975 20.9702 38.4445 22.0939 37.6488 23.531C35.1587 20.8013 29.6933 18.4506 23.2801 20.3441C18.9584 21.6201 15.3668 24.6283 13.9786 29.1719C13.6413 29.0214 13.2679 28.9377 12.875 28.9377C11.3725 28.9377 10.1545 30.1607 10.1545 31.6693C10.1545 33.178 11.3725 34.4009 12.875 34.4009C13.1535 34.4009 14.0242 34.2134 14.0242 34.2134L27.9388 34.3146C22.374 43.1788 17.9763 44.4746 17.9763 46.0103C17.9763 47.5459 22.1842 47.1298 23.7641 46.5574C31.3275 43.8171 39.4509 35.2769 40.8449 32.8185C46.6987 33.5518 51.6183 33.6386 52.7138 31.1812Z" fill="url(#paint0_linear_25695_7838)"/>
<path fill-rule="evenodd" clip-rule="evenodd" d="M41.2327 20.3446C41.2331 20.3448 41.2335 20.3449 41.2339 20.3451C41.5435 20.2227 41.4934 19.7635 41.4084 19.403C41.213 18.5742 37.8417 15.2315 34.6758 13.7342C30.3622 11.6942 27.1857 11.7992 26.7161 12.7394C27.5947 14.5478 31.6685 16.2457 35.9233 18.019C37.7385 18.7755 39.5866 19.5458 41.2336 20.3442C41.2333 20.3443 41.233 20.3445 41.2327 20.3446Z" fill="url(#paint1_linear_25695_7838)"/>
<path fill-rule="evenodd" clip-rule="evenodd" d="M35.7584 38.5454C34.886 38.2106 33.9005 37.9035 32.7801 37.6248C33.9748 35.4784 34.2255 32.3008 33.0972 30.2918C31.5138 27.4724 29.5262 25.9717 24.9075 25.9717C22.3672 25.9717 15.5275 26.8309 15.4061 32.5639C15.3934 33.1654 15.4058 33.7167 15.4492 34.2237L27.9388 34.3146C26.255 36.9967 24.678 38.9859 23.2974 40.4985C24.9551 40.925 26.323 41.2831 27.5788 41.6118C28.7705 41.9237 29.8612 42.2092 31.0027 42.5017C32.7248 41.2419 34.3438 39.8682 35.7584 38.5454Z" fill="url(#paint2_linear_25695_7838)"/>
<path d="M13.812 33.6348C14.3222 37.9899 16.7872 39.6967 21.8242 40.2018C26.8611 40.7069 29.7504 40.368 33.5969 40.7194C36.8096 41.0129 39.6781 42.6568 40.7422 42.0887C41.7 41.5775 41.1642 39.7304 39.8827 38.5454C38.2215 37.0093 35.9225 35.9413 31.8772 35.5622C32.6833 33.3458 32.4574 30.2382 31.2054 28.5474C29.395 26.1027 26.0534 24.9974 21.8242 25.4803C17.4056 25.9849 13.1717 28.1692 13.812 33.6348Z" fill="url(#paint3_linear_25695_7838)"/>
<defs>
<linearGradient id="paint0_linear_25695_7838" x1="22.7769" y1="27.8437" x2="52.37" y2="36.2014" gradientUnits="userSpaceOnUse">
<stop stop-color="white"/>
<stop offset="1" stop-color="white"/>
</linearGradient>
<linearGradient id="paint1_linear_25695_7838" x1="47.372" y1="27.2792" x2="25.9445" y2="5.88729" gradientUnits="userSpaceOnUse">
<stop stop-color="#8697FF"/>
<stop offset="1" stop-color="#8697FF" stop-opacity="0"/>
</linearGradient>
<linearGradient id="paint2_linear_25695_7838" x1="36.3522" y1="39.2936" x2="15.8112" y2="27.5324" gradientUnits="userSpaceOnUse">
<stop stop-color="#8697FF"/>
<stop offset="1" stop-color="#8697FF" stop-opacity="0"/>
</linearGradient>
<linearGradient id="paint3_linear_25695_7838" x1="24.5426" y1="27.6223" x2="38.4688" y2="45.2445" gradientUnits="userSpaceOnUse">
<stop stop-color="white"/>
<stop offset="0.983895" stop-color="#D1D8FF"/>
</linearGradient>
</defs>
</svg>
