<?xml version="1.0" encoding="UTF-8" standalone="no" ?>
<!DOCTYPE svg PUBLIC "-//W3C//DTD SVG 1.1//EN" "http://www.w3.org/Graphics/SVG/1.1/DTD/svg11.dtd">
<svg xmlns="http://www.w3.org/2000/svg" xmlns:xlink="http://www.w3.org/1999/xlink" version="1.1" width="640" height="640" viewBox="0 0 640 640" xml:space="preserve">
<desc>Created with Fabric.js 3.6.3</desc>
<defs>
</defs>
<g transform="matrix(-4.57 0 0 4.11 320.63 315.87)"  >
<path style="stroke: none; stroke-width: 1; stroke-dasharray: none; stroke-linecap: butt; stroke-dashoffset: 0; stroke-linejoin: miter; stroke-miterlimit: 4; fill: rgb(108,108,108); fill-rule: nonzero; opacity: 1;"  transform=" translate(-55.63, -61.44)" d="M 21.78 62.8 c -1.61 0 -2.91 -1.43 -2.91 -3.19 c 0 -1.76 1.3 -3.19 2.91 -3.19 h 24.91 c 1.61 0 2.91 1.43 2.91 3.19 c 0 1.76 -1.3 3.19 -2.91 3.19 H 21.78 L 21.78 62.8 z M 93.37 19.34 h 10.43 c 2.05 0 3.92 0.84 5.27 2.19 c 1.35 1.35 2.19 3.22 2.19 5.27 v 88.62 c 0 2.06 -0.84 3.92 -2.19 5.27 c -1.35 1.35 -3.22 2.19 -5.27 2.19 H 25.35 c -2.05 0 -3.92 -0.84 -5.27 -2.19 c -1.35 -1.35 -2.19 -3.21 -2.19 -5.27 v -11.88 H 7.46 c -2.05 0 -3.92 -0.84 -5.27 -2.19 C 0.84 100 0 98.13 0 96.08 V 7.46 C 0 5.4 0.84 3.54 2.19 2.19 C 3.54 0.84 5.4 0 7.46 0 h 78.45 c 2.05 0 3.92 0.84 5.27 2.19 c 1.35 1.35 2.19 3.22 2.19 5.27 V 19.34 L 93.37 19.34 z M 24.28 103.54 v 11.88 c 0 0.29 0.12 0.56 0.32 0.75 c 0.2 0.2 0.46 0.32 0.75 0.32 h 78.45 c 0.29 0 0.56 -0.12 0.75 -0.32 c 0.2 -0.2 0.32 -0.46 0.32 -0.75 V 26.8 c 0 -0.29 -0.12 -0.56 -0.32 -0.75 c -0.2 -0.2 -0.46 -0.32 -0.75 -0.32 H 93.37 v 70.34 c 0 2.05 -0.84 3.92 -2.19 5.27 c -1.35 1.35 -3.22 2.19 -5.27 2.19 H 24.28 L 24.28 103.54 z M 85.91 6.39 H 7.46 c -0.29 0 -0.56 0.12 -0.75 0.32 c -0.2 0.2 -0.32 0.46 -0.32 0.75 v 88.62 c 0 0.29 0.12 0.56 0.32 0.75 c 0.2 0.2 0.46 0.32 0.75 0.32 h 78.45 c 0.29 0 0.56 -0.12 0.75 -0.32 c 0.2 -0.2 0.32 -0.46 0.32 -0.75 V 7.46 c 0 -0.29 -0.12 -0.56 -0.32 -0.75 C 86.47 6.51 86.2 6.39 85.91 6.39 L 85.91 6.39 z M 21.78 28.64 c -1.61 0 -2.91 -1.43 -2.91 -3.19 c 0 -1.76 1.3 -3.19 2.91 -3.19 h 49.81 c 1.61 0 2.91 1.43 2.91 3.19 c 0 1.76 -1.3 3.19 -2.91 3.19 H 21.78 L 21.78 28.64 z M 21.78 45.72 c -1.61 0 -2.91 -1.43 -2.91 -3.19 c 0 -1.76 1.3 -3.19 2.91 -3.19 h 49.81 c 1.61 0 2.91 1.43 2.91 3.19 c 0 1.76 -1.3 3.19 -2.91 3.19 H 21.78 L 21.78 45.72 z" stroke-linecap="round" />
</g>
</svg>