<?xml version="1.0" encoding="utf-8"?>
<!-- Generator: Adobe Illustrator 22.0.0, SVG Export Plug-In . SVG Version: 6.00 Build 0)  -->
<svg version="1.1" id="Capa_1" xmlns="http://www.w3.org/2000/svg" xmlns:xlink="http://www.w3.org/1999/xlink" x="0px" y="0px"
	 viewBox="0 0 16 16" style="enable-background:new 0 0 16 16;" xml:space="preserve">
<style type="text/css">
	.st0{fill:#666666;}
</style>
<g>
	<path class="st0" d="M13.2,9.9h-0.9c-0.3,0-0.5,0.2-0.5,0.5v3.3H2.4V4.3h4.2c0.3,0,0.5-0.2,0.5-0.5V2.8c0-0.3-0.2-0.5-0.5-0.5H1.9
		C1.1,2.4,0.5,3,0.5,3.8v10.3c0,0.8,0.6,1.4,1.4,1.4l0,0h10.3c0.8,0,1.4-0.6,1.4-1.4l0,0v-3.8C13.6,10.1,13.4,9.9,13.2,9.9z
		 M14.8,0.5H11c-0.6,0-0.9,0.8-0.5,1.2l1,1L4.5,9.9c-0.3,0.3-0.3,0.7,0,1c0,0,0,0,0,0l0.7,0.7c0.3,0.3,0.7,0.3,1,0c0,0,0,0,0,0
		l7.1-7.1l1,1c0.4,0.4,1.2,0.1,1.2-0.5V1.2C15.5,0.8,15.2,0.5,14.8,0.5z"/>
</g>
</svg>
