<?xml version="1.0" encoding="UTF-8" standalone="no" ?>
<!DOCTYPE svg PUBLIC "-//W3C//DTD SVG 1.1//EN" "http://www.w3.org/Graphics/SVG/1.1/DTD/svg11.dtd">
<svg xmlns="http://www.w3.org/2000/svg" xmlns:xlink="http://www.w3.org/1999/xlink" version="1.1" width="213" height="213" viewBox="0 0 213 213" xml:space="preserve">
<desc>Created with Fabric.js 3.6.3</desc>
<defs>
</defs>
<g transform="matrix(0.39 0 0 0.39 107.71 107.71)"  >
<g style=""   >
		<g transform="matrix(1.17 0 0 1.17 0 0)" id="path3866"  >
<path style="stroke: none; stroke-width: 1; stroke-dasharray: none; stroke-linecap: butt; stroke-dashoffset: 0; stroke-linejoin: miter; stroke-miterlimit: 4; fill: rgb(221,51,51); fill-rule: nonzero; opacity: 1;"  transform=" translate(-1145.71, -519.51)" d="M 1338.5714 519.50507 A 192.85715 192.85715 0 0 1 1145.7142 712.36221 A 192.85715 192.85715 0 0 1 952.85709 519.50507 A 192.85715 192.85715 0 0 1 1145.7142 326.64792 A 192.85715 192.85715 0 0 1 1338.5714 519.50507 Z" stroke-linecap="round" />
</g>
		<g transform="matrix(-3.14 0 0 -3.14 0 -51.54)" id="path3089"  >
<path style="stroke: none; stroke-width: 1; stroke-dasharray: none; stroke-linecap: butt; stroke-dashoffset: 0; stroke-linejoin: miter; stroke-miterlimit: 4; fill: rgb(255,255,255); fill-rule: nonzero; opacity: 1;"  transform=" translate(-2485.36, 160.65)" d="m 2494.2863 -197.59079 v 73.872 h -17.856 v -73.872 h 17.856" stroke-linecap="round" />
</g>
		<g transform="matrix(-1 0 0 -1 0 132.58)" id="path3085"  >
<circle style="stroke: none; stroke-width: 1; stroke-dasharray: none; stroke-linecap: butt; stroke-dashoffset: 0; stroke-linejoin: miter; stroke-miterlimit: 4; fill: rgb(255,255,255); fill-rule: nonzero; opacity: 1;"  cx="0" cy="0" r="35.067654" />
</g>
</g>
</g>
</svg>