<?xml version="1.0" encoding="utf-8"?>
<!-- Generator: Adobe Illustrator 22.0.0, SVG Export Plug-In . SVG Version: 6.00 Build 0)  -->
<svg version="1.1" id="Capa_1" xmlns="http://www.w3.org/2000/svg" xmlns:xlink="http://www.w3.org/1999/xlink" x="0px" y="0px"
	 viewBox="0 0 303 167.8" style="enable-background:new 0 0 303 167.8;" xml:space="preserve">
<style type="text/css">
	.st0{fill:#FFFFFF;}
</style>
<g>
	<g>
		<path class="st0" d="M123.5,135l0-59.1l12.1-1.5l1.9,9.3c4-6.4,9.7-9.5,17.3-9.5c1.6,0,2.9,0.1,3.9,0.2l-0.2,12.1
			c-1.5-0.2-3-0.3-4.6-0.3c-5.3,0-9.3,1.4-11.9,4.2c-2.6,2.8-3.9,6.8-3.9,11.8V135H123.5z"/>
		<path class="st0" d="M186.3,136.1c-8.9,0-16.1-1.5-21.4-4.6l1.5-10.9c2.4,1.3,5.5,2.5,9.3,3.6c3.7,1,7.2,1.6,10.3,1.6
			c3.2,0,5.7-0.6,7.5-1.8c1.8-1.2,2.7-2.9,2.7-5.3c0-2.1-0.8-3.7-2.5-5s-4.9-2.7-9.6-4.5c-1.6-0.6-2.7-1-3.1-1.2
			c-5.6-2.2-9.6-4.6-12.1-7.2c-2.5-2.7-3.7-6.3-3.7-10.8c0-5.5,2-9.7,6-12.7c4-2.9,9.5-4.4,16.7-4.4c7.7,0,14.5,1.5,20.3,4.4
			l-3.6,10c-5.8-2.7-11.3-4-16.5-4c-2.9,0-5.2,0.5-6.8,1.5s-2.5,2.5-2.5,4.4c0,1.9,0.8,3.3,2.4,4.4c1.6,1,4.7,2.4,9.3,4.1
			c0.1,0,0.6,0.2,1.4,0.5c0.8,0.3,1.4,0.5,1.9,0.7c5.5,2,9.6,4.4,12.2,7.2c2.6,2.8,3.9,6.5,3.9,11c0,6.1-2.1,10.7-6.2,14.1
			C199.6,134.4,193.8,136.1,186.3,136.1z"/>
		<polygon class="st0" points="250.1,100.5 274.8,74.4 257.6,74.4 232.9,99.8 232.9,54.6 218.5,57.3 218.5,135 232.9,135 232.9,135 
			232.9,118.6 240.9,110.1 258.9,135 276.4,135 		"/>
	</g>
	<g>
		<path class="st0" d="M109.8,75.7c-0.4-0.2-11-5.8-19.9-0.7c-7.1,4.1-8.6,12.4-8.8,15.8l-3.3,1.9c-1.6-1.6-3.9-2.6-6.4-2.6
			c-2.5,0-4.7,1-6.3,2.6L50,84c0.2-0.7,0.3-1.4,0.3-2.2c0-4.2-2.8-7.7-6.6-8.8v-5.4c4.4-2.8,18.4-13.1,18.4-29.5
			C62.1,19.3,43.3,7.5,42.5,7l-1.3-0.8L39.8,7C39,7.5,20.3,19.3,20.3,38.2c0,16.4,14,26.6,18.4,29.5V73c-3.8,1.1-6.6,4.6-6.6,8.8
			c0,0.8,0.1,1.5,0.3,2.2l-15.1,8.7c-1.6-1.6-3.9-2.6-6.3-2.6c-5,0-9.1,4.1-9.1,9.1c0,4.1,2.8,7.7,6.6,8.8v18.1
			c-3.8,1.1-6.6,4.6-6.6,8.8c0,5,4.1,9.1,9.1,9.1c2.7,0,5.1-1.1,6.7-3l14.7,8.5c-0.2,0.7-0.3,1.4-0.3,2.2c0,5,4.1,9.1,9.1,9.1
			c5,0,9.1-4.1,9.1-9.1c0-0.8-0.1-1.5-0.3-2.2l14.7-8.5c1.7,1.8,4.1,3,6.7,3c5,0,9.1-4.1,9.1-9.1c0-4.1-2.8-7.7-6.6-8.8V108
			c3.8-1.1,6.6-4.6,6.6-8.8c0-0.7-0.1-1.5-0.2-2.1l3.3-1.9c1.9,0.9,5.7,2.4,10,2.4c2.6,0,5.4-0.6,8.2-2.1c8.9-5.1,9.4-17.1,9.4-17.5
			l0-1.6L109.8,75.7z M74,102.5c-0.7,0.6-1.6,0.9-2.5,0.9c-0.5,0-1-0.1-1.4-0.3c-0.4-0.1-0.8-0.3-1.1-0.6c-0.8-0.6-1.4-1.6-1.5-2.6
			c0-0.2,0-0.4,0-0.6c0-0.2,0-0.3,0-0.5c0.2-1.5,1.2-2.7,2.5-3.3c0.5-0.2,1-0.3,1.5-0.3c0.6,0,1.1,0.1,1.6,0.3
			c1.5,0.6,2.5,2.1,2.5,3.8c0,0.2,0,0.4-0.1,0.7C75.3,101,74.7,101.9,74,102.5z M75.5,134.9c0,2.2-1.8,4.1-4.1,4.1
			c-0.8,0-1.5-0.2-2.1-0.6c-1.2-0.7-1.9-2-1.9-3.5c0,0,0-0.1,0-0.1v0c0-0.4,0.1-0.9,0.2-1.2c0.3-0.7,0.7-1.4,1.3-1.8
			c0.5-0.4,1.1-0.7,1.8-0.8c0.2,0,0.5-0.1,0.7-0.1c1,0,1.8,0.3,2.5,0.9C74.9,132.5,75.5,133.6,75.5,134.9z M68.9,126.2
			c-1.2,0.4-2.4,1-3.3,1.8L50.1,119v0c0.1-0.6,0.2-1.2,0.2-1.8c0-0.9-0.1-1.7-0.4-2.5l15.2-8.8c1,1,2.3,1.8,3.8,2.2V126.2z
			 M41.2,155.8c-2,0-3.7-1.5-4-3.5c0-0.2,0-0.4,0-0.6c0-1.7,1.1-3.2,2.5-3.8c0.5-0.2,1-0.3,1.5-0.3c0.5,0,1.1,0.1,1.5,0.3
			c1.5,0.6,2.5,2.1,2.5,3.8c0,0.2,0,0.4,0,0.6C44.9,154.3,43.2,155.8,41.2,155.8z M32.2,119l-15.5,8.9c-1-0.8-2.1-1.4-3.3-1.8V108
			c1.5-0.4,2.7-1.2,3.8-2.2l15.2,8.8c-0.2,0.8-0.4,1.7-0.4,2.6C32,117.8,32.1,118.4,32.2,119L32.2,119z M15,134.9
			c0,1.5-0.8,2.8-1.9,3.5c-0.6,0.4-1.3,0.6-2.1,0.6c-2.2,0-4.1-1.8-4.1-4.1c0-1.3,0.6-2.5,1.5-3.2c0.7-0.6,1.6-0.9,2.5-0.9
			c0.2,0,0.5,0,0.7,0.1c0.7,0.1,1.3,0.4,1.8,0.8c0.6,0.5,1.1,1.1,1.3,1.8c0.1,0.4,0.2,0.8,0.2,1.3C15,134.8,15,134.9,15,134.9z
			 M6.8,99.3c0-2.2,1.8-4.1,4.1-4.1c0.5,0,1,0.1,1.5,0.3c1.3,0.5,2.3,1.7,2.5,3.2c0,0.2,0,0.4,0,0.6c0,0.2,0,0.4,0,0.6
			c-0.1,1.1-0.7,2-1.5,2.6c-0.3,0.2-0.6,0.4-1,0.6c-0.5,0.2-1,0.3-1.5,0.3c-1,0-1.8-0.3-2.5-0.9C7.4,101.7,6.8,100.6,6.8,99.3z
			 M38.6,78.6c0.7-0.5,1.6-0.9,2.5-0.9c0.9,0,1.8,0.3,2.5,0.9c0.8,0.6,1.3,1.6,1.5,2.6c0,0.2,0,0.4,0,0.6c0,1.3-0.6,2.5-1.6,3.2
			c-0.3,0.2-0.7,0.4-1,0.6c-0.5,0.2-1,0.3-1.5,0.3c-0.5,0-1-0.1-1.5-0.3c-0.4-0.1-0.7-0.3-1-0.6c-0.9-0.7-1.6-1.9-1.6-3.2
			c0-0.2,0-0.4,0-0.6C37.3,80.1,37.8,79.2,38.6,78.6z M45.2,117.4c0,1.2-0.6,2.3-1.5,3c-0.2,0.1-0.4,0.3-0.6,0.4
			c-0.6,0.3-1.2,0.5-1.9,0.5c-0.7,0-1.3-0.2-1.9-0.5c-0.2-0.1-0.4-0.2-0.6-0.4c-0.9-0.7-1.5-1.8-1.5-3.1c0,0,0-0.1,0-0.1
			c0-0.4,0-0.7,0.1-1.1c0.2-0.9,0.7-1.6,1.4-2.1c0.4-0.3,1-0.6,1.5-0.7c0.3-0.1,0.7-0.1,1-0.1c0.4,0,0.7,0,1.1,0.1
			c0.5,0.1,1,0.4,1.5,0.7c0.7,0.5,1.2,1.3,1.4,2.1c0.1,0.3,0.2,0.7,0.2,1.1C45.2,117.3,45.2,117.3,45.2,117.4L45.2,117.4z
			 M62.6,97.1c-0.2,0.7-0.3,1.4-0.3,2.2c0,0.8,0.1,1.5,0.3,2.3l-15.4,8.9c-1-0.9-2.2-1.6-3.5-2V90.6c1.5-0.4,2.7-1.2,3.8-2.2
			L62.6,97.1z M25.3,38.2c0-13.4,11.8-23.1,15.9-26c4,2.9,15.9,12.6,15.9,26c0,11.2-8.3,19.4-13.3,23.2V40.3c0-1.4-1.1-2.5-2.5-2.5
			c-1.4,0-2.5,1.1-2.5,2.5v21.2C33.6,57.6,25.3,49.5,25.3,38.2z M34.8,88.4c1.1,1,2.3,1.8,3.8,2.2v17.9c-1.3,0.4-2.5,1-3.5,1.9
			l-15.4-8.9c0.2-0.7,0.3-1.4,0.3-2.2s-0.1-1.5-0.3-2.2L34.8,88.4z M19.9,136.5c0.1-0.5,0.1-1.1,0.1-1.6c0-1-0.2-1.9-0.4-2.8l15-8.6
			c1.1,1.1,2.5,2,4.1,2.5v17c-1.5,0.4-2.8,1.2-3.8,2.2L19.9,136.5z M47.5,145.2c-1.1-1-2.4-1.8-3.8-2.2v-17c1.6-0.4,3-1.3,4.1-2.5
			l15,8.6c-0.3,0.9-0.4,1.8-0.4,2.8c0,0.5,0,1.1,0.1,1.6L47.5,145.2z M99.3,91.2c-3.4,1.9-7.1,1.6-10,0.8l5-2.9
			c1.2-0.7,1.6-2.2,0.9-3.4c-0.7-1.2-2.2-1.6-3.5-0.9l-5,2.9c0.8-2.8,2.4-6.3,5.7-8.2c4.8-2.8,10.8-1,13.5,0.1
			C105.5,82.4,104.1,88.4,99.3,91.2z"/>
	</g>
</g>
</svg>
