<svg xmlns="http://www.w3.org/2000/svg" viewBox="0 0 31.69 25.37"><defs><style>.cls-1{fill:#fff;}</style></defs><title>Recurso 2</title><g id="Capa_2" data-name="Capa 2"><g id="Capa_1-2" data-name="Capa 1"><path class="cls-1" d="M31.69,3.24a2.35,2.35,0,0,1-.24.37c-.79.79-1.57,1.59-2.4,2.34a1.09,1.09,0,0,0-.41.88,18.25,18.25,0,0,1-8.45,15.62,17.62,17.62,0,0,1-8.67,2.85A19.2,19.2,0,0,1,.55,23c-.19-.1-.37-.21-.55-.32a14.07,14.07,0,0,0,9.29-2.73,6.88,6.88,0,0,1-5.92-4.39L6,15.43c0-.06,0-.13,0-.19l-.37-.13A6.39,6.39,0,0,1,1,9.74c0-.11,0-.23,0-.34,0-.31.11-.36.4-.26.58.19,1.17.35,1.77.51a1.34,1.34,0,0,0,.6,0A6.81,6.81,0,0,1,1.22,5.82a6,6,0,0,1,.69-4.58l.38.36A19,19,0,0,0,15,7.84c.47,0,.55,0,.47-.49A6.41,6.41,0,0,1,20.85.1,6.61,6.61,0,0,1,26.5,1.7a.77.77,0,0,0,.85.21L30.46.78,31,.55a6.73,6.73,0,0,1-2.6,3.35,10.91,10.91,0,0,0,3.25-.75Z"/></g></g></svg>