<?xml version="1.0" encoding="utf-8"?>
<!-- Generator: Adobe Illustrator 24.1.2, SVG Export Plug-In . SVG Version: 6.00 Build 0)  -->
<svg version="1.1" id="Capa_1" xmlns="http://www.w3.org/2000/svg" xmlns:xlink="http://www.w3.org/1999/xlink" x="0px" y="0px"
	 viewBox="0 0 512 512" style="enable-background:new 0 0 512 512;" xml:space="preserve">
<style type="text/css">
	.st0{fill:#999999;}
</style>
<g>
	<g>
		<path class="st0" d="M362.7,192H149.4c-5.9,0-10.7,4.8-10.7,10.7v170.7c0,25.8,18.3,47.3,42.7,52.3V480c0,17.6,14.4,32,32,32
			s32-14.4,32-32v-53.3h21.3V480c0,17.6,14.4,32,32,32s32-14.4,32-32v-54.4c24.3-4.9,42.7-26.5,42.7-52.3V202.7
			C373.4,196.8,368.6,192,362.7,192z"/>
	</g>
</g>
<g>
	<g>
		<path class="st0" d="M311.8,56.8l18-42c2.3-5.4-0.2-11.7-5.6-14c-5.4-2.3-11.7,0.2-14,5.6l-18,42c-11.4-3.7-23.6-5.8-36.2-5.8
			c-12.6,0-24.8,2.1-36.2,5.8l-18-42c-2.3-5.4-8.6-8-14-5.6c-5.4,2.3-7.9,8.6-5.6,14l18,42c-36.6,19.9-61.5,58.7-61.5,103.2
			c0,5.9,4.8,10.7,10.7,10.7h213.3c5.9,0,10.7-4.8,10.7-10.7C373.4,115.5,348.5,76.7,311.8,56.8z M213.4,128
			c-5.9,0-10.7-4.8-10.7-10.7s4.8-10.7,10.7-10.7s10.7,4.8,10.7,10.7S219.2,128,213.4,128z M298.7,128c-5.9,0-10.7-4.8-10.7-10.7
			s4.8-10.7,10.7-10.7s10.7,4.8,10.7,10.7S304.6,128,298.7,128z"/>
	</g>
</g>
<g>
	<g>
		<path class="st0" d="M426.7,192c-17.6,0-32,14.4-32,32v106.7c0,17.6,14.4,32,32,32s32-14.4,32-32V224
			C458.7,206.4,444.3,192,426.7,192z"/>
	</g>
</g>
<g>
	<g>
		<path class="st0" d="M85.3,192c-17.6,0-32,14.4-32,32v106.7c0,17.6,14.4,32,32,32s32-14.4,32-32V224C117.3,206.4,103,192,85.3,192
			z"/>
	</g>
</g>
</svg>
