<?xml version="1.0" encoding="utf-8"?>
<!-- Generator: Adobe Illustrator 22.0.0, SVG Export Plug-In . SVG Version: 6.00 Build 0)  -->
<svg version="1.1" id="Capa_1" xmlns="http://www.w3.org/2000/svg" xmlns:xlink="http://www.w3.org/1999/xlink" x="0px" y="0px"
	 viewBox="0 0 393 500" style="enable-background:new 0 0 393 500;" xml:space="preserve">
<style type="text/css">
	.st0{fill:#ECECEC;}
	.st1{fill:#FFFFFF;}
	.st2{fill:#E7E7E7;}
	.st3{fill:#E1E1E1;}
	.st4{fill:#F5F5F5;}
	.st5{fill:#1A2E35;}
	.st6{opacity:0.3;enable-background:new    ;}
	.st7{opacity:0.1;fill:#FFFFFF;enable-background:new    ;}
	.st8{opacity:0.2;enable-background:new    ;}
	.st9{fill:#FD897B;}
	.st10{fill:#00B520;}
	.st11{opacity:0.6;fill:#FFFFFF;enable-background:new    ;}
	.st12{opacity:0.2;}
	.st13{opacity:0.2;fill:#FFFFFF;enable-background:new    ;}
	.st14{opacity:0.5;fill:#FFFFFF;enable-background:new    ;}
	.st15{fill:none;stroke:#1A2E35;stroke-width:3;stroke-miterlimit:10;}
</style>
<g>
	<g>
		<rect x="481" y="416.3" class="st0" width="35" height="0.3"/>
		<rect x="381.4" y="419.2" class="st0" width="9.2" height="0.3"/>
		<rect x="459.7" y="406.5" class="st0" width="20.3" height="0.3"/>
		<rect x="150.8" y="408.3" class="st0" width="6.7" height="0.3"/>
		<path class="st1" d="M290.9,352.1H86.7c-3.3,0-6-2.7-6-6V59c0-3.3,2.7-6,6-6h204.2c3.3,0,6,2.7,6,6v287.1
			C296.9,349.4,294.2,352.1,290.9,352.1z M86.7,53.2c-3.2,0-5.8,2.6-5.8,5.8v287.1c0,3.2,2.6,5.8,5.8,5.8h204.2
			c3.2,0,5.8-2.6,5.8-5.8V59c0-3.2-2.6-5.8-5.8-5.8H86.7z"/>
	</g>
	<g>
		<path class="st0" d="M473.4,143c0-4-3.2-7.2-7.2-7.2c-0.7,0-1.4,0.1-2.1,0.3c0.1-0.7,0.2-1.5,0.2-2.2c0-8.4-6.8-15.2-15.2-15.2
			c-1,0-1.9,0.1-2.8,0.3c-2.3-3.8-6.5-6.4-11.3-6.4c-7.3,0-13.1,5.8-13.3,13.1c-0.1,0-0.1,0-0.2,0c-6.7,0-12.2,5.5-12.2,12.2
			c0,6.7,5.5,12.2,12.2,12.2h44.8l0,0C470.3,150,473.4,146.9,473.4,143z"/>
		<path class="st0" d="M162.9,195.9c0-4-3.2-7.2-7.2-7.2c-0.7,0-1.4,0.1-2.1,0.3c0.1-0.7,0.2-1.5,0.2-2.2c0-8.4-6.8-15.2-15.2-15.2
			c-1,0-1.9,0.1-2.8,0.3c-2.3-3.8-6.5-6.4-11.3-6.4c-7.3,0-13.1,5.8-13.3,13.1c-0.1,0-0.1,0-0.2,0c-6.7,0-12.2,5.5-12.2,12.2
			c0,6.7,5.5,12.2,12.2,12.2h44.8l0,0C159.8,203,162.9,199.8,162.9,195.9z"/>
		<path class="st0" d="M469.3,230.1c0-2.4-1.9-4.3-4.3-4.3c-0.4,0-0.8,0.1-1.2,0.2c0.1-0.4,0.1-0.9,0.1-1.3c0-5.1-4.1-9.2-9.2-9.2
			c-0.6,0-1.1,0.1-1.7,0.2c-1.4-2.3-3.9-3.8-6.8-3.8c-4.4,0-7.9,3.5-8,7.9c0,0-0.1,0-0.1,0c-4.1,0-7.4,3.3-7.4,7.4s3.3,7.4,7.4,7.4
			h27.1l0,0C467.4,234.3,469.3,232.4,469.3,230.1z"/>
		<path class="st0" d="M207.8,91c0-2.4-1.9-4.3-4.3-4.3c-0.4,0-0.8,0.1-1.2,0.2c0.1-0.4,0.1-0.9,0.1-1.3c0-5.1-4.1-9.2-9.2-9.2
			c-0.6,0-1.1,0.1-1.7,0.2c-1.4-2.3-3.9-3.8-6.8-3.8c-4.4,0-7.9,3.5-8,7.9c0,0-0.1,0-0.1,0c-4.1,0-7.4,3.3-7.4,7.4
			c0,4.1,3.3,7.4,7.4,7.4h27.1l0,0C205.9,95.2,207.8,93.3,207.8,91z"/>
		<polygon class="st0" points="135.3,252.5 163.9,382.6 169.1,380.2 139,251.8 		"/>
		<g>
			<g>
				<path class="st2" d="M464.1,382c0,0-17.7-122.2,22.2-248.7l-6.3-4.8c0,0-46.7,95.6-39.9,256.9L464.1,382z"/>
			</g>
			<g>
				<path class="st3" d="M497.1,100.2c14.6-9.6,36.2,5.7,39.2,29.5c0,0-2.5-1.6-6.7-3.2c-1.1-6-2.2-11.3-2.2-11.3l0.8,10.8
					c-1.3-0.5-2.7-0.9-4.2-1.3l-1-5.8l-0.5,5.4c-1.9-0.5-4.1-0.9-6.3-1.1l-2.7-16.9l-1.4,16.6c-2.1-0.1-4.3,0-6.5,0.3l-1.7-11.5
					l0,11.7c-1.8,0.3-3.6,0.7-5.5,1.3l-2-17.1c0,0,0.1,9.6-0.1,17.8c-4.7,1.7-9.5,4.3-14.1,8.3l-0.2-2.1
					C482.1,131.4,483.8,108.9,497.1,100.2z"/>
				<path class="st3" d="M476.9,92.5c-11.6-13.1-36.5-4-45.6,18.2c0,0,2.8-0.8,7.3-1.3c2.7-5.5,5.1-10.3,5.1-10.3l-3.6,10.2
					c1.4-0.1,2.8-0.2,4.4-0.2l2.5-5.3l-1,5.3c2,0.1,4.1,0.2,6.4,0.6l7-15.6l-3,16.4c2,0.5,4.1,1.1,6.2,2l4.6-10.7l-3.1,11.3
					c1.7,0.7,3.3,1.6,5,2.7l6.4-16c0,0-2.6,9.3-4.6,17.2c4.1,2.8,8,6.6,11.5,11.7l0.7-2C483.3,126.6,487.5,104.4,476.9,92.5z"/>
				<path class="st3" d="M465.7,123.5c11.6-11.4,20.4-1.5,20.4-1.5c-4.4,1.1-8.3,3.9-11.7,7.5l-1.6-2l0.3,3.5
					c-0.8,0.9-1.6,1.9-2.3,2.9l-2.7-6.1l1.1,8.2c-1.1,1.6-2.1,3.2-3,4.8l-1.2-6l0.1,8c-1,1.8-1.8,3.6-2.6,5.2l-1.3-11l-0.2,14.3
					c-1.9,4.4-2.8,7.5-2.8,7.5S454.1,134.8,465.7,123.5z"/>
				<path class="st3" d="M497.1,150.3l-2.4,1.4c-0.4-1.8-0.8-3.8-1.2-5.8l1.6-3l-2.1,1.3c-0.2-0.7-0.3-1.3-0.5-2l2.1-5.9l-3.1,2.3
					c-1.7-5.3-3.9-9.9-6.6-12.1c0,0,26.7,8.5,11.6,37.3c0,0-0.5-4.6-1.6-10.5L497.1,150.3z"/>
				<path class="st3" d="M470.9,126.8l-4.3-8l1.8,8.4c-0.4,0.1-0.9,0.1-1.3,0.2l-5.5-6.9l1.4,7.9c-1.8,0.5-3.6,1.2-5.6,2
					c-2,0.9-3.9,1.8-5.8,2.9l-2.7-7l1.3,7.9c-1.8,1.1-3.6,2.3-5.3,3.5l-1.3-6.2l0.1,7.1c-2.1,1.5-4.1,3.1-5.9,4.6l0.2-11.2
					l-1.6,12.5c-1.9,1.6-3.5,3.1-5,4.5l-0.2-7.8l-2,9.9c-2.1,2-3.2,3.3-3.2,3.3c1.1-27.3,11.6-38.1,29.1-41
					c17.5-2.9,30.1,15.2,30.1,15.2S479.8,125.9,470.9,126.8z"/>
				<path class="st3" d="M521.9,160.1l-1.6,8.1c-0.8-2-1.8-4.6-3.1-7.5l1.4-11.9l-2.6,9.4c-1.9-3.9-4.3-8.3-7.1-12.3l2.5-8.2l-4,6.1
					c-0.8-1.1-1.6-2.1-2.5-3.1l1.4-5.2l-2.2,4.3c-0.6-0.6-1.2-1.3-1.8-1.9l1.7-6.9l-2.7,6c-1.8-1.6-3.6-3-5.6-4l2.8-8.5
					c0,0-2,3.4-4.4,7.7c-2.7-1.3-5.7-1.9-8.8-1.8c0,0,5.3-8.4,15-11.4c9.8-2.9,30.7,14.7,21.6,53.5c0,0-0.3-0.9-0.8-2.4L521.9,160.1
					z"/>
				<path class="st3" d="M505.9,84.7l1.7,4.9c-0.5,0-1.1,0.1-1.8,0.3l-2-6.4l1.3,6.6c-1.1,0.3-2.3,0.8-3.6,1.6l-2.8-8.7l1.6,9.4
					c-0.4,0.3-0.9,0.7-1.3,1.1l-3.1-8.1l2.3,8.8c-1.9,1.8-3.9,4.3-5.8,7.8l-0.9-11.9l-1.4,16.3c-1.9,4.2-3.8,9.3-5.5,15.8
					c0,0-1.7-43.3,8.7-48.2c10.4-4.9,16.6,16,16.6,16s-0.5-0.2-1.4-0.2L505.9,84.7z"/>
				<path class="st3" d="M491,132.9l-0.9,8.2l-3.1-7.9l-4.3,6.2l-1.7-5.8l-4.9,4.1c0,0,0.6-10.5,3.7-15.3
					C483,117.7,492.3,121,491,132.9z"/>
			</g>
		</g>
		<path class="st4" d="M490.6,379.1c-2.5-2.8-4.9-5.7-7.5-8.4c-0.2-0.2-0.3-0.4-0.4-0.4c-0.9-0.6-1.8-1-2.7-1.5
			c-0.2-0.1-0.7-0.3-1.3-0.5c-1.1-0.4-2.1-0.8-3.1-1.2c-6.6-2.6-12.5-5.7-17.4-10.9c-2.7-2.9-4.9-6.2-7.7-9
			c-0.1,0.1-0.6-0.2-0.9-0.4c-0.8-0.1-2-0.3-2.1-0.3c-1.1,0-2.3,0-3.4,0.1c-1.6,0.1-3.2,0.2-4.9,0.3c-6.3,9.2-14.3,21.8-17.8,23.5
			c-5.4,2.6-55.6,15.8-59.3,15.1c-3.7-0.8-23.1,0.8-27.9,0.6s-13.7-2.3-26.4-8.2c-12.8-5.9-19.7-5.9-35.1-10.8
			c-15.4-4.9-25.7-6.8-34.7,0.8c-9,7.5-33.7-8.4-41.4-10.6c-7.7-2.3-22.4-15.3-32.5-9.2c-10,6.1-18.4,9-31,19.9
			c-12.6,10.9-37.5,31.9-37.5,31.9h424.1l-4.9-8.5C505.5,390.6,497,386.2,490.6,379.1z"/>
		<path class="st3" d="M85.9,275.1c0,0,12.3-22.2,45.8-41.4c0,0,27.2-2.3,58,11.1c0,0,6.2,10.4-0.8,14.4c-7.1,4.1-13-4.1-13-4.1
			s-1.3,12.5-10.5,12.9c-9.2,0.4-12-8.7-12-8.7s-0.9,11.5-11.9,14.4c-9.6,2.5-15.5-5.6-15.5-5.6s-1.9,9.4-10.5,12.1
			c-6.9,2.2-11.6-3.7-11.6-3.7s-2,10.2-9.3,10.2C88.2,286.6,85.9,275.1,85.9,275.1z"/>
	</g>
	<ellipse id="_x3C_Path_x3E__359_" class="st4" cx="304.6" cy="435.1" rx="205.1" ry="12"/>
	<g>
		<path class="st5" d="M160.6,386c0,0,3.8-5.6,10.5-6.1c6.7-0.4,12.3,8.1,12.3,8.1h-2.1c0,0-5.4-5.8-9.3-5.8c-3.9,0-7.6,4.8-7.6,4.8
			L160.6,386z"/>
		<g>
			<path class="st5" d="M103.8,430.7c2.3-3.9,28.3-1.4,34.1-3.7l3.1,5.4c0,0-4.5,2.5-11.9,1.6c-7.4-0.9-18.6-1.1-21.6,1.5
				L103.8,430.7z"/>
			<path class="st6" d="M103.8,430.7c2.3-3.9,28.3-1.4,34.1-3.7l3.1,5.4c0,0-4.5,2.5-11.9,1.6c-7.4-0.9-18.6-1.1-21.6,1.5
				L103.8,430.7z"/>
		</g>
		<path class="st5" d="M213,418.9c-0.2,0.9-0.4,1.8-0.7,2.7c-2.1,7.2-5.4,13-7.7,13.9h-67.3c-1.9,0-3.7-0.9-4.8-2.3c0,0,0,0-0.1-0.1
			c-0.2-0.3-0.5-0.7-0.6-1c-4.6-9.7-9.3-29.1-2.7-37.9c0.7-0.9,1.5-1.8,2.4-2.5c0.1-0.1,0.1-0.1,0.2-0.1c1.3-1.1,2.9-2,4.6-2.8
			c0,0,0,0,0,0c0,0,0,0,0,0c4.6-2.1,10.3-3.1,15.9-3.5c1.6-0.1,3.2-0.2,4.8-0.2c4.1-0.1,8,0,11,0.1c10.8,0.3,19.3,3.5,25.1,2.9
			c2.3-0.2,4.4,0,6.4,0.5c0.6,0.2,1.2,0.4,1.8,0.6c2.4,1,4.8,2.5,7.3,4.5C215.2,398.8,215.2,409.6,213,418.9z"/>
		<path class="st7" d="M213,418.9c-0.2,0.9-0.4,1.8-0.7,2.7c-2.1,7.2-5.4,13-7.7,13.9h-67.3c-1.9,0-3.7-0.9-4.8-2.3c0,0,0,0-0.1-0.1
			c-0.2-0.3-0.5-0.7-0.6-1c-4.6-9.7-9.3-29.1-2.7-37.9c0.7-0.9,1.5-1.8,2.4-2.5c0.1-0.1,0.1-0.1,0.2-0.1c1.3-1.1,2.9-2,4.6-2.8
			c0,0,0,0,0,0c0,0,0,0,0,0c4.6-2.1,10.3-3.1,15.9-3.5c1.6-0.1,3.2-0.2,4.8-0.2c4.1-0.1,8,0,11,0.1c10.8,0.3,19.3,3.5,25.1,2.9
			c2.3-0.2,4.4,0,6.4,0.5c0.6,0.2,1.2,0.4,1.8,0.6c2.4,1,4.8,2.5,7.3,4.5C215.2,398.8,215.2,409.6,213,418.9z"/>
		<g>
			<path class="st8" d="M202.7,418.2c-4.8,0-14.4,2.3-28.7-0.8c-9.2-2-16.3-1.1-20.2-0.2c-0.2-2.1-0.3-4.5-0.5-7
				c-1.3-17.2-11.1-24.4-17-21.5c0,0,0,0,0,0c0,0,0,0,0,0c-1.7,0.8-3.3,1.8-4.6,2.8c-0.1,0-0.1,0.1-0.2,0.1
				c-0.9,0.7-1.7,1.6-2.4,2.5c-6.6,8.8-1.9,28.2,2.7,37.9c0.2,0.4,0.4,0.7,0.6,1c0,0,0,0.1,0.1,0.1c1.2,1.3,2.8,2.1,4.6,2.1h12.1
				c4.9,0,5.5-4.5,5-14.2c0.8-0.5,1.9-1.1,3-1.8c3-1.9,14.6-1,19.7,0.9c5,1.9,18.2,2.7,24.6,1.7c4.4-0.7,8.7-0.4,11-0.2
				c0.3-0.9,0.5-1.8,0.7-2.7C210.8,418.6,206.3,418.2,202.7,418.2z"/>
			<path class="st8" d="M159,393.9c2.9,10.7,4.9,14.4,5.7,15.5c0.8,1,22.1,3.6,26.1,3.6c4,0,10.8-0.6,13.8-1.4
				c2.7-0.7,3.6-14.4-3.3-22.6c-0.6-0.2-1.2-0.4-1.8-0.6c3.7,8.4,3.8,18.6,3.4,20.1c-0.6,2-6.9,1.7-9.8,1.7
				c-2.9-0.1-21.1-1.2-23-1.9c-1.9-0.8-2.9-1.8-4.4-3.6c-1.5-1.9-1.7-8.4-4.3-14c-1-2-2.6-4-4.3-5.7c-1.6,0-3.2,0.1-4.8,0.2
				C155,386.7,157.8,389.4,159,393.9z"/>
		</g>
		<path class="st5" d="M137.9,403.8l-5.9,1.5c0,0-4.2,11.9-1.7,16.9c2.5,5-17,11.9-26.6,8.5l3.8,4.9c0,0,23-1.4,27.4-10.2
			c4.4-8.8-1.9-10.1-2.3-12.6C132.2,410.3,137.9,403.8,137.9,403.8z"/>
		<path class="st7" d="M137.9,403.8l-5.9,1.5c0,0-4.2,11.9-1.7,16.9c2.5,5-17,11.9-26.6,8.5l3.8,4.9c0,0,23-1.4,27.4-10.2
			c4.4-8.8-1.9-10.1-2.3-12.6C132.2,410.3,137.9,403.8,137.9,403.8z"/>
	</g>
	<g>
		<g id="_x3C_Group_x3E__45_">
			<path class="st9" d="M189.6,157.7c0,0-22.6-12.7-27.3-15.9c-4.7-3.3-29.7-27.9-31.2-28.6c0,0,0.9-2.8-1.2-4.5
				c-2.1-1.6-10.3-7-11.5-7c-1.2,0-4.2,11.5-3.7,14.3c0.5,2.8,11.9,3.5,11.9,3.5s23.9,27.8,27.6,31.7c3.7,3.9,29.3,20.5,29.3,20.5
				L189.6,157.7z"/>
			<g>
				<path class="st10" d="M198.9,160c0,0,5,10-7.1,25.9l-26.6-19.5l10.6-19.2L198.9,160z"/>
				<path class="st11" d="M191.8,186l-12.5-9.2l-1.6-1.2l-7.1-5.2l-5.3-3.9l3.9-7.1l2.2-4l4.5-8.1l4.3,2.4l3.7,2.1l15,8.3
					c0,0,0.6,1.3,0.9,3.6C200.3,168,199.6,175.7,191.8,186z"/>
				<path class="st8" d="M191.8,186l-12.5-9.2c4.3-8.9,15.4-12,20.5-13.1C200.3,168,199.6,175.7,191.8,186z"/>
				<g class="st12">
					<polygon class="st1" points="184,151.7 180.2,153.9 180.2,149.7 					"/>
					<polygon class="st1" points="175.8,156.7 171.1,163.3 169.2,159.4 171.4,155.4 					"/>
					<polygon class="st1" points="179.3,166.6 177.7,175.5 170.6,170.4 					"/>
					<polygon class="st1" points="182.5,161.5 185.2,168.2 190.6,160.8 					"/>
				</g>
			</g>
			<path class="st9" d="M248.3,155.3c0,0,22.6-12.7,27.3-15.9c4.7-3.3,29.7-27.9,31.2-28.6c0,0-0.9-2.8,1.2-4.5
				c2.1-1.6,10.3-7,11.5-7c1.2,0,4.2,11.5,3.7,14.3c-0.5,2.8-11.9,3.5-11.9,3.5s-23.9,27.8-27.6,31.7c-3.7,3.9-29.3,20.5-29.3,20.5
				L248.3,155.3z"/>
			<path class="st9" d="M221.2,289.3c0,0-0.5,8-1.3,18.7c-0.5,6.6-1.1,14.3-1.7,21.7c-0.9,10-1.9,19.5-2.9,25.4
				c-0.9,5.4-13.1,72.8-13.1,72.8H194c2.6-62.8,6.6-87.2,6.7-90.9c0.1-1.2,0.1-2.9,0.1-4.8c0.2-7.2,0.3-18.5,0.4-26.7
				c0.1-5.9,0.1-10.3,0.1-10.3L221.2,289.3z"/>
			<path class="st9" d="M252.8,340.2c-0.3,5.5-3.6,87.4-3.6,87.4h-9c-4.6-65.3-2.9-87.9-3.7-92.5c0,0,0,0,0-0.1
				c-1.4-7.7-2.7-17.8-3.6-25.3c-0.7-6-1.2-10.4-1.2-10.4l18.4-7.9c0,0,1.1,9.5,1.9,20.9c0.4,5.7,0.8,11.9,0.9,17.7
				C253,333.7,253,337.1,252.8,340.2z"/>
			<path class="st8" d="M201.3,305.5L220,308c-0.5,6.6-1.1,14.3-1.7,21.7l-17.3,2.5C201.1,325,201.2,313.7,201.3,305.5z"/>
			<path class="st8" d="M252.9,330.1l-16.4,5c-1.4-7.7-2.7-17.8-3.6-25.3l19.1,2.6C252.5,318.1,252.8,324.3,252.9,330.1z"/>
			<path class="st10" d="M204.1,425.4h-10.8c-0.4,0-0.7,0.3-0.8,0.6l-1.8,7.9c-0.1,0.7,0.3,1.4,1,1.6c0.1,0,0.2,0,0.3,0
				c3.5-0.1,6-0.3,10.4-0.3c2.7,0,10.9,0.3,14.6,0.3c3.7,0,4.2-3.7,2.7-4c-6.9-1.5-12-3.6-14.2-5.5
				C205.2,425.6,204.7,425.4,204.1,425.4z"/>
			<path class="st10" d="M249.9,425.1h-10.8c-0.4,0-0.7,0.3-0.8,0.6l-1.8,7.9c-0.1,0.7,0.3,1.4,1,1.6c0.1,0,0.2,0,0.3,0
				c3.5-0.1,6-0.3,10.4-0.3c2.7,0,10.9,0.3,14.6,0.3c3.7,0,4.2-3.7,2.7-4c-6.9-1.5-12-3.6-14.2-5.5
				C251,425.3,250.5,425.1,249.9,425.1z"/>
			<path class="st5" d="M222,325.1c0.1-0.7,0.2-1.5,0.3-2.3c1.1-10.8,2.2-23.8,3.2-36.4c3.7,9.8,5.2,23.6,7.1,38.7h22.2
				c-1.8-39-6.7-70.6-9.2-84.2h-47.2c-0.1,4.8-0.6,51.8-1.8,84.2H222z"/>
			<path class="st13" d="M222,325.1c0.1-0.7,0.2-1.5,0.3-2.3c1.1-10.8,2.2-23.8,3.2-36.4c3.7,9.8,5.2,23.6,7.1,38.7h22.2
				c-1.8-39-6.7-70.6-9.2-84.2h-47.2c-0.1,4.8-0.6,51.8-1.8,84.2H222z"/>
			<g>
				<path class="st9" d="M228.5,144.5c-0.1,0.4-0.2,0.9-0.4,1.3c-0.9,2.4-2.4,4.5-4.4,5.9c-0.5,0.4-1.1,0.7-1.6,1
					c-3,1.5-6.5,1.8-9.6,0.4c-1.3-0.5-2.6-1.4-3.7-2.5c-4.5-4.5-4.3-9.7-4.8-18.5c-0.1-1.9,0.2-3.8,0.9-5.5c2.5-6.1,9.6-9,15.7-6.5
					C229.2,123.5,230.4,136.6,228.5,144.5z"/>
				<path class="st8" d="M223.7,151.6c-0.5,0.4-1.1,0.7-1.6,1c-3,1.5-6.5,1.8-9.6,0.4c0.6-1.7,1.6-3,1.6-3S219.3,149.2,223.7,151.6z
					"/>
				<path class="st9" d="M206,163c4.3,3.9,14.9,2.5,14.9,2.5s6.6-1.8,5.2-3.9c-3.9-0.6-5.8-2.5-6.6-4.8c-0.5-1.4-0.5-2.9-0.4-4.5
					c0.1-0.8,0.2-1.7,0.3-2.5l-13.1-9.7C208.1,146.6,210.2,158.4,206,163z"/>
				<path class="st5" d="M223.7,136.5l1.9,0.7l-0.9-3.9c0,0,2.8-4.2,0-7.9c0,0,7.7-2.3,3.3-6.4c-1.6-1.5-3.6,0-8.9-2.3
					c-2.9-1.3-11.8-1.3-12.3,2.3c0,0-6.5,0-7.2,11c-0.7,11,6.8,17.4,6.8,17.4s7.8,1.8,11.6-1.3C221.8,143,223.7,136.5,223.7,136.5z"
					/>
				<path class="st9" d="M218.7,137.1c0.5,1.9,1.6,3.3,2.9,3.9c1.8,0.8,3-1.8,2.7-4.4c-0.2-2.3-1.5-5.6-3.4-5.2
					C219,131.8,218.1,134.7,218.7,137.1z"/>
			</g>
			<path class="st8" d="M225.4,286.4c-1,12.5-2.1,25.6-3.2,36.4c-1.6-15.6-3.6-26.8-3.6-26.8s-1.8-1.5-6.9-9.6
				c-5.1-8.1,0-23.2,0-23.2C211.6,277.2,225.4,286.4,225.4,286.4z"/>
			<polygon class="st10" points="256.4,323.3 255.4,326.9 231.8,326.9 231.8,323.6 			"/>
			<polygon class="st10" points="223.1,323.8 222.4,327.2 195.6,327.2 194,323.8 			"/>
			<g>
				<path class="st10" d="M226.4,160.5c0,0-3.8-6.1-13.6-6.5c-9.7-0.4-10.4,6.2-10.4,6.2L226.4,160.5z"/>
				<path class="st14" d="M226.4,160.5c0,0-3.8-6.1-13.6-6.5c-9.7-0.4-10.4,6.2-10.4,6.2L226.4,160.5z"/>
			</g>
			<path class="st10" d="M191.6,156.7c0,0,5,45.2-1,98.9l56.8-3.5c-0.6-58-8.4-94.5-8.4-94.5s-14.7,3.1-26.6,2.6
				C201.2,159.8,191.6,156.7,191.6,156.7z"/>
			<g>
				<path class="st10" d="M239,157.6c0,0,7.6,17.7,8.4,35.7c0.8,18-30.8,42.6-30.8,42.6s-24.4-16.8-43.2-15.3
					c-18.8,1.5-24.7,8.2-24.7,8.2s14.6-31.3,40.1-42.2c0,0-5.3-18,2.8-30C191.6,156.7,209.2,162.4,239,157.6z"/>
				<path class="st11" d="M247.4,193.3c0,0.5,0,1,0,1.5c0,0.8-0.1,1.6-0.3,2.3c-0.3,1.7-0.9,3.5-1.6,5.3v0
					c-1.9,4.6-5.2,9.4-8.8,13.8c-1.8,2.2-3.7,4.3-5.6,6.3c-7.4,7.8-14.6,13.4-14.6,13.4s-9-6.2-20.3-10.7c-2.2-0.9-4.4-1.7-6.7-2.4
					h0c-5.4-1.6-11-2.6-16.2-2.2c-6.6,0.5-11.6,1.7-15.3,3c-0.9,0.3-1.7,0.6-2.4,0.9c-0.2,0.1-0.4,0.2-0.7,0.3
					c-2,0.9-3.5,1.8-4.5,2.5c-0.2,0.1-0.3,0.2-0.4,0.3c-0.3,0.2-0.5,0.4-0.7,0.6c-0.1,0.1-0.2,0.1-0.3,0.2c-0.1,0.1-0.1,0.1-0.2,0.2
					c-0.1,0.1-0.1,0.1-0.1,0.1l-0.1,0.1c0-0.1,0.1-0.3,0.3-0.7c0.1-0.2,0.2-0.4,0.3-0.6c0.3-0.6,0.7-1.4,1.2-2.3
					c0.1-0.1,0.1-0.3,0.2-0.4c0.1-0.2,0.3-0.5,0.4-0.7c0.1-0.3,0.3-0.5,0.4-0.8c0.6-1.1,1.3-2.3,2.1-3.6c3.5-5.5,8.6-12.8,15.3-19.4
					l0,0c2.1-2,4.3-4,6.6-5.8c4-3.1,8.3-5.8,13.1-7.9c0,0-1.9-6.4-1.7-14.1c0-1.5,0.1-3,0.4-4.5c0.5-3.9,1.8-7.8,4.1-11.3
					c0,0,2.8,0.9,7.9,1.7c2.8,0.4,6.4,0.8,10.6,1c5.9,0.3,13,0.2,21.3-0.8c2.4-0.3,4.9-0.6,7.5-1c0,0,0.1,0.2,0.2,0.6
					c0.7,1.6,2.5,6.5,4.3,12.9c0.5,1.7,0.9,3.5,1.4,5.4c0.4,1.7,0.8,3.6,1.1,5.4v0C246.7,185.6,247.2,189.5,247.4,193.3z"/>
				<g class="st8">
					<path class="st1" d="M240.1,207.7l-3.3,8.5c-1.8,2.2-3.7,4.3-5.6,6.3l-6.8-12.7L240.1,207.7z"/>
					<path class="st1" d="M182.5,199.6l-13.4,0.8c2.1-2,4.3-4,6.6-5.8L182.5,199.6z"/>
					<path class="st1" d="M198,165.7l-1.4,14l-9.5-7.2c0-1.5,0.1-3,0.4-4.5L198,165.7z"/>
					<polygon class="st1" points="202.4,202.5 198,189.1 211.4,186.6 					"/>
					<polygon class="st1" points="225.4,189.8 225.4,199.8 235.1,196.3 					"/>
					<path class="st1" d="M200.7,218.8l-4.5,6.4c-2.2-0.9-4.4-1.7-6.7-2.4h0l-3.4-7.8L200.7,218.8z"/>
					<polygon class="st1" points="166.4,209.2 173.3,212.1 166.4,216.8 					"/>
					<path class="st1" d="M158,223.7c-6.9,2.4-9.3,5.2-9.3,5.2s1.8-3.8,5.1-9.1L158,223.7z"/>
					<polygon class="st1" points="214.4,210.7 208.5,216.8 217.5,218.4 					"/>
					<polygon class="st1" points="214.4,172 221.4,181.4 226.4,170.7 					"/>
					<path class="st1" d="M246.1,181.9l-8.9-5.9l6.4-4.9C244.5,174.4,245.4,178.1,246.1,181.9z"/>
					<path class="st1" d="M247.4,194.9c-0.1,2.5-0.8,5.1-1.9,7.7l-3.7-9.2L247.4,194.9z"/>
					<path class="st1" d="M239.2,158.2l-5.7,5.8l-2.1-5.4c2.4-0.3,4.9-0.6,7.5-1C239,157.6,239.1,157.8,239.2,158.2z"/>
					<path class="st1" d="M210.1,159.4l-4.2,8.8l-6.5-9.8C202.4,158.8,205.9,159.2,210.1,159.4z"/>
				</g>
				<path class="st8" d="M247.4,193.3c0,0.5,0,1,0,1.5c0,0.8-0.1,1.6-0.3,2.3c-7.4-11.7-5.6-22.4-5.6-22.4l3.5,1.7
					c0.4,1.7,0.8,3.6,1.1,5.4v0C246.7,185.6,247.2,189.5,247.4,193.3z"/>
			</g>
			<g>
				<path class="st10" d="M217.4,110.9c12.6-4.3,15.7,12.4,3.2,23.7c-12.5,11.3-26.8,12.7-28.4,7
					C190.6,135.8,198.3,117.5,217.4,110.9z"/>
				<path class="st10" d="M204.8,110c6.4,0,15.6,6.6,15.6,6.6s1.3,7-5.1,13.1c-6.4,6.1-12.2,7.1-15.8,4.7
					c-3.6-2.4-4.6-11.6-4.6-11.6s0.9-3.6,4.6-4.7C199.5,118.1,200.6,110.1,204.8,110z"/>
				<path class="st8" d="M215.3,129.7c-6.4,6.1-12.2,7.1-15.8,4.7c-0.6-0.4-1.1-1-1.6-1.7c-2.3-3.5-3-10-3-10
					c6.1,7.4,13.2-0.2,14.2-5.4c0.6-2.9-0.2-5.5-1.6-7.1c4.2,0.9,8.9,3.6,11.3,5.2c1,0.6,1.6,1.1,1.6,1.1S221.7,123.6,215.3,129.7z"
					/>
				<path class="st11" d="M215.3,129.7c-6.4,6.1-12.2,7.1-15.8,4.7c-0.6-0.4-1.1-1-1.6-1.7c6.4,1.9,14.1-1.3,18.2-7
					c2.7-3.8,3-7.5,2.6-10.3c1,0.6,1.6,1.1,1.6,1.1S221.7,123.6,215.3,129.7z"/>
			</g>
			<g>
				<path class="st10" d="M239,157.6c0,0-5,10,7.1,25.9l26.6-19.5L262,144.8L239,157.6z"/>
				<path class="st11" d="M272.6,164l-6.9,5.1l-10.2,7.5l-9.4,6.9c-0.6-0.8-1.2-1.6-1.7-2.4c-1.2-1.7-2.1-3.4-2.9-4.9
					c-2.7-5.3-3.5-9.6-3.5-12.8c0-3.8,1-5.9,1-5.9l5.9-3.3l10.2-5.6l4.5-2.5l2.5-1.4L272.6,164z"/>
				<g class="st12">
					<polygon class="st1" points="265.7,169.1 255.5,176.7 251,166.6 					"/>
					<polygon class="st1" points="264.8,153 255.3,156.7 255.1,148.7 259.5,146.2 					"/>
					<path class="st1" d="M248.3,160.8l-10.3,2.7c0-3.8,1-5.9,1-5.9l5.9-3.3L248.3,160.8z"/>
					<path class="st1" d="M246.1,173.7l-1.7,7.5c-1.2-1.7-2.1-3.4-2.9-4.9L246.1,173.7z"/>
				</g>
			</g>
		</g>
	</g>
	<g>
		
			<rect x="299.3" y="270.1" transform="matrix(-0.9969 -7.809069e-02 7.809069e-02 -0.9969 587.3093 629.1269)" class="st15" width="13.3" height="65.9"/>
		<g>
			<path class="st5" d="M300.2,426.9c0.4,0,1.7,0.1,2.1,0.2c2.4,0.2,4.1,2.2,3.9,4.5c-0.2,2.4-2.2,4-4.6,3.9c-0.4,0-1.7-0.1-2.1-0.2
				c-2.4-0.2-4.1-2.2-3.9-4.5C295.7,428.4,297.8,426.7,300.2,426.9z"/>
			<path class="st7" d="M295.6,430.7c-0.2,2.4,1.6,4.4,3.9,4.6c2.4,0.2,4.4-1.6,4.6-3.9c0.2-2.4-1.6-4.4-3.9-4.6
				C297.8,426.6,295.8,428.4,295.6,430.7z"/>
		</g>
		<g>
			<path class="st5" d="M288.6,426c0.4,0,1.7,0.1,2.1,0.2c2.4,0.2,4.1,2.2,3.9,4.5c-0.2,2.4-2.2,4-4.6,3.9c-0.4,0-1.7-0.1-2.1-0.2
				c-2.4-0.2-4.1-2.2-3.9-4.5C284.2,427.5,286.3,425.8,288.6,426z"/>
			<path class="st13" d="M284,429.8c-0.2,2.4,1.6,4.4,3.9,4.6c2.4,0.2,4.4-1.6,4.6-3.9c0.2-2.4-1.6-4.4-3.9-4.6
				C286.3,425.7,284.2,427.5,284,429.8z"/>
		</g>
		<path class="st5" d="M286.5,427.3l16.7,1.3c1.5,0.1,2.8-1,2.9-2.5l7.8-99.8c0.1-1.5-1-2.8-2.5-2.9l-16.7-1.3
			c-1.5-0.1-2.8,1-2.9,2.5l-7.8,99.8C283.9,425.9,285.1,427.2,286.5,427.3z"/>
		<path class="st13" d="M294.7,427.9l8.5,0.7c1.5,0.1,2.8-1,2.9-2.5l7.8-99.8c0.1-1.5-1-2.8-2.5-2.9l-8.5-0.7
			c-1.5-0.1-2.8,1-2.9,2.5l-7.8,99.8C292.1,426.5,293.2,427.8,294.7,427.9z"/>
		<path class="st5" d="M301.5,271.7l14,1.1c1.1,0.1,2.1-0.7,2.2-1.8l0.1-1.5c0.1-1.1-0.7-2.1-1.8-2.2l-14-1.1
			c-1.1-0.1-2.1,0.7-2.2,1.8l-0.1,1.5C299.6,270.6,300.4,271.6,301.5,271.7z"/>
		<path class="st13" d="M301.5,271.7l14,1.1c1.1,0.1,2.1-0.7,2.2-1.8l0.1-1.5c0.1-1.1-0.7-2.1-1.8-2.2l-14-1.1
			c-1.1-0.1-2.1,0.7-2.2,1.8l-0.1,1.5C299.6,270.6,300.4,271.6,301.5,271.7z"/>
		<path class="st8" d="M301.5,271.7l1.4,0.1c1.1,0.1,2.1-0.7,2.1-1.8l0.1-1.5c0.1-1.1-0.7-2.1-1.8-2.1l-1.4-0.1
			c-1.1-0.1-2.1,0.7-2.1,1.8l-0.1,1.5C299.6,270.6,300.4,271.6,301.5,271.7z"/>
		<path class="st10" d="M344.3,334l-7,89.9c-0.3,3.3-3.2,5.8-6.5,5.5l-32.8-2.6c-2.3-0.2-4-2.2-3.9-4.5l7.3-93.4
			c0.2-2.3,2.2-4.1,4.5-3.9l32.8,2.6C342.1,327.8,344.6,330.7,344.3,334z"/>
		<path class="st13" d="M344.3,334l-7,89.9c-0.3,3.3-3.2,5.8-6.5,5.5l-32.8-2.6c-2.3-0.2-4-2.2-3.9-4.5l7.3-93.4
			c0.2-2.3,2.2-4.1,4.5-3.9l32.8,2.6C342.1,327.8,344.6,330.7,344.3,334z"/>
		<path class="st8" d="M321.8,326.2l0,0.1l-1.2-0.1c-2.3-0.2-4.3,1.6-4.5,3.9l-7.3,93.4c-0.1,2,1.1,3.7,2.9,4.3l-13.6-1.1
			c-2.3-0.2-4.1-2.2-3.9-4.5l7.3-93.4c0.2-2.3,2.2-4.1,4.5-3.9L321.8,326.2z"/>
		<path class="st8" d="M314.2,423.4l-0.6,0c-0.6,0-1-0.6-1-1.2l7.2-91.7c0-0.6,0.6-1,1.2-1l0.6,0c0.6,0,1,0.6,1,1.2l-7.2,91.7
			C315.4,423,314.8,423.4,314.2,423.4z"/>
		<path class="st8" d="M320.8,424.3l-0.6,0c-0.6,0-1-0.6-1-1.2l7.2-91.7c0-0.6,0.6-1,1.2-1l0.6,0c0.6,0,1,0.6,1,1.2l-7.2,91.7
			C321.9,423.9,321.4,424.4,320.8,424.3z"/>
		<path class="st8" d="M327.4,424.7l-0.6,0c-0.6,0-1-0.6-1-1.2l7.2-91.7c0-0.6,0.6-1,1.2-1l0.6,0c0.6,0,1,0.6,1,1.2l-7.2,91.7
			C328.5,424.3,328,424.8,327.4,424.7z"/>
		<path class="st8" d="M333.9,425.1l-0.6,0c-0.6,0-1-0.6-1-1.2l7.2-91.7c0-0.6,0.6-1,1.2-1l0.6,0c0.6,0,1,0.6,1,1.2l-7.2,91.7
			C335,424.7,334.5,425.1,333.9,425.1z"/>
	</g>
</g>
</svg>
