<?xml version="1.0" encoding="utf-8"?>
<!-- Generator: Adobe Illustrator 22.0.0, SVG Export Plug-In . SVG Version: 6.00 Build 0)  -->
<svg version="1.1" id="Capa_1" xmlns="http://www.w3.org/2000/svg" xmlns:xlink="http://www.w3.org/1999/xlink" x="0px" y="0px"
	 viewBox="0 0 393 500" style="enable-background:new 0 0 393 500;" xml:space="preserve">
<style type="text/css">
	.st0{fill:#2B454E;}
	.st1{fill:#1A2E35;}
	.st2{fill:#375A64;}
	.st3{fill:#F5F5F5;}
	.st4{fill:#ECECEC;}
	.st5{fill:#E1E1E1;}
	.st6{fill:none;stroke:#375A64;stroke-width:1.25;stroke-linecap:round;stroke-miterlimit:10;}
	.st7{fill:#00B520;}
	.st8{opacity:0.4;fill:#FFFFFF;}
	.st9{opacity:0.1;}
	.st10{opacity:0.2;}
	.st11{fill:#E7E7E7;}
	.st12{opacity:0.3;fill:#FFFFFF;}
	.st13{fill:#FAFAFA;}
	.st14{opacity:0.15;}
	.st15{opacity:0.5;fill:#FFFFFF;}
</style>
<g>
	<g id="Device_1_">
		<path id="XMLID_2690_" class="st0" d="M113.3,365.1l-2.6-1.5c-2.1-1.2-3.8-4.1-3.8-6.5V132c0-2.4,1.7-5.3,3.8-6.5l103.8-59.9
			c2.1-1.2,5.5-1.2,7.6,0l2.6,1.5c2.1,1.2,3.8,4.1,3.8,6.5v225.1c0,2.4-1.7,5.3-3.8,6.5l-103.8,59.9
			C118.8,366.3,115.4,366.3,113.3,365.1z"/>
		<path id="XMLID_2689_" class="st1" d="M122.1,136.4l-14.1-8.1c-0.7,1.2-1.1,2.5-1.1,3.7v225.1c0,2.4,1.7,5.3,3.8,6.5l2.6,1.5
			c2.1,1.2,5.5,1.2,7.6,0l1.3-0.7V136.4z"/>
		<path id="XMLID_2688_" class="st2" d="M117.1,137.9v225.1c0,2.4,1.7,3.4,3.8,2.2l103.8-59.9c2.1-1.2,3.8-4.1,3.8-6.5V73.6
			c0-2.4-1.7-3.4-3.8-2.2l-103.8,59.9C118.8,132.5,117.1,135.5,117.1,137.9z"/>
		<path id="XMLID_2687_" class="st3" d="M125.4,152.1l94.4-54.5c1.8-1,3.2-0.2,3.2,1.9V279c0,2.1-1.4,4.6-3.2,5.6l-94.4,54.5
			c-1.8,1-3.2,0.2-3.2-1.9l0-179.6C122.1,155.6,123.6,153.1,125.4,152.1z"/>
		<path id="XMLID_2655_" class="st1" d="M172.7,107.2c1.4-0.8,2.5-0.2,2.5,1.5c0,1.6-1.1,3.6-2.5,4.4c-1.4,0.8-2.5,0.2-2.5-1.5
			C170.2,110,171.4,108,172.7,107.2z"/>
		<g id="XMLID_2610_">
			<path id="XMLID_2653_" class="st1" d="M165.4,119.8c5.1-2.8,14.3-8.3,19.4-11.3c0.9-0.5,1.6-0.2,1.6,0.8s-0.7,2.1-1.6,2.6
				l-19.4,11.2c-0.9,0.5-1.6,0.1-1.6-0.8C163.8,121.4,164.6,120.3,165.4,119.8z"/>
			<path id="XMLID_2611_" class="st1" d="M160.5,122.7c0.8-0.5,1.4-0.1,1.4,0.8c0,0.9-0.6,2-1.4,2.5c-0.8,0.5-1.4,0.1-1.4-0.8
				C159.1,124.2,159.7,123.1,160.5,122.7z"/>
		</g>
		<path id="XMLID_2609_" class="st1" d="M172.7,317.6c2.8-1.6,5.1-0.3,5.1,2.9c0,3.2-2.3,7.2-5.1,8.8c-2.8,1.6-5.1,0.3-5.1-2.9
			C167.7,323.2,170,319.2,172.7,317.6z"/>
	</g>
	<g id="XMLID_2605_">
		<g id="XMLID_2596_">
			<path id="XMLID_2032_" class="st4" d="M203.9,124.3v103.1c0,1.4,1,3.1,2.2,3.8l3.8,2.2c1.2,0.7,3.1,0.7,4.3,0l64.9-37.5
				c1.2-0.7,2.2-2.4,2.2-3.8V89.1c0-1.4-1-3.1-2.2-3.8l-3.8-2.2c-1.2-0.7-3.1-0.7-4.3,0l-64.9,37.5
				C204.9,121.3,203.9,123,203.9,124.3z"/>
			<path id="XMLID_2877_" class="st3" d="M281.3,88.7c-0.2-1.1-1.1-1.5-2.2-0.9l-64.9,37.5c-0.6,0.3-1.1,0.9-1.5,1.6l-8.1-4.7
				c0.4-0.7,0.9-1.3,1.5-1.6L271,83.1c1.2-0.7,3.1-0.7,4.3,0l3.8,2.2C280.3,85.9,281.2,87.4,281.3,88.7z"/>
			<path id="XMLID_2882_" class="st5" d="M213.9,233.6c0,0-0.1,0-0.1,0.1c-0.1,0-0.2,0.1-0.3,0.1c0,0,0,0,0,0
				c-0.1,0-0.3,0.1-0.4,0.1c-0.9,0.2-1.8,0.1-2.6-0.2c-0.2-0.1-0.3-0.1-0.5-0.2l-3.8-2.2c-1.2-0.7-2.2-2.4-2.2-3.8V124.3
				c0-0.7,0.2-1.5,0.6-2.1l8.1,4.7c-0.4,0.7-0.6,1.4-0.6,2.1v103.1c0,0.5,0.1,0.9,0.3,1.1c0.3,0.3,0.7,0.5,1.2,0.4
				C213.7,233.6,213.8,233.6,213.9,233.6z"/>
		</g>
		<g id="XMLID_603_">
			<path id="XMLID_2542_" class="st6" d="M256.5,165.3c2.8,1.9,6.5,2,10.2,1.3"/>
			<path id="XMLID_2589_" class="st6" d="M247.2,145.4c3-0.9,4.8,0.6,5.1,4.9c0.4,5.2,0.3,10.2,3,13.2"/>
			<path id="XMLID_2593_" class="st6" d="M242.3,173.4c-2.3-5.5-3.4-22.6,3.1-27.1"/>
			<path id="XMLID_2170_" class="st6" d="M261.7,184c-7.4,0.9-14.4-1.3-18.3-8.3"/>
			<path id="XMLID_610_" class="st6" d="M263.2,180c-11.9,1.3-20.4-4.8-19-25c0.1-1.9,1.2-4.1,2.6-4.9c0,0,0,0,0.1,0
				c1.4-0.8,2.9,0.1,2.9,2.1c-0.2,14.5,4.5,21.2,16.4,19.1"/>
			<g id="XMLID_2030_">
				<path id="XMLID_607_" class="st6" d="M258.9,188.8c-14.9,1-22.8-8.9-21.7-29.7c0.4-6.9,3-14.5,8.2-17.5c0.1,0,0.2-0.1,0.2-0.1
					c5.2-2.9,9.3,0.1,9.9,7.2c0.5,6.8,0.7,14.8,11.9,12.9"/>
				<path id="XMLID_2518_" class="st6" d="M248.7,192.6c2.2,0.8,4.6,1.3,7,1.3"/>
				<path id="XMLID_2511_" class="st6" d="M237.3,183.5c2.1,4.3,5.7,6.9,9,8.4"/>
				<path id="XMLID_606_" class="st6" d="M238.1,145.1c-6.4,11.8-4.8,27.7-2.1,35.4"/>
				<path id="XMLID_2524_" class="st6" d="M258.8,147.9c-0.6-6.4-2.2-10.8-6.9-11.9c-3.7-0.8-8.5,1.5-12.3,6.7"/>
				<path id="XMLID_2514_" class="st6" d="M267.9,157.1c-3.8,1.3-7.9,0.5-8.6-5.3"/>
				<path id="XMLID_605_" class="st6" d="M268.2,152.7c-4,0.1-5.9-1.7-6.8-8.9c-1.5-11-7.2-15.8-16.1-10.6
					c-9.3,5.4-14.9,18.6-15.3,29.6c-0.8,20.7,5.7,28.9,15.9,33c3.8,1.4,5.8,1.7,7.1,1.8"/>
			</g>
			<path id="XMLID_2172_" class="st6" d="M263.1,137.6c0.8,4.3,1.2,10.4,5.1,10.3"/>
			<path id="XMLID_2167_" class="st6" d="M254.4,126.6c3.8,0.7,6.6,3.9,8.1,8.5"/>
			<path id="XMLID_2034_" class="st6" d="M239.6,133c4-4.2,8.7-6.4,12.7-6.6"/>
			<path id="XMLID_614_" class="st6" d="M228.1,152.8c1.6-6.5,5.1-12.9,9.2-17.7"/>
			<path id="XMLID_615_" class="st6" d="M226.6,173.5c-0.6-5.4-0.6-11.4,0.6-17.7"/>
			<path id="XMLID_604_" class="st6" d="M231.7,190.4c-2.2-3.7-3.8-8.5-4.7-13.4"/>
			<path id="XMLID_613_" class="st6" d="M247,202.1c-4.7-1.9-10-4.7-13.3-9.2"/>
			<path id="XMLID_2523_" class="st6" d="M241.7,205.1c-14.1-5.8-19-21-19-38c0-16.9,8-35.2,22.5-43.2c9.9-5.4,23,0.5,23,17.4"/>
			<path id="XMLID_2594_" class="st6" d="M259.7,175.8c1.7,0.1,3.5,0,5.3-0.2"/>
			<path id="XMLID_609_" class="st6" d="M250.1,170.4c1.4,2.8,4.2,4.6,7.1,5.2"/>
			<path id="XMLID_608_" class="st6" d="M247.1,153.3c-0.5,5.8,0.3,11.2,1.9,15"/>
			<path id="XMLID_2595_" class="st6" d="M251.5,116.6c3.7-0.9,8.9,0.2,11.7,2.2"/>
			<path id="XMLID_2590_" class="st6" d="M233.7,127.3c4.2-4.8,10-8.1,14.4-9.8"/>
			<path id="XMLID_612_" class="st6" d="M228.8,202.4c1.5,1.9,3.3,3.4,5.4,4.3"/>
			<path id="XMLID_611_" class="st6" d="M222.2,191.2c1.1,3.3,3.1,6.4,4.8,8.6"/>
		</g>
	</g>
	<g id="Letter_2_">
		<g id="XMLID_2676_">
			<g id="XMLID_2678_">
				<path id="XMLID_2680_" class="st7" d="M64.6,250.1c0-1.2,0.9-2.7,1.9-3.3L165,190c1.1-0.6,2.8-0.6,3.8,0l2.2,1.3
					c1.1,0.6,1.9,2.1,1.9,3.3V270c0,1.2-0.9,2.7-1.9,3.3l-98.4,56.8c-1.1,0.6-2.8,0.6-3.8,0l-2.2-1.3c-1.1-0.6-1.9-2.1-1.9-3.3
					L64.6,250.1z"/>
			</g>
		</g>
		<path id="XMLID_2675_" class="st8" d="M65.2,248.2l5.5,3.1l101.7-58.7c-0.3-0.6-0.8-1.1-1.4-1.4l-2.2-1.2c-1.1-0.6-2.8-0.6-3.8,0
			l-98.4,56.8C66,247.1,65.6,247.6,65.2,248.2z"/>
		<path id="XMLID_2673_" class="st9" d="M64.6,250.1v75.5c0,1.2,0.9,2.7,1.9,3.3l2.2,1.3c0.2,0.1,0.3,0.2,0.5,0.2
			c0.2,0.1,0.5,0.1,0.8,0.2c0.5,0.1,1,0,1.5-0.1c0.1,0,0.3-0.1,0.4-0.1c0.1,0,0.2-0.1,0.2-0.1c-0.4,0.1-0.7,0.1-0.9,0
			c-0.4-0.2-0.6-0.6-0.6-1.3v-75.5c0-0.8,0.4-1.4,1-1.6l-1-0.6l-5.5-3.1C64.9,248.8,64.6,249.5,64.6,250.1z"/>
		<path id="XMLID_2672_" class="st10" d="M70.7,251.4l45.6,17c3.2,1.2,6.9,0,8.8-2.9l7.3-11.2l40.4-61.9l-38.9,62.3L173,270
			c0,0.6-0.2,1.3-0.6,1.9l-38.6-17.1l-8.5,13.6c-2,3.1-5.9,4.3-9.3,2.8l-6.1-2.7l-38.6,61.6c-0.4-0.2-0.6-0.6-0.6-1.3v-1.3l39-59.2
			L70.7,251.4z"/>
	</g>
	<g id="XMLID_2713_">
		<g id="XMLID_2683_">
			<g id="XMLID_3095_">
				<path id="XMLID_3111_" class="st0" d="M251.4,322.7c0-1.7-1.2-3.8-2.7-4.7l-2.2-1.3c-1.5-0.9-3.9-0.9-5.4,0l-72.6,41.9
					c-1.5,0.9-2.7,2.9-2.7,4.7v8.6c0,1.7,1.2,3.8,2.7,4.7l2.2,1.3c1.5,0.9,3.9,0.9,5.4,0l72.6-41.9c1.5-0.9,2.7-2.9,2.7-4.7
					L251.4,322.7z"/>
				<path id="XMLID_3110_" class="st1" d="M165.9,371.8c0,1.7,1.2,3.8,2.7,4.7l2.2,1.3c1.3,0.8,3.4,0.8,4.9,0.2
					c-1.3,0.5-2.2-0.2-2.2-1.8l0-8.6c0-0.9,0.3-1.8,0.8-2.6l-7.6-4.4c-0.5,0.8-0.8,1.8-0.8,2.6V371.8z"/>
				<path id="XMLID_3109_" class="st2" d="M251.4,321.9c-0.3-1.1-1.4-1.5-2.6-0.8L176.1,363c-0.7,0.4-1.4,1.2-1.9,2l-7.6-4.4
					c0.5-0.9,1.2-1.6,1.9-2l72.6-41.9c1.5-0.9,3.9-0.9,5.4,0l2.2,1.3C250,318.7,251.1,320.4,251.4,321.9z"/>
			</g>
			<g id="XMLID_3115_">
				<path id="XMLID_3150_" class="st11" d="M182.7,364.1c1.4-0.8,2.6-0.2,2.6,1.5c0,1.6-1.1,3.6-2.6,4.4c-1.4,0.8-2.6,0.2-2.6-1.5
					C180.1,366.9,181.3,364.9,182.7,364.1z"/>
				<path id="XMLID_3149_" class="st11" d="M191.1,359.2c1.4-0.8,2.6-0.2,2.6,1.5c0,1.6-1.1,3.6-2.6,4.4c-1.4,0.8-2.6,0.2-2.6-1.5
					C188.6,362,189.7,360,191.1,359.2z"/>
				<path id="XMLID_3148_" class="st11" d="M199.6,354.3c1.4-0.8,2.6-0.2,2.6,1.5c0,1.6-1.1,3.6-2.6,4.4c-1.4,0.8-2.6,0.2-2.6-1.5
					C197,357.1,198.2,355.1,199.6,354.3z"/>
				<path id="XMLID_3147_" class="st11" d="M208,349.4c1.4-0.8,2.6-0.2,2.6,1.5c0,1.6-1.1,3.6-2.6,4.4c-1.4,0.8-2.6,0.2-2.6-1.5
					C205.5,352.2,206.6,350.3,208,349.4z"/>
				<path id="XMLID_3146_" class="st11" d="M216.5,344.6c1.4-0.8,2.6-0.2,2.6,1.5c0,1.6-1.1,3.6-2.6,4.4c-1.4,0.8-2.6,0.2-2.6-1.5
					C213.9,347.4,215,345.4,216.5,344.6z"/>
				<path id="XMLID_3145_" class="st11" d="M224.9,339.7c1.4-0.8,2.6-0.2,2.6,1.5c0,1.6-1.1,3.6-2.6,4.4c-1.4,0.8-2.6,0.2-2.6-1.5
					C222.3,342.5,223.5,340.5,224.9,339.7z"/>
				
					<ellipse id="XMLID_3144_" transform="matrix(0.5 -0.8661 0.8661 0.5 -175.853 370.9823)" class="st11" cx="233.3" cy="337.8" rx="3.6" ry="2.1"/>
				<path id="XMLID_3143_" class="st11" d="M241.8,330c1.4-0.8,2.6-0.2,2.6,1.5c0,1.6-1.1,3.6-2.6,4.4c-1.4,0.8-2.6,0.2-2.6-1.5
					C239.2,332.7,240.4,330.8,241.8,330z"/>
			</g>
		</g>
		<g id="XMLID_2684_">
			<g id="XMLID_1795_">
				<path id="XMLID_2607_" class="st0" d="M251.4,350.9c0-1.7-1.2-3.8-2.7-4.7l-2.2-1.3c-1.5-0.9-3.9-0.9-5.4,0l-72.6,41.9
					c-1.5,0.9-2.7,2.9-2.7,4.7v8.6c0,1.7,1.2,3.8,2.7,4.7l2.2,1.3c1.5,0.9,3.9,0.9,5.4,0l72.6-41.9c1.5-0.9,2.7-2.9,2.7-4.7
					L251.4,350.9z"/>
				<path id="XMLID_1797_" class="st1" d="M165.9,400.1c0,1.7,1.2,3.8,2.7,4.7l2.2,1.3c1.3,0.8,3.4,0.8,4.9,0.2
					c-1.3,0.5-2.2-0.2-2.2-1.8l0-8.6c0-0.9,0.3-1.8,0.8-2.6l-7.6-4.4c-0.5,0.8-0.8,1.8-0.8,2.6V400.1z"/>
				<path id="XMLID_1796_" class="st2" d="M251.4,350.1c-0.3-1.1-1.4-1.5-2.6-0.8l-72.6,41.9c-0.7,0.4-1.4,1.2-1.9,2l-7.6-4.4
					c0.5-0.9,1.2-1.6,1.9-2l72.6-41.9c1.5-0.9,3.9-0.9,5.4,0l2.2,1.3C250,346.9,251.1,348.6,251.4,350.1z"/>
			</g>
			<g id="XMLID_601_">
				<path id="XMLID_1772_" class="st11" d="M182.7,392.3c1.4-0.8,2.6-0.2,2.6,1.5c0,1.6-1.1,3.6-2.6,4.4c-1.4,0.8-2.6,0.2-2.6-1.5
					C180.1,395.1,181.3,393.1,182.7,392.3z"/>
				<path id="XMLID_1574_" class="st11" d="M191.1,387.4c1.4-0.8,2.6-0.2,2.6,1.5c0,1.6-1.1,3.6-2.6,4.4c-1.4,0.8-2.6,0.2-2.6-1.5
					C188.6,390.2,189.7,388.2,191.1,387.4z"/>
				<path id="XMLID_1573_" class="st11" d="M199.6,382.5c1.4-0.8,2.6-0.2,2.6,1.5c0,1.6-1.1,3.6-2.6,4.4c-1.4,0.8-2.6,0.2-2.6-1.5
					C197,385.3,198.2,383.3,199.6,382.5z"/>
				<path id="XMLID_1496_" class="st11" d="M208,377.7c1.4-0.8,2.6-0.2,2.6,1.5c0,1.6-1.1,3.6-2.6,4.4c-1.4,0.8-2.6,0.2-2.6-1.5
					C205.5,380.4,206.6,378.5,208,377.7z"/>
				<path id="XMLID_1495_" class="st11" d="M216.5,372.8c1.4-0.8,2.6-0.2,2.6,1.5c0,1.6-1.1,3.6-2.6,4.4c-1.4,0.8-2.6,0.2-2.6-1.5
					C213.9,375.6,215,373.6,216.5,372.8z"/>
				<path id="XMLID_1427_" class="st11" d="M224.9,367.9c1.4-0.8,2.6-0.2,2.6,1.5c0,1.6-1.1,3.6-2.6,4.4c-1.4,0.8-2.6,0.2-2.6-1.5
					C222.3,370.7,223.5,368.7,224.9,367.9z"/>
				<path id="XMLID_1425_" class="st11" d="M233.3,363c1.4-0.8,2.6-0.2,2.6,1.5c0,1.6-1.1,3.6-2.6,4.4c-1.4,0.8-2.6,0.2-2.6-1.5
					C230.8,365.8,231.9,363.9,233.3,363z"/>
				<path id="XMLID_602_" class="st11" d="M241.8,358.2c1.4-0.8,2.6-0.2,2.6,1.5c0,1.6-1.1,3.6-2.6,4.4c-1.4,0.8-2.6,0.2-2.6-1.5
					C239.2,361,240.4,359,241.8,358.2z"/>
			</g>
		</g>
		<g id="XMLID_2682_">
			<g id="XMLID_3090_">
				<path id="XMLID_3093_" class="st7" d="M163.5,373.4c0-1.7-1.2-3.8-2.7-4.7l-2.2-1.3c-1.5-0.9-3.9-0.9-5.4,0l-33.6,19.4
					c-1.5,0.9-2.7,2.9-2.7,4.7v36.8c0,1.7,1.2,3.8,2.7,4.7l2.2,1.3c1.5,0.9,3.9,0.9,5.4,0l33.6-19.4c1.5-0.9,2.7-2.9,2.7-4.7
					L163.5,373.4z"/>
				<path id="XMLID_3092_" class="st10" d="M117,428.3c0,1.7,1.2,3.8,2.7,4.7l2.2,1.3c1.3,0.8,3.4,0.8,4.9,0.2
					c-1.3,0.5-2.2-0.2-2.2-1.8l0-36.8c0-0.9,0.3-1.8,0.8-2.6l-7.6-4.4c-0.5,0.8-0.8,1.8-0.8,2.6V428.3z"/>
				<path id="XMLID_3091_" class="st12" d="M163.4,372.6c-0.3-1.1-1.4-1.5-2.6-0.8l-33.6,19.4c-0.7,0.4-1.4,1.2-1.9,2l-7.6-4.4
					c0.5-0.9,1.2-1.6,1.9-2l33.5-19.4c1.5-0.9,3.9-0.9,5.4,0l2.2,1.3C162.1,369.5,163.1,371.1,163.4,372.6z"/>
			</g>
			<path id="XMLID_3058_" class="st13" d="M143.5,387.8c3.2-1.9,5.8-0.4,5.8,3.4c0,3.7-2.6,8.3-5.8,10.1c-3.2,1.9-5.8,0.4-5.8-3.4
				C137.7,394.2,140.3,389.6,143.5,387.8z"/>
			<path id="XMLID_3057_" class="st13" d="M155,407.6c0-6.1-4.3-8.6-9.6-5.5l-3.3,1.9c-5.3,3.1-9.6,10.5-9.6,16.6v1.6
				c3.1,1,19.4-8.5,22.5-13.2V407.6z"/>
		</g>
	</g>
	<g id="XMLID_1878_">
		<g id="XMLID_2780_">
			<path id="XMLID_2781_" class="st7" d="M297.1,305.7C297.1,305.7,297.1,305.7,297.1,305.7l-12.2-7.1c0,0,0,0,0,0
				c-0.5-0.3-1.2-0.1-2,0.6c-0.4,0.3-0.9,0.7-1.4,1c-0.2,0.1-0.3,0.2-0.5,0.3c-0.3,0.2-0.6,0.4-0.9,0.6c-0.2,0.1-0.4,0.2-0.6,0.4
				c-0.3,0.2-0.5,0.3-0.8,0.4c-0.2,0.1-0.5,0.2-0.7,0.4c-0.2,0.1-0.5,0.2-0.7,0.4c-0.3,0.1-0.5,0.2-0.8,0.4
				c-0.2,0.1-0.5,0.2-0.7,0.3c-0.3,0.1-0.6,0.2-0.9,0.3c-0.2,0.1-0.4,0.2-0.6,0.2c-0.3,0.1-0.6,0.2-1,0.3c-0.2,0.1-0.4,0.1-0.6,0.2
				c-0.3,0.1-0.7,0.2-1,0.3c-0.2,0-0.3,0.1-0.5,0.1c-0.4,0.1-0.7,0.2-1.1,0.2c-0.2,0-0.3,0.1-0.5,0.1c-0.4,0.1-0.8,0.1-1.2,0.2
				c-0.1,0-0.3,0-0.4,0c-0.4,0-0.8,0.1-1.2,0.1c-0.1,0-0.2,0-0.3,0c-0.4,0-0.9,0-1.3,0c-0.1,0-0.2,0-0.3,0c-0.4,0-0.9,0-1.3,0
				c-0.1,0-0.1,0-0.2,0c-0.5,0-0.9-0.1-1.4-0.1c0,0-0.1,0-0.1,0c-0.5,0-0.9-0.1-1.4-0.2c0,0,0,0-0.1,0c-0.4-0.1-0.8-0.1-1.2-0.2
				c-0.3-0.3-0.6-0.5-0.8-0.7l0,0l-0.1-0.1l0,0l-12.1-7l0,0c-1-0.6-1.9-0.2-2.5,1.3c-7.9,19.6-24.7,39.4-35.9,44.4
				c-0.2,0.1-0.4,0.2-0.6,0.3c-0.1,0.1-0.3,0.2-0.4,0.3c-0.1,0-0.1,0.1-0.2,0.1c-0.2,0.1-0.3,0.3-0.5,0.4c0,0,0,0,0,0
				c-0.2,0.2-0.3,0.3-0.5,0.5l0,0l0,0c-0.8,0.9-1.3,2-1.2,3.2l1.6,44c0,12.8,5.5,26.4,16.6,32.8l0,0l0,0c0,0,0,0,0,0l12.2,7.1l0,0
				l0.2,0.1l0,0c5,2.9,11.2,4.3,18.6,3.6c2.1-0.2,4.9-1.7,6.4-3.2c24.5-25.3,36.4-59.5,36.4-78.4l1.6-46
				C297.8,306.6,297.5,305.9,297.1,305.7z"/>
			<path id="XMLID_2786_" class="st14" d="M234.3,431.3l-11.9-6.9h0c-11.1-6.5-16.6-20-16.6-32.8l-1.6-44c-0.1-1.5,0.8-2.9,2-3.9
				c-0.3,0.2-0.5,0.5-0.7,0.7l12.2,7c-0.8,0.9-1.3,2-1.2,3.2l1.6,44C218,411.3,223.4,424.8,234.3,431.3z"/>
			<path id="XMLID_2783_" class="st12" d="M297.1,305.7c-0.5-0.2-1.2-0.1-2,0.6c-11,8.4-27.4,8.4-35.8-1.3c-0.1-0.1-0.1-0.1-0.2-0.2
				c7.8,1.7,16.8-0.3,23.7-5.6c0.9-0.7,1.6-0.8,2-0.6c0,0,0,0,0,0L297.1,305.7z"/>
			<path id="XMLID_2782_" class="st15" d="M258.1,304L258.1,304c-0.9-0.4-1.8,0-2.3,1.4c-7.9,19.6-24.7,39.4-35.9,44.4
				c-0.8,0.4-1.6,0.9-2.2,1.6l-12.2-7c0.2-0.3,0.5-0.5,0.7-0.7c0.1-0.1,0.2-0.2,0.3-0.2c0.1-0.1,0.2-0.1,0.3-0.2
				c0.1-0.1,0.2-0.1,0.3-0.2c0.2-0.1,0.4-0.2,0.6-0.3c11.2-5,28-24.8,35.9-44.4c0.4-1,1-1.5,1.7-1.5c0.3,0,0.5,0.1,0.8,0.2
				L258.1,304z"/>
		</g>
		<g id="XMLID_1877_">
			<polygon id="XMLID_1989_" class="st2" points="318.1,347.9 311.6,344.2 286,404.4 290.3,406.9 			"/>
			<polygon id="XMLID_1876_" class="st2" points="279.3,388.4 272.8,384.6 265.8,399.4 272.3,403.2 			"/>
			<g id="XMLID_3023_">
				<polygon id="XMLID_3024_" class="st0" points="292,424.6 272.3,403.2 279.3,388.4 290.3,406.9 318.1,347.9 328.4,357.9 				"/>
			</g>
			<polygon id="XMLID_1994_" class="st1" points="265.8,399.4 272.3,403.2 292,424.6 285.5,420.9 			"/>
		</g>
	</g>
</g>
</svg>
