<?xml version="1.0" encoding="utf-8"?>
<!-- Generator: Adobe Illustrator 22.0.0, SVG Export Plug-In . SVG Version: 6.00 Build 0)  -->
<svg version="1.1" id="Capa_1" xmlns="http://www.w3.org/2000/svg" xmlns:xlink="http://www.w3.org/1999/xlink" x="0px" y="0px"
	 viewBox="0 0 106.8 115.6" style="enable-background:new 0 0 106.8 115.6;" xml:space="preserve">
<style type="text/css">
	.st0{fill:#00B520;}
</style>
<g>
	<path class="st0" d="M31.9,66.7c-4.1,0-7.4,3.3-7.4,7.4c0,4.1,3.3,7.4,7.4,7.4s7.4-3.3,7.4-7.4C39.3,70,36,66.7,31.9,66.7z
		 M35,74.1c0,1.7-1.4,3.1-3.1,3.1c-1.7,0-3.1-1.4-3.1-3.1c0-1.7,1.4-3.1,3.1-3.1C33.6,71,35,72.4,35,74.1z"/>
	<path class="st0" d="M103.3,66.4c-1.2,0-2.2,1-2.2,2.2c0,3.9-3.2,7.1-7.1,7.1S87,72.5,87,68.6s3.2-7.1,7.1-7.1c1.2,0,2.2-1,2.2-2.2
		V20.5c4.6-1,7.9-5.1,7.9-9.8c0-5.5-4.5-10-10-10c-5,0-9.2,3.6-9.9,8.4L32.7,53.6c-5.1-0.3-10.2,1.5-14.1,5
		c-3.7,3.2-6.1,7.6-6.7,12.5l-5.5,40.2H3.2c-1.2,0-2.2,1-2.2,2.2c0,1.2,1,2.2,2.2,2.2h57.4c1.2,0,2.2-1,2.2-2.2c0-1.2-1-2.2-2.2-2.2
		h-3.3l-5.5-40.2c-0.2-1.5-0.6-2.9-1.1-4.2L91,20.2c0.3,0.1,0.6,0.2,1,0.3v36.9c-5.4,1-9.2,5.7-9.2,11.2c0,6.3,5.1,11.4,11.4,11.4
		c6.3,0,11.4-5.1,11.4-11.4C105.5,67.4,104.5,66.4,103.3,66.4z M47.6,71.6l5.4,39.6H10.8l5.4-39.6c0.5-3.8,2.4-7.3,5.3-9.8
		c2.9-2.5,6.5-3.9,10.4-3.9c0.5,0,0.9,0,1.4,0.1c5.4,0.4,10.1,3.6,12.6,8.4c0.2,0.3,0.3,0.6,0.5,1C46.9,68.6,47.3,70.1,47.6,71.6z
		 M85.6,16c0.1,0.2,0.2,0.4,0.4,0.6c0.1,0.2,0.3,0.4,0.4,0.5c0.2,0.2,0.3,0.4,0.5,0.5c0.1,0.1,0.2,0.2,0.3,0.3L48.7,62.7
		c-0.2-0.3-0.4-0.6-0.6-0.9l-0.2-0.3c-0.3-0.4-0.6-0.8-1-1.2l-0.1-0.1c-0.4-0.4-0.8-0.9-1.3-1.3c-0.4-0.4-0.9-0.7-1.4-1.1l-0.1-0.1
		c-1-0.7-2-1.3-3-1.9l-0.2-0.1c-0.6-0.3-1.1-0.5-1.6-0.7c-0.3-0.1-0.6-0.2-0.9-0.3l46.6-40.2c0.1,0.2,0.1,0.3,0.2,0.4
		c0.1,0.2,0.2,0.3,0.3,0.5l0.4-0.2l-0.4,0.4C85.4,15.6,85.5,15.8,85.6,16z M94.1,5c3.1,0,5.7,2.6,5.7,5.7c0,3.1-2.6,5.7-5.7,5.7
		c-0.9,0-1.9-0.2-2.7-0.7c-1.8-1-3-3-3-5.1c0-0.1,0-0.1,0-0.3C88.6,7.4,91.1,5,94.1,5z"/>
</g>
</svg>
