<?xml version="1.0" encoding="utf-8"?>
<!-- Generator: Adobe Illustrator 22.0.0, SVG Export Plug-In . SVG Version: 6.00 Build 0)  -->
<svg version="1.1" id="Capa_1" xmlns="http://www.w3.org/2000/svg" xmlns:xlink="http://www.w3.org/1999/xlink" x="0px" y="0px"
	 viewBox="0 0 136.3 88.8" style="enable-background:new 0 0 136.3 88.8;" xml:space="preserve">
<style type="text/css">
	.st0{fill:#00B900;}
</style>
<g>
	<g>
		<path class="st0" d="M9.3,80.6c-2.3,0-4.1-1.9-4.1-4.1V12.4c0-2.3,1.9-4.1,4.1-4.1h100.1c0.7,2.9,3.6,4.8,6.5,4.3
			c3.1-0.5,5.2-3.5,4.7-6.6c-0.3-1.5-1.1-2.8-2.3-3.7c-1.3-0.9-2.8-1.2-4.3-1c-1.7,0.3-3.2,1.4-4.1,2.9H9.3C4.7,4.1,1,7.8,1,12.4
			v64.2c0,4.6,3.7,8.3,8.3,8.3c1.1,0,2.1-0.9,2.1-2.1C11.4,81.6,10.4,80.6,9.3,80.6z"/>
		<path class="st0" d="M127,4.1L127,4.1c-1.1,0-2.1,0.9-2.1,2.1c0,1.1,0.9,2.1,2.1,2.1c2.3,0,4.1,1.9,4.1,4.1v64.2
			c0,2.3-1.9,4.1-4.1,4.1H27.3c-1.2-2.8-4.4-4.1-7.3-3c-1.4,0.5-2.6,1.6-3.2,3c-0.6,1.4-0.7,3-0.1,4.4c0.9,2.3,3.1,3.7,5.4,3.7
			c0.7,0,1.4-0.1,2-0.4c1.6-0.6,2.9-1.9,3.4-3.6H127c4.6,0,8.3-3.7,8.3-8.3V12.4C135.2,7.8,131.5,4.1,127,4.1z"/>
		<path class="st0" d="M119.4,52.1c-8,0-14.2,10.2-15.6,17.5c0,0.1-0.1,0.2-0.2,0.2c-1.1,0-2.1,0.9-2.1,2.1c0,1.1,0.9,2.1,2.1,2.1
			c2.1,0,3.9-1.5,4.3-3.6c1.1-5.8,6.1-14.1,11.5-14.1l5.4,0c0.6,0,1.1-0.2,1.5-0.5c0.4-0.4,0.7-0.9,0.7-1.4l0-18.1
			c0-0.6-0.2-1.1-0.6-1.5c-0.4-0.4-1-0.6-1.5-0.6h-5.5c-6.3,0-11.8-8.2-11.8-14.9c0-1.2-0.5-2.3-1.3-3.1c-0.8-0.8-1.9-1.3-3.1-1.3
			H48.7c-1.4-2.4-4.5-3.2-6.9-1.9c-2.6,1.4-3.5,4.5-2.2,7.1c1.4,2.6,4.5,3.5,7.1,2.2c1.3-0.7,2.2-1.8,2.6-3.2h53.9
			c0.1,0,0.1,0,0.2,0.1c0,0,0.1,0.1,0.1,0.2c0,8.6,7.1,19.1,15.9,19.1h3.5v13.8L119.4,52.1z"/>
		<path class="st0" d="M17.1,54.7c2.9,0,5.2,1.7,6.7,3.1c3,3,5,7.7,5,11.8c0,2.4,2,4.4,4.4,4.4h54.5c0.7,1.1,1.7,1.9,2.9,2.3
			c0.5,0.2,1,0.2,1.5,0.2c0.8,0,1.7-0.2,2.5-0.6c1.2-0.7,2.1-1.8,2.6-3.1s0.3-2.8-0.4-4c-0.7-1.2-1.8-2.1-3.1-2.6
			c-1.3-0.4-2.8-0.3-4,0.4c-1.3,0.7-2.2,1.8-2.6,3.2l-53.9,0c-0.1,0-0.3-0.1-0.3-0.3c0-8.6-7.1-19.1-15.9-19.1h-3.5V36.7H17
			c8,0,14.2-10.2,15.6-17.5c0-0.1,0.1-0.2,0.2-0.2c1.1,0,2.1-0.9,2.1-2.1c0-1.1-0.9-2.1-2.1-2.1c-2.1,0-3.9,1.5-4.3,3.6
			c-1.1,5.8-6.1,14.1-11.5,14.1l-5.4,0c-0.6,0-1.1,0.2-1.6,0.6c-0.4,0.4-0.6,0.9-0.6,1.5v18c0,0.6,0.2,1.1,0.6,1.5
			c0.4,0.4,1,0.6,1.5,0.6H17.1C17,54.7,17,54.7,17.1,54.7z"/>
	</g>
	<g>
		<path class="st0" d="M75.2,53.1c-1.1,1.2-2.6,1.9-4.4,2.3v2c0,0.6-0.2,1-0.6,1.4c-0.4,0.4-0.9,0.6-1.4,0.6c-0.5,0-1-0.2-1.4-0.6
			c-0.4-0.4-0.6-0.9-0.6-1.4v-1.8c-1.2-0.1-2.3-0.4-3.2-0.8c-1-0.4-1.9-1-2.8-1.8c-0.6-0.5-0.9-1.1-0.9-1.7c0-0.5,0.2-0.9,0.6-1.3
			c0.4-0.4,0.8-0.6,1.3-0.6c0.4,0,0.8,0.1,1.1,0.4c0.7,0.5,1.3,1,1.9,1.3c0.6,0.3,1.3,0.5,2,0.6v-6.4c-4.4-0.8-6.6-3-6.6-6.6
			c0-1.8,0.6-3.3,1.8-4.5c1.2-1.2,2.8-1.9,4.8-2.2V31c0-0.6,0.2-1,0.6-1.4c0.4-0.4,0.9-0.6,1.4-0.6c0.5,0,1,0.2,1.4,0.6
			c0.4,0.4,0.6,0.9,0.6,1.4v1.2c1.9,0.3,3.4,1,4.6,2c0.6,0.5,1,1.1,1,1.7c0,0.5-0.2,0.9-0.6,1.3c-0.4,0.4-0.8,0.6-1.3,0.6
			c-0.3,0-0.6-0.1-0.9-0.3c-0.7-0.5-1.6-1-2.8-1.4v6.1c2.1,0.5,3.7,1.2,4.6,2.2c1,1,1.4,2.4,1.4,4.3C76.9,50.5,76.4,51.9,75.2,53.1z
			 M64.8,40.3c0.5,0.4,1.1,0.8,2,1.1v-5.5c-0.9,0.2-1.6,0.5-2,1c-0.5,0.5-0.7,1-0.7,1.7C64.2,39.3,64.4,39.9,64.8,40.3z M72.4,50.4
			C72.8,50,73,49.5,73,49c0-0.6-0.2-1.1-0.5-1.6c-0.4-0.4-0.9-0.8-1.6-1.1v5.2C71.5,51.2,72,50.8,72.4,50.4z"/>
	</g>
</g>
</svg>
