<?xml version="1.0" encoding="utf-8"?>
<!-- Generator: Adobe Illustrator 22.0.0, SVG Export Plug-In . SVG Version: 6.00 Build 0)  -->
<svg version="1.1" id="Capa_1" xmlns="http://www.w3.org/2000/svg" xmlns:xlink="http://www.w3.org/1999/xlink" x="0px" y="0px"
	 viewBox="0 0 155 90.8" style="enable-background:new 0 0 155 90.8;" xml:space="preserve">
<style type="text/css">
	.st0{fill:#00B520;}
</style>
<g>
	<g>
		<path class="st0" d="M130.4,59.7h-4.8c-1.4,0-2.5,1.1-2.5,2.5c0,1.4,1.1,2.5,2.5,2.5h4.8c1.4,0,2.5-1.1,2.5-2.5
			C132.9,60.8,131.8,59.7,130.4,59.7z"/>
		<path class="st0" d="M151.4,59.9h-4.8c-1.4,0-2.5,1.1-2.5,2.5c0,1.4,1.1,2.5,2.5,2.5h4.8c1.4,0,2.5-1.1,2.5-2.5
			C153.9,61,152.7,59.9,151.4,59.9z"/>
		<path class="st0" d="M138.7,65.2c-1.4,0-2.5,1.1-2.5,2.5v4.8c0,1.4,1.1,2.5,2.5,2.5c1.4,0,2.5-1.1,2.5-2.5v-4.8
			C141.2,66.3,140.1,65.2,138.7,65.2z"/>
		<path class="st0" d="M136.9,57.9c0.5,0.5,1.1,0.7,1.8,0.7c1.4,0,2.5-1.1,2.5-2.5V28.8c0-1-0.7-2-1.6-2.3L72,1.2
			c-0.6-0.2-1.2-0.2-1.7,0L2.8,26.5c-1,0.4-1.6,1.3-1.6,2.3c0,1,0.6,2,1.6,2.3l22.8,9.2v36.4c0,9.5,23.7,13.9,45.7,13.9
			s45.7-4.3,45.7-13.9V40.9l12.1-4.7c0.6-0.2,1.1-0.7,1.4-1.3c0.3-0.6,0.3-1.3,0-1.9c-0.2-0.6-0.7-1.1-1.3-1.4
			c-0.6-0.3-1.3-0.3-1.9,0l-56,22L10.5,28.9L71.1,6.2l65,24.3v25.6C136.2,56.8,136.4,57.5,136.9,57.9z M70.2,58.5
			c0.6,0.2,1.3,0.2,1.9,0l39.8-15.6v33.9c0,1.3-3.2,3.6-10.4,5.5c-5.6,1.5-15.5,3.4-30.3,3.4c-14.8,0-24.6-1.8-30.3-3.4
			c-7.2-2-10.4-4.2-10.4-5.5V42.4L70.2,58.5z"/>
	</g>
</g>
</svg>
