<?xml version="1.0" standalone="no"?>
<!DOCTYPE svg PUBLIC "-//W3C//DTD SVG 20010904//EN"
 "http://www.w3.org/TR/2001/REC-SVG-20010904/DTD/svg10.dtd">
<svg version="1.0" xmlns="http://www.w3.org/2000/svg"
 width="500.000000pt" height="500.000000pt" viewBox="0 0 500.000000 500.000000"
 preserveAspectRatio="xMidYMid meet">
<metadata>
Created by potrace 1.11, written by Peter Selinger 2001-2013
</metadata>
<g transform="translate(0.000000,500.000000) scale(0.100000,-0.100000)"
fill="#000000" stroke="none">
<path d="M2935 4950 c-22 -4 -58 -11 -80 -14 -22 -3 -76 -13 -120 -21 -122
-22 -245 -43 -349 -61 -87 -15 -325 -56 -353 -61 -29 -5 -33 -10 -34 -37 -7
-237 -2 -782 7 -790 11 -12 972 -15 990 -4 5 4 9 208 8 500 -1 417 -3 493 -15
495 -8 0 -32 -3 -54 -7z"/>
<path d="M1999 3645 c-1 -13 -1 -922 0 -962 l1 -31 500 0 c459 0 500 1 501 16
4 88 3 957 -2 970 -6 16 -43 17 -503 17 -325 0 -496 -3 -497 -10z"/>
<path d="M1996 1854 c0 -272 4 -497 8 -502 4 -4 230 -7 502 -7 487 0 494 0
495 20 1 25 1 944 0 967 -1 15 -41 16 -503 17 l-503 0 1 -495z"/>
<path d="M2002 1036 c-4 -7 -7 -922 -3 -984 1 -10 105 -12 503 -10 l501 3 1
488 c1 269 -2 494 -6 500 -8 13 -987 16 -996 3z"/>
</g>
</svg>
