<svg width="752" height="384" viewBox="0 0 752 384" fill="none" xmlns="http://www.w3.org/2000/svg">
<g clip-path="url(#clip0_250_2488)">
<path d="M565.839 111.023C565.431 110.122 564.813 109.257 563.973 108.442C563.379 107.862 562.674 107.306 561.859 106.787C561.661 106.664 502.222 72.3689 502.222 72.3689C502.222 72.1837 502.222 71.9984 502.222 71.8255C502.222 70.9487 502.024 70.0719 501.641 69.2074C501.233 68.3059 500.615 67.4414 499.774 66.6263C499.181 66.0459 498.476 65.4902 497.66 64.9715C497.462 64.848 391.144 3.50729 391.144 3.50729C388.845 2.18587 386.088 1.2967 383.171 0.864461C380.253 0.432224 377.187 0.432224 374.27 0.864461C371.364 1.2967 368.595 2.18587 366.32 3.50729L260.584 65.0826C258.111 66.5275 256.578 69.1704 256.578 72.0355L256.38 150.95C256.38 153.543 257.777 155.951 260.027 157.26L317.192 190.543L254.427 226.95C252.165 228.259 250.768 230.667 250.756 233.273L250.199 311.619C250.199 314.681 251.819 317.497 254.464 319.041C274.825 330.884 361.116 381.036 361.116 381.036C363.415 382.37 366.172 383.247 369.09 383.691C372.007 384.136 375.073 384.123 377.991 383.691C380.896 383.259 383.665 382.37 385.94 381.048L493.012 318.621C495.311 317.275 496.72 314.817 496.708 312.162L496.448 237.484C496.448 237.484 562.699 198.928 563.33 198.36C563.49 198.224 563.639 198.076 563.787 197.928C564.628 197.113 565.246 196.236 565.642 195.334C565.802 194.976 565.926 194.606 566.025 194.248C566.099 193.964 566.136 193.692 566.173 193.408C566.198 193.198 566.198 193.013 566.198 192.815V192.79C566.198 191.308 566.42 114.37 566.42 113.629C566.42 112.752 566.223 111.875 565.839 111.011V111.023Z" fill="black"/>
<path d="M496.722 237.237C496.722 237.237 496.511 310.754 496.511 312.236V312.261C496.511 312.459 496.511 312.644 496.487 312.854C496.462 313.138 496.412 313.409 496.338 313.693C496.239 314.052 496.116 314.422 495.955 314.768C495.559 315.682 494.929 316.559 494.101 317.374C493.952 317.522 493.804 317.67 493.643 317.806C493.013 318.374 492.259 318.893 491.418 319.387" stroke="#FAF9F5" stroke-miterlimit="10"/>
<path d="M386.421 301.282L386.199 380.455C383.924 381.777 381.167 382.666 378.25 383.098C375.332 383.531 372.266 383.531 369.349 383.098C366.431 382.666 363.674 381.777 361.375 380.443L361.598 301.27C363.885 302.591 366.654 303.48 369.571 303.912C372.489 304.345 375.555 304.345 378.472 303.912C381.378 303.48 384.147 302.591 386.421 301.27V301.282Z" stroke="#FAF9F5" stroke-miterlimit="10"/>
<path d="M386.421 301.282L386.199 380.455C383.924 381.777 381.167 382.666 378.25 383.098C375.332 383.531 372.266 383.531 369.349 383.098C366.431 382.666 363.674 381.777 361.375 380.443L361.598 301.27C363.885 302.591 366.654 303.48 369.571 303.912C372.489 304.345 375.555 304.345 378.472 303.912C381.378 303.48 384.147 302.591 386.421 301.27V301.282Z" stroke="#FAF9F5" stroke-miterlimit="10" stroke-linecap="round"/>
<path d="M378.485 303.925L378.25 383.098" stroke="#FAF9F5" stroke-miterlimit="10" stroke-linecap="round"/>
<path d="M369.583 303.925L369.348 383.098" stroke="#FAF9F5" stroke-miterlimit="10" stroke-linecap="round"/>
<path d="M361.39 380.443L255.492 319.374L255.715 240.201L311.569 272.409L361.612 301.282" stroke="#FAF9F5" stroke-miterlimit="10" stroke-linecap="round"/>
<path d="M255.488 319.374C255.278 319.251 255.056 319.127 254.87 318.992C254.054 318.473 253.35 317.917 252.756 317.337C252.002 316.608 251.434 315.842 251.038 315.052C250.976 314.953 250.939 314.854 250.89 314.756V314.756V314.731C250.494 313.879 250.309 313.002 250.309 312.125L250.531 232.964C250.531 233.804 250.717 234.656 251.075 235.471C251.817 237.175 253.325 238.768 255.587 240.102C255.624 240.127 255.662 240.151 255.711 240.176" stroke="#FAF9F5" stroke-miterlimit="10" stroke-linecap="round"/>
<path d="M317.536 190.345L255.625 225.85C254.784 226.344 254.03 226.875 253.399 227.431C253.239 227.567 253.09 227.715 252.942 227.863C252.151 228.641 251.545 229.481 251.149 230.333C251.125 230.37 251.1 230.407 251.075 230.457H251.088V230.482C250.976 230.716 250.877 230.963 250.816 231.198C250.754 231.408 250.704 231.593 250.655 231.791C250.618 232.001 250.581 232.198 250.568 232.396C250.544 232.593 250.531 232.779 250.531 232.976V233.001C250.531 233.841 250.717 234.693 251.075 235.508C251.817 237.212 253.325 238.805 255.588 240.139C255.625 240.164 255.662 240.188 255.711 240.213L311.565 272.421L361.609 301.282C363.896 302.604 366.665 303.493 369.582 303.925C372.5 304.357 375.566 304.357 378.483 303.925C381.389 303.493 384.158 302.604 386.433 301.282L435.475 272.804" stroke="#FAF9F5" stroke-miterlimit="10" stroke-linecap="round"/>
<path d="M262.191 243.881V323.178" stroke="#FAF9F5" stroke-miterlimit="10"/>
<path d="M269.719 248.228V327.5" stroke="#FAF9F5" stroke-miterlimit="10" stroke-linecap="round"/>
<path d="M277.234 252.637V331.934" stroke="#FAF9F5" stroke-miterlimit="10"/>
<path d="M284.766 256.984V336.269" stroke="#FAF9F5" stroke-miterlimit="10" stroke-linecap="round"/>
<path d="M292.293 261.318V340.615" stroke="#FAF9F5" stroke-miterlimit="10"/>
<path d="M299.824 265.69V344.975" stroke="#FAF9F5" stroke-miterlimit="10" stroke-linecap="round"/>
<path d="M307.34 269.976V349.273" stroke="#FAF9F5" stroke-miterlimit="10"/>
<path d="M314.867 274.348V353.632" stroke="#FAF9F5" stroke-miterlimit="10" stroke-linecap="round"/>
<path d="M322.395 278.682V357.979" stroke="#FAF9F5" stroke-miterlimit="10"/>
<path d="M329.926 282.955V362.24" stroke="#FAF9F5" stroke-miterlimit="10" stroke-linecap="round"/>
<path d="M337.442 287.327V366.624" stroke="#FAF9F5" stroke-miterlimit="10"/>
<path d="M352.5 296.021V375.318" stroke="#FAF9F5" stroke-miterlimit="10"/>
<path d="M344.969 291.699V370.983" stroke="#FAF9F5" stroke-miterlimit="10" stroke-linecap="round"/>
<path d="M485 243.943V323.24" stroke="#FAF9F5" stroke-miterlimit="10"/>
<path d="M477.473 248.413V327.562" stroke="#FAF9F5" stroke-miterlimit="10" stroke-linecap="round"/>
<path d="M469.941 252.686V331.983" stroke="#FAF9F5" stroke-miterlimit="10"/>
<path d="M462.414 257.157V336.318" stroke="#FAF9F5" stroke-miterlimit="10" stroke-linecap="round"/>
<path d="M454.898 261.38V340.677" stroke="#FAF9F5" stroke-miterlimit="10"/>
<path d="M447.371 265.888V345.037" stroke="#FAF9F5" stroke-miterlimit="10" stroke-linecap="round"/>
<path d="M439.84 270.025V349.322" stroke="#FAF9F5" stroke-miterlimit="10"/>
<path d="M432.312 274.631V353.681" stroke="#FAF9F5" stroke-miterlimit="10" stroke-linecap="round"/>
<path d="M424.797 279.003V358.041" stroke="#FAF9F5" stroke-miterlimit="10"/>
<path d="M417.266 283.375V362.302" stroke="#FAF9F5" stroke-miterlimit="10" stroke-linecap="round"/>
<path d="M409.738 287.734V366.686" stroke="#FAF9F5" stroke-miterlimit="10"/>
<path d="M394.691 296.478V375.38" stroke="#FAF9F5" stroke-miterlimit="10"/>
<path d="M402.207 292.106V371.045" stroke="#FAF9F5" stroke-miterlimit="10" stroke-linecap="round"/>
<path d="M373.961 383.432V304.258" stroke="#FAF9F5" stroke-miterlimit="10" stroke-linecap="round"/>
<path d="M384.875 381.147V302.085" stroke="#FAF9F5" stroke-miterlimit="10" stroke-linecap="round"/>
<path d="M382.727 382.012V302.925" stroke="#FAF9F5" stroke-miterlimit="10" stroke-linecap="round"/>
<path d="M380.586 382.642V303.53" stroke="#FAF9F5" stroke-miterlimit="10" stroke-linecap="round"/>
<path d="M367.617 382.777V303.554" stroke="#FAF9F5" stroke-miterlimit="10" stroke-linecap="round"/>
<path d="M365.48 382.222V302.974" stroke="#FAF9F5" stroke-miterlimit="10" stroke-linecap="round"/>
<path d="M363.328 381.419V302.159" stroke="#FAF9F5" stroke-miterlimit="10" stroke-linecap="round"/>
<path d="M566.694 113.395C566.694 114.136 566.694 114.889 566.694 115.642C566.694 115.642 566.484 191.074 566.484 192.543C566.484 192.543 566.484 192.951 566.459 193.161C566.435 193.445 566.385 193.717 566.311 194.001C566.212 194.359 566.088 194.729 565.928 195.075C565.532 195.989 564.902 196.866 564.073 197.681C563.925 197.829 563.777 197.977 563.616 198.113C562.985 198.681 562.231 199.2 561.391 199.694L561.613 120.52C562.256 120.15 562.825 119.767 563.344 119.359C563.69 119.088 563.999 118.804 564.296 118.52C564.58 118.248 564.827 117.964 565.05 117.68C565.31 117.371 565.532 117.05 565.73 116.729C565.878 116.494 566.002 116.247 566.101 116.013C566.101 116.013 566.163 115.902 566.187 115.84C566.212 115.803 566.224 115.741 566.249 115.692C566.311 115.568 566.348 115.445 566.385 115.321C566.595 114.691 566.706 114.049 566.706 113.407L566.694 113.395Z" stroke="#FAF9F5" stroke-miterlimit="10"/>
<path d="M561.376 199.694L435.464 272.804L386.422 301.282L386.199 380.456L491.405 319.374L491.503 240.262" stroke="#FAF9F5" stroke-miterlimit="10" stroke-linecap="round"/>
<path d="M392.355 218.737L505.423 153.123L561.463 120.594L561.598 120.52" stroke="#FAF9F5" stroke-miterlimit="10" stroke-linecap="round"/>
<path d="M456.382 181.602L456.16 260.775C453.885 262.097 451.128 262.986 448.211 263.418C445.293 263.85 442.227 263.85 439.31 263.418C436.392 262.986 433.635 262.097 431.336 260.763L431.558 196.051" stroke="#FAF9F5" stroke-miterlimit="10"/>
<path d="M448.445 186.183L448.223 263.418" stroke="#FAF9F5" stroke-miterlimit="10" stroke-linecap="round"/>
<path d="M439.543 191.358L439.32 263.418" stroke="#FAF9F5" stroke-miterlimit="10" stroke-linecap="round"/>
<path d="M431.347 260.775L325.449 199.694" stroke="#FAF9F5" stroke-miterlimit="10" stroke-linecap="round"/>
<path d="M325.498 195.1L325.461 199.694C325.251 199.57 325.028 199.447 324.843 199.311C324.027 198.792 323.322 198.236 322.729 197.656C321.975 196.927 321.406 196.162 321.011 195.371C320.949 195.272 320.912 195.174 320.862 195.075V195.05C320.467 194.198 320.281 193.321 320.281 192.444V191.889" stroke="#FAF9F5" stroke-miterlimit="10" stroke-linecap="round"/>
<path d="M502.469 72.1221L561.5 106.182C561.71 106.306 561.933 106.429 562.118 106.565C562.934 107.084 563.639 107.64 564.232 108.22C565.073 109.035 565.691 109.9 566.099 110.789C566.482 111.653 566.68 112.542 566.68 113.407C566.68 114.049 566.568 114.691 566.358 115.321C566.321 115.432 566.272 115.568 566.222 115.692C566.198 115.741 566.185 115.803 566.161 115.84C566.136 115.902 566.111 115.951 566.074 116C565.963 116.247 565.839 116.494 565.703 116.729C565.505 117.05 565.283 117.371 565.023 117.68C564.801 117.964 564.541 118.248 564.269 118.52C563.972 118.816 563.651 119.088 563.317 119.359C562.798 119.767 562.229 120.15 561.586 120.52L561.463 120.594L505.423 153.123" stroke="#FAF9F5" stroke-miterlimit="10" stroke-linecap="round"/>
<path d="M332.152 198.656V203.51" stroke="#FAF9F5" stroke-miterlimit="10"/>
<path d="M339.68 203.51V207.832" stroke="#FAF9F5" stroke-miterlimit="10" stroke-linecap="round"/>
<path d="M347.207 207.301V212.253" stroke="#FAF9F5" stroke-miterlimit="10"/>
<path d="M354.723 211.673V216.588" stroke="#FAF9F5" stroke-miterlimit="10" stroke-linecap="round"/>
<path d="M362.254 215.996V220.948" stroke="#FAF9F5" stroke-miterlimit="10"/>
<path d="M369.781 220.219V225.307" stroke="#FAF9F5" stroke-miterlimit="10" stroke-linecap="round"/>
<path d="M377.312 221.948V229.592" stroke="#FAF9F5" stroke-miterlimit="10"/>
<path d="M384.828 221.602V233.952" stroke="#FAF9F5" stroke-miterlimit="10" stroke-linecap="round"/>
<path d="M392.355 218.737V238.299" stroke="#FAF9F5" stroke-miterlimit="10"/>
<path d="M399.883 214.377V242.559" stroke="#FAF9F5" stroke-miterlimit="10" stroke-linecap="round"/>
<path d="M407.414 209.895V246.956" stroke="#FAF9F5" stroke-miterlimit="10"/>
<path d="M422.457 201.151V255.638" stroke="#FAF9F5" stroke-miterlimit="10"/>
<path d="M414.93 205.523V251.315" stroke="#FAF9F5" stroke-miterlimit="10" stroke-linecap="round"/>
<path d="M554.961 124.262V203.559" stroke="#FAF9F5" stroke-miterlimit="10"/>
<path d="M547.43 128.745V207.882" stroke="#FAF9F5" stroke-miterlimit="10" stroke-linecap="round"/>
<path d="M539.902 133.018V212.315" stroke="#FAF9F5" stroke-miterlimit="10"/>
<path d="M532.387 137.477V216.65" stroke="#FAF9F5" stroke-miterlimit="10" stroke-linecap="round"/>
<path d="M524.859 141.7V220.997" stroke="#FAF9F5" stroke-miterlimit="10"/>
<path d="M517.328 146.22V225.356" stroke="#FAF9F5" stroke-miterlimit="10" stroke-linecap="round"/>
<path d="M509.801 150.357V229.654" stroke="#FAF9F5" stroke-miterlimit="10"/>
<path d="M502.285 154.951V234.014" stroke="#FAF9F5" stroke-miterlimit="10" stroke-linecap="round"/>
<path d="M494.754 159.273V238.361" stroke="#FAF9F5" stroke-miterlimit="10"/>
<path d="M487.227 163.695V242.621" stroke="#FAF9F5" stroke-miterlimit="10" stroke-linecap="round"/>
<path d="M479.695 168.066V247.005" stroke="#FAF9F5" stroke-miterlimit="10"/>
<path d="M464.652 176.773V255.7" stroke="#FAF9F5" stroke-miterlimit="10"/>
<path d="M472.18 172.438V251.365" stroke="#FAF9F5" stroke-miterlimit="10" stroke-linecap="round"/>
<path d="M443.934 263.751V188.801" stroke="#FAF9F5" stroke-miterlimit="10" stroke-linecap="round"/>
<path d="M454.836 261.479V182.404" stroke="#FAF9F5" stroke-miterlimit="10" stroke-linecap="round"/>
<path d="M452.684 262.344V183.541" stroke="#FAF9F5" stroke-miterlimit="10" stroke-linecap="round"/>
<path d="M450.547 262.973V184.985" stroke="#FAF9F5" stroke-miterlimit="10" stroke-linecap="round"/>
<path d="M437.578 263.109V192.482" stroke="#FAF9F5" stroke-miterlimit="10" stroke-linecap="round"/>
<path d="M435.438 262.541V193.729" stroke="#FAF9F5" stroke-miterlimit="10" stroke-linecap="round"/>
<path d="M433.289 261.751V194.976" stroke="#FAF9F5" stroke-miterlimit="10" stroke-linecap="round"/>
<path d="M502.495 71.5908C502.495 72.3318 502.495 73.0851 502.495 73.8385C502.495 73.8385 502.285 149.27 502.285 150.74V150.764C502.285 150.962 502.285 151.147 502.26 151.357C502.235 151.641 502.186 151.913 502.112 152.197C502.013 152.555 501.889 152.926 501.728 153.271C501.333 154.185 500.702 155.062 499.874 155.877C499.726 156.025 499.577 156.174 499.417 156.309C498.786 156.877 498.032 157.396 497.191 157.89L497.228 143.614L497.414 78.7166" stroke="#FAF9F5" stroke-miterlimit="10"/>
<path d="M392.195 139.786L391.972 218.959C389.698 220.281 386.941 221.17 384.023 221.602C381.106 222.034 378.04 222.034 375.122 221.602C372.205 221.17 369.448 220.281 367.148 218.947L367.371 139.773" stroke="#FAF9F5" stroke-miterlimit="10"/>
<path d="M367.148 218.959L367.371 139.786" stroke="#FAF9F5" stroke-miterlimit="10" stroke-linecap="round"/>
<path d="M384.246 142.429L384.024 221.602" stroke="#FAF9F5" stroke-miterlimit="10" stroke-linecap="round"/>
<path d="M375.344 142.429L375.121 221.602" stroke="#FAF9F5" stroke-miterlimit="10" stroke-linecap="round"/>
<path d="M367.151 218.959L261.266 157.89L261.488 78.7168" stroke="#FAF9F5" stroke-miterlimit="10" stroke-linecap="round"/>
<path d="M261.262 157.89C261.052 157.767 260.829 157.643 260.644 157.508C259.828 156.989 259.123 156.433 258.53 155.853C257.776 155.124 257.207 154.358 256.811 153.568C256.75 153.469 256.713 153.371 256.663 153.272V153.247C256.267 152.395 256.082 151.518 256.082 150.641L256.305 71.48" stroke="#FAF9F5" stroke-miterlimit="10" stroke-linecap="round"/>
<path d="M267.965 82.397V161.694" stroke="#FAF9F5" stroke-miterlimit="10"/>
<path d="M373.738 13.9924V13.9673" stroke="#FAF9F5" stroke-miterlimit="10" stroke-linecap="round"/>
<path d="M323.461 45.62V45.6074" stroke="#FAF9F5" stroke-miterlimit="10" stroke-linecap="round"/>
<path d="M335.215 45.62V45.6074" stroke="#FAF9F5" stroke-miterlimit="10" stroke-linecap="round"/>
<path d="M426.031 45.6198V45.6072" stroke="#FAF9F5" stroke-miterlimit="10" stroke-linecap="round"/>
<path d="M437.801 45.6198V45.6072" stroke="#FAF9F5" stroke-miterlimit="10" stroke-linecap="round"/>
<path d="M275.481 86.7316V166.016" stroke="#FAF9F5" stroke-miterlimit="10" stroke-linecap="round"/>
<path d="M283.008 91.1406V170.438" stroke="#FAF9F5" stroke-miterlimit="10"/>
<path d="M290.539 95.4873V174.772" stroke="#FAF9F5" stroke-miterlimit="10" stroke-linecap="round"/>
<path d="M298.066 99.8345V179.132" stroke="#FAF9F5" stroke-miterlimit="10"/>
<path d="M305.582 104.207V183.491" stroke="#FAF9F5" stroke-miterlimit="10" stroke-linecap="round"/>
<path d="M313.113 108.479V187.777" stroke="#FAF9F5" stroke-miterlimit="10"/>
<path d="M320.641 112.851V192.136" stroke="#FAF9F5" stroke-miterlimit="10" stroke-linecap="round"/>
<path d="M328.168 117.186V196.483" stroke="#FAF9F5" stroke-miterlimit="10"/>
<path d="M335.688 121.471V200.756" stroke="#FAF9F5" stroke-miterlimit="10" stroke-linecap="round"/>
<path d="M343.215 125.843V205.14" stroke="#FAF9F5" stroke-miterlimit="10"/>
<path d="M358.273 134.525V213.822" stroke="#FAF9F5" stroke-miterlimit="10"/>
<path d="M350.742 130.215V209.5" stroke="#FAF9F5" stroke-miterlimit="10" stroke-linecap="round"/>
<path d="M490.762 82.4463V161.756" stroke="#FAF9F5" stroke-miterlimit="10"/>
<path d="M483.234 86.9292V165.979" stroke="#FAF9F5" stroke-miterlimit="10" stroke-linecap="round"/>
<path d="M475.715 91.2021V170.499" stroke="#FAF9F5" stroke-miterlimit="10"/>
<path d="M468.188 95.8086V174.711" stroke="#FAF9F5" stroke-miterlimit="10" stroke-linecap="round"/>
<path d="M460.66 99.8965V179.194" stroke="#FAF9F5" stroke-miterlimit="10"/>
<path d="M453.129 104.404V183.293" stroke="#FAF9F5" stroke-miterlimit="10" stroke-linecap="round"/>
<path d="M445.613 108.541V187.838" stroke="#FAF9F5" stroke-miterlimit="10"/>
<path d="M438.086 113.135V192.198" stroke="#FAF9F5" stroke-miterlimit="10" stroke-linecap="round"/>
<path d="M430.555 117.248V196.545" stroke="#FAF9F5" stroke-miterlimit="10"/>
<path d="M423.027 121.879V200.805" stroke="#FAF9F5" stroke-miterlimit="10" stroke-linecap="round"/>
<path d="M415.512 126.25V205.202" stroke="#FAF9F5" stroke-miterlimit="10"/>
<path d="M400.453 134.994V213.884" stroke="#FAF9F5" stroke-miterlimit="10"/>
<path d="M407.98 130.622V209.549" stroke="#FAF9F5" stroke-miterlimit="10" stroke-linecap="round"/>
<path d="M379.734 221.948V142.762" stroke="#FAF9F5" stroke-miterlimit="10" stroke-linecap="round"/>
<path d="M390.648 219.663V140.588" stroke="#FAF9F5" stroke-miterlimit="10" stroke-linecap="round"/>
<path d="M388.5 220.528V141.44" stroke="#FAF9F5" stroke-miterlimit="10" stroke-linecap="round"/>
<path d="M386.359 221.157V142.033" stroke="#FAF9F5" stroke-miterlimit="10" stroke-linecap="round"/>
<path d="M373.391 221.293V142.07" stroke="#FAF9F5" stroke-miterlimit="10" stroke-linecap="round"/>
<path d="M371.242 220.725V141.49" stroke="#FAF9F5" stroke-miterlimit="10" stroke-linecap="round"/>
<path d="M369.102 219.935V140.663" stroke="#FAF9F5" stroke-miterlimit="10" stroke-linecap="round"/>
<path d="M340.1 229.543L340.039 247.623C337.035 249.364 333.412 250.538 329.555 251.093C325.71 251.686 321.631 251.686 317.786 251.093C313.929 250.513 310.282 249.364 307.266 247.623L307.327 229.543" stroke="#FAF9F5" stroke-miterlimit="10"/>
<path d="M329.604 233.026L329.555 251.106" stroke="#FAF9F5" stroke-miterlimit="10" stroke-linecap="round"/>
<path d="M317.835 233.026L317.785 251.106" stroke="#FAF9F5" stroke-miterlimit="10" stroke-linecap="round"/>
<path d="M340.101 229.543L340.039 247.623C341.436 246.808 342.61 245.919 343.575 244.98C343.773 244.782 343.946 244.61 344.119 244.424C344.947 243.51 345.701 242.251 346.344 240.744C346.69 239.941 346.764 239.373 346.764 238.2C346.764 229.605 346.814 220.454 346.814 220.454" stroke="#FAF9F5" stroke-miterlimit="10" stroke-linecap="round"/>
<path d="M300.491 220.009C300.478 225.418 300.466 232.631 300.441 238.064C300.441 239.176 300.676 240.3 301.146 241.386C301.678 242.634 302.518 243.807 303.668 244.931C304.261 245.511 304.929 246.055 305.671 246.586C306.178 246.944 306.709 247.277 307.266 247.611" stroke="#FAF9F5" stroke-miterlimit="10" stroke-linecap="round"/>
<path d="M323.635 233.458C336.424 233.458 346.791 227.459 346.791 220.059C346.791 212.658 336.424 206.659 323.635 206.659C310.847 206.659 300.48 212.658 300.48 220.059C300.48 227.459 310.847 233.458 323.635 233.458Z" stroke="#FAF9F5" stroke-miterlimit="10" stroke-linecap="round"/>
<path d="M323.35 230.543C334.356 230.543 343.279 225.794 343.279 219.935C343.279 214.076 334.356 209.327 323.35 209.327C312.344 209.327 303.422 214.076 303.422 219.935C303.422 225.794 312.344 230.543 323.35 230.543Z" stroke="#FAF9F5" stroke-miterlimit="10" stroke-linecap="round"/>
<path d="M323.325 227.345C330.999 227.345 337.221 224.027 337.221 219.935C337.221 215.843 330.999 212.525 323.325 212.525C315.651 212.525 309.43 215.843 309.43 219.935C309.43 224.027 315.651 227.345 323.325 227.345Z" stroke="#FAF9F5" stroke-miterlimit="10" stroke-linecap="round"/>
<path d="M323.324 224.208C327.755 224.208 331.347 222.295 331.347 219.935C331.347 217.575 327.755 215.662 323.324 215.662C318.893 215.662 315.301 217.575 315.301 219.935C315.301 222.295 318.893 224.208 323.324 224.208Z" stroke="#FAF9F5" stroke-miterlimit="10" stroke-linecap="round"/>
<path d="M390.44 256.07L390.378 274.15C387.374 275.891 383.752 277.065 379.895 277.62C376.05 278.213 371.971 278.213 368.126 277.62C364.269 277.04 360.622 275.891 357.605 274.15L357.667 256.07" stroke="#FAF9F5" stroke-miterlimit="10"/>
<path d="M379.944 259.565L379.895 277.645" stroke="#FAF9F5" stroke-miterlimit="10" stroke-linecap="round"/>
<path d="M368.187 259.553L368.125 277.633" stroke="#FAF9F5" stroke-miterlimit="10" stroke-linecap="round"/>
<path d="M390.441 256.07L390.379 274.15C391.776 273.335 392.95 272.446 393.915 271.507C394.112 271.31 394.285 271.137 394.459 270.952C395.287 270.038 396.041 268.778 396.684 267.271C397.03 266.469 397.104 265.901 397.104 264.727C397.104 263.554 397.154 246.981 397.154 246.981" stroke="#FAF9F5" stroke-miterlimit="10" stroke-linecap="round"/>
<path d="M350.831 246.549C350.818 251.958 350.806 259.17 350.781 264.604C350.781 265.715 351.016 266.839 351.486 267.926C352.018 269.173 352.858 270.346 354.008 271.47C354.601 272.051 355.269 272.594 356.011 273.125C356.517 273.483 357.049 273.817 357.605 274.15" stroke="#FAF9F5" stroke-miterlimit="10" stroke-linecap="round"/>
<path d="M373.975 259.997C386.763 259.997 397.13 253.998 397.13 246.598C397.13 239.198 386.763 233.199 373.975 233.199C361.187 233.199 350.82 239.198 350.82 246.598C350.82 253.998 361.187 259.997 373.975 259.997Z" stroke="#FAF9F5" stroke-miterlimit="10" stroke-linecap="round"/>
<path d="M373.69 257.083C384.696 257.083 393.619 252.333 393.619 246.475C393.619 240.616 384.696 235.866 373.69 235.866C362.684 235.866 353.762 240.616 353.762 246.475C353.762 252.333 362.684 257.083 373.69 257.083Z" stroke="#FAF9F5" stroke-miterlimit="10" stroke-linecap="round"/>
<path d="M373.677 253.884C381.351 253.884 387.572 250.567 387.572 246.475C387.572 242.382 381.351 239.065 373.677 239.065C366.002 239.065 359.781 242.382 359.781 246.475C359.781 250.567 366.002 253.884 373.677 253.884Z" stroke="#FAF9F5" stroke-miterlimit="10" stroke-linecap="round"/>
<path d="M373.676 250.748C378.107 250.748 381.699 248.835 381.699 246.475C381.699 244.115 378.107 242.202 373.676 242.202C369.244 242.202 365.652 244.115 365.652 246.475C365.652 248.835 369.244 250.748 373.676 250.748Z" stroke="#FAF9F5" stroke-miterlimit="10" stroke-linecap="round"/>
<path d="M396.202 36.4189L396.14 54.4988C393.136 56.2401 389.514 57.4133 385.657 57.9691C381.812 58.5619 377.732 58.5619 373.888 57.9691C370.031 57.3886 366.384 56.2401 363.367 54.4988L363.429 36.4189" stroke="#FAF9F5" stroke-miterlimit="10"/>
<path d="M385.717 39.9014L385.668 57.9813" stroke="#FAF9F5" stroke-miterlimit="10" stroke-linecap="round"/>
<path d="M373.948 39.9014L373.898 57.9813" stroke="#FAF9F5" stroke-miterlimit="10" stroke-linecap="round"/>
<path d="M396.202 36.4189L396.141 54.4988C397.538 53.6837 398.712 52.7946 399.676 51.856C399.874 51.6584 400.047 51.4855 400.22 51.3003C401.049 50.3864 401.803 49.1267 402.446 47.6201C402.792 46.8173 402.866 46.2493 402.866 45.076C402.866 36.4807 402.915 27.3296 402.915 27.3296" stroke="#FAF9F5" stroke-miterlimit="10" stroke-linecap="round"/>
<path d="M356.592 26.8973C356.58 32.3065 356.568 39.5187 356.543 44.9525C356.543 46.064 356.778 47.1878 357.248 48.2746C357.779 49.5219 358.62 50.6951 359.77 51.8189C360.363 52.3994 361.031 52.9427 361.772 53.4738C362.279 53.8319 362.811 54.1654 363.367 54.4988" stroke="#FAF9F5" stroke-miterlimit="10" stroke-linecap="round"/>
<path d="M379.749 40.3461C392.537 40.3461 402.904 34.347 402.904 26.9467C402.904 19.5465 392.537 13.5474 379.749 13.5474C366.961 13.5474 356.594 19.5465 356.594 26.9467C356.594 34.347 366.961 40.3461 379.749 40.3461Z" stroke="#FAF9F5" stroke-miterlimit="10" stroke-linecap="round"/>
<path d="M379.464 37.4315C390.47 37.4315 399.392 32.682 399.392 26.8232C399.392 20.9644 390.47 16.2148 379.464 16.2148C368.457 16.2148 359.535 20.9644 359.535 26.8232C359.535 32.682 368.457 37.4315 379.464 37.4315Z" stroke="#FAF9F5" stroke-miterlimit="10" stroke-linecap="round"/>
<path d="M379.438 34.233C387.113 34.233 393.334 30.9156 393.334 26.8232C393.334 22.7309 387.113 19.4135 379.438 19.4135C371.764 19.4135 365.543 22.7309 365.543 26.8232C365.543 30.9156 371.764 34.233 379.438 34.233Z" stroke="#FAF9F5" stroke-miterlimit="10" stroke-linecap="round"/>
<path d="M379.437 31.084C383.868 31.084 387.461 29.171 387.461 26.8111C387.461 24.4512 383.868 22.5381 379.437 22.5381C375.006 22.5381 371.414 24.4512 371.414 26.8111C371.414 29.171 375.006 31.084 379.437 31.084Z" stroke="#FAF9F5" stroke-miterlimit="10" stroke-linecap="round"/>
<path d="M345.823 68.0093L345.761 86.0892C342.757 87.8305 339.135 89.0037 335.278 89.5595C331.433 90.1523 327.353 90.1523 323.509 89.5595C319.652 88.979 316.005 87.8305 312.988 86.0892L313.05 68.0093" stroke="#FAF9F5" stroke-miterlimit="10"/>
<path d="M335.339 71.4921L335.289 89.572" stroke="#FAF9F5" stroke-miterlimit="10" stroke-linecap="round"/>
<path d="M323.569 71.4921L323.52 89.572" stroke="#FAF9F5" stroke-miterlimit="10" stroke-linecap="round"/>
<path d="M345.824 68.0092L345.762 86.0891C347.159 85.274 348.333 84.3848 349.297 83.4463C349.495 83.2487 349.668 83.0758 349.841 82.8905C350.67 81.9767 351.424 80.717 352.067 79.2103C352.413 78.4076 352.487 77.8395 352.487 76.6663C352.487 68.071 352.536 58.9199 352.536 58.9199" stroke="#FAF9F5" stroke-miterlimit="10" stroke-linecap="round"/>
<path d="M306.214 58.4877C306.201 63.8969 306.189 71.1091 306.164 76.5429C306.164 77.6544 306.399 78.7782 306.869 79.865C307.4 81.1123 308.241 82.2855 309.391 83.4093C309.984 83.9898 310.652 84.5331 311.393 85.0642C311.9 85.4223 312.432 85.7558 312.988 86.0892" stroke="#FAF9F5" stroke-miterlimit="10" stroke-linecap="round"/>
<path d="M329.37 71.9242C342.158 71.9242 352.525 65.9251 352.525 58.5248C352.525 51.1245 342.158 45.1254 329.37 45.1254C316.582 45.1254 306.215 51.1245 306.215 58.5248C306.215 65.9251 316.582 71.9242 329.37 71.9242Z" stroke="#FAF9F5" stroke-miterlimit="10" stroke-linecap="round"/>
<path d="M329.085 69.0096C340.091 69.0096 349.013 64.2601 349.013 58.4013C349.013 52.5424 340.091 47.7929 329.085 47.7929C318.079 47.7929 309.156 52.5424 309.156 58.4013C309.156 64.2601 318.079 69.0096 329.085 69.0096Z" stroke="#FAF9F5" stroke-miterlimit="10" stroke-linecap="round"/>
<path d="M329.059 65.8111C336.734 65.8111 342.955 62.4936 342.955 58.4013C342.955 54.309 336.734 50.9915 329.059 50.9915C321.385 50.9915 315.164 54.309 315.164 58.4013C315.164 62.4936 321.385 65.8111 329.059 65.8111Z" stroke="#FAF9F5" stroke-miterlimit="10" stroke-linecap="round"/>
<path d="M329.058 62.6743C333.49 62.6743 337.082 60.7612 337.082 58.4013C337.082 56.0414 333.49 54.1284 329.058 54.1284C324.627 54.1284 321.035 56.0414 321.035 58.4013C321.035 60.7612 324.627 62.6743 329.058 62.6743Z" stroke="#FAF9F5" stroke-miterlimit="10" stroke-linecap="round"/>
<path d="M396.261 94.3633L396.199 112.443C393.195 114.184 389.572 115.358 385.715 115.913C381.871 116.506 377.791 116.506 373.946 115.913C370.089 115.333 366.442 114.184 363.426 112.443L363.487 94.3633" stroke="#FAF9F5" stroke-miterlimit="10"/>
<path d="M385.777 97.8584L385.715 115.938" stroke="#FAF9F5" stroke-miterlimit="10" stroke-linecap="round"/>
<path d="M374.006 97.8584L373.957 115.926" stroke="#FAF9F5" stroke-miterlimit="10" stroke-linecap="round"/>
<path d="M396.261 94.3633L396.199 112.443C397.596 111.628 398.771 110.739 399.735 109.8C399.933 109.603 400.106 109.43 400.279 109.245C401.107 108.331 401.861 107.071 402.504 105.564C402.85 104.762 402.924 104.194 402.924 103.02C402.924 94.425 402.974 85.2739 402.974 85.2739" stroke="#FAF9F5" stroke-miterlimit="10" stroke-linecap="round"/>
<path d="M356.651 84.8417C356.639 90.2508 356.626 97.463 356.602 102.897C356.602 104.008 356.836 105.132 357.306 106.219C357.838 107.466 358.678 108.639 359.828 109.763C360.422 110.344 361.089 110.887 361.831 111.418C362.338 111.776 362.869 112.11 363.426 112.443" stroke="#FAF9F5" stroke-miterlimit="10" stroke-linecap="round"/>
<path d="M379.807 98.2904C392.596 98.2904 402.962 92.2913 402.962 84.8911C402.962 77.4908 392.596 71.4917 379.807 71.4917C367.019 71.4917 356.652 77.4908 356.652 84.8911C356.652 92.2913 367.019 98.2904 379.807 98.2904Z" stroke="#FAF9F5" stroke-miterlimit="10" stroke-linecap="round"/>
<path d="M379.522 95.3759C390.528 95.3759 399.451 90.6264 399.451 84.7675C399.451 78.9087 390.528 74.1592 379.522 74.1592C368.516 74.1592 359.594 78.9087 359.594 84.7675C359.594 90.6264 368.516 95.3759 379.522 95.3759Z" stroke="#FAF9F5" stroke-miterlimit="10" stroke-linecap="round"/>
<path d="M379.497 92.1774C387.171 92.1774 393.392 88.8599 393.392 84.7676C393.392 80.6753 387.171 77.3578 379.497 77.3578C371.823 77.3578 365.601 80.6753 365.601 84.7676C365.601 88.8599 371.823 92.1774 379.497 92.1774Z" stroke="#FAF9F5" stroke-miterlimit="10" stroke-linecap="round"/>
<path d="M379.496 89.0406C383.927 89.0406 387.519 87.1275 387.519 84.7676C387.519 82.4077 383.927 80.4946 379.496 80.4946C375.065 80.4946 371.473 82.4077 371.473 84.7676C371.473 87.1275 375.065 89.0406 379.496 89.0406Z" stroke="#FAF9F5" stroke-miterlimit="10" stroke-linecap="round"/>
<path d="M448.53 68.1328L448.468 86.2126C445.464 87.9539 441.842 89.1272 437.985 89.6829C434.14 90.2757 430.06 90.2757 426.216 89.6829C422.359 89.1025 418.712 87.9539 415.695 86.2126L415.757 68.1328" stroke="#FAF9F5" stroke-miterlimit="10"/>
<path d="M438.046 71.6152L437.984 89.6951" stroke="#FAF9F5" stroke-miterlimit="10" stroke-linecap="round"/>
<path d="M426.276 71.6152L426.227 89.6951" stroke="#FAF9F5" stroke-miterlimit="10" stroke-linecap="round"/>
<path d="M448.531 68.1328L448.469 86.2127C449.866 85.3976 451.04 84.5084 452.004 83.5699C452.202 83.3723 452.375 83.1994 452.548 83.0141C453.377 82.1003 454.131 80.8406 454.774 79.3339C455.12 78.5312 455.194 77.9631 455.194 76.7899C455.194 68.1945 455.243 59.0435 455.243 59.0435" stroke="#FAF9F5" stroke-miterlimit="10" stroke-linecap="round"/>
<path d="M408.921 58.6112C408.908 64.0204 408.896 71.2326 408.871 76.6664C408.871 77.7779 409.106 78.9017 409.576 79.9884C410.107 81.2358 410.948 82.409 412.098 83.5328C412.691 84.1132 413.359 84.6566 414.1 85.1877C414.607 85.5458 415.139 85.8792 415.695 86.2127" stroke="#FAF9F5" stroke-miterlimit="10" stroke-linecap="round"/>
<path d="M432.077 72.06C444.865 72.06 455.232 66.0609 455.232 58.6606C455.232 51.2603 444.865 45.2612 432.077 45.2612C419.289 45.2612 408.922 51.2603 408.922 58.6606C408.922 66.0609 419.289 72.06 432.077 72.06Z" stroke="#FAF9F5" stroke-miterlimit="10" stroke-linecap="round"/>
<path d="M431.792 69.1454C442.798 69.1454 451.72 64.3959 451.72 58.5371C451.72 52.6782 442.798 47.9287 431.792 47.9287C420.786 47.9287 411.863 52.6782 411.863 58.5371C411.863 64.3959 420.786 69.1454 431.792 69.1454Z" stroke="#FAF9F5" stroke-miterlimit="10" stroke-linecap="round"/>
<path d="M431.767 65.9469C439.441 65.9469 445.662 62.6294 445.662 58.5371C445.662 54.4448 439.441 51.1273 431.767 51.1273C424.092 51.1273 417.871 54.4448 417.871 58.5371C417.871 62.6294 424.092 65.9469 431.767 65.9469Z" stroke="#FAF9F5" stroke-miterlimit="10" stroke-linecap="round"/>
<path d="M431.765 62.7979C436.197 62.7979 439.789 60.8848 439.789 58.5249C439.789 56.165 436.197 54.252 431.765 54.252C427.334 54.252 423.742 56.165 423.742 58.5249C423.742 60.8848 427.334 62.7979 431.765 62.7979Z" stroke="#FAF9F5" stroke-miterlimit="10" stroke-linecap="round"/>
<path d="M512.741 109.949L512.679 128.029C509.675 129.77 506.052 130.943 502.195 131.499" stroke="#FAF9F5" stroke-miterlimit="10"/>
<path d="M512.742 109.949L512.68 128.029C514.077 127.214 515.251 126.325 516.215 125.386C516.413 125.189 516.586 125.016 516.759 124.831C517.588 123.917 518.342 122.657 518.985 121.15C519.331 120.348 519.405 119.78 519.405 118.606C519.405 110.011 519.454 100.86 519.454 100.86" stroke="#FAF9F5" stroke-miterlimit="10" stroke-linecap="round"/>
<path d="M502.441 87.5591C512.232 89.1151 519.427 94.3143 519.427 100.477C519.427 106.639 512.195 111.863 502.367 113.407" stroke="#FAF9F5" stroke-miterlimit="10" stroke-linecap="round"/>
<path d="M502.367 110.406C510.242 108.986 515.917 105.021 515.917 100.353C515.917 95.7096 510.304 91.7578 502.491 90.3252" stroke="#FAF9F5" stroke-miterlimit="10" stroke-linecap="round"/>
<path d="M502.49 93.7954C506.879 95.0427 509.871 97.5003 509.871 100.341C509.871 103.181 506.829 105.688 502.379 106.923" stroke="#FAF9F5" stroke-miterlimit="10" stroke-linecap="round"/>
<path d="M502.469 97.834C503.433 98.5379 504.002 99.4147 504.002 100.353C504.002 101.292 503.433 102.156 502.469 102.873" stroke="#FAF9F5" stroke-miterlimit="10" stroke-linecap="round"/>
<path d="M502.492 71.5909C502.492 72.2331 502.381 72.8753 502.171 73.5051C502.134 73.6163 502.084 73.7521 502.035 73.8756C502.01 73.925 501.998 73.9868 501.973 74.0238C501.948 74.0856 501.923 74.135 501.886 74.1844C501.775 74.4313 501.651 74.6783 501.515 74.913C501.318 75.2341 501.095 75.5552 500.835 75.8639C500.613 76.1479 500.353 76.432 500.081 76.7037C499.785 77.0001 499.463 77.2718 499.129 77.5435C498.61 77.951 498.042 78.3338 497.399 78.7043L497.275 78.7784L441.236 111.307L392.194 139.786C389.919 141.107 387.162 141.996 384.244 142.429C381.327 142.861 378.261 142.861 375.343 142.429C372.426 141.996 369.657 141.107 367.37 139.786L317.326 110.925L261.485 78.7167C261.485 78.7167 261.398 78.6673 261.361 78.6426C259.099 77.3088 257.59 75.7034 256.849 74.0115C256.49 73.1964 256.305 72.3566 256.305 71.5045V71.4798C256.305 71.2822 256.305 71.0969 256.342 70.8993C256.367 70.7018 256.391 70.5042 256.428 70.2942C256.465 70.0966 256.527 69.9114 256.589 69.7014C256.663 69.4544 256.75 69.2198 256.861 68.9852V68.9605C256.861 68.9605 256.898 68.874 256.935 68.837C257.318 67.9848 257.924 67.1451 258.728 66.367C258.876 66.2188 259.024 66.0706 259.185 65.9348C259.816 65.3667 260.57 64.848 261.41 64.354L366.603 3.27267C368.878 1.95126 371.635 1.06208 374.552 0.629842C377.47 0.197605 380.536 0.197605 383.453 0.629842C386.371 1.06208 389.128 1.95126 391.427 3.27267L497.325 64.354C497.535 64.4775 497.757 64.601 497.943 64.7369C498.759 65.2556 499.463 65.8113 500.057 66.3917C500.897 67.2068 501.515 68.0713 501.923 68.9605C502.307 69.8249 502.504 70.7141 502.504 71.5786L502.492 71.5909Z" stroke="#FAF9F5" stroke-miterlimit="10" stroke-linecap="round"/>
<rect x="324" y="321" width="76" height="24" rx="12" fill="#FF9100"/>
<path d="M336.095 339H331.535V337.144V329.656V327.8H336.031C338.079 327.8 339.423 328.888 339.423 330.632V330.792C339.423 331.304 339.327 331.72 339.135 332.04C338.751 332.696 338.175 333.032 337.711 333.176V333.464C337.951 333.528 338.207 333.64 338.479 333.816C339.039 334.168 339.487 334.808 339.487 335.88V336.04C339.487 337.864 338.159 339 336.095 339ZM333.647 334.328V337.08H335.839C336.751 337.08 337.375 336.616 337.375 335.784V335.624C337.375 334.792 336.783 334.328 335.839 334.328H333.647ZM333.647 329.72V332.408H335.807C336.687 332.408 337.311 331.928 337.311 331.144V330.984C337.311 330.168 336.703 329.72 335.807 329.72H333.647ZM343.966 339H341.854V327.8H343.966V339ZM351.417 339H349.305V329.72H346.041V327.8H354.681V329.72H351.417V339ZM360.562 339.224C357.794 339.224 356.05 337.624 356.05 334.744V332.056C356.05 329.176 357.794 327.576 360.562 327.576C363.314 327.576 364.882 329.176 364.882 331.8V331.896H362.802V331.736C362.802 330.408 362.082 329.464 360.562 329.464C359.074 329.464 358.162 330.44 358.162 332.024V334.776C358.162 336.328 359.074 337.336 360.562 337.336C362.082 337.336 362.802 336.36 362.802 335.064V334.776H364.882V335C364.882 337.624 363.314 339.224 360.562 339.224ZM371.595 339.224C368.779 339.224 366.987 337.624 366.987 334.744V332.056C366.987 329.176 368.779 327.576 371.595 327.576C374.411 327.576 376.203 329.176 376.203 332.056V334.744C376.203 337.624 374.411 339.224 371.595 339.224ZM371.595 337.336C373.179 337.336 374.091 336.344 374.091 334.808V331.992C374.091 330.456 373.179 329.464 371.595 329.464C370.043 329.464 369.099 330.456 369.099 331.992V334.808C369.099 336.344 370.043 337.336 371.595 337.336ZM380.807 339H378.695V327.8H380.807V339ZM385.634 339H383.554V327.8H387.57L389.794 337.56H390.082V327.8H392.162V339H388.146L385.922 329.24H385.634V339Z" fill="black"/>
</g>
<rect x="218" y="92" width="64" height="24" rx="12" fill="#9E76FF"/>
<path d="M241.09 110H238.978V98.8H243.842C246.002 98.8 247.33 100 247.33 101.792V101.984C247.33 103.328 246.611 104.144 245.667 104.528V104.816C246.514 104.864 247.01 105.44 247.01 106.336V110H244.898V106.64C244.898 106.128 244.659 105.776 244.035 105.776H241.09V110ZM241.09 100.72V103.856H243.618C244.627 103.856 245.219 103.264 245.219 102.368V102.208C245.219 101.312 244.642 100.72 243.618 100.72H241.09ZM251.84 110H249.728V98.8H251.84V110ZM256.699 110H254.587V98.8H261.627V100.72H256.699V103.424H261.243V105.344H256.699V110Z" fill="black"/>
<rect x="452" y="201" width="271" height="24" rx="12" fill="#FF70E0"/>
<path d="M462.371 219H460.259V207.8H465.123C467.283 207.8 468.611 209 468.611 210.792V210.984C468.611 212.328 467.891 213.144 466.947 213.528V213.816C467.795 213.864 468.291 214.44 468.291 215.336V219H466.179V215.64C466.179 215.128 465.939 214.776 465.315 214.776H462.371V219ZM462.371 209.72V212.856H464.899C465.907 212.856 466.499 212.264 466.499 211.368V211.208C466.499 210.312 465.923 209.72 464.899 209.72H462.371ZM475.36 219.224C472.544 219.224 470.752 217.624 470.752 214.744V212.056C470.752 209.176 472.544 207.576 475.36 207.576C478.176 207.576 479.968 209.176 479.968 212.056V214.744C479.968 217.624 478.176 219.224 475.36 219.224ZM475.36 217.336C476.944 217.336 477.856 216.344 477.856 214.808V211.992C477.856 210.456 476.944 209.464 475.36 209.464C473.808 209.464 472.864 210.456 472.864 211.992V214.808C472.864 216.344 473.808 217.336 475.36 217.336ZM486.813 219.224C483.997 219.224 482.205 217.624 482.205 214.744V212.056C482.205 209.176 483.997 207.576 486.813 207.576C489.629 207.576 491.421 209.176 491.421 212.056V214.744C491.421 217.624 489.629 219.224 486.813 219.224ZM486.813 217.336C488.397 217.336 489.309 216.344 489.309 214.808V211.992C489.309 210.456 488.397 209.464 486.813 209.464C485.261 209.464 484.317 210.456 484.317 211.992V214.808C484.317 216.344 485.261 217.336 486.813 217.336ZM498.164 219H496.052V209.72H492.788V207.8H501.428V209.72H498.164V219ZM507.207 219.224C504.583 219.224 502.807 217.752 502.807 215.352V214.904H504.887V215.352C504.887 216.696 505.783 217.368 507.207 217.368C508.663 217.368 509.367 216.728 509.367 215.832C509.367 215.528 509.287 215.272 509.111 215.08C508.759 214.696 508.071 214.472 507.111 214.264L506.743 214.184C505.975 214.008 505.319 213.8 504.775 213.528C503.671 213.016 503.063 212.2 503.063 210.84C503.063 208.808 504.599 207.576 507.015 207.576C509.527 207.576 511.159 208.856 511.159 211.224V211.704H509.079V211.224C509.079 209.96 508.311 209.432 507.015 209.432C505.735 209.432 505.143 209.944 505.143 210.776C505.143 211.624 505.799 212.008 507.111 212.296L507.479 212.376C508.279 212.552 508.983 212.76 509.575 213.032C510.759 213.56 511.447 214.408 511.447 215.768C511.447 217.832 509.783 219.224 507.207 219.224ZM518.007 219H515.895V209.72H512.631V207.8H521.271V209.72H518.007V219ZM527.248 219.224C524.432 219.224 522.64 217.624 522.64 214.744V212.056C522.64 209.176 524.432 207.576 527.248 207.576C530.064 207.576 531.856 209.176 531.856 212.056V214.744C531.856 217.624 530.064 219.224 527.248 219.224ZM527.248 217.336C528.832 217.336 529.744 216.344 529.744 214.808V211.992C529.744 210.456 528.832 209.464 527.248 209.464C525.696 209.464 524.752 210.456 524.752 211.992V214.808C524.752 216.344 525.696 217.336 527.248 217.336ZM538.604 219.224C535.836 219.224 534.092 217.624 534.092 214.744V212.056C534.092 209.176 535.836 207.576 538.604 207.576C541.356 207.576 542.924 209.176 542.924 211.8V211.896H540.844V211.736C540.844 210.408 540.124 209.464 538.604 209.464C537.116 209.464 536.204 210.44 536.204 212.024V214.776C536.204 216.328 537.116 217.336 538.604 217.336C540.124 217.336 540.844 216.36 540.844 215.064V214.776H542.924V215C542.924 217.624 541.356 219.224 538.604 219.224ZM547.397 219H545.285V207.8H547.397V212.248H547.685L551.317 207.8H554.021L549.349 213.32L554.181 219H551.397L547.685 214.456H547.397V219ZM564.531 219.224C561.907 219.224 560.131 217.752 560.131 215.352V214.904H562.211V215.352C562.211 216.696 563.107 217.368 564.531 217.368C565.987 217.368 566.691 216.728 566.691 215.832C566.691 215.528 566.611 215.272 566.435 215.08C566.083 214.696 565.395 214.472 564.435 214.264L564.067 214.184C563.299 214.008 562.643 213.8 562.099 213.528C560.995 213.016 560.387 212.2 560.387 210.84C560.387 208.808 561.923 207.576 564.339 207.576C566.851 207.576 568.483 208.856 568.483 211.224V211.704H566.403V211.224C566.403 209.96 565.635 209.432 564.339 209.432C563.059 209.432 562.467 209.944 562.467 210.776C562.467 211.624 563.123 212.008 564.435 212.296L564.803 212.376C565.603 212.552 566.307 212.76 566.899 213.032C568.083 213.56 568.771 214.408 568.771 215.768C568.771 217.832 567.107 219.224 564.531 219.224ZM573.034 219H570.986V207.8H574.906L576.842 217.56H577.13L579.066 207.8H582.986V219H580.938V209.352H580.65L578.73 219H575.242L573.322 209.352H573.034V219ZM587.144 219H584.968L587.912 207.8H591.592L594.536 219H592.36L591.752 216.536H587.752L587.144 219ZM588.248 214.584H591.256L589.896 209.128H589.608L588.248 214.584ZM598.628 219H596.516V207.8H601.38C603.54 207.8 604.868 209 604.868 210.792V210.984C604.868 212.328 604.148 213.144 603.204 213.528V213.816C604.052 213.864 604.548 214.44 604.548 215.336V219H602.436V215.64C602.436 215.128 602.196 214.776 601.572 214.776H598.628V219ZM598.628 209.72V212.856H601.156C602.164 212.856 602.756 212.264 602.756 211.368V211.208C602.756 210.312 602.18 209.72 601.156 209.72H598.628ZM611.782 219H609.67V209.72H606.406V207.8H615.046V209.72H611.782V219ZM625.599 219.224C622.831 219.224 621.087 217.624 621.087 214.744V212.056C621.087 209.176 622.831 207.576 625.599 207.576C628.351 207.576 629.919 209.176 629.919 211.8V211.896H627.839V211.736C627.839 210.408 627.119 209.464 625.599 209.464C624.111 209.464 623.199 210.44 623.199 212.024V214.776C623.199 216.328 624.111 217.336 625.599 217.336C627.119 217.336 627.839 216.36 627.839 215.064V214.776H629.919V215C629.919 217.624 628.351 219.224 625.599 219.224ZM636.631 219.224C633.815 219.224 632.023 217.624 632.023 214.744V212.056C632.023 209.176 633.815 207.576 636.631 207.576C639.447 207.576 641.239 209.176 641.239 212.056V214.744C641.239 217.624 639.447 219.224 636.631 219.224ZM636.631 217.336C638.215 217.336 639.127 216.344 639.127 214.808V211.992C639.127 210.456 638.215 209.464 636.631 209.464C635.079 209.464 634.135 210.456 634.135 211.992V214.808C634.135 216.344 635.079 217.336 636.631 217.336ZM645.812 219H643.732V207.8H647.748L649.972 217.56H650.26V207.8H652.34V219H648.324L646.1 209.24H645.812V219ZM659.795 219H657.683V209.72H654.419V207.8H663.059V209.72H659.795V219ZM667.249 219H665.137V207.8H670.001C672.161 207.8 673.489 209 673.489 210.792V210.984C673.489 212.328 672.769 213.144 671.825 213.528V213.816C672.673 213.864 673.169 214.44 673.169 215.336V219H671.057V215.64C671.057 215.128 670.817 214.776 670.193 214.776H667.249V219ZM667.249 209.72V212.856H669.777C670.785 212.856 671.377 212.264 671.377 211.368V211.208C671.377 210.312 670.801 209.72 669.777 209.72H667.249ZM677.294 219H675.118L678.062 207.8H681.742L684.686 219H682.51L681.902 216.536H677.902L677.294 219ZM678.398 214.584H681.406L680.046 209.128H679.758L678.398 214.584ZM690.829 219.224C688.061 219.224 686.317 217.624 686.317 214.744V212.056C686.317 209.176 688.061 207.576 690.829 207.576C693.581 207.576 695.149 209.176 695.149 211.8V211.896H693.069V211.736C693.069 210.408 692.349 209.464 690.829 209.464C689.341 209.464 688.429 210.44 688.429 212.024V214.776C688.429 216.328 689.341 217.336 690.829 217.336C692.349 217.336 693.069 216.36 693.069 215.064V214.776H695.149V215C695.149 217.624 693.581 219.224 690.829 219.224ZM701.995 219H699.883V209.72H696.619V207.8H705.259V209.72H701.995V219ZM711.038 219.224C708.414 219.224 706.638 217.752 706.638 215.352V214.904H708.718V215.352C708.718 216.696 709.614 217.368 711.038 217.368C712.494 217.368 713.198 216.728 713.198 215.832C713.198 215.528 713.118 215.272 712.942 215.08C712.59 214.696 711.902 214.472 710.942 214.264L710.574 214.184C709.806 214.008 709.15 213.8 708.606 213.528C707.502 213.016 706.894 212.2 706.894 210.84C706.894 208.808 708.43 207.576 710.846 207.576C713.358 207.576 714.99 208.856 714.99 211.224V211.704H712.91V211.224C712.91 209.96 712.142 209.432 710.846 209.432C709.566 209.432 708.974 209.944 708.974 210.776C708.974 211.624 709.63 212.008 710.942 212.296L711.31 212.376C712.11 212.552 712.814 212.76 713.406 213.032C714.59 213.56 715.278 214.408 715.278 215.768C715.278 217.832 713.614 219.224 711.038 219.224Z" fill="black"/>
<defs>
<clipPath id="clip0_250_2488">
<rect width="317" height="384" fill="white" transform="translate(250)"/>
</clipPath>
</defs>
</svg>
