<?xml version="1.0" encoding="utf-8"?>
<!-- Generator: Adobe Illustrator 22.0.0, SVG Export Plug-In . SVG Version: 6.00 Build 0)  -->
<svg version="1.1" id="Capa_1" xmlns="http://www.w3.org/2000/svg" xmlns:xlink="http://www.w3.org/1999/xlink" x="0px" y="0px"
	 viewBox="0 0 100 136.4" style="enable-background:new 0 0 100 136.4;" xml:space="preserve">
<style type="text/css">
	.st0{fill:#FFFFFF;}
</style>
<g>
	<g>
		<g>
			<g>
				<path class="st0" d="M96.6,60.8c-0.4-0.2-9.6-5.1-17.4-0.6c-6.2,3.6-7.5,10.8-7.7,13.8l-2.9,1.7c-1.4-1.4-3.4-2.3-5.6-2.3
					c-2.1,0-4.1,0.9-5.5,2.2L44.3,68c0.2-0.6,0.2-1.3,0.2-1.9c0-3.6-2.4-6.7-5.8-7.7v-4.7c3.9-2.5,16.1-11.4,16.1-25.7
					c0-16.5-16.4-26.9-17.1-27.3L36.6,0l-1.2,0.7C34.7,1.1,18.3,11.5,18.3,28c0,14.3,12.2,23.3,16.1,25.7v4.7c-3.3,1-5.8,4-5.8,7.7
					c0,0.7,0.1,1.3,0.2,1.9l-13.2,7.6c-1.4-1.4-3.4-2.2-5.5-2.2c-4.4,0-8,3.6-8,8c0,3.6,2.4,6.7,5.8,7.7v15.8c-3.3,1-5.8,4-5.8,7.7
					c0,4.4,3.6,8,8,8c2.3,0,4.4-1,5.9-2.6l12.8,7.4c-0.2,0.6-0.2,1.3-0.2,1.9c0,4.4,3.6,8,8,8c4.4,0,8-3.6,8-8
					c0-0.7-0.1-1.3-0.2-1.9l12.8-7.4c1.5,1.6,3.6,2.6,5.9,2.6c4.4,0,8-3.6,8-8c0-3.6-2.4-6.7-5.8-7.7V89.1c3.3-1,5.8-4,5.8-7.7
					c0-0.6-0.1-1.3-0.2-1.9l2.9-1.7c1.7,0.8,5,2.1,8.8,2.1c2.3,0,4.8-0.5,7.1-1.9c7.8-4.5,8.2-14.9,8.2-15.3l0-1.4L96.6,60.8z
					 M65.3,84.2c-0.6,0.5-1.4,0.8-2.2,0.8c-0.4,0-0.9-0.1-1.3-0.2c-0.3-0.1-0.7-0.3-0.9-0.5c-0.7-0.5-1.2-1.4-1.3-2.3
					c0-0.2,0-0.3,0-0.5c0-0.2,0-0.3,0-0.4c0.2-1.3,1-2.4,2.2-2.9c0.4-0.2,0.9-0.2,1.3-0.2c0.5,0,1,0.1,1.4,0.3
					c1.3,0.5,2.2,1.8,2.2,3.3c0,0.2,0,0.4,0,0.6C66.4,82.9,65.9,83.7,65.3,84.2z M66.6,112.6c0,2-1.6,3.6-3.6,3.6
					c-0.7,0-1.3-0.2-1.9-0.5c-1-0.6-1.7-1.7-1.7-3c0,0,0-0.1,0-0.1v0c0-0.4,0.1-0.7,0.2-1.1c0.2-0.6,0.6-1.2,1.1-1.6
					c0.4-0.4,1-0.6,1.6-0.7c0.2,0,0.4-0.1,0.6-0.1c0.8,0,1.6,0.3,2.2,0.8C66.1,110.4,66.6,111.4,66.6,112.6z M60.9,104.9
					c-1.1,0.3-2.1,0.8-2.9,1.6l-13.5-7.8v0c0.1-0.5,0.2-1,0.2-1.6c0-0.8-0.1-1.5-0.3-2.2l13.3-7.7c0.9,0.9,2,1.5,3.3,1.9V104.9z
					 M36.6,130.8c-1.8,0-3.3-1.3-3.5-3c0-0.2,0-0.4,0-0.5c0-1.5,0.9-2.8,2.2-3.3c0.4-0.2,0.9-0.3,1.3-0.3c0.5,0,0.9,0.1,1.3,0.3
					c1.3,0.5,2.2,1.8,2.2,3.3c0,0.2,0,0.4,0,0.5C39.9,129.5,38.4,130.8,36.6,130.8z M28.8,98.7l-13.5,7.8c-0.8-0.7-1.8-1.3-2.9-1.6
					V89.1c1.3-0.4,2.4-1,3.3-1.9L29,94.8c-0.2,0.7-0.3,1.5-0.3,2.3C28.6,97.6,28.7,98.2,28.8,98.7L28.8,98.7z M13.7,112.6
					c0,1.3-0.7,2.4-1.7,3c-0.5,0.3-1.2,0.5-1.9,0.5c-2,0-3.6-1.6-3.6-3.6c0-1.1,0.5-2.1,1.3-2.8c0.6-0.5,1.4-0.8,2.2-0.8
					c0.2,0,0.4,0,0.6,0.1c0.6,0.1,1.1,0.4,1.6,0.7c0.5,0.4,0.9,1,1.1,1.6c0.1,0.3,0.2,0.7,0.2,1.1C13.7,112.5,13.7,112.5,13.7,112.6
					z M6.6,81.4c0-2,1.6-3.6,3.6-3.6c0.5,0,0.9,0.1,1.3,0.2c1.2,0.5,2,1.5,2.2,2.8c0,0.2,0,0.3,0,0.5c0,0.2,0,0.3,0,0.5
					c-0.1,0.9-0.6,1.7-1.3,2.3c-0.3,0.2-0.6,0.4-0.9,0.5C11,84.9,10.6,85,10.1,85c-0.8,0-1.6-0.3-2.2-0.8
					C7.1,83.6,6.6,82.5,6.6,81.4z M34.4,63.3c0.6-0.5,1.4-0.8,2.2-0.8c0.8,0,1.6,0.3,2.2,0.8c0.7,0.6,1.2,1.4,1.3,2.3
					c0,0.2,0,0.3,0,0.5c0,1.1-0.5,2.1-1.4,2.8c-0.3,0.2-0.6,0.4-0.9,0.5c-0.4,0.2-0.9,0.3-1.3,0.3c-0.5,0-0.9-0.1-1.3-0.3
					c-0.3-0.1-0.6-0.3-0.9-0.5c-0.8-0.6-1.4-1.7-1.4-2.8c0-0.2,0-0.4,0-0.5C33.2,64.7,33.7,63.9,34.4,63.3z M40.2,97.2
					c0,1.1-0.6,2-1.3,2.7c-0.2,0.1-0.3,0.2-0.5,0.3c-0.5,0.3-1.1,0.4-1.7,0.4c-0.6,0-1.2-0.2-1.7-0.4c-0.2-0.1-0.4-0.2-0.5-0.3
					c-0.8-0.6-1.3-1.6-1.3-2.7c0,0,0-0.1,0-0.1c0-0.3,0-0.6,0.1-0.9c0.2-0.8,0.6-1.4,1.2-1.9c0.4-0.3,0.8-0.5,1.3-0.6
					c0.3-0.1,0.6-0.1,0.9-0.1c0.3,0,0.6,0,0.9,0.1c0.5,0.1,0.9,0.3,1.3,0.6c0.6,0.5,1,1.1,1.2,1.8c0.1,0.3,0.1,0.6,0.1,1
					C40.2,97.1,40.2,97.2,40.2,97.2L40.2,97.2z M55.3,79.5c-0.2,0.6-0.2,1.3-0.2,1.9c0,0.7,0.1,1.3,0.2,2l-13.4,7.7
					c-0.9-0.8-1.9-1.4-3.1-1.7V73.8c1.3-0.4,2.4-1,3.3-1.9L55.3,79.5z M22.7,28c0-11.7,10.3-20.2,13.9-22.8
					c3.5,2.5,13.9,11,13.9,22.8c0,9.8-7.3,16.9-11.6,20.3V29.8c0-1.2-1-2.2-2.2-2.2c-1.2,0-2.2,1-2.2,2.2v18.5
					C30,45,22.7,37.9,22.7,28z M31.1,71.9c0.9,0.9,2.1,1.6,3.3,1.9v15.6c-1.1,0.3-2.2,0.9-3.1,1.7l-13.5-7.8
					c0.2-0.6,0.2-1.3,0.2-1.9c0-0.7-0.1-1.3-0.2-1.9L31.1,71.9z M18,114c0.1-0.4,0.1-0.9,0.1-1.4c0-0.9-0.1-1.7-0.4-2.4l13.1-7.6
					c1,1,2.2,1.8,3.6,2.2v14.8c-1.3,0.4-2.4,1-3.3,1.9L18,114z M42.1,121.5c-0.9-0.9-2.1-1.6-3.3-1.9v-14.8c1.4-0.4,2.6-1.2,3.6-2.2
					l13.1,7.6c-0.2,0.8-0.4,1.6-0.4,2.4c0,0.5,0,0.9,0.1,1.4L42.1,121.5z M87.4,74.3c-2.9,1.7-6.2,1.4-8.7,0.7l4.4-2.5
					c1.1-0.6,1.4-2,0.8-3c-0.6-1.1-2-1.4-3-0.8l-4.4,2.5c0.7-2.5,2.1-5.5,5-7.2c4.2-2.4,9.4-0.9,11.8,0.1
					C92.9,66.6,91.6,71.9,87.4,74.3z"/>
			</g>
		</g>
	</g>
</g>
</svg>
