<?xml version="1.0" encoding="utf-8"?>
<!-- Generator: Adobe Illustrator 22.0.1, SVG Export Plug-In . SVG Version: 6.00 Build 0)  -->
<svg version="1.1" id="Layer_1" xmlns="http://www.w3.org/2000/svg" xmlns:xlink="http://www.w3.org/1999/xlink" x="0px" y="0px"
	 viewBox="0 0 415 35" style="enable-background:new 0 0 415 35;" xml:space="preserve">
<style type="text/css">
	.st0{fill:#E50E32;}
	.st1{fill:#0A0A0A;}
</style>
<g>
	<path class="st0" d="M13.3,27.8V25h3.6v2.8c0,2.3-0.7,4.1-2.1,5.3c-1.4,1.2-3.5,1.9-6.3,1.9c-2.8,0-4.9-0.6-6.4-1.9
		c-1.4-1.2-2.2-3-2.2-5.3V7.3C0,5,0.7,3.2,2.1,2c1.4-1.2,3.5-1.9,6.3-1.9c2.8,0,4.9,0.6,6.4,1.9c1.4,1.2,2.2,3,2.2,5.3v4.9h-3.6V7.3
		c0-2.7-1.6-4.1-4.9-4.1S3.6,4.5,3.6,7.3v20.5c0,2.7,1.6,4.1,4.9,4.1S13.3,30.6,13.3,27.8"/>
	<path class="st1" d="M67.3,35h-3.5v-9.6c-4.5-0.5-6.8-2.9-6.8-7.2V1h3.5v17.2c0,2.8,1.7,4.2,5,4.2c3.3,0,5-1.4,5-4.2V1H74v17.2
		c0,4.3-2.2,6.7-6.7,7.2V35z"/>
	<polygon class="st1" points="131,1 131,4.1 124.3,4.1 124.3,35 120.7,35 120.7,4.1 114,4.1 114,1 	"/>
	<path class="st1" d="M156.2,27.8V7.3c0-2.7-1.7-4.1-5.2-4.1c-3.5,0-5.2,1.4-5.2,4.1v20.5c0,2.7,1.7,4.1,5.2,4.1
		C154.5,31.9,156.2,30.6,156.2,27.8 M159.9,7.3v20.5c0,2.3-0.7,4.1-2.2,5.3c-1.5,1.2-3.7,1.9-6.6,1.9s-5.1-0.6-6.6-1.9
		c-1.5-1.2-2.2-3-2.2-5.3V7.3c0-2.3,0.7-4.1,2.2-5.3c1.5-1.2,3.7-1.9,6.6-1.9c2.9,0,5.1,0.6,6.6,1.9C159.1,3.2,159.9,5,159.9,7.3"/>
	<path class="st0" d="M188.4,27.8c0,4.8-2.9,7.2-8.8,7.2c-5.8,0-8.8-2.4-8.8-7.2v-4.4h3.6V28c0,1.2,0.4,2.2,1.3,2.9
		c0.9,0.7,2.1,1,3.8,1c1.7,0,3-0.3,3.8-1c0.9-0.7,1.3-1.6,1.3-2.8s-0.1-2.1-0.4-2.8c-0.3-0.7-0.8-1.4-1.6-2.2l-9.1-8.8
		c-1.1-1.1-1.8-2.1-2.2-3.1c-0.4-1-0.6-2.3-0.6-3.8c0-2.3,0.7-4.1,2.2-5.3c1.4-1.2,3.6-1.9,6.5-1.9c5.6,0,8.4,2.4,8.4,7.2v4.4h-3.6
		V7.1c0-1.2-0.4-2.2-1.2-2.9c-0.8-0.7-2-1-3.7-1c-1.6,0-2.8,0.3-3.7,1s-1.2,1.6-1.2,2.8c0,1.2,0.1,2.1,0.4,2.8
		c0.2,0.7,0.8,1.4,1.6,2.2l9.3,8.8c1,1.1,1.7,2.1,2.1,3.2C188.2,25,188.4,26.3,188.4,27.8"/>
	<path class="st1" d="M236.5,1c-1.6,0-3,1.1-3.4,2.7L226,35c2.2,0,4-1.5,4.5-3.6l1-4.3l0.7-3.1l4.3-18.9l4.3,18.9l0.7,3.1l1,4.3
		c0.5,2.1,2.3,3.6,4.5,3.6l-7.1-31.3C239.5,2.1,238.1,1,236.5,1 M269.1,27.8V25h3.6v2.8c0,2.3-0.7,4.1-2.1,5.3
		c-1.4,1.2-3.5,1.9-6.4,1.9c-2.8,0-5-0.6-6.4-1.9c-1.5-1.2-2.2-3-2.2-5.3V7.3c0-2.3,0.7-4.1,2.1-5.3c1.4-1.2,3.5-1.9,6.4-1.9
		c2.8,0,5,0.6,6.4,1.9s2.2,3,2.2,5.3v4.9h-3.6V7.3c0-2.7-1.6-4.1-4.9-4.1s-4.9,1.4-4.9,4.1v20.5c0,2.7,1.6,4.1,4.9,4.1
		S269.1,30.6,269.1,27.8"/>
	<path class="st0" d="M329.9,27.8c0,4.8-2.9,7.2-8.7,7.2c-5.8,0-8.7-2.4-8.7-7.2v-4.4h3.6V28c0,1.2,0.4,2.2,1.3,2.9
		c0.9,0.7,2.1,1,3.8,1c1.7,0,2.9-0.3,3.8-1c0.9-0.7,1.3-1.6,1.3-2.8s-0.1-2.1-0.4-2.8c-0.3-0.7-0.8-1.4-1.6-2.2l-9-8.8
		c-1.1-1.1-1.8-2.1-2.2-3.1c-0.4-1-0.6-2.3-0.6-3.8c0-2.3,0.7-4.1,2.1-5.3s3.6-1.9,6.4-1.9c5.5,0,8.3,2.4,8.3,7.2v4.4h-3.6V7.1
		c0-1.2-0.4-2.2-1.2-2.9c-0.8-0.7-2-1-3.6-1c-1.6,0-2.8,0.3-3.6,1s-1.2,1.6-1.2,2.8c0,1.2,0.1,2.1,0.4,2.8c0.2,0.7,0.8,1.4,1.6,2.2
		l9.2,8.8c1,1.1,1.7,2.1,2.1,3.2C329.7,25,329.9,26.3,329.9,27.8"/>
	<polygon class="st1" points="344.5,35 341,35 341,1 344.5,1 344.5,16.2 354.5,16.2 354.5,1 358,1 358,35 354.5,35 354.5,19.3 
		344.5,19.3 	"/>
	<polygon class="st1" points="376,35 380,35 380,1 376,1 	"/>
	<path class="st1" d="M412.9,2.9c-1.4-1.3-3.4-1.9-6.1-1.9H399v3.1h3.6h4.2c1.5,0,2.6,0.4,3.4,1.1c0.8,0.7,1.2,1.8,1.2,3.1v8.9
		c0,2.8-1.5,4.2-4.6,4.2h-4.2H399V35h3.6V24.5h4.2c2.7,0,4.8-0.6,6.1-1.9c1.4-1.3,2.1-3.1,2.1-5.4V8.3C415,6,414.3,4.2,412.9,2.9
		 M39.6,22.4c3.1-1,4.6-3.2,4.6-6.8V8.3c0-2.3-0.7-4.1-2.1-5.4C40.7,1.6,38.6,1,35.9,1H28v3.1h4v0h3.9c1.5,0,2.6,0.4,3.4,1.1
		C40.1,6,40.5,7,40.5,8.3v7.3c0,2.8-1.5,4.2-4.6,4.2H32V23h3.9L42,35h4L39.6,22.4z"/>
	<polygon class="st1" points="288.7,4 289.9,4 300,4 300,1 285,1 285,4 	"/>
	<polygon class="st1" points="294.2,31 294.2,31 285,31 285,34 300,34 300,31 	"/>
	<polygon class="st1" points="298,19 298,16 289.9,16 288.7,16 285,16 285,19 288.7,19 294.6,19 	"/>
	<path class="st1" d="M99.9,2.9C98.5,1.6,96.5,1,93.8,1H86v3.1h3.6h4.2c1.5,0,2.6,0.4,3.4,1.1s1.2,1.8,1.2,3.1v8.9
		c0,2.8-1.5,4.2-4.6,4.2h-4.2H86V35h3.6V24.5h4.2c2.7,0,4.8-0.6,6.1-1.9c1.4-1.3,2.1-3.1,2.1-5.4V8.3C102,6,101.3,4.2,99.9,2.9
		 M213.9,2.9c-1.4-1.3-3.4-1.9-6.1-1.9H200v3.1h3.6h4.2c1.5,0,2.6,0.4,3.4,1.1c0.8,0.7,1.2,1.8,1.2,3.1v8.9c0,2.8-1.5,4.2-4.6,4.2
		h-4.2H200V35h3.6V24.5h4.2c2.7,0,4.8-0.6,6.1-1.9c1.4-1.3,2.1-3.1,2.1-5.4V8.3C216,6,215.3,4.2,213.9,2.9"/>
</g>
</svg>
