<svg id="Layer_1" data-name="Layer 1" xmlns="http://www.w3.org/2000/svg" viewBox="0 0 1010.59 1010.59"><defs><style>.cls-1{fill:#00a59b;}.cls-2{fill:#04364f;}.cls-3{fill:#fff;}</style></defs><circle class="cls-1" cx="505.3" cy="505.3" r="500"/><circle class="cls-2" cx="505.29" cy="505.29" r="451.44" transform="translate(-209.3 505.29) rotate(-45)"/><rect class="cls-1" x="74.05" y="697.56" width="882.68" height="19.75"/><path class="cls-3" d="M505.29,30.6c-261.74,0-474.69,213-474.69,474.69S243.55,980,505.29,980,980,767,980,505.29,767,30.6,505.29,30.6Zm0,937.76C249.55,968.36,42.23,761,42.23,505.3S249.55,42.23,505.29,42.23,968.36,249.55,968.36,505.3,761,968.36,505.29,968.36Z"/><path class="cls-3" d="M505.3,42.23C249.55,42.23,42.23,249.55,42.23,505.3S249.55,968.36,505.3,968.36,968.36,761,968.36,505.3,761,42.23,505.3,42.23Zm0,914.5c-248.92,0-451.43-202.51-451.43-451.44S256.37,53.86,505.29,53.86,956.73,256.37,956.73,505.29,754.22,956.73,505.29,956.73Z"/><rect class="cls-3" x="236.18" y="205.17" width="87.29" height="600.26"/><polygon class="cls-3" points="679.31 205.17 508.88 594.48 415.92 386.5 415.92 591.83 466.19 805.42 547.28 805.42 686.47 360.88 686.47 805.42 774.41 805.42 774.41 205.17 679.31 205.17"/></svg>