<?xml version="1.0" encoding="utf-8"?>
<!-- Generator: Adobe Illustrator 24.3.0, SVG Export Plug-In . SVG Version: 6.00 Build 0)  -->
<svg version="1.1" id="Layer_1" xmlns="http://www.w3.org/2000/svg" xmlns:xlink="http://www.w3.org/1999/xlink" x="0px" y="0px"
	 viewBox="0 0 156 40" style="enable-background:new 0 0 156 40;" xml:space="preserve">
<style type="text/css">
	.st0{fill:#242759;}
</style>
<g>
	<g>
		<g>
			<path class="st0" d="M71,13c2.6,0,4.2,1.1,5,2.3l-2.2,2.1c-0.6-0.9-1.5-1.4-2.6-1.4c-2,0-3.4,1.5-3.4,3.7s1.4,3.7,3.4,3.7
				c1.2,0,2.1-0.5,2.6-1.4l2.2,2c-0.8,1.2-2.4,2.3-5,2.3c-3.9,0-6.7-2.8-6.7-6.7S67.1,13,71,13z"/>
			<path class="st0" d="M76.6,19.6c0-3.6,2.5-6.7,6.7-6.7s6.7,3,6.7,6.7s-2.5,6.7-6.7,6.7C79.1,26.3,76.6,23.2,76.6,19.6z
				 M86.6,19.6c0-1.9-1.2-3.7-3.2-3.7s-3.2,1.7-3.2,3.7s1.2,3.7,3.2,3.7C85.4,23.3,86.6,21.6,86.6,19.6z"/>
			<path class="st0" d="M91.8,9.4c0-1.1,0.9-2,2-2c1.1,0,2,0.9,2,2s-0.9,2-2,2C92.7,11.4,91.8,10.5,91.8,9.4z M92.1,13.3h3.4v12.7
				h-3.4V13.3z"/>
			<path class="st0" d="M106.9,18.3c0-1.7-0.9-2.4-2.3-2.4c-1.3,0-2.3,0.7-2.9,1.5v8.5h-3.4V13.3h3.4V15c0.8-1,2.4-1.9,4.5-1.9
				c2.8,0,4.1,1.5,4.1,4.1v9h-3.4L106.9,18.3L106.9,18.3z"/>
			<path class="st0" d="M128.1,13.3h3.4V15c0.9-1.1,2.5-2,4.1-2v3.2c-0.3-0.1-0.6-0.1-0.9-0.1c-1.1,0-2.6,0.6-3.1,1.4v8.4h-3.4
				L128.1,13.3L128.1,13.3z"/>
			<path class="st0" d="M152.8,17.9c0-1.2-0.5-2-1.9-2c-1.2,0-2.1,0.8-2.6,1.5v8.5h-3.4v-8c0-1.2-0.5-2-1.9-2
				c-1.2,0-2.1,0.8-2.6,1.5v8.5H137V13.3h3.4V15c0.5-0.8,2.2-1.9,4.1-1.9c1.9,0,3,0.8,3.5,2.3c0.7-1.2,2.4-2.3,4.3-2.3
				c2.3,0,3.7,1.2,3.7,3.8V26h-3.4L152.8,17.9L152.8,17.9z"/>
			<path class="st0" d="M118.8,10.4c0.4,0,0.8,0.1,1.1,0.3l0.5-2.5c-0.6-0.3-1.4-0.4-2.2-0.4c-2.5,0-4.3,1.7-4.3,4.4v1h-2.1v2.9h2.1
				v9.7h3.4v-9.7h2.6v-2.9h-2.6v-1C117.2,11.1,117.9,10.4,118.8,10.4z"/>
			<path class="st0" d="M121.5,9.4c0-1.1,0.9-2,2-2s2,0.9,2,2s-0.9,2-2,2C122.5,11.4,121.5,10.5,121.5,9.4z M121.9,13.3h3.4v12.7
				h-3.4V13.3z"/>
		</g>
		<g>
			<rect x="32.6" y="9.4" transform="matrix(0.7071 -0.7071 0.7071 0.7071 1.4411 29.3577)" class="st0" width="7.2" height="7.2"/>
			
				<rect x="32.6" y="23.5" transform="matrix(0.7071 -0.7071 0.7071 0.7071 -8.5576 33.5023)" class="st0" width="7.2" height="7.2"/>
			
				<rect x="39.6" y="16.4" transform="matrix(0.7071 -0.7071 0.7071 0.7071 -1.4537 36.416)" class="st0" width="7.2" height="7.2"/>
			<polygon class="st0" points="27,17 20,24 15.9,20 18,18 20,20 25,15 			"/>
			<path class="st0" d="M31.1,31.1L31.1,31.1c-6.1,6.1-16.1,6.1-22.2,0S2.8,15,8.9,8.9s16.1-6.1,22.2,0l0,0l3-3
				C26.3-2,13.7-2,5.9,5.9s-7.8,20.5,0,28.3s20.5,7.8,28.3,0l0,0L31.1,31.1z"/>
		</g>
	</g>
</g>
</svg>
