<svg width="800" height="252" viewBox="0 0 800 252" fill="none" xmlns="http://www.w3.org/2000/svg">
<path d="M359.33 91.6642C364.794 91.6478 370.241 92.2832 375.554 93.5569C381.453 95.0408 387.167 97.1813 392.589 99.9383V117.568C387.368 114.487 381.817 112.002 376.041 110.159C370.893 108.612 365.544 107.837 360.169 107.861C353.687 107.754 347.276 109.22 341.484 112.133C336.101 114.817 331.604 118.994 328.532 124.166C325.511 129.453 323.922 135.436 323.922 141.525C323.922 147.614 325.511 153.598 328.532 158.885C331.58 164.029 336.063 168.173 341.43 170.809C347.265 173.673 353.697 175.11 360.196 175.001C365.365 175.024 370.508 174.258 375.446 172.729C381.772 170.517 387.889 167.748 393.725 164.455V182.085C388.214 185.058 382.392 187.416 376.365 189.115C370.322 190.588 364.117 191.288 357.897 191.197C348.376 191.368 338.951 189.274 330.398 185.086C322.535 181.15 315.966 175.041 311.47 167.484C306.896 159.888 304.509 151.176 304.575 142.31C304.428 133.037 306.892 123.911 311.687 115.973C316.382 108.25 323.17 102.015 331.263 97.9915C339.983 93.6816 349.605 91.5125 359.33 91.6642Z" fill="#222222"/>
<path d="M437.988 123.815C444.378 123.738 450.692 125.193 456.402 128.06C461.713 130.713 466.152 134.832 469.192 139.931C472.243 145.191 473.804 151.183 473.708 157.263C473.843 163.421 472.34 169.505 469.355 174.893C466.353 180.043 461.906 184.198 456.565 186.844C450.821 189.794 444.445 191.297 437.988 191.225C431.548 191.309 425.186 189.805 419.466 186.844C414.166 184.18 409.758 180.026 406.785 174.893C403.799 169.505 402.296 163.421 402.431 157.263C402.324 151.145 403.915 145.117 407.028 139.849C410.076 134.787 414.503 130.697 419.791 128.06C425.427 125.202 431.669 123.746 437.988 123.815ZM420.359 157.263C420.072 162.835 421.757 168.33 425.117 172.784C426.644 174.673 428.59 176.18 430.801 177.184C433.012 178.189 435.426 178.664 437.853 178.57C440.32 178.695 442.782 178.261 445.057 177.301C447.333 176.341 449.362 174.88 450.995 173.027C454.458 168.48 456.158 162.832 455.781 157.128C456.129 151.618 454.403 146.178 450.94 141.877C449.29 140.07 447.262 138.648 445 137.713C442.738 136.779 440.298 136.354 437.853 136.47C435.453 136.4 433.069 136.877 430.881 137.866C428.694 138.854 426.76 140.328 425.226 142.175C421.815 146.441 420.084 151.808 420.359 157.263V157.263Z" fill="#222222"/>
<path d="M492.907 95.0713C495.462 95.0855 497.909 96.1071 499.717 97.9143C501.524 99.7216 502.546 102.169 502.56 104.724C502.578 105.978 502.349 107.223 501.885 108.388C501.421 109.552 500.731 110.614 499.856 111.511C498.987 112.457 497.929 113.208 496.75 113.716C495.571 114.224 494.298 114.477 493.015 114.459C491.746 114.457 490.491 114.195 489.328 113.688C488.165 113.181 487.119 112.44 486.255 111.511C485.344 110.631 484.619 109.576 484.122 108.411C483.625 107.245 483.366 105.992 483.362 104.724C483.345 103.444 483.596 102.174 484.099 100.995C484.602 99.8174 485.345 98.7573 486.282 97.8834C488.034 96.1102 490.414 95.0997 492.907 95.0713ZM501.451 125.085V189.981H484.524V125.085H501.451Z" fill="white"/>
<path d="M553.124 123.815C556.225 123.696 559.314 124.246 562.183 125.426C565.053 126.606 567.635 128.39 569.754 130.656C574.053 135.654 576.278 142.106 575.973 148.692V189.954H558.938V150.422C559.135 146.839 558.073 143.3 555.936 140.418C554.938 139.211 553.674 138.251 552.244 137.613C550.813 136.975 549.254 136.676 547.689 136.74C545.034 136.753 542.443 137.563 540.253 139.066C537.331 141.248 534.759 143.865 532.628 146.826V190.09H515.539V125.194H532.628V134.28C535.267 130.985 538.564 128.278 542.308 126.33C545.676 124.68 549.375 123.82 553.124 123.815V123.815Z" fill="#222222"/>
<path d="M606.013 92.9355V134.171H606.446C608.715 130.995 611.704 128.401 615.167 126.602C618.631 124.802 622.471 123.847 626.374 123.815C629.477 123.689 632.571 124.232 635.445 125.408C638.319 126.583 640.906 128.364 643.031 130.629C647.376 135.509 649.646 141.893 649.358 148.421V189.954H632.35V151.666C632.535 147.951 631.437 144.285 629.241 141.283C628.236 140.023 626.949 139.019 625.483 138.351C624.017 137.684 622.413 137.373 620.804 137.443C618.196 137.443 615.647 138.215 613.476 139.66C610.619 141.706 608.101 144.188 606.013 147.015V189.954H588.924V92.9355H606.013Z" fill="#222222"/>
<path d="M678.778 125.085V165.212C678.52 168.708 679.646 172.166 681.914 174.839C683.003 175.944 684.311 176.809 685.755 177.378C687.199 177.946 688.746 178.205 690.297 178.137C693.256 178.091 696.132 177.148 698.544 175.433C701.297 173.561 703.507 170.997 704.952 167.997V125.085H722.014V189.981H704.952V181.139C698.787 187.881 692.117 191.243 684.943 191.225C681.816 191.35 678.699 190.806 675.799 189.631C672.898 188.456 670.282 186.677 668.124 184.411C663.756 179.551 661.465 173.174 661.743 166.645V125.085H678.778Z" fill="#222222"/>
<path d="M752.65 92.9355V129.25C757.647 125.657 763.665 123.761 769.82 123.842C775.285 123.782 780.658 125.242 785.341 128.06C789.994 130.881 793.746 134.971 796.157 139.849C798.766 145.125 800.082 150.945 799.996 156.83C799.996 167.484 796.824 175.875 790.478 182.004C784.133 188.133 775.453 191.207 764.439 191.225C754.559 191.251 744.762 189.416 735.561 185.817V92.9355H752.65ZM752.65 176.407C756.783 177.721 761.103 178.351 765.439 178.273C767.822 178.364 770.192 177.892 772.357 176.896C774.523 175.901 776.424 174.408 777.905 172.54C781.23 167.941 782.864 162.334 782.529 156.668C782.797 151.398 781.144 146.21 777.878 142.067C776.372 140.29 774.482 138.88 772.35 137.943C770.219 137.006 767.901 136.567 765.575 136.659C763.333 136.629 761.111 137.081 759.058 137.984C756.749 139.052 754.594 140.425 752.65 142.067V176.407Z" fill="#222222"/>
<path d="M374.527 172.947V189.522L376.339 189.116C382.365 187.417 388.187 185.059 393.698 182.086V164.456C387.862 167.749 381.745 170.518 375.419 172.73L374.527 172.947Z" fill="#22A079"/>
<path d="M158.966 110.484C158.966 110.484 172.188 152.937 223.861 158.831C232.406 159.805 242.086 160.859 251.982 157.939C252.404 157.965 252.816 158.082 253.188 158.281C253.561 158.48 253.887 158.756 254.144 159.092C254.4 159.428 254.581 159.816 254.675 160.228C254.769 160.64 254.772 161.067 254.686 161.481C253.231 171.412 249.939 180.985 244.979 189.711C232.433 212.018 204.879 241.519 142.661 251.902C139.362 251.902 132.845 249.009 129.817 249.523C129.817 249.468 54.7818 183.627 158.966 110.484Z" fill="#CFBFA3"/>
<path d="M142.66 251.902C142.66 251.902 88.3104 174.19 173.648 134.387L163.021 120.543C163.021 120.543 52.5098 176.948 142.66 251.902Z" fill="#B9A798"/>
<path d="M254.687 161.59C253 171.98 249.436 181.976 244.169 191.09L228.377 159.318C235.694 160.292 243.126 159.916 250.307 158.21C253.741 157.426 255.228 158.561 254.687 161.59Z" fill="#222222"/>
<path d="M164.022 183.302C170.1 183.302 175.027 178.375 175.027 172.297C175.027 166.219 170.1 161.292 164.022 161.292C157.944 161.292 153.017 166.219 153.017 172.297C153.017 178.375 157.944 183.302 164.022 183.302Z" fill="#222222"/>
<path d="M166.105 18.4952L175.244 3.46108C159.834 6.02195 144.76 10.303 130.304 16.2238C126.511 16.5802 122.739 17.1307 119.002 17.8732L137.308 0C119.213 4.42784 102.828 14.0973 90.2045 27.7968C88.3387 28.7162 86.5 29.7167 84.7965 30.7712L99.1546 4.32637C79.6778 14.8288 64.4032 31.7073 55.8911 52.1326L64.7601 21.3073C64.7601 21.3073 42.3442 38.2883 38.3694 80.1728C37.8556 81.2003 37.3418 82.2278 36.8551 83.2823L34.4216 45.7512C34.4216 45.7512 12.6276 80.4972 26.6341 119.786L11.4108 81.9303C11.4108 81.9303 1.9739 111.674 24.9306 150.233L0 121.354C0 121.354 2.40653 171.188 30.9064 198.147C30.9064 198.147 41.1544 195.092 47.4547 202.338C57.4909 216.935 70.7738 229.007 86.2606 237.607C101.747 246.206 119.017 251.1 136.713 251.902C138.2 251.902 141.174 251.902 141.174 251.902C141.174 251.902 88.2846 206.232 139.254 141.039C190.251 81.038 256.147 122.76 255.525 117.379C252.446 93.7587 242.237 71.6387 226.26 53.9708C210.283 36.3029 189.298 23.9273 166.105 18.4952V18.4952Z" fill="#22A079"/>
<path d="M118.893 213.289C118.893 213.289 60.5141 233.65 6.27246 154.802C12.091 175.49 22.5083 194.596 36.7462 210.693C56.5663 233.488 95.9362 253.281 142.661 251.848C137.016 247.487 132.308 242.034 128.816 235.813C124.783 228.646 121.459 221.103 118.893 213.289V213.289Z" fill="#1B8061"/>
<path d="M493.546 95C496.102 95.0142 498.549 96.0358 500.356 97.8431C502.163 99.6503 503.185 102.097 503.199 104.653C503.217 105.907 502.988 107.152 502.524 108.316C502.06 109.481 501.371 110.543 500.495 111.44C499.627 112.386 498.568 113.137 497.389 113.645C496.21 114.153 494.938 114.406 493.654 114.387C492.385 114.386 491.13 114.124 489.967 113.617C488.805 113.11 487.758 112.369 486.894 111.44C485.983 110.559 485.258 109.505 484.761 108.339C484.264 107.174 484.006 105.92 484.001 104.653C483.984 103.372 484.235 102.102 484.738 100.924C485.241 99.7461 485.985 98.686 486.921 97.8121C488.673 96.0389 491.053 95.0284 493.546 95ZM502.09 125.014V189.909H485.163V125.014H502.09Z" fill="#222222"/>
</svg>
