<?xml version="1.0" encoding="UTF-8"?><svg id="a" xmlns="http://www.w3.org/2000/svg" viewBox="0 0 1080 408"><defs><style>.b{fill:#fff;}.c{fill:#d7eb36;}</style></defs><path class="b" d="M972.44,116.39h44.73v35.39h-44.73v143.28h-44.04V151.78h-37.8v-17.87c13.35-7.68,46.8-25.76,46.8-70.25h35.03v52.73Z"/><path class="b" d="M327.66,258.27c23.93,0,39.88-9.37,52.36-23.59l23.23,34.34c-13.18,14.22-37.8,30.18-75.94,30.18-56.52,0-92.24-40.59-92.24-93.32s35.72-93.32,92.24-93.32c38.14,0,62.76,15.96,75.94,30.18l-23.23,34.34c-12.48-14.22-28.44-23.59-52.36-23.59-28.78,0-48.55,20.82-48.55,52.38s19.77,52.38,48.55,52.38Z"/><path class="b" d="M452.53,205.89c0,34.34,21.5,54.12,49.59,54.12,25.66,0,47.85-19.77,47.85-54.12s-22.19-54.46-47.85-54.46c-28.09,0-49.59,19.77-49.59,54.46Zm41.96,93.32c-46.12,0-85.65-34.69-85.65-93.32s39.53-93.66,85.65-93.66c22.54,0,41.27,8.33,54.44,21.51v-17.35h43v178.65h-43v-17c-13.18,13.18-31.9,21.16-54.44,21.16Z"/><path class="b" d="M660.36,205.54c0,34.69,22.89,54.46,48.2,54.46,28.78,0,51.67-19.77,51.67-54.46s-22.89-54.12-51.67-54.12c-25.31,0-48.2,19.77-48.2,54.12Zm2.08-72.16c12.83-13.88,32.25-21.17,55.83-21.17,48.55,0,86,36.77,86,93.32s-37.45,93.66-86,93.66c-23.58,0-43-7.63-55.83-21.51v93.66h-44.04V116.39h44.04v17Z"/><path class="c" d="M820.38,63.71c0-7.17,2.86-14.05,7.93-19.12,5.07-5.07,11.94-7.93,19.12-7.93,14.56,0,27.05,12.14,26.7,27.06-.35,14.57-12.13,26.71-26.7,26.71s-27.05-12.14-27.05-26.71Z"/><rect class="b" x="825.58" y="116.39" width="44.04" height="178.65"/><path class="b" d="M249.31,290.2c-.5-.32-4.91-3.14-7.24-5.09-2.78-2.38-5.33-5-7.64-7.83-2.79-3.34-5.36-6.84-7.72-10.5-5.16-8.06-31.62-46.45-52.89-77.29l-5.39-7.83c-14.53-21.37-28.14-41.42-29.4-43.38-2.88-4.51-6.22-8.71-9.95-12.54-3.66-3.75-7.83-6.96-12.39-9.54-4.65-2.62-9.91-3.99-15.25-3.98h-34.92c-2.12,0-3.67,1.74-3.68,4.14,0,1.99,1.05,4.01,2.65,5.02l1-1.53-.99,1.53c.5,.32,4.91,3.14,7.24,5.09,2.77,2.38,5.33,5,7.64,7.83,2.79,3.34,5.36,6.84,7.72,10.5,5.15,8.03,31.49,46.25,52.66,76.96l5.63,8.16c14.52,21.36,28.13,41.4,29.4,43.38,2.88,4.51,6.22,8.71,9.96,12.54,3.66,3.75,7.83,6.96,12.4,9.54,4.65,2.62,9.91,3.99,15.25,3.98h34.92c2.12,0,3.66-1.74,3.68-4.14,0-1.99-1.06-4.01-2.66-5.02Z"/><path class="b" d="M121.32,235.17l-.14-.2-5.76-8.37c-13.03,18.96-24.18,35.26-27.33,40.18-2.35,3.66-4.93,7.16-7.72,10.5-2.31,2.83-4.86,5.45-7.64,7.83-2.33,1.95-6.74,4.78-7.24,5.09l.99,1.53-1-1.53c-1.6,1.01-2.66,3.02-2.65,5.02,.01,2.4,1.56,4.14,3.68,4.14h34.92c5.34,.02,10.6-1.35,15.25-3.98,4.56-2.57,8.74-5.79,12.39-9.54,3.74-3.83,7.07-8.03,9.95-12.54,.37-.58,1.86-2.78,4.12-6.13-5.84-8.61-12.3-18.11-16.25-23.92l-5.58-8.09Z"/><path class="b" d="M193.25,176.09l.15,.22,5.98,8.68c13.04-18.97,24.18-35.26,27.33-40.19,2.35-3.66,4.93-7.16,7.72-10.5,2.31-2.83,4.87-5.45,7.64-7.83,2.33-1.95,6.74-4.78,7.24-5.09,1.6-1.01,2.66-3.02,2.65-5.02-.01-2.4-1.56-4.14-3.68-4.14h-34.92c-5.34-.02-10.6,1.35-15.25,3.98-4.56,2.58-8.74,5.79-12.4,9.54-3.74,3.83-7.07,8.03-9.96,12.54-.38,.59-1.86,2.79-4.12,6.13,5.84,8.61,12.3,18.11,16.25,23.92l5.35,7.77Z"/></svg>